M48
;Layer_Color=9474304
;FILE_FORMAT=2:4
METRIC,LZ
;TYPE=PLATED
T1F00S00C0.2540
T2F00S00C0.5080
T4F00S00C0.6700
T5F00S00C0.7501
T6F00S00C2.5000
;TYPE=NON_PLATED
T7F00S00C0.6500
%
T01
X35Y-067462
Y-060153
X37762Y-067462
X393072
X406052
X4361Y-059913
Y-052948
X443247Y-052826
Y-059913
X437119Y-034391
X42924Y-034295
Y-025006
X379873Y000692
X371262Y003254
X371482Y-002692
X39656Y070461
X442168Y064104
X450896
X459623
X468351
X477078
X485806
X494533
X50326
X5105Y0689
X512269Y050896
X50326
X494797
X485806
X477078
X468351
X459623
X44873Y04737
X442168
X466568Y039258
X476192Y035375
Y024394
Y014197
X4909Y015768
X490243Y028652
X482552
Y0417
X493403Y03803
X50326Y039258
X516855Y0417
X5258
X528194Y050896
X5228Y0607
X516956Y055365
X528194Y066603
X5338Y0713
X5395Y066603
X539851Y056155
X540508Y04327
X556398Y03983
X551423Y051897
Y060268
X549193Y0689
X559661Y06815
X568028Y0713
X570058Y057759
X578071Y054951
X584058Y04772
X5927
X601782Y0436
X606226Y036068
X6067Y023858
Y012
X613187Y016142
X598939Y017127
X589603Y013344
X5927Y025641
X589481Y031819
X575215Y028418
X58015Y019326
X577948Y04013
X568028Y04772
X560453Y056155
X609861Y053112
X613403Y045451
X618051Y057759
X624291Y052035
X6216Y066603
X62099Y0735
X635308Y012887
X6484Y0133
X52834Y012628
X51842Y020218
X516956Y031819
X53168Y028418
X501815Y024394
X50679Y012328
X3145Y000558
X306777
Y-008047
X3145
X310151Y-041116
X304242
Y-047433
X310151Y-047461
X304242Y-053751
X314582Y-05558
X3219Y-055347
Y-063542
X314524
X307581Y-06797
X2763
X2552
X2481
X223889
X216031
X204642Y-058206
X199806Y-052993
X199681Y-046211
X197797Y-039342
X197671Y-033336
X197797Y-026177
X198249Y-00961
X198306Y-001083
X194757Y006609
X203227
X22469Y-025067
X232383Y-02924
X238915Y-024486
X246005Y-027409
X2766Y002537
X261378Y042924
X264051Y07012
X296055Y069866
Y056057
X298005Y044937
X310279Y042087
X328821Y062453
Y069358
X230269Y063977
X230476Y054038
X197031Y054832
X197249Y064246
X1595Y017799
X13705Y01319
X126481Y017189
X109408Y017799
X128569Y-012514
X13516Y-01293
X141961Y-012747
X149189Y-013295
X155778Y-012841
X161637Y-021336
X139484Y-023558
X0912Y-064989
X083632Y-065557
X07639Y-065314
X069667Y-064517
X063312Y-064043
X056352Y-063547
X022687Y-043677
X016125
X009563
Y-036904
X016125
X021995Y-037189
X016125Y-030017
X-000512Y-041225
X-00712Y-038005
X-015959Y-0324
X-022277Y-026837
X-029672Y-020526
X-036476Y-014905
X-042189Y-008733
X-048651Y-001949
X-055279Y006205
X-060605Y014135
X-06291Y022224
X-062977Y029018
X-063033Y035425
X-06291Y041919
X-062958Y048718
X-052389Y02753
X-043382Y034942
X-023691Y039219
X-017033Y038058
X-00644Y039658
X-005631Y04818
X-029419Y045145
X-033085Y051316
X-03511Y069147
X00843Y072688
X080688Y073436
X063433Y050145
X029102Y01382
X0319Y0066
X034924Y00008
X031028Y-006223
X023515
X023888Y004003
X039718Y-016634
X-020389Y020647
X207154Y-050167
X197428Y075388
X19703Y087948
X197249Y104806
Y111711
Y12552
Y132425
Y152704
Y166514
Y173418
Y180323
Y201382
Y215191
Y222096
Y229001
Y249671
Y256576
Y263481
Y270386
X204939Y293551
X23085Y290054
X230269Y277022
Y270117
Y263213
Y256308
Y249403
Y228733
Y221828
Y214923
Y201113
Y180055
Y17315
Y166245
Y152436
Y132157
Y125252
Y111442
Y104538
X23041Y074925
X264051Y077025
Y08393
Y103776
Y11068
Y12449
Y131395
X296055Y131141
Y124236
Y110426
Y103522
Y083676
Y076771
X305301Y090931
X328821Y083168
Y076263
X32963Y139777
X328821Y155992
Y176706
Y183611
Y211574
Y218479
Y225384
Y232289
Y252959
Y259864
Y266769
Y273673
X296055Y276006
Y269101
Y262197
Y255292
Y248387
Y227717
Y220812
Y213907
Y200098
Y179039
Y172134
Y165229
Y15142
X264051Y200352
Y214161
Y221066
Y227971
Y248641
Y255546
Y262451
Y269355
Y27626
X264717Y290054
X26583Y319988
X27508Y320308
X297824Y290054
X177505Y289478
X170355Y284096
X164279Y278324
X162443Y293058
X153507Y287976
X143645Y288478
X143416Y277675
X12286Y277281
X088036
X076345Y277475
X07631Y267004
X084549Y267556
X073949Y251124
X076345Y239572
Y22992
X068592Y229823
X085254Y222531
X088115Y239572
X04809Y243868
Y270088
X040328Y266877
X03684Y292475
X036159Y311507
X029425Y309035
X023555Y306317
X017006Y303351
X011013Y300818
X00502Y297235
X-002155Y294168
X-007645Y289697
X-013548Y285355
X-018855Y28129
X-025516Y27621
X-031048Y271806
X-036129Y266952
X-041645Y262334
X-04633Y25599
X-053162Y250036
X-057457Y24457
X-062142Y238519
X-041665Y246906
Y211251
X-037927Y205306
X-03104Y205003
X-031493Y211798
Y197487
X-038222
X-04561Y197537
X-045814Y185731
X-044824Y174858
X-045955Y167526
X-040376Y167467
X-040232Y159277
X-033889Y158612
X-03252Y164347
X-031427Y152605
X-031407Y144319
X-029627Y135777
X-032949Y121453
X-040451Y117954
X-045413Y110397
X-037294Y108171
X-04482Y091351
X-039833Y081106
X-042244Y074209
X-028899Y079602
X-029079Y091351
X-007059Y085807
X-001508Y098478
X000425Y108482
X00743Y124948
X001731Y140047
X-00426Y144279
X-005166Y13618
X000313Y150397
X-005126Y155885
X-003694Y174493
X00845Y185028
X-006061Y196382
X-0081Y211328
X-015248Y217968
X015784Y215782
X03345Y210528
X032137Y22992
X03595Y191348
X043824Y195245
X03595Y17639
X035209Y135396
X027339Y139918
X014966Y139453
X027039Y126629
X040035Y127438
X04098Y104898
X039876Y075738
X080688Y100439
X08191Y114998
X0707Y140197
X070955Y147432
X089807Y162991
X089299Y170992
X085185Y187851
X085254Y193906
X066719Y20389
X125586Y187375
X14302Y186938
X165245Y185326
Y178485
X164991Y171525
Y164684
Y149783
Y130716
Y123875
Y10982
Y102979
X164483Y093141
X164603Y085323
X164991Y075615
X125446Y088003
Y106927
X14266Y106378
X125586Y168289
X165245Y203631
Y211183
Y218024
Y224865
X163069Y236888
X175316Y234746
X12286Y322318
X11412Y322428
X106005Y322318
X09698
X086721Y322428
X077986Y321884
X069606Y320643
X060564Y318488
X051976Y316264
X043388Y313978
X072637Y298568
Y289991
X086619Y296593
X-034857Y191792
X-037448Y173243
X-028451Y173395
X-046041Y160731
X-046306Y150063
X-037615Y150218
X-045413Y139227
X-044744Y129539
X341096Y13947
Y099211
X393399Y093055
X403758Y092682
X399593Y098434
X39708Y106367
X398204Y11516
X403625Y120118
X408323Y126796
X416223Y127024
X423987Y127075
X431751Y127024
X439515Y126796
X447279
X455043Y126608
X462807
X470571
X478335
X486099
X493863Y126528
X501627Y126608
X509701Y129908
X524245
X5338Y127381
X541216Y126854
X549557Y12877
X547781Y120049
X5395Y117679
X537052Y107101
X539851Y10032
X542732Y093394
X5338Y090939
Y081643
X539851Y0848
X5395Y077
X524245Y082958
X516956
X508911
X501854
X494797
X48774
X480683
X473625
X466568
X459511
X452454
X445397
X43834
X389934Y077087
X403332Y154543
X401535Y16292
X403222Y171102
X39817Y18099
Y191471
X401535Y202434
X4072Y210098
X414933Y212543
X41252Y220498
X397499Y227968
X39779Y234598
X39247Y239368
X38752Y244808
X382682Y249916
X37676Y254978
X370462Y259613
X363202Y264019
X362578Y271118
X36036Y277908
X35477Y282548
X354078Y291073
X358491Y295945
X358207Y304825
Y312204
Y319584
X401405Y319865
X41307Y319678
X4175Y307278
X42948
X44075Y309618
X43876Y299448
X43763Y286618
X42948
Y277008
X43763Y271588
X443496Y276662
X45457Y258568
X457334Y251562
X46611Y246806
X47111Y241348
X48001
X49387Y242748
X503547
X51677Y241348
X526299
X537563Y243353
X539089Y237089
X54996Y242188
X561078Y238618
X567316Y242926
X57525Y23559
X5772Y221658
X56969Y223394
X556383Y218964
X549557Y226642
X539089Y218964
X5456Y2073
X54996Y197627
X539089
X563208
X571572Y197927
X568625Y190793
X568669Y18358
X562308Y183823
X555683
X561078Y2073
X57525
X580913Y2016
X607564
X614659
X620515Y199018
X62099Y192523
Y185522
Y178521
Y171519
Y164518
Y157517
Y150515
Y143514
Y136512
Y129511
Y12251
Y115508
Y108507
Y101505
Y094504
Y087503
Y080501
X608439Y101999
X602198Y113622
X5927Y107101
X584022
X57673Y112353
X567115Y112645
X571019Y118224
X5666Y126756
X56895Y133273
X571024Y140484
X563208Y1408
X556383
X5601Y1326
X560087Y121528
X555561Y113622
X5455Y1102
X551423Y101999
X553693Y095563
X563341Y093394
X57112
X573177Y101999
X56199Y10386
X57112Y078196
X578829Y079144
X5176Y0749
X528194Y10032
Y110459
X46172Y1408
X454271
X446821
X439372
Y1831
X446821
X454271
X46172
X458236Y191398
X47111Y258568
X470611Y283358
X46611Y294457
X42291Y294318
X4175Y286208
X40955Y299448
X40456Y307278
X43152Y321048
X33638Y291643
X362898Y239596
X362578Y23312
X361613Y217677
X3624Y203834
X380191Y20132
Y193773
X37465Y226928
X377962Y243212
X364508Y159333
X61359Y209034
X6088Y2158
T02
X181102Y093141
X21434Y093395
X230959
X247577
X264196Y093141
X280815
X297281
X313067
X328999
X32119Y144703
X302075Y139978
X287927Y139623
X271308
X25469Y139877
X238071
X221452
X204833Y139623
X188214
X171595
X172614Y193462
X189233
X205852
X222471Y193716
X23909
X255709
X272328Y193462
X288946
X305412
X321199
X331945Y194538
X329577Y239699
X313791
X297325
X280706
X264088Y239953
X247469
X23085
X214231Y239699
X19508Y239948
X180993Y239699
X34008Y2399
X35477Y239368
X36985Y252761
X3624Y187248
X363899Y139115
X363137Y075767
T04
X-050405Y045897
Y209897
T05
X4582Y-05125
Y-016249
Y270912
Y305913
T06
X6712Y030458
X0Y0
X0Y255258
X6712Y224458
T07
X115839Y-012056
X173639
M30
