G04*
G04 #@! TF.GenerationSoftware,Altium Limited,Altium Designer,22.2.1 (43)*
G04*
G04 Layer_Color=16711935*
%FSLAX25Y25*%
%MOIN*%
G70*
G04*
G04 #@! TF.SameCoordinates,6C9F7B6B-14DB-4A3D-A1FA-6D2C2168172C*
G04*
G04*
G04 #@! TF.FilePolarity,Positive*
G04*
G01*
G75*
%ADD17C,0.00600*%
D17*
X82464Y155714D02*
X86450Y151727D01*
X78740Y155710D02*
X82464Y155714D01*
X76219Y155710D02*
X78740Y155710D01*
X71195Y155381D02*
X76219Y155710D01*
X66202Y154724D02*
X71195Y155381D01*
X61264Y153742D02*
X66202Y154724D01*
X56400Y152440D02*
X61264Y153742D01*
X51631Y150822D02*
X56400Y152440D01*
X46979Y148897D02*
X51631Y150822D01*
X42462Y146671D02*
X46979Y148897D01*
X38100Y144155D02*
X42462Y146671D01*
X33913Y141360D02*
X38100Y144155D01*
X29916Y138296D02*
X33913Y141360D01*
X26129Y134979D02*
X29916Y138296D01*
X24406Y133257D02*
X26129Y134979D01*
X24406Y133257D02*
X25093Y128822D01*
X8156Y102742D02*
X25093Y128822D01*
X5244Y101604D02*
X8156Y102742D01*
X4715Y99916D02*
X5244Y101604D01*
X3734Y96128D02*
X4715Y99916D01*
X2948Y92296D02*
X3734Y96128D01*
X2357Y88429D02*
X2948Y92296D01*
X1964Y84536D02*
X2357Y88429D01*
X1768Y80629D02*
X1964Y84536D01*
X1768Y80629D02*
X1772Y76717D01*
X1974Y72810D01*
X2374Y68918D01*
X2972Y65052D01*
X3765Y61221D01*
X4752Y57435D01*
X5289Y55731D01*
X7314Y54904D01*
X24153Y27894D01*
X23383Y25262D02*
X24153Y27894D01*
X23383Y25262D02*
X25163Y23418D01*
X28982Y19960D01*
X33022Y16765D01*
X37268Y13847D01*
X41699Y11220D01*
X46296Y8895D01*
X51038Y6882D01*
X55903Y5191D01*
X60871Y3829D01*
X65919Y2802D01*
X71025Y2114D01*
X76165Y1770D01*
X78740D01*
X78794Y1778D01*
X82283Y1778D01*
X86673Y6537D01*
X113122Y6537D01*
X116147Y1755D01*
X279668Y1768D01*
X282891Y5797D01*
X310438D01*
X310785Y5866D01*
X312069Y6398D01*
X313224Y7170D01*
X314207Y8153D01*
X314979Y9309D01*
X315511Y10593D01*
X315782Y11956D01*
X315782Y12651D02*
X315782Y11956D01*
X315781Y48216D02*
X315782Y12651D01*
X315781Y48216D02*
X315808Y48281D01*
X315812Y48384D01*
X315808Y48507D02*
X315812Y48384D01*
X315801Y48630D02*
X315808Y48507D01*
X315789Y48752D02*
X315801Y48630D01*
X315781Y48813D02*
X315789Y48752D01*
X315780Y48873D02*
X315781Y48813D01*
X315714Y49263D02*
X315780Y48873D01*
X315488Y49921D02*
X315714Y49263D01*
X315150Y50529D02*
X315488Y49921D01*
X314710Y51068D02*
X315150Y50529D01*
X314182Y51521D02*
X314710Y51068D01*
X313583Y51873D02*
X314182Y51521D01*
X312931Y52114D02*
X313583Y51873D01*
X312246Y52237D02*
X312931Y52114D01*
X311898Y52237D02*
X312246Y52237D01*
X311847Y52230D02*
X311898Y52237D01*
X307658Y52230D02*
X311847Y52230D01*
X307127Y52299D02*
X307658Y52230D01*
X306171Y52717D02*
X307127Y52299D01*
X305436Y53457D02*
X306171Y52717D01*
X305025Y54417D02*
X305436Y53457D01*
X304961Y54937D02*
X305025Y54417D01*
X304961Y54937D02*
X304961Y55089D01*
Y101774D01*
X304966Y102072D01*
X305054Y102610D01*
X305245Y103121D01*
X305532Y103586D01*
X305904Y103985D01*
X306347Y104304D01*
X306844Y104530D01*
X307375Y104655D01*
X307647Y104678D01*
X311911Y104678D01*
X312314Y104678D01*
X313070Y104828D01*
X313782Y105123D01*
X314423Y105552D01*
X314968Y106097D01*
X315397Y106738D01*
X315692Y107450D01*
X315842Y108206D01*
Y108592D01*
X315842Y145289D02*
X315842Y108592D01*
X315835Y145341D02*
X315842Y145289D01*
X315786Y145995D02*
X315835Y145341D01*
X315489Y147211D02*
X315786Y145995D01*
X314982Y148356D02*
X315489Y147211D01*
X314282Y149394D02*
X314982Y148356D01*
X313410Y150292D02*
X314282Y149394D01*
X312394Y151023D02*
X313410Y150292D01*
X311265Y151564D02*
X312394Y151023D01*
X310471Y151783D02*
X311265Y151564D01*
X282814Y151783D02*
X310471Y151783D01*
X279286Y155713D02*
X282814Y151783D01*
X139203Y155713D02*
X279286Y155713D01*
X117210Y155713D02*
X139203D01*
X113901Y151727D02*
X117210Y155713D01*
X86450Y151727D02*
X113901D01*
M02*
