G04*
G04 #@! TF.GenerationSoftware,Altium Limited,Altium Designer,22.2.1 (43)*
G04*
G04 Layer_Physical_Order=1*
G04 Layer_Color=255*
%FSLAX44Y44*%
%MOMM*%
G71*
G04*
G04 #@! TF.SameCoordinates,32B94617-2C73-494B-87D1-3967A9C4A560*
G04*
G04*
G04 #@! TF.FilePolarity,Positive*
G04*
G01*
G75*
%ADD10C,0.1270*%
G04:AMPARAMS|DCode=18|XSize=0.6mm|YSize=0.5mm|CornerRadius=0.1mm|HoleSize=0mm|Usage=FLASHONLY|Rotation=0.000|XOffset=0mm|YOffset=0mm|HoleType=Round|Shape=RoundedRectangle|*
%AMROUNDEDRECTD18*
21,1,0.6000,0.3000,0,0,0.0*
21,1,0.4000,0.5000,0,0,0.0*
1,1,0.2000,0.2000,-0.1500*
1,1,0.2000,-0.2000,-0.1500*
1,1,0.2000,-0.2000,0.1500*
1,1,0.2000,0.2000,0.1500*
%
%ADD18ROUNDEDRECTD18*%
%ADD19R,0.8000X1.4000*%
%ADD20R,1.4000X0.8000*%
G04:AMPARAMS|DCode=21|XSize=0.6mm|YSize=0.5mm|CornerRadius=0.1mm|HoleSize=0mm|Usage=FLASHONLY|Rotation=90.000|XOffset=0mm|YOffset=0mm|HoleType=Round|Shape=RoundedRectangle|*
%AMROUNDEDRECTD21*
21,1,0.6000,0.3000,0,0,90.0*
21,1,0.4000,0.5000,0,0,90.0*
1,1,0.2000,0.1500,0.2000*
1,1,0.2000,0.1500,-0.2000*
1,1,0.2000,-0.1500,-0.2000*
1,1,0.2000,-0.1500,0.2000*
%
%ADD21ROUNDEDRECTD21*%
%ADD25R,0.5001X0.6000*%
%ADD26R,0.8000X1.6000*%
G04:AMPARAMS|DCode=27|XSize=0.8mm|YSize=0.6mm|CornerRadius=0mm|HoleSize=0mm|Usage=FLASHONLY|Rotation=315.000|XOffset=0mm|YOffset=0mm|HoleType=Round|Shape=Rectangle|*
%AMROTATEDRECTD27*
4,1,4,-0.4950,0.0707,-0.0707,0.4950,0.4950,-0.0707,0.0707,-0.4950,-0.4950,0.0707,0.0*
%
%ADD27ROTATEDRECTD27*%

%ADD28R,0.3000X0.3000*%
G04:AMPARAMS|DCode=30|XSize=1mm|YSize=0.5mm|CornerRadius=0.0625mm|HoleSize=0mm|Usage=FLASHONLY|Rotation=270.000|XOffset=0mm|YOffset=0mm|HoleType=Round|Shape=RoundedRectangle|*
%AMROUNDEDRECTD30*
21,1,1.0000,0.3750,0,0,270.0*
21,1,0.8750,0.5000,0,0,270.0*
1,1,0.1250,-0.1875,-0.4375*
1,1,0.1250,-0.1875,0.4375*
1,1,0.1250,0.1875,0.4375*
1,1,0.1250,0.1875,-0.4375*
%
%ADD30ROUNDEDRECTD30*%
%ADD31R,0.4501X0.6000*%
%ADD32C,0.2032*%
%ADD56C,0.1524*%
G04:AMPARAMS|DCode=57|XSize=1.3mm|YSize=0.7mm|CornerRadius=0.14mm|HoleSize=0mm|Usage=FLASHONLY|Rotation=0.000|XOffset=0mm|YOffset=0mm|HoleType=Round|Shape=RoundedRectangle|*
%AMROUNDEDRECTD57*
21,1,1.3000,0.4200,0,0,0.0*
21,1,1.0200,0.7000,0,0,0.0*
1,1,0.2800,0.5100,-0.2100*
1,1,0.2800,-0.5100,-0.2100*
1,1,0.2800,-0.5100,0.2100*
1,1,0.2800,0.5100,0.2100*
%
%ADD57ROUNDEDRECTD57*%
G04:AMPARAMS|DCode=58|XSize=0.381mm|YSize=0.381mm|CornerRadius=0.0953mm|HoleSize=0mm|Usage=FLASHONLY|Rotation=180.000|XOffset=0mm|YOffset=0mm|HoleType=Round|Shape=RoundedRectangle|*
%AMROUNDEDRECTD58*
21,1,0.3810,0.1905,0,0,180.0*
21,1,0.1905,0.3810,0,0,180.0*
1,1,0.1905,-0.0953,0.0953*
1,1,0.1905,0.0953,0.0953*
1,1,0.1905,0.0953,-0.0953*
1,1,0.1905,-0.0953,-0.0953*
%
%ADD58ROUNDEDRECTD58*%
G04:AMPARAMS|DCode=59|XSize=0.9mm|YSize=0.6mm|CornerRadius=0.12mm|HoleSize=0mm|Usage=FLASHONLY|Rotation=180.000|XOffset=0mm|YOffset=0mm|HoleType=Round|Shape=RoundedRectangle|*
%AMROUNDEDRECTD59*
21,1,0.9000,0.3600,0,0,180.0*
21,1,0.6600,0.6000,0,0,180.0*
1,1,0.2400,-0.3300,0.1800*
1,1,0.2400,0.3300,0.1800*
1,1,0.2400,0.3300,-0.1800*
1,1,0.2400,-0.3300,-0.1800*
%
%ADD59ROUNDEDRECTD59*%
%ADD60R,1.1000X3.7000*%
G04:AMPARAMS|DCode=61|XSize=0.9mm|YSize=0.6mm|CornerRadius=0.12mm|HoleSize=0mm|Usage=FLASHONLY|Rotation=270.000|XOffset=0mm|YOffset=0mm|HoleType=Round|Shape=RoundedRectangle|*
%AMROUNDEDRECTD61*
21,1,0.9000,0.3600,0,0,270.0*
21,1,0.6600,0.6000,0,0,270.0*
1,1,0.2400,-0.1800,-0.3300*
1,1,0.2400,-0.1800,0.3300*
1,1,0.2400,0.1800,0.3300*
1,1,0.2400,0.1800,-0.3300*
%
%ADD61ROUNDEDRECTD61*%
G04:AMPARAMS|DCode=62|XSize=0.381mm|YSize=0.381mm|CornerRadius=0.0953mm|HoleSize=0mm|Usage=FLASHONLY|Rotation=270.000|XOffset=0mm|YOffset=0mm|HoleType=Round|Shape=RoundedRectangle|*
%AMROUNDEDRECTD62*
21,1,0.3810,0.1905,0,0,270.0*
21,1,0.1905,0.3810,0,0,270.0*
1,1,0.1905,-0.0953,-0.0953*
1,1,0.1905,-0.0953,0.0953*
1,1,0.1905,0.0953,0.0953*
1,1,0.1905,0.0953,-0.0953*
%
%ADD62ROUNDEDRECTD62*%
%ADD63C,0.5080*%
%ADD64C,0.3810*%
%ADD65C,0.2540*%
%ADD66C,0.5842*%
%ADD67R,0.1687X0.1326*%
%ADD68R,0.1326X0.1687*%
%ADD69C,1.5001*%
%ADD70C,2.5254*%
%ADD71C,4.5000*%
%ADD72O,1.0000X2.1001*%
%ADD73O,1.1001X1.7000*%
%ADD74C,0.6500*%
%ADD75C,0.5080*%
%ADD76C,0.6700*%
G36*
X475644Y248004D02*
X475802Y247211D01*
X476251Y246539D01*
X476923Y246090D01*
X477716Y245932D01*
X698222D01*
X700802Y243353D01*
X700802Y212009D01*
X685574D01*
X685056Y211457D01*
X657344Y211457D01*
X657344Y211457D01*
X656826Y212009D01*
X638590D01*
X637797Y211851D01*
X637125Y211402D01*
X636676Y210730D01*
X636518Y209937D01*
Y43736D01*
X636676Y42944D01*
X637125Y42271D01*
X637797Y41822D01*
X638590Y41665D01*
X655849D01*
X656718Y42791D01*
X657344Y43458D01*
X685056D01*
X685682Y42791D01*
X686552Y41665D01*
X700802D01*
Y10580D01*
X697757Y7536D01*
X477716Y7536D01*
X476923Y7378D01*
X476251Y6929D01*
X475802Y6257D01*
X475644Y5464D01*
Y-72214D01*
X97981Y-72214D01*
X97617Y-72287D01*
X97250Y-72347D01*
X96930Y-72468D01*
X91413D01*
X79646Y-71770D01*
X67940Y-70377D01*
X56338Y-68293D01*
X44879Y-65526D01*
X33604Y-62085D01*
X22553Y-57984D01*
X11763Y-53235D01*
X1274Y-47855D01*
X-8878Y-41864D01*
X-18658Y-35283D01*
X-28031Y-28133D01*
X-36964Y-20442D01*
X-45427Y-12236D01*
X-53388Y-3542D01*
X-60821Y5607D01*
X-66318Y13257D01*
Y239923D01*
X-61715Y246423D01*
X-54503Y255448D01*
X-46780Y264038D01*
X-38571Y272167D01*
X-29904Y279805D01*
X-20809Y286928D01*
X-11316Y293511D01*
X-1457Y299532D01*
X8734Y304971D01*
X19224Y309810D01*
X29978Y314031D01*
X40958Y317622D01*
X52127Y320570D01*
X63449Y322865D01*
X74886Y324499D01*
X86397Y325466D01*
X92172Y325616D01*
X92331Y325652D01*
X92493Y325649D01*
X92671Y325682D01*
X239529D01*
X239529Y310890D01*
X195977Y310889D01*
X195352Y311307D01*
X193966Y311881D01*
X192494Y312174D01*
X190993D01*
X189520Y311881D01*
X188134Y311307D01*
X186886Y310473D01*
X185824Y309412D01*
X184990Y308163D01*
X184416Y306777D01*
X184123Y305305D01*
Y303804D01*
X184416Y302331D01*
X184990Y300945D01*
X185824Y299697D01*
X186886Y298635D01*
X188134Y297801D01*
X189520Y297227D01*
X190993Y296934D01*
X192494D01*
X193966Y297227D01*
X195352Y297801D01*
X196601Y298635D01*
X197297Y299332D01*
X203140D01*
X203309Y299271D01*
X204349Y298062D01*
Y295901D01*
X204545Y294916D01*
X205102Y294081D01*
X205937Y293523D01*
X206922Y293327D01*
X210922D01*
X211907Y293523D01*
X212742Y294081D01*
X213261Y294858D01*
X213665Y294916D01*
X214179D01*
X214583Y294858D01*
X215102Y294081D01*
X215937Y293523D01*
X216922Y293327D01*
X220922D01*
X221907Y293523D01*
X222742Y294081D01*
X223300Y294916D01*
X223496Y295901D01*
Y298901D01*
X224705Y299332D01*
X239430D01*
X239430Y299332D01*
X239529Y298103D01*
X239529Y288596D01*
X291726Y288596D01*
X328812Y325682D01*
X475644D01*
Y248004D01*
D02*
G37*
%LPC*%
G36*
X458805Y315226D02*
X458754D01*
Y306455D01*
X467524D01*
Y306507D01*
X466840Y309061D01*
X465518Y311350D01*
X463649Y313220D01*
X461359Y314542D01*
X458805Y315226D01*
D02*
G37*
G36*
X456213D02*
X456162D01*
X453608Y314542D01*
X451318Y313220D01*
X449449Y311350D01*
X448127Y309061D01*
X447443Y306507D01*
Y306455D01*
X456213D01*
Y315226D01*
D02*
G37*
G36*
X467524Y303915D02*
X458754D01*
Y295145D01*
X458805D01*
X461359Y295829D01*
X463649Y297151D01*
X465518Y299020D01*
X466840Y301310D01*
X467524Y303864D01*
Y303915D01*
D02*
G37*
G36*
X456213D02*
X447443D01*
Y303864D01*
X448127Y301310D01*
X449449Y299020D01*
X451318Y297151D01*
X453608Y295829D01*
X456162Y295145D01*
X456213D01*
Y303915D01*
D02*
G37*
G36*
X48090Y278216D02*
X46473D01*
X44980Y277597D01*
X43836Y276454D01*
X43218Y274960D01*
Y273343D01*
X43836Y271849D01*
X44980Y270706D01*
X46473Y270088D01*
X48090D01*
X49584Y270706D01*
X50727Y271849D01*
X51346Y273343D01*
Y274960D01*
X50727Y276454D01*
X49584Y277597D01*
X48090Y278216D01*
D02*
G37*
G36*
X457080Y287216D02*
X456830D01*
X456502Y287151D01*
X455410D01*
X454425Y286956D01*
X453590Y286398D01*
X453032Y285563D01*
X452836Y284578D01*
Y283829D01*
X452686Y283073D01*
X452836Y282317D01*
Y281578D01*
X452976Y280875D01*
Y278003D01*
X451942Y277406D01*
X450262Y275725D01*
X449074Y273668D01*
X448459Y271372D01*
Y268996D01*
X449074Y266701D01*
X450262Y264643D01*
X451942Y262963D01*
X454000Y261775D01*
X456295Y261160D01*
X458672D01*
X460967Y261775D01*
X463025Y262963D01*
X464705Y264643D01*
X465893Y266701D01*
X466508Y268996D01*
Y271372D01*
X465893Y273668D01*
X464705Y275725D01*
X463025Y277406D01*
X461263Y278423D01*
Y279809D01*
X461787Y280593D01*
X461983Y281578D01*
Y284578D01*
X461787Y285563D01*
X461230Y286398D01*
X460395Y286956D01*
X459410Y287151D01*
X457407D01*
X457080Y287216D01*
D02*
G37*
G36*
X39179Y209985D02*
X37562D01*
X36069Y209366D01*
X34925Y208223D01*
X34307Y206729D01*
Y205113D01*
X34925Y203619D01*
X36069Y202476D01*
X37562Y201857D01*
X39179D01*
X40673Y202476D01*
X41816Y203619D01*
X42435Y205113D01*
Y206729D01*
X41816Y208223D01*
X40673Y209366D01*
X39179Y209985D01*
D02*
G37*
G36*
X36758Y195412D02*
X35142D01*
X33648Y194793D01*
X32564Y193709D01*
X32459Y193643D01*
X31483Y193490D01*
X31082Y193534D01*
X30377Y194005D01*
X29392Y194201D01*
X25392D01*
X24407Y194005D01*
X23573Y193447D01*
X23015Y192612D01*
X22819Y191628D01*
Y188628D01*
X23015Y187643D01*
X23573Y186808D01*
X24407Y186250D01*
X25392Y186054D01*
X29392D01*
X30377Y186250D01*
X31212Y186808D01*
X31527Y187279D01*
X34043D01*
X34043Y187279D01*
X34793Y187428D01*
X35142Y187284D01*
X36758D01*
X38252Y187902D01*
X39395Y189046D01*
X40014Y190539D01*
Y192156D01*
X39395Y193650D01*
X38252Y194793D01*
X36758Y195412D01*
D02*
G37*
G36*
X-27458Y225107D02*
X-60343D01*
X-61509Y224624D01*
X-63053Y223080D01*
X-63537Y221914D01*
X-63537Y191647D01*
X-63053Y190480D01*
X-61887Y189997D01*
X-49091D01*
X-48757Y189457D01*
X-48644Y188727D01*
X-48744Y188661D01*
X-48970Y188321D01*
X-49259Y188033D01*
X-49415Y187656D01*
X-49642Y187316D01*
X-49721Y186916D01*
X-49878Y186539D01*
Y186131D01*
X-49957Y185731D01*
X-49878Y185331D01*
Y184922D01*
X-49721Y184545D01*
X-49642Y184145D01*
X-49415Y183806D01*
X-49259Y183429D01*
X-48970Y183140D01*
X-48744Y182801D01*
X-48404Y182574D01*
X-48116Y182285D01*
X-47739Y182129D01*
X-47399Y181903D01*
X-46999Y181823D01*
X-46622Y181667D01*
X-46214D01*
X-45814Y181587D01*
X-7876D01*
X-6291Y181903D01*
X-4946Y182801D01*
X5705Y193452D01*
X5932Y193791D01*
X6220Y194080D01*
X6376Y194457D01*
X6603Y194796D01*
X6683Y195196D01*
X6839Y195574D01*
Y195982D01*
X6919Y196382D01*
X6839Y196782D01*
Y197190D01*
X6683Y197567D01*
X6603Y197968D01*
X6376Y198307D01*
X6220Y198684D01*
X5932Y198973D01*
X5705Y199312D01*
X5366Y199539D01*
X5077Y199827D01*
X4700Y199983D01*
X4361Y200210D01*
X3960Y200290D01*
X3583Y200446D01*
X3175D01*
X2775Y200526D01*
X2375Y200446D01*
X1966D01*
X1590Y200290D01*
X1189Y200210D01*
X850Y199983D01*
X473Y199827D01*
X184Y199539D01*
X-155Y199312D01*
X-9593Y189874D01*
X-29136D01*
X-29662Y191144D01*
X-20687Y200120D01*
X-20204Y201286D01*
Y217853D01*
X-20687Y219020D01*
X-26291Y224624D01*
X-27458Y225107D01*
D02*
G37*
G36*
X29392Y184201D02*
X25392D01*
X24407Y184005D01*
X23573Y183447D01*
X23015Y182612D01*
X22819Y181628D01*
Y178628D01*
X23015Y177643D01*
X23469Y176963D01*
X23293Y175693D01*
X22343D01*
X22023Y175693D01*
X14794D01*
Y173895D01*
X12940D01*
X12775Y174005D01*
X11790Y174201D01*
X8790D01*
X7805Y174005D01*
X6970Y173447D01*
X6413Y172612D01*
X6217Y171628D01*
Y167628D01*
X6413Y166643D01*
X6794Y166072D01*
Y164382D01*
X6413Y163811D01*
X6217Y162826D01*
Y158826D01*
X6413Y157841D01*
X6970Y157006D01*
X7805Y156448D01*
X8790Y156253D01*
X11790D01*
X12775Y156448D01*
X13610Y157006D01*
X14168Y157841D01*
X14363Y158826D01*
Y162826D01*
X14168Y163811D01*
X13786Y164382D01*
Y166013D01*
X14794Y166646D01*
X22023D01*
X22343Y166646D01*
X23293D01*
X23613Y166646D01*
X27708D01*
X28194Y165472D01*
X13318Y150596D01*
X12813Y149840D01*
X12635Y148948D01*
Y142870D01*
X11521Y141755D01*
X10902Y140261D01*
Y138645D01*
X11521Y137151D01*
X12664Y136008D01*
X14158Y135389D01*
X15775D01*
X17268Y136008D01*
X18412Y137151D01*
X19030Y138645D01*
Y140261D01*
X18412Y141755D01*
X17297Y142870D01*
Y147983D01*
X40560Y171245D01*
X51406D01*
Y168051D01*
X68454D01*
Y179099D01*
X51406D01*
Y175907D01*
X39792D01*
Y177421D01*
X39173Y178914D01*
X38030Y180058D01*
X36536Y180676D01*
X36265D01*
X34936Y182005D01*
X33802Y182763D01*
X32464Y183029D01*
X31492D01*
X31212Y183447D01*
X30377Y184005D01*
X29392Y184201D01*
D02*
G37*
G36*
X-4494Y177790D02*
X-6111D01*
X-7604Y177171D01*
X-8748Y176028D01*
X-9366Y174534D01*
Y172918D01*
X-8748Y171424D01*
X-7604Y170281D01*
X-6111Y169662D01*
X-4494D01*
X-3783Y168587D01*
Y167628D01*
X-3587Y166643D01*
X-3030Y165808D01*
X-2195Y165250D01*
X-1210Y165054D01*
X1790D01*
X2775Y165250D01*
X3610Y165808D01*
X4168Y166643D01*
X4364Y167628D01*
Y171628D01*
X4168Y172612D01*
X3610Y173447D01*
X2775Y174005D01*
X1790Y174201D01*
X1161D01*
X-593Y175955D01*
X-1727Y176713D01*
X-2744Y176915D01*
X-3000Y177171D01*
X-4494Y177790D01*
D02*
G37*
G36*
X68154Y166349D02*
X51106D01*
Y163157D01*
X48464D01*
X47572Y162979D01*
X46816Y162474D01*
X28272Y143930D01*
X28148Y143982D01*
X26531D01*
X25037Y143363D01*
X23894Y142220D01*
X23275Y140726D01*
Y139109D01*
X23894Y137616D01*
X25037Y136472D01*
X26531Y135854D01*
X28148D01*
X29642Y136472D01*
X30051Y136882D01*
X31074Y136249D01*
X31145Y136180D01*
Y134588D01*
X31764Y133094D01*
X32907Y131951D01*
X34401Y131332D01*
X35984D01*
X36113Y131206D01*
X36813Y130287D01*
X36207Y129380D01*
X35991Y128294D01*
X35971Y128246D01*
Y128195D01*
X35892Y127794D01*
Y127438D01*
X35971Y127037D01*
Y126629D01*
X36127Y126252D01*
X36207Y125852D01*
X36434Y125513D01*
X36590Y125135D01*
X36878Y124847D01*
X37105Y124508D01*
X37445Y124281D01*
X37733Y123992D01*
X38110Y123836D01*
X38449Y123609D01*
X38850Y123530D01*
X39227Y123374D01*
X39635D01*
X40035Y123294D01*
X40436Y123374D01*
X40844D01*
X41221Y123530D01*
X41621Y123609D01*
X41960Y123836D01*
X42337Y123992D01*
X42626Y124281D01*
X42965Y124508D01*
X43192Y124847D01*
X43481Y125135D01*
X43637Y125513D01*
X43683Y125582D01*
X44926Y126825D01*
X45513Y126942D01*
X46858Y127840D01*
X48810Y129792D01*
X58256D01*
X58651Y129871D01*
X68244D01*
Y140919D01*
X51196D01*
Y138080D01*
X47094D01*
X45508Y137764D01*
X44164Y136866D01*
X42013Y134715D01*
X41425Y134598D01*
X40356Y133884D01*
X39367Y134527D01*
X39273Y134635D01*
Y136164D01*
X48865Y145755D01*
X51196D01*
Y142561D01*
X68244D01*
Y153609D01*
X51196D01*
Y150417D01*
X47899D01*
X47007Y150239D01*
X46251Y149734D01*
X35977Y139460D01*
X34401D01*
X32907Y138841D01*
X32497Y138432D01*
X31475Y139065D01*
X31404Y139134D01*
Y140470D01*
X49429Y158495D01*
X51106D01*
Y155301D01*
X68154D01*
Y166349D01*
D02*
G37*
G36*
X-28294Y172155D02*
X-29911D01*
X-31405Y171537D01*
X-32548Y170393D01*
X-33167Y168900D01*
Y167283D01*
X-33162Y167271D01*
X-34243Y166823D01*
X-35387Y165680D01*
X-36005Y164186D01*
Y162570D01*
X-35387Y161076D01*
X-34243Y159933D01*
X-33077Y159450D01*
X-33124Y159335D01*
Y157719D01*
X-32505Y156225D01*
X-31362Y155082D01*
X-29868Y154463D01*
X-28252D01*
X-26758Y155082D01*
X-25615Y156225D01*
X-24996Y157719D01*
Y159335D01*
X-25615Y160829D01*
X-26758Y161972D01*
X-27924Y162456D01*
X-27877Y162570D01*
Y164186D01*
X-27882Y164198D01*
X-26801Y164646D01*
X-25657Y165789D01*
X-25039Y167283D01*
Y168900D01*
X-25657Y170393D01*
X-26801Y171537D01*
X-28294Y172155D01*
D02*
G37*
G36*
X-43935Y153874D02*
X-45552D01*
X-47046Y153255D01*
X-48189Y152112D01*
X-48808Y150618D01*
Y149001D01*
X-48189Y147507D01*
X-47046Y146364D01*
X-45552Y145746D01*
X-43935D01*
X-42442Y146364D01*
X-41298Y147507D01*
X-40680Y149001D01*
Y150618D01*
X-41298Y152112D01*
X-42442Y153255D01*
X-43935Y153874D01*
D02*
G37*
G36*
X-37927Y145640D02*
X-39543D01*
X-41037Y145021D01*
X-42180Y143878D01*
X-42288Y143617D01*
X-43787Y143319D01*
X-43867Y143399D01*
X-45360Y144018D01*
X-46977D01*
X-48471Y143399D01*
X-49326Y142544D01*
X-51919D01*
X-52656Y143036D01*
X-53623Y143228D01*
X-55528D01*
X-56494Y143036D01*
X-57313Y142489D01*
X-57860Y141670D01*
X-58053Y140703D01*
Y138798D01*
X-57860Y137832D01*
X-57313Y137013D01*
X-56922Y136752D01*
Y136339D01*
X-56439Y135172D01*
X-55273Y134689D01*
X-53946D01*
X-52780Y135172D01*
X-52297Y136339D01*
Y136706D01*
X-51837Y137013D01*
X-51603Y137364D01*
X-49326D01*
X-48471Y136509D01*
X-46977Y135890D01*
X-45360D01*
X-43867Y136509D01*
X-42723Y137652D01*
X-42615Y137913D01*
X-41117Y138210D01*
X-41037Y138130D01*
X-39543Y137512D01*
X-37927D01*
X-36433Y138130D01*
X-35290Y139274D01*
X-34671Y140767D01*
Y142384D01*
X-35290Y143878D01*
X-36433Y145021D01*
X-37927Y145640D01*
D02*
G37*
G36*
X79174Y153342D02*
X77558D01*
X76064Y152724D01*
X74921Y151580D01*
X74302Y150087D01*
Y148470D01*
X74921Y146976D01*
X75822Y146075D01*
X75966Y145317D01*
X75822Y144559D01*
X74921Y143658D01*
X74302Y142164D01*
Y140548D01*
X74921Y139054D01*
X76064Y137911D01*
X77558Y137292D01*
X79174D01*
X80668Y137911D01*
X81811Y139054D01*
X82430Y140548D01*
Y142164D01*
X81811Y143658D01*
X80911Y144559D01*
X80766Y145317D01*
X80911Y146075D01*
X81811Y146976D01*
X82430Y148470D01*
Y150087D01*
X81811Y151580D01*
X80668Y152724D01*
X79174Y153342D01*
D02*
G37*
G36*
X-28819Y139841D02*
X-30436D01*
X-31930Y139223D01*
X-33073Y138079D01*
X-33691Y136586D01*
Y134969D01*
X-33073Y133475D01*
X-33030Y133433D01*
Y132123D01*
X-33295Y131858D01*
X-33696D01*
X-34663Y131666D01*
X-35276Y131257D01*
X-35889Y131666D01*
X-36855Y131858D01*
X-37365D01*
X-37963Y132258D01*
X-39053Y132475D01*
X-39053Y132475D01*
X-40956D01*
X-42039Y133557D01*
X-43532Y134176D01*
X-45149D01*
X-46643Y133557D01*
X-47786Y132414D01*
X-48405Y130920D01*
Y129304D01*
X-47786Y127810D01*
X-46643Y126667D01*
X-45227Y126080D01*
X-45133Y126018D01*
X-44551Y124899D01*
X-44588Y124879D01*
X-45917Y124675D01*
X-46302Y124932D01*
X-47268Y125124D01*
X-49173D01*
X-50140Y124932D01*
X-50753Y124522D01*
X-51366Y124932D01*
X-52332Y125124D01*
X-54237D01*
X-55203Y124932D01*
X-56023Y124385D01*
X-56570Y123566D01*
X-56762Y122599D01*
Y121466D01*
X-63858Y114369D01*
X-64363Y113613D01*
X-64541Y112721D01*
Y36436D01*
X-64363Y35544D01*
X-63858Y34788D01*
X-55367Y26297D01*
X-54611Y25792D01*
X-53719Y25615D01*
X-50416D01*
Y24856D01*
X-50221Y23871D01*
X-49663Y23036D01*
X-50191Y21862D01*
X-50220Y21818D01*
X-50416Y20833D01*
Y16833D01*
X-50220Y15848D01*
X-49663Y15013D01*
X-48828Y14455D01*
X-47843Y14259D01*
X-47747D01*
Y12437D01*
X-48004D01*
X-48989Y12241D01*
X-49824Y11684D01*
X-50381Y10849D01*
X-50577Y9864D01*
Y5864D01*
X-50381Y4879D01*
X-49824Y4044D01*
X-48989Y3486D01*
X-48004Y3290D01*
X-45004D01*
X-44019Y3486D01*
X-43184Y4044D01*
X-42626Y4879D01*
X-42431Y5864D01*
Y9864D01*
X-42626Y10849D01*
X-43086Y11536D01*
Y14971D01*
X-43023Y15013D01*
X-42465Y15848D01*
X-42269Y16833D01*
Y20833D01*
X-42465Y21818D01*
X-42527Y21909D01*
X-42939Y22844D01*
X-42527Y23779D01*
X-42466Y23871D01*
X-42270Y24856D01*
Y28856D01*
X-42466Y29841D01*
X-43023Y30676D01*
X-43858Y31233D01*
X-44843Y31429D01*
X-47843D01*
X-48828Y31233D01*
X-49663Y30676D01*
X-49930Y30276D01*
X-52754D01*
X-59879Y37401D01*
Y111756D01*
X-53466Y118169D01*
X-52332D01*
X-51366Y118362D01*
X-50753Y118771D01*
X-50140Y118362D01*
X-49173Y118169D01*
X-49066D01*
X-48813Y116899D01*
X-49285Y116704D01*
X-50428Y115561D01*
X-51047Y114067D01*
Y112450D01*
X-50428Y110956D01*
X-49285Y109813D01*
X-48692Y109568D01*
X-48366Y108098D01*
X-48985Y106604D01*
Y104987D01*
X-48366Y103494D01*
X-47223Y102351D01*
X-45729Y101732D01*
X-44112D01*
X-42619Y102351D01*
X-41475Y103494D01*
X-40857Y104987D01*
Y106604D01*
X-41475Y108098D01*
X-42619Y109241D01*
X-43211Y109487D01*
X-43538Y110956D01*
X-43206Y111756D01*
X-41746Y112091D01*
X-37429Y107775D01*
X-36828Y106324D01*
X-35685Y105181D01*
X-34191Y104562D01*
X-32574D01*
X-31081Y105181D01*
X-29937Y106324D01*
X-29319Y107818D01*
Y109434D01*
X-29937Y110928D01*
X-31081Y112071D01*
X-32574Y112690D01*
X-34191D01*
X-35295Y112233D01*
X-40257Y117196D01*
X-39731Y118466D01*
X-39444D01*
X-37950Y119084D01*
X-36807Y120227D01*
X-36188Y121721D01*
Y123338D01*
X-36342Y123710D01*
X-36061Y124569D01*
X-34715Y125130D01*
X-34663Y125096D01*
X-33696Y124903D01*
X-31791D01*
X-30825Y125096D01*
X-30006Y125643D01*
X-29458Y126462D01*
X-29266Y127428D01*
Y127830D01*
X-28099Y128997D01*
X-28099Y128997D01*
X-27482Y129921D01*
X-27265Y131011D01*
Y132393D01*
X-26182Y133475D01*
X-25563Y134969D01*
Y136586D01*
X-26182Y138079D01*
X-27325Y139223D01*
X-28819Y139841D01*
D02*
G37*
G36*
X294748Y134008D02*
X293132D01*
X291638Y133390D01*
X290495Y132246D01*
X289876Y130753D01*
Y129136D01*
X290495Y127642D01*
X291638Y126499D01*
X293132Y125880D01*
X294748D01*
X296242Y126499D01*
X297385Y127642D01*
X298004Y129136D01*
Y130753D01*
X297385Y132246D01*
X296242Y133390D01*
X294748Y134008D01*
D02*
G37*
G36*
X68154Y128229D02*
X51106D01*
Y125037D01*
X48464D01*
X47572Y124859D01*
X46815Y124354D01*
X38133Y115672D01*
X38133Y115672D01*
X35012Y112551D01*
X35006Y112557D01*
X34325Y112275D01*
X33661Y112551D01*
X33650Y112540D01*
X32235Y113910D01*
X32234Y113976D01*
Y113976D01*
X30464Y115159D01*
X28284Y115592D01*
X26103Y115159D01*
X24255Y113924D01*
X24202Y113845D01*
X24202Y113845D01*
X23020Y112075D01*
X22586Y109895D01*
X23020Y107715D01*
X24255Y105866D01*
X24334Y105814D01*
X25279Y104964D01*
X30678Y99738D01*
X30668Y99727D01*
X30683Y99721D01*
X30724Y99624D01*
X30690Y98376D01*
X29438Y98312D01*
X29338Y98354D01*
X29327Y98343D01*
X23049Y104419D01*
X23048Y104485D01*
Y104485D01*
X21278Y105668D01*
X19098Y106102D01*
X16918Y105668D01*
X15069Y104433D01*
X15016Y104354D01*
X15016Y104354D01*
X13834Y102584D01*
X13400Y100404D01*
X13834Y98224D01*
X15069Y96375D01*
X15148Y96323D01*
X16079Y95487D01*
X21482Y90258D01*
X21482Y90237D01*
Y90236D01*
X21506Y88969D01*
X21504Y88885D01*
X20253Y88821D01*
X20152Y88863D01*
X20142Y88852D01*
X14742Y94078D01*
X13862Y94994D01*
X13862Y94994D01*
X12093Y96177D01*
X9912Y96611D01*
X7732Y96177D01*
X5884Y94942D01*
X5831Y94863D01*
X5831Y94863D01*
X4649Y93094D01*
X4215Y90913D01*
X4649Y88733D01*
X5883Y86884D01*
X5962Y86832D01*
X6894Y85996D01*
X6968Y85924D01*
X6968Y85903D01*
X7032Y84652D01*
X6984Y84535D01*
X6990Y84529D01*
X2643Y80182D01*
X1352D01*
X460Y80004D01*
X67Y79741D01*
X-3460D01*
X-4444Y79545D01*
X-5279Y78988D01*
X-5431Y78760D01*
X-6900Y78822D01*
X-7088Y79103D01*
X-7922Y79661D01*
X-8907Y79856D01*
X-11907D01*
X-12892Y79661D01*
X-13727Y79103D01*
X-14285Y78268D01*
X-14481Y77283D01*
Y73283D01*
X-14285Y72298D01*
X-13727Y71463D01*
X-12892Y70905D01*
X-11907Y70710D01*
X-8907D01*
X-7922Y70905D01*
X-7088Y71463D01*
X-6651Y72116D01*
X-5617Y72335D01*
X-5279Y72348D01*
X-4444Y71790D01*
X-3460Y71594D01*
X540D01*
X1525Y71790D01*
X2360Y72348D01*
X2918Y73183D01*
X3114Y74168D01*
Y75520D01*
X3608D01*
X4500Y75697D01*
X5256Y76203D01*
X8618Y79564D01*
X10286Y81233D01*
X10332Y81187D01*
X11567Y83035D01*
X12001Y85216D01*
X11567Y87396D01*
X10332Y89244D01*
X10253Y89297D01*
X10221Y89263D01*
X9237Y90215D01*
X9247Y90226D01*
X9232Y90233D01*
X9192Y90330D01*
X9225Y91578D01*
X10405Y91671D01*
X10577Y91600D01*
X10588Y91611D01*
X16900Y85502D01*
X16867Y85468D01*
X18637Y84286D01*
X20817Y83852D01*
X22998Y84286D01*
X24846Y85521D01*
X24898Y85599D01*
Y85599D01*
X26081Y87369D01*
X26515Y89550D01*
X26081Y91730D01*
X24846Y93578D01*
X24767Y93631D01*
X24734Y93597D01*
X18422Y99706D01*
X18433Y99717D01*
X18418Y99724D01*
X18377Y99820D01*
X18411Y101069D01*
X19591Y101162D01*
X19763Y101091D01*
X19773Y101102D01*
X26085Y94993D01*
X26053Y94959D01*
X27822Y93777D01*
X30003Y93343D01*
X32183Y93777D01*
X34032Y95012D01*
X34084Y95090D01*
X35267Y96860D01*
X35700Y99040D01*
X35267Y101221D01*
X34032Y103069D01*
X33953Y103122D01*
X33022Y103958D01*
X28451Y108381D01*
X27619Y109208D01*
X27616Y109318D01*
X27988Y109883D01*
X29546Y110025D01*
X30374Y109223D01*
X30375Y109156D01*
Y109156D01*
X32145Y107974D01*
X34325Y107540D01*
X36506Y107974D01*
X38354Y109209D01*
X38308Y109255D01*
X41430Y112376D01*
X41430Y112376D01*
X49429Y120375D01*
X51106D01*
Y117181D01*
X68154D01*
Y128229D01*
D02*
G37*
G36*
X268663Y120144D02*
X267047D01*
X265553Y119525D01*
X264410Y118382D01*
X263791Y116889D01*
Y115272D01*
X264410Y113778D01*
X265553Y112635D01*
X267047Y112016D01*
X268663D01*
X270157Y112635D01*
X271300Y113778D01*
X271919Y115272D01*
Y116889D01*
X271300Y118382D01*
X270157Y119525D01*
X268663Y120144D01*
D02*
G37*
G36*
X7448Y119537D02*
X5831D01*
X4337Y118918D01*
X3194Y117775D01*
X2576Y116281D01*
Y114665D01*
X3194Y113171D01*
X4337Y112028D01*
X5831Y111409D01*
X7448D01*
X8942Y112028D01*
X10085Y113171D01*
X10704Y114665D01*
Y116281D01*
X10085Y117775D01*
X8942Y118918D01*
X7448Y119537D01*
D02*
G37*
G36*
X68274Y102779D02*
X51226D01*
Y99585D01*
X46418D01*
X45526Y99408D01*
X44770Y98902D01*
X21846Y75978D01*
X21846Y75978D01*
X15430Y69562D01*
X15398Y69594D01*
X14382Y68073D01*
X14025Y66280D01*
X14382Y64486D01*
X15398Y62965D01*
X15427Y62945D01*
X16359Y62081D01*
X19411Y59075D01*
X19051Y58187D01*
X17719Y58014D01*
X14032Y61647D01*
X14059Y61675D01*
X12568Y62671D01*
X10774Y63028D01*
X8980Y62671D01*
X7459Y61655D01*
X7491Y61623D01*
X7491Y61623D01*
X2503Y56635D01*
X-12066D01*
X-28186Y72756D01*
X-27691Y73923D01*
X-27612Y73978D01*
X-26793Y73815D01*
X-24481D01*
Y73283D01*
X-24285Y72298D01*
X-23727Y71463D01*
X-22892Y70905D01*
X-21907Y70710D01*
X-18907D01*
X-17922Y70905D01*
X-17088Y71463D01*
X-16530Y72298D01*
X-16334Y73283D01*
Y77283D01*
X-16530Y78268D01*
X-17088Y79103D01*
X-17922Y79661D01*
X-18907Y79856D01*
X-21907D01*
X-22892Y79661D01*
X-23565Y79211D01*
X-24244Y79395D01*
X-24835Y79730D01*
Y80410D01*
X-25454Y81904D01*
X-26597Y83047D01*
X-28091Y83666D01*
X-29707D01*
X-31201Y83047D01*
X-32344Y81904D01*
X-32963Y80410D01*
Y79329D01*
X-34233Y78803D01*
X-35824Y80394D01*
Y81915D01*
X-36443Y83408D01*
X-37586Y84551D01*
X-39080Y85170D01*
X-40697D01*
X-41766Y84727D01*
X-42191Y84551D01*
X-43310Y84926D01*
X-44145Y85484D01*
X-45130Y85680D01*
X-48130D01*
X-49115Y85484D01*
X-49949Y84926D01*
X-50507Y84091D01*
X-50703Y83106D01*
Y79106D01*
X-50507Y78121D01*
X-49949Y77287D01*
X-49917Y76952D01*
X-50808Y75935D01*
X-51809D01*
X-52701Y75757D01*
X-53457Y75252D01*
X-57731Y70978D01*
X-58237Y70222D01*
X-58414Y69330D01*
Y39344D01*
X-58237Y38452D01*
X-57731Y37696D01*
X-53995Y33959D01*
X-53239Y33454D01*
X-52347Y33277D01*
X-34938D01*
X-30948Y29287D01*
X-30192Y28782D01*
X-29480Y28641D01*
Y28506D01*
X-29285Y27521D01*
X-28727Y26686D01*
X-27892Y26128D01*
X-26907Y25932D01*
X-23907D01*
X-22922Y26128D01*
X-22087Y26686D01*
X-21529Y27521D01*
X-21333Y28506D01*
Y32506D01*
X-21529Y33491D01*
X-22087Y34325D01*
X-22922Y34883D01*
X-23907Y35079D01*
X-26907D01*
X-27892Y34883D01*
X-28727Y34325D01*
X-29334Y34266D01*
X-32324Y37255D01*
X-33080Y37761D01*
X-33972Y37938D01*
X-51382D01*
X-53752Y40309D01*
Y61892D01*
X-53595Y62025D01*
X-52482Y62455D01*
X-51985Y62122D01*
X-51000Y61926D01*
X-47000D01*
X-46015Y62122D01*
X-45180Y62680D01*
X-44622Y63515D01*
X-44427Y64500D01*
Y66648D01*
X-44358Y66717D01*
X-43693D01*
X-42801Y66894D01*
X-42045Y67400D01*
X-40167Y69277D01*
X-38591D01*
X-37097Y69896D01*
X-35954Y71039D01*
X-35633Y71814D01*
X-34162Y72139D01*
X-14679Y52656D01*
X-13923Y52151D01*
X-13031Y51974D01*
X3469D01*
X4361Y52151D01*
X5117Y52656D01*
X10715Y58255D01*
X10774Y58231D01*
X10833Y58255D01*
X14661Y54484D01*
X15538Y53565D01*
X15538Y53565D01*
X17030Y52568D01*
X18823Y52212D01*
X20617Y52568D01*
X22138Y53584D01*
X22158Y53614D01*
X22641Y54135D01*
X23548Y55025D01*
X23548Y55025D01*
X24545Y56516D01*
X24901Y58310D01*
X24545Y60104D01*
X23529Y61625D01*
X23499Y61645D01*
X23472Y61617D01*
X19623Y65409D01*
X19617Y67156D01*
X25143Y72682D01*
X25143Y72682D01*
X47384Y94923D01*
X51226D01*
Y91731D01*
X68274D01*
Y102779D01*
D02*
G37*
G36*
X524849Y89835D02*
X523232D01*
X521738Y89217D01*
X521102Y88581D01*
X520273Y88215D01*
X519443Y88581D01*
X518808Y89217D01*
X517314Y89835D01*
X515697D01*
X514203Y89217D01*
X513060Y88074D01*
X512442Y86580D01*
Y84963D01*
X513060Y83469D01*
X514203Y82326D01*
X515697Y81707D01*
X517314D01*
X518808Y82326D01*
X519443Y82962D01*
X520273Y83327D01*
X521102Y82962D01*
X521738Y82326D01*
X523232Y81707D01*
X524849D01*
X526342Y82326D01*
X527485Y83469D01*
X528104Y84963D01*
Y86580D01*
X527485Y88074D01*
X526342Y89217D01*
X524849Y89835D01*
D02*
G37*
G36*
X-50809Y99566D02*
X-54809D01*
X-55794Y99371D01*
X-56629Y98813D01*
X-57187Y97978D01*
X-57382Y96993D01*
Y93993D01*
X-57187Y93008D01*
X-56629Y92173D01*
X-55794Y91615D01*
X-54809Y91420D01*
X-50809D01*
X-50154Y91550D01*
X-49181Y91000D01*
X-48884Y90716D01*
Y90542D01*
X-48265Y89049D01*
X-47122Y87906D01*
X-45628Y87287D01*
X-44012D01*
X-42518Y87906D01*
X-41617Y88806D01*
X-40553Y88692D01*
X-40547Y88691D01*
X-40216Y88548D01*
X-39736Y87829D01*
X-38901Y87271D01*
X-37916Y87076D01*
X-33916D01*
X-32931Y87271D01*
X-32097Y87829D01*
X-32093Y87835D01*
X-31381Y87906D01*
X-29887Y87287D01*
X-28270D01*
X-26776Y87906D01*
X-25633Y89049D01*
X-25015Y90542D01*
Y92159D01*
X-25633Y93653D01*
X-26776Y94796D01*
X-28270Y95415D01*
X-29887D01*
X-31381Y94796D01*
X-31743Y94434D01*
X-32097Y94469D01*
X-32931Y95027D01*
X-33916Y95223D01*
X-37916D01*
X-38901Y95027D01*
X-39736Y94469D01*
X-40108Y93913D01*
X-40724Y93786D01*
X-41135Y93764D01*
X-41550Y93828D01*
X-42518Y94796D01*
X-44012Y95415D01*
X-45588D01*
X-46768Y96595D01*
X-47524Y97100D01*
X-48287Y97252D01*
X-48432Y97978D01*
X-48989Y98813D01*
X-49824Y99371D01*
X-50809Y99566D01*
D02*
G37*
G36*
X268663Y93444D02*
X267047D01*
X265553Y92825D01*
X264410Y91682D01*
X263791Y90188D01*
Y88571D01*
X264410Y87078D01*
X265553Y85934D01*
X267047Y85316D01*
X268663D01*
X270157Y85934D01*
X271300Y87078D01*
X271919Y88571D01*
Y90188D01*
X271300Y91682D01*
X270157Y92825D01*
X268663Y93444D01*
D02*
G37*
G36*
X-2907Y112522D02*
X-4524D01*
X-6017Y111903D01*
X-7161Y110760D01*
X-7779Y109266D01*
Y107727D01*
X-7910Y107596D01*
X-10225D01*
X-11210Y107400D01*
X-12045Y106842D01*
X-12602Y106008D01*
X-12798Y105023D01*
Y101023D01*
X-12602Y100038D01*
X-12045Y99203D01*
X-12045Y97966D01*
X-12602Y97132D01*
X-12798Y96147D01*
Y92147D01*
X-12602Y91162D01*
X-12045Y90327D01*
X-11210Y89769D01*
X-10486Y88330D01*
X-10504Y88286D01*
Y86669D01*
X-9885Y85176D01*
X-8742Y84032D01*
X-7248Y83414D01*
X-5631D01*
X-4138Y84032D01*
X-2995Y85176D01*
X-2376Y86669D01*
Y88286D01*
X-2995Y89780D01*
X-4138Y90923D01*
X-4803Y91198D01*
Y91385D01*
X-4651Y92147D01*
Y96147D01*
X-4847Y97132D01*
X-5405Y97966D01*
X-5405Y99203D01*
X-4847Y100038D01*
X-4651Y101023D01*
Y104263D01*
X-4520Y104394D01*
X-2907D01*
X-1413Y105013D01*
X-270Y106156D01*
X349Y107649D01*
Y109266D01*
X-270Y110760D01*
X-1413Y111903D01*
X-2907Y112522D01*
D02*
G37*
G36*
X68374Y90069D02*
X51326D01*
Y86877D01*
X48683D01*
X47792Y86699D01*
X47035Y86194D01*
X40643Y79802D01*
X39067D01*
X37573Y79183D01*
X36430Y78040D01*
X35812Y76547D01*
Y74930D01*
X36430Y73436D01*
X37573Y72293D01*
X39067Y71674D01*
X40684D01*
X42178Y72293D01*
X43321Y73436D01*
X43939Y74930D01*
Y76506D01*
X49649Y82215D01*
X51326D01*
Y79021D01*
X68374D01*
Y90069D01*
D02*
G37*
G36*
X68255Y76191D02*
X51207D01*
Y70172D01*
X50729Y70076D01*
X49889Y69515D01*
X44564Y64190D01*
X42978D01*
X41987Y63993D01*
X41147Y63432D01*
X39957Y62241D01*
X39395Y61401D01*
X39227Y60552D01*
X38777Y60103D01*
X38392D01*
X36899Y59484D01*
X35755Y58341D01*
X35137Y56847D01*
Y55230D01*
X35755Y53737D01*
X36899Y52593D01*
X38392Y51975D01*
X40009D01*
X41503Y52593D01*
X42646Y53737D01*
X43265Y55230D01*
Y56847D01*
X43142Y57143D01*
X43619Y57620D01*
X44181Y58460D01*
X44290Y59011D01*
X45637D01*
X46628Y59208D01*
X47468Y59769D01*
X52793Y65094D01*
X56743D01*
X56988Y65143D01*
X68255D01*
Y76191D01*
D02*
G37*
G36*
X-13907Y35079D02*
X-16907D01*
X-17892Y34883D01*
X-18727Y34325D01*
X-19285Y33491D01*
X-19481Y32506D01*
Y28506D01*
X-19285Y27521D01*
X-18727Y26686D01*
X-17892Y26128D01*
X-16907Y25932D01*
X-13907D01*
X-12922Y26128D01*
X-12087Y26686D01*
X-11681Y27294D01*
X-10667Y27474D01*
X-10248Y27451D01*
X-9704Y26907D01*
X-8210Y26288D01*
X-6594D01*
X-5100Y26907D01*
X-3957Y28050D01*
X-3338Y29544D01*
Y31161D01*
X-3957Y32654D01*
X-5100Y33797D01*
X-6594Y34416D01*
X-8210D01*
X-9704Y33797D01*
X-10197Y33304D01*
X-11388Y33471D01*
X-11547Y33516D01*
X-12087Y34325D01*
X-12922Y34883D01*
X-13907Y35079D01*
D02*
G37*
G36*
X81496Y104503D02*
X79879D01*
X78385Y103884D01*
X77242Y102741D01*
X76624Y101247D01*
Y99630D01*
X77242Y98137D01*
X78385Y96994D01*
X79879Y96375D01*
X81455D01*
X96069Y81761D01*
Y49038D01*
X96247Y48146D01*
X96752Y47389D01*
X105600Y38541D01*
X106357Y38036D01*
X107249Y37858D01*
X136126D01*
X136355Y37516D01*
X137174Y36968D01*
X138141Y36776D01*
X140046D01*
X141012Y36968D01*
X141625Y37378D01*
X142238Y36968D01*
X143204Y36776D01*
X145109D01*
X146076Y36968D01*
X146895Y37516D01*
X147104Y37828D01*
X148358Y37899D01*
X150681Y35576D01*
X148792Y33686D01*
X156604Y25874D01*
X163002Y32272D01*
X155190Y40084D01*
X153978Y38872D01*
X150948Y41902D01*
X150192Y42407D01*
X149300Y42584D01*
X147167D01*
X146895Y42991D01*
X146076Y43539D01*
X145109Y43731D01*
X143204D01*
X142238Y43539D01*
X141625Y43129D01*
X141012Y43539D01*
X140046Y43731D01*
X138141D01*
X137174Y43539D01*
X136355Y42991D01*
X136040Y42520D01*
X108214D01*
X100731Y50003D01*
Y82726D01*
X100553Y83618D01*
X100048Y84374D01*
X84752Y99671D01*
Y101247D01*
X84133Y102741D01*
X82990Y103884D01*
X81496Y104503D01*
D02*
G37*
G36*
X186906Y32412D02*
X185289D01*
X183796Y31793D01*
X182652Y30650D01*
X182034Y29156D01*
Y27539D01*
X182652Y26046D01*
X183796Y24903D01*
X185289Y24284D01*
X186906D01*
X188400Y24903D01*
X189543Y26046D01*
X190162Y27539D01*
Y29156D01*
X189543Y30650D01*
X188400Y31793D01*
X186906Y32412D01*
D02*
G37*
G36*
X170117Y43623D02*
X168500D01*
X167006Y43004D01*
X165863Y41861D01*
X165245Y40367D01*
Y38750D01*
X165863Y37257D01*
X167006Y36113D01*
X168500Y35495D01*
X170117D01*
X171611Y36113D01*
X172466Y36969D01*
X175476D01*
X175575Y36821D01*
X176394Y36273D01*
X177360Y36081D01*
X179265D01*
X180232Y36273D01*
X180845Y36683D01*
X181458Y36273D01*
X182424Y36081D01*
X184329D01*
X185295Y36273D01*
X186115Y36821D01*
X186214Y36969D01*
X199957D01*
X204686Y32239D01*
Y28823D01*
X203252D01*
Y19775D01*
X211301D01*
Y28823D01*
X209866D01*
Y33312D01*
X209669Y34303D01*
X209107Y35143D01*
X202861Y41390D01*
X202020Y41951D01*
X201029Y42148D01*
X186214D01*
X186115Y42297D01*
X185295Y42844D01*
X184329Y43036D01*
X182424D01*
X181458Y42844D01*
X180845Y42434D01*
X180232Y42844D01*
X179265Y43036D01*
X177360D01*
X176394Y42844D01*
X175575Y42297D01*
X175476Y42148D01*
X172466D01*
X171611Y43004D01*
X170117Y43623D01*
D02*
G37*
G36*
X169760Y13106D02*
X168143D01*
X166649Y12488D01*
X165506Y11344D01*
X164887Y9851D01*
Y8234D01*
X165506Y6740D01*
X166649Y5597D01*
X168143Y4978D01*
X169760D01*
X171253Y5597D01*
X172396Y6740D01*
X173015Y8234D01*
Y9851D01*
X172396Y11344D01*
X171253Y12488D01*
X169760Y13106D01*
D02*
G37*
G36*
X386295Y10632D02*
X357182D01*
X356290Y10454D01*
X355534Y9949D01*
X350851Y5265D01*
X348074D01*
X347089Y5070D01*
X346254Y4512D01*
X345696Y3677D01*
X345500Y2692D01*
Y-1308D01*
X345696Y-2293D01*
X346254Y-3128D01*
X347089Y-3686D01*
X347456Y-3758D01*
Y-6109D01*
X347287Y-6143D01*
X346576Y-6618D01*
X346101Y-7329D01*
X345934Y-8167D01*
Y-16917D01*
X346101Y-17756D01*
X346576Y-18467D01*
X347287Y-18942D01*
X348125Y-19109D01*
X351875D01*
X352714Y-18942D01*
X353424Y-18467D01*
X353899Y-17756D01*
X354066Y-16917D01*
Y-8167D01*
X353899Y-7329D01*
X353424Y-6618D01*
X352714Y-6143D01*
X352118Y-6025D01*
Y-3646D01*
X352893Y-3128D01*
X353451Y-2293D01*
X353647Y-1308D01*
Y1469D01*
X358148Y5970D01*
X385330D01*
X395877Y-4577D01*
Y-6152D01*
X396073Y-7137D01*
X396631Y-7972D01*
X397466Y-8529D01*
X398451Y-8725D01*
X402451D01*
X403436Y-8529D01*
X404271Y-7972D01*
X404533Y-7580D01*
X404553Y-7571D01*
X405923D01*
X405944Y-7580D01*
X406206Y-7972D01*
X407041Y-8529D01*
X408025Y-8725D01*
X412025D01*
X413010Y-8529D01*
X413845Y-7972D01*
X414403Y-7137D01*
X414599Y-6152D01*
Y-3152D01*
X414403Y-2167D01*
X413845Y-1332D01*
X413010Y-774D01*
X412025Y-578D01*
X408025D01*
X407041Y-774D01*
X406206Y-1332D01*
X405944Y-1724D01*
X405923Y-1733D01*
X404553D01*
X404533Y-1724D01*
X404271Y-1332D01*
X403436Y-774D01*
X402451Y-578D01*
X398471D01*
X387943Y9949D01*
X387187Y10454D01*
X386295Y10632D01*
D02*
G37*
G36*
X-40035Y62720D02*
X-41652D01*
X-43145Y62101D01*
X-44289Y60958D01*
X-44907Y59465D01*
Y57848D01*
X-44289Y56354D01*
X-43145Y55211D01*
X-41652Y54592D01*
X-41038D01*
X-39028Y52582D01*
Y48920D01*
X-38851Y48028D01*
X-38345Y47272D01*
X-29599Y38526D01*
X-28843Y38021D01*
X-27951Y37844D01*
X6001D01*
X18524Y25320D01*
X19280Y24815D01*
X20172Y24638D01*
X128109D01*
X140942Y11805D01*
Y7612D01*
X135781Y2451D01*
X133390D01*
X132405Y2255D01*
X131570Y1697D01*
X131012Y862D01*
X130816Y-122D01*
Y-4122D01*
X131012Y-5107D01*
X131570Y-5942D01*
X132405Y-6500D01*
X133390Y-6696D01*
X133752D01*
Y-9115D01*
X132858Y-9485D01*
X132858Y-9485D01*
X132838Y-9498D01*
X131775Y-10000D01*
X130632Y-8857D01*
X129138Y-8239D01*
X128556D01*
Y-5424D01*
X128767Y-5107D01*
X128963Y-4122D01*
Y-2312D01*
X128993Y-2161D01*
X128963Y-2010D01*
Y-122D01*
X128767Y862D01*
X128209Y1697D01*
X127374Y2255D01*
X126827Y2364D01*
X124459Y4732D01*
X124354Y4775D01*
X124057Y6273D01*
X124184Y6401D01*
X124803Y7894D01*
Y9511D01*
X124184Y11005D01*
X123041Y12148D01*
X121547Y12767D01*
X119930D01*
X118436Y12148D01*
X117293Y11005D01*
X116675Y9511D01*
Y7894D01*
X117293Y6401D01*
X116683Y5215D01*
X105493Y5215D01*
X64463Y5215D01*
X63297Y4732D01*
X61125Y2560D01*
X60642Y1393D01*
X60641Y-23854D01*
X61125Y-25020D01*
X63299Y-27194D01*
X62727Y-28418D01*
X61684Y-28851D01*
X60097Y-30437D01*
X59988Y-30701D01*
X58491Y-31001D01*
X57325Y-30518D01*
X25726Y-30518D01*
X20980Y-25280D01*
X20941Y-25262D01*
X20924Y-25222D01*
X20376Y-24994D01*
X19839Y-24740D01*
X19798Y-24755D01*
X19758Y-24738D01*
X11905Y-24738D01*
X10738Y-25222D01*
X3044Y-32916D01*
X1774D01*
X-4936Y-26206D01*
X-5692Y-25701D01*
X-6584Y-25524D01*
X-12208D01*
X-34173Y-3559D01*
Y3456D01*
X-34019Y3486D01*
X-33184Y4044D01*
X-32626Y4879D01*
X-32431Y5864D01*
Y9864D01*
X-32626Y10849D01*
X-33184Y11684D01*
X-34019Y12241D01*
X-35004Y12437D01*
X-38004D01*
X-38989Y12241D01*
X-39824Y11684D01*
X-40381Y10849D01*
X-40577Y9864D01*
Y5864D01*
X-40381Y4879D01*
X-39824Y4044D01*
X-38989Y3486D01*
X-38835Y3456D01*
Y-4524D01*
X-38657Y-5416D01*
X-38152Y-6172D01*
X-14822Y-29502D01*
X-14066Y-30008D01*
X-13174Y-30185D01*
X-7549D01*
X816Y-38550D01*
Y-43034D01*
X819Y-43041D01*
X816Y-43048D01*
X941Y-43343D01*
X931Y-43623D01*
X1162Y-43870D01*
X1299Y-44201D01*
X1306Y-44204D01*
X1309Y-44210D01*
X1320Y-44221D01*
X1592Y-44331D01*
X1792Y-44546D01*
X3031Y-45111D01*
X3229Y-45118D01*
X3394Y-45228D01*
X3839Y-45140D01*
X4293Y-45156D01*
X4438Y-45020D01*
X4632Y-44982D01*
X5307Y-44531D01*
X6249Y-44344D01*
X7191Y-44531D01*
X7989Y-45065D01*
X8523Y-45864D01*
X8767Y-47093D01*
X8865Y-47239D01*
X8866Y-47414D01*
X9205Y-47748D01*
X9469Y-48143D01*
X9641Y-48177D01*
X9766Y-48300D01*
X20232Y-52540D01*
X20394Y-52539D01*
X20529Y-52629D01*
X21007Y-52534D01*
X21494Y-52531D01*
X21608Y-52415D01*
X21768Y-52383D01*
X22059Y-52189D01*
X23001Y-52001D01*
X23943Y-52189D01*
X24742Y-52722D01*
X25276Y-53521D01*
X25296Y-53623D01*
X25392Y-53766D01*
X25392Y-53938D01*
X25732Y-54275D01*
X25998Y-54673D01*
X26166Y-54707D01*
X26288Y-54828D01*
X27461Y-55309D01*
X27627Y-55308D01*
X27765Y-55400D01*
X28239Y-55306D01*
X28723Y-55304D01*
X28840Y-55186D01*
X29003Y-55154D01*
X29435Y-54865D01*
X30377Y-54678D01*
X31319Y-54865D01*
X32118Y-55399D01*
X32651Y-56198D01*
X32680Y-56344D01*
X32948Y-56744D01*
X33132Y-57189D01*
X33288Y-57254D01*
X33382Y-57394D01*
X33854Y-57488D01*
X34298Y-57672D01*
X56872D01*
X58038Y-57189D01*
X58441Y-56786D01*
X59614Y-57272D01*
Y-58442D01*
X59653Y-58534D01*
X59625Y-58630D01*
X60342Y-64865D01*
X60529Y-65201D01*
X60599Y-65578D01*
X60824Y-65731D01*
X60956Y-65969D01*
X61325Y-66074D01*
X61641Y-66291D01*
X65521Y-67108D01*
X65566Y-67099D01*
X65606Y-67123D01*
X73440Y-68348D01*
X73485Y-68337D01*
X73526Y-68359D01*
X81413Y-69173D01*
X81458Y-69159D01*
X81500Y-69179D01*
X89419Y-69579D01*
X89462Y-69563D01*
X89505Y-69581D01*
X93470Y-69573D01*
X93682Y-69484D01*
X93910Y-69512D01*
X94242Y-69251D01*
X94633Y-69089D01*
X94634Y-69088D01*
X94635Y-69087D01*
X94723Y-68875D01*
X94903Y-68734D01*
X96938Y-65126D01*
X96989Y-64707D01*
X97151Y-64316D01*
Y-59969D01*
X98324Y-59482D01*
X98627Y-59785D01*
X99793Y-60268D01*
X107943D01*
X109109Y-59785D01*
X117229Y-51666D01*
X170110D01*
X177019Y-58574D01*
X178185Y-59057D01*
X193176D01*
X193994Y-58719D01*
X195264Y-59312D01*
Y-64908D01*
X195747Y-66074D01*
X196914Y-66557D01*
X210116D01*
X211283Y-66074D01*
X216415Y-60942D01*
X235146D01*
X236313Y-60459D01*
X240400Y-56372D01*
X240883Y-55205D01*
Y-46011D01*
X242056Y-45525D01*
X242407Y-45876D01*
X243574Y-46359D01*
X266112D01*
X267279Y-45876D01*
X270208Y-42947D01*
X270691Y-41781D01*
X270691Y212D01*
X270208Y1379D01*
X267990Y3596D01*
X266823Y4079D01*
X265609Y4079D01*
X265258Y4430D01*
X265063Y5415D01*
X264505Y6249D01*
X264314Y6377D01*
X264699Y7647D01*
X284415D01*
X288260Y3801D01*
Y2531D01*
X285596Y-133D01*
X285532Y-289D01*
X285391Y-383D01*
X285131Y-773D01*
X284740Y-1034D01*
X284646Y-1174D01*
X284490Y-1239D01*
X282993Y-2736D01*
X282510Y-3903D01*
X282509Y-45000D01*
X282992Y-46166D01*
X284159Y-46650D01*
X301510D01*
X302676Y-46166D01*
X316908Y-31935D01*
X317391Y-30769D01*
Y-22258D01*
X316908Y-21092D01*
X314622Y-18806D01*
X313455Y-18323D01*
X308870D01*
X308382Y-17691D01*
X308967Y-16421D01*
X315585D01*
X316751Y-15938D01*
X320344Y-12345D01*
X320828Y-11178D01*
Y14526D01*
X320344Y15692D01*
X320344D01*
X320344Y15692D01*
X317933Y18103D01*
X317363Y18339D01*
X316800Y18586D01*
X307065Y18782D01*
X307057Y18779D01*
X307049Y18782D01*
X306471Y18550D01*
X305889Y18323D01*
X305886Y18314D01*
X305877Y18311D01*
X302582Y15081D01*
X302578Y15073D01*
X302570Y15070D01*
X302331Y14493D01*
X302087Y13920D01*
X302090Y13911D01*
X302087Y13903D01*
Y-165D01*
X300817Y-691D01*
X297073Y3052D01*
Y3858D01*
X296878Y4842D01*
X296320Y5677D01*
X295485Y6235D01*
X294500Y6431D01*
X292223D01*
X287028Y11626D01*
X286272Y12131D01*
X285380Y12308D01*
X241940D01*
X241048Y12131D01*
X240542Y11793D01*
X237682D01*
X236697Y11597D01*
X235862Y11039D01*
X235304Y10204D01*
X235108Y9219D01*
Y5219D01*
X235304Y4234D01*
X235862Y3399D01*
X236385Y3050D01*
X236465Y2744D01*
Y1944D01*
X236385Y1639D01*
X235862Y1289D01*
X235304Y454D01*
X235108Y-531D01*
Y-4531D01*
X235304Y-5516D01*
X235862Y-6350D01*
X236697Y-6908D01*
X237682Y-7104D01*
X240682D01*
X240735Y-7094D01*
X242072Y-8048D01*
X242086Y-8247D01*
X242071Y-8272D01*
X241611Y-8960D01*
X241444Y-9799D01*
Y-18549D01*
X241611Y-19387D01*
X242086Y-20098D01*
X242797Y-20573D01*
X243635Y-20740D01*
X247385D01*
X248224Y-20573D01*
X248771Y-20208D01*
X249455Y-20395D01*
X250041Y-20729D01*
Y-29341D01*
X249376Y-30007D01*
X244458Y-30015D01*
X243138D01*
X241972Y-30498D01*
X241434Y-31036D01*
X240464Y-31622D01*
X239546Y-31307D01*
X239233Y-31177D01*
X234343Y-31178D01*
X234040Y-31303D01*
X233712D01*
X232863Y-31655D01*
X232764D01*
X231597Y-32138D01*
X231493Y-32391D01*
X230084Y-32473D01*
X229935Y-32250D01*
X229224Y-31775D01*
X228385Y-31608D01*
X226107D01*
X225842Y-31343D01*
X225001Y-30781D01*
X224010Y-30584D01*
X212904D01*
Y-27959D01*
X212993Y-27510D01*
Y-26098D01*
X216931Y-22161D01*
X217492Y-21321D01*
X217689Y-20330D01*
Y-9938D01*
X217492Y-8947D01*
X216931Y-8106D01*
X216467Y-7643D01*
X217137Y-6517D01*
X217775Y-6644D01*
X221775D01*
X222254Y-6549D01*
X223303Y-7326D01*
X223419Y-7513D01*
X223391Y-8046D01*
X223086Y-8250D01*
X222611Y-8960D01*
X222444Y-9799D01*
Y-18549D01*
X222611Y-19387D01*
X223086Y-20098D01*
X223797Y-20573D01*
X224635Y-20740D01*
X228385D01*
X229224Y-20573D01*
X229935Y-20098D01*
X230410Y-19387D01*
X230576Y-18549D01*
Y-9799D01*
X230410Y-8960D01*
X230018Y-8374D01*
X230161Y-7796D01*
X230506Y-7104D01*
X230682D01*
X231667Y-6908D01*
X232502Y-6350D01*
X233059Y-5516D01*
X233255Y-4531D01*
Y-531D01*
X233059Y454D01*
X232502Y1289D01*
X231978Y1639D01*
X231899Y1944D01*
Y2744D01*
X231978Y3050D01*
X232502Y3399D01*
X233059Y4234D01*
X233255Y5219D01*
Y9219D01*
X233059Y10204D01*
X232502Y11039D01*
X231667Y11597D01*
X230682Y11793D01*
X227682D01*
X226697Y11597D01*
X225862Y11039D01*
X225304Y10204D01*
X225108Y9219D01*
Y5219D01*
X225304Y4234D01*
X225862Y3399D01*
X226386Y3050D01*
X226465Y2744D01*
Y1944D01*
X226386Y1639D01*
X225862Y1289D01*
X225304Y454D01*
X225281Y338D01*
X225150Y289D01*
X223960Y204D01*
X223595Y749D01*
X222760Y1307D01*
X221775Y1503D01*
X217775D01*
X216791Y1307D01*
X215956Y749D01*
X215398Y-86D01*
X215202Y-1070D01*
Y-4070D01*
X215329Y-4709D01*
X214203Y-5379D01*
X204865Y3959D01*
Y6776D01*
X206300D01*
Y15823D01*
X198250D01*
Y6776D01*
X199685D01*
Y2887D01*
X199882Y1896D01*
X200444Y1055D01*
X211802Y-10303D01*
X211747Y-11028D01*
X210446Y-11942D01*
X210420Y-11937D01*
X208773D01*
X208420Y-11866D01*
X202275D01*
X200689Y-12182D01*
X199345Y-13080D01*
X197465Y-14960D01*
X196292Y-14474D01*
Y1541D01*
X195808Y2707D01*
X193001Y5515D01*
X191834Y5998D01*
X185149D01*
X183983Y5515D01*
X181511Y3043D01*
X159805Y3043D01*
X158639Y2560D01*
X157950Y1871D01*
X157374Y2255D01*
X156390Y2451D01*
X154275D01*
X152229Y4497D01*
X152183Y4528D01*
X148983Y7727D01*
Y14393D01*
X148806Y15285D01*
X148301Y16041D01*
X147536Y16806D01*
X150981Y20251D01*
X143169Y28063D01*
X139724Y24618D01*
X132188Y32154D01*
X131432Y32659D01*
X130540Y32836D01*
X22603D01*
X10079Y45360D01*
X9323Y45865D01*
X8431Y46042D01*
X-25521D01*
X-31104Y51625D01*
Y55429D01*
X-30670Y55863D01*
X-30051Y57357D01*
Y58973D01*
X-30670Y60467D01*
X-31813Y61610D01*
X-33306Y62229D01*
X-34923D01*
X-36417Y61610D01*
X-38131Y61692D01*
X-38541Y62101D01*
X-40035Y62720D01*
D02*
G37*
G36*
X449479Y53901D02*
X440086D01*
X438920Y53418D01*
X435427Y49925D01*
X434944Y48759D01*
X434944Y38156D01*
X435427Y36990D01*
X438913Y33504D01*
X440079Y33021D01*
X450305D01*
X457841Y25485D01*
Y2934D01*
X458157Y1348D01*
X459055Y4D01*
X464914Y-5856D01*
Y-9846D01*
X463644Y-10373D01*
X463025Y-9753D01*
X460967Y-8565D01*
X458672Y-7950D01*
X456295D01*
X454000Y-8565D01*
X451942Y-9753D01*
X450262Y-11433D01*
X449074Y-13491D01*
X448459Y-15786D01*
Y-18163D01*
X449074Y-20458D01*
X450262Y-22516D01*
X451942Y-24196D01*
X452912Y-24756D01*
Y-26021D01*
X452635Y-26435D01*
X452439Y-27420D01*
Y-30420D01*
X452635Y-31405D01*
X453193Y-32240D01*
X454028Y-32798D01*
X455013Y-32993D01*
X456919D01*
X457056Y-33021D01*
X457192Y-32993D01*
X459013D01*
X459997Y-32798D01*
X460832Y-32240D01*
X461390Y-31405D01*
X461586Y-30420D01*
Y-27420D01*
X461390Y-26435D01*
X461374Y-26411D01*
X461610Y-25013D01*
X463025Y-24196D01*
X463644Y-23577D01*
X464914Y-24103D01*
Y-40248D01*
X463147Y-42014D01*
X461587Y-41778D01*
X461390Y-41405D01*
X461586Y-40420D01*
Y-37420D01*
X461390Y-36435D01*
X460832Y-35600D01*
X459997Y-35042D01*
X459013Y-34846D01*
X457136D01*
X456984Y-34816D01*
X456833Y-34846D01*
X455013D01*
X454028Y-35042D01*
X453193Y-35600D01*
X452635Y-36435D01*
X452439Y-37420D01*
Y-40420D01*
X452635Y-41405D01*
X452841Y-41713D01*
Y-44236D01*
X451942Y-44754D01*
X450262Y-46435D01*
X449105Y-48439D01*
X449065Y-48494D01*
X447675Y-48805D01*
X444975Y-46105D01*
X443809Y-45622D01*
X439183D01*
X439027Y-45686D01*
X438861Y-45653D01*
X438719Y-45682D01*
X436044D01*
X435902Y-45653D01*
X435736Y-45686D01*
X435580Y-45622D01*
X431776D01*
Y-40721D01*
X431529Y-40125D01*
X431293Y-39556D01*
X430751Y-39012D01*
X430701Y-38938D01*
X430627Y-38889D01*
X428454Y-36712D01*
X428297Y-36647D01*
X428203Y-36506D01*
X427499Y-36035D01*
X427024Y-35323D01*
X426884Y-35230D01*
X426819Y-35074D01*
X424959Y-33211D01*
X424959Y-25006D01*
Y-17224D01*
X424476Y-16057D01*
X422123Y-13704D01*
X420957Y-13221D01*
X414599Y-13221D01*
Y-13152D01*
X414403Y-12167D01*
X413845Y-11332D01*
X413010Y-10774D01*
X412025Y-10579D01*
X408025D01*
X407041Y-10774D01*
X406206Y-11332D01*
X405891Y-11803D01*
X404585D01*
X404271Y-11332D01*
X403436Y-10774D01*
X402451Y-10579D01*
X398451D01*
X397466Y-10774D01*
X396631Y-11332D01*
X396073Y-12167D01*
X395877Y-13152D01*
Y-16152D01*
X396073Y-17137D01*
X396631Y-17972D01*
X397466Y-18529D01*
X398451Y-18725D01*
X402451D01*
X403040Y-18608D01*
X404072Y-19217D01*
X404310Y-19473D01*
X404309Y-59081D01*
X404793Y-60247D01*
X407721Y-63176D01*
X407722Y-63176D01*
X408690Y-64144D01*
X409856Y-64627D01*
X445676D01*
X446843Y-64144D01*
X448461Y-62526D01*
X448945Y-61359D01*
Y-57775D01*
X450215Y-57435D01*
X450262Y-57517D01*
X451942Y-59197D01*
X454000Y-60385D01*
X456295Y-61000D01*
X458672D01*
X460967Y-60385D01*
X463025Y-59197D01*
X464705Y-57517D01*
X465893Y-55459D01*
X466508Y-53164D01*
Y-50788D01*
X466421Y-50461D01*
X471988Y-44894D01*
X472886Y-43549D01*
X473201Y-41964D01*
Y-4139D01*
X472886Y-2554D01*
X471988Y-1209D01*
X466128Y4650D01*
Y27201D01*
X465813Y28787D01*
X464915Y30131D01*
X456010Y39035D01*
X456011Y47370D01*
X455527Y48536D01*
X450645Y53418D01*
X449479Y53901D01*
D02*
G37*
G36*
X370875Y-5976D02*
X367125D01*
X366287Y-6143D01*
X365576Y-6618D01*
X365101Y-7329D01*
X364934Y-8167D01*
Y-16917D01*
X365101Y-17756D01*
X365576Y-18467D01*
X366287Y-18942D01*
X367125Y-19109D01*
X370875D01*
X371714Y-18942D01*
X372425Y-18467D01*
X372900Y-17756D01*
X373066Y-16917D01*
Y-16076D01*
X374336Y-15705D01*
X374481Y-15921D01*
X375316Y-16479D01*
X376301Y-16675D01*
X377179D01*
X377705Y-17945D01*
X374014Y-21637D01*
X373531Y-22803D01*
X373531Y-27709D01*
X372866Y-28375D01*
X367948Y-28383D01*
X366628D01*
X365462Y-28867D01*
X365118Y-29210D01*
X364635Y-30377D01*
Y-30948D01*
X363460Y-31296D01*
X363365Y-31277D01*
X362924Y-30618D01*
X362214Y-30143D01*
X361375Y-29976D01*
X357625D01*
X356787Y-30143D01*
X356076Y-30618D01*
X355601Y-31329D01*
X355434Y-32167D01*
Y-32689D01*
X355336Y-32756D01*
X354360Y-32427D01*
X354066Y-32167D01*
X353899Y-31329D01*
X353424Y-30618D01*
X352714Y-30143D01*
X351875Y-29976D01*
X348276D01*
X348262Y-29974D01*
X344178D01*
X343663Y-29459D01*
Y-27042D01*
X343468Y-26058D01*
X342910Y-25223D01*
X342075Y-24665D01*
X341421Y-24535D01*
Y-21550D01*
X342075Y-21420D01*
X342910Y-20862D01*
X343468Y-20027D01*
X343663Y-19042D01*
Y-16042D01*
X343468Y-15058D01*
X342910Y-14223D01*
X342075Y-13665D01*
X341090Y-13469D01*
X337090D01*
X336105Y-13665D01*
X335270Y-14223D01*
X334712Y-15058D01*
X334517Y-16042D01*
Y-19042D01*
X334712Y-20027D01*
X335270Y-20862D01*
X336105Y-21420D01*
X336759Y-21550D01*
Y-24535D01*
X336105Y-24665D01*
X335270Y-25223D01*
X334712Y-26058D01*
X334517Y-27042D01*
Y-30042D01*
X334712Y-31027D01*
X335270Y-31862D01*
X336105Y-32420D01*
X337090Y-32616D01*
X339077D01*
X339182Y-32773D01*
X338502Y-34041D01*
X335336Y-34036D01*
X335336Y-34036D01*
X335335Y-34036D01*
X334742Y-34281D01*
X334169Y-34517D01*
X334169Y-34518D01*
X334168Y-34518D01*
X332194Y-36489D01*
X332194Y-36490D01*
X332193Y-36490D01*
X327083Y-41600D01*
X317422Y-41600D01*
X316255Y-42084D01*
X314419Y-43920D01*
X313936Y-45086D01*
Y-54246D01*
X314419Y-55412D01*
X316215Y-57209D01*
X317381Y-57692D01*
X362313D01*
X363479Y-57209D01*
X363962Y-56042D01*
X363962Y-43969D01*
X364701Y-43647D01*
X365232Y-43579D01*
X365786Y-44133D01*
X378005Y-62216D01*
X378143Y-62307D01*
X378206Y-62459D01*
X378654Y-62645D01*
X379059Y-62912D01*
X379220Y-62879D01*
X379372Y-62942D01*
X390252D01*
X391418Y-62459D01*
X393698Y-60180D01*
X394181Y-59013D01*
Y-40149D01*
X394180Y-21311D01*
X393697Y-20145D01*
X390929Y-17377D01*
X391028Y-15983D01*
X391120Y-15921D01*
X391678Y-15087D01*
X391874Y-14102D01*
Y-10102D01*
X391678Y-9117D01*
X391120Y-8282D01*
X390285Y-7724D01*
X389300Y-7528D01*
X386300D01*
X385316Y-7724D01*
X384481Y-8282D01*
X383923Y-9117D01*
X383727Y-10102D01*
Y-14102D01*
X383923Y-15087D01*
X383977Y-15168D01*
X383416Y-16216D01*
X382184Y-16217D01*
X381624Y-15168D01*
X381678Y-15087D01*
X381874Y-14102D01*
Y-10102D01*
X381678Y-9117D01*
X381120Y-8282D01*
X380285Y-7724D01*
X379300Y-7528D01*
X376301D01*
X375316Y-7724D01*
X374481Y-8282D01*
X374336Y-8498D01*
X373168Y-8194D01*
X373058Y-8126D01*
X372900Y-7329D01*
X372425Y-6618D01*
X371714Y-6143D01*
X370875Y-5976D01*
D02*
G37*
%LPD*%
G36*
X-21853Y217853D02*
Y201286D01*
X-31493Y191647D01*
X-61887Y191647D01*
X-61887Y221914D01*
X-60343Y223458D01*
X-27458D01*
X-21853Y217853D01*
D02*
G37*
%LPC*%
G36*
X-50405Y214866D02*
X-52307Y214488D01*
X-53919Y213411D01*
X-54996Y211798D01*
X-55374Y209897D01*
X-54996Y207995D01*
X-53919Y206383D01*
X-52307Y205306D01*
X-50405Y204927D01*
X-48503Y205306D01*
X-46891Y206383D01*
X-45814Y207995D01*
X-45435Y209897D01*
X-45814Y211798D01*
X-46891Y213411D01*
X-48503Y214488D01*
X-50405Y214866D01*
D02*
G37*
%LPD*%
G36*
X316766Y16937D02*
X319178Y14526D01*
Y-11178D01*
X315585Y-14771D01*
X306650D01*
X303736Y-11858D01*
Y13903D01*
X307032Y17133D01*
X316766Y16937D01*
D02*
G37*
G36*
X194642Y1541D02*
Y-17895D01*
X193969Y-18903D01*
X193653Y-20488D01*
Y-26177D01*
X193969Y-27762D01*
X194642Y-28770D01*
Y-50016D01*
Y-55942D01*
X193176Y-57408D01*
X178185D01*
X170793Y-50016D01*
X116545D01*
X107943Y-58619D01*
X99793D01*
X96458Y-55284D01*
Y-41809D01*
X99239Y-39033D01*
X106455Y-39048D01*
X108275Y-37231D01*
Y-23105D01*
X104645Y-19474D01*
X87598Y-19474D01*
X79667Y-27404D01*
X65842D01*
X62291Y-23854D01*
X62291Y1393D01*
X64463Y3566D01*
X105493Y3566D01*
X123293Y3566D01*
X126906Y-48D01*
Y-8442D01*
X126744Y-8474D01*
X125400Y-9373D01*
X124502Y-10717D01*
X124186Y-12303D01*
X124502Y-13888D01*
X125400Y-15233D01*
X126744Y-16131D01*
X126906Y-16163D01*
Y-23541D01*
X128014Y-24648D01*
X128137Y-25269D01*
X128695Y-26104D01*
X129530Y-26662D01*
X130262Y-26807D01*
X130373Y-26901D01*
X130692Y-27441D01*
X130886Y-28077D01*
X130681Y-28184D01*
X129826Y-28354D01*
X128991Y-28912D01*
X128433Y-29747D01*
X128237Y-30731D01*
Y-34731D01*
X128433Y-35716D01*
X128991Y-36551D01*
X129826Y-37109D01*
X130810Y-37305D01*
X133810D01*
X134795Y-37109D01*
X135630Y-36551D01*
X136188Y-35716D01*
X136384Y-34731D01*
Y-31679D01*
X136491Y-31140D01*
Y-30893D01*
X139562Y-27822D01*
X140900Y-27556D01*
X142244Y-26658D01*
X142545Y-26207D01*
X163733Y-26208D01*
X166324Y-23616D01*
X166390D01*
X167374Y-23420D01*
X168209Y-22862D01*
X168767Y-22027D01*
X168963Y-21042D01*
Y-18042D01*
X168767Y-17058D01*
X168209Y-16223D01*
X167374Y-15665D01*
X166390Y-15469D01*
X165969D01*
X158963Y-8463D01*
Y551D01*
X159805Y1393D01*
X182194Y1393D01*
X185149Y4348D01*
X191834D01*
X194642Y1541D01*
D02*
G37*
G36*
X222444Y-42549D02*
X222611Y-43387D01*
X223086Y-44098D01*
X223797Y-44573D01*
X224635Y-44740D01*
X227219D01*
X227745Y-46010D01*
X224014Y-49740D01*
X216083D01*
X215780Y-49866D01*
X215452D01*
X214617Y-50212D01*
X213657D01*
X212822Y-49866D01*
X212494D01*
X212191Y-49740D01*
X209314D01*
X207692Y-48119D01*
X207692Y-48119D01*
X204176Y-44603D01*
Y-37738D01*
X205435Y-37051D01*
X206420Y-37247D01*
X210420D01*
X211405Y-37051D01*
X212240Y-36494D01*
X212727Y-35764D01*
X222444D01*
Y-42549D01*
D02*
G37*
G36*
X269041Y212D02*
X269041Y-41781D01*
X266112Y-44710D01*
X243574D01*
X241917Y-43052D01*
X241917Y-32886D01*
X243138Y-31664D01*
X244460D01*
X250061Y-31655D01*
X251690Y-30023D01*
X251690Y-7706D01*
Y-5059D01*
X259179Y2430D01*
X266823Y2430D01*
X269041Y212D01*
D02*
G37*
G36*
X295364Y2430D02*
X300579Y-2786D01*
Y-12759D01*
X307792Y-19972D01*
X313455D01*
X315741Y-22258D01*
Y-30769D01*
X301510Y-45000D01*
X284159D01*
X284159Y-3903D01*
X285657Y-2405D01*
X286320Y-1962D01*
X286763Y-1299D01*
X290492Y2430D01*
X295364Y2430D01*
D02*
G37*
G36*
X19758Y-26388D02*
X24995Y-32167D01*
X57325Y-32167D01*
X59200Y-34042D01*
Y-34042D01*
X59200D01*
Y-51042D01*
D01*
Y-53695D01*
X56872Y-56023D01*
X34298D01*
X34205Y-55554D01*
X33307Y-54210D01*
X31963Y-53312D01*
X30377Y-52996D01*
X28791Y-53312D01*
X28087Y-53783D01*
X26914Y-53302D01*
X26830Y-52877D01*
X25931Y-51533D01*
X24587Y-50635D01*
X23001Y-50319D01*
X21416Y-50635D01*
X20851Y-51012D01*
X10385Y-46771D01*
X10077Y-45220D01*
X9179Y-43876D01*
X7834Y-42977D01*
X6249Y-42662D01*
X4663Y-42977D01*
X3716Y-43610D01*
X2477Y-43045D01*
X2466Y-43034D01*
Y-35827D01*
X11905Y-26388D01*
X19758Y-26388D01*
D02*
G37*
G36*
X202526Y-24656D02*
Y-45286D01*
X206526Y-49285D01*
X208631Y-51390D01*
X212191D01*
X213329Y-51861D01*
X214945D01*
X216083Y-51390D01*
X224697D01*
X232764Y-43323D01*
X232764Y-33304D01*
X233191D01*
X234343Y-32827D01*
X239233Y-32827D01*
Y-44225D01*
Y-55205D01*
X235146Y-59292D01*
X215731D01*
X210116Y-64908D01*
X196914D01*
Y-43602D01*
X196292Y-42980D01*
Y-28770D01*
X196107Y-28326D01*
X196014Y-27854D01*
X195522Y-27119D01*
X195303Y-26014D01*
Y-22064D01*
X196356Y-21010D01*
X198881Y-21010D01*
X202526Y-24656D01*
D02*
G37*
G36*
X103354Y-24718D02*
X103354Y-31900D01*
X101751Y-33503D01*
X98881D01*
X95501Y-36883D01*
Y-40433D01*
X95293Y-40641D01*
X95292Y-40642D01*
X95292Y-40642D01*
X95047Y-41233D01*
X94809Y-41807D01*
X94809Y-41808D01*
X94808Y-41809D01*
Y-43626D01*
X94644Y-44022D01*
X94403Y-45856D01*
Y-51855D01*
X94644Y-53689D01*
X94808Y-54085D01*
Y-55284D01*
X95292Y-56450D01*
X95501Y-56660D01*
Y-64316D01*
X93467Y-67923D01*
X93467D01*
X89502Y-67931D01*
X81583Y-67532D01*
X73695Y-66719D01*
X65861Y-65493D01*
X61981Y-64676D01*
X61264Y-58442D01*
X61264Y-31603D01*
X62850Y-30017D01*
X85461D01*
X93080Y-22398D01*
X101034D01*
X103354Y-24718D01*
D02*
G37*
%LPC*%
G36*
X173639Y-7188D02*
X171777Y-7559D01*
X170197Y-8614D01*
X169142Y-10193D01*
X168772Y-12056D01*
X169142Y-13918D01*
X170197Y-15498D01*
X171777Y-16553D01*
X173639Y-16923D01*
X175502Y-16553D01*
X177081Y-15498D01*
X178136Y-13918D01*
X178507Y-12056D01*
X178136Y-10193D01*
X177081Y-8614D01*
X175502Y-7559D01*
X173639Y-7188D01*
D02*
G37*
G36*
X115839D02*
X113976Y-7559D01*
X112397Y-8614D01*
X111342Y-10193D01*
X110971Y-12056D01*
X111342Y-13918D01*
X112397Y-15498D01*
X113976Y-16553D01*
X115839Y-16923D01*
X117702Y-16553D01*
X119281Y-15498D01*
X120336Y-13918D01*
X120706Y-12056D01*
X120336Y-10193D01*
X119281Y-8614D01*
X117702Y-7559D01*
X115839Y-7188D01*
D02*
G37*
%LPD*%
G36*
X454361Y47370D02*
Y42436D01*
X454361Y36080D01*
X452951Y34670D01*
X440079D01*
X436593Y38156D01*
X436593Y48759D01*
X440086Y52252D01*
X449479D01*
X454361Y47370D01*
D02*
G37*
G36*
X420957Y-14871D02*
X423310Y-17224D01*
Y-25006D01*
X423310Y-33894D01*
X425652Y-36240D01*
X426310Y-37225D01*
X427287Y-37877D01*
X430126Y-40721D01*
Y-47271D01*
X435580D01*
X435881Y-47331D01*
X438881D01*
X439183Y-47271D01*
X443809D01*
X447295Y-50757D01*
X447295Y-61359D01*
X445676Y-62978D01*
X409856D01*
X408888Y-62010D01*
X408888D01*
X405959Y-59081D01*
X405959Y-16514D01*
X407603Y-14870D01*
X420957Y-14871D01*
D02*
G37*
G36*
X345934Y-35703D02*
Y-40917D01*
X346101Y-41756D01*
X346576Y-42467D01*
X347287Y-42942D01*
X348125Y-43109D01*
X351875D01*
X352714Y-42942D01*
X353424Y-42467D01*
X353899Y-41756D01*
X354066Y-40917D01*
Y-36616D01*
X354965Y-35719D01*
X361991Y-35730D01*
X362313Y-36052D01*
X362313Y-56042D01*
X317381D01*
X315585Y-54246D01*
Y-45086D01*
X317422Y-43250D01*
X327766Y-43250D01*
X333360Y-37656D01*
X335334Y-35686D01*
X345934Y-35703D01*
D02*
G37*
G36*
X392531Y-21311D02*
X392531Y-40149D01*
Y-59013D01*
X390252Y-61292D01*
X379372D01*
X367064Y-43078D01*
X366284Y-42299D01*
X366284Y-30377D01*
X366628Y-30033D01*
X367950D01*
X373551Y-30024D01*
X375180Y-28392D01*
X375180Y-22803D01*
X379873Y-18109D01*
X389329Y-18109D01*
X392531Y-21311D01*
D02*
G37*
D10*
X-54575Y134515D02*
Y134687D01*
D18*
X164390Y-19542D02*
D03*
Y-29542D02*
D03*
X339090Y-38542D02*
D03*
Y-28542D02*
D03*
X-49000Y66000D02*
D03*
Y56000D02*
D03*
X-52809Y95493D02*
D03*
Y105493D02*
D03*
X-1460Y75668D02*
D03*
Y65668D02*
D03*
X-35916Y91149D02*
D03*
Y101149D02*
D03*
X208420Y-26010D02*
D03*
Y-16010D02*
D03*
Y-33174D02*
D03*
X457013Y-38920D02*
D03*
X208922Y287401D02*
D03*
Y297401D02*
D03*
X218922Y287401D02*
D03*
Y297401D02*
D03*
X208420Y-43174D02*
D03*
X219776Y-2570D02*
D03*
Y7430D02*
D03*
X400451Y-14652D02*
D03*
Y-4652D02*
D03*
X339090Y-17542D02*
D03*
Y-7542D02*
D03*
X410025Y-14652D02*
D03*
Y-4652D02*
D03*
X27392Y180128D02*
D03*
Y190128D02*
D03*
X457013Y-28920D02*
D03*
X457410Y293078D02*
D03*
Y283078D02*
D03*
D19*
X219780Y49795D02*
D03*
X219530Y255585D02*
D03*
X125070Y49475D02*
D03*
X91249Y255565D02*
D03*
D20*
X59930Y109955D02*
D03*
X59930Y192365D02*
D03*
X59781Y57387D02*
D03*
X59440Y212535D02*
D03*
X59731Y70667D02*
D03*
X59630Y122705D02*
D03*
X59720Y135395D02*
D03*
X59720Y148085D02*
D03*
X59630Y160825D02*
D03*
X59930Y173575D02*
D03*
X59850Y84545D02*
D03*
X59750Y97255D02*
D03*
D21*
X-15407Y30506D02*
D03*
X-25407D02*
D03*
X-46630Y81106D02*
D03*
X-56630D02*
D03*
X134890Y-2122D02*
D03*
X124890D02*
D03*
X154890D02*
D03*
X164890D02*
D03*
X-8725Y94147D02*
D03*
X-18725D02*
D03*
X132310Y-32731D02*
D03*
X122310D02*
D03*
X239182Y7219D02*
D03*
X293000Y1858D02*
D03*
X239182Y-2531D02*
D03*
X208922Y305410D02*
D03*
X218922D02*
D03*
X-18725Y103023D02*
D03*
X-8725D02*
D03*
X-36504Y7864D02*
D03*
X-46504D02*
D03*
X-46343Y26856D02*
D03*
X-36343D02*
D03*
X132015Y-22284D02*
D03*
X122015D02*
D03*
X229182Y-2531D02*
D03*
X427382Y-42758D02*
D03*
X437381D02*
D03*
X283000Y1858D02*
D03*
X387800Y-12102D02*
D03*
X377800D02*
D03*
X229182Y7219D02*
D03*
X261185Y2430D02*
D03*
X251185D02*
D03*
X290Y169628D02*
D03*
X10290D02*
D03*
X-46343Y18833D02*
D03*
X-36343D02*
D03*
X290Y160826D02*
D03*
X10290D02*
D03*
X349574Y692D02*
D03*
X359574D02*
D03*
X-20407Y75283D02*
D03*
X-10407D02*
D03*
D25*
X202275Y11299D02*
D03*
X197274Y24299D02*
D03*
X207276D02*
D03*
D26*
X248630Y305408D02*
D03*
X282630D02*
D03*
D27*
X155897Y32979D02*
D03*
X143876Y20958D02*
D03*
D28*
X49200Y-7543D02*
D03*
X78200D02*
D03*
Y-47543D02*
D03*
X49200D02*
D03*
D30*
X226510Y-38174D02*
D03*
X236010D02*
D03*
X245510D02*
D03*
X226510Y-14174D02*
D03*
X236010D02*
D03*
X245510D02*
D03*
X369000Y-12542D02*
D03*
X359500D02*
D03*
X350000D02*
D03*
X369000Y-36542D02*
D03*
X359500D02*
D03*
X350000D02*
D03*
D31*
X27067Y171169D02*
D03*
X18569D02*
D03*
D32*
X41788Y60410D02*
X42978Y61600D01*
X39201Y56863D02*
X41788Y59451D01*
X42978Y61600D02*
X45637D01*
X39201Y56039D02*
Y56863D01*
X41788Y59451D02*
Y60410D01*
X45637Y61600D02*
X51720Y67684D01*
X-15407Y30506D02*
X-15330Y30429D01*
X-7479D01*
X-7402Y30352D01*
X133901Y-29820D02*
X139314Y-24407D01*
Y-23728D01*
X51720Y67684D02*
X56743D01*
X59727Y70668D01*
X-54575Y139954D02*
X-46169D01*
X169309Y39559D02*
X177806D01*
X184000D02*
X201029D01*
X207276Y33312D01*
Y24299D02*
Y33312D01*
X202275Y2887D02*
X215099Y-9938D01*
Y-20330D02*
Y-9938D01*
X210903Y-24526D02*
X215099Y-20330D01*
X209617Y-25313D02*
X210404Y-24526D01*
X209419Y-25511D02*
X209617Y-25313D01*
X209419Y-26010D02*
Y-25511D01*
X210404Y-24526D02*
X210903D01*
X208420Y-26010D02*
X209419D01*
X210314Y-33174D02*
Y-26010D01*
X202275Y2887D02*
Y11299D01*
X210314Y-33174D02*
X224010D01*
X226510Y-35674D01*
Y-38174D02*
Y-35674D01*
X133901Y-31140D02*
Y-29820D01*
X132310Y-32731D02*
X133901Y-31140D01*
D56*
X32029Y110865D02*
G03*
X36660Y110903I2296J2373D01*
G01*
X30580Y112268D02*
G03*
X25911Y112191I-2296J-2373D01*
G01*
D02*
G03*
X25987Y107522I2373J-2296D01*
G01*
X32375Y96744D02*
G03*
X32299Y101413I-2373J2297D01*
G01*
X27706Y96668D02*
G03*
X32375Y96744I2296J2373D01*
G01*
X21394Y102777D02*
G03*
X16725Y102700I-2296J-2373D01*
G01*
Y102700D02*
G03*
X16802Y98031I2373J-2296D01*
G01*
X23190Y87253D02*
G03*
X23114Y91922I-2373J2297D01*
G01*
X18521Y87177D02*
G03*
X23190Y87253I2296J2373D01*
G01*
X12209Y93286D02*
G03*
X7539Y93209I-2296J-2373D01*
G01*
X7540Y93210D02*
G03*
X7616Y88540I2373J-2296D01*
G01*
X8638Y82881D02*
G03*
X8600Y87588I-2335J2335D01*
G01*
X17078Y67914D02*
G03*
X17090Y64633I1634J-1634D01*
G01*
X21860Y56688D02*
G03*
X21836Y59957I-1646J1622D01*
G01*
X17201Y55253D02*
G03*
X20470Y55277I1622J1646D01*
G01*
X12396Y59987D02*
G03*
X9139Y59975I-1622J-1646D01*
G01*
X39876Y75738D02*
X48683Y84546D01*
X59845D01*
X142473Y-20062D02*
X147670D01*
X149887Y-17845D02*
Y-15601D01*
X147670Y-20062D02*
X149887Y-17845D01*
X135342Y-12930D02*
X142473Y-20062D01*
X-62210Y36436D02*
X-53719Y27945D01*
X-62210Y36436D02*
Y112721D01*
X-53719Y27945D02*
X-47432D01*
X149861Y-15575D02*
Y-13611D01*
X149180Y-12930D02*
X149861Y-13611D01*
Y-15575D02*
X149887Y-15601D01*
X-33434Y50660D02*
Y57485D01*
Y50660D02*
X-26486Y43711D01*
X135160Y-12930D02*
X135342D01*
X135160D02*
Y-11968D01*
X134890Y-1736D02*
X143273Y6647D01*
X134890Y-2122D02*
Y-1736D01*
X143273Y6647D02*
Y12770D01*
X130540Y30506D02*
X142385Y18661D01*
X146653Y14393D01*
Y6762D02*
X150566Y2849D01*
X146653Y6762D02*
Y14393D01*
X98400Y49038D02*
X107249Y40189D01*
X139093D01*
X149300Y40254D02*
X149364Y40189D01*
X144157Y40254D02*
X149300D01*
X149136Y40189D02*
X149364D01*
X156315Y33239D01*
X156778D01*
X98400Y49038D02*
Y82726D01*
X80688Y100439D02*
X98400Y82726D01*
X156071Y33946D02*
X156778Y33239D01*
X153448Y-34D02*
X154889Y-1475D01*
X-27951Y40174D02*
X6966D01*
X153448Y-34D02*
Y-18D01*
X150566Y2849D02*
X150581D01*
X-40843Y57694D02*
Y58656D01*
X129075Y26969D02*
X143273Y12770D01*
X-36697Y48920D02*
X-27951Y40174D01*
X150581Y2849D02*
X153448Y-18D01*
X-36697Y48920D02*
Y53548D01*
X154889Y-2122D02*
Y-1475D01*
X-40843Y57694D02*
X-36697Y53548D01*
X-34115Y58165D02*
X-33434Y57485D01*
X6966Y40174D02*
X20172Y26969D01*
X8431Y43711D02*
X21637Y30506D01*
X-26486Y43711D02*
X8431D01*
X-48371Y66000D02*
X-45324Y69048D01*
X-43693D02*
X-39399Y73341D01*
X-49000Y66000D02*
X-48371D01*
X-45324Y69048D02*
X-43693D01*
X36660Y110903D02*
X39781Y114024D01*
X30580Y112268D02*
X32029Y110865D01*
X25987Y107522D02*
X25987Y107522D01*
X32299Y101413D01*
X32299Y101413D01*
X27706Y96668D02*
X27706Y96668D01*
X21394Y102777D02*
X27706Y96668D01*
X16725Y102700D02*
X16725Y102700D01*
X16725D02*
X16725D01*
X16802Y98031D02*
X16802Y98031D01*
X23114Y91922D01*
X23190Y87253D02*
X23190Y87253D01*
X18521Y87177D02*
X18521Y87177D01*
X12209Y93286D02*
X18521Y87177D01*
X7539Y93209D02*
X7540Y93210D01*
X7616Y88540D02*
X7616Y88540D01*
X8600Y87588D01*
X8600Y87588D02*
X8600Y87588D01*
X6970Y81212D02*
X8638Y82881D01*
X39781Y114024D02*
X48464Y122706D01*
X47899Y148086D02*
X59716D01*
X35209Y135396D02*
X47899Y148086D01*
X14966Y139453D02*
Y148948D01*
X39594Y173576D02*
X59926D01*
X14966Y148948D02*
X39594Y173576D01*
X23494Y74330D02*
X46418Y97254D01*
X23480Y74316D02*
X23494Y74330D01*
X17078Y67914D02*
X23480Y74316D01*
X17090Y64633D02*
X17090Y64633D01*
X21836Y59957D01*
X20470Y55277D02*
X21860Y56688D01*
X12396Y59987D02*
X17201Y55253D01*
X3469Y54305D02*
X9139Y59975D01*
X1082Y54305D02*
X3469D01*
X-13031D02*
X1082D01*
X20172Y26969D02*
X129075D01*
X21637Y30506D02*
X130540D01*
X157184Y-20893D02*
X157859Y-20218D01*
X163714D02*
X164390Y-19542D01*
X157859Y-20218D02*
X163714D01*
X155167Y-12925D02*
Y-8101D01*
X134889Y-2122D02*
X136083Y-3316D01*
X-7134Y89134D02*
Y92927D01*
X-6440Y87478D02*
Y88440D01*
X-35815Y91250D02*
X-29179D01*
X-29079Y91351D01*
X-7134Y89134D02*
X-6440Y88440D01*
X-35916Y91149D02*
X-35815Y91250D01*
X-33551Y108458D02*
X-33383Y108626D01*
X-48416Y94947D02*
X-44820Y91351D01*
X-48005Y121647D02*
X-34816Y108458D01*
X-52809Y95493D02*
X-52263Y94947D01*
X-34816Y108458D02*
X-33551D01*
X-52263Y94947D02*
X-48416D01*
X-46504Y7864D02*
X-45416Y8951D01*
X-36504Y-4524D02*
Y7864D01*
Y-4524D02*
X-13174Y-27854D01*
X46418Y97254D02*
X59744D01*
X339090Y-28542D02*
Y-17542D01*
X-13174Y-27854D02*
X-6584D01*
X2466Y-36904D01*
X9563D01*
X-62210Y112721D02*
X-53916Y121016D01*
X-56083Y39344D02*
X-52347Y35607D01*
X-56083Y69330D02*
X-51809Y73604D01*
X-56083Y39344D02*
Y69330D01*
X-47432Y27945D02*
X-46343Y26856D01*
X-33972Y35607D02*
X-29300Y30935D01*
X-52347Y35607D02*
X-33972D01*
X-29300Y30935D02*
X-25837D01*
X-25407Y30506D01*
X-45781Y28492D02*
X-45416Y28856D01*
Y20833D02*
Y28856D01*
Y8951D02*
Y20833D01*
X-51809Y73604D02*
X-47252D01*
X-46983Y73874D01*
X-47286Y81267D02*
X-40049D01*
X-39889Y81106D01*
X213672Y-47797D02*
X214137D01*
X209049Y-43174D02*
X213672Y-47797D01*
X208420Y-43174D02*
X209049D01*
X239182Y-2531D02*
Y7219D01*
X241273Y9310D02*
X241940Y9978D01*
X239182Y7590D02*
X240902Y9310D01*
X239182Y7219D02*
Y7590D01*
X240902Y9310D02*
X241273D01*
X241940Y9978D02*
X285380D01*
X293000Y1858D02*
Y2358D01*
X285380Y9978D02*
X293000Y2358D01*
Y-22442D02*
Y1858D01*
X291600Y-23842D02*
X293000Y-22442D01*
X-39833Y81106D02*
X-13031Y54305D01*
X-39833Y81106D02*
X-39833D01*
X59744Y97254D02*
X59745Y97256D01*
X-28899Y79602D02*
X-28219Y78921D01*
Y77572D02*
Y78921D01*
X48464Y160826D02*
X59626D01*
X27555Y139918D02*
X48464Y160826D01*
X48464Y122706D02*
X59626D01*
X136083Y-11046D02*
Y-3316D01*
X135160Y-11968D02*
X136083Y-11046D01*
X-8725Y94518D02*
X-7134Y92927D01*
X-8725Y103486D02*
X-3752Y108458D01*
X-3715D01*
X154533Y-7467D02*
Y-2479D01*
X154889Y-2122D01*
X3608Y77851D02*
X6970Y81212D01*
X-8725Y94147D02*
Y103486D01*
X341328Y-30420D02*
X343212Y-32304D01*
X341328Y-30420D02*
Y-30409D01*
X339461Y-28542D02*
X341328Y-30409D01*
X343212Y-32304D02*
X348262D01*
X339142Y-28542D02*
X339461D01*
X290Y160455D02*
Y160826D01*
X-1801Y158735D02*
X-1430D01*
X290Y160455D01*
X-5311Y154356D02*
Y155225D01*
X-1801Y158735D01*
X27339Y139918D02*
X27555D01*
X154533Y-7467D02*
X155167Y-8101D01*
X154533Y-7726D02*
Y-7467D01*
X128330Y-13265D02*
X131193Y-16128D01*
Y-22153D02*
Y-16128D01*
X128330Y-13265D02*
Y-12303D01*
X-26793Y76146D02*
X-21270D01*
X-20407Y75283D01*
X-28219Y77572D02*
X-26793Y76146D01*
X-612Y75887D02*
X1352Y77851D01*
X-1460Y75887D02*
X-612D01*
X1352Y77851D02*
X3608D01*
X-2007Y75340D02*
X-1950Y75397D01*
X-10350Y75340D02*
X-2007D01*
X-10407Y75283D02*
X-10350Y75340D01*
X366045Y-3155D02*
Y-2339D01*
X371041Y2658D02*
Y3475D01*
X366045Y-3498D02*
Y-3155D01*
X359537Y655D02*
X359574Y692D01*
X350000Y-36542D02*
Y-34042D01*
X348262Y-32304D02*
X350000Y-34042D01*
X349787Y-12329D02*
Y479D01*
X349574Y692D02*
X349787Y479D01*
Y-12329D02*
X350000Y-12542D01*
X386295Y8301D02*
X399248Y-4652D01*
X349574Y692D02*
X357182Y8301D01*
X386295D01*
X399248Y-4652D02*
X400451D01*
X410025D01*
X384100Y-40442D02*
X387800Y-36742D01*
X229182Y-2531D02*
Y7219D01*
X221051Y-2512D02*
X229163D01*
X229182Y-2531D01*
X221032Y-2493D02*
X221051Y-2512D01*
X226510Y-5831D02*
X229182Y-3160D01*
X226510Y-14174D02*
Y-5831D01*
X229182Y-3160D02*
Y-2531D01*
X236010Y-21460D02*
X238915Y-24365D01*
X236010Y-21460D02*
Y-14174D01*
X238915Y-24486D02*
Y-24365D01*
X245510Y-14174D02*
Y-3745D01*
X251185Y1930D02*
Y2430D01*
X245510Y-3745D02*
X251185Y1930D01*
D57*
X-35629Y219993D02*
D03*
Y238993D02*
D03*
D58*
X-37808Y128381D02*
D03*
X-32744D02*
D03*
X178313Y39559D02*
D03*
X183377D02*
D03*
X-48221Y121647D02*
D03*
X-53285D02*
D03*
X139093Y40254D02*
D03*
X144157D02*
D03*
D59*
X310681Y-25042D02*
D03*
X29598Y-36100D02*
D03*
Y-21100D02*
D03*
X-50782Y219837D02*
D03*
Y234837D02*
D03*
X233616Y-49907D02*
D03*
Y-64908D02*
D03*
X356787Y-63542D02*
D03*
Y-48542D02*
D03*
X310681Y-10042D02*
D03*
D60*
X291600Y-23842D02*
D03*
X261600D02*
D03*
X414100Y-40442D02*
D03*
X384100D02*
D03*
D61*
X98960Y-28086D02*
D03*
X113960D02*
D03*
D62*
X-54575Y139751D02*
D03*
Y134687D02*
D03*
D63*
X461985Y2934D02*
X469058Y-4139D01*
X459046Y-51976D02*
X469058Y-41964D01*
Y-4139D01*
X-7876Y185731D02*
X2775Y196382D01*
X-45814Y185731D02*
X-7876D01*
X102639Y-7055D02*
Y-4434D01*
X101488Y-7055D02*
Y-1554D01*
X457483Y-51976D02*
X459046D01*
X457120Y270474D02*
Y283033D01*
X456830Y283073D02*
X457080D01*
X457120Y270474D02*
X457410Y270184D01*
X457080Y283073D02*
X457120Y283033D01*
X461985Y2934D02*
Y27201D01*
X457056Y-28877D02*
Y-17329D01*
X456984Y-51550D02*
Y-38960D01*
Y-51550D02*
X457410Y-51976D01*
X197797Y-20488D02*
X202275Y-16010D01*
X208420D01*
X197797Y-26177D02*
Y-20488D01*
X441992Y47194D02*
X461985Y27201D01*
X40035Y127794D02*
X43011Y130770D01*
X43928D02*
X47094Y133936D01*
X43011Y130770D02*
X43928D01*
X40035Y127438D02*
Y127794D01*
X47094Y133936D02*
X58256D01*
X59716Y135396D01*
X104912Y-2161D02*
X124850D01*
X102639Y-4434D02*
X104912Y-2161D01*
X101623Y-3493D02*
X103896Y-1220D01*
X101623Y-6801D02*
Y-3493D01*
D64*
X35384Y176612D02*
X35728D01*
X32464Y179533D02*
X35384Y176612D01*
X27987Y179533D02*
X32464D01*
X290Y169628D02*
Y170128D01*
X-5059Y173483D02*
X-3065D01*
X290Y170128D01*
X-5302Y173726D02*
X-5059Y173483D01*
X27392Y180128D02*
X27987Y179533D01*
X10290Y160826D02*
Y169628D01*
Y169804D02*
X10885Y170399D01*
X18569Y170744D02*
Y171169D01*
X18223Y170399D02*
X18569Y170744D01*
X10885Y170399D02*
X18223D01*
X10290Y169628D02*
Y169804D01*
X27230Y179965D02*
X27392Y180128D01*
X27067Y171169D02*
X27230Y171332D01*
Y179965D01*
D65*
X-43855Y129626D02*
X-39053D01*
X-44341Y130112D02*
X-43855Y129626D01*
X-39053D02*
X-38915Y129488D01*
X-30113Y131011D02*
Y135291D01*
X-31694Y129431D02*
X-30113Y131011D01*
Y135291D02*
X-29627Y135777D01*
X27392Y190128D02*
X34043D01*
X35263Y191348D01*
X35950D01*
X400451Y-14652D02*
X410025D01*
X387800Y-36742D02*
Y-12102D01*
X369000Y-12542D02*
X376600D01*
D66*
X218922Y298429D02*
Y305410D01*
X246659D01*
X208922Y298144D02*
Y305410D01*
X192599D02*
X208922D01*
X191743Y304554D02*
X192599Y305410D01*
D67*
X-35308Y128413D02*
D03*
X180811Y39590D02*
D03*
X-50786Y121678D02*
D03*
X141659Y40222D02*
D03*
D68*
X-54610Y137182D02*
D03*
D69*
X457483Y-16975D02*
D03*
Y-51976D02*
D03*
Y270184D02*
D03*
Y305185D02*
D03*
D70*
X671200Y30458D02*
D03*
Y224457D02*
D03*
D71*
X0Y255258D02*
D03*
Y0D02*
D03*
D72*
X101488Y-7055D02*
D03*
X187990D02*
D03*
D73*
X101488Y-48855D02*
D03*
X187990D02*
D03*
D74*
X115839Y-12056D02*
D03*
X173639D02*
D03*
D75*
X80688Y73966D02*
D03*
X39876Y75738D02*
D03*
X47282Y274152D02*
D03*
X77336Y270904D02*
D03*
X184665Y117831D02*
D03*
X39201Y56039D02*
D03*
X109281Y52125D02*
D03*
X87478Y50873D02*
D03*
X63387Y49038D02*
D03*
X44506Y240469D02*
D03*
X15816Y218762D02*
D03*
X29555Y232502D02*
D03*
X-6313Y196633D02*
D03*
X-45814Y185731D02*
D03*
X2775Y196382D02*
D03*
X-31493Y197487D02*
D03*
X-38222D02*
D03*
X295634Y257696D02*
D03*
X281566Y270904D02*
D03*
X269501D02*
D03*
X349373Y239866D02*
D03*
X52590Y220140D02*
D03*
X67600Y235150D02*
D03*
X306712Y257696D02*
D03*
X280921D02*
D03*
X198079D02*
D03*
X322646Y247915D02*
D03*
X38371Y205921D02*
D03*
X241963Y271836D02*
D03*
X214764Y272390D02*
D03*
X254007D02*
D03*
X230258Y273025D02*
D03*
X296806Y278359D02*
D03*
X180376Y275438D02*
D03*
X169298D02*
D03*
X158630Y274676D02*
D03*
X195352D02*
D03*
X122711D02*
D03*
X135643Y275438D02*
D03*
X96980Y274231D02*
D03*
X260738Y256515D02*
D03*
X295634Y251218D02*
D03*
X240720Y255466D02*
D03*
X278456Y251218D02*
D03*
X313815D02*
D03*
X201302Y252070D02*
D03*
X389800Y97800D02*
D03*
X406700Y77500D02*
D03*
X397500Y90800D02*
D03*
X358500Y73400D02*
D03*
X339200Y74300D02*
D03*
X276300Y-49907D02*
D03*
X284159Y-67970D02*
D03*
X186098Y28348D02*
D03*
X190761Y33312D02*
D03*
X199984Y323114D02*
D03*
X208323D02*
D03*
X216663D02*
D03*
X225002D02*
D03*
X233342D02*
D03*
X293574Y285674D02*
D03*
X279920Y283786D02*
D03*
X298011Y290111D02*
D03*
X302448Y294548D02*
D03*
X286926Y284737D02*
D03*
X-29328Y20080D02*
D03*
X-7402Y30352D02*
D03*
X-58921Y8985D02*
D03*
X-62362Y14445D02*
D03*
X-63005Y21374D02*
D03*
X-62913Y27751D02*
D03*
X139314Y-23728D02*
D03*
X120739Y8703D02*
D03*
X168951Y9042D02*
D03*
X-40843Y58656D02*
D03*
X29598Y17997D02*
D03*
X-44959Y99009D02*
D03*
X6640Y115473D02*
D03*
X-34423Y68452D02*
D03*
X35728Y176612D02*
D03*
X-44048Y42376D02*
D03*
X109408Y17799D02*
D03*
X159500D02*
D03*
X137590Y10960D02*
D03*
X155804Y-12930D02*
D03*
X149180D02*
D03*
X142165Y-12543D02*
D03*
X157184Y-20893D02*
D03*
X573305Y202837D02*
D03*
X527250Y79167D02*
D03*
X575215D02*
D03*
X517279D02*
D03*
X524040Y85771D02*
D03*
X516506D02*
D03*
X442700Y79167D02*
D03*
X451600D02*
D03*
X459953D02*
D03*
X471500D02*
D03*
X482900D02*
D03*
X494298D02*
D03*
X505213D02*
D03*
X517144Y96027D02*
D03*
X607700Y38000D02*
D03*
X580150Y53800D02*
D03*
X565700Y130100D02*
D03*
X578600Y138932D02*
D03*
X582985Y110700D02*
D03*
X561600Y196300D02*
D03*
X580237Y202537D02*
D03*
X600889Y211863D02*
D03*
X56086Y-64799D02*
D03*
X138953Y-67639D02*
D03*
X130376D02*
D03*
X48398Y-62855D02*
D03*
X173388Y-67970D02*
D03*
X164683Y-67639D02*
D03*
X40534Y-60734D02*
D03*
X30377Y-57140D02*
D03*
X23001Y-54463D02*
D03*
X64771Y-59571D02*
D03*
X121799Y-67639D02*
D03*
X156106D02*
D03*
X147529D02*
D03*
X104645D02*
D03*
X113222D02*
D03*
X598800Y48100D02*
D03*
X340240Y197634D02*
D03*
X442700Y140100D02*
D03*
X403020Y155195D02*
D03*
X476013Y96027D02*
D03*
X492163D02*
D03*
X545930D02*
D03*
X436000Y140100D02*
D03*
X456700Y139700D02*
D03*
X442700Y118800D02*
D03*
X449600Y140100D02*
D03*
X445400Y131600D02*
D03*
X468120Y126796D02*
D03*
X470000Y118800D02*
D03*
X477290Y126608D02*
D03*
X433500Y214100D02*
D03*
X489323Y114413D02*
D03*
X505213Y96445D02*
D03*
X494298Y102346D02*
D03*
X477693Y106523D02*
D03*
X417600Y182800D02*
D03*
X409287D02*
D03*
X404500Y176900D02*
D03*
X423900Y183100D02*
D03*
X230811Y211811D02*
D03*
X126499D02*
D03*
X147962D02*
D03*
X302609Y212374D02*
D03*
X216767Y212289D02*
D03*
X135373Y211945D02*
D03*
X254171Y212289D02*
D03*
X159845Y212316D02*
D03*
X190634Y213970D02*
D03*
X202699Y214478D02*
D03*
X61856Y225273D02*
D03*
X609797Y201628D02*
D03*
X602700D02*
D03*
X500900Y124800D02*
D03*
X475900Y206400D02*
D03*
X460000Y183100D02*
D03*
X406137Y148382D02*
D03*
X402200Y162662D02*
D03*
X615570Y70008D02*
D03*
X604300Y53800D02*
D03*
X462500Y211300D02*
D03*
X-29079Y91351D02*
D03*
X-6440Y87478D02*
D03*
X-720Y96548D02*
D03*
X-44921Y105796D02*
D03*
X-46983Y113259D02*
D03*
X-33383Y108626D02*
D03*
X-44820Y91351D02*
D03*
X625500Y198868D02*
D03*
X230476Y54038D02*
D03*
X228353Y111100D02*
D03*
X529420Y96445D02*
D03*
X494298Y53138D02*
D03*
X514500Y55700D02*
D03*
X531680Y57358D02*
D03*
X543669D02*
D03*
X573200Y51248D02*
D03*
X564121Y37318D02*
D03*
X595930Y28418D02*
D03*
X606750D02*
D03*
X508200Y228300D02*
D03*
X559500Y100485D02*
D03*
X548792Y48758D02*
D03*
X606100Y115000D02*
D03*
X621740Y120200D02*
D03*
X625500Y191221D02*
D03*
X590800Y110700D02*
D03*
X625500Y146513D02*
D03*
Y156927D02*
D03*
Y166503D02*
D03*
Y175493D02*
D03*
X588942Y203527D02*
D03*
X563913Y138932D02*
D03*
X598400Y111100D02*
D03*
X625500Y137100D02*
D03*
X-40252Y122530D02*
D03*
X-34175Y117450D02*
D03*
X-34115Y58165D02*
D03*
X-47577Y174910D02*
D03*
X-31941Y163378D02*
D03*
X428953Y-60034D02*
D03*
Y-53069D02*
D03*
X348074Y-23358D02*
D03*
X356076D02*
D03*
X315027Y11934D02*
D03*
X-29060Y158527D02*
D03*
X-29103Y168091D02*
D03*
X6249Y-46806D02*
D03*
X-2396Y-41884D02*
D03*
X-14224Y287653D02*
D03*
X-19812Y283652D02*
D03*
X-24572Y279306D02*
D03*
X-29815Y274891D02*
D03*
X-35127Y270752D02*
D03*
X-39818Y266268D02*
D03*
X-37489Y135065D02*
D03*
X-29892Y143445D02*
D03*
X16125Y-36904D02*
D03*
X9563D02*
D03*
X-14289Y-34338D02*
D03*
X-20007Y-30184D02*
D03*
X-25337Y-25830D02*
D03*
X-30656Y-21115D02*
D03*
X-35841Y-16435D02*
D03*
X-40797Y-11480D02*
D03*
X-45890Y-6524D02*
D03*
X-46983Y73874D02*
D03*
X-39889Y81106D02*
D03*
X-39399Y73341D02*
D03*
X-44341Y130112D02*
D03*
X-46169Y139954D02*
D03*
X-29627Y135777D02*
D03*
X169309Y39559D02*
D03*
X202526Y-6382D02*
D03*
X190761Y11299D02*
D03*
X197797Y-26177D02*
D03*
X214137Y-47797D02*
D03*
X201054Y-49296D02*
D03*
X308682Y11934D02*
D03*
X315027Y-452D02*
D03*
X308710Y5458D02*
D03*
X315027D02*
D03*
X308682Y-452D02*
D03*
X267855Y89380D02*
D03*
Y116080D02*
D03*
X268838Y124562D02*
D03*
X285391Y27280D02*
D03*
X221032Y27915D02*
D03*
X252610Y25121D02*
D03*
X303029Y31979D02*
D03*
X615570Y79918D02*
D03*
X180376Y322665D02*
D03*
X172542D02*
D03*
X370466Y115037D02*
D03*
X370078Y123911D02*
D03*
X369707Y148382D02*
D03*
X370466Y136500D02*
D03*
X369958Y162662D02*
D03*
X369570Y171536D02*
D03*
X369199Y196007D02*
D03*
X369958Y184125D02*
D03*
X199589Y191194D02*
D03*
X216767D02*
D03*
X116593Y238227D02*
D03*
X230811Y239356D02*
D03*
X214764Y236761D02*
D03*
X191509D02*
D03*
X173340Y240469D02*
D03*
X150723Y236761D02*
D03*
X128476Y238986D02*
D03*
X104004Y238615D02*
D03*
X95130Y238227D02*
D03*
X106052Y147676D02*
D03*
X108338Y117831D02*
D03*
X148216Y100432D02*
D03*
X142882Y120752D02*
D03*
X98559Y178156D02*
D03*
X155836Y164821D02*
D03*
X164853Y153391D02*
D03*
X264040Y47727D02*
D03*
X533145Y228448D02*
D03*
Y212958D02*
D03*
X408900Y142800D02*
D03*
X503547Y211049D02*
D03*
X472615Y231513D02*
D03*
X452649Y236050D02*
D03*
X432823Y224765D02*
D03*
X480321Y217399D02*
D03*
X456699Y224765D02*
D03*
X376816Y221590D02*
D03*
X404121Y290551D02*
D03*
X411355Y254202D02*
D03*
X417202Y267905D02*
D03*
X382277Y254229D02*
D03*
X391421Y238354D02*
D03*
X392310Y250546D02*
D03*
X369608Y234235D02*
D03*
X363708Y246487D02*
D03*
X353321Y255626D02*
D03*
X135643Y289662D02*
D03*
X144787Y298679D02*
D03*
X172542Y306777D02*
D03*
X152788Y311594D02*
D03*
X300235Y241910D02*
D03*
X275948Y244069D02*
D03*
X256366Y243551D02*
D03*
X268838Y190006D02*
D03*
X416966Y63957D02*
D03*
X398451Y9309D02*
D03*
X-50203Y-1844D02*
D03*
X-54746Y3616D02*
D03*
X40035Y127438D02*
D03*
X-28899Y79602D02*
D03*
X78366Y149278D02*
D03*
Y141356D02*
D03*
X522119Y106523D02*
D03*
X545930Y114700D02*
D03*
X517144Y115397D02*
D03*
X535429Y105345D02*
D03*
X586871Y217334D02*
D03*
X563800Y122800D02*
D03*
X571000Y109800D02*
D03*
X554499Y107675D02*
D03*
X609797Y233919D02*
D03*
X607172Y223394D02*
D03*
X609797Y212009D02*
D03*
X496069Y228448D02*
D03*
X519564Y224638D02*
D03*
X467303Y-67716D02*
D03*
X448945D02*
D03*
X422282D02*
D03*
X430809D02*
D03*
X394723D02*
D03*
X403250D02*
D03*
X410396D02*
D03*
X35112Y285499D02*
D03*
X118752Y308585D02*
D03*
X139865Y306680D02*
D03*
X90685D02*
D03*
X69984Y280899D02*
D03*
X337954Y270739D02*
D03*
X322079Y275311D02*
D03*
X359036Y284201D02*
D03*
X359646Y309592D02*
D03*
X311663Y303363D02*
D03*
X343161Y300711D02*
D03*
X427108Y277008D02*
D03*
Y299695D02*
D03*
X410334Y302680D02*
D03*
X396510Y306630D02*
D03*
X372117Y273660D02*
D03*
X390913Y271120D02*
D03*
X417202Y282550D02*
D03*
X345164Y281615D02*
D03*
X390532Y286868D02*
D03*
X368180Y297409D02*
D03*
X324974Y316674D02*
D03*
X320537Y312237D02*
D03*
X122711Y296097D02*
D03*
X113164Y283312D02*
D03*
X105557Y296097D02*
D03*
X90411Y289844D02*
D03*
X69347Y296097D02*
D03*
X53855Y294488D02*
D03*
X580150Y14048D02*
D03*
X611650D02*
D03*
X601606Y20295D02*
D03*
X591700Y20549D02*
D03*
X148442Y291157D02*
D03*
X306296Y85988D02*
D03*
X577200Y237853D02*
D03*
X191743Y304554D02*
D03*
X190542Y-67970D02*
D03*
X181965D02*
D03*
X422903Y322665D02*
D03*
X431480D02*
D03*
X440057D02*
D03*
X388595D02*
D03*
X397172D02*
D03*
X405749D02*
D03*
X414326D02*
D03*
X354288D02*
D03*
X362865D02*
D03*
X371441D02*
D03*
X380019D02*
D03*
X307226Y298926D02*
D03*
X330885Y322665D02*
D03*
X337134D02*
D03*
X345711D02*
D03*
X337134Y308027D02*
D03*
X316100Y307800D02*
D03*
X165595Y322665D02*
D03*
X131288D02*
D03*
X139865D02*
D03*
X148442D02*
D03*
X157019D02*
D03*
X-3715Y108458D02*
D03*
X327842Y235560D02*
D03*
X242525Y110688D02*
D03*
X293940Y129944D02*
D03*
X278070Y148128D02*
D03*
X-8903Y-38371D02*
D03*
X-15248Y217968D02*
D03*
X-8100Y211328D02*
D03*
X-37615Y150218D02*
D03*
X276300Y-67970D02*
D03*
X27039Y126629D02*
D03*
X10644Y124726D02*
D03*
X-44700Y262118D02*
D03*
X-49492Y256578D02*
D03*
X-53977Y251478D02*
D03*
X-58769Y245323D02*
D03*
X-8500Y291911D02*
D03*
X-2607Y295349D02*
D03*
X4093Y299126D02*
D03*
X10387Y302108D02*
D03*
X16663Y304396D02*
D03*
X22712Y307840D02*
D03*
X28912Y310202D02*
D03*
X36023Y312982D02*
D03*
X-31493Y211798D02*
D03*
X-31040Y205003D02*
D03*
X-41665Y211251D02*
D03*
X-27764Y174931D02*
D03*
X-5302Y173726D02*
D03*
X80688Y100439D02*
D03*
X470712Y296748D02*
D03*
X470611Y283358D02*
D03*
X471110Y258568D02*
D03*
X590985Y228758D02*
D03*
X569690Y223394D02*
D03*
X556591Y212958D02*
D03*
X545650Y217334D02*
D03*
X539089Y237089D02*
D03*
X516770Y241348D02*
D03*
X503547Y242748D02*
D03*
X493870D02*
D03*
X480010Y241348D02*
D03*
X466110Y246806D02*
D03*
X608750Y45818D02*
D03*
X555633Y64298D02*
D03*
X526720Y68078D02*
D03*
X595930Y40458D02*
D03*
X575215Y28418D02*
D03*
X625500Y129228D02*
D03*
X614650Y57358D02*
D03*
X539170Y39648D02*
D03*
X556963Y138932D02*
D03*
X562440Y51248D02*
D03*
X552520Y32458D02*
D03*
X548792Y17062D02*
D03*
X562440Y14048D02*
D03*
X531680Y28418D02*
D03*
X518420Y20218D02*
D03*
X528340Y12628D02*
D03*
X536130Y48758D02*
D03*
X524040Y47370D02*
D03*
X580150Y45818D02*
D03*
X520100Y37318D02*
D03*
X506790Y12328D02*
D03*
X503950Y67055D02*
D03*
X501815Y47370D02*
D03*
X503950Y37318D02*
D03*
X501815Y24394D02*
D03*
X503950Y114413D02*
D03*
X482900Y62564D02*
D03*
X487660Y31235D02*
D03*
X490900Y15768D02*
D03*
X614025Y114700D02*
D03*
X571031Y138932D02*
D03*
X548000Y126477D02*
D03*
X596031Y203423D02*
D03*
X625500Y184578D02*
D03*
X617940Y201628D02*
D03*
X559696Y234671D02*
D03*
X567140Y202537D02*
D03*
Y183100D02*
D03*
X559163D02*
D03*
X542300Y206818D02*
D03*
X545650Y228758D02*
D03*
X402200Y169200D02*
D03*
X527250Y122500D02*
D03*
X521800Y206400D02*
D03*
X445350Y211300D02*
D03*
X509800Y105345D02*
D03*
X485350Y126608D02*
D03*
X125586Y168289D02*
D03*
Y187375D02*
D03*
X276600Y2537D02*
D03*
X-22900Y50319D02*
D03*
X-4260Y143661D02*
D03*
X-44744Y149810D02*
D03*
X-38735Y141576D02*
D03*
X-4689Y129968D02*
D03*
X35950Y191348D02*
D03*
X-37927Y205306D02*
D03*
X-45610Y197537D02*
D03*
X-5311Y154356D02*
D03*
X14966Y139453D02*
D03*
X27339Y139918D02*
D03*
X128330Y-12303D02*
D03*
X135160Y-12930D02*
D03*
X35209Y135396D02*
D03*
X40980Y104898D02*
D03*
X442168Y47370D02*
D03*
X461985Y44377D02*
D03*
X448730Y47370D02*
D03*
Y56819D02*
D03*
X384673Y-67539D02*
D03*
X377527D02*
D03*
X446007Y-35111D02*
D03*
X429240Y-34295D02*
D03*
X437119Y-34391D02*
D03*
X363435Y-23358D02*
D03*
X371041Y3475D02*
D03*
X366045Y-3155D02*
D03*
X238915Y-24486D02*
D03*
X232383Y-29240D02*
D03*
X16125Y-30017D02*
D03*
X443247Y-52826D02*
D03*
Y-59913D02*
D03*
X436100Y-52948D02*
D03*
Y-59913D02*
D03*
X343680Y-67539D02*
D03*
X369000D02*
D03*
X337513D02*
D03*
X379873Y692D02*
D03*
X208376Y-55925D02*
D03*
X201054Y-55457D02*
D03*
X208376Y-61618D02*
D03*
X201054Y-61574D02*
D03*
X246005Y-27409D02*
D03*
X255200Y-67970D02*
D03*
X216031D02*
D03*
X223889D02*
D03*
X248100D02*
D03*
X329595Y-67539D02*
D03*
X327250Y-52500D02*
D03*
X319801Y-52500D02*
D03*
Y-46582D02*
D03*
X327250D02*
D03*
X307750Y21500D02*
D03*
X315473D02*
D03*
X84413Y-57855D02*
D03*
X79409Y-63345D02*
D03*
X77006Y-56657D02*
D03*
X71629Y-60714D02*
D03*
X64770Y-53040D02*
D03*
X36200Y1393D02*
D03*
X35471Y8546D02*
D03*
X32771Y-7621D02*
D03*
X22687Y-43677D02*
D03*
X16125D02*
D03*
X476192Y14197D02*
D03*
X430700Y183100D02*
D03*
X438025D02*
D03*
X466680Y36188D02*
D03*
X197031Y54832D02*
D03*
X475059Y27555D02*
D03*
X471500Y48858D02*
D03*
X459953Y56819D02*
D03*
X328821Y62453D02*
D03*
X296055Y56057D02*
D03*
X487416Y42436D02*
D03*
X122711Y322665D02*
D03*
X114134D02*
D03*
X105557D02*
D03*
X96980D02*
D03*
X86721Y322428D02*
D03*
X77986Y321884D02*
D03*
X69606Y320643D02*
D03*
X60515Y319442D02*
D03*
X51833Y317597D02*
D03*
X43152Y315292D02*
D03*
X-62814Y238640D02*
D03*
X445350Y183100D02*
D03*
X452675D02*
D03*
D76*
X-50405Y45897D02*
D03*
Y209897D02*
D03*
M02*
