G04*
G04 #@! TF.GenerationSoftware,Altium Limited,Altium Designer,22.2.1 (43)*
G04*
G04 Layer_Color=128*
%FSLAX44Y44*%
%MOMM*%
G71*
G04*
G04 #@! TF.SameCoordinates,32B94617-2C73-494B-87D1-3967A9C4A560*
G04*
G04*
G04 #@! TF.FilePolarity,Positive*
G04*
G01*
G75*
%ADD13C,0.1016*%
%ADD137C,0.0508*%
D13*
X-29336Y-29744D02*
X-19866Y-36967D01*
X-9984Y-43617D01*
X274Y-49671D01*
X10872Y-55106D01*
X21774Y-59904D01*
X32941Y-64049D01*
X44333Y-67526D01*
X55911Y-70321D01*
X67635Y-72427D01*
X79462Y-73835D01*
X91352Y-74540D01*
X97308D01*
X97981Y-74286D01*
X476899Y-74286D01*
X477274Y-74131D01*
X477561Y-73844D01*
X477716Y-73469D01*
Y5464D01*
X698615Y5464D01*
X702575Y9423D01*
X702873Y10144D01*
Y43736D01*
X638590D02*
X702873D01*
X638590D02*
Y209937D01*
X702874D01*
X702873Y243789D02*
X702874Y209937D01*
X702575Y244510D02*
X702873Y243789D01*
X699081Y248004D02*
X702575Y244510D01*
X477716Y248004D02*
X699081D01*
X477716D02*
Y326938D01*
X477560Y327314D02*
X477716Y326938D01*
X477270Y327601D02*
X477560Y327314D01*
X476893Y327755D02*
X477270Y327601D01*
X476689Y327754D02*
X476893Y327755D01*
X92482Y327754D02*
X476689D01*
X92118Y327687D02*
X92482Y327754D01*
X86284Y327536D02*
X92118Y327687D01*
X74652Y326558D02*
X86284Y327536D01*
X63097Y324907D02*
X74652Y326558D01*
X51657Y322589D02*
X63097Y324907D01*
X40371Y319610D02*
X51657Y322589D01*
X29277Y315982D02*
X40371Y319610D01*
X18412Y311716D02*
X29277Y315982D01*
X7812Y306827D02*
X18412Y311716D01*
X-2486Y301332D02*
X7812Y306827D01*
X-12447Y295248D02*
X-2486Y301332D01*
X-22039Y288596D02*
X-12447Y295248D01*
X-31229Y281399D02*
X-22039Y288596D01*
X-39986Y273681D02*
X-31229Y281399D01*
X-48280Y265468D02*
X-39986Y273681D01*
X-56084Y256788D02*
X-48280Y265468D01*
X-63371Y247670D02*
X-56084Y256788D01*
X-68390Y240582D02*
X-63371Y247670D01*
X-68390Y12590D02*
Y240582D01*
Y12590D02*
X-62468Y4348D01*
X-54958Y-4896D01*
X-46913Y-13680D01*
X-38363Y-21972D01*
X-29336Y-29744D01*
D137*
X453733Y-16975D02*
X461234D01*
X457483Y-20725D02*
Y-13224D01*
X453733Y-51976D02*
X461234D01*
X457483Y-55726D02*
Y-48225D01*
X453733Y270184D02*
X461234D01*
X457483Y266434D02*
Y273934D01*
X453733Y305185D02*
X461234D01*
X457483Y301435D02*
Y308936D01*
X658700Y30458D02*
X683700D01*
X671200Y17958D02*
Y42958D01*
X658700Y224457D02*
X683700D01*
X671200Y211957D02*
Y236957D01*
X-13500Y255258D02*
X13500D01*
X0Y241758D02*
Y268758D01*
X-13500Y0D02*
X13500D01*
X0Y-13500D02*
Y13500D01*
X92988Y-7055D02*
X109988D01*
X101488Y-15555D02*
Y1445D01*
X95488Y-48855D02*
X107487D01*
X101488Y-54855D02*
Y-42856D01*
X112589Y-12056D02*
X119089D01*
X115839Y-15306D02*
Y-8806D01*
X170389Y-12056D02*
X176889D01*
X173639Y-15306D02*
Y-8806D01*
X179490Y-7055D02*
X196490D01*
X187990Y-15555D02*
Y1445D01*
X181991Y-48855D02*
X193990D01*
X187990Y-54855D02*
Y-42856D01*
X79418Y73966D02*
X81958D01*
X80688Y72696D02*
Y75236D01*
X38605Y75738D02*
X41146D01*
X39876Y74468D02*
Y77008D01*
X46012Y274152D02*
X48552D01*
X47282Y272882D02*
Y275422D01*
X76066Y270904D02*
X78606D01*
X77336Y269634D02*
Y272174D01*
X183395Y117831D02*
X185935D01*
X184665Y116561D02*
Y119101D01*
X37931Y56039D02*
X40471D01*
X39201Y54769D02*
Y57309D01*
X108011Y52125D02*
X110551D01*
X109281Y50855D02*
Y53395D01*
X86208Y50873D02*
X88748D01*
X87478Y49604D02*
Y52144D01*
X62117Y49038D02*
X64657D01*
X63387Y47768D02*
Y50308D01*
X43236Y240469D02*
X45776D01*
X44506Y239199D02*
Y241739D01*
X14546Y218762D02*
X17086D01*
X15816Y217492D02*
Y220032D01*
X28285Y232502D02*
X30825D01*
X29555Y231232D02*
Y233772D01*
X-7583Y196633D02*
X-5043D01*
X-6313Y195364D02*
Y197903D01*
X-47084Y185731D02*
X-44544D01*
X-45814Y184461D02*
Y187001D01*
X1505Y196382D02*
X4045D01*
X2775Y195112D02*
Y197652D01*
X-32762Y197487D02*
X-30222D01*
X-31493Y196217D02*
Y198757D01*
X-39492Y197487D02*
X-36952D01*
X-38222Y196217D02*
Y198757D01*
X294364Y257696D02*
X296904D01*
X295634Y256426D02*
Y258966D01*
X280296Y270904D02*
X282836D01*
X281566Y269634D02*
Y272174D01*
X268231Y270904D02*
X270771D01*
X269501Y269634D02*
Y272174D01*
X348103Y239866D02*
X350643D01*
X349373Y238596D02*
Y241136D01*
X51319Y220140D02*
X53860D01*
X52590Y218870D02*
Y221410D01*
X66330Y235150D02*
X68870D01*
X67600Y233880D02*
Y236420D01*
X305442Y257696D02*
X307982D01*
X306712Y256426D02*
Y258966D01*
X279651Y257696D02*
X282191D01*
X280921Y256426D02*
Y258966D01*
X196809Y257696D02*
X199349D01*
X198079Y256426D02*
Y258966D01*
X321376Y247915D02*
X323916D01*
X322646Y246645D02*
Y249185D01*
X37101Y205921D02*
X39641D01*
X38371Y204651D02*
Y207191D01*
X240693Y271836D02*
X243233D01*
X241963Y270566D02*
Y273106D01*
X213494Y272390D02*
X216034D01*
X214764Y271120D02*
Y273660D01*
X252737Y272390D02*
X255277D01*
X254007Y271120D02*
Y273660D01*
X228988Y273025D02*
X231528D01*
X230258Y271755D02*
Y274295D01*
X295536Y278359D02*
X298076D01*
X296806Y277089D02*
Y279629D01*
X179106Y275438D02*
X181646D01*
X180376Y274168D02*
Y276708D01*
X168028Y275438D02*
X170568D01*
X169298Y274168D02*
Y276708D01*
X157360Y274676D02*
X159900D01*
X158630Y273406D02*
Y275946D01*
X194083Y274676D02*
X196623D01*
X195352Y273406D02*
Y275946D01*
X121441Y274676D02*
X123981D01*
X122711Y273406D02*
Y275946D01*
X134373Y275438D02*
X136913D01*
X135643Y274168D02*
Y276708D01*
X95710Y274231D02*
X98250D01*
X96980Y272961D02*
Y275501D01*
X259468Y256515D02*
X262008D01*
X260738Y255245D02*
Y257785D01*
X294364Y251218D02*
X296904D01*
X295634Y249948D02*
Y252488D01*
X239450Y255466D02*
X241990D01*
X240720Y254196D02*
Y256736D01*
X277186Y251218D02*
X279726D01*
X278456Y249948D02*
Y252488D01*
X312545Y251218D02*
X315085D01*
X313815Y249948D02*
Y252488D01*
X200032Y252070D02*
X202572D01*
X201302Y250800D02*
Y253340D01*
X388530Y97800D02*
X391070D01*
X389800Y96530D02*
Y99070D01*
X405430Y77500D02*
X407970D01*
X406700Y76230D02*
Y78770D01*
X396230Y90800D02*
X398770D01*
X397500Y89530D02*
Y92070D01*
X357230Y73400D02*
X359770D01*
X358500Y72130D02*
Y74670D01*
X337930Y74300D02*
X340470D01*
X339200Y73030D02*
Y75570D01*
X275030Y-49907D02*
X277570D01*
X276300Y-51178D02*
Y-48637D01*
X282889Y-67970D02*
X285429D01*
X284159Y-69240D02*
Y-66700D01*
X184828Y28348D02*
X187368D01*
X186098Y27078D02*
Y29618D01*
X189491Y33312D02*
X192031D01*
X190761Y32042D02*
Y34582D01*
X198714Y323114D02*
X201254D01*
X199984Y321844D02*
Y324384D01*
X207053Y323114D02*
X209593D01*
X208323Y321844D02*
Y324384D01*
X215393Y323114D02*
X217933D01*
X216663Y321844D02*
Y324384D01*
X223732Y323114D02*
X226272D01*
X225002Y321844D02*
Y324384D01*
X232072Y323114D02*
X234612D01*
X233342Y321844D02*
Y324384D01*
X292304Y285674D02*
X294844D01*
X293574Y284404D02*
Y286944D01*
X278650Y283786D02*
X281190D01*
X279920Y282516D02*
Y285056D01*
X296741Y290111D02*
X299281D01*
X298011Y288841D02*
Y291381D01*
X301178Y294548D02*
X303718D01*
X302448Y293278D02*
Y295818D01*
X285656Y284737D02*
X288196D01*
X286926Y283467D02*
Y286007D01*
X-30598Y20080D02*
X-28059D01*
X-29328Y18810D02*
Y21350D01*
X-8672Y30352D02*
X-6132D01*
X-7402Y29082D02*
Y31622D01*
X-60191Y8985D02*
X-57651D01*
X-58921Y7715D02*
Y10255D01*
X-63632Y14445D02*
X-61092D01*
X-62362Y13175D02*
Y15715D01*
X-64275Y21374D02*
X-61735D01*
X-63005Y20103D02*
Y22643D01*
X-64183Y27751D02*
X-61643D01*
X-62913Y26481D02*
Y29021D01*
X138044Y-23728D02*
X140584D01*
X139314Y-24998D02*
Y-22458D01*
X119469Y8703D02*
X122009D01*
X120739Y7433D02*
Y9973D01*
X167681Y9042D02*
X170221D01*
X168951Y7772D02*
Y10312D01*
X-42113Y58656D02*
X-39573D01*
X-40843Y57386D02*
Y59926D01*
X28328Y17997D02*
X30868D01*
X29598Y16727D02*
Y19267D01*
X-46229Y99009D02*
X-43689D01*
X-44959Y97739D02*
Y100279D01*
X5369Y115473D02*
X7910D01*
X6640Y114203D02*
Y116743D01*
X-35693Y68452D02*
X-33153D01*
X-34423Y67182D02*
Y69722D01*
X34458Y176612D02*
X36998D01*
X35728Y175342D02*
Y177882D01*
X-45318Y42376D02*
X-42778D01*
X-44048Y41106D02*
Y43646D01*
X108138Y17799D02*
X110678D01*
X109408Y16529D02*
Y19069D01*
X158230Y17799D02*
X160770D01*
X159500Y16529D02*
Y19069D01*
X136320Y10960D02*
X138860D01*
X137590Y9690D02*
Y12230D01*
X154534Y-12930D02*
X157074D01*
X155804Y-14200D02*
Y-11660D01*
X147910Y-12930D02*
X150450D01*
X149180Y-14200D02*
Y-11660D01*
X140895Y-12543D02*
X143435D01*
X142165Y-13813D02*
Y-11273D01*
X155914Y-20893D02*
X158454D01*
X157184Y-22163D02*
Y-19623D01*
X572035Y202837D02*
X574575D01*
X573305Y201567D02*
Y204107D01*
X525980Y79167D02*
X528520D01*
X527250Y77897D02*
Y80437D01*
X573945Y79167D02*
X576485D01*
X575215Y77897D02*
Y80437D01*
X516009Y79167D02*
X518549D01*
X517279Y77897D02*
Y80437D01*
X522770Y85771D02*
X525310D01*
X524040Y84501D02*
Y87041D01*
X515236Y85771D02*
X517776D01*
X516506Y84501D02*
Y87041D01*
X441430Y79167D02*
X443970D01*
X442700Y77897D02*
Y80437D01*
X450330Y79167D02*
X452870D01*
X451600Y77897D02*
Y80437D01*
X458683Y79167D02*
X461222D01*
X459953Y77897D02*
Y80437D01*
X470230Y79167D02*
X472770D01*
X471500Y77897D02*
Y80437D01*
X481630Y79167D02*
X484170D01*
X482900Y77897D02*
Y80437D01*
X493028Y79167D02*
X495568D01*
X494298Y77897D02*
Y80437D01*
X503943Y79167D02*
X506483D01*
X505213Y77897D02*
Y80437D01*
X515874Y96027D02*
X518414D01*
X517144Y94757D02*
Y97297D01*
X606430Y38000D02*
X608970D01*
X607700Y36730D02*
Y39270D01*
X578880Y53800D02*
X581420D01*
X580150Y52530D02*
Y55070D01*
X564430Y130100D02*
X566970D01*
X565700Y128830D02*
Y131370D01*
X577330Y138932D02*
X579870D01*
X578600Y137662D02*
Y140202D01*
X581715Y110700D02*
X584255D01*
X582985Y109430D02*
Y111970D01*
X560330Y196300D02*
X562870D01*
X561600Y195030D02*
Y197570D01*
X578967Y202537D02*
X581507D01*
X580237Y201267D02*
Y203807D01*
X599619Y211863D02*
X602159D01*
X600889Y210592D02*
Y213132D01*
X54816Y-64799D02*
X57356D01*
X56086Y-66069D02*
Y-63529D01*
X137683Y-67639D02*
X140223D01*
X138953Y-68909D02*
Y-66369D01*
X129106Y-67639D02*
X131646D01*
X130376Y-68909D02*
Y-66369D01*
X47129Y-62855D02*
X49668D01*
X48398Y-64125D02*
Y-61585D01*
X172118Y-67970D02*
X174658D01*
X173388Y-69240D02*
Y-66700D01*
X163413Y-67639D02*
X165953D01*
X164683Y-68909D02*
Y-66369D01*
X39264Y-60734D02*
X41804D01*
X40534Y-62004D02*
Y-59464D01*
X29107Y-57140D02*
X31647D01*
X30377Y-58410D02*
Y-55870D01*
X21731Y-54463D02*
X24271D01*
X23001Y-55733D02*
Y-53193D01*
X63501Y-59571D02*
X66041D01*
X64771Y-60841D02*
Y-58301D01*
X120529Y-67639D02*
X123069D01*
X121799Y-68909D02*
Y-66369D01*
X154836Y-67639D02*
X157376D01*
X156106Y-68909D02*
Y-66369D01*
X146259Y-67639D02*
X148799D01*
X147529Y-68909D02*
Y-66369D01*
X103375Y-67639D02*
X105915D01*
X104645Y-68909D02*
Y-66369D01*
X111952Y-67639D02*
X114492D01*
X113222Y-68909D02*
Y-66369D01*
X597530Y48100D02*
X600070D01*
X598800Y46830D02*
Y49370D01*
X338970Y197634D02*
X341510D01*
X340240Y196364D02*
Y198904D01*
X441430Y140100D02*
X443970D01*
X442700Y138830D02*
Y141370D01*
X401750Y155195D02*
X404290D01*
X403020Y153925D02*
Y156465D01*
X474743Y96027D02*
X477283D01*
X476013Y94757D02*
Y97297D01*
X490893Y96027D02*
X493433D01*
X492163Y94757D02*
Y97297D01*
X544660Y96027D02*
X547200D01*
X545930Y94757D02*
Y97297D01*
X434730Y140100D02*
X437270D01*
X436000Y138830D02*
Y141370D01*
X455430Y139700D02*
X457970D01*
X456700Y138430D02*
Y140970D01*
X441430Y118800D02*
X443970D01*
X442700Y117530D02*
Y120070D01*
X448330Y140100D02*
X450870D01*
X449600Y138830D02*
Y141370D01*
X444130Y131600D02*
X446670D01*
X445400Y130330D02*
Y132870D01*
X466850Y126796D02*
X469390D01*
X468120Y125526D02*
Y128066D01*
X468730Y118800D02*
X471270D01*
X470000Y117530D02*
Y120070D01*
X476020Y126608D02*
X478560D01*
X477290Y125338D02*
Y127878D01*
X432230Y214100D02*
X434770D01*
X433500Y212830D02*
Y215370D01*
X488053Y114413D02*
X490593D01*
X489323Y113143D02*
Y115683D01*
X503943Y96445D02*
X506483D01*
X505213Y95175D02*
Y97715D01*
X493028Y102346D02*
X495568D01*
X494298Y101076D02*
Y103616D01*
X476423Y106523D02*
X478963D01*
X477693Y105253D02*
Y107793D01*
X416330Y182800D02*
X418870D01*
X417600Y181530D02*
Y184070D01*
X408017Y182800D02*
X410557D01*
X409287Y181530D02*
Y184070D01*
X403230Y176900D02*
X405770D01*
X404500Y175630D02*
Y178170D01*
X422630Y183100D02*
X425170D01*
X423900Y181830D02*
Y184370D01*
X229541Y211811D02*
X232081D01*
X230811Y210541D02*
Y213081D01*
X125229Y211811D02*
X127769D01*
X126499Y210541D02*
Y213081D01*
X146692Y211811D02*
X149232D01*
X147962Y210541D02*
Y213081D01*
X301339Y212374D02*
X303879D01*
X302609Y211105D02*
Y213645D01*
X215497Y212289D02*
X218037D01*
X216767Y211019D02*
Y213559D01*
X134103Y211945D02*
X136643D01*
X135373Y210675D02*
Y213215D01*
X252901Y212289D02*
X255441D01*
X254171Y211019D02*
Y213559D01*
X158575Y212316D02*
X161115D01*
X159845Y211046D02*
Y213586D01*
X189364Y213970D02*
X191904D01*
X190634Y212700D02*
Y215240D01*
X201429Y214478D02*
X203969D01*
X202699Y213208D02*
Y215748D01*
X60586Y225273D02*
X63126D01*
X61856Y224003D02*
Y226543D01*
X608527Y201628D02*
X611067D01*
X609797Y200358D02*
Y202898D01*
X601430Y201628D02*
X603970D01*
X602700Y200358D02*
Y202898D01*
X499630Y124800D02*
X502170D01*
X500900Y123530D02*
Y126070D01*
X474630Y206400D02*
X477170D01*
X475900Y205130D02*
Y207670D01*
X458730Y183100D02*
X461270D01*
X460000Y181830D02*
Y184370D01*
X404867Y148382D02*
X407407D01*
X406137Y147112D02*
Y149652D01*
X400930Y162662D02*
X403470D01*
X402200Y161392D02*
Y163932D01*
X614300Y70008D02*
X616840D01*
X615570Y68738D02*
Y71278D01*
X603030Y53800D02*
X605570D01*
X604300Y52530D02*
Y55070D01*
X461230Y211300D02*
X463770D01*
X462500Y210030D02*
Y212570D01*
X-30348Y91351D02*
X-27808D01*
X-29079Y90081D02*
Y92621D01*
X-7710Y87478D02*
X-5170D01*
X-6440Y86208D02*
Y88748D01*
X-1990Y96548D02*
X550D01*
X-720Y95278D02*
Y97818D01*
X-46191Y105796D02*
X-43651D01*
X-44921Y104526D02*
Y107066D01*
X-48253Y113259D02*
X-45713D01*
X-46983Y111989D02*
Y114529D01*
X-34653Y108626D02*
X-32113D01*
X-33383Y107356D02*
Y109896D01*
X-46090Y91351D02*
X-43550D01*
X-44820Y90081D02*
Y92621D01*
X624230Y198868D02*
X626770D01*
X625500Y197598D02*
Y200138D01*
X229207Y54038D02*
X231747D01*
X230476Y52768D02*
Y55308D01*
X227083Y111100D02*
X229623D01*
X228353Y109830D02*
Y112370D01*
X528150Y96445D02*
X530690D01*
X529420Y95175D02*
Y97715D01*
X493028Y53138D02*
X495568D01*
X494298Y51868D02*
Y54408D01*
X513230Y55700D02*
X515770D01*
X514500Y54430D02*
Y56970D01*
X530410Y57358D02*
X532950D01*
X531680Y56088D02*
Y58628D01*
X542399Y57358D02*
X544939D01*
X543669Y56088D02*
Y58628D01*
X571930Y51248D02*
X574470D01*
X573200Y49978D02*
Y52518D01*
X562851Y37318D02*
X565391D01*
X564121Y36048D02*
Y38588D01*
X594660Y28418D02*
X597200D01*
X595930Y27148D02*
Y29688D01*
X605480Y28418D02*
X608020D01*
X606750Y27148D02*
Y29688D01*
X506930Y228300D02*
X509470D01*
X508200Y227030D02*
Y229570D01*
X558230Y100485D02*
X560770D01*
X559500Y99215D02*
Y101755D01*
X547522Y48758D02*
X550062D01*
X548792Y47488D02*
Y50028D01*
X604830Y115000D02*
X607370D01*
X606100Y113730D02*
Y116270D01*
X620470Y120200D02*
X623010D01*
X621740Y118930D02*
Y121470D01*
X624230Y191221D02*
X626770D01*
X625500Y189951D02*
Y192491D01*
X589530Y110700D02*
X592070D01*
X590800Y109430D02*
Y111970D01*
X624230Y146513D02*
X626770D01*
X625500Y145243D02*
Y147783D01*
X624230Y156927D02*
X626770D01*
X625500Y155657D02*
Y158197D01*
X624230Y166503D02*
X626770D01*
X625500Y165233D02*
Y167773D01*
X624230Y175493D02*
X626770D01*
X625500Y174223D02*
Y176763D01*
X587672Y203527D02*
X590212D01*
X588942Y202257D02*
Y204797D01*
X562643Y138932D02*
X565183D01*
X563913Y137662D02*
Y140202D01*
X597130Y111100D02*
X599670D01*
X598400Y109830D02*
Y112370D01*
X624230Y137100D02*
X626770D01*
X625500Y135830D02*
Y138370D01*
X-41522Y122530D02*
X-38982D01*
X-40252Y121260D02*
Y123800D01*
X-35445Y117450D02*
X-32905D01*
X-34175Y116180D02*
Y118720D01*
X-35385Y58165D02*
X-32845D01*
X-34115Y56895D02*
Y59435D01*
X-48847Y174910D02*
X-46307D01*
X-47577Y173640D02*
Y176180D01*
X-33211Y163378D02*
X-30671D01*
X-31941Y162108D02*
Y164648D01*
X427683Y-60034D02*
X430223D01*
X428953Y-61304D02*
Y-58765D01*
X427683Y-53069D02*
X430223D01*
X428953Y-54339D02*
Y-51799D01*
X346804Y-23358D02*
X349344D01*
X348074Y-24627D02*
Y-22088D01*
X354806Y-23358D02*
X357346D01*
X356076Y-24627D02*
Y-22088D01*
X313757Y11934D02*
X316297D01*
X315027Y10664D02*
Y13204D01*
X-30330Y158527D02*
X-27790D01*
X-29060Y157257D02*
Y159797D01*
X-30373Y168091D02*
X-27833D01*
X-29103Y166821D02*
Y169361D01*
X4979Y-46806D02*
X7519D01*
X6249Y-48076D02*
Y-45536D01*
X-3666Y-41884D02*
X-1126D01*
X-2396Y-43154D02*
Y-40614D01*
X-15494Y287653D02*
X-12954D01*
X-14224Y286383D02*
Y288923D01*
X-21082Y283652D02*
X-18542D01*
X-19812Y282382D02*
Y284922D01*
X-25842Y279306D02*
X-23302D01*
X-24572Y278036D02*
Y280576D01*
X-31085Y274891D02*
X-28545D01*
X-29815Y273621D02*
Y276161D01*
X-36397Y270752D02*
X-33857D01*
X-35127Y269482D02*
Y272022D01*
X-41088Y266268D02*
X-38548D01*
X-39818Y264998D02*
Y267538D01*
X-38758Y135065D02*
X-36219D01*
X-37489Y133795D02*
Y136335D01*
X-31162Y143445D02*
X-28622D01*
X-29892Y142175D02*
Y144715D01*
X14855Y-36904D02*
X17395D01*
X16125Y-38174D02*
Y-35634D01*
X8293Y-36904D02*
X10833D01*
X9563Y-38174D02*
Y-35634D01*
X-15560Y-34338D02*
X-13019D01*
X-14289Y-35608D02*
Y-33068D01*
X-21277Y-30184D02*
X-18737D01*
X-20007Y-31454D02*
Y-28914D01*
X-26607Y-25830D02*
X-24067D01*
X-25337Y-27100D02*
Y-24560D01*
X-31927Y-21115D02*
X-29386D01*
X-30656Y-22385D02*
Y-19845D01*
X-37111Y-16435D02*
X-34571D01*
X-35841Y-17705D02*
Y-15165D01*
X-42067Y-11480D02*
X-39527D01*
X-40797Y-12750D02*
Y-10210D01*
X-47160Y-6524D02*
X-44620D01*
X-45890Y-7794D02*
Y-5254D01*
X-48253Y73874D02*
X-45713D01*
X-46983Y72604D02*
Y75144D01*
X-41158Y81106D02*
X-38619D01*
X-39889Y79836D02*
Y82376D01*
X-40669Y73341D02*
X-38129D01*
X-39399Y72071D02*
Y74611D01*
X-45611Y130112D02*
X-43071D01*
X-44341Y128842D02*
Y131382D01*
X-47439Y139954D02*
X-44899D01*
X-46169Y138684D02*
Y141224D01*
X-30897Y135777D02*
X-28357D01*
X-29627Y134507D02*
Y137047D01*
X168039Y39559D02*
X170579D01*
X169309Y38289D02*
Y40829D01*
X201256Y-6382D02*
X203796D01*
X202526Y-7653D02*
Y-5113D01*
X189491Y11299D02*
X192031D01*
X190761Y10029D02*
Y12569D01*
X196527Y-26177D02*
X199067D01*
X197797Y-27447D02*
Y-24907D01*
X212867Y-47797D02*
X215407D01*
X214137Y-49067D02*
Y-46527D01*
X199783Y-49296D02*
X202323D01*
X201054Y-50566D02*
Y-48026D01*
X307412Y11934D02*
X309952D01*
X308682Y10664D02*
Y13204D01*
X313757Y-452D02*
X316297D01*
X315027Y-1722D02*
Y818D01*
X307440Y5458D02*
X309980D01*
X308710Y4188D02*
Y6728D01*
X313757Y5458D02*
X316297D01*
X315027Y4188D02*
Y6728D01*
X307412Y-452D02*
X309952D01*
X308682Y-1722D02*
Y818D01*
X266585Y89380D02*
X269125D01*
X267855Y88110D02*
Y90650D01*
X266585Y116080D02*
X269125D01*
X267855Y114810D02*
Y117350D01*
X267568Y124562D02*
X270108D01*
X268838Y123292D02*
Y125832D01*
X284121Y27280D02*
X286661D01*
X285391Y26010D02*
Y28550D01*
X219762Y27915D02*
X222302D01*
X221032Y26645D02*
Y29185D01*
X251340Y25121D02*
X253880D01*
X252610Y23851D02*
Y26391D01*
X301759Y31979D02*
X304299D01*
X303029Y30709D02*
Y33249D01*
X614300Y79918D02*
X616840D01*
X615570Y78648D02*
Y81188D01*
X179106Y322665D02*
X181646D01*
X180376Y321395D02*
Y323935D01*
X171271Y322665D02*
X173811D01*
X172542Y321395D02*
Y323935D01*
X369196Y115037D02*
X371736D01*
X370466Y113767D02*
Y116307D01*
X368808Y123911D02*
X371348D01*
X370078Y122641D02*
Y125181D01*
X368437Y148382D02*
X370977D01*
X369707Y147112D02*
Y149652D01*
X369196Y136500D02*
X371736D01*
X370466Y135230D02*
Y137770D01*
X368688Y162662D02*
X371228D01*
X369958Y161392D02*
Y163932D01*
X368300Y171536D02*
X370840D01*
X369570Y170266D02*
Y172806D01*
X367929Y196007D02*
X370469D01*
X369199Y194737D02*
Y197277D01*
X368688Y184125D02*
X371228D01*
X369958Y182855D02*
Y185395D01*
X198319Y191194D02*
X200859D01*
X199589Y189925D02*
Y192465D01*
X215497Y191194D02*
X218037D01*
X216767Y189925D02*
Y192465D01*
X115323Y238227D02*
X117863D01*
X116593Y236957D02*
Y239497D01*
X229541Y239356D02*
X232081D01*
X230811Y238086D02*
Y240626D01*
X213494Y236761D02*
X216034D01*
X214764Y235491D02*
Y238031D01*
X190239Y236761D02*
X192779D01*
X191509Y235491D02*
Y238031D01*
X172070Y240469D02*
X174610D01*
X173340Y239199D02*
Y241739D01*
X149453Y236761D02*
X151993D01*
X150723Y235491D02*
Y238031D01*
X127206Y238986D02*
X129746D01*
X128476Y237716D02*
Y240256D01*
X102734Y238615D02*
X105274D01*
X104004Y237345D02*
Y239885D01*
X93860Y238227D02*
X96400D01*
X95130Y236957D02*
Y239497D01*
X104782Y147676D02*
X107322D01*
X106052Y146406D02*
Y148946D01*
X107068Y117831D02*
X109608D01*
X108338Y116561D02*
Y119101D01*
X146946Y100432D02*
X149486D01*
X148216Y99162D02*
Y101702D01*
X141612Y120752D02*
X144152D01*
X142882Y119482D02*
Y122022D01*
X97289Y178156D02*
X99829D01*
X98559Y176886D02*
Y179426D01*
X154566Y164821D02*
X157106D01*
X155836Y163551D02*
Y166091D01*
X163583Y153391D02*
X166123D01*
X164853Y152121D02*
Y154661D01*
X262770Y47727D02*
X265310D01*
X264040Y46457D02*
Y48997D01*
X531875Y228448D02*
X534415D01*
X533145Y227178D02*
Y229718D01*
X531875Y212958D02*
X534415D01*
X533145Y211688D02*
Y214228D01*
X407630Y142800D02*
X410170D01*
X408900Y141530D02*
Y144070D01*
X502277Y211049D02*
X504817D01*
X503547Y209779D02*
Y212319D01*
X471345Y231513D02*
X473885D01*
X472615Y230243D02*
Y232783D01*
X451379Y236050D02*
X453919D01*
X452649Y234781D02*
Y237320D01*
X431553Y224765D02*
X434093D01*
X432823Y223495D02*
Y226035D01*
X479051Y217399D02*
X481591D01*
X480321Y216129D02*
Y218669D01*
X455429Y224765D02*
X457969D01*
X456699Y223495D02*
Y226035D01*
X375546Y221590D02*
X378086D01*
X376816Y220320D02*
Y222860D01*
X402851Y290551D02*
X405391D01*
X404121Y289281D02*
Y291821D01*
X410085Y254202D02*
X412625D01*
X411355Y252932D02*
Y255472D01*
X415932Y267905D02*
X418472D01*
X417202Y266635D02*
Y269175D01*
X381007Y254229D02*
X383547D01*
X382277Y252959D02*
Y255499D01*
X390151Y238354D02*
X392691D01*
X391421Y237084D02*
Y239624D01*
X391040Y250546D02*
X393580D01*
X392310Y249276D02*
Y251816D01*
X368338Y234235D02*
X370877D01*
X369608Y232965D02*
Y235505D01*
X362438Y246487D02*
X364978D01*
X363708Y245217D02*
Y247757D01*
X352051Y255626D02*
X354591D01*
X353321Y254356D02*
Y256896D01*
X134373Y289662D02*
X136913D01*
X135643Y288392D02*
Y290932D01*
X143517Y298679D02*
X146057D01*
X144787Y297409D02*
Y299949D01*
X171271Y306777D02*
X173811D01*
X172542Y305507D02*
Y308047D01*
X151518Y311594D02*
X154058D01*
X152788Y310324D02*
Y312864D01*
X298965Y241910D02*
X301505D01*
X300235Y240640D02*
Y243180D01*
X274678Y244069D02*
X277218D01*
X275948Y242799D02*
Y245339D01*
X255096Y243551D02*
X257635D01*
X256366Y242281D02*
Y244821D01*
X267568Y190006D02*
X270108D01*
X268838Y188736D02*
Y191276D01*
X415696Y63957D02*
X418236D01*
X416966Y62687D02*
Y65227D01*
X397181Y9309D02*
X399721D01*
X398451Y8039D02*
Y10579D01*
X-51473Y-1844D02*
X-48933D01*
X-50203Y-3114D02*
Y-574D01*
X-56016Y3616D02*
X-53476D01*
X-54746Y2346D02*
Y4886D01*
X38765Y127438D02*
X41305D01*
X40035Y126168D02*
Y128708D01*
X-30169Y79602D02*
X-27629D01*
X-28899Y78332D02*
Y80872D01*
X77096Y149278D02*
X79636D01*
X78366Y148008D02*
Y150548D01*
X77096Y141356D02*
X79636D01*
X78366Y140086D02*
Y142626D01*
X520849Y106523D02*
X523389D01*
X522119Y105253D02*
Y107793D01*
X544660Y114700D02*
X547200D01*
X545930Y113430D02*
Y115970D01*
X515874Y115397D02*
X518414D01*
X517144Y114127D02*
Y116667D01*
X534159Y105345D02*
X536699D01*
X535429Y104075D02*
Y106615D01*
X585601Y217334D02*
X588141D01*
X586871Y216064D02*
Y218604D01*
X562530Y122800D02*
X565070D01*
X563800Y121530D02*
Y124070D01*
X569730Y109800D02*
X572270D01*
X571000Y108530D02*
Y111070D01*
X553229Y107675D02*
X555769D01*
X554499Y106405D02*
Y108945D01*
X608527Y233919D02*
X611067D01*
X609797Y232649D02*
Y235189D01*
X605901Y223394D02*
X608442D01*
X607172Y222124D02*
Y224664D01*
X608527Y212009D02*
X611067D01*
X609797Y210739D02*
Y213279D01*
X494799Y228448D02*
X497339D01*
X496069Y227178D02*
Y229718D01*
X518294Y224638D02*
X520834D01*
X519564Y223368D02*
Y225908D01*
X466033Y-67716D02*
X468573D01*
X467303Y-68986D02*
Y-66446D01*
X447674Y-67716D02*
X450215D01*
X448945Y-68986D02*
Y-66446D01*
X421012Y-67716D02*
X423552D01*
X422282Y-68986D02*
Y-66446D01*
X429539Y-67716D02*
X432079D01*
X430809Y-68986D02*
Y-66446D01*
X393453Y-67716D02*
X395993D01*
X394723Y-68986D02*
Y-66446D01*
X401980Y-67716D02*
X404520D01*
X403250Y-68986D02*
Y-66446D01*
X409126Y-67716D02*
X411666D01*
X410396Y-68986D02*
Y-66446D01*
X33842Y285499D02*
X36382D01*
X35112Y284229D02*
Y286769D01*
X117482Y308585D02*
X120022D01*
X118752Y307315D02*
Y309855D01*
X138595Y306680D02*
X141135D01*
X139865Y305410D02*
Y307950D01*
X89415Y306680D02*
X91955D01*
X90685Y305410D02*
Y307950D01*
X68714Y280899D02*
X71254D01*
X69984Y279629D02*
Y282169D01*
X336684Y270739D02*
X339224D01*
X337954Y269469D02*
Y272009D01*
X320809Y275311D02*
X323349D01*
X322079Y274041D02*
Y276581D01*
X357766Y284201D02*
X360306D01*
X359036Y282931D02*
Y285471D01*
X358377Y309592D02*
X360916D01*
X359646Y308322D02*
Y310862D01*
X310393Y303363D02*
X312933D01*
X311663Y302093D02*
Y304633D01*
X341891Y300711D02*
X344431D01*
X343161Y299441D02*
Y301981D01*
X425838Y277008D02*
X428378D01*
X427108Y275738D02*
Y278278D01*
X425838Y299695D02*
X428378D01*
X427108Y298425D02*
Y300965D01*
X409064Y302680D02*
X411604D01*
X410334Y301410D02*
Y303950D01*
X395240Y306630D02*
X397780D01*
X396510Y305360D02*
Y307900D01*
X370847Y273660D02*
X373387D01*
X372117Y272390D02*
Y274930D01*
X389643Y271120D02*
X392183D01*
X390913Y269850D02*
Y272390D01*
X415932Y282550D02*
X418472D01*
X417202Y281280D02*
Y283820D01*
X343894Y281615D02*
X346434D01*
X345164Y280345D02*
Y282885D01*
X389262Y286868D02*
X391802D01*
X390532Y285598D02*
Y288138D01*
X366910Y297409D02*
X369450D01*
X368180Y296139D02*
Y298679D01*
X323704Y316674D02*
X326244D01*
X324974Y315404D02*
Y317944D01*
X319267Y312237D02*
X321807D01*
X320537Y310967D02*
Y313507D01*
X121441Y296097D02*
X123981D01*
X122711Y294827D02*
Y297367D01*
X111894Y283312D02*
X114434D01*
X113164Y282042D02*
Y284582D01*
X104287Y296097D02*
X106827D01*
X105557Y294827D02*
Y297367D01*
X89141Y289844D02*
X91681D01*
X90411Y288574D02*
Y291114D01*
X68077Y296097D02*
X70617D01*
X69347Y294827D02*
Y297367D01*
X52585Y294488D02*
X55125D01*
X53855Y293218D02*
Y295758D01*
X578880Y14048D02*
X581420D01*
X580150Y12778D02*
Y15318D01*
X610380Y14048D02*
X612920D01*
X611650Y12778D02*
Y15318D01*
X600336Y20295D02*
X602876D01*
X601606Y19025D02*
Y21565D01*
X590430Y20549D02*
X592970D01*
X591700Y19279D02*
Y21819D01*
X147172Y291157D02*
X149712D01*
X148442Y289887D02*
Y292427D01*
X305026Y85988D02*
X307566D01*
X306296Y84718D02*
Y87258D01*
X575930Y237853D02*
X578470D01*
X577200Y236583D02*
Y239123D01*
X190473Y304554D02*
X193013D01*
X191743Y303284D02*
Y305824D01*
X189272Y-67970D02*
X191812D01*
X190542Y-69240D02*
Y-66700D01*
X180695Y-67970D02*
X183235D01*
X181965Y-69240D02*
Y-66700D01*
X421633Y322665D02*
X424173D01*
X422903Y321395D02*
Y323935D01*
X430210Y322665D02*
X432750D01*
X431480Y321395D02*
Y323935D01*
X438787Y322665D02*
X441327D01*
X440057Y321395D02*
Y323935D01*
X387325Y322665D02*
X389865D01*
X388595Y321395D02*
Y323935D01*
X395902Y322665D02*
X398442D01*
X397172Y321395D02*
Y323935D01*
X404479Y322665D02*
X407019D01*
X405749Y321395D02*
Y323935D01*
X413056Y322665D02*
X415596D01*
X414326Y321395D02*
Y323935D01*
X353018Y322665D02*
X355558D01*
X354288Y321395D02*
Y323935D01*
X361595Y322665D02*
X364135D01*
X362865Y321395D02*
Y323935D01*
X370172Y322665D02*
X372711D01*
X371441Y321395D02*
Y323935D01*
X378749Y322665D02*
X381288D01*
X380019Y321395D02*
Y323935D01*
X305956Y298926D02*
X308496D01*
X307226Y297656D02*
Y300196D01*
X329615Y322665D02*
X332155D01*
X330885Y321395D02*
Y323935D01*
X335864Y322665D02*
X338404D01*
X337134Y321395D02*
Y323935D01*
X344441Y322665D02*
X346981D01*
X345711Y321395D02*
Y323935D01*
X335864Y308027D02*
X338404D01*
X337134Y306757D02*
Y309297D01*
X314830Y307800D02*
X317370D01*
X316100Y306530D02*
Y309070D01*
X164326Y322665D02*
X166866D01*
X165595Y321395D02*
Y323935D01*
X130018Y322665D02*
X132558D01*
X131288Y321395D02*
Y323935D01*
X138595Y322665D02*
X141135D01*
X139865Y321395D02*
Y323935D01*
X147172Y322665D02*
X149712D01*
X148442Y321395D02*
Y323935D01*
X155749Y322665D02*
X158289D01*
X157019Y321395D02*
Y323935D01*
X-4985Y108458D02*
X-2445D01*
X-3715Y107188D02*
Y109728D01*
X326572Y235560D02*
X329112D01*
X327842Y234290D02*
Y236830D01*
X241255Y110688D02*
X243795D01*
X242525Y109418D02*
Y111958D01*
X292670Y129944D02*
X295210D01*
X293940Y128674D02*
Y131214D01*
X276800Y148128D02*
X279340D01*
X278070Y146858D02*
Y149398D01*
X-10173Y-38371D02*
X-7634D01*
X-8903Y-39641D02*
Y-37101D01*
X-16518Y217968D02*
X-13978D01*
X-15248Y216698D02*
Y219238D01*
X-9370Y211328D02*
X-6830D01*
X-8100Y210058D02*
Y212598D01*
X-38885Y150218D02*
X-36345D01*
X-37615Y148948D02*
Y151488D01*
X275030Y-67970D02*
X277570D01*
X276300Y-69240D02*
Y-66700D01*
X25769Y126629D02*
X28309D01*
X27039Y125359D02*
Y127899D01*
X9374Y124726D02*
X11914D01*
X10644Y123456D02*
Y125996D01*
X-45970Y262118D02*
X-43430D01*
X-44700Y260848D02*
Y263388D01*
X-50762Y256578D02*
X-48222D01*
X-49492Y255308D02*
Y257848D01*
X-55247Y251478D02*
X-52707D01*
X-53977Y250208D02*
Y252748D01*
X-60039Y245323D02*
X-57499D01*
X-58769Y244053D02*
Y246593D01*
X-9770Y291911D02*
X-7230D01*
X-8500Y290641D02*
Y293181D01*
X-3877Y295349D02*
X-1338D01*
X-2607Y294079D02*
Y296619D01*
X2823Y299126D02*
X5363D01*
X4093Y297856D02*
Y300396D01*
X9117Y302108D02*
X11657D01*
X10387Y300838D02*
Y303378D01*
X15393Y304396D02*
X17933D01*
X16663Y303126D02*
Y305666D01*
X21442Y307840D02*
X23982D01*
X22712Y306570D02*
Y309110D01*
X27642Y310202D02*
X30182D01*
X28912Y308932D02*
Y311472D01*
X34753Y312982D02*
X37292D01*
X36023Y311712D02*
Y314252D01*
X-32762Y211798D02*
X-30222D01*
X-31493Y210529D02*
Y213069D01*
X-32310Y205003D02*
X-29770D01*
X-31040Y203733D02*
Y206273D01*
X-42935Y211251D02*
X-40395D01*
X-41665Y209981D02*
Y212521D01*
X-29034Y174931D02*
X-26494D01*
X-27764Y173661D02*
Y176201D01*
X-6572Y173726D02*
X-4032D01*
X-5302Y172456D02*
Y174996D01*
X79418Y100439D02*
X81958D01*
X80688Y99169D02*
Y101709D01*
X469442Y296748D02*
X471982D01*
X470712Y295478D02*
Y298018D01*
X469341Y283358D02*
X471881D01*
X470611Y282088D02*
Y284628D01*
X469840Y258568D02*
X472380D01*
X471110Y257298D02*
Y259838D01*
X589715Y228758D02*
X592255D01*
X590985Y227488D02*
Y230028D01*
X568420Y223394D02*
X570960D01*
X569690Y222124D02*
Y224664D01*
X555321Y212958D02*
X557861D01*
X556591Y211688D02*
Y214228D01*
X544380Y217334D02*
X546920D01*
X545650Y216064D02*
Y218604D01*
X537819Y237089D02*
X540359D01*
X539089Y235819D02*
Y238359D01*
X515500Y241348D02*
X518040D01*
X516770Y240077D02*
Y242617D01*
X502277Y242748D02*
X504817D01*
X503547Y241478D02*
Y244018D01*
X492600Y242748D02*
X495140D01*
X493870Y241478D02*
Y244018D01*
X478740Y241348D02*
X481280D01*
X480010Y240077D02*
Y242617D01*
X464840Y246806D02*
X467380D01*
X466110Y245536D02*
Y248076D01*
X607480Y45818D02*
X610020D01*
X608750Y44548D02*
Y47088D01*
X554363Y64298D02*
X556903D01*
X555633Y63028D02*
Y65568D01*
X525450Y68078D02*
X527990D01*
X526720Y66808D02*
Y69348D01*
X594660Y40458D02*
X597200D01*
X595930Y39188D02*
Y41728D01*
X573945Y28418D02*
X576485D01*
X575215Y27148D02*
Y29688D01*
X624230Y129228D02*
X626770D01*
X625500Y127958D02*
Y130498D01*
X613380Y57358D02*
X615920D01*
X614650Y56088D02*
Y58628D01*
X537900Y39648D02*
X540440D01*
X539170Y38378D02*
Y40918D01*
X555693Y138932D02*
X558233D01*
X556963Y137662D02*
Y140202D01*
X561170Y51248D02*
X563710D01*
X562440Y49978D02*
Y52518D01*
X551250Y32458D02*
X553790D01*
X552520Y31188D02*
Y33728D01*
X547522Y17062D02*
X550062D01*
X548792Y15792D02*
Y18332D01*
X561170Y14048D02*
X563710D01*
X562440Y12778D02*
Y15318D01*
X530410Y28418D02*
X532950D01*
X531680Y27148D02*
Y29688D01*
X517150Y20218D02*
X519690D01*
X518420Y18948D02*
Y21488D01*
X527070Y12628D02*
X529610D01*
X528340Y11358D02*
Y13898D01*
X534860Y48758D02*
X537400D01*
X536130Y47488D02*
Y50028D01*
X522770Y47370D02*
X525310D01*
X524040Y46100D02*
Y48640D01*
X578880Y45818D02*
X581420D01*
X580150Y44548D02*
Y47088D01*
X518830Y37318D02*
X521370D01*
X520100Y36048D02*
Y38588D01*
X505520Y12328D02*
X508060D01*
X506790Y11058D02*
Y13598D01*
X502680Y67055D02*
X505220D01*
X503950Y65785D02*
Y68325D01*
X500545Y47370D02*
X503085D01*
X501815Y46100D02*
Y48640D01*
X502680Y37318D02*
X505220D01*
X503950Y36048D02*
Y38588D01*
X500545Y24394D02*
X503085D01*
X501815Y23124D02*
Y25664D01*
X502680Y114413D02*
X505220D01*
X503950Y113143D02*
Y115683D01*
X481630Y62564D02*
X484170D01*
X482900Y61294D02*
Y63833D01*
X486390Y31235D02*
X488930D01*
X487660Y29966D02*
Y32506D01*
X489630Y15768D02*
X492170D01*
X490900Y14498D02*
Y17038D01*
X612755Y114700D02*
X615295D01*
X614025Y113430D02*
Y115970D01*
X569761Y138932D02*
X572301D01*
X571031Y137662D02*
Y140202D01*
X546730Y126477D02*
X549270D01*
X548000Y125207D02*
Y127747D01*
X594762Y203423D02*
X597301D01*
X596031Y202153D02*
Y204693D01*
X624230Y184578D02*
X626770D01*
X625500Y183308D02*
Y185848D01*
X616670Y201628D02*
X619210D01*
X617940Y200358D02*
Y202898D01*
X558426Y234671D02*
X560966D01*
X559696Y233401D02*
Y235941D01*
X565870Y202537D02*
X568410D01*
X567140Y201267D02*
Y203807D01*
X565870Y183100D02*
X568410D01*
X567140Y181830D02*
Y184370D01*
X557893Y183100D02*
X560433D01*
X559163Y181830D02*
Y184370D01*
X541030Y206818D02*
X543570D01*
X542300Y205548D02*
Y208088D01*
X544380Y228758D02*
X546920D01*
X545650Y227488D02*
Y230028D01*
X400930Y169200D02*
X403470D01*
X402200Y167930D02*
Y170470D01*
X525980Y122500D02*
X528520D01*
X527250Y121230D02*
Y123770D01*
X520530Y206400D02*
X523070D01*
X521800Y205130D02*
Y207670D01*
X444080Y211300D02*
X446620D01*
X445350Y210030D02*
Y212570D01*
X508530Y105345D02*
X511070D01*
X509800Y104075D02*
Y106615D01*
X484080Y126608D02*
X486620D01*
X485350Y125338D02*
Y127878D01*
X124316Y168289D02*
X126856D01*
X125586Y167019D02*
Y169559D01*
X124316Y187375D02*
X126856D01*
X125586Y186105D02*
Y188645D01*
X275330Y2537D02*
X277870D01*
X276600Y1267D02*
Y3807D01*
X-24170Y50319D02*
X-21630D01*
X-22900Y49050D02*
Y51589D01*
X-5530Y143661D02*
X-2990D01*
X-4260Y142391D02*
Y144931D01*
X-46014Y149810D02*
X-43474D01*
X-44744Y148540D02*
Y151080D01*
X-40005Y141576D02*
X-37465D01*
X-38735Y140306D02*
Y142846D01*
X-5959Y129968D02*
X-3419D01*
X-4689Y128698D02*
Y131238D01*
X34680Y191348D02*
X37220D01*
X35950Y190078D02*
Y192618D01*
X-39197Y205306D02*
X-36657D01*
X-37927Y204036D02*
Y206576D01*
X-46880Y197537D02*
X-44340D01*
X-45610Y196267D02*
Y198807D01*
X-6581Y154356D02*
X-4041D01*
X-5311Y153086D02*
Y155626D01*
X13696Y139453D02*
X16236D01*
X14966Y138183D02*
Y140723D01*
X26070Y139918D02*
X28609D01*
X27339Y138648D02*
Y141188D01*
X127060Y-12303D02*
X129600D01*
X128330Y-13573D02*
Y-11033D01*
X133890Y-12930D02*
X136430D01*
X135160Y-14200D02*
Y-11660D01*
X33939Y135396D02*
X36479D01*
X35209Y134126D02*
Y136666D01*
X39710Y104898D02*
X42250D01*
X40980Y103628D02*
Y106168D01*
X440898Y47370D02*
X443438D01*
X442168Y46100D02*
Y48640D01*
X460715Y44377D02*
X463255D01*
X461985Y43107D02*
Y45647D01*
X447460Y47370D02*
X450000D01*
X448730Y46100D02*
Y48640D01*
X447460Y56819D02*
X450000D01*
X448730Y55549D02*
Y58089D01*
X383403Y-67539D02*
X385943D01*
X384673Y-68809D02*
Y-66269D01*
X376257Y-67539D02*
X378797D01*
X377527Y-68809D02*
Y-66269D01*
X444738Y-35111D02*
X447277D01*
X446007Y-36381D02*
Y-33841D01*
X427970Y-34295D02*
X430510D01*
X429240Y-35565D02*
Y-33025D01*
X435849Y-34391D02*
X438389D01*
X437119Y-35661D02*
Y-33121D01*
X362165Y-23358D02*
X364705D01*
X363435Y-24627D02*
Y-22088D01*
X369771Y3475D02*
X372311D01*
X371041Y2205D02*
Y4745D01*
X364775Y-3155D02*
X367314D01*
X366045Y-4425D02*
Y-1885D01*
X237645Y-24486D02*
X240185D01*
X238915Y-25756D02*
Y-23217D01*
X231113Y-29240D02*
X233653D01*
X232383Y-30510D02*
Y-27970D01*
X14855Y-30017D02*
X17395D01*
X16125Y-31287D02*
Y-28747D01*
X441977Y-52826D02*
X444517D01*
X443247Y-54096D02*
Y-51556D01*
X441977Y-59913D02*
X444517D01*
X443247Y-61183D02*
Y-58643D01*
X434830Y-52948D02*
X437370D01*
X436100Y-54218D02*
Y-51678D01*
X434830Y-59913D02*
X437370D01*
X436100Y-61183D02*
Y-58643D01*
X342410Y-67539D02*
X344950D01*
X343680Y-68809D02*
Y-66269D01*
X367730Y-67539D02*
X370270D01*
X369000Y-68809D02*
Y-66269D01*
X336243Y-67539D02*
X338783D01*
X337513Y-68809D02*
Y-66269D01*
X378603Y692D02*
X381143D01*
X379873Y-578D02*
Y1962D01*
X207106Y-55925D02*
X209646D01*
X208376Y-57195D02*
Y-54655D01*
X199783Y-55457D02*
X202323D01*
X201054Y-56727D02*
Y-54187D01*
X207106Y-61618D02*
X209646D01*
X208376Y-62888D02*
Y-60349D01*
X199783Y-61574D02*
X202323D01*
X201054Y-62844D02*
Y-60304D01*
X244735Y-27409D02*
X247275D01*
X246005Y-28679D02*
Y-26139D01*
X253930Y-67970D02*
X256470D01*
X255200Y-69240D02*
Y-66700D01*
X214761Y-67970D02*
X217301D01*
X216031Y-69240D02*
Y-66700D01*
X222619Y-67970D02*
X225159D01*
X223889Y-69240D02*
Y-66700D01*
X246830Y-67970D02*
X249370D01*
X248100Y-69240D02*
Y-66700D01*
X328325Y-67539D02*
X330865D01*
X329595Y-68809D02*
Y-66269D01*
X325980Y-52500D02*
X328520D01*
X327250Y-53770D02*
Y-51230D01*
X318531Y-52500D02*
X321071D01*
X319801Y-53770D02*
Y-51230D01*
X318531Y-46582D02*
X321071D01*
X319801Y-47852D02*
Y-45312D01*
X325980Y-46582D02*
X328520D01*
X327250Y-47852D02*
Y-45312D01*
X306480Y21500D02*
X309020D01*
X307750Y20230D02*
Y22770D01*
X314203Y21500D02*
X316743D01*
X315473Y20230D02*
Y22770D01*
X83143Y-57855D02*
X85683D01*
X84413Y-59125D02*
Y-56585D01*
X78139Y-63345D02*
X80679D01*
X79409Y-64615D02*
Y-62075D01*
X75736Y-56657D02*
X78276D01*
X77006Y-57927D02*
Y-55387D01*
X70359Y-60714D02*
X72899D01*
X71629Y-61984D02*
Y-59444D01*
X63500Y-53040D02*
X66040D01*
X64770Y-54310D02*
Y-51770D01*
X34930Y1393D02*
X37470D01*
X36200Y124D02*
Y2664D01*
X34202Y8546D02*
X36741D01*
X35471Y7276D02*
Y9816D01*
X31500Y-7621D02*
X34041D01*
X32771Y-8891D02*
Y-6351D01*
X21417Y-43677D02*
X23957D01*
X22687Y-44947D02*
Y-42407D01*
X14855Y-43677D02*
X17395D01*
X16125Y-44947D02*
Y-42407D01*
X-53755Y45897D02*
X-47055D01*
X-50405Y42547D02*
Y49247D01*
X-53755Y209897D02*
X-47055D01*
X-50405Y206547D02*
Y213247D01*
X474922Y14197D02*
X477462D01*
X476192Y12928D02*
Y15467D01*
X429430Y183100D02*
X431970D01*
X430700Y181830D02*
Y184370D01*
X436755Y183100D02*
X439295D01*
X438025Y181830D02*
Y184370D01*
X465410Y36188D02*
X467950D01*
X466680Y34918D02*
Y37458D01*
X195761Y54832D02*
X198301D01*
X197031Y53562D02*
Y56101D01*
X473789Y27555D02*
X476329D01*
X475059Y26285D02*
Y28825D01*
X470230Y48858D02*
X472770D01*
X471500Y47588D02*
Y50128D01*
X458683Y56819D02*
X461222D01*
X459953Y55549D02*
Y58089D01*
X327551Y62453D02*
X330091D01*
X328821Y61184D02*
Y63724D01*
X294785Y56057D02*
X297325D01*
X296055Y54787D02*
Y57327D01*
X486147Y42436D02*
X488686D01*
X487416Y41166D02*
Y43706D01*
X121441Y322665D02*
X123981D01*
X122711Y321395D02*
Y323935D01*
X112864Y322665D02*
X115404D01*
X114134Y321395D02*
Y323935D01*
X104287Y322665D02*
X106827D01*
X105557Y321395D02*
Y323935D01*
X95710Y322665D02*
X98250D01*
X96980Y321395D02*
Y323935D01*
X85450Y322428D02*
X87991D01*
X86721Y321158D02*
Y323698D01*
X76716Y321884D02*
X79256D01*
X77986Y320614D02*
Y323154D01*
X68336Y320643D02*
X70876D01*
X69606Y319373D02*
Y321913D01*
X59245Y319442D02*
X61785D01*
X60515Y318172D02*
Y320712D01*
X50563Y317597D02*
X53103D01*
X51833Y316327D02*
Y318867D01*
X41882Y315292D02*
X44422D01*
X43152Y314022D02*
Y316562D01*
X-64084Y238640D02*
X-61544D01*
X-62814Y237370D02*
Y239910D01*
X444080Y183100D02*
X446620D01*
X445350Y181830D02*
Y184370D01*
X451405Y183100D02*
X453945D01*
X452675Y181830D02*
Y184370D01*
M02*
