M48
;Layer_Color=9474304
;FILE_FORMAT=2:5
INCH,LZ
;TYPE=PLATED
T1F00S00C0.01000
T3F00S00C0.02638
T4F00S00C0.02953
T5F00S00C0.09843
T6F00S00C0.10630
;TYPE=NON_PLATED
T7F00S00C0.02559
%
T01
X0132879Y-002659
X0135307
X0145276
X0148633
X0151446
X0155403Y-002666
X015876
X0161573
X0166253
X016961
X0168879Y-0023636
Y-0020893
X0171693Y-0020845
Y-0023588
X0174507
Y-0020798
X0175593Y-0013823
X0172094Y-001354
X0168992Y-0013502
X017675Y-002666
X0183977
X0187477Y000559
X0187031Y0010848
X0191992Y0012297
X0191896Y0016707
X0194606Y0020921
X0197565Y001865
X0198406Y0014692
X0197565Y0009604
X0199524Y0004853
X0193268Y0006208
X0204102Y000796
X0208008Y0004972
X0209323Y0011188
X0212272Y0015609
X0211075Y0019196
X021606
X0214043Y0022582
X0209323
X020737Y0026802
X0206315Y001865
X0204764Y0014692
X0202559Y0021929
X0198406Y0026399
X0190118Y0024631
X018563Y0019235
X0181884Y0017471
X0183732Y0014247
X0181084Y002237
X0176665
Y001865
X0174082
X016416Y002518
X0141142Y0028898
X0146079Y0001368
X0149557Y0000273
X0144112Y-0001242
X0143085Y-0009196
X0140187
X0137037
X015687Y0003665
X021606Y0006717
X0221433Y0005531
X0228406
X0232953Y000809
X0236853Y000799
X0238878Y0011188
X0239252Y0014961
X0239665Y0018038
X0235748Y0018937
X0234618Y0015928
Y0011188
X0226463
X0222095Y0014692
X0221433Y0020176
X0225669
X0228406Y0021181
Y0018038
X0237913Y0021181
X0241988Y0022582
X024235Y0027562
X0240807Y0005531
X0217528Y0012779
X0218753Y0025314
X0129457Y0024588
X0116557Y002207
X0119303Y001259
X0121161Y0008465
X0124202
X0124027Y0004698
X0121528
X0121539Y0002149
X0121528Y-0000178
X0124027
Y0002149
X0108898Y0000999
X0112359Y001074
X0099453Y000989
X0103953Y001879
X0090739Y0021275
X0077571Y0021587
X0075103Y0013115
X0073267Y0011161
X0075103Y0004449
X0066516Y000356
X0062795Y0007008
X0054169Y0004315
X0047535Y0003426
X0043074Y0007008
X0043024Y0020522
X003444Y0020029
X0024956Y0019306
X0015433Y0022062
X0011653Y0007085
X0013965Y0003365
X0014252Y0000549
X0012902Y-0003001
X0006348Y-0011818
Y-0014529
X0003765
X000246Y-0018427
X0006348Y-0017196
X0008932
X0009056Y-0021442
X0011959Y-0022496
X0015958Y-0023911
X0019054Y-0024746
X0022081Y-0025511
X0025501Y-0023453
X00255Y-0020882
X00282Y-0023903
X0030318Y-0022306
X0033233Y-0022778
X0031263Y-0024939
X0041199Y-002663
X0044576
X0047952
X0051329
X0054706
X0058082
X0061459
X0064836
X0068263Y-002676
X007164
X0075016
X0079155Y-0024242
Y-0021834
Y-0019408
X0082038Y-0022018
Y-0024259
X0085052Y-002676
X0088145
X0097677
X0100472
X010878
X0111874
X010878Y-0019649
X0125906Y-0020669
Y-0018339
X0128839
Y-0020669
X0129762Y-002659
X0096852Y-0010791
X0094061Y-000964
X0091489Y-0011512
X0084306Y-0018818
X0077873Y-0010306
X0079735Y-0002513
X008702Y001099
X0066657Y0015574
X006134Y-0005091
X0058732
X005597Y-0004938
X0053213Y-0005091
X0050524Y-0004843
X0054848Y-0009342
X0061883Y-0008226
X-0000943Y-001649
X-0003505Y-0015107
X-0005626Y-0013519
X-0007877Y-0011883
X-0009975Y-0010169
X-001207Y-0008313
X-0014111Y-0006471
X-0016062Y-000452
X-0018067Y-0002569
X-0019765Y-0000726
X-0021553Y0001424
X-0023197Y0003537
X-0024552Y0005687
X-0024805Y0008415
X-0024769Y0010926
X-0017342Y0016683
X-001608Y0023093
X-0013431Y00229
X-0013552Y002695
X-0015512Y0028874
X-0009016Y0019811
X-0002914Y001195
X-0011547Y0007905
X-0011378Y0031339
X-0011448Y0035965
X-0017646
X-00177Y003898
X-0017685Y0041652
X-0018497Y004459
X-0015847Y004824
X-0013455Y004624
X-0013143Y0042766
X-0001463Y00427
X-0000283Y0038011
X-0002535Y003444
X-0015704Y0031932
X-0018497Y0029084
X-0017457Y0051225
X-0018177Y00551
X-001525Y0055739
X-0014759Y0053175
X-0011664Y0053456
X-0011768Y0056475
X-0014809Y0059141
X-0017616Y005898
X-0011441Y0062412
X-0012575Y0064322
X-0011458Y0066178
X-0010931Y006887
X-0018731Y0068862
X-0018037Y0073122
X-0017957Y0077771
X-0015048Y0077751
X-0012399
X-001222Y008071
X-0014932Y0080829
X-0016404Y008317
X-0012399Y0083385
X-0006003Y0085814
X-0003189Y00832
X-0002485Y0077415
X0001092Y0077316
X-0002087Y0068396
X-0002091Y006077
X-0001677Y0056559
X-0001846Y0051169
X0004191Y0049105
X0002614Y0045462
X0010645Y0049854
X0010764Y0055086
X0013862Y0053306
X0015762Y0050172
X0016134Y0041298
X0015699Y0029818
X0031767Y002912
Y0039543
X0030853Y0055652
Y0058771
X0041753Y005814
X0042653Y004639
X0056253Y004754
X0058353Y003954
X0072703Y004639
X0089903Y004374
X0095482Y0043578
X0105455Y0045701
X0105842Y004904
X0115725Y0051159
X0109476Y0058318
X0105842Y0074805
X0100067Y0083578
X0090871Y008339
X0085341Y0083578
X0079803Y008444
X0075053Y008424
X0075397Y0093213
X0068244Y0094673
X005934Y0093213
X0050581Y0094089
X0045903Y009379
X0040947Y0093943
X0037453Y009379
X0026614Y0092579
X0024353Y008869
X0020705Y0086669
X0017522Y0094673
X0011636Y0091536
X0006227Y0086127
X0015107Y0081071
X0014154Y0075334
X0014066Y0069532
X0005892Y0054903
X0038803Y007014
X0049443Y007377
Y0066256
X0061353Y006489
X0064903Y006039
X0062931Y0083589
X0058253Y008339
X0053297Y0083443
X0049803Y008339
X0048311Y010814
X0053403Y010844
Y011404
X0058442Y0114629
X0057003Y011759
X0055065Y012074
Y0127033
X0051688
X0048311
X0044935
X0041558
X0038181
X0034142Y012694
X0030703Y0126726
X0027404Y0126237
X0023825Y0125765
X0020407Y0125038
X0016989Y0124131
X0014182Y0123221
X0011383Y0122127
X0008942Y0121197
X000656Y0119841
X000409Y011894
X0001611Y0117766
X-0001027Y0116279
X-0003346Y0114925
X-00056Y0113249
X-00078Y0111674
X-0009674Y0109963
X-0011738Y0108225
X-0013829Y0106595
X-0015676Y010483
X-0017598Y0103196
X-0019485Y0101015
X-0021251Y0099007
X-0023137Y0096584
X-002473Y0093953
X0013824Y0112401
X0018615Y0107934
X0021203Y011594
X0027302Y0116574
X0027553Y011059
X0030447Y0106655
X0038181Y0107965
X0035595Y0114112
X0035703Y012074
X0041558Y0116574
X0048311
X0046753Y012149
X0044553Y011154
X0062453Y010814
X0066653Y010844
X0071014
X0076911Y010814
X0077984Y0101455
X0079253Y009924
X0084553Y0093213
X0090871Y0094235
X0094772Y0100577
X0095261Y0107022
X0100003Y010724
X0106103Y0106655
X0110853
X0110599Y0101455
X0109628Y0098905
X0108641Y009609
X0100931Y0095886
X0102653Y010099
X0116391Y0101455
Y0098905
X0118203Y009524
X0120753Y0101455
X0123549Y0098905
X0127026Y0097604
X0129072Y009274
X0126803Y010839
X0116853Y010959
X011558Y011247
X0112963Y0112101
X0110205Y0111727
X0117327Y0114217
X0119074Y0115964
X0120955Y0117687
X0122702Y0119434
X0124449Y0121181
X0126196Y0122928
X0127943Y0124675
X013027Y0127033
X0091867Y012721
X0088584
X00853
X0082017
X0078734
X0071014Y0127033
X006793
X0065195
X0061818
X0058442
X0060153Y0122675
X006793Y0120778
X0075489Y0119903
X0084553Y010724
X0090653Y010749
X0085341Y0075273
X0078578
X0119137Y0083612
X0120589Y0033853
X0105455Y0035189
X0133543Y0029252
X0160118Y0030512
X0156496Y0035748
X0153465Y0038504
X0145853Y004529
X01457Y0048784
X0145853Y005374
X0145554Y0058418
X0145653Y006404
X01455Y0067534
X0145653Y007249
X0145354Y0077168
X0133953Y0077808
X0137548Y0094436
X0139103Y010064
X0143192Y0097042
X0145515Y0092219
X0148353Y008724
X0154103Y009384
X0154453Y009864
X0150503Y010009
X0153903Y010674
X0153753Y011294
X0159103Y011439
X0161549Y0119165
X0156106Y012072
X0156367Y0127033
X015299
X0149614
X0146237
X014286
X0139483
X0136107
X013273
Y012127
X0135103Y011839
X0135891Y0110872
X0141353Y011189
X0144953Y011709
X0141593Y0121887
X0146503Y010774
X0133053Y010659
X0164253Y0105474
Y011124
X0168153Y0109058
Y011799
X0166497Y0127033
X0169874
X0173251
X016312
X0159744
X0161951Y0100079
X0170403Y008849
X0170669Y0084291
X0175335Y0083189
X0182087
X0187362Y008126
X0189103Y008559
X0186069Y0091147
X018898Y0095019
X0194437Y009557
X0198247
X0203453Y0095019
X0204553Y008844
X0200079Y0089882
X0195303Y008994
X0198247Y008309
X0205433Y008126
X0209899Y0083842
X0213504Y0081424
X0214823Y0085565
Y0090062
X0209899Y008994
X021224Y0093342
X0220353Y009239
X0227244Y0093643
X0224287Y0087951
X0231052Y0085565
X0232671Y0090062
X0239044Y0087951
X0240077Y0092094
Y0083468
X0236571Y008341
X0237283Y0079381
X0240077
X0243284
X024626Y0078294
Y0075284
Y0072669
Y0069092
Y0065552
Y0061782
Y0057682
Y0053976
Y0050877
X024478Y0047323
X0241742Y0045158
X0238622Y0045276
X0235591Y004374
X0232598Y0043583
X0229522
X0224803Y0043228
X0218307Y0042392
X0220276Y0039561
X0214933Y0037806
X0208433Y003797
X02036Y0037806
X0203349Y0033768
X0203653Y0031168
X0207579
X0206315Y0033768
X0205559Y0041938
X0200709Y0041474
X0198903Y003797
X0193765Y0037806
X0194606Y0040294
X0192647Y0045044
X0198406
X0197205Y0049134
X0191083Y0049845
X0187909
X0184299Y004992
X0185039Y0046772
X0188068Y0041938
X0187407Y0037806
X018563Y0031168
X0190118
X0194606
X0198903
X0181084
X0177795
X0174291
Y0046772
X0175354Y0051811
X0174291Y0055158
X0171653
X0177008
X0179803Y0055
X0181102Y0072087
X0178218
X0175335
X0172451
X0169567
X016689
X0164409Y0071969
X0161136
X0159252Y0069646
X0158346Y0066614
Y006404
X0158669Y00611
X0159896Y0058418
X0160984Y0056221
X0179803Y008849
X0178208Y0092933
X0183508Y0097168
X0185476Y0101798
X018528Y0111558
X018532Y011683
X021913Y0083842
X0223283Y0079739
X0225711Y0079857
X022844Y0079739
X0231867Y0080129
X0234658Y0080088
X0221102Y0077284
X0220143Y0072087
X0223283
X0222013Y0054698
X0219277
X0224816
X0227795
X0222716Y0051221
X0221969Y0048346
X0215748Y0049794
X0214933Y0045158
X0210799Y0041474
X0207579Y0048228
X02036Y0045432
X0226463Y0031168
X024235Y0031464
T03
X-0019844Y001807
Y0082636
T04
X0180112Y-0020463
Y-0006683
Y0106372
Y0120152
T05
X0264252Y0011991
Y0088369
T06
X0Y0
Y0100495
T07
X0045606Y-0004746
X0068362
M30
