G04*
G04 #@! TF.GenerationSoftware,Altium Limited,Altium Designer,22.2.1 (43)*
G04*
G04 Layer_Physical_Order=5*
G04 Layer_Color=16737945*
%FSLAX44Y44*%
%MOMM*%
G71*
G04*
G04 #@! TF.SameCoordinates,32B94617-2C73-494B-87D1-3967A9C4A560*
G04*
G04*
G04 #@! TF.FilePolarity,Positive*
G04*
G01*
G75*
%ADD63C,0.5080*%
%ADD69C,1.5001*%
%ADD70C,2.5254*%
%ADD71C,4.5000*%
%ADD75C,0.5080*%
G36*
X475644Y248004D02*
X475802Y247211D01*
X476251Y246539D01*
X476923Y246090D01*
X477716Y245932D01*
X698222D01*
X700802Y243353D01*
X700802Y212009D01*
X685574D01*
X685056Y211457D01*
X657344Y211457D01*
X657344Y211457D01*
X656826Y212009D01*
X638590D01*
X637797Y211851D01*
X637125Y211402D01*
X636676Y210730D01*
X636518Y209937D01*
Y43736D01*
X636676Y42944D01*
X637125Y42271D01*
X637797Y41822D01*
X638590Y41665D01*
X655849D01*
X656718Y42791D01*
X657344Y43458D01*
X685056D01*
X685682Y42791D01*
X686552Y41665D01*
X700802D01*
Y10580D01*
X697757Y7536D01*
X477716Y7536D01*
X476923Y7378D01*
X476251Y6929D01*
X475802Y6257D01*
X475644Y5464D01*
Y-72214D01*
X97981Y-72214D01*
X97617Y-72287D01*
X97250Y-72347D01*
X96930Y-72468D01*
X91413D01*
X79646Y-71770D01*
X67940Y-70377D01*
X56338Y-68293D01*
X44879Y-65526D01*
X33604Y-62085D01*
X22553Y-57984D01*
X11763Y-53235D01*
X1274Y-47855D01*
X-8878Y-41864D01*
X-18658Y-35283D01*
X-28031Y-28133D01*
X-36964Y-20442D01*
X-45427Y-12236D01*
X-53388Y-3542D01*
X-60821Y5607D01*
X-66318Y13257D01*
Y239923D01*
X-61715Y246423D01*
X-54503Y255448D01*
X-46780Y264038D01*
X-38571Y272167D01*
X-29904Y279805D01*
X-20809Y286928D01*
X-11316Y293511D01*
X-1457Y299532D01*
X8734Y304971D01*
X19224Y309810D01*
X29978Y314031D01*
X40958Y317622D01*
X52127Y320570D01*
X63449Y322865D01*
X74886Y324499D01*
X86397Y325466D01*
X92172Y325616D01*
X92331Y325652D01*
X92493Y325649D01*
X92671Y325682D01*
X239529D01*
X239529Y288596D01*
X291726Y288596D01*
X328812Y325682D01*
X475644D01*
Y248004D01*
D02*
G37*
%LPC*%
G36*
X458805Y315226D02*
X458754D01*
Y306455D01*
X467524D01*
Y306507D01*
X466840Y309061D01*
X465518Y311350D01*
X463649Y313220D01*
X461359Y314542D01*
X458805Y315226D01*
D02*
G37*
G36*
X456213D02*
X456162D01*
X453608Y314542D01*
X451318Y313220D01*
X449449Y311350D01*
X448127Y309061D01*
X447443Y306507D01*
Y306455D01*
X456213D01*
Y315226D01*
D02*
G37*
G36*
X192494Y312174D02*
X190993D01*
X189520Y311881D01*
X188134Y311307D01*
X186886Y310473D01*
X185824Y309412D01*
X184990Y308163D01*
X184416Y306777D01*
X184123Y305305D01*
Y303804D01*
X184416Y302331D01*
X184990Y300945D01*
X185824Y299697D01*
X186886Y298635D01*
X188134Y297801D01*
X189520Y297227D01*
X190993Y296934D01*
X192494D01*
X193966Y297227D01*
X195352Y297801D01*
X196601Y298635D01*
X197662Y299697D01*
X198496Y300945D01*
X199070Y302331D01*
X199363Y303804D01*
Y305305D01*
X199070Y306777D01*
X198496Y308163D01*
X197662Y309412D01*
X196601Y310473D01*
X195352Y311307D01*
X193966Y311881D01*
X192494Y312174D01*
D02*
G37*
G36*
X467524Y303915D02*
X458754D01*
Y295145D01*
X458805D01*
X461359Y295829D01*
X463649Y297151D01*
X465518Y299020D01*
X466840Y301310D01*
X467524Y303864D01*
Y303915D01*
D02*
G37*
G36*
X456213D02*
X447443D01*
Y303864D01*
X448127Y301310D01*
X449449Y299020D01*
X451318Y297151D01*
X453608Y295829D01*
X456162Y295145D01*
X456213D01*
Y303915D01*
D02*
G37*
G36*
X48090Y278216D02*
X46473D01*
X44980Y277597D01*
X43836Y276454D01*
X43218Y274960D01*
Y273343D01*
X43836Y271849D01*
X44980Y270706D01*
X46473Y270088D01*
X48090D01*
X49584Y270706D01*
X50727Y271849D01*
X51346Y273343D01*
Y274960D01*
X50727Y276454D01*
X49584Y277597D01*
X48090Y278216D01*
D02*
G37*
G36*
X458672Y279209D02*
X456295D01*
X454000Y278594D01*
X451942Y277406D01*
X450262Y275725D01*
X449074Y273668D01*
X448459Y271372D01*
Y268996D01*
X449074Y266701D01*
X450262Y264643D01*
X451942Y262963D01*
X454000Y261775D01*
X456295Y261160D01*
X458672D01*
X460967Y261775D01*
X463025Y262963D01*
X464705Y264643D01*
X465893Y266701D01*
X466508Y268996D01*
Y271372D01*
X465893Y273668D01*
X464705Y275725D01*
X463025Y277406D01*
X460967Y278594D01*
X458672Y279209D01*
D02*
G37*
G36*
X594909Y198085D02*
X593656Y197836D01*
X592476Y197347D01*
X591414Y196637D01*
X590510Y195734D01*
X589801Y194672D01*
X589312Y193492D01*
X589062Y192239D01*
Y191600D01*
X589001Y190355D01*
X588516Y187913D01*
X587563Y185613D01*
X586180Y183543D01*
X584419Y181783D01*
X582349Y180400D01*
X580049Y179447D01*
X578752Y179189D01*
X578666Y179278D01*
X421494Y179277D01*
X421494Y179277D01*
X419924Y179104D01*
X416898Y178195D01*
X414088Y176751D01*
X411586Y174820D01*
X409478Y172467D01*
X407831Y169770D01*
X406703Y166819D01*
X406129Y163712D01*
X406129Y160552D01*
X406703Y157445D01*
X407831Y154494D01*
X409478Y151797D01*
X411586Y149445D01*
X414088Y147514D01*
X416898Y146070D01*
X419924Y145160D01*
X421494Y144988D01*
X571900Y144988D01*
Y144610D01*
X575117D01*
X576361Y144549D01*
X578803Y144063D01*
X581103Y143110D01*
X583173Y141727D01*
X584934Y139967D01*
X586317Y137897D01*
X587270Y135597D01*
X587755Y133155D01*
X587817Y131910D01*
X587817Y130717D01*
X587817Y130717D01*
X587817Y129965D01*
X588110Y128491D01*
X588685Y127102D01*
X589520Y125852D01*
X590583Y124789D01*
X591833Y123954D01*
X593222Y123379D01*
X594696Y123085D01*
X595448Y123085D01*
X612155D01*
X613099Y123085D01*
X614951Y123454D01*
X616695Y124176D01*
X618265Y125225D01*
X619600Y126560D01*
X620649Y128130D01*
X621372Y129875D01*
X621740Y131727D01*
X621740Y132671D01*
X621740Y190866D01*
X621740Y190866D01*
X621740Y190866D01*
X621740Y190868D01*
X621740Y191577D01*
X621646Y192049D01*
X621463Y192972D01*
X620918Y194286D01*
X620128Y195468D01*
X619123Y196474D01*
X617940Y197264D01*
X616627Y197808D01*
X615232Y198085D01*
X614521Y198085D01*
X594909Y198085D01*
D02*
G37*
G36*
X315600Y268444D02*
X48141D01*
X46555Y268128D01*
X45211Y267230D01*
X-155Y221864D01*
X-1053Y220520D01*
X-1369Y218934D01*
Y210965D01*
X-2542Y210301D01*
X-2845Y210176D01*
X-3173D01*
X-3405Y209944D01*
X-3708Y209818D01*
X-36200Y177326D01*
X-36683Y176160D01*
Y164698D01*
X-37953Y164056D01*
X-38336Y164339D01*
Y178616D01*
X-20873Y196080D01*
X-20390Y197246D01*
Y218539D01*
X-20873Y219706D01*
X-27334Y226166D01*
X-28500Y226650D01*
X-52500D01*
X-53666Y226166D01*
X-63635Y216198D01*
X-64118Y215032D01*
Y45368D01*
X-63635Y44202D01*
X-49427Y29994D01*
X-48260Y29511D01*
X-11452Y29511D01*
X-10847Y28050D01*
X-9704Y26907D01*
X-8210Y26288D01*
X-6594D01*
X-5100Y26907D01*
X-3957Y28050D01*
X-3352Y29511D01*
X26656Y29511D01*
X49084Y7084D01*
X50250Y6600D01*
X116223D01*
X117293Y6401D01*
X117582Y6112D01*
X117809Y5773D01*
X122367Y1214D01*
X123711Y316D01*
X125297Y1D01*
X125297Y1D01*
X159236D01*
X160822Y316D01*
X162166Y1214D01*
X165850Y4899D01*
X168951D01*
X169351Y4978D01*
X169760D01*
X170137Y5134D01*
X170537Y5214D01*
X170876Y5441D01*
X171253Y5597D01*
X171542Y5885D01*
X171881Y6112D01*
X171885Y6118D01*
X172167Y6511D01*
X172396Y6740D01*
X173583Y6608D01*
X173655Y6630D01*
X173718Y6612D01*
X173745Y6600D01*
X186383D01*
X186614Y6696D01*
X186862Y6672D01*
X187176Y6928D01*
X187550Y7084D01*
X187645Y7314D01*
X187838Y7472D01*
X188517Y8742D01*
X188542Y8991D01*
X188680Y9198D01*
X188601Y9596D01*
X188641Y9999D01*
X188532Y10132D01*
X188299Y11299D01*
X188487Y12241D01*
X189020Y13040D01*
X189819Y13574D01*
X190761Y13761D01*
X191703Y13574D01*
X192502Y13040D01*
X193036Y12241D01*
X193223Y11299D01*
X192991Y10132D01*
X192881Y9999D01*
X192921Y9596D01*
X192842Y9198D01*
X192981Y8991D01*
X193005Y8742D01*
X193684Y7472D01*
X193877Y7314D01*
X193972Y7084D01*
X194347Y6928D01*
X194660Y6672D01*
X194908Y6696D01*
X195139Y6600D01*
X232067D01*
X254979Y-16312D01*
X256146Y-16795D01*
X315219D01*
X315798Y-16555D01*
X316381Y-16317D01*
X322953Y-9801D01*
X323194Y-9225D01*
X323441Y-8644D01*
X324177Y76516D01*
X324175Y76520D01*
X324177Y76523D01*
X323939Y77104D01*
X323704Y77687D01*
X323700Y77688D01*
X323699Y77692D01*
X312550Y88937D01*
X312175Y89094D01*
X311861Y89353D01*
X311614Y89329D01*
X311386Y89425D01*
X311009Y89271D01*
X310604Y89232D01*
X310388Y89117D01*
X309452Y90057D01*
X309572Y90283D01*
X309613Y90684D01*
X309769Y91056D01*
X309674Y91289D01*
X309699Y91539D01*
X309444Y91851D01*
X309291Y92225D01*
X275289Y126522D01*
X274914Y126679D01*
X274600Y126938D01*
X274353Y126914D01*
X274125Y127010D01*
X273748Y126856D01*
X273343Y126817D01*
X272172Y126194D01*
X271913Y125880D01*
X271575Y125654D01*
X271527Y125411D01*
X271369Y125220D01*
X271397Y124933D01*
X271364Y124883D01*
X271112Y123619D01*
X270579Y122821D01*
X269507Y122105D01*
X269489Y122078D01*
X269458Y122071D01*
X269262Y121753D01*
X268371Y121749D01*
X268202Y121791D01*
X267882Y121959D01*
X267822Y122212D01*
X267568Y122369D01*
X267402Y122618D01*
X267097Y122821D01*
X266564Y123619D01*
X266376Y124562D01*
X266564Y125504D01*
X267097Y126302D01*
X267896Y126836D01*
X269160Y127087D01*
X269202Y127115D01*
X269532Y127082D01*
X269726Y127241D01*
X269973Y127290D01*
X270197Y127626D01*
X270509Y127881D01*
X271138Y129051D01*
X271178Y129452D01*
X271334Y129825D01*
X271239Y130057D01*
X271264Y130307D01*
X271009Y130620D01*
X270856Y130993D01*
X221630Y180647D01*
X221626Y180648D01*
X221625Y180652D01*
X221044Y180893D01*
X220466Y181135D01*
X220462Y181134D01*
X220459Y181135D01*
X103439D01*
X103360Y181102D01*
X103278Y181127D01*
X102787Y180865D01*
X102273Y180652D01*
X102240Y180572D01*
X102164Y180532D01*
X101358Y179550D01*
X101333Y179468D01*
X101262Y179420D01*
X101153Y178874D01*
X100992Y178342D01*
X101032Y178266D01*
X101016Y178182D01*
X101021Y178156D01*
X100834Y177213D01*
X100300Y176415D01*
X99501Y175881D01*
X98559Y175694D01*
X97617Y175881D01*
X96818Y176415D01*
X96285Y177213D01*
X96097Y178156D01*
X96103Y178182D01*
X96086Y178266D01*
X96126Y178342D01*
X95965Y178875D01*
X95856Y179420D01*
X95785Y179468D01*
X95760Y179550D01*
X94954Y180532D01*
X94878Y180572D01*
X94846Y180652D01*
X94332Y180865D01*
X93841Y181127D01*
X93758Y181102D01*
X93679Y181135D01*
X71386D01*
X70219Y180652D01*
X37880Y148313D01*
X149D01*
X-82Y148217D01*
X-330Y148242D01*
X-643Y147985D01*
X-1017Y147830D01*
X-1113Y147599D01*
X-1306Y147441D01*
X-1985Y146171D01*
X-2009Y145923D01*
X-2148Y145715D01*
X-2069Y145318D01*
X-2108Y144915D01*
X-2028Y144817D01*
X-1798Y143661D01*
X-1986Y142718D01*
X-2519Y141920D01*
X-3318Y141386D01*
X-4260Y141199D01*
X-5202Y141386D01*
X-6000Y141920D01*
X-6534Y142718D01*
X-6722Y143661D01*
X-6492Y144817D01*
X-6411Y144915D01*
X-6451Y145318D01*
X-6372Y145715D01*
X-6511Y145923D01*
X-6535Y146171D01*
X-7214Y147441D01*
X-7407Y147599D01*
X-7502Y147830D01*
X-7877Y147985D01*
X-8190Y148242D01*
X-8438Y148217D01*
X-8669Y148313D01*
X-23006D01*
X-26227Y151533D01*
X-25741Y152707D01*
X-9454D01*
X-9010Y152891D01*
X-8538Y152985D01*
X-8444Y153125D01*
X-8288Y153190D01*
X-8104Y153634D01*
X-7836Y154034D01*
X-7585Y155298D01*
X-7052Y156097D01*
X-6253Y156631D01*
X-5311Y156818D01*
X-4369Y156631D01*
X-3570Y156097D01*
X-3036Y155298D01*
X-2785Y154034D01*
X-2518Y153634D01*
X-2334Y153190D01*
X-2177Y153125D01*
X-2084Y152985D01*
X-1612Y152891D01*
X-1167Y152707D01*
X37488D01*
X38654Y153190D01*
X69244Y183780D01*
X120587D01*
X120686Y183821D01*
X120790Y183793D01*
X121257Y184058D01*
X121753Y184263D01*
X121794Y184363D01*
X121888Y184416D01*
X122878Y185686D01*
X122895Y185748D01*
X122948Y185783D01*
X123061Y186348D01*
X123214Y186903D01*
X123182Y186959D01*
X123195Y187022D01*
X123124Y187375D01*
X123312Y188317D01*
X123845Y189115D01*
X124644Y189649D01*
X125586Y189837D01*
X126528Y189649D01*
X127327Y189115D01*
X127860Y188317D01*
X128048Y187375D01*
X127978Y187022D01*
X127990Y186959D01*
X127958Y186903D01*
X128112Y186348D01*
X128224Y185783D01*
X128277Y185748D01*
X128294Y185686D01*
X129284Y184416D01*
X129378Y184363D01*
X129419Y184263D01*
X129915Y184058D01*
X130382Y183793D01*
X130486Y183821D01*
X130585Y183780D01*
X227707D01*
X335295Y76192D01*
X335740Y76008D01*
X336140Y75740D01*
X336306Y75773D01*
X336462Y75709D01*
X336906Y75893D01*
X337378Y75987D01*
X338258Y76574D01*
X339200Y76762D01*
X340142Y76574D01*
X340941Y76041D01*
X341474Y75242D01*
X341662Y74300D01*
X341474Y73358D01*
X340887Y72478D01*
X340793Y72007D01*
X340609Y71562D01*
X340673Y71406D01*
X340640Y71240D01*
X340908Y70840D01*
X341092Y70395D01*
X385145Y26342D01*
Y-26814D01*
X385629Y-27980D01*
X421578Y-63930D01*
X422745Y-64413D01*
X444892D01*
X446059Y-63930D01*
X448461Y-61527D01*
X448945Y-60361D01*
Y-57775D01*
X450215Y-57435D01*
X450262Y-57517D01*
X451942Y-59197D01*
X454000Y-60385D01*
X456295Y-61000D01*
X458672D01*
X460967Y-60385D01*
X463025Y-59197D01*
X464705Y-57517D01*
X465893Y-55459D01*
X466508Y-53164D01*
Y-50788D01*
X465893Y-48492D01*
X464705Y-46435D01*
X463025Y-44754D01*
X460967Y-43566D01*
X458672Y-42951D01*
X456295D01*
X454000Y-43566D01*
X451942Y-44754D01*
X450262Y-46435D01*
X450215Y-46517D01*
X448945Y-46177D01*
Y-40000D01*
X448912Y-39920D01*
X448937Y-39838D01*
X448674Y-39348D01*
X448461Y-38834D01*
X448382Y-38801D01*
X448341Y-38725D01*
X447360Y-37919D01*
X447277Y-37894D01*
X447230Y-37823D01*
X446684Y-37714D01*
X446152Y-37553D01*
X446085Y-37589D01*
X445065Y-37386D01*
X444267Y-36852D01*
X443733Y-36054D01*
X443728Y-36027D01*
X443596Y-35830D01*
X443577Y-35594D01*
X443538Y-35176D01*
X443663Y-34320D01*
X443710Y-34204D01*
X444267Y-33371D01*
X445065Y-32837D01*
X446085Y-32634D01*
X446152Y-32670D01*
X446684Y-32509D01*
X447230Y-32400D01*
X447277Y-32329D01*
X447360Y-32304D01*
X448341Y-31498D01*
X448382Y-31422D01*
X448461Y-31389D01*
X448674Y-30875D01*
X448937Y-30385D01*
X448912Y-30302D01*
X448945Y-30223D01*
Y-22774D01*
X450215Y-22434D01*
X450262Y-22516D01*
X451942Y-24196D01*
X454000Y-25384D01*
X456295Y-25999D01*
X458672D01*
X460967Y-25384D01*
X463025Y-24196D01*
X464705Y-22516D01*
X465893Y-20458D01*
X466508Y-18163D01*
Y-15786D01*
X465893Y-13491D01*
X464705Y-11433D01*
X463025Y-9753D01*
X460967Y-8565D01*
X458672Y-7950D01*
X456295D01*
X454000Y-8565D01*
X451942Y-9753D01*
X450262Y-11433D01*
X450215Y-11516D01*
X448945Y-11175D01*
Y-2243D01*
Y43306D01*
X449538D01*
X451032Y43924D01*
X452175Y45068D01*
X452794Y46561D01*
Y48178D01*
X452175Y49672D01*
X451032Y50815D01*
X449538Y51434D01*
X447922D01*
X446428Y50815D01*
X445449Y49836D01*
X444470Y50815D01*
X443404Y51256D01*
X443737Y52090D01*
X443733Y52408D01*
X443855Y52702D01*
X443726Y53015D01*
X443722Y53353D01*
X443494Y53575D01*
X443372Y53869D01*
X427627Y69614D01*
X403815Y93426D01*
X403440Y93581D01*
X403127Y93838D01*
X402879Y93814D01*
X402648Y93909D01*
X402274Y93754D01*
X401871Y93714D01*
X400700Y93089D01*
X400443Y92775D01*
X400106Y92550D01*
X400057Y92306D01*
X399899Y92113D01*
X399939Y91710D01*
X399860Y91312D01*
X399962Y90800D01*
X399774Y89858D01*
X399241Y89059D01*
X398442Y88526D01*
X397500Y88338D01*
X396558Y88526D01*
X395759Y89059D01*
X395226Y89858D01*
X395038Y90800D01*
X395226Y91742D01*
X395759Y92541D01*
X396558Y93074D01*
X397500Y93262D01*
X398012Y93160D01*
X398410Y93239D01*
X398813Y93199D01*
X399006Y93357D01*
X399250Y93406D01*
X399476Y93743D01*
X399789Y94000D01*
X400414Y95170D01*
X400454Y95574D01*
X400609Y95948D01*
X400514Y96179D01*
X400538Y96427D01*
X400281Y96740D01*
X400126Y97115D01*
X395584Y101657D01*
X395070Y101869D01*
X394579Y102132D01*
X394222Y102489D01*
X393793Y103256D01*
X393657Y103584D01*
X387962Y109279D01*
X387962Y109279D01*
X375011Y122230D01*
X374932Y122262D01*
X374891Y122338D01*
X374359Y122500D01*
X373845Y122713D01*
X373765Y122680D01*
X373683Y122705D01*
X372846Y122622D01*
X372489Y122431D01*
X372091Y122352D01*
X370947Y121588D01*
X370644Y121406D01*
X369404Y121489D01*
X369404D01*
X368372Y122147D01*
X368337Y122170D01*
X367804Y122969D01*
X367616Y123911D01*
X367804Y124853D01*
X368520Y125924D01*
X368599Y126322D01*
X368789Y126679D01*
X368872Y127516D01*
X368847Y127598D01*
X368880Y127677D01*
X368667Y128192D01*
X368506Y128724D01*
X368430Y128764D01*
X368397Y128844D01*
X256452Y240788D01*
X256008Y240973D01*
X255607Y241240D01*
X255423Y241277D01*
X254410Y241954D01*
X253938Y242048D01*
X253494Y242232D01*
X235712D01*
X235633Y242199D01*
X235551Y242224D01*
X235060Y241961D01*
X234546Y241749D01*
X234513Y241669D01*
X234437Y241628D01*
X233631Y240647D01*
X233606Y240564D01*
X233535Y240517D01*
X233426Y239971D01*
X233338Y239679D01*
X233337Y239678D01*
X233336Y239674D01*
X233265Y239439D01*
X233283Y239405D01*
X233086Y238414D01*
X232552Y237616D01*
X231754Y237082D01*
X230811Y236895D01*
X229869Y237082D01*
X229071Y237616D01*
X228537Y238414D01*
X228340Y239405D01*
X228358Y239439D01*
X228286Y239674D01*
X228286Y239678D01*
X228285Y239679D01*
X228196Y239971D01*
X228088Y240517D01*
X228016Y240564D01*
X227992Y240647D01*
X227186Y241628D01*
X227110Y241669D01*
X227077Y241749D01*
X226563Y241961D01*
X226072Y242224D01*
X225990Y242199D01*
X225911Y242232D01*
X218472D01*
X218169Y242106D01*
X217840Y242106D01*
X217609Y241874D01*
X217306Y241749D01*
X217180Y241445D01*
X216948Y241212D01*
X216423Y239942D01*
X216423Y239774D01*
X216329Y239634D01*
X216423Y239161D01*
X216424Y238680D01*
X216543Y238561D01*
X216576Y238396D01*
X217038Y237703D01*
X217226Y236761D01*
X217038Y235819D01*
X216505Y235020D01*
X215706Y234487D01*
X214764Y234299D01*
X213822Y234487D01*
X213023Y235020D01*
X212490Y235819D01*
X212302Y236761D01*
X212490Y237703D01*
X212952Y238396D01*
X212985Y238561D01*
X213105Y238680D01*
X213105Y239162D01*
X213199Y239634D01*
X213105Y239774D01*
X213105Y239942D01*
X212580Y241212D01*
X212348Y241445D01*
X212222Y241749D01*
X211919Y241874D01*
X211688Y242106D01*
X211360Y242106D01*
X211056Y242232D01*
X195217D01*
X194913Y242106D01*
X194585Y242106D01*
X194353Y241874D01*
X194051Y241749D01*
X193925Y241445D01*
X193692Y241212D01*
X193167Y239942D01*
X193167Y239774D01*
X193074Y239634D01*
X193168Y239161D01*
X193168Y238680D01*
X193287Y238561D01*
X193320Y238396D01*
X193783Y237703D01*
X193970Y236761D01*
X193783Y235819D01*
X193249Y235020D01*
X192451Y234487D01*
X191509Y234299D01*
X190567Y234487D01*
X189768Y235020D01*
X189234Y235819D01*
X189047Y236761D01*
X189234Y237703D01*
X189697Y238396D01*
X189730Y238561D01*
X189849Y238680D01*
X189849Y239162D01*
X189943Y239634D01*
X189850Y239774D01*
X189850Y239942D01*
X189325Y241212D01*
X189093Y241445D01*
X188967Y241749D01*
X188664Y241874D01*
X188433Y242106D01*
X188104Y242106D01*
X187800Y242232D01*
X177577D01*
X177498Y242199D01*
X177415Y242224D01*
X176925Y241961D01*
X176692Y241865D01*
X176568Y241840D01*
X176543Y241803D01*
X176411Y241749D01*
X176378Y241669D01*
X176302Y241628D01*
X176209Y241515D01*
X176091Y241127D01*
X175866Y240791D01*
X175615Y239527D01*
X175081Y238728D01*
X174282Y238194D01*
X173340Y238007D01*
X172398Y238194D01*
X171600Y238728D01*
X171066Y239527D01*
X170815Y240791D01*
X170590Y241127D01*
X170472Y241515D01*
X170379Y241628D01*
X170303Y241669D01*
X170270Y241749D01*
X170138Y241803D01*
X170113Y241840D01*
X169989Y241865D01*
X169756Y241961D01*
X169266Y242224D01*
X169183Y242199D01*
X169104Y242232D01*
X154431D01*
X154127Y242106D01*
X153799Y242106D01*
X153567Y241874D01*
X153265Y241749D01*
X153139Y241445D01*
X152907Y241212D01*
X152381Y239942D01*
X152382Y239774D01*
X152288Y239634D01*
X152382Y239161D01*
X152382Y238680D01*
X152501Y238561D01*
X152534Y238396D01*
X152997Y237703D01*
X153184Y236761D01*
X152997Y235819D01*
X152463Y235020D01*
X151665Y234487D01*
X150723Y234299D01*
X149781Y234487D01*
X148982Y235020D01*
X148448Y235819D01*
X148261Y236761D01*
X148448Y237703D01*
X148911Y238396D01*
X148944Y238561D01*
X149063Y238680D01*
X149064Y239162D01*
X149157Y239634D01*
X149064Y239774D01*
X149064Y239942D01*
X148539Y241212D01*
X148307Y241445D01*
X148181Y241749D01*
X147878Y241874D01*
X147647Y242106D01*
X147318Y242106D01*
X147015Y242232D01*
X133597D01*
X133517Y242199D01*
X133435Y242224D01*
X132944Y241961D01*
X132430Y241749D01*
X132398Y241669D01*
X132322Y241628D01*
X131279Y240359D01*
X131255Y240276D01*
X131183Y240228D01*
X131074Y239683D01*
X130913Y239150D01*
X130954Y239074D01*
X130937Y238990D01*
X130938Y238986D01*
X130750Y238043D01*
X130217Y237245D01*
X129418Y236711D01*
X128476Y236524D01*
X127534Y236711D01*
X126735Y237245D01*
X126202Y238043D01*
X126014Y238986D01*
X126015Y238990D01*
X125998Y239074D01*
X126039Y239150D01*
X125877Y239683D01*
X125769Y240228D01*
X125697Y240276D01*
X125672Y240359D01*
X124630Y241628D01*
X124554Y241669D01*
X124521Y241749D01*
X124007Y241961D01*
X123517Y242224D01*
X123434Y242199D01*
X123355Y242232D01*
X121318D01*
X121140Y242158D01*
X120950Y242190D01*
X120576Y241924D01*
X120152Y241749D01*
X120078Y241571D01*
X119921Y241459D01*
X119124Y240189D01*
X119022Y239588D01*
X118903Y238990D01*
X119055Y238227D01*
X118868Y237285D01*
X118334Y236486D01*
X117535Y235952D01*
X116593Y235765D01*
X115651Y235952D01*
X114852Y236486D01*
X114319Y237285D01*
X114131Y238227D01*
X114283Y238990D01*
X114164Y239587D01*
X114062Y240189D01*
X113265Y241459D01*
X113108Y241571D01*
X113034Y241749D01*
X112610Y241924D01*
X112236Y242190D01*
X112046Y242158D01*
X111868Y242232D01*
X108989D01*
X108885Y242189D01*
X108778Y242218D01*
X108315Y241953D01*
X107822Y241749D01*
X107780Y241645D01*
X107683Y241590D01*
X106703Y240319D01*
X106687Y240262D01*
X106638Y240229D01*
X106525Y239660D01*
X106373Y239101D01*
X106403Y239049D01*
X106391Y238990D01*
X106466Y238615D01*
X106279Y237673D01*
X105745Y236874D01*
X104946Y236341D01*
X104004Y236153D01*
X103062Y236341D01*
X102264Y236874D01*
X101667Y237768D01*
X101546Y237848D01*
X101495Y237983D01*
X101036Y238189D01*
X100617Y238469D01*
X100475Y238441D01*
X100344Y238500D01*
X99621Y238521D01*
X99396Y238436D01*
X99158Y238469D01*
X98559Y238314D01*
X98334Y238144D01*
X98057Y238089D01*
X97850Y237778D01*
X97551Y237553D01*
X97543Y237492D01*
X96871Y236486D01*
X96072Y235952D01*
X95130Y235765D01*
X94188Y235952D01*
X93389Y236486D01*
X92856Y237285D01*
X92668Y238227D01*
X92820Y238990D01*
X92702Y239587D01*
X92599Y240189D01*
X91802Y241459D01*
X91645Y241571D01*
X91572Y241749D01*
X91147Y241924D01*
X90773Y242190D01*
X90583Y242158D01*
X90405Y242232D01*
X48742D01*
X48663Y242199D01*
X48580Y242224D01*
X48090Y241961D01*
X47857Y241865D01*
X47733Y241840D01*
X47708Y241803D01*
X47576Y241749D01*
X47543Y241669D01*
X47467Y241628D01*
X47374Y241515D01*
X47256Y241127D01*
X47031Y240791D01*
X46780Y239527D01*
X46246Y238728D01*
X45448Y238194D01*
X44506Y238007D01*
X43563Y238194D01*
X42765Y238728D01*
X42231Y239527D01*
X41980Y240791D01*
X41755Y241127D01*
X41637Y241515D01*
X41544Y241628D01*
X41468Y241669D01*
X41435Y241749D01*
X41303Y241803D01*
X41278Y241840D01*
X41154Y241865D01*
X40921Y241961D01*
X40431Y242224D01*
X40349Y242199D01*
X40269Y242232D01*
X33592D01*
X33106Y243405D01*
X49857Y260156D01*
X313884D01*
X387277Y186763D01*
Y124462D01*
X387593Y122876D01*
X388491Y121532D01*
X427182Y82841D01*
X428526Y81943D01*
X430112Y81628D01*
X524040D01*
X524440Y81707D01*
X524849D01*
X525225Y81863D01*
X525626Y81943D01*
X525965Y82170D01*
X526342Y82326D01*
X526631Y82615D01*
X526970Y82841D01*
X527197Y83181D01*
X527485Y83469D01*
X527642Y83846D01*
X527868Y84186D01*
X527948Y84586D01*
X528104Y84963D01*
Y85371D01*
X528184Y85771D01*
X528104Y86172D01*
Y86580D01*
X527948Y86957D01*
X527868Y87357D01*
X527642Y87696D01*
X527485Y88074D01*
X527197Y88362D01*
X526970Y88701D01*
X526631Y88928D01*
X526342Y89217D01*
X525965Y89373D01*
X525626Y89600D01*
X525225Y89679D01*
X524849Y89835D01*
X524440D01*
X524040Y89915D01*
X431828D01*
X395565Y126178D01*
Y188479D01*
X395249Y190065D01*
X394351Y191409D01*
X318530Y267230D01*
X317186Y268128D01*
X315600Y268444D01*
D02*
G37*
G36*
X174589Y-7282D02*
X172689D01*
X170935Y-8009D01*
X169592Y-9352D01*
X168865Y-11106D01*
Y-13005D01*
X169592Y-14760D01*
X170935Y-16103D01*
X172689Y-16830D01*
X174589D01*
X176343Y-16103D01*
X177686Y-14760D01*
X178413Y-13005D01*
Y-11106D01*
X177686Y-9352D01*
X176343Y-8009D01*
X174589Y-7282D01*
D02*
G37*
G36*
X116789D02*
X114889D01*
X113135Y-8009D01*
X111792Y-9352D01*
X111065Y-11106D01*
Y-13005D01*
X111792Y-14760D01*
X113135Y-16103D01*
X114889Y-16830D01*
X116789D01*
X118543Y-16103D01*
X119886Y-14760D01*
X120613Y-13005D01*
Y-11106D01*
X119886Y-9352D01*
X118543Y-8009D01*
X116789Y-7282D01*
D02*
G37*
G36*
X187990Y5026D02*
X186287Y4802D01*
X184700Y4144D01*
X183337Y3099D01*
X182292Y1736D01*
X181634Y149D01*
X181410Y-1554D01*
Y-12555D01*
X181634Y-14258D01*
X182292Y-15845D01*
X183337Y-17208D01*
X184700Y-18254D01*
X186287Y-18911D01*
X187990Y-19135D01*
X189693Y-18911D01*
X191280Y-18254D01*
X192643Y-17208D01*
X193689Y-15845D01*
X194346Y-14258D01*
X194570Y-12555D01*
Y-1554D01*
X194346Y149D01*
X193689Y1736D01*
X192643Y3099D01*
X191280Y4144D01*
X189693Y4802D01*
X187990Y5026D01*
D02*
G37*
G36*
X101488D02*
X99785Y4802D01*
X98198Y4144D01*
X96835Y3099D01*
X95789Y1736D01*
X95132Y149D01*
X94908Y-1554D01*
Y-12555D01*
X95132Y-14258D01*
X95789Y-15845D01*
X96835Y-17208D01*
X98198Y-18254D01*
X99785Y-18911D01*
X101488Y-19135D01*
X103191Y-18911D01*
X104778Y-18254D01*
X106141Y-17208D01*
X107187Y-15845D01*
X107844Y-14258D01*
X108068Y-12555D01*
Y-1554D01*
X107844Y149D01*
X107187Y1736D01*
X106141Y3099D01*
X104778Y4144D01*
X103191Y4802D01*
X101488Y5026D01*
D02*
G37*
G36*
X129138Y-8239D02*
X127522D01*
X126028Y-8857D01*
X124885Y-10000D01*
X124266Y-11494D01*
Y-13111D01*
X124885Y-14605D01*
X126028Y-15748D01*
X127522Y-16367D01*
X129138D01*
X130632Y-15748D01*
X130653Y-15735D01*
X131532Y-15319D01*
X132125Y-15689D01*
X132450Y-15968D01*
X132858Y-16376D01*
X134352Y-16994D01*
X135969D01*
X137462Y-16376D01*
X138606Y-15232D01*
X139024Y-15149D01*
X139863Y-15988D01*
X141356Y-16607D01*
X142973D01*
X144467Y-15988D01*
X145308Y-15148D01*
X145735Y-15232D01*
X146878Y-16376D01*
X148372Y-16994D01*
X149989D01*
X151482Y-16376D01*
X152492Y-15366D01*
X153502Y-16376D01*
X153966Y-16568D01*
X154263Y-18066D01*
X153738Y-18591D01*
X153120Y-20085D01*
Y-20500D01*
X151878Y-21770D01*
X143711Y-21770D01*
X142760Y-21426D01*
X141616Y-20282D01*
X140123Y-19664D01*
X138506D01*
X137012Y-20282D01*
X135869Y-21426D01*
X134917Y-21770D01*
X15585Y-21770D01*
X14419Y-22253D01*
X4407Y-32265D01*
X3924Y-33431D01*
X3924Y-39687D01*
X4407Y-40853D01*
X11364Y-47811D01*
X12531Y-48294D01*
X62293Y-48292D01*
X62546Y-49562D01*
X62468Y-49595D01*
X61325Y-50738D01*
X60706Y-52231D01*
Y-53848D01*
X61325Y-55342D01*
X62289Y-56306D01*
X61326Y-57269D01*
X60707Y-58763D01*
Y-60380D01*
X61326Y-61873D01*
X62469Y-63017D01*
X63963Y-63635D01*
X65580D01*
X66848Y-63110D01*
X68183Y-63016D01*
X69327Y-64159D01*
X70820Y-64778D01*
X72437D01*
X73931Y-64159D01*
X74075Y-64015D01*
X74545Y-64066D01*
X75459Y-64428D01*
X75964Y-65647D01*
X77107Y-66790D01*
X78601Y-67409D01*
X80218D01*
X81711Y-66790D01*
X82854Y-65647D01*
X83473Y-64153D01*
Y-63093D01*
X83539Y-62500D01*
X84592Y-61919D01*
X85221D01*
X86715Y-61301D01*
X87858Y-60157D01*
X88477Y-58664D01*
Y-57047D01*
X87858Y-55553D01*
X86715Y-54410D01*
X85221Y-53791D01*
X83604D01*
X82111Y-54410D01*
X81926Y-54595D01*
X80452Y-54355D01*
X79309Y-53211D01*
X77815Y-52593D01*
X76198D01*
X74704Y-53211D01*
X73561Y-54355D01*
X73071Y-55538D01*
X72437Y-56650D01*
X70820D01*
X69552Y-57175D01*
X68217Y-57269D01*
X67252Y-56305D01*
X68216Y-55342D01*
X68834Y-53848D01*
Y-52231D01*
X68216Y-50738D01*
X67073Y-49595D01*
X66994Y-49562D01*
X67247Y-48292D01*
X93505Y-48291D01*
X94403Y-49189D01*
Y-51855D01*
X94644Y-53689D01*
X95352Y-55398D01*
X96478Y-56865D01*
X97945Y-57991D01*
X99654Y-58699D01*
X101488Y-58940D01*
X103322Y-58699D01*
X105030Y-57991D01*
X106498Y-56865D01*
X107624Y-55398D01*
X108331Y-53689D01*
X108573Y-51855D01*
Y-49340D01*
X109043Y-48713D01*
X110481Y-48636D01*
X127108Y-65319D01*
X127553Y-65504D01*
X127954Y-65772D01*
X128119Y-65739D01*
X128273Y-65804D01*
X128719Y-65620D01*
X129192Y-65526D01*
X129433Y-65365D01*
X130376Y-65177D01*
X131318Y-65365D01*
X132116Y-65898D01*
X132587Y-66603D01*
X132915Y-66822D01*
X132948Y-66902D01*
X133122Y-66974D01*
X133463Y-67260D01*
X133619Y-67309D01*
X133876Y-67286D01*
X134114Y-67385D01*
X135214D01*
X135452Y-67286D01*
X135709Y-67309D01*
X135865Y-67260D01*
X136206Y-66974D01*
X136380Y-66902D01*
X136413Y-66822D01*
X136741Y-66603D01*
X137212Y-65898D01*
X138010Y-65365D01*
X138953Y-65177D01*
X139895Y-65365D01*
X140693Y-65898D01*
X141164Y-66603D01*
X141492Y-66822D01*
X141525Y-66902D01*
X141699Y-66974D01*
X142040Y-67260D01*
X142196Y-67309D01*
X142453Y-67286D01*
X142691Y-67385D01*
X143791D01*
X144029Y-67286D01*
X144286Y-67309D01*
X144442Y-67260D01*
X144783Y-66974D01*
X144957Y-66902D01*
X144990Y-66822D01*
X145318Y-66603D01*
X145789Y-65898D01*
X146587Y-65365D01*
X147529Y-65177D01*
X148471Y-65365D01*
X149270Y-65898D01*
X149741Y-66603D01*
X150069Y-66822D01*
X150102Y-66902D01*
X150276Y-66974D01*
X150617Y-67260D01*
X150772Y-67309D01*
X151030Y-67286D01*
X151268Y-67385D01*
X152368D01*
X152606Y-67286D01*
X152863Y-67309D01*
X153019Y-67260D01*
X153360Y-66974D01*
X153534Y-66902D01*
X153567Y-66822D01*
X153895Y-66603D01*
X154366Y-65898D01*
X155164Y-65365D01*
X156106Y-65177D01*
X157048Y-65365D01*
X157847Y-65898D01*
X158318Y-66603D01*
X158645Y-66822D01*
X158679Y-66902D01*
X158853Y-66974D01*
X159194Y-67260D01*
X159349Y-67309D01*
X159607Y-67286D01*
X159845Y-67385D01*
X160945D01*
X161183Y-67286D01*
X161440Y-67309D01*
X161596Y-67260D01*
X161936Y-66974D01*
X162111Y-66902D01*
X162144Y-66822D01*
X162472Y-66603D01*
X162943Y-65898D01*
X163741Y-65365D01*
X164683Y-65177D01*
X165625Y-65365D01*
X166424Y-65898D01*
X167069Y-66864D01*
X167155Y-66922D01*
X167164Y-66957D01*
X167492Y-67150D01*
X167840Y-67484D01*
X167881Y-67500D01*
X168017Y-67497D01*
X168119Y-67565D01*
X168178Y-67554D01*
X168252Y-67597D01*
X168808Y-67675D01*
X168944Y-67640D01*
X169075Y-67691D01*
X169838Y-67674D01*
X169975Y-67613D01*
X170122Y-67642D01*
X170537Y-67365D01*
X170993Y-67164D01*
X171047Y-67024D01*
X171172Y-66941D01*
X171647Y-66230D01*
X172446Y-65696D01*
X173388Y-65509D01*
X174330Y-65696D01*
X175129Y-66230D01*
X175599Y-66934D01*
X175927Y-67153D01*
X175960Y-67233D01*
X176135Y-67305D01*
X176475Y-67591D01*
X176631Y-67640D01*
X176888Y-67617D01*
X177127Y-67716D01*
X178226D01*
X178465Y-67617D01*
X178722Y-67640D01*
X178878Y-67591D01*
X179218Y-67305D01*
X179393Y-67233D01*
X179426Y-67153D01*
X179754Y-66934D01*
X180224Y-66230D01*
X181023Y-65696D01*
X181965Y-65509D01*
X182907Y-65696D01*
X183706Y-66230D01*
X184176Y-66934D01*
X184504Y-67153D01*
X184537Y-67233D01*
X184712Y-67305D01*
X185052Y-67591D01*
X185208Y-67640D01*
X185465Y-67617D01*
X185704Y-67716D01*
X186803D01*
X187042Y-67617D01*
X187299Y-67640D01*
X187455Y-67591D01*
X187795Y-67305D01*
X187970Y-67233D01*
X188003Y-67153D01*
X188331Y-66934D01*
X188801Y-66230D01*
X189600Y-65696D01*
X190542Y-65509D01*
X191484Y-65696D01*
X192283Y-66230D01*
X192816Y-67028D01*
X192989Y-67895D01*
X193256Y-68295D01*
X193440Y-68739D01*
X193596Y-68804D01*
X193690Y-68944D01*
X194162Y-69038D01*
X194606Y-69222D01*
X211967D01*
X212411Y-69038D01*
X212883Y-68944D01*
X212977Y-68804D01*
X213133Y-68739D01*
X213318Y-68295D01*
X213585Y-67895D01*
X213757Y-67028D01*
X214291Y-66230D01*
X215089Y-65696D01*
X216031Y-65509D01*
X216973Y-65696D01*
X217772Y-66230D01*
X217825Y-66309D01*
X217966Y-66403D01*
X218030Y-66559D01*
X218475Y-66743D01*
X218875Y-67010D01*
X219041Y-66977D01*
X219197Y-67042D01*
X220724D01*
X220880Y-66977D01*
X221046Y-67010D01*
X221446Y-66743D01*
X221890Y-66559D01*
X221955Y-66403D01*
X222096Y-66309D01*
X222148Y-66230D01*
X222947Y-65696D01*
X223889Y-65509D01*
X224831Y-65696D01*
X225630Y-66230D01*
X226164Y-67028D01*
X226336Y-67895D01*
X226603Y-68295D01*
X226787Y-68739D01*
X226943Y-68804D01*
X227037Y-68944D01*
X227509Y-69038D01*
X227954Y-69222D01*
X244036D01*
X244480Y-69038D01*
X244952Y-68944D01*
X245046Y-68804D01*
X245202Y-68739D01*
X245386Y-68295D01*
X245653Y-67895D01*
X245826Y-67028D01*
X246359Y-66230D01*
X247158Y-65696D01*
X248100Y-65509D01*
X249042Y-65696D01*
X249915Y-66279D01*
X250263Y-66348D01*
X250564Y-66536D01*
X251373Y-66668D01*
X251510Y-66636D01*
X251640Y-66690D01*
X251660D01*
X251790Y-66636D01*
X251927Y-66668D01*
X252736Y-66536D01*
X253037Y-66348D01*
X253385Y-66279D01*
X254258Y-65696D01*
X255200Y-65509D01*
X256142Y-65696D01*
X256941Y-66230D01*
X257474Y-67028D01*
X257647Y-67895D01*
X257914Y-68295D01*
X258098Y-68739D01*
X258254Y-68804D01*
X258348Y-68944D01*
X258820Y-69038D01*
X259265Y-69222D01*
X272236D01*
X272680Y-69038D01*
X273152Y-68944D01*
X273246Y-68804D01*
X273402Y-68739D01*
X273586Y-68295D01*
X273853Y-67895D01*
X274026Y-67028D01*
X274559Y-66230D01*
X275358Y-65696D01*
X276300Y-65509D01*
X277242Y-65696D01*
X278041Y-66230D01*
X278094Y-66310D01*
X278235Y-66403D01*
X278299Y-66560D01*
X278744Y-66744D01*
X279144Y-67011D01*
X279310Y-66978D01*
X279466Y-67043D01*
X280993D01*
X281149Y-66978D01*
X281315Y-67011D01*
X281715Y-66744D01*
X282160Y-66560D01*
X282224Y-66403D01*
X282365Y-66310D01*
X282418Y-66230D01*
X283217Y-65696D01*
X284159Y-65509D01*
X285101Y-65696D01*
X285900Y-66230D01*
X286433Y-67028D01*
X286605Y-67895D01*
X286873Y-68295D01*
X287057Y-68739D01*
X287213Y-68804D01*
X287307Y-68944D01*
X287779Y-69038D01*
X288223Y-69222D01*
X310668D01*
X310669Y-69222D01*
X310670Y-69222D01*
X323453Y-69209D01*
X324029Y-68970D01*
X324618Y-68726D01*
X333417Y-59918D01*
X333657Y-59339D01*
X333900Y-58752D01*
X333900Y-42000D01*
X333416Y-40834D01*
X332250Y-40350D01*
X235413D01*
X217316Y-22253D01*
X216150Y-21770D01*
X161293Y-21770D01*
X161248Y-21701D01*
Y-20085D01*
X160629Y-18591D01*
X159486Y-17448D01*
X159022Y-17256D01*
X158724Y-15758D01*
X159249Y-15232D01*
X159868Y-13739D01*
Y-12122D01*
X159249Y-10628D01*
X158106Y-9485D01*
X156612Y-8866D01*
X154995D01*
X153502Y-9485D01*
X152492Y-10495D01*
X151482Y-9485D01*
X149989Y-8866D01*
X148372D01*
X146878Y-9485D01*
X146037Y-10326D01*
X145610Y-10241D01*
X144467Y-9098D01*
X142973Y-8479D01*
X141356D01*
X139863Y-9098D01*
X138720Y-10241D01*
X138301Y-10324D01*
X137462Y-9485D01*
X135969Y-8866D01*
X134352D01*
X132858Y-9485D01*
X132858Y-9485D01*
X132838Y-9498D01*
X131775Y-10000D01*
X130632Y-8857D01*
X129138Y-8239D01*
D02*
G37*
%LPD*%
G36*
X254780Y239723D02*
X255286Y239622D01*
X367230Y127677D01*
X367148Y126841D01*
X366250Y125497D01*
X365934Y123911D01*
X366250Y122325D01*
X367148Y120981D01*
X368492Y120083D01*
X368568Y120068D01*
X368724Y119469D01*
X368702Y118746D01*
X367536Y117967D01*
X366638Y116622D01*
X366323Y115037D01*
X366638Y113451D01*
X367536Y112107D01*
X368880Y111208D01*
X370466Y110893D01*
X372052Y111208D01*
X373396Y112107D01*
X374294Y113451D01*
X374610Y115037D01*
X374294Y116622D01*
X373396Y117967D01*
X372052Y118865D01*
X371976Y118880D01*
X371820Y119479D01*
X371842Y120202D01*
X373008Y120981D01*
X373845Y121063D01*
X386795Y108113D01*
X392490Y102418D01*
X391681Y101431D01*
X391386Y101628D01*
X389800Y101944D01*
X388214Y101628D01*
X386870Y100730D01*
X385972Y99386D01*
X385656Y97800D01*
X385972Y96214D01*
X386870Y94870D01*
X388214Y93972D01*
X389800Y93656D01*
X391386Y93972D01*
X392730Y94870D01*
X393628Y96214D01*
X393944Y97800D01*
X393628Y99386D01*
X393431Y99681D01*
X394418Y100490D01*
X398960Y95948D01*
X398334Y94778D01*
X397500Y94944D01*
X395914Y94628D01*
X394570Y93730D01*
X393672Y92386D01*
X393356Y90800D01*
X393672Y89214D01*
X394570Y87870D01*
X395914Y86972D01*
X397500Y86656D01*
X399086Y86972D01*
X400430Y87870D01*
X401328Y89214D01*
X401644Y90800D01*
X401478Y91634D01*
X402648Y92260D01*
X426460Y68448D01*
X442206Y52702D01*
X441693Y51419D01*
X440583Y51198D01*
X439238Y50300D01*
X438340Y48955D01*
X438025Y47370D01*
X438340Y45784D01*
X439238Y44440D01*
X440583Y43541D01*
X442168Y43226D01*
X443754Y43541D01*
X444528Y44058D01*
X445449Y44335D01*
X446371Y44058D01*
X447144Y43541D01*
X447295Y43512D01*
Y-2243D01*
Y-30223D01*
X446313Y-31029D01*
X446007Y-30968D01*
X444422Y-31283D01*
X443078Y-32181D01*
X442338Y-33288D01*
X441358Y-33263D01*
X441017Y-33154D01*
X440948Y-32805D01*
X440049Y-31461D01*
X438705Y-30563D01*
X437119Y-30247D01*
X435534Y-30563D01*
X434189Y-31461D01*
X433975Y-31781D01*
X432448D01*
X432170Y-31365D01*
X430826Y-30466D01*
X429240Y-30151D01*
X427654Y-30466D01*
X426310Y-31365D01*
X425412Y-32709D01*
X425096Y-34295D01*
X425412Y-35880D01*
X426310Y-37225D01*
X427654Y-38123D01*
X429240Y-38438D01*
X430826Y-38123D01*
X432170Y-37225D01*
X432384Y-36905D01*
X433911D01*
X434189Y-37321D01*
X435534Y-38219D01*
X437119Y-38534D01*
X438705Y-38219D01*
X440049Y-37321D01*
X440788Y-36215D01*
X441769Y-36240D01*
X442110Y-36349D01*
X442179Y-36697D01*
X443078Y-38041D01*
X444422Y-38940D01*
X446007Y-39255D01*
X446313Y-39194D01*
X447295Y-40000D01*
Y-60361D01*
X444892Y-62763D01*
X422745D01*
X386795Y-26814D01*
Y27025D01*
X342258Y71562D01*
X343028Y72714D01*
X343344Y74300D01*
X343028Y75886D01*
X342130Y77230D01*
X340786Y78128D01*
X339200Y78444D01*
X337614Y78128D01*
X336462Y77358D01*
X228390Y185430D01*
X130585D01*
X129595Y186700D01*
X129730Y187375D01*
X129414Y188960D01*
X128516Y190305D01*
X127172Y191203D01*
X125586Y191518D01*
X124000Y191203D01*
X122656Y190305D01*
X121758Y188960D01*
X121442Y187375D01*
X121577Y186700D01*
X120587Y185430D01*
X68561D01*
X37488Y154356D01*
X-1167D01*
X-1483Y155942D01*
X-2381Y157286D01*
X-3725Y158184D01*
X-5311Y158500D01*
X-6896Y158184D01*
X-8241Y157286D01*
X-9139Y155942D01*
X-9454Y154356D01*
X-29050D01*
X-35034Y160340D01*
Y176160D01*
X-2542Y208652D01*
X-1369Y208166D01*
Y198661D01*
X-1516Y198603D01*
X-2639Y198450D01*
X-3383Y199564D01*
X-4727Y200462D01*
X-6313Y200777D01*
X-7899Y200462D01*
X-9243Y199564D01*
X-10141Y198219D01*
X-10457Y196633D01*
X-10141Y195048D01*
X-9243Y193703D01*
X-7899Y192805D01*
X-6313Y192490D01*
X-4727Y192805D01*
X-3383Y193703D01*
X-2485Y195048D01*
X-2441Y195265D01*
X-1147D01*
X-1053Y194796D01*
X-155Y193452D01*
X1189Y192554D01*
X2775Y192238D01*
X4361Y192554D01*
X5705Y193452D01*
X6603Y194796D01*
X6919Y196382D01*
Y217218D01*
X11288Y221587D01*
X12274Y220777D01*
X11987Y220348D01*
X11672Y218762D01*
X11987Y217176D01*
X12886Y215832D01*
X14230Y214934D01*
X15816Y214618D01*
X17401Y214934D01*
X18746Y215832D01*
X19644Y217176D01*
X19959Y218762D01*
X19644Y220348D01*
X18746Y221692D01*
X17401Y222590D01*
X15816Y222906D01*
X14230Y222590D01*
X13800Y222303D01*
X12991Y223290D01*
X25027Y235326D01*
X26014Y234517D01*
X25727Y234087D01*
X25412Y232502D01*
X25727Y230916D01*
X26625Y229572D01*
X27969Y228673D01*
X29555Y228358D01*
X31141Y228673D01*
X32485Y229572D01*
X33383Y230916D01*
X33699Y232502D01*
X33383Y234087D01*
X32485Y235432D01*
X31141Y236330D01*
X29555Y236645D01*
X27969Y236330D01*
X27540Y236043D01*
X26730Y237029D01*
X30283Y240582D01*
X40269D01*
X40362Y240469D01*
X40677Y238883D01*
X41576Y237539D01*
X42920Y236640D01*
X44506Y236325D01*
X46091Y236640D01*
X47436Y237539D01*
X48334Y238883D01*
X48649Y240469D01*
X48742Y240582D01*
X90405D01*
X91202Y239312D01*
X90986Y238227D01*
X91302Y236641D01*
X92200Y235297D01*
X93544Y234398D01*
X95130Y234083D01*
X96716Y234398D01*
X98060Y235297D01*
X98958Y236641D01*
X98974Y236717D01*
X99572Y236872D01*
X100295Y236851D01*
X101074Y235685D01*
X102419Y234787D01*
X104004Y234471D01*
X105590Y234787D01*
X106934Y235685D01*
X107832Y237029D01*
X108148Y238615D01*
X108009Y239312D01*
X108989Y240582D01*
X111868D01*
X112665Y239312D01*
X112450Y238227D01*
X112765Y236641D01*
X113663Y235297D01*
X115007Y234398D01*
X116593Y234083D01*
X118179Y234398D01*
X119523Y235297D01*
X120421Y236641D01*
X120737Y238227D01*
X120521Y239312D01*
X121318Y240582D01*
X123355D01*
X124397Y239312D01*
X124332Y238986D01*
X124648Y237400D01*
X125546Y236056D01*
X126890Y235157D01*
X128476Y234842D01*
X130062Y235157D01*
X131406Y236056D01*
X132304Y237400D01*
X132619Y238986D01*
X132555Y239312D01*
X133597Y240582D01*
X147015D01*
X147540Y239312D01*
X146895Y238347D01*
X146579Y236761D01*
X146895Y235175D01*
X147793Y233831D01*
X149137Y232933D01*
X150723Y232617D01*
X152308Y232933D01*
X153653Y233831D01*
X154551Y235175D01*
X154866Y236761D01*
X154551Y238347D01*
X153906Y239312D01*
X154431Y240582D01*
X169104D01*
X169197Y240469D01*
X169512Y238883D01*
X170410Y237539D01*
X171755Y236640D01*
X173340Y236325D01*
X174926Y236640D01*
X176270Y237539D01*
X177169Y238883D01*
X177484Y240469D01*
X177577Y240582D01*
X187800D01*
X188326Y239312D01*
X187680Y238347D01*
X187365Y236761D01*
X187680Y235175D01*
X188579Y233831D01*
X189923Y232933D01*
X191509Y232617D01*
X193094Y232933D01*
X194439Y233831D01*
X195337Y235175D01*
X195652Y236761D01*
X195337Y238347D01*
X194692Y239312D01*
X195217Y240582D01*
X211056D01*
X211581Y239312D01*
X210936Y238347D01*
X210620Y236761D01*
X210936Y235175D01*
X211834Y233831D01*
X213178Y232933D01*
X214764Y232617D01*
X216350Y232933D01*
X217694Y233831D01*
X218592Y235175D01*
X218908Y236761D01*
X218592Y238347D01*
X217947Y239312D01*
X218472Y240582D01*
X225911D01*
X226716Y239600D01*
X226668Y239356D01*
X226983Y237771D01*
X227881Y236426D01*
X229226Y235528D01*
X230811Y235213D01*
X232397Y235528D01*
X233741Y236426D01*
X234640Y237771D01*
X234955Y239356D01*
X234907Y239600D01*
X235712Y240582D01*
X253494D01*
X254780Y239723D01*
D02*
G37*
G36*
X-22039Y218539D02*
Y197246D01*
X-39986Y179299D01*
Y162959D01*
X-23690Y146663D01*
X-8669D01*
X-7990Y145393D01*
X-8088Y145246D01*
X-8403Y143661D01*
X-8088Y142075D01*
X-7190Y140731D01*
X-5846Y139832D01*
X-4260Y139517D01*
X-2674Y139832D01*
X-1330Y140731D01*
X-432Y142075D01*
X-116Y143661D01*
X-432Y145246D01*
X-530Y145393D01*
X149Y146663D01*
X38563D01*
X71386Y179485D01*
X93679D01*
X94485Y178504D01*
X94416Y178156D01*
X94731Y176570D01*
X95629Y175226D01*
X96973Y174327D01*
X98559Y174012D01*
X100145Y174327D01*
X101489Y175226D01*
X102387Y176570D01*
X102703Y178156D01*
X102633Y178504D01*
X103439Y179485D01*
X220459D01*
X269685Y129832D01*
X269056Y128662D01*
X268838Y128705D01*
X267252Y128390D01*
X265908Y127492D01*
X265010Y126147D01*
X264694Y124562D01*
X265010Y122976D01*
X265908Y121632D01*
X266485Y121246D01*
X266269Y119908D01*
X264925Y119010D01*
X264027Y117666D01*
X263711Y116080D01*
X264027Y114494D01*
X264925Y113150D01*
X266269Y112252D01*
X267855Y111937D01*
X269441Y112252D01*
X270785Y113150D01*
X271683Y114494D01*
X271999Y116080D01*
X271683Y117666D01*
X270785Y119010D01*
X270208Y119396D01*
X270424Y120733D01*
X271768Y121632D01*
X272666Y122976D01*
X272982Y124562D01*
X272947Y124738D01*
X274118Y125360D01*
X308119Y91063D01*
X307491Y89894D01*
X306296Y90131D01*
X304710Y89816D01*
X303366Y88918D01*
X302468Y87573D01*
X302152Y85988D01*
X302468Y84402D01*
X303366Y83058D01*
X304710Y82159D01*
X306296Y81844D01*
X307882Y82159D01*
X309226Y83058D01*
X310124Y84402D01*
X310440Y85988D01*
X310208Y87153D01*
X311379Y87776D01*
X322527Y76530D01*
X321791Y-8630D01*
X315219Y-15146D01*
X256146D01*
X232750Y8250D01*
X195139D01*
X194460Y9520D01*
X194589Y9714D01*
X194905Y11299D01*
X194589Y12885D01*
X193691Y14229D01*
X192347Y15128D01*
X190761Y15443D01*
X189175Y15128D01*
X187831Y14229D01*
X186933Y12885D01*
X186618Y11299D01*
X186933Y9714D01*
X187062Y9520D01*
X186383Y8250D01*
X173745D01*
X173095Y9042D01*
X172779Y10628D01*
X171881Y11972D01*
X170537Y12871D01*
X168951Y13186D01*
X164134D01*
X162548Y12871D01*
X161204Y11972D01*
X157520Y8288D01*
X141999D01*
X141879Y8512D01*
X141455Y9558D01*
X141734Y10960D01*
X141419Y12546D01*
X140520Y13890D01*
X139176Y14789D01*
X137590Y15104D01*
X136005Y14789D01*
X134660Y13890D01*
X133762Y12546D01*
X133447Y10960D01*
X133726Y9558D01*
X133301Y8512D01*
X133181Y8288D01*
X127013D01*
X123669Y11633D01*
X122324Y12531D01*
X120739Y12846D01*
X119153Y12531D01*
X117809Y11633D01*
X116910Y10288D01*
X116595Y8703D01*
X116223Y8250D01*
X50250D01*
X27339Y31161D01*
X-3419Y31161D01*
X-3574Y31938D01*
X-4472Y33282D01*
X-5816Y34180D01*
X-7402Y34496D01*
X-8988Y34180D01*
X-10332Y33282D01*
X-11230Y31938D01*
X-11385Y31161D01*
X-48260Y31160D01*
X-62468Y45368D01*
Y215032D01*
X-52500Y225000D01*
X-28500D01*
X-22039Y218539D01*
D02*
G37*
%LPC*%
G36*
X67600Y239294D02*
X66014Y238978D01*
X64670Y238080D01*
X63772Y236736D01*
X63456Y235150D01*
X63772Y233564D01*
X64670Y232220D01*
X66014Y231322D01*
X67600Y231006D01*
X69185Y231322D01*
X70530Y232220D01*
X71428Y233564D01*
X71743Y235150D01*
X71428Y236736D01*
X70530Y238080D01*
X69185Y238978D01*
X67600Y239294D01*
D02*
G37*
G36*
X61856Y229416D02*
X60270Y229101D01*
X58926Y228203D01*
X58028Y226858D01*
X57712Y225273D01*
X58028Y223687D01*
X58926Y222343D01*
X60270Y221444D01*
X61856Y221129D01*
X63442Y221444D01*
X64786Y222343D01*
X65684Y223687D01*
X66000Y225273D01*
X65684Y226858D01*
X64786Y228203D01*
X63442Y229101D01*
X61856Y229416D01*
D02*
G37*
G36*
X52590Y224283D02*
X51004Y223968D01*
X49660Y223070D01*
X48761Y221726D01*
X48446Y220140D01*
X48761Y218554D01*
X49660Y217210D01*
X51004Y216312D01*
X52590Y215996D01*
X54175Y216312D01*
X55519Y217210D01*
X56418Y218554D01*
X56733Y220140D01*
X56418Y221726D01*
X55519Y223070D01*
X54175Y223968D01*
X52590Y224283D01*
D02*
G37*
G36*
X135373Y216088D02*
X133788Y215773D01*
X132443Y214875D01*
X131584Y213589D01*
X130805Y213469D01*
X130247Y213516D01*
X129429Y214741D01*
X128085Y215639D01*
X126499Y215954D01*
X124913Y215639D01*
X123569Y214741D01*
X122671Y213396D01*
X122355Y211811D01*
X122671Y210225D01*
X123569Y208881D01*
X124913Y207982D01*
X126499Y207667D01*
X128085Y207982D01*
X129429Y208881D01*
X130288Y210167D01*
X131068Y210286D01*
X131625Y210239D01*
X132443Y209015D01*
X133788Y208117D01*
X135373Y207801D01*
X136959Y208117D01*
X138303Y209015D01*
X139201Y210359D01*
X139517Y211945D01*
X139201Y213531D01*
X138303Y214875D01*
X136959Y215773D01*
X135373Y216088D01*
D02*
G37*
G36*
X202699Y218621D02*
X201113Y218306D01*
X199769Y217408D01*
X198871Y216063D01*
X198556Y214478D01*
X198871Y212892D01*
X199769Y211548D01*
X201113Y210649D01*
X202699Y210334D01*
X204285Y210649D01*
X205629Y211548D01*
X206527Y212892D01*
X206843Y214478D01*
X206527Y216063D01*
X205629Y217408D01*
X204285Y218306D01*
X202699Y218621D01*
D02*
G37*
G36*
X190634Y218113D02*
X189048Y217798D01*
X187704Y216900D01*
X186806Y215555D01*
X186490Y213970D01*
X186806Y212384D01*
X187704Y211040D01*
X189048Y210141D01*
X190634Y209826D01*
X192220Y210141D01*
X193564Y211040D01*
X194462Y212384D01*
X194778Y213970D01*
X194462Y215555D01*
X193564Y216900D01*
X192220Y217798D01*
X190634Y218113D01*
D02*
G37*
G36*
X159845Y216459D02*
X158259Y216144D01*
X156915Y215245D01*
X156017Y213901D01*
X155701Y212316D01*
X156017Y210730D01*
X156915Y209386D01*
X158259Y208487D01*
X159845Y208172D01*
X161431Y208487D01*
X162775Y209386D01*
X163673Y210730D01*
X163988Y212316D01*
X163673Y213901D01*
X162775Y215245D01*
X161431Y216144D01*
X159845Y216459D01*
D02*
G37*
G36*
X254171Y216433D02*
X252585Y216118D01*
X251241Y215219D01*
X250342Y213875D01*
X250027Y212289D01*
X250342Y210704D01*
X251241Y209359D01*
X252585Y208461D01*
X254171Y208146D01*
X255756Y208461D01*
X257101Y209359D01*
X257999Y210704D01*
X258314Y212289D01*
X257999Y213875D01*
X257101Y215219D01*
X255756Y216118D01*
X254171Y216433D01*
D02*
G37*
G36*
X216767D02*
X215181Y216118D01*
X213837Y215219D01*
X212938Y213875D01*
X212623Y212289D01*
X212938Y210704D01*
X213837Y209359D01*
X215181Y208461D01*
X216767Y208146D01*
X218352Y208461D01*
X219697Y209359D01*
X220595Y210704D01*
X220910Y212289D01*
X220595Y213875D01*
X219697Y215219D01*
X218352Y216118D01*
X216767Y216433D01*
D02*
G37*
G36*
X230811Y215954D02*
X229226Y215639D01*
X227881Y214741D01*
X226983Y213396D01*
X226668Y211811D01*
X226983Y210225D01*
X227881Y208881D01*
X229226Y207982D01*
X230811Y207667D01*
X232397Y207982D01*
X233741Y208881D01*
X234640Y210225D01*
X234955Y211811D01*
X234640Y213396D01*
X233741Y214741D01*
X232397Y215639D01*
X230811Y215954D01*
D02*
G37*
G36*
X147962D02*
X146376Y215639D01*
X145032Y214741D01*
X144134Y213396D01*
X143819Y211811D01*
X144134Y210225D01*
X145032Y208881D01*
X146376Y207982D01*
X147962Y207667D01*
X149548Y207982D01*
X150892Y208881D01*
X151790Y210225D01*
X152106Y211811D01*
X151790Y213396D01*
X150892Y214741D01*
X149548Y215639D01*
X147962Y215954D01*
D02*
G37*
G36*
X38371Y210065D02*
X36785Y209749D01*
X35441Y208851D01*
X34543Y207507D01*
X34227Y205921D01*
X34543Y204335D01*
X35441Y202991D01*
X36785Y202093D01*
X38371Y201777D01*
X39956Y202093D01*
X41301Y202991D01*
X42199Y204335D01*
X42514Y205921D01*
X42199Y207507D01*
X41301Y208851D01*
X39956Y209749D01*
X38371Y210065D01*
D02*
G37*
G36*
X35950Y195491D02*
X34364Y195176D01*
X33020Y194278D01*
X32122Y192933D01*
X31806Y191348D01*
X32122Y189762D01*
X33020Y188418D01*
X34364Y187519D01*
X35950Y187204D01*
X37536Y187519D01*
X38880Y188418D01*
X39778Y189762D01*
X40094Y191348D01*
X39778Y192933D01*
X38880Y194278D01*
X37536Y195176D01*
X35950Y195491D01*
D02*
G37*
G36*
X216767Y195338D02*
X215181Y195023D01*
X213837Y194125D01*
X212938Y192780D01*
X212623Y191194D01*
X212938Y189609D01*
X213837Y188265D01*
X215181Y187366D01*
X216767Y187051D01*
X218352Y187366D01*
X219697Y188265D01*
X220595Y189609D01*
X220910Y191194D01*
X220595Y192780D01*
X219697Y194125D01*
X218352Y195023D01*
X216767Y195338D01*
D02*
G37*
G36*
X199589D02*
X198004Y195023D01*
X196659Y194125D01*
X195761Y192780D01*
X195446Y191194D01*
X195761Y189609D01*
X196659Y188265D01*
X198004Y187366D01*
X199589Y187051D01*
X201175Y187366D01*
X202519Y188265D01*
X203417Y189609D01*
X203733Y191194D01*
X203417Y192780D01*
X202519Y194125D01*
X201175Y195023D01*
X199589Y195338D01*
D02*
G37*
G36*
X268838Y194149D02*
X267252Y193834D01*
X265908Y192936D01*
X265010Y191591D01*
X264694Y190006D01*
X265010Y188420D01*
X265908Y187076D01*
X267252Y186177D01*
X268838Y185862D01*
X270424Y186177D01*
X271768Y187076D01*
X272666Y188420D01*
X272982Y190006D01*
X272666Y191591D01*
X271768Y192936D01*
X270424Y193834D01*
X268838Y194149D01*
D02*
G37*
G36*
X35728Y180756D02*
X34142Y180441D01*
X32798Y179542D01*
X31900Y178198D01*
X31584Y176612D01*
X31900Y175027D01*
X32798Y173682D01*
X34142Y172784D01*
X35728Y172469D01*
X37314Y172784D01*
X38658Y173682D01*
X39556Y175027D01*
X39871Y176612D01*
X39556Y178198D01*
X38658Y179542D01*
X37314Y180441D01*
X35728Y180756D01*
D02*
G37*
G36*
X-27764Y179074D02*
X-29350Y178759D01*
X-30694Y177861D01*
X-31593Y176517D01*
X-31908Y174931D01*
X-31593Y173345D01*
X-30694Y172001D01*
X-29350Y171103D01*
X-27764Y170787D01*
X-26179Y171103D01*
X-24834Y172001D01*
X-23936Y173345D01*
X-23621Y174931D01*
X-23936Y176517D01*
X-24834Y177861D01*
X-26179Y178759D01*
X-27764Y179074D01*
D02*
G37*
G36*
X278070Y152271D02*
X276484Y151956D01*
X275140Y151058D01*
X274242Y149713D01*
X273927Y148128D01*
X274242Y146542D01*
X275140Y145198D01*
X276484Y144299D01*
X278070Y143984D01*
X279656Y144299D01*
X281000Y145198D01*
X281898Y146542D01*
X282214Y148128D01*
X281898Y149713D01*
X281000Y151058D01*
X279656Y151956D01*
X278070Y152271D01*
D02*
G37*
G36*
X293940Y134088D02*
X292354Y133773D01*
X291010Y132874D01*
X290112Y131530D01*
X289797Y129944D01*
X290112Y128359D01*
X291010Y127014D01*
X292354Y126116D01*
X293940Y125801D01*
X295526Y126116D01*
X296870Y127014D01*
X297768Y128359D01*
X298084Y129944D01*
X297768Y131530D01*
X296870Y132874D01*
X295526Y133773D01*
X293940Y134088D01*
D02*
G37*
G36*
X406700Y81644D02*
X405114Y81328D01*
X403770Y80430D01*
X402872Y79086D01*
X402556Y77500D01*
X402872Y75914D01*
X403770Y74570D01*
X405114Y73672D01*
X406700Y73356D01*
X408286Y73672D01*
X409630Y74570D01*
X410528Y75914D01*
X410844Y77500D01*
X410528Y79086D01*
X409630Y80430D01*
X408286Y81328D01*
X406700Y81644D01*
D02*
G37*
G36*
X358500Y77544D02*
X356914Y77228D01*
X355570Y76330D01*
X354672Y74986D01*
X354356Y73400D01*
X354672Y71814D01*
X355570Y70470D01*
X356914Y69572D01*
X358500Y69256D01*
X360086Y69572D01*
X361430Y70470D01*
X362328Y71814D01*
X362644Y73400D01*
X362328Y74986D01*
X361430Y76330D01*
X360086Y77228D01*
X358500Y77544D01*
D02*
G37*
G36*
X416966Y68101D02*
X415380Y67785D01*
X414036Y66887D01*
X413138Y65543D01*
X412822Y63957D01*
X413138Y62371D01*
X414036Y61027D01*
X415380Y60129D01*
X416966Y59813D01*
X418551Y60129D01*
X419896Y61027D01*
X420794Y62371D01*
X421110Y63957D01*
X420794Y65543D01*
X419896Y66887D01*
X418551Y67785D01*
X416966Y68101D01*
D02*
G37*
G36*
X398451Y13453D02*
X396865Y13137D01*
X395521Y12239D01*
X394623Y10895D01*
X394307Y9309D01*
X394623Y7723D01*
X395521Y6379D01*
X396865Y5481D01*
X398451Y5165D01*
X400037Y5481D01*
X401381Y6379D01*
X402279Y7723D01*
X402594Y9309D01*
X402279Y10895D01*
X401381Y12239D01*
X400037Y13137D01*
X398451Y13453D01*
D02*
G37*
G36*
X-50405Y214866D02*
X-52307Y214488D01*
X-53919Y213411D01*
X-54996Y211798D01*
X-55374Y209897D01*
X-54996Y207995D01*
X-53919Y206383D01*
X-52307Y205306D01*
X-50405Y204927D01*
X-48503Y205306D01*
X-46891Y206383D01*
X-45814Y207995D01*
X-45435Y209897D01*
X-45814Y211798D01*
X-46891Y213411D01*
X-48503Y214488D01*
X-50405Y214866D01*
D02*
G37*
G36*
X-45814Y189874D02*
X-47399Y189559D01*
X-48744Y188661D01*
X-49642Y187316D01*
X-49957Y185731D01*
X-49642Y184145D01*
X-48744Y182801D01*
X-47399Y181903D01*
X-45814Y181587D01*
X-44228Y181903D01*
X-42884Y182801D01*
X-41985Y184145D01*
X-41670Y185731D01*
X-41985Y187316D01*
X-42884Y188661D01*
X-44228Y189559D01*
X-45814Y189874D01*
D02*
G37*
G36*
X-47577Y179053D02*
X-49163Y178738D01*
X-50507Y177840D01*
X-51405Y176495D01*
X-51721Y174910D01*
X-51405Y173324D01*
X-50507Y171980D01*
X-49163Y171081D01*
X-47577Y170766D01*
X-45991Y171081D01*
X-44647Y171980D01*
X-43749Y173324D01*
X-43433Y174910D01*
X-43749Y176495D01*
X-44647Y177840D01*
X-45991Y178738D01*
X-47577Y179053D01*
D02*
G37*
G36*
X125586Y172433D02*
X124000Y172117D01*
X122656Y171219D01*
X121758Y169875D01*
X121442Y168289D01*
X121758Y166703D01*
X122656Y165359D01*
X124000Y164461D01*
X125586Y164146D01*
X127172Y164461D01*
X128516Y165359D01*
X129414Y166703D01*
X129730Y168289D01*
X129414Y169875D01*
X128516Y171219D01*
X127172Y172117D01*
X125586Y172433D01*
D02*
G37*
G36*
X155836Y168964D02*
X154250Y168649D01*
X152906Y167751D01*
X152008Y166406D01*
X151692Y164821D01*
X152008Y163235D01*
X152906Y161891D01*
X154250Y160992D01*
X155836Y160677D01*
X157422Y160992D01*
X158766Y161891D01*
X159664Y163235D01*
X159980Y164821D01*
X159664Y166406D01*
X158766Y167751D01*
X157422Y168649D01*
X155836Y168964D01*
D02*
G37*
G36*
X-37615Y154362D02*
X-39200Y154046D01*
X-40545Y153148D01*
X-40818Y152740D01*
X-41814D01*
X-43158Y153638D01*
X-44744Y153953D01*
X-46329Y153638D01*
X-47674Y152740D01*
X-48572Y151395D01*
X-48887Y149810D01*
X-48572Y148224D01*
X-47674Y146880D01*
X-46329Y145981D01*
X-44744Y145666D01*
X-43158Y145981D01*
X-41814Y146880D01*
X-40439Y146814D01*
X-40323Y146696D01*
X-40322Y146248D01*
X-40530Y145264D01*
X-41665Y144506D01*
X-42248Y143633D01*
X-42838Y143187D01*
X-43834Y143282D01*
X-44583Y143782D01*
X-46169Y144097D01*
X-47755Y143782D01*
X-49099Y142884D01*
X-49997Y141539D01*
X-50312Y139954D01*
X-49997Y138368D01*
X-49099Y137024D01*
X-47755Y136126D01*
X-46169Y135810D01*
X-44583Y136126D01*
X-43239Y137024D01*
X-42822Y137648D01*
X-42181Y137725D01*
X-41262Y137394D01*
X-41069Y137020D01*
X-41317Y136650D01*
X-41632Y135065D01*
X-41552Y134664D01*
X-42695Y133900D01*
X-42755Y133940D01*
X-44341Y134256D01*
X-45926Y133940D01*
X-47271Y133042D01*
X-48169Y131698D01*
X-48484Y130112D01*
X-48169Y128526D01*
X-47271Y127182D01*
X-45926Y126284D01*
X-44341Y125968D01*
X-43610Y124819D01*
X-44080Y124115D01*
X-44395Y122530D01*
X-44080Y120944D01*
X-43182Y119600D01*
X-41838Y118701D01*
X-40252Y118386D01*
X-39393Y118557D01*
X-38302Y117534D01*
X-38319Y117450D01*
X-38003Y115864D01*
X-37105Y114520D01*
X-35761Y113621D01*
X-35438Y113557D01*
X-35297Y112234D01*
X-36313Y111556D01*
X-37211Y110212D01*
X-37526Y108626D01*
X-37211Y107040D01*
X-36313Y105696D01*
X-34968Y104798D01*
X-33383Y104482D01*
X-31797Y104798D01*
X-30453Y105696D01*
X-29554Y107040D01*
X-29239Y108626D01*
X-29554Y110212D01*
X-30453Y111556D01*
X-31797Y112454D01*
X-32120Y112518D01*
X-32260Y113841D01*
X-31245Y114520D01*
X-30347Y115864D01*
X-30031Y117450D01*
X-30347Y119035D01*
X-31245Y120380D01*
X-32589Y121278D01*
X-34175Y121593D01*
X-35034Y121422D01*
X-36125Y122445D01*
X-36108Y122530D01*
X-36424Y124115D01*
X-37322Y125460D01*
X-38666Y126358D01*
X-40252Y126673D01*
X-40982Y127823D01*
X-40512Y128526D01*
X-40197Y130112D01*
X-40277Y130513D01*
X-39134Y131276D01*
X-39074Y131236D01*
X-37489Y130921D01*
X-35903Y131236D01*
X-34558Y132135D01*
X-34083Y132845D01*
X-32582Y132885D01*
X-32557Y132847D01*
X-31213Y131949D01*
X-29627Y131634D01*
X-28042Y131949D01*
X-26697Y132847D01*
X-25799Y134192D01*
X-25484Y135777D01*
X-25799Y137363D01*
X-26697Y138707D01*
X-27039Y138936D01*
Y140463D01*
X-26962Y140515D01*
X-26063Y141860D01*
X-25748Y143445D01*
X-26063Y145031D01*
X-26962Y146375D01*
X-28306Y147274D01*
X-29892Y147589D01*
X-31477Y147274D01*
X-32822Y146375D01*
X-33720Y145031D01*
X-33928Y143983D01*
X-35277Y143715D01*
X-35805Y144506D01*
X-36536Y144994D01*
X-36268Y146342D01*
X-36029Y146390D01*
X-34685Y147288D01*
X-33786Y148632D01*
X-33471Y150218D01*
X-33786Y151804D01*
X-34685Y153148D01*
X-36029Y154046D01*
X-37615Y154362D01*
D02*
G37*
G36*
X164853Y157534D02*
X163267Y157219D01*
X161923Y156321D01*
X161025Y154976D01*
X160709Y153391D01*
X161025Y151805D01*
X161923Y150461D01*
X163267Y149562D01*
X164853Y149247D01*
X166439Y149562D01*
X167783Y150461D01*
X168681Y151805D01*
X168997Y153391D01*
X168681Y154976D01*
X167783Y156321D01*
X166439Y157219D01*
X164853Y157534D01*
D02*
G37*
G36*
X106052Y151819D02*
X104466Y151504D01*
X103122Y150606D01*
X102224Y149261D01*
X101909Y147676D01*
X102224Y146090D01*
X103122Y144746D01*
X104466Y143847D01*
X106052Y143532D01*
X107638Y143847D01*
X108982Y144746D01*
X109880Y146090D01*
X110196Y147676D01*
X109880Y149261D01*
X108982Y150606D01*
X107638Y151504D01*
X106052Y151819D01*
D02*
G37*
G36*
X78366Y153422D02*
X76780Y153106D01*
X75436Y152208D01*
X74538Y150864D01*
X74222Y149278D01*
X74538Y147693D01*
X75436Y146348D01*
X75836Y146081D01*
Y144553D01*
X75436Y144286D01*
X74538Y142942D01*
X74222Y141356D01*
X74538Y139770D01*
X75436Y138426D01*
X76780Y137528D01*
X78366Y137212D01*
X79952Y137528D01*
X81296Y138426D01*
X82194Y139770D01*
X82510Y141356D01*
X82194Y142942D01*
X81296Y144286D01*
X80896Y144553D01*
Y146081D01*
X81296Y146348D01*
X82194Y147693D01*
X82510Y149278D01*
X82194Y150864D01*
X81296Y152208D01*
X79952Y153106D01*
X78366Y153422D01*
D02*
G37*
G36*
X14966Y143597D02*
X13381Y143281D01*
X12036Y142383D01*
X11138Y141039D01*
X10823Y139453D01*
X11138Y137867D01*
X12036Y136523D01*
X13381Y135625D01*
X14966Y135309D01*
X16552Y135625D01*
X17896Y136523D01*
X18794Y137867D01*
X19110Y139453D01*
X18794Y141039D01*
X17896Y142383D01*
X16552Y143281D01*
X14966Y143597D01*
D02*
G37*
G36*
X-4689Y134112D02*
X-6274Y133796D01*
X-7619Y132898D01*
X-8517Y131554D01*
X-8832Y129968D01*
X-8517Y128382D01*
X-7619Y127038D01*
X-6274Y126140D01*
X-4689Y125824D01*
X-3103Y126140D01*
X-1759Y127038D01*
X-860Y128382D01*
X-545Y129968D01*
X-860Y131554D01*
X-1759Y132898D01*
X-3103Y133796D01*
X-4689Y134112D01*
D02*
G37*
G36*
X27339Y144061D02*
X25754Y143746D01*
X24409Y142848D01*
X23511Y141503D01*
X23196Y139918D01*
X23511Y138332D01*
X24409Y136988D01*
X25754Y136089D01*
X27339Y135774D01*
X28925Y136089D01*
X30059Y136847D01*
X30855Y136518D01*
X31229Y136218D01*
X31066Y135396D01*
X31381Y133810D01*
X32279Y132466D01*
X33623Y131568D01*
X35209Y131252D01*
X36540Y131517D01*
X37093Y130393D01*
X37101Y130361D01*
X36207Y129023D01*
X35892Y127438D01*
X36207Y125852D01*
X37105Y124508D01*
X38449Y123609D01*
X40035Y123294D01*
X41621Y123609D01*
X42965Y124508D01*
X43863Y125852D01*
X44179Y127438D01*
X43863Y129023D01*
X42965Y130368D01*
X41621Y131266D01*
X40035Y131581D01*
X38705Y131317D01*
X38152Y132441D01*
X38143Y132472D01*
X39037Y133810D01*
X39353Y135396D01*
X39037Y136982D01*
X38139Y138326D01*
X36795Y139224D01*
X35209Y139540D01*
X33623Y139224D01*
X32489Y138467D01*
X31693Y138796D01*
X31320Y139096D01*
X31483Y139918D01*
X31168Y141503D01*
X30269Y142848D01*
X28925Y143746D01*
X27339Y144061D01*
D02*
G37*
G36*
X27039Y130773D02*
X25453Y130457D01*
X24109Y129559D01*
X23210Y128215D01*
X22895Y126629D01*
X23210Y125043D01*
X24109Y123699D01*
X25453Y122801D01*
X27039Y122486D01*
X28624Y122801D01*
X29969Y123699D01*
X30867Y125043D01*
X31182Y126629D01*
X30867Y128215D01*
X29969Y129559D01*
X28624Y130457D01*
X27039Y130773D01*
D02*
G37*
G36*
X10644Y128870D02*
X9059Y128554D01*
X7714Y127656D01*
X6816Y126312D01*
X6501Y124726D01*
X6816Y123140D01*
X7714Y121796D01*
X9059Y120898D01*
X10644Y120582D01*
X12230Y120898D01*
X13574Y121796D01*
X14473Y123140D01*
X14788Y124726D01*
X14473Y126312D01*
X13574Y127656D01*
X12230Y128554D01*
X10644Y128870D01*
D02*
G37*
G36*
X142882Y124895D02*
X141296Y124580D01*
X139952Y123682D01*
X139054Y122337D01*
X138738Y120752D01*
X139054Y119166D01*
X139952Y117822D01*
X141296Y116923D01*
X142882Y116608D01*
X144468Y116923D01*
X145812Y117822D01*
X146710Y119166D01*
X147026Y120752D01*
X146710Y122337D01*
X145812Y123682D01*
X144468Y124580D01*
X142882Y124895D01*
D02*
G37*
G36*
X184665Y121974D02*
X183079Y121659D01*
X181735Y120761D01*
X180837Y119416D01*
X180522Y117831D01*
X180837Y116245D01*
X181735Y114901D01*
X183079Y114002D01*
X184665Y113687D01*
X186251Y114002D01*
X187595Y114901D01*
X188493Y116245D01*
X188809Y117831D01*
X188493Y119416D01*
X187595Y120761D01*
X186251Y121659D01*
X184665Y121974D01*
D02*
G37*
G36*
X108338D02*
X106752Y121659D01*
X105408Y120761D01*
X104510Y119416D01*
X104194Y117831D01*
X104510Y116245D01*
X105408Y114901D01*
X106752Y114002D01*
X108338Y113687D01*
X109924Y114002D01*
X111268Y114901D01*
X112166Y116245D01*
X112482Y117831D01*
X112166Y119416D01*
X111268Y120761D01*
X109924Y121659D01*
X108338Y121974D01*
D02*
G37*
G36*
X6640Y119617D02*
X5054Y119301D01*
X3710Y118403D01*
X2811Y117059D01*
X2496Y115473D01*
X2811Y113887D01*
X3710Y112543D01*
X5054Y111645D01*
X6640Y111329D01*
X8225Y111645D01*
X9570Y112543D01*
X10468Y113887D01*
X10783Y115473D01*
X10468Y117059D01*
X9570Y118403D01*
X8225Y119301D01*
X6640Y119617D01*
D02*
G37*
G36*
X228353Y115243D02*
X226767Y114928D01*
X225423Y114030D01*
X224525Y112685D01*
X224209Y111100D01*
X224525Y109514D01*
X225423Y108170D01*
X226767Y107271D01*
X228353Y106956D01*
X229939Y107271D01*
X231283Y108170D01*
X232181Y109514D01*
X232497Y111100D01*
X232181Y112685D01*
X231283Y114030D01*
X229939Y114928D01*
X228353Y115243D01*
D02*
G37*
G36*
X242525Y114832D02*
X240939Y114516D01*
X239595Y113618D01*
X238697Y112274D01*
X238381Y110688D01*
X238697Y109102D01*
X239595Y107758D01*
X240939Y106860D01*
X242525Y106545D01*
X244111Y106860D01*
X245455Y107758D01*
X246353Y109102D01*
X246669Y110688D01*
X246353Y112274D01*
X245455Y113618D01*
X244111Y114516D01*
X242525Y114832D01*
D02*
G37*
G36*
X-3715Y112601D02*
X-5301Y112286D01*
X-6645Y111388D01*
X-7544Y110044D01*
X-7859Y108458D01*
X-7544Y106872D01*
X-6645Y105528D01*
X-5301Y104630D01*
X-3715Y104314D01*
X-2130Y104630D01*
X-785Y105528D01*
X113Y106872D01*
X428Y108458D01*
X113Y110044D01*
X-785Y111388D01*
X-2130Y112286D01*
X-3715Y112601D01*
D02*
G37*
G36*
X40980Y109041D02*
X39394Y108726D01*
X38050Y107828D01*
X37152Y106483D01*
X36837Y104898D01*
X37152Y103312D01*
X38050Y101968D01*
X39394Y101069D01*
X40980Y100754D01*
X42566Y101069D01*
X43910Y101968D01*
X44808Y103312D01*
X45124Y104898D01*
X44808Y106483D01*
X43910Y107828D01*
X42566Y108726D01*
X40980Y109041D01*
D02*
G37*
G36*
X80688Y104582D02*
X79102Y104267D01*
X77758Y103369D01*
X76859Y102024D01*
X76544Y100439D01*
X76859Y98853D01*
X77758Y97509D01*
X79102Y96611D01*
X80688Y96295D01*
X82273Y96611D01*
X83617Y97509D01*
X84516Y98853D01*
X84831Y100439D01*
X84516Y102024D01*
X83617Y103369D01*
X82273Y104267D01*
X80688Y104582D01*
D02*
G37*
G36*
X148216Y104575D02*
X146630Y104260D01*
X145286Y103362D01*
X144388Y102017D01*
X144073Y100432D01*
X144388Y98846D01*
X145286Y97502D01*
X146630Y96603D01*
X148216Y96288D01*
X149802Y96603D01*
X151146Y97502D01*
X152044Y98846D01*
X152360Y100432D01*
X152044Y102017D01*
X151146Y103362D01*
X149802Y104260D01*
X148216Y104575D01*
D02*
G37*
G36*
X-720Y100691D02*
X-2306Y100376D01*
X-3650Y99478D01*
X-4548Y98133D01*
X-4863Y96548D01*
X-4548Y94962D01*
X-3650Y93618D01*
X-2306Y92719D01*
X-720Y92404D01*
X866Y92719D01*
X2210Y93618D01*
X3108Y94962D01*
X3424Y96548D01*
X3108Y98133D01*
X2210Y99478D01*
X866Y100376D01*
X-720Y100691D01*
D02*
G37*
G36*
X-29079Y95494D02*
X-30664Y95179D01*
X-32009Y94281D01*
X-32907Y92936D01*
X-33222Y91351D01*
X-32907Y89765D01*
X-32009Y88421D01*
X-30664Y87523D01*
X-29079Y87207D01*
X-27493Y87523D01*
X-26149Y88421D01*
X-25250Y89765D01*
X-24935Y91351D01*
X-25250Y92936D01*
X-26149Y94281D01*
X-27493Y95179D01*
X-29079Y95494D01*
D02*
G37*
G36*
X-46983Y117402D02*
X-48569Y117087D01*
X-49913Y116189D01*
X-50811Y114844D01*
X-51126Y113259D01*
X-50811Y111673D01*
X-49913Y110329D01*
X-48722Y109533D01*
X-48558Y109381D01*
X-48283Y108079D01*
X-48749Y107381D01*
X-49064Y105796D01*
X-48749Y104210D01*
X-48140Y103299D01*
X-47889Y101939D01*
X-48787Y100595D01*
X-49103Y99009D01*
X-48787Y97423D01*
X-47889Y96079D01*
X-47617Y95897D01*
Y94370D01*
X-47750Y94281D01*
X-48648Y92936D01*
X-48963Y91351D01*
X-48648Y89765D01*
X-47750Y88421D01*
X-46406Y87523D01*
X-44820Y87207D01*
X-43234Y87523D01*
X-41890Y88421D01*
X-40992Y89765D01*
X-40676Y91351D01*
X-40992Y92936D01*
X-41890Y94281D01*
X-42162Y94463D01*
Y95990D01*
X-42029Y96079D01*
X-41131Y97423D01*
X-40816Y99009D01*
X-41131Y100595D01*
X-41740Y101506D01*
X-41991Y102866D01*
X-41093Y104210D01*
X-40777Y105796D01*
X-41093Y107381D01*
X-41991Y108726D01*
X-43181Y109521D01*
X-43345Y109673D01*
X-43621Y110976D01*
X-43155Y111673D01*
X-42839Y113259D01*
X-43155Y114844D01*
X-44053Y116189D01*
X-45397Y117087D01*
X-46983Y117402D01*
D02*
G37*
G36*
X267855Y93523D02*
X266269Y93208D01*
X264925Y92310D01*
X264027Y90965D01*
X263711Y89380D01*
X264027Y87794D01*
X264925Y86450D01*
X266269Y85551D01*
X267855Y85236D01*
X269441Y85551D01*
X270785Y86450D01*
X271683Y87794D01*
X271999Y89380D01*
X271683Y90965D01*
X270785Y92310D01*
X269441Y93208D01*
X267855Y93523D01*
D02*
G37*
G36*
X-6440Y91621D02*
X-8026Y91306D01*
X-9370Y90408D01*
X-10268Y89063D01*
X-10583Y87478D01*
X-10268Y85892D01*
X-9370Y84548D01*
X-8026Y83649D01*
X-6440Y83334D01*
X-4854Y83649D01*
X-3510Y84548D01*
X-2612Y85892D01*
X-2296Y87478D01*
X-2612Y89063D01*
X-3510Y90408D01*
X-4854Y91306D01*
X-6440Y91621D01*
D02*
G37*
G36*
X-39889Y85250D02*
X-41474Y84934D01*
X-42818Y84036D01*
X-43717Y82692D01*
X-44032Y81106D01*
X-43717Y79521D01*
X-42818Y78176D01*
X-43031Y77056D01*
X-44053Y76804D01*
X-45397Y77702D01*
X-46983Y78017D01*
X-48569Y77702D01*
X-49913Y76804D01*
X-50811Y75459D01*
X-51126Y73874D01*
X-50811Y72288D01*
X-49913Y70944D01*
X-48569Y70045D01*
X-46983Y69730D01*
X-45397Y70045D01*
X-44053Y70944D01*
X-42606Y70824D01*
X-42330Y70411D01*
X-40985Y69513D01*
X-39400Y69197D01*
X-38493Y68083D01*
X-38251Y66866D01*
X-37353Y65522D01*
X-36009Y64624D01*
X-34423Y64309D01*
X-32838Y64624D01*
X-31493Y65522D01*
X-30595Y66866D01*
X-30280Y68452D01*
X-30595Y70038D01*
X-31493Y71382D01*
X-32838Y72280D01*
X-34423Y72596D01*
X-35329Y73710D01*
X-35571Y74927D01*
X-36470Y76271D01*
X-36997Y76623D01*
Y78151D01*
X-36958Y78176D01*
X-36060Y79521D01*
X-35745Y81106D01*
X-36060Y82692D01*
X-36958Y84036D01*
X-38303Y84934D01*
X-39889Y85250D01*
D02*
G37*
G36*
X-28899Y83745D02*
X-30485Y83430D01*
X-31829Y82532D01*
X-32727Y81187D01*
X-33043Y79602D01*
X-32727Y78016D01*
X-31829Y76672D01*
X-30485Y75774D01*
X-28899Y75458D01*
X-27313Y75774D01*
X-25969Y76672D01*
X-25071Y78016D01*
X-24755Y79602D01*
X-25071Y81187D01*
X-25969Y82532D01*
X-27313Y83430D01*
X-28899Y83745D01*
D02*
G37*
G36*
X39876Y79882D02*
X38290Y79566D01*
X36946Y78668D01*
X36047Y77324D01*
X35732Y75738D01*
X36047Y74152D01*
X36946Y72808D01*
X38290Y71910D01*
X39876Y71595D01*
X41461Y71910D01*
X42806Y72808D01*
X43704Y74152D01*
X44019Y75738D01*
X43704Y77324D01*
X42806Y78668D01*
X41461Y79566D01*
X39876Y79882D01*
D02*
G37*
G36*
X80688Y78110D02*
X79102Y77794D01*
X77758Y76896D01*
X76859Y75552D01*
X76544Y73966D01*
X76859Y72380D01*
X77758Y71036D01*
X79102Y70138D01*
X80688Y69822D01*
X82273Y70138D01*
X83617Y71036D01*
X84516Y72380D01*
X84831Y73966D01*
X84516Y75552D01*
X83617Y76896D01*
X82273Y77794D01*
X80688Y78110D01*
D02*
G37*
G36*
X-40843Y62800D02*
X-42429Y62484D01*
X-43773Y61586D01*
X-44672Y60242D01*
X-44987Y58656D01*
X-44672Y57070D01*
X-43773Y55726D01*
X-42429Y54828D01*
X-40843Y54513D01*
X-39258Y54828D01*
X-37913Y55726D01*
X-37373D01*
X-37045Y55235D01*
X-35701Y54337D01*
X-34115Y54021D01*
X-32529Y54337D01*
X-31185Y55235D01*
X-30287Y56579D01*
X-29971Y58165D01*
X-30287Y59751D01*
X-31185Y61095D01*
X-32529Y61993D01*
X-34115Y62309D01*
X-35701Y61993D01*
X-37045Y61095D01*
X-37585D01*
X-37913Y61586D01*
X-39258Y62484D01*
X-40843Y62800D01*
D02*
G37*
G36*
X296055Y60200D02*
X294470Y59885D01*
X293125Y58987D01*
X292227Y57642D01*
X291912Y56057D01*
X292227Y54471D01*
X293125Y53127D01*
X294470Y52228D01*
X296055Y51913D01*
X297641Y52228D01*
X298985Y53127D01*
X299883Y54471D01*
X300199Y56057D01*
X299883Y57642D01*
X298985Y58987D01*
X297641Y59885D01*
X296055Y60200D01*
D02*
G37*
G36*
X39201Y60182D02*
X37615Y59867D01*
X36271Y58969D01*
X35372Y57624D01*
X35057Y56039D01*
X35372Y54453D01*
X36271Y53109D01*
X37615Y52210D01*
X39201Y51895D01*
X40786Y52210D01*
X42131Y53109D01*
X43029Y54453D01*
X43344Y56039D01*
X43029Y57624D01*
X42131Y58969D01*
X40786Y59867D01*
X39201Y60182D01*
D02*
G37*
G36*
X197031Y58975D02*
X195445Y58660D01*
X194101Y57762D01*
X193203Y56417D01*
X192887Y54832D01*
X193203Y53246D01*
X194101Y51901D01*
X195445Y51003D01*
X197031Y50688D01*
X198617Y51003D01*
X199961Y51901D01*
X200859Y53246D01*
X201175Y54832D01*
X200859Y56417D01*
X199961Y57762D01*
X198617Y58660D01*
X197031Y58975D01*
D02*
G37*
G36*
X230476Y58182D02*
X228891Y57867D01*
X227547Y56968D01*
X226648Y55624D01*
X226333Y54038D01*
X226648Y52453D01*
X227547Y51108D01*
X228891Y50210D01*
X230476Y49895D01*
X232062Y50210D01*
X233406Y51108D01*
X234305Y52453D01*
X234620Y54038D01*
X234305Y55624D01*
X233406Y56968D01*
X232062Y57867D01*
X230476Y58182D01*
D02*
G37*
G36*
X109281Y56269D02*
X107695Y55953D01*
X106351Y55055D01*
X105453Y53711D01*
X105137Y52125D01*
X105453Y50540D01*
X106351Y49195D01*
X107695Y48297D01*
X109281Y47982D01*
X110867Y48297D01*
X112211Y49195D01*
X113109Y50540D01*
X113425Y52125D01*
X113109Y53711D01*
X112211Y55055D01*
X110867Y55953D01*
X109281Y56269D01*
D02*
G37*
G36*
X87478Y55017D02*
X85892Y54702D01*
X84548Y53804D01*
X83650Y52459D01*
X83334Y50873D01*
X83650Y49288D01*
X84548Y47944D01*
X85892Y47045D01*
X87478Y46730D01*
X89064Y47045D01*
X90408Y47944D01*
X91306Y49288D01*
X91622Y50873D01*
X91306Y52459D01*
X90408Y53804D01*
X89064Y54702D01*
X87478Y55017D01*
D02*
G37*
G36*
X-22900Y54463D02*
X-24485Y54148D01*
X-25830Y53250D01*
X-26728Y51905D01*
X-27043Y50319D01*
X-26728Y48734D01*
X-25830Y47389D01*
X-24485Y46491D01*
X-22900Y46176D01*
X-21314Y46491D01*
X-19970Y47389D01*
X-19072Y48734D01*
X-18756Y50319D01*
X-19072Y51905D01*
X-19970Y53250D01*
X-21314Y54148D01*
X-22900Y54463D01*
D02*
G37*
G36*
X63387Y53181D02*
X61801Y52866D01*
X60457Y51968D01*
X59559Y50623D01*
X59243Y49038D01*
X59559Y47452D01*
X60457Y46108D01*
X61801Y45209D01*
X63387Y44894D01*
X64973Y45209D01*
X66317Y46108D01*
X67215Y47452D01*
X67531Y49038D01*
X67215Y50623D01*
X66317Y51968D01*
X64973Y52866D01*
X63387Y53181D01*
D02*
G37*
G36*
X264040Y51870D02*
X262454Y51555D01*
X261110Y50657D01*
X260212Y49312D01*
X259897Y47727D01*
X260212Y46141D01*
X261110Y44797D01*
X262454Y43898D01*
X264040Y43583D01*
X265626Y43898D01*
X266970Y44797D01*
X267868Y46141D01*
X268184Y47727D01*
X267868Y49312D01*
X266970Y50657D01*
X265626Y51555D01*
X264040Y51870D01*
D02*
G37*
G36*
X-50405Y50866D02*
X-52307Y50488D01*
X-53919Y49411D01*
X-54996Y47799D01*
X-55374Y45897D01*
X-54996Y43995D01*
X-53919Y42383D01*
X-52307Y41306D01*
X-50405Y40927D01*
X-48503Y41306D01*
X-47603Y40380D01*
X-46978Y39446D01*
X-45634Y38547D01*
X-44048Y38232D01*
X-42463Y38547D01*
X-41118Y39446D01*
X-40220Y40790D01*
X-39905Y42376D01*
X-40220Y43961D01*
X-41118Y45306D01*
X-42463Y46204D01*
X-44048Y46519D01*
X-45502Y46230D01*
X-45814Y47799D01*
X-46891Y49411D01*
X-48503Y50488D01*
X-50405Y50866D01*
D02*
G37*
G36*
X169309Y43702D02*
X167723Y43387D01*
X166379Y42489D01*
X165480Y41144D01*
X165165Y39559D01*
X165480Y37973D01*
X166379Y36629D01*
X167723Y35730D01*
X169309Y35415D01*
X170894Y35730D01*
X172239Y36629D01*
X173137Y37973D01*
X173452Y39559D01*
X173137Y41144D01*
X172239Y42489D01*
X170894Y43387D01*
X169309Y43702D01*
D02*
G37*
G36*
X303029Y36122D02*
X301443Y35807D01*
X300099Y34909D01*
X299201Y33564D01*
X298885Y31979D01*
X299201Y30393D01*
X300099Y29049D01*
X301443Y28150D01*
X303029Y27835D01*
X304615Y28150D01*
X305959Y29049D01*
X306857Y30393D01*
X307173Y31979D01*
X306857Y33564D01*
X305959Y34909D01*
X304615Y35807D01*
X303029Y36122D01*
D02*
G37*
G36*
X190761Y37455D02*
X189175Y37140D01*
X187831Y36242D01*
X186933Y34897D01*
X186618Y33312D01*
X185509Y32374D01*
X184512Y32176D01*
X183168Y31278D01*
X182269Y29934D01*
X181954Y28348D01*
X182269Y26762D01*
X183168Y25418D01*
X184512Y24520D01*
X186098Y24204D01*
X187683Y24520D01*
X189028Y25418D01*
X189926Y26762D01*
X190241Y28348D01*
X191350Y29285D01*
X192347Y29483D01*
X193691Y30382D01*
X194589Y31726D01*
X194905Y33312D01*
X194589Y34897D01*
X193691Y36242D01*
X192347Y37140D01*
X190761Y37455D01*
D02*
G37*
G36*
X315473Y25644D02*
X313888Y25328D01*
X312543Y24430D01*
X312375Y24179D01*
X310848D01*
X310680Y24430D01*
X309336Y25328D01*
X307750Y25644D01*
X306164Y25328D01*
X304820Y24430D01*
X303922Y23086D01*
X303606Y21500D01*
X303922Y19914D01*
X304820Y18570D01*
X306164Y17672D01*
X307750Y17356D01*
X309336Y17672D01*
X310680Y18570D01*
X310848Y18821D01*
X312375D01*
X312543Y18570D01*
X313888Y17672D01*
X315473Y17356D01*
X317059Y17672D01*
X318403Y18570D01*
X319302Y19914D01*
X319617Y21500D01*
X319302Y23086D01*
X318403Y24430D01*
X317059Y25328D01*
X315473Y25644D01*
D02*
G37*
G36*
X221032Y32059D02*
X219446Y31744D01*
X218102Y30845D01*
X217204Y29501D01*
X216888Y27915D01*
X217204Y26330D01*
X218102Y24985D01*
X219446Y24087D01*
X221032Y23772D01*
X222618Y24087D01*
X223962Y24985D01*
X224860Y26330D01*
X225175Y27915D01*
X224860Y29501D01*
X223962Y30845D01*
X222618Y31744D01*
X221032Y32059D01*
D02*
G37*
G36*
X285391Y31423D02*
X283806Y31108D01*
X282461Y30210D01*
X281563Y28865D01*
X281248Y27280D01*
X281563Y25694D01*
X282461Y24350D01*
X283806Y23451D01*
X285391Y23136D01*
X286977Y23451D01*
X288321Y24350D01*
X289219Y25694D01*
X289535Y27280D01*
X289219Y28865D01*
X288321Y30210D01*
X286977Y31108D01*
X285391Y31423D01*
D02*
G37*
G36*
X252610Y29264D02*
X251024Y28949D01*
X249680Y28051D01*
X248782Y26706D01*
X248466Y25121D01*
X248782Y23535D01*
X249680Y22191D01*
X251024Y21292D01*
X252610Y20977D01*
X254196Y21292D01*
X255540Y22191D01*
X256438Y23535D01*
X256754Y25121D01*
X256438Y26706D01*
X255540Y28051D01*
X254196Y28949D01*
X252610Y29264D01*
D02*
G37*
G36*
X159500Y21943D02*
X157914Y21628D01*
X156570Y20729D01*
X155672Y19385D01*
X155356Y17799D01*
X155672Y16214D01*
X156570Y14869D01*
X157914Y13971D01*
X159500Y13656D01*
X161086Y13971D01*
X162430Y14869D01*
X163328Y16214D01*
X163644Y17799D01*
X163328Y19385D01*
X162430Y20729D01*
X161086Y21628D01*
X159500Y21943D01*
D02*
G37*
G36*
X109408D02*
X107823Y21628D01*
X106478Y20729D01*
X105580Y19385D01*
X105265Y17799D01*
X105580Y16214D01*
X106478Y14869D01*
X107823Y13971D01*
X109408Y13656D01*
X110994Y13971D01*
X112338Y14869D01*
X113237Y16214D01*
X113552Y17799D01*
X113237Y19385D01*
X112338Y20729D01*
X110994Y21628D01*
X109408Y21943D01*
D02*
G37*
G36*
X276600Y6681D02*
X275014Y6366D01*
X273670Y5467D01*
X272772Y4123D01*
X272456Y2537D01*
X272772Y952D01*
X273670Y-393D01*
X275014Y-1291D01*
X276600Y-1606D01*
X278186Y-1291D01*
X279530Y-393D01*
X280428Y952D01*
X280744Y2537D01*
X280428Y4123D01*
X279530Y5467D01*
X278186Y6366D01*
X276600Y6681D01*
D02*
G37*
%LPD*%
G36*
X134917Y-23419D02*
X135171Y-23728D01*
X135486Y-25313D01*
X136384Y-26658D01*
X137729Y-27556D01*
X139314Y-27871D01*
X140900Y-27556D01*
X142244Y-26658D01*
X143142Y-25313D01*
X143458Y-23728D01*
X143711Y-23419D01*
X153984Y-23419D01*
X154254Y-23823D01*
X155598Y-24721D01*
X157184Y-25037D01*
X158769Y-24721D01*
X160114Y-23823D01*
X160383Y-23419D01*
X216150Y-23419D01*
X234730Y-42000D01*
X332250D01*
X332250Y-58752D01*
X323451Y-67560D01*
X310668Y-67573D01*
X288223D01*
X287987Y-66385D01*
X287089Y-65040D01*
X285745Y-64142D01*
X284159Y-63827D01*
X282573Y-64142D01*
X281229Y-65040D01*
X280993Y-65393D01*
X279466D01*
X279230Y-65040D01*
X277886Y-64142D01*
X276300Y-63827D01*
X274714Y-64142D01*
X273370Y-65040D01*
X272472Y-66385D01*
X272236Y-67573D01*
X259265D01*
X259028Y-66385D01*
X258130Y-65040D01*
X256786Y-64142D01*
X255200Y-63827D01*
X253614Y-64142D01*
X252469Y-64908D01*
X251660Y-65040D01*
X251640D01*
X250831Y-64908D01*
X249686Y-64142D01*
X248100Y-63827D01*
X246514Y-64142D01*
X245170Y-65040D01*
X244272Y-66385D01*
X244036Y-67573D01*
X227954D01*
X227717Y-66385D01*
X226819Y-65040D01*
X225475Y-64142D01*
X223889Y-63827D01*
X222304Y-64142D01*
X220959Y-65040D01*
X220724Y-65392D01*
X219197D01*
X218961Y-65040D01*
X217617Y-64142D01*
X216031Y-63827D01*
X214446Y-64142D01*
X213101Y-65040D01*
X212203Y-66385D01*
X211967Y-67573D01*
X194606D01*
X194370Y-66385D01*
X193472Y-65040D01*
X192128Y-64142D01*
X190542Y-63827D01*
X188956Y-64142D01*
X187612Y-65040D01*
X186959Y-66017D01*
X186803Y-66067D01*
X185704D01*
X185548Y-66017D01*
X184895Y-65040D01*
X183551Y-64142D01*
X181965Y-63827D01*
X180379Y-64142D01*
X179035Y-65040D01*
X178382Y-66017D01*
X178226Y-66067D01*
X177127D01*
X176971Y-66017D01*
X176318Y-65040D01*
X174974Y-64142D01*
X173388Y-63827D01*
X171802Y-64142D01*
X170458Y-65040D01*
X169800Y-66024D01*
X169037Y-66042D01*
X168482Y-65964D01*
X168441Y-65948D01*
X167613Y-64709D01*
X166269Y-63811D01*
X164683Y-63496D01*
X163097Y-63811D01*
X161753Y-64709D01*
X161100Y-65686D01*
X160945Y-65735D01*
X159845D01*
X159689Y-65686D01*
X159036Y-64709D01*
X157692Y-63811D01*
X156106Y-63496D01*
X154521Y-63811D01*
X153176Y-64709D01*
X152523Y-65686D01*
X152368Y-65735D01*
X151268D01*
X151112Y-65686D01*
X150459Y-64709D01*
X149115Y-63811D01*
X147529Y-63496D01*
X145944Y-63811D01*
X144599Y-64709D01*
X143947Y-65686D01*
X143791Y-65735D01*
X142691D01*
X142535Y-65686D01*
X141882Y-64709D01*
X140538Y-63811D01*
X138953Y-63496D01*
X137367Y-63811D01*
X136023Y-64709D01*
X135370Y-65686D01*
X135214Y-65735D01*
X134114D01*
X133958Y-65686D01*
X133306Y-64709D01*
X131961Y-63811D01*
X130376Y-63496D01*
X128790Y-63811D01*
X128276Y-64154D01*
X110823Y-46641D01*
X109359Y-46641D01*
X108573Y-45856D01*
X108331Y-44022D01*
X107624Y-42313D01*
X106498Y-40846D01*
X105030Y-39720D01*
X103322Y-39012D01*
X101488Y-38771D01*
X99654Y-39012D01*
X97945Y-39720D01*
X96478Y-40846D01*
X95352Y-42313D01*
X94644Y-44022D01*
X94403Y-45856D01*
Y-46642D01*
X12531Y-46644D01*
X5573Y-39687D01*
X5573Y-33431D01*
X15585Y-23419D01*
X134917Y-23419D01*
D02*
G37*
%LPC*%
G36*
X214137Y-43654D02*
X212551Y-43969D01*
X211207Y-44867D01*
X210309Y-46212D01*
X209993Y-47797D01*
X210309Y-49383D01*
X211207Y-50727D01*
X212551Y-51626D01*
X214137Y-51941D01*
X215723Y-51626D01*
X217067Y-50727D01*
X217965Y-49383D01*
X218281Y-47797D01*
X217965Y-46212D01*
X217067Y-44867D01*
X215723Y-43969D01*
X214137Y-43654D01*
D02*
G37*
G36*
X276300Y-45764D02*
X274714Y-46079D01*
X273370Y-46978D01*
X272472Y-48322D01*
X272157Y-49907D01*
X272472Y-51493D01*
X273370Y-52838D01*
X274714Y-53736D01*
X276300Y-54051D01*
X277886Y-53736D01*
X279230Y-52838D01*
X280128Y-51493D01*
X280444Y-49907D01*
X280128Y-48322D01*
X279230Y-46978D01*
X277886Y-46079D01*
X276300Y-45764D01*
D02*
G37*
G36*
X187990Y-38771D02*
X186156Y-39012D01*
X184448Y-39720D01*
X182980Y-40846D01*
X181854Y-42313D01*
X181147Y-44022D01*
X180905Y-45856D01*
Y-51855D01*
X181147Y-53689D01*
X181854Y-55398D01*
X182980Y-56865D01*
X184448Y-57991D01*
X186156Y-58699D01*
X187990Y-58940D01*
X189824Y-58699D01*
X191533Y-57991D01*
X193000Y-56865D01*
X194126Y-55398D01*
X194834Y-53689D01*
X195075Y-51855D01*
Y-45856D01*
X194834Y-44022D01*
X194126Y-42313D01*
X193000Y-40846D01*
X191533Y-39720D01*
X189824Y-39012D01*
X187990Y-38771D01*
D02*
G37*
%LPD*%
D63*
X48141Y264300D02*
X315600D01*
X2775Y218934D02*
X48141Y264300D01*
X2775Y196382D02*
Y218934D01*
X315600Y264300D02*
X391421Y188479D01*
X120739Y8703D02*
X125297Y4144D01*
X164134Y9042D02*
X168951D01*
X125297Y4144D02*
X159236D01*
X164134Y9042D01*
X516506Y85771D02*
X524040D01*
X391421Y124462D02*
X430112Y85771D01*
X516506D01*
X391421Y124462D02*
Y188479D01*
D69*
X457483Y305185D02*
D03*
D70*
X671200Y30458D02*
D03*
Y224457D02*
D03*
D71*
X0Y255258D02*
D03*
Y0D02*
D03*
D75*
X77336Y270904D02*
D03*
X44506Y240469D02*
D03*
X2775Y196382D02*
D03*
X-31493Y197487D02*
D03*
X-38222D02*
D03*
X295634Y257696D02*
D03*
X281566Y270904D02*
D03*
X269501D02*
D03*
X349373Y239866D02*
D03*
X306712Y257696D02*
D03*
X280921D02*
D03*
X198079D02*
D03*
X322646Y247915D02*
D03*
X241963Y271836D02*
D03*
X214764Y272390D02*
D03*
X254007D02*
D03*
X230258Y273025D02*
D03*
X296806Y278359D02*
D03*
X180376Y275438D02*
D03*
X169298D02*
D03*
X158630Y274676D02*
D03*
X195352D02*
D03*
X122711D02*
D03*
X135643Y275438D02*
D03*
X96980Y274231D02*
D03*
X260738Y256515D02*
D03*
X295634Y251218D02*
D03*
X240720Y255466D02*
D03*
X278456Y251218D02*
D03*
X313815D02*
D03*
X201302Y252070D02*
D03*
X397500Y90800D02*
D03*
X339200Y74300D02*
D03*
X284159Y-67970D02*
D03*
X199984Y323114D02*
D03*
X208323D02*
D03*
X216663D02*
D03*
X225002D02*
D03*
X233342D02*
D03*
X293574Y285674D02*
D03*
X279920Y283786D02*
D03*
X298011Y290111D02*
D03*
X302448Y294548D02*
D03*
X286926Y284737D02*
D03*
X-29328Y20080D02*
D03*
X-58921Y8985D02*
D03*
X-62362Y14445D02*
D03*
X-63005Y21374D02*
D03*
X-62913Y27751D02*
D03*
X120739Y8703D02*
D03*
X168951Y9042D02*
D03*
X29598Y17997D02*
D03*
X573305Y202837D02*
D03*
X527250Y79167D02*
D03*
X575215D02*
D03*
X517279D02*
D03*
X524040Y85771D02*
D03*
X516506D02*
D03*
X442700Y79167D02*
D03*
X451600D02*
D03*
X459953D02*
D03*
X471500D02*
D03*
X482900D02*
D03*
X494298D02*
D03*
X505213D02*
D03*
X517144Y96027D02*
D03*
X607700Y38000D02*
D03*
X580150Y53800D02*
D03*
X565700Y130100D02*
D03*
X578600Y138932D02*
D03*
X582985Y110700D02*
D03*
X561600Y196300D02*
D03*
X580237Y202537D02*
D03*
X600889Y211863D02*
D03*
X56086Y-64799D02*
D03*
X138953Y-67639D02*
D03*
X130376D02*
D03*
X48398Y-62855D02*
D03*
X173388Y-67970D02*
D03*
X164683Y-67639D02*
D03*
X40534Y-60734D02*
D03*
X30377Y-57140D02*
D03*
X23001Y-54463D02*
D03*
X121799Y-67639D02*
D03*
X156106D02*
D03*
X147529D02*
D03*
X104645D02*
D03*
X113222D02*
D03*
X598800Y48100D02*
D03*
X340240Y197634D02*
D03*
X442700Y140100D02*
D03*
X403020Y155195D02*
D03*
X476013Y96027D02*
D03*
X492163D02*
D03*
X545930D02*
D03*
X436000Y140100D02*
D03*
X456700Y139700D02*
D03*
X442700Y118800D02*
D03*
X449600Y140100D02*
D03*
X445400Y131600D02*
D03*
X468120Y126796D02*
D03*
X470000Y118800D02*
D03*
X477290Y126608D02*
D03*
X433500Y214100D02*
D03*
X489323Y114413D02*
D03*
X505213Y96445D02*
D03*
X494298Y102346D02*
D03*
X477693Y106523D02*
D03*
X417600Y182800D02*
D03*
X409287D02*
D03*
X404500Y176900D02*
D03*
X423900Y183100D02*
D03*
X302609Y212374D02*
D03*
X609797Y201628D02*
D03*
X602700D02*
D03*
X500900Y124800D02*
D03*
X475900Y206400D02*
D03*
X460000Y183100D02*
D03*
X406137Y148382D02*
D03*
X402200Y162662D02*
D03*
X615570Y70008D02*
D03*
X604300Y53800D02*
D03*
X462500Y211300D02*
D03*
X625500Y198868D02*
D03*
X529420Y96445D02*
D03*
X494298Y53138D02*
D03*
X514500Y55700D02*
D03*
X531680Y57358D02*
D03*
X543669D02*
D03*
X573200Y51248D02*
D03*
X564121Y37318D02*
D03*
X595930Y28418D02*
D03*
X606750D02*
D03*
X508200Y228300D02*
D03*
X559500Y100485D02*
D03*
X548792Y48758D02*
D03*
X606100Y115000D02*
D03*
X621740Y120200D02*
D03*
X625500Y191221D02*
D03*
X590800Y110700D02*
D03*
X625500Y146513D02*
D03*
Y156927D02*
D03*
Y166503D02*
D03*
Y175493D02*
D03*
X588942Y203527D02*
D03*
X563913Y138932D02*
D03*
X598400Y111100D02*
D03*
X625500Y137100D02*
D03*
X-31941Y163378D02*
D03*
X428953Y-60034D02*
D03*
Y-53069D02*
D03*
X348074Y-23358D02*
D03*
X356076D02*
D03*
X315027Y11934D02*
D03*
X-29060Y158527D02*
D03*
X-29103Y168091D02*
D03*
X6249Y-46806D02*
D03*
X-2396Y-41884D02*
D03*
X-14224Y287653D02*
D03*
X-19812Y283652D02*
D03*
X-24572Y279306D02*
D03*
X-29815Y274891D02*
D03*
X-35127Y270752D02*
D03*
X-39818Y266268D02*
D03*
X16125Y-36904D02*
D03*
X9563D02*
D03*
X-14289Y-34338D02*
D03*
X-20007Y-30184D02*
D03*
X-25337Y-25830D02*
D03*
X-30656Y-21115D02*
D03*
X-35841Y-16435D02*
D03*
X-40797Y-11480D02*
D03*
X-45890Y-6524D02*
D03*
X202526Y-6382D02*
D03*
X190761Y11299D02*
D03*
X197797Y-26177D02*
D03*
X201054Y-49296D02*
D03*
X308682Y11934D02*
D03*
X315027Y-452D02*
D03*
X308710Y5458D02*
D03*
X315027D02*
D03*
X308682Y-452D02*
D03*
X268838Y124562D02*
D03*
X615570Y79918D02*
D03*
X180376Y322665D02*
D03*
X172542D02*
D03*
X370078Y123911D02*
D03*
X369707Y148382D02*
D03*
X370466Y136500D02*
D03*
X369958Y162662D02*
D03*
X369570Y171536D02*
D03*
X369199Y196007D02*
D03*
X369958Y184125D02*
D03*
X116593Y238227D02*
D03*
X230811Y239356D02*
D03*
X214764Y236761D02*
D03*
X191509D02*
D03*
X173340Y240469D02*
D03*
X150723Y236761D02*
D03*
X128476Y238986D02*
D03*
X104004Y238615D02*
D03*
X95130Y238227D02*
D03*
X98559Y178156D02*
D03*
X533145Y228448D02*
D03*
Y212958D02*
D03*
X408900Y142800D02*
D03*
X503547Y211049D02*
D03*
X472615Y231513D02*
D03*
X452649Y236050D02*
D03*
X432823Y224765D02*
D03*
X480321Y217399D02*
D03*
X456699Y224765D02*
D03*
X376816Y221590D02*
D03*
X404121Y290551D02*
D03*
X411355Y254202D02*
D03*
X417202Y267905D02*
D03*
X382277Y254229D02*
D03*
X391421Y238354D02*
D03*
X392310Y250546D02*
D03*
X369608Y234235D02*
D03*
X363708Y246487D02*
D03*
X353321Y255626D02*
D03*
X135643Y289662D02*
D03*
X144787Y298679D02*
D03*
X172542Y306777D02*
D03*
X152788Y311594D02*
D03*
X300235Y241910D02*
D03*
X275948Y244069D02*
D03*
X256366Y243551D02*
D03*
X-50203Y-1844D02*
D03*
X-54746Y3616D02*
D03*
X522119Y106523D02*
D03*
X545930Y114700D02*
D03*
X517144Y115397D02*
D03*
X535429Y105345D02*
D03*
X586871Y217334D02*
D03*
X563800Y122800D02*
D03*
X571000Y109800D02*
D03*
X554499Y107675D02*
D03*
X609797Y233919D02*
D03*
X607172Y223394D02*
D03*
X609797Y212009D02*
D03*
X496069Y228448D02*
D03*
X519564Y224638D02*
D03*
X467303Y-67716D02*
D03*
X448945D02*
D03*
X422282D02*
D03*
X430809D02*
D03*
X394723D02*
D03*
X403250D02*
D03*
X410396D02*
D03*
X35112Y285499D02*
D03*
X118752Y308585D02*
D03*
X139865Y306680D02*
D03*
X90685D02*
D03*
X69984Y280899D02*
D03*
X337954Y270739D02*
D03*
X322079Y275311D02*
D03*
X359036Y284201D02*
D03*
X359646Y309592D02*
D03*
X311663Y303363D02*
D03*
X343161Y300711D02*
D03*
X427108Y277008D02*
D03*
Y299695D02*
D03*
X410334Y302680D02*
D03*
X396510Y306630D02*
D03*
X372117Y273660D02*
D03*
X390913Y271120D02*
D03*
X417202Y282550D02*
D03*
X345164Y281615D02*
D03*
X390532Y286868D02*
D03*
X368180Y297409D02*
D03*
X324974Y316674D02*
D03*
X320537Y312237D02*
D03*
X122711Y296097D02*
D03*
X113164Y283312D02*
D03*
X105557Y296097D02*
D03*
X90411Y289844D02*
D03*
X69347Y296097D02*
D03*
X53855Y294488D02*
D03*
X580150Y14048D02*
D03*
X611650D02*
D03*
X601606Y20295D02*
D03*
X591700Y20549D02*
D03*
X148442Y291157D02*
D03*
X577200Y237853D02*
D03*
X190542Y-67970D02*
D03*
X181965D02*
D03*
X422903Y322665D02*
D03*
X431480D02*
D03*
X440057D02*
D03*
X388595D02*
D03*
X397172D02*
D03*
X405749D02*
D03*
X414326D02*
D03*
X354288D02*
D03*
X362865D02*
D03*
X371441D02*
D03*
X380019D02*
D03*
X307226Y298926D02*
D03*
X330885Y322665D02*
D03*
X337134D02*
D03*
X345711D02*
D03*
X337134Y308027D02*
D03*
X316100Y307800D02*
D03*
X165595Y322665D02*
D03*
X131288D02*
D03*
X139865D02*
D03*
X148442D02*
D03*
X157019D02*
D03*
X327842Y235560D02*
D03*
X-8903Y-38371D02*
D03*
X-15248Y217968D02*
D03*
X-8100Y211328D02*
D03*
X276300Y-67970D02*
D03*
X-44700Y262118D02*
D03*
X-49492Y256578D02*
D03*
X-53977Y251478D02*
D03*
X-58769Y245323D02*
D03*
X-8500Y291911D02*
D03*
X-2607Y295349D02*
D03*
X4093Y299126D02*
D03*
X10387Y302108D02*
D03*
X16663Y304396D02*
D03*
X22712Y307840D02*
D03*
X28912Y310202D02*
D03*
X36023Y312982D02*
D03*
X-31493Y211798D02*
D03*
X-31040Y205003D02*
D03*
X-41665Y211251D02*
D03*
X-5302Y173726D02*
D03*
X470712Y296748D02*
D03*
X470611Y283358D02*
D03*
X471110Y258568D02*
D03*
X590985Y228758D02*
D03*
X569690Y223394D02*
D03*
X556591Y212958D02*
D03*
X545650Y217334D02*
D03*
X539089Y237089D02*
D03*
X516770Y241348D02*
D03*
X503547Y242748D02*
D03*
X493870D02*
D03*
X480010Y241348D02*
D03*
X466110Y246806D02*
D03*
X608750Y45818D02*
D03*
X555633Y64298D02*
D03*
X526720Y68078D02*
D03*
X595930Y40458D02*
D03*
X575215Y28418D02*
D03*
X625500Y129228D02*
D03*
X614650Y57358D02*
D03*
X539170Y39648D02*
D03*
X556963Y138932D02*
D03*
X562440Y51248D02*
D03*
X552520Y32458D02*
D03*
X548792Y17062D02*
D03*
X562440Y14048D02*
D03*
X531680Y28418D02*
D03*
X518420Y20218D02*
D03*
X528340Y12628D02*
D03*
X536130Y48758D02*
D03*
X524040Y47370D02*
D03*
X580150Y45818D02*
D03*
X520100Y37318D02*
D03*
X506790Y12328D02*
D03*
X503950Y67055D02*
D03*
X501815Y47370D02*
D03*
X503950Y37318D02*
D03*
X501815Y24394D02*
D03*
X503950Y114413D02*
D03*
X482900Y62564D02*
D03*
X487660Y31235D02*
D03*
X490900Y15768D02*
D03*
X614025Y114700D02*
D03*
X571031Y138932D02*
D03*
X548000Y126477D02*
D03*
X596031Y203423D02*
D03*
X625500Y184578D02*
D03*
X617940Y201628D02*
D03*
X559696Y234671D02*
D03*
X567140Y202537D02*
D03*
Y183100D02*
D03*
X559163D02*
D03*
X542300Y206818D02*
D03*
X545650Y228758D02*
D03*
X402200Y169200D02*
D03*
X527250Y122500D02*
D03*
X521800Y206400D02*
D03*
X445350Y211300D02*
D03*
X509800Y105345D02*
D03*
X485350Y126608D02*
D03*
X125586Y187375D02*
D03*
X-4260Y143661D02*
D03*
X-37927Y205306D02*
D03*
X-45610Y197537D02*
D03*
X-5311Y154356D02*
D03*
X461985Y44377D02*
D03*
X448730Y56819D02*
D03*
X384673Y-67539D02*
D03*
X377527D02*
D03*
X446007Y-35111D02*
D03*
X363435Y-23358D02*
D03*
X371041Y3475D02*
D03*
X366045Y-3155D02*
D03*
X238915Y-24486D02*
D03*
X232383Y-29240D02*
D03*
X16125Y-30017D02*
D03*
X443247Y-52826D02*
D03*
Y-59913D02*
D03*
X436100Y-52948D02*
D03*
Y-59913D02*
D03*
X343680Y-67539D02*
D03*
X369000D02*
D03*
X337513D02*
D03*
X379873Y692D02*
D03*
X208376Y-55925D02*
D03*
X201054Y-55457D02*
D03*
X208376Y-61618D02*
D03*
X201054Y-61574D02*
D03*
X246005Y-27409D02*
D03*
X255200Y-67970D02*
D03*
X216031D02*
D03*
X223889D02*
D03*
X248100D02*
D03*
X329595Y-67539D02*
D03*
X327250Y-52500D02*
D03*
X319801Y-52500D02*
D03*
Y-46582D02*
D03*
X327250D02*
D03*
X36200Y1393D02*
D03*
X35471Y8546D02*
D03*
X32771Y-7621D02*
D03*
X22687Y-43677D02*
D03*
X16125D02*
D03*
X476192Y14197D02*
D03*
X430700Y183100D02*
D03*
X438025D02*
D03*
X466680Y36188D02*
D03*
X475059Y27555D02*
D03*
X471500Y48858D02*
D03*
X459953Y56819D02*
D03*
X328821Y62453D02*
D03*
X487416Y42436D02*
D03*
X122711Y322665D02*
D03*
X114134D02*
D03*
X105557D02*
D03*
X96980D02*
D03*
X86721Y322428D02*
D03*
X77986Y321884D02*
D03*
X69606Y320643D02*
D03*
X60515Y319442D02*
D03*
X51833Y317597D02*
D03*
X43152Y315292D02*
D03*
X-62814Y238640D02*
D03*
X445350Y183100D02*
D03*
X452675D02*
D03*
M02*
