G04*
G04 #@! TF.GenerationSoftware,Altium Limited,Altium Designer,22.2.1 (43)*
G04*
G04 Layer_Color=8388736*
%FSLAX44Y44*%
%MOMM*%
G71*
G04*
G04 #@! TF.SameCoordinates,32B94617-2C73-494B-87D1-3967A9C4A560*
G04*
G04*
G04 #@! TF.FilePolarity,Negative*
G04*
G01*
G75*
%ADD28R,0.3000X0.3000*%
%ADD32C,0.2032*%
G04:AMPARAMS|DCode=33|XSize=0.7mm|YSize=0.6mm|CornerRadius=0.15mm|HoleSize=0mm|Usage=FLASHONLY|Rotation=0.000|XOffset=0mm|YOffset=0mm|HoleType=Round|Shape=RoundedRectangle|*
%AMROUNDEDRECTD33*
21,1,0.7000,0.3000,0,0,0.0*
21,1,0.4000,0.6000,0,0,0.0*
1,1,0.3000,0.2000,-0.1500*
1,1,0.3000,-0.2000,-0.1500*
1,1,0.3000,-0.2000,0.1500*
1,1,0.3000,0.2000,0.1500*
%
%ADD33ROUNDEDRECTD33*%
%ADD34R,1.0032X1.6032*%
%ADD35R,1.6032X1.0032*%
G04:AMPARAMS|DCode=36|XSize=0.7mm|YSize=0.6mm|CornerRadius=0.15mm|HoleSize=0mm|Usage=FLASHONLY|Rotation=90.000|XOffset=0mm|YOffset=0mm|HoleType=Round|Shape=RoundedRectangle|*
%AMROUNDEDRECTD36*
21,1,0.7000,0.3000,0,0,90.0*
21,1,0.4000,0.6000,0,0,90.0*
1,1,0.3000,0.1500,0.2000*
1,1,0.3000,0.1500,-0.2000*
1,1,0.3000,-0.1500,-0.2000*
1,1,0.3000,-0.1500,0.2000*
%
%ADD36ROUNDEDRECTD36*%
G04:AMPARAMS|DCode=37|XSize=1.4mm|YSize=0.8mm|CornerRadius=0.19mm|HoleSize=0mm|Usage=FLASHONLY|Rotation=0.000|XOffset=0mm|YOffset=0mm|HoleType=Round|Shape=RoundedRectangle|*
%AMROUNDEDRECTD37*
21,1,1.4000,0.4200,0,0,0.0*
21,1,1.0200,0.8000,0,0,0.0*
1,1,0.3800,0.5100,-0.2100*
1,1,0.3800,-0.5100,-0.2100*
1,1,0.3800,-0.5100,0.2100*
1,1,0.3800,0.5100,0.2100*
%
%ADD37ROUNDEDRECTD37*%
G04:AMPARAMS|DCode=38|XSize=0.4064mm|YSize=0.4064mm|CornerRadius=0.108mm|HoleSize=0mm|Usage=FLASHONLY|Rotation=180.000|XOffset=0mm|YOffset=0mm|HoleType=Round|Shape=RoundedRectangle|*
%AMROUNDEDRECTD38*
21,1,0.4064,0.1905,0,0,180.0*
21,1,0.1905,0.4064,0,0,180.0*
1,1,0.2159,-0.0953,0.0953*
1,1,0.2159,0.0953,0.0953*
1,1,0.2159,0.0953,-0.0953*
1,1,0.2159,-0.0953,-0.0953*
%
%ADD38ROUNDEDRECTD38*%
G04:AMPARAMS|DCode=39|XSize=1mm|YSize=0.7mm|CornerRadius=0.17mm|HoleSize=0mm|Usage=FLASHONLY|Rotation=180.000|XOffset=0mm|YOffset=0mm|HoleType=Round|Shape=RoundedRectangle|*
%AMROUNDEDRECTD39*
21,1,1.0000,0.3600,0,0,180.0*
21,1,0.6600,0.7000,0,0,180.0*
1,1,0.3400,-0.3300,0.1800*
1,1,0.3400,0.3300,0.1800*
1,1,0.3400,0.3300,-0.1800*
1,1,0.3400,-0.3300,-0.1800*
%
%ADD39ROUNDEDRECTD39*%
%ADD40R,1.2000X3.8000*%
%ADD41R,0.7033X0.8032*%
%ADD42R,1.0032X1.8032*%
G04:AMPARAMS|DCode=43|XSize=1.0032mm|YSize=0.8032mm|CornerRadius=0mm|HoleSize=0mm|Usage=FLASHONLY|Rotation=315.000|XOffset=0mm|YOffset=0mm|HoleType=Round|Shape=Rectangle|*
%AMROTATEDRECTD43*
4,1,4,-0.6387,0.0707,-0.0707,0.6387,0.6387,-0.0707,0.0707,-0.6387,-0.6387,0.0707,0.0*
%
%ADD43ROTATEDRECTD43*%

G04:AMPARAMS|DCode=44|XSize=1mm|YSize=0.7mm|CornerRadius=0.17mm|HoleSize=0mm|Usage=FLASHONLY|Rotation=270.000|XOffset=0mm|YOffset=0mm|HoleType=Round|Shape=RoundedRectangle|*
%AMROUNDEDRECTD44*
21,1,1.0000,0.3600,0,0,270.0*
21,1,0.6600,0.7000,0,0,270.0*
1,1,0.3400,-0.1800,-0.3300*
1,1,0.3400,-0.1800,0.3300*
1,1,0.3400,0.1800,0.3300*
1,1,0.3400,0.1800,-0.3300*
%
%ADD44ROUNDEDRECTD44*%
G04:AMPARAMS|DCode=45|XSize=1.2032mm|YSize=0.7032mm|CornerRadius=0.1641mm|HoleSize=0mm|Usage=FLASHONLY|Rotation=270.000|XOffset=0mm|YOffset=0mm|HoleType=Round|Shape=RoundedRectangle|*
%AMROUNDEDRECTD45*
21,1,1.2032,0.3750,0,0,270.0*
21,1,0.8750,0.7032,0,0,270.0*
1,1,0.3282,-0.1875,-0.4375*
1,1,0.3282,-0.1875,0.4375*
1,1,0.3282,0.1875,0.4375*
1,1,0.3282,0.1875,-0.4375*
%
%ADD45ROUNDEDRECTD45*%
%ADD46R,0.6533X0.8032*%
G04:AMPARAMS|DCode=47|XSize=0.4064mm|YSize=0.4064mm|CornerRadius=0.108mm|HoleSize=0mm|Usage=FLASHONLY|Rotation=270.000|XOffset=0mm|YOffset=0mm|HoleType=Round|Shape=RoundedRectangle|*
%AMROUNDEDRECTD47*
21,1,0.4064,0.1905,0,0,270.0*
21,1,0.1905,0.4064,0,0,270.0*
1,1,0.2159,-0.0953,-0.0953*
1,1,0.2159,-0.0953,0.0953*
1,1,0.2159,0.0953,0.0953*
1,1,0.2159,0.0953,-0.0953*
%
%ADD47ROUNDEDRECTD47*%
%ADD48C,1.7033*%
%ADD49C,2.7286*%
%ADD50C,4.7032*%
%ADD51O,1.1000X2.2001*%
%ADD52O,1.3033X1.9032*%
%ADD53C,0.7500*%
%ADD54O,1.2032X2.3033*%
%ADD55C,0.8732*%
G36*
X672180Y244473D02*
X672230Y244471D01*
X674088Y244288D01*
X674138Y244280D01*
X674187Y244273D01*
X676019Y243909D01*
X676067Y243897D01*
X676115Y243885D01*
X677902Y243343D01*
X677949Y243326D01*
X677996Y243310D01*
X679722Y242595D01*
X679766Y242573D01*
X679812Y242553D01*
X681459Y241672D01*
X681501Y241646D01*
X681544Y241621D01*
X683097Y240584D01*
X683137Y240553D01*
X683177Y240524D01*
X684621Y239340D01*
X684657Y239306D01*
X684695Y239273D01*
X685355Y238612D01*
X685355Y238612D01*
X686002Y237966D01*
X686034Y237929D01*
X686067Y237893D01*
X687231Y236482D01*
X687259Y236442D01*
X687289Y236404D01*
X688311Y234887D01*
X688336Y234845D01*
X688362Y234803D01*
X689234Y233195D01*
X689254Y233151D01*
X689276Y233107D01*
X689989Y231423D01*
X690005Y231377D01*
X690023Y231331D01*
X690572Y229587D01*
X690583Y229539D01*
X690596Y229492D01*
X690975Y227703D01*
X690982Y227654D01*
X690990Y227606D01*
X691195Y225788D01*
X691197Y225740D01*
X691201Y225691D01*
X691230Y223862D01*
X691228Y223813D01*
X691227Y223764D01*
X691080Y221941D01*
X691073Y221893D01*
X691068Y221844D01*
X690747Y220044D01*
X690735Y219996D01*
X690725Y219948D01*
X690233Y218187D01*
X690216Y218140D01*
X690202Y218094D01*
X689542Y216388D01*
X689522Y216343D01*
X689503Y216299D01*
X688683Y214664D01*
X688658Y214622D01*
X688635Y214579D01*
X687662Y213030D01*
X687633Y212991D01*
X687606Y212950D01*
X686488Y211502D01*
X686456Y211465D01*
X686424Y211428D01*
X685799Y210761D01*
X685787Y210749D01*
X685776Y210737D01*
X685739Y210704D01*
X685702Y210670D01*
X685688Y210660D01*
X685676Y210650D01*
X685634Y210622D01*
X685593Y210592D01*
X685579Y210585D01*
X685565Y210576D01*
X685520Y210553D01*
X685476Y210530D01*
X685461Y210524D01*
X685446Y210517D01*
X685398Y210500D01*
X685351Y210483D01*
X685335Y210479D01*
X685320Y210474D01*
X685270Y210464D01*
X685221Y210453D01*
X685205Y210451D01*
X685189Y210448D01*
X685139Y210445D01*
X685089Y210440D01*
X685072Y210440D01*
X685056Y210439D01*
X657344Y210439D01*
X657328Y210440D01*
X657311Y210440D01*
X657297Y210441D01*
X657283Y210441D01*
X657246Y210446D01*
X657211Y210448D01*
X657195Y210451D01*
X657179Y210453D01*
X657165Y210456D01*
X657151Y210458D01*
X657115Y210467D01*
X657080Y210474D01*
X657065Y210479D01*
X657049Y210483D01*
X657036Y210488D01*
X657022Y210491D01*
X656988Y210505D01*
X656954Y210517D01*
X656940Y210524D01*
X656925Y210529D01*
X656912Y210536D01*
X656898Y210542D01*
X656866Y210560D01*
X656835Y210576D01*
X656822Y210584D01*
X656807Y210592D01*
X656795Y210600D01*
X656783Y210608D01*
X656753Y210630D01*
X656724Y210650D01*
X656712Y210660D01*
X656699Y210670D01*
X656688Y210679D01*
X656677Y210688D01*
X656650Y210714D01*
X656624Y210737D01*
X656614Y210749D01*
X656601Y210760D01*
X655976Y211427D01*
X655945Y211465D01*
X655912Y211502D01*
X654795Y212949D01*
X654768Y212989D01*
X654739Y213029D01*
X653765Y214577D01*
X653742Y214620D01*
X653717Y214662D01*
X652897Y216297D01*
X652878Y216342D01*
X652857Y216386D01*
X652198Y218092D01*
X652183Y218138D01*
X652167Y218185D01*
X651674Y219946D01*
X651664Y219994D01*
X651653Y220041D01*
X651331Y221841D01*
X651326Y221890D01*
X651319Y221938D01*
X651172Y223761D01*
X651171Y223810D01*
X651169Y223859D01*
X651197Y225687D01*
X651201Y225736D01*
X651204Y225785D01*
X651408Y227602D01*
X651416Y227650D01*
X651423Y227698D01*
X651801Y229488D01*
X651815Y229535D01*
X651826Y229582D01*
X652374Y231327D01*
X652392Y231372D01*
X652408Y231419D01*
X653121Y233102D01*
X653143Y233146D01*
X653163Y233191D01*
X654035Y234798D01*
X654061Y234840D01*
X654085Y234882D01*
X655107Y236399D01*
X655137Y236437D01*
X655165Y236477D01*
X656328Y237888D01*
X656361Y237924D01*
X656394Y237961D01*
X657040Y238608D01*
X657040Y238608D01*
X657700Y239268D01*
X657738Y239301D01*
X657774Y239335D01*
X659217Y240520D01*
X659258Y240549D01*
X659297Y240579D01*
X660850Y241617D01*
X660893Y241642D01*
X660935Y241669D01*
X662582Y242549D01*
X662627Y242570D01*
X662672Y242592D01*
X664397Y243307D01*
X664444Y243323D01*
X664491Y243341D01*
X666278Y243883D01*
X666326Y243895D01*
X666375Y243908D01*
X668206Y244272D01*
X668255Y244279D01*
X668305Y244287D01*
X670163Y244471D01*
X670213Y244472D01*
X670263Y244475D01*
X672130Y244476D01*
X672180Y244473D01*
D02*
G37*
G36*
X685072Y44475D02*
X685089Y44475D01*
X685139Y44471D01*
X685189Y44467D01*
X685205Y44464D01*
X685221Y44462D01*
X685270Y44451D01*
X685320Y44441D01*
X685335Y44436D01*
X685351Y44432D01*
X685398Y44415D01*
X685446Y44398D01*
X685461Y44391D01*
X685476Y44386D01*
X685520Y44362D01*
X685565Y44340D01*
X685579Y44331D01*
X685593Y44323D01*
X685634Y44293D01*
X685676Y44266D01*
X685688Y44255D01*
X685702Y44246D01*
X685738Y44211D01*
X685776Y44178D01*
X685787Y44166D01*
X685799Y44155D01*
X686424Y43488D01*
X686456Y43450D01*
X686488Y43413D01*
X687606Y41966D01*
X687633Y41926D01*
X687662Y41886D01*
X688635Y40338D01*
X688658Y40295D01*
X688683Y40253D01*
X689503Y38618D01*
X689522Y38573D01*
X689543Y38529D01*
X690202Y36823D01*
X690217Y36777D01*
X690233Y36730D01*
X690726Y34970D01*
X690736Y34921D01*
X690748Y34874D01*
X691069Y33074D01*
X691074Y33025D01*
X691081Y32977D01*
X691228Y31154D01*
X691229Y31106D01*
X691232Y31056D01*
X691203Y29228D01*
X691199Y29179D01*
X691197Y29130D01*
X690992Y27313D01*
X690984Y27265D01*
X690977Y27217D01*
X690599Y25428D01*
X690586Y25380D01*
X690574Y25333D01*
X690026Y23588D01*
X690008Y23543D01*
X689992Y23496D01*
X689279Y21813D01*
X689258Y21769D01*
X689237Y21724D01*
X688366Y20117D01*
X688339Y20075D01*
X688315Y20033D01*
X687293Y18517D01*
X687263Y18478D01*
X687235Y18438D01*
X686072Y17027D01*
X686039Y16991D01*
X686006Y16954D01*
X685360Y16308D01*
X685360Y16307D01*
X684700Y15647D01*
X684662Y15614D01*
X684626Y15580D01*
X683183Y14395D01*
X683143Y14366D01*
X683103Y14336D01*
X681551Y13298D01*
X681507Y13273D01*
X681465Y13246D01*
X679818Y12366D01*
X679773Y12345D01*
X679728Y12323D01*
X678003Y11608D01*
X677956Y11592D01*
X677909Y11574D01*
X676122Y11032D01*
X676074Y11020D01*
X676025Y11007D01*
X674194Y10643D01*
X674145Y10636D01*
X674095Y10628D01*
X672237Y10445D01*
X672187Y10443D01*
X672137Y10440D01*
X670270Y10439D01*
X670220Y10443D01*
X670170Y10444D01*
X668312Y10627D01*
X668262Y10635D01*
X668213Y10642D01*
X666382Y11006D01*
X666333Y11019D01*
X666285Y11030D01*
X664498Y11572D01*
X664451Y11589D01*
X664404Y11605D01*
X662679Y12320D01*
X662634Y12342D01*
X662588Y12363D01*
X660941Y13243D01*
X660899Y13269D01*
X660856Y13294D01*
X659303Y14331D01*
X659264Y14362D01*
X659223Y14391D01*
X657779Y15575D01*
X657743Y15609D01*
X657705Y15642D01*
X657045Y16303D01*
X657045Y16303D01*
X656398Y16949D01*
X656366Y16986D01*
X656333Y17022D01*
X655170Y18433D01*
X655141Y18473D01*
X655111Y18512D01*
X654089Y20028D01*
X654064Y20071D01*
X654038Y20112D01*
X653167Y21720D01*
X653146Y21764D01*
X653124Y21808D01*
X652411Y23492D01*
X652395Y23538D01*
X652377Y23584D01*
X651829Y25329D01*
X651817Y25376D01*
X651804Y25423D01*
X651425Y27213D01*
X651419Y27262D01*
X651410Y27309D01*
X651205Y29127D01*
X651203Y29175D01*
X651199Y29224D01*
X651170Y31053D01*
X651172Y31102D01*
X651173Y31151D01*
X651320Y32974D01*
X651327Y33022D01*
X651332Y33071D01*
X651653Y34871D01*
X651665Y34919D01*
X651675Y34967D01*
X652167Y36728D01*
X652184Y36775D01*
X652198Y36821D01*
X652858Y38527D01*
X652878Y38572D01*
X652897Y38617D01*
X653717Y40251D01*
X653742Y40293D01*
X653765Y40337D01*
X654739Y41885D01*
X654767Y41925D01*
X654795Y41965D01*
X655912Y43413D01*
X655945Y43450D01*
X655976Y43488D01*
X656601Y44155D01*
X656613Y44166D01*
X656624Y44178D01*
X656662Y44211D01*
X656699Y44245D01*
X656712Y44255D01*
X656724Y44266D01*
X656766Y44293D01*
X656807Y44323D01*
X656821Y44331D01*
X656835Y44340D01*
X656880Y44362D01*
X656924Y44386D01*
X656940Y44391D01*
X656954Y44398D01*
X657002Y44415D01*
X657049Y44432D01*
X657065Y44436D01*
X657080Y44441D01*
X657130Y44451D01*
X657179Y44462D01*
X657195Y44464D01*
X657211Y44467D01*
X657261Y44471D01*
X657311Y44475D01*
X657328Y44475D01*
X657344Y44476D01*
X685056D01*
X685072Y44475D01*
D02*
G37*
G36*
X91298Y-3550D02*
X91392Y-3578D01*
X91479Y-3625D01*
X91555Y-3687D01*
X91618Y-3763D01*
X91664Y-3850D01*
X91693Y-3944D01*
X91702Y-4042D01*
Y-11042D01*
X91693Y-11141D01*
X91664Y-11235D01*
X91618Y-11322D01*
X91555Y-11398D01*
X91479Y-11460D01*
X91392Y-11507D01*
X91298Y-11535D01*
X91200Y-11545D01*
X78703D01*
Y-21042D01*
X78693Y-21140D01*
X78664Y-21235D01*
X78618Y-21322D01*
X78555Y-21398D01*
X78479Y-21460D01*
X78392Y-21507D01*
X78298Y-21535D01*
X78200Y-21545D01*
X68200D01*
X68102Y-21535D01*
X68008Y-21507D01*
X67921Y-21460D01*
X67845Y-21398D01*
X67782Y-21322D01*
X67736Y-21235D01*
X67707Y-21140D01*
X67698Y-21042D01*
Y-4042D01*
X67707Y-3944D01*
X67736Y-3850D01*
X67782Y-3763D01*
X67845Y-3687D01*
X67921Y-3625D01*
X68008Y-3578D01*
X68102Y-3550D01*
X68200Y-3540D01*
X91200D01*
X91298Y-3550D01*
D02*
G37*
G36*
X59298D02*
X59392Y-3578D01*
X59479Y-3625D01*
X59555Y-3687D01*
X59618Y-3763D01*
X59664Y-3850D01*
X59693Y-3944D01*
X59703Y-4042D01*
Y-21042D01*
X59693Y-21140D01*
X59664Y-21235D01*
X59618Y-21322D01*
X59555Y-21398D01*
X59479Y-21460D01*
X59392Y-21507D01*
X59298Y-21535D01*
X59200Y-21545D01*
X49200D01*
X49102Y-21535D01*
X49008Y-21507D01*
X48921Y-21460D01*
X48845Y-21398D01*
X48782Y-21322D01*
X48736Y-21235D01*
X48707Y-21140D01*
X48698Y-21042D01*
Y-11545D01*
X36200D01*
X36102Y-11535D01*
X36008Y-11507D01*
X35921Y-11460D01*
X35845Y-11398D01*
X35782Y-11322D01*
X35736Y-11235D01*
X35707Y-11141D01*
X35698Y-11042D01*
Y-4042D01*
X35707Y-3944D01*
X35736Y-3850D01*
X35782Y-3763D01*
X35845Y-3687D01*
X35921Y-3625D01*
X36008Y-3578D01*
X36102Y-3550D01*
X36200Y-3540D01*
X59200D01*
X59298Y-3550D01*
D02*
G37*
G36*
X78298Y-33550D02*
X78392Y-33578D01*
X78479Y-33625D01*
X78555Y-33687D01*
X78618Y-33763D01*
X78664Y-33850D01*
X78693Y-33944D01*
X78703Y-34042D01*
Y-43540D01*
X91200D01*
X91298Y-43550D01*
X91392Y-43578D01*
X91479Y-43625D01*
X91555Y-43687D01*
X91618Y-43763D01*
X91664Y-43850D01*
X91693Y-43944D01*
X91702Y-44042D01*
Y-51042D01*
X91693Y-51140D01*
X91664Y-51235D01*
X91618Y-51322D01*
X91555Y-51398D01*
X91479Y-51460D01*
X91392Y-51507D01*
X91298Y-51535D01*
X91200Y-51545D01*
X68200D01*
X68102Y-51535D01*
X68008Y-51507D01*
X67921Y-51460D01*
X67845Y-51398D01*
X67782Y-51322D01*
X67736Y-51235D01*
X67707Y-51140D01*
X67698Y-51042D01*
Y-34042D01*
X67707Y-33944D01*
X67736Y-33850D01*
X67782Y-33763D01*
X67845Y-33687D01*
X67921Y-33625D01*
X68008Y-33578D01*
X68102Y-33550D01*
X68200Y-33540D01*
X78200D01*
X78298Y-33550D01*
D02*
G37*
G36*
X59298D02*
X59392Y-33578D01*
X59479Y-33625D01*
X59555Y-33687D01*
X59618Y-33763D01*
X59664Y-33850D01*
X59693Y-33944D01*
X59703Y-34042D01*
Y-51042D01*
X59693Y-51140D01*
X59664Y-51235D01*
X59618Y-51322D01*
X59555Y-51398D01*
X59479Y-51460D01*
X59392Y-51507D01*
X59298Y-51535D01*
X59200Y-51545D01*
X36200D01*
X36102Y-51535D01*
X36008Y-51507D01*
X35921Y-51460D01*
X35845Y-51398D01*
X35782Y-51322D01*
X35736Y-51235D01*
X35707Y-51140D01*
X35698Y-51042D01*
Y-44042D01*
X35707Y-43944D01*
X35736Y-43850D01*
X35782Y-43763D01*
X35845Y-43687D01*
X35921Y-43625D01*
X36008Y-43578D01*
X36102Y-43550D01*
X36200Y-43540D01*
X48698D01*
Y-34042D01*
X48707Y-33944D01*
X48736Y-33850D01*
X48782Y-33763D01*
X48845Y-33687D01*
X48921Y-33625D01*
X49008Y-33578D01*
X49102Y-33550D01*
X49200Y-33540D01*
X59200D01*
X59298Y-33550D01*
D02*
G37*
D28*
X49200Y-7543D02*
D03*
X78200D02*
D03*
Y-47543D02*
D03*
X49200D02*
D03*
D32*
X-34866Y128381D02*
G03*
X-34866Y128381I-254J0D01*
G01*
X181254Y39559D02*
G03*
X181254Y39559I-254J0D01*
G01*
X-50343Y121647D02*
G03*
X-50343Y121647I-254J0D01*
G01*
X141724Y40254D02*
G03*
X141724Y40254I-254J0D01*
G01*
X-54321Y137374D02*
G03*
X-54321Y137374I-254J0D01*
G01*
D33*
X164390Y-19542D02*
D03*
Y-29542D02*
D03*
X339090Y-38542D02*
D03*
Y-28542D02*
D03*
X-49000Y66000D02*
D03*
Y56000D02*
D03*
X-52809Y95493D02*
D03*
Y105493D02*
D03*
X-1460Y75668D02*
D03*
Y65668D02*
D03*
X-35916Y91149D02*
D03*
Y101149D02*
D03*
X208420Y-26010D02*
D03*
Y-16010D02*
D03*
Y-33174D02*
D03*
X457013Y-38920D02*
D03*
X208922Y287401D02*
D03*
Y297401D02*
D03*
X218922Y287401D02*
D03*
Y297401D02*
D03*
X208420Y-43174D02*
D03*
X219776Y-2570D02*
D03*
Y7430D02*
D03*
X400451Y-14652D02*
D03*
Y-4652D02*
D03*
X339090Y-17542D02*
D03*
Y-7542D02*
D03*
X410025Y-14652D02*
D03*
Y-4652D02*
D03*
X27392Y180128D02*
D03*
Y190128D02*
D03*
X457013Y-28920D02*
D03*
X457410Y293078D02*
D03*
Y283078D02*
D03*
D34*
X219780Y49795D02*
D03*
X219530Y255585D02*
D03*
X125070Y49475D02*
D03*
X91249Y255565D02*
D03*
D35*
X59930Y109955D02*
D03*
X59930Y192365D02*
D03*
X59781Y57387D02*
D03*
X59440Y212535D02*
D03*
X59731Y70667D02*
D03*
X59630Y122705D02*
D03*
X59720Y135395D02*
D03*
X59720Y148085D02*
D03*
X59630Y160825D02*
D03*
X59930Y173575D02*
D03*
X59850Y84545D02*
D03*
X59750Y97255D02*
D03*
D36*
X-15407Y30506D02*
D03*
X-25407D02*
D03*
X-46630Y81106D02*
D03*
X-56630D02*
D03*
X134890Y-2122D02*
D03*
X124890D02*
D03*
X154890D02*
D03*
X164890D02*
D03*
X-8725Y94147D02*
D03*
X-18725D02*
D03*
X132310Y-32731D02*
D03*
X122310D02*
D03*
X239182Y7219D02*
D03*
X293000Y1858D02*
D03*
X239182Y-2531D02*
D03*
X208922Y305410D02*
D03*
X218922D02*
D03*
X-18725Y103023D02*
D03*
X-8725D02*
D03*
X-36504Y7864D02*
D03*
X-46504D02*
D03*
X-46343Y26856D02*
D03*
X-36343D02*
D03*
X132015Y-22284D02*
D03*
X122015D02*
D03*
X229182Y-2531D02*
D03*
X427382Y-42758D02*
D03*
X437381D02*
D03*
X283000Y1858D02*
D03*
X387800Y-12102D02*
D03*
X377800D02*
D03*
X229182Y7219D02*
D03*
X261185Y2430D02*
D03*
X251185D02*
D03*
X290Y169628D02*
D03*
X10290D02*
D03*
X-46343Y18833D02*
D03*
X-36343D02*
D03*
X290Y160826D02*
D03*
X10290D02*
D03*
X349574Y692D02*
D03*
X359574D02*
D03*
X-20407Y75283D02*
D03*
X-10407D02*
D03*
D37*
X-35629Y219993D02*
D03*
Y238993D02*
D03*
D38*
X-37808Y128381D02*
D03*
X-32744D02*
D03*
X178313Y39559D02*
D03*
X183377D02*
D03*
X-48221Y121647D02*
D03*
X-53285D02*
D03*
X139093Y40254D02*
D03*
X144157D02*
D03*
D39*
X310681Y-25042D02*
D03*
X29598Y-36100D02*
D03*
Y-21100D02*
D03*
X-50782Y219837D02*
D03*
Y234837D02*
D03*
X233616Y-49907D02*
D03*
Y-64908D02*
D03*
X356787Y-63542D02*
D03*
Y-48542D02*
D03*
X310681Y-10042D02*
D03*
D40*
X291600Y-23842D02*
D03*
X261600D02*
D03*
X414100Y-40442D02*
D03*
X384100D02*
D03*
D41*
X202275Y11299D02*
D03*
X197274Y24299D02*
D03*
X207276D02*
D03*
D42*
X248630Y305408D02*
D03*
X282630D02*
D03*
D43*
X155897Y32979D02*
D03*
X143876Y20958D02*
D03*
D44*
X98960Y-28086D02*
D03*
X113960D02*
D03*
D45*
X226510Y-38174D02*
D03*
X236010D02*
D03*
X245510D02*
D03*
X226510Y-14174D02*
D03*
X236010D02*
D03*
X245510D02*
D03*
X369000Y-12542D02*
D03*
X359500D02*
D03*
X350000D02*
D03*
X369000Y-36542D02*
D03*
X359500D02*
D03*
X350000D02*
D03*
D46*
X27067Y171169D02*
D03*
X18569D02*
D03*
D47*
X-54575Y139751D02*
D03*
Y134687D02*
D03*
D48*
X457483Y-16975D02*
D03*
Y-51976D02*
D03*
Y270184D02*
D03*
Y305185D02*
D03*
D49*
X671200Y30458D02*
D03*
Y224457D02*
D03*
D50*
X0Y255258D02*
D03*
Y0D02*
D03*
D51*
X101488Y-7055D02*
D03*
D52*
Y-48855D02*
D03*
X187990D02*
D03*
D53*
X115839Y-12056D02*
D03*
X173639D02*
D03*
D54*
X187990Y-7055D02*
D03*
D55*
X-50405Y45897D02*
D03*
Y209897D02*
D03*
M02*
