G04*
G04 #@! TF.GenerationSoftware,Altium Limited,Altium Designer,22.2.1 (43)*
G04*
G04 Layer_Physical_Order=3*
G04 Layer_Color=16440176*
%FSLAX44Y44*%
%MOMM*%
G71*
G04*
G04 #@! TF.SameCoordinates,32B94617-2C73-494B-87D1-3967A9C4A560*
G04*
G04*
G04 #@! TF.FilePolarity,Positive*
G04*
G01*
G75*
%ADD32C,0.2032*%
%ADD56C,0.1524*%
%ADD65C,0.2540*%
%ADD69C,1.5001*%
%ADD70C,2.5254*%
%ADD71C,4.5000*%
%ADD75C,0.5080*%
%ADD76C,0.6700*%
%ADD77C,1.0160*%
G36*
X475644Y248004D02*
X475802Y247211D01*
X476251Y246539D01*
X476923Y246090D01*
X477716Y245932D01*
X698222D01*
X700802Y243353D01*
X700802Y212009D01*
X685574D01*
X685056Y211457D01*
X657344Y211457D01*
X657344Y211457D01*
X656826Y212009D01*
X638590D01*
X637797Y211851D01*
X637125Y211402D01*
X636676Y210730D01*
X636518Y209937D01*
Y43736D01*
X636676Y42944D01*
X637125Y42271D01*
X637797Y41822D01*
X638590Y41665D01*
X655849D01*
X656718Y42791D01*
X657344Y43458D01*
X685056D01*
X685682Y42791D01*
X686552Y41665D01*
X700802D01*
Y10580D01*
X697757Y7536D01*
X477716Y7536D01*
X476923Y7378D01*
X476251Y6929D01*
X475802Y6257D01*
X475644Y5464D01*
Y-72214D01*
X97981Y-72214D01*
X97617Y-72287D01*
X97250Y-72347D01*
X96930Y-72468D01*
X91413D01*
X79646Y-71770D01*
X67940Y-70377D01*
X56338Y-68293D01*
X44879Y-65526D01*
X33604Y-62085D01*
X22553Y-57984D01*
X11763Y-53235D01*
X1274Y-47855D01*
X-8878Y-41864D01*
X-18658Y-35283D01*
X-28031Y-28133D01*
X-36964Y-20442D01*
X-45427Y-12236D01*
X-53388Y-3542D01*
X-60821Y5607D01*
X-66318Y13257D01*
Y239923D01*
X-61715Y246423D01*
X-54503Y255448D01*
X-46780Y264038D01*
X-38571Y272167D01*
X-29904Y279805D01*
X-20809Y286928D01*
X-11316Y293511D01*
X-1457Y299532D01*
X8734Y304971D01*
X19224Y309810D01*
X29978Y314031D01*
X40958Y317622D01*
X52127Y320570D01*
X63449Y322865D01*
X74886Y324499D01*
X86397Y325466D01*
X92172Y325616D01*
X92331Y325652D01*
X92493Y325649D01*
X92671Y325682D01*
X239529D01*
X239529Y321290D01*
X238652Y320436D01*
X200470Y320435D01*
Y320435D01*
X198610D01*
X195005Y319516D01*
X191739Y317735D01*
X189014Y315202D01*
X186999Y312074D01*
X186252Y309839D01*
X185824Y309412D01*
X184990Y308163D01*
X184416Y306777D01*
X184123Y305305D01*
Y303804D01*
X184416Y302331D01*
X184990Y300945D01*
X185824Y299697D01*
X186886Y298635D01*
X187558Y298186D01*
X187740Y297786D01*
X190067Y294883D01*
X193039Y292645D01*
X196472Y291211D01*
X198312Y290940D01*
X239529Y290940D01*
X239529Y288596D01*
X291726Y288596D01*
X328812Y325682D01*
X475644D01*
Y248004D01*
D02*
G37*
%LPC*%
G36*
X458805Y315226D02*
X458754D01*
Y306455D01*
X467524D01*
Y306507D01*
X466840Y309061D01*
X465518Y311350D01*
X463649Y313220D01*
X461359Y314542D01*
X458805Y315226D01*
D02*
G37*
G36*
X456213D02*
X456162D01*
X453608Y314542D01*
X451318Y313220D01*
X449449Y311350D01*
X448127Y309061D01*
X447443Y306507D01*
Y306455D01*
X456213D01*
Y315226D01*
D02*
G37*
G36*
X467524Y303915D02*
X458754D01*
Y295145D01*
X458805D01*
X461359Y295829D01*
X463649Y297151D01*
X465518Y299020D01*
X466840Y301310D01*
X467524Y303864D01*
Y303915D01*
D02*
G37*
G36*
X456213D02*
X447443D01*
Y303864D01*
X448127Y301310D01*
X449449Y299020D01*
X451318Y297151D01*
X453608Y295829D01*
X456162Y295145D01*
X456213D01*
Y303915D01*
D02*
G37*
G36*
X458672Y279209D02*
X456295D01*
X454000Y278594D01*
X451942Y277406D01*
X450262Y275725D01*
X449074Y273668D01*
X448459Y271372D01*
Y268996D01*
X449074Y266701D01*
X450262Y264643D01*
X451942Y262963D01*
X454000Y261775D01*
X456295Y261160D01*
X458672D01*
X460967Y261775D01*
X463025Y262963D01*
X464705Y264643D01*
X465893Y266701D01*
X466508Y268996D01*
Y271372D01*
X465893Y273668D01*
X464705Y275725D01*
X463025Y277406D01*
X460967Y278594D01*
X458672Y279209D01*
D02*
G37*
G36*
X-30684Y215863D02*
X-32301D01*
X-33795Y215244D01*
X-34938Y214101D01*
X-35556Y212607D01*
Y210990D01*
X-35412Y210640D01*
X-36311Y209492D01*
X-37007Y209597D01*
X-37601Y210442D01*
Y212059D01*
X-38220Y213553D01*
X-39363Y214696D01*
X-40857Y215315D01*
X-42474D01*
X-43967Y214696D01*
X-45110Y213553D01*
X-45729Y212059D01*
Y210442D01*
X-45110Y208949D01*
X-43967Y207805D01*
X-42856Y207345D01*
X-41991Y206114D01*
Y204497D01*
X-41372Y203004D01*
X-40631Y202262D01*
X-40542Y201160D01*
X-40742Y200714D01*
X-41061Y200395D01*
X-41946Y199949D01*
X-42720Y200395D01*
X-43308Y200982D01*
X-44802Y201601D01*
X-46418D01*
X-47912Y200982D01*
X-49055Y199839D01*
X-49674Y198345D01*
Y196729D01*
X-49055Y195235D01*
X-47912Y194092D01*
X-46418Y193473D01*
X-44802D01*
X-43308Y194092D01*
X-42771Y194629D01*
X-41886Y195075D01*
X-41111Y194629D01*
X-40524Y194042D01*
X-39030Y193423D01*
X-37413D01*
X-35920Y194042D01*
X-34857Y195104D01*
X-33795Y194042D01*
X-32301Y193423D01*
X-30684D01*
X-29190Y194042D01*
X-28047Y195185D01*
X-27429Y196679D01*
Y198295D01*
X-28047Y199789D01*
X-28528Y200270D01*
X-28729Y201501D01*
X-28447Y201848D01*
X-27595Y202701D01*
X-26976Y204194D01*
Y205811D01*
X-27595Y207305D01*
X-28738Y208448D01*
X-28797Y208746D01*
X-28047Y209496D01*
X-27429Y210990D01*
Y212607D01*
X-28047Y214101D01*
X-29190Y215244D01*
X-30684Y215863D01*
D02*
G37*
G36*
X39179Y209985D02*
X37562D01*
X36069Y209366D01*
X34925Y208223D01*
X34307Y206729D01*
Y205113D01*
X34925Y203619D01*
X36069Y202476D01*
X37562Y201857D01*
X39179D01*
X40673Y202476D01*
X41816Y203619D01*
X42435Y205113D01*
Y206729D01*
X41816Y208223D01*
X40673Y209366D01*
X39179Y209985D01*
D02*
G37*
G36*
X3583Y200446D02*
X1966D01*
X473Y199827D01*
X-670Y198684D01*
X-1289Y197190D01*
Y195574D01*
X-670Y194080D01*
X473Y192937D01*
X1966Y192318D01*
X3583D01*
X5077Y192937D01*
X6220Y194080D01*
X6839Y195574D01*
Y197190D01*
X6220Y198684D01*
X5077Y199827D01*
X3583Y200446D01*
D02*
G37*
G36*
X-45005Y189795D02*
X-46622D01*
X-48116Y189176D01*
X-49259Y188033D01*
X-49878Y186539D01*
Y184922D01*
X-49259Y183429D01*
X-48116Y182285D01*
X-46622Y181667D01*
X-45005D01*
X-43512Y182285D01*
X-42368Y183429D01*
X-41750Y184922D01*
Y186539D01*
X-42368Y188033D01*
X-43512Y189176D01*
X-45005Y189795D01*
D02*
G37*
G36*
X36536Y180676D02*
X34920D01*
X33426Y180058D01*
X32283Y178914D01*
X31664Y177421D01*
Y175804D01*
X32283Y174310D01*
X33426Y173167D01*
X34920Y172548D01*
X36536D01*
X38030Y173167D01*
X39173Y174310D01*
X39792Y175804D01*
Y177421D01*
X39173Y178914D01*
X38030Y180058D01*
X36536Y180676D01*
D02*
G37*
G36*
X36758Y195412D02*
X35142D01*
X33648Y194793D01*
X32505Y193650D01*
X31886Y192156D01*
Y191312D01*
X10050Y169476D01*
X-2008D01*
X-2535Y170746D01*
X-1857Y171424D01*
X-1238Y172918D01*
Y174534D01*
X-1857Y176028D01*
X-3000Y177171D01*
X-4494Y177790D01*
X-6111D01*
X-7604Y177171D01*
X-8748Y176028D01*
X-9366Y174534D01*
Y172918D01*
X-8748Y171424D01*
X-7604Y170281D01*
X-6111Y169662D01*
X-5689D01*
X-5482Y169373D01*
X-5209Y168392D01*
X-19940Y153661D01*
X-20557Y152737D01*
X-20774Y151647D01*
X-20774Y151647D01*
Y148659D01*
X-29592Y139841D01*
X-30436D01*
X-31930Y139223D01*
X-33073Y138079D01*
X-33691Y136586D01*
Y134969D01*
X-33073Y133475D01*
X-31930Y132332D01*
X-30436Y131713D01*
X-28819D01*
X-27325Y132332D01*
X-26182Y133475D01*
X-25563Y134969D01*
Y135813D01*
X-15911Y145465D01*
X-15911Y145465D01*
X-15294Y146389D01*
X-15077Y147479D01*
Y150467D01*
X-1765Y163779D01*
X11230D01*
X11230Y163779D01*
X12320Y163996D01*
X13245Y164613D01*
X35915Y187284D01*
X36758D01*
X38252Y187902D01*
X39395Y189046D01*
X40014Y190539D01*
Y192156D01*
X39395Y193650D01*
X38252Y194793D01*
X36758Y195412D01*
D02*
G37*
G36*
X48090Y278216D02*
X46473D01*
X44980Y277597D01*
X43836Y276454D01*
X43218Y274960D01*
Y273343D01*
X43836Y271849D01*
X44951Y270735D01*
Y265930D01*
X45128Y265038D01*
X45634Y264282D01*
X45759Y264156D01*
Y258827D01*
X-22779Y190289D01*
X-23284Y189532D01*
X-23462Y188640D01*
Y160958D01*
X-24137Y160392D01*
X-25574Y160731D01*
X-25615Y160829D01*
X-26758Y161972D01*
X-27924Y162456D01*
X-27877Y162570D01*
Y164186D01*
X-27882Y164198D01*
X-26801Y164646D01*
X-25657Y165789D01*
X-25039Y167283D01*
Y168900D01*
X-25657Y170393D01*
X-26801Y171537D01*
X-28294Y172155D01*
X-29911D01*
X-31405Y171537D01*
X-32548Y170393D01*
X-33167Y168900D01*
Y167283D01*
X-33162Y167271D01*
X-34243Y166823D01*
X-35387Y165680D01*
X-36005Y164186D01*
Y162570D01*
X-35387Y161076D01*
X-34243Y159933D01*
X-33077Y159450D01*
X-33124Y159335D01*
Y157719D01*
X-32505Y156225D01*
X-31362Y155082D01*
X-30626Y154777D01*
X-30317Y153290D01*
X-37967Y145640D01*
X-39543D01*
X-41037Y145021D01*
X-42180Y143878D01*
X-42288Y143617D01*
X-43787Y143319D01*
X-43867Y143399D01*
X-44690Y143740D01*
X-45157Y145179D01*
X-45153Y145202D01*
X-44760Y145746D01*
X-43935D01*
X-42442Y146364D01*
X-41298Y147507D01*
X-40680Y149001D01*
Y150618D01*
X-41298Y152112D01*
X-42442Y153255D01*
X-43935Y153874D01*
X-45552D01*
X-47046Y153255D01*
X-48189Y152112D01*
X-48808Y150618D01*
Y149750D01*
X-63631Y134927D01*
X-64193Y134087D01*
X-64390Y133096D01*
Y67683D01*
X-64193Y66692D01*
X-63631Y65852D01*
X-39906Y42126D01*
X-39066Y41565D01*
X-38075Y41368D01*
X163837D01*
X165245Y39960D01*
Y38750D01*
X165863Y37257D01*
X167006Y36113D01*
X168500Y35495D01*
X170117D01*
X171611Y36113D01*
X172754Y37257D01*
X173373Y38750D01*
Y40367D01*
X172754Y41861D01*
X171611Y43004D01*
X170117Y43623D01*
X168907D01*
X166741Y45789D01*
X165901Y46350D01*
X164910Y46547D01*
X-37002D01*
X-59210Y68755D01*
Y132023D01*
X-51503Y139730D01*
X-50233Y139204D01*
Y139145D01*
X-49614Y137652D01*
X-48471Y136509D01*
X-46977Y135890D01*
X-45360D01*
X-43867Y136509D01*
X-42723Y137652D01*
X-42615Y137913D01*
X-41117Y138210D01*
X-41037Y138130D01*
X-39543Y137512D01*
X-37927D01*
X-36433Y138130D01*
X-35290Y139274D01*
X-34671Y140767D01*
Y142344D01*
X-19483Y157532D01*
X-18978Y158288D01*
X-18800Y159180D01*
Y187675D01*
X49738Y256213D01*
X50244Y256970D01*
X50421Y257861D01*
Y265121D01*
X50244Y266013D01*
X49738Y266769D01*
X49612Y266895D01*
Y270735D01*
X50727Y271849D01*
X51346Y273343D01*
Y274960D01*
X50727Y276454D01*
X49584Y277597D01*
X48090Y278216D01*
D02*
G37*
G36*
X28694Y155307D02*
X26143D01*
X25251Y155130D01*
X24495Y154625D01*
X19702Y149832D01*
X19197Y149076D01*
X19019Y148184D01*
Y142943D01*
X17749Y142417D01*
X17268Y142898D01*
X15775Y143517D01*
X14158D01*
X12664Y142898D01*
X11521Y141755D01*
X10902Y140261D01*
Y138985D01*
X-2375Y125708D01*
X-2375Y125708D01*
X-6056Y122027D01*
X-6062Y122033D01*
X-6743Y121751D01*
X-7423Y122033D01*
X-7430Y122027D01*
X-11137Y125735D01*
X-11137Y125735D01*
X-11092Y125781D01*
X-12940Y127016D01*
X-15121Y127450D01*
X-17301Y127016D01*
X-19149Y125781D01*
X-19149Y125781D01*
X-19149Y125781D01*
X-20384Y123932D01*
X-20818Y121752D01*
X-20384Y119572D01*
X-19149Y117723D01*
X-19103Y117769D01*
X-15396Y114061D01*
X-15396Y114061D01*
X-15402Y114055D01*
X-15120Y113374D01*
X-15402Y112694D01*
X-15396Y112688D01*
X-15396Y112688D01*
X-15934Y112149D01*
X-30727Y97357D01*
X-31232Y96600D01*
X-31409Y95708D01*
Y94768D01*
X-32524Y93653D01*
X-33142Y92159D01*
Y90542D01*
X-32524Y89049D01*
X-31381Y87906D01*
X-29887Y87287D01*
X-28270D01*
X-26776Y87906D01*
X-25633Y89049D01*
X-25015Y90542D01*
Y92159D01*
X-25633Y93653D01*
X-26735Y94755D01*
X-12638Y108852D01*
X-12099Y109391D01*
X-12099Y109391D01*
X-12054Y109346D01*
X-10819Y111194D01*
X-10385Y113374D01*
X-10819Y115555D01*
X-12054Y117403D01*
X-12099Y117357D01*
X-15807Y121065D01*
X-15801Y121072D01*
X-15847Y121182D01*
X-15801Y122432D01*
X-14550Y122478D01*
X-14440Y122432D01*
X-14434Y122439D01*
X-10726Y118731D01*
X-10772Y118685D01*
X-8923Y117450D01*
X-6743Y117016D01*
X-4563Y117450D01*
X-2714Y118685D01*
X-2760Y118731D01*
X921Y122412D01*
X921Y122412D01*
X13974Y135465D01*
X14158Y135389D01*
X15775D01*
X17268Y136008D01*
X17749Y136489D01*
X19019Y135963D01*
Y112182D01*
X15522Y108684D01*
X349D01*
Y109266D01*
X-270Y110760D01*
X-1413Y111903D01*
X-2907Y112522D01*
X-4524D01*
X-6017Y111903D01*
X-7161Y110760D01*
X-7779Y109266D01*
Y107649D01*
X-7161Y106156D01*
X-6017Y105013D01*
X-4524Y104394D01*
X-2907D01*
X-2487Y104568D01*
X-1937Y104200D01*
X-1045Y104023D01*
X16487D01*
X17379Y104200D01*
X18135Y104705D01*
X22998Y109569D01*
X23503Y110325D01*
X23681Y111217D01*
Y136033D01*
X24951Y136559D01*
X25037Y136472D01*
X26531Y135854D01*
X28148D01*
X29642Y136472D01*
X30051Y136882D01*
X31074Y136249D01*
X31145Y136180D01*
Y134588D01*
X31764Y133094D01*
X32878Y131980D01*
Y96373D01*
X12114Y75609D01*
X-25348D01*
X-25874Y76879D01*
X-25454Y77300D01*
X-24835Y78793D01*
Y80410D01*
X-25454Y81904D01*
X-26597Y83047D01*
X-28091Y83666D01*
X-29707D01*
X-31201Y83047D01*
X-32344Y81904D01*
X-32963Y80410D01*
Y78793D01*
X-32344Y77300D01*
X-31924Y76879D01*
X-32450Y75609D01*
X-35940D01*
X-35954Y75643D01*
X-36950Y76638D01*
X-37097Y76875D01*
X-37090Y78158D01*
X-36443Y78804D01*
X-35824Y80298D01*
Y81915D01*
X-36443Y83408D01*
X-37586Y84551D01*
X-39080Y85170D01*
X-40697D01*
X-42191Y84551D01*
X-43334Y83408D01*
X-43952Y81915D01*
Y80298D01*
X-43334Y78804D01*
X-42338Y77809D01*
X-42191Y77572D01*
X-42198Y76289D01*
X-42207Y76281D01*
X-43495Y76179D01*
X-43755Y76393D01*
X-44681Y77319D01*
X-46175Y77938D01*
X-47791D01*
X-49285Y77319D01*
X-49951Y76653D01*
X-51221Y77179D01*
Y82339D01*
X-46084Y87476D01*
X-45628Y87287D01*
X-44012D01*
X-42518Y87906D01*
X-41375Y89049D01*
X-40756Y90542D01*
Y92159D01*
X-41375Y93653D01*
X-42518Y94796D01*
X-44012Y95415D01*
X-45628D01*
X-47122Y94796D01*
X-48265Y93653D01*
X-48884Y92159D01*
Y91269D01*
X-55200Y84953D01*
X-55705Y84196D01*
X-55883Y83305D01*
Y71445D01*
X-55705Y70553D01*
X-55200Y69797D01*
X-47238Y61834D01*
X-46482Y61329D01*
X-45590Y61151D01*
X-45583D01*
X-44735Y59881D01*
X-44907Y59465D01*
Y57848D01*
X-44289Y56354D01*
X-43145Y55211D01*
X-41652Y54592D01*
X-40035D01*
X-38541Y55211D01*
X-36827Y55129D01*
X-36417Y54720D01*
X-34923Y54101D01*
X-33306D01*
X-31813Y54720D01*
X-30670Y55863D01*
X-30051Y57357D01*
Y58973D01*
X-30427Y59881D01*
X-29694Y61151D01*
X27620D01*
X28512Y61329D01*
X29268Y61834D01*
X39108Y71674D01*
X40684D01*
X42178Y72293D01*
X43321Y73436D01*
X43939Y74930D01*
Y76547D01*
X43321Y78040D01*
X42178Y79183D01*
X40684Y79802D01*
X39067D01*
X37573Y79183D01*
X36430Y78040D01*
X35812Y76547D01*
Y74970D01*
X26654Y65813D01*
X-44624D01*
X-47351Y68540D01*
X-46825Y69810D01*
X-46175D01*
X-44681Y70428D01*
X-44176Y70933D01*
X-42887Y71035D01*
X-42628Y70822D01*
X-41702Y69896D01*
X-40208Y69277D01*
X-38591D01*
X-37097Y69896D01*
X-36046Y70947D01*
X13080D01*
X13972Y71125D01*
X14728Y71630D01*
X36857Y93759D01*
X37363Y94515D01*
X37540Y95407D01*
Y122698D01*
X38810Y123546D01*
X39227Y123374D01*
X40844D01*
X42337Y123992D01*
X43481Y125135D01*
X44099Y126629D01*
Y128246D01*
X43481Y129740D01*
X42337Y130883D01*
X40844Y131502D01*
X39227D01*
X38352Y132514D01*
X38287Y132726D01*
X38654Y133094D01*
X39273Y134588D01*
Y136205D01*
X38654Y137698D01*
X37511Y138841D01*
X36018Y139460D01*
X34401D01*
X32907Y138841D01*
X32497Y138432D01*
X31475Y139065D01*
X31404Y139134D01*
Y140726D01*
X31310Y140951D01*
X34578Y144219D01*
X35083Y144975D01*
X35261Y145867D01*
Y148741D01*
X35083Y149633D01*
X34578Y150389D01*
X34578Y150389D01*
X30342Y154625D01*
X29586Y155130D01*
X28694Y155307D01*
D02*
G37*
G36*
X294748Y134008D02*
X293132D01*
X291638Y133390D01*
X290495Y132246D01*
X289876Y130753D01*
Y129136D01*
X290495Y127642D01*
X291638Y126499D01*
X293132Y125880D01*
X294748D01*
X296242Y126499D01*
X297385Y127642D01*
X298004Y129136D01*
Y130753D01*
X297385Y132246D01*
X296242Y133390D01*
X294748Y134008D01*
D02*
G37*
G36*
X-43532Y134176D02*
X-45149D01*
X-46643Y133557D01*
X-47786Y132414D01*
X-48405Y130920D01*
Y129304D01*
X-47786Y127810D01*
X-46643Y126667D01*
X-45149Y126048D01*
X-44277D01*
X-43697Y124832D01*
X-44316Y123338D01*
Y121721D01*
X-43697Y120227D01*
X-42554Y119084D01*
X-41060Y118466D01*
X-39444D01*
X-37950Y119084D01*
X-36807Y120227D01*
X-36188Y121721D01*
Y123338D01*
X-36807Y124832D01*
X-37950Y125975D01*
X-39444Y126594D01*
X-40316D01*
X-40895Y127810D01*
X-40277Y129304D01*
Y130920D01*
X-40895Y132414D01*
X-42039Y133557D01*
X-43532Y134176D01*
D02*
G37*
G36*
X268663Y120144D02*
X267047D01*
X265553Y119525D01*
X264410Y118382D01*
X263791Y116889D01*
Y115272D01*
X264410Y113778D01*
X265553Y112635D01*
X267047Y112016D01*
X268663D01*
X270157Y112635D01*
X271300Y113778D01*
X271919Y115272D01*
Y116889D01*
X271300Y118382D01*
X270157Y119525D01*
X268663Y120144D01*
D02*
G37*
G36*
X7448Y119537D02*
X5831D01*
X4337Y118918D01*
X3194Y117775D01*
X2576Y116281D01*
Y114665D01*
X3194Y113171D01*
X4337Y112028D01*
X5831Y111409D01*
X7448D01*
X8942Y112028D01*
X10085Y113171D01*
X10704Y114665D01*
Y116281D01*
X10085Y117775D01*
X8942Y118918D01*
X7448Y119537D01*
D02*
G37*
G36*
X-32574Y112690D02*
X-34191D01*
X-35685Y112071D01*
X-36828Y110928D01*
X-37447Y109434D01*
Y107818D01*
X-36828Y106324D01*
X-35685Y105181D01*
X-34191Y104562D01*
X-32574D01*
X-31081Y105181D01*
X-29937Y106324D01*
X-29319Y107818D01*
Y109434D01*
X-29937Y110928D01*
X-31081Y112071D01*
X-32574Y112690D01*
D02*
G37*
G36*
X-46175Y117323D02*
X-47791D01*
X-49285Y116704D01*
X-50428Y115561D01*
X-51047Y114067D01*
Y112450D01*
X-50428Y110956D01*
X-49285Y109813D01*
X-48692Y109568D01*
X-48366Y108098D01*
X-48985Y106604D01*
Y104987D01*
X-48366Y103494D01*
X-47223Y102351D01*
X-45729Y101732D01*
X-44112D01*
X-42619Y102351D01*
X-41475Y103494D01*
X-40857Y104987D01*
Y106604D01*
X-41475Y108098D01*
X-42619Y109241D01*
X-43211Y109487D01*
X-43538Y110956D01*
X-42919Y112450D01*
Y114067D01*
X-43538Y115561D01*
X-44681Y116704D01*
X-46175Y117323D01*
D02*
G37*
G36*
X81496Y104503D02*
X79879D01*
X78385Y103884D01*
X77242Y102741D01*
X76624Y101247D01*
Y99630D01*
X77242Y98137D01*
X78385Y96994D01*
X79879Y96375D01*
X81496D01*
X82990Y96994D01*
X84133Y98137D01*
X84752Y99630D01*
Y101247D01*
X84133Y102741D01*
X82990Y103884D01*
X81496Y104503D01*
D02*
G37*
G36*
X524849Y89835D02*
X523232D01*
X521738Y89217D01*
X521102Y88581D01*
X520273Y88215D01*
X519443Y88581D01*
X518808Y89217D01*
X517314Y89835D01*
X515697D01*
X514203Y89217D01*
X513060Y88074D01*
X512442Y86580D01*
Y84963D01*
X513060Y83469D01*
X514203Y82326D01*
X515697Y81707D01*
X517314D01*
X518808Y82326D01*
X519443Y82962D01*
X520273Y83327D01*
X521102Y82962D01*
X521738Y82326D01*
X523232Y81707D01*
X524849D01*
X526342Y82326D01*
X527485Y83469D01*
X528104Y84963D01*
Y86580D01*
X527485Y88074D01*
X526342Y89217D01*
X524849Y89835D01*
D02*
G37*
G36*
X268663Y93444D02*
X267047D01*
X265553Y92825D01*
X264410Y91682D01*
X263791Y90188D01*
Y88571D01*
X264410Y87078D01*
X265553Y85934D01*
X267047Y85316D01*
X268663D01*
X270157Y85934D01*
X271300Y87078D01*
X271919Y88571D01*
Y90188D01*
X271300Y91682D01*
X270157Y92825D01*
X268663Y93444D01*
D02*
G37*
G36*
X-5631Y91542D02*
X-7248D01*
X-8742Y90923D01*
X-9885Y89780D01*
X-10504Y88286D01*
Y86669D01*
X-9885Y85176D01*
X-8742Y84032D01*
X-7248Y83414D01*
X-5631D01*
X-4138Y84032D01*
X-2995Y85176D01*
X-2376Y86669D01*
Y88286D01*
X-2995Y89780D01*
X-4138Y90923D01*
X-5631Y91542D01*
D02*
G37*
G36*
X40009Y60103D02*
X38392D01*
X36899Y59484D01*
X35755Y58341D01*
X35137Y56847D01*
Y55230D01*
X35755Y53737D01*
X36899Y52593D01*
X38392Y51975D01*
X40009D01*
X41503Y52593D01*
X42646Y53737D01*
X43265Y55230D01*
Y56847D01*
X42646Y58341D01*
X41503Y59484D01*
X40009Y60103D01*
D02*
G37*
G36*
X337954Y232315D02*
X337954Y232315D01*
X90304D01*
X88580Y232088D01*
X86974Y231422D01*
X85594Y230364D01*
X85594Y230364D01*
X73656Y218426D01*
X72597Y217046D01*
X71932Y215440D01*
X71705Y213716D01*
X71705Y213715D01*
Y141356D01*
Y139955D01*
X71932Y138231D01*
X72597Y136625D01*
X73656Y135245D01*
X75036Y134187D01*
X76642Y133521D01*
X78366Y133294D01*
X80090Y133521D01*
X81697Y134187D01*
X83076Y135245D01*
X84135Y136625D01*
X84800Y138231D01*
X85027Y139955D01*
Y141356D01*
Y210956D01*
X93063Y218993D01*
X335195D01*
X345771Y208417D01*
Y102972D01*
X345771Y102972D01*
X345998Y101248D01*
X346664Y99641D01*
X347722Y98262D01*
X403324Y42660D01*
X403324Y42660D01*
X404703Y41601D01*
X406310Y40936D01*
X408034Y40709D01*
X408034Y40709D01*
X448730D01*
X450454Y40936D01*
X452061Y41601D01*
X453440Y42660D01*
X454499Y44039D01*
X455164Y45646D01*
X455391Y47370D01*
X455164Y49094D01*
X454499Y50700D01*
X453440Y52080D01*
X452061Y53138D01*
X450454Y53804D01*
X448730Y54031D01*
X410793D01*
X359093Y105731D01*
Y211176D01*
X358866Y212900D01*
X358201Y214506D01*
X357142Y215886D01*
X357142Y215886D01*
X342664Y230364D01*
X341285Y231422D01*
X339678Y232088D01*
X337954Y232315D01*
D02*
G37*
G36*
X-6594Y34416D02*
X-8210D01*
X-9704Y33797D01*
X-10847Y32654D01*
X-11466Y31161D01*
Y29544D01*
X-10847Y28050D01*
X-9704Y26907D01*
X-8210Y26288D01*
X-6594D01*
X-5100Y26907D01*
X-3957Y28050D01*
X-3338Y29544D01*
Y31161D01*
X-3957Y32654D01*
X-5100Y33797D01*
X-6594Y34416D01*
D02*
G37*
G36*
X186906Y32412D02*
X185289D01*
X183796Y31793D01*
X182652Y30650D01*
X182034Y29156D01*
Y27539D01*
X182652Y26046D01*
X183796Y24903D01*
X185289Y24284D01*
X186906D01*
X188400Y24903D01*
X189543Y26046D01*
X190162Y27539D01*
Y29156D01*
X189543Y30650D01*
X188400Y31793D01*
X186906Y32412D01*
D02*
G37*
G36*
X315836Y15998D02*
X314219D01*
X312725Y15379D01*
X311854Y14508D01*
X310984Y15379D01*
X309490Y15998D01*
X307873D01*
X306380Y15379D01*
X305236Y14236D01*
X304618Y12742D01*
Y11125D01*
X305236Y9632D01*
X306186Y8681D01*
X305265Y7760D01*
X304646Y6266D01*
Y4649D01*
X305265Y3155D01*
X305903Y2517D01*
X305236Y1850D01*
X304618Y357D01*
Y-1260D01*
X305236Y-2754D01*
X306380Y-3897D01*
X307873Y-4516D01*
X309490D01*
X310984Y-3897D01*
X311854Y-3026D01*
X312725Y-3897D01*
X314219Y-4516D01*
X315836D01*
X317329Y-3897D01*
X318473Y-2754D01*
X319091Y-1260D01*
Y357D01*
X318473Y1850D01*
X317820Y2503D01*
X318473Y3155D01*
X319091Y4649D01*
Y6266D01*
X318473Y7760D01*
X317537Y8696D01*
X318473Y9632D01*
X319091Y11125D01*
Y12742D01*
X318473Y14236D01*
X317329Y15379D01*
X315836Y15998D01*
D02*
G37*
G36*
X169760Y13106D02*
X168143D01*
X166649Y12488D01*
X165506Y11344D01*
X164887Y9851D01*
Y8234D01*
X165506Y6740D01*
X166649Y5597D01*
X168143Y4978D01*
X169760D01*
X171253Y5597D01*
X172396Y6740D01*
X173015Y8234D01*
Y9851D01*
X172396Y11344D01*
X171253Y12488D01*
X169760Y13106D01*
D02*
G37*
G36*
X121547Y12767D02*
X119930D01*
X118436Y12148D01*
X117293Y11005D01*
X116675Y9511D01*
Y7894D01*
X117293Y6401D01*
X118436Y5257D01*
X119930Y4639D01*
X121547D01*
X123041Y5257D01*
X124184Y6401D01*
X124803Y7894D01*
Y9511D01*
X124184Y11005D01*
X123041Y12148D01*
X121547Y12767D01*
D02*
G37*
G36*
X174589Y-7282D02*
X172689D01*
X170935Y-8009D01*
X169592Y-9352D01*
X168865Y-11106D01*
Y-13005D01*
X169592Y-14760D01*
X170935Y-16103D01*
X172689Y-16830D01*
X174589D01*
X176343Y-16103D01*
X177686Y-14760D01*
X178413Y-13005D01*
Y-11106D01*
X177686Y-9352D01*
X176343Y-8009D01*
X174589Y-7282D01*
D02*
G37*
G36*
X116789D02*
X114889D01*
X113135Y-8009D01*
X111792Y-9352D01*
X111065Y-11106D01*
Y-13005D01*
X111792Y-14760D01*
X113135Y-16103D01*
X114889Y-16830D01*
X116789D01*
X118543Y-16103D01*
X119886Y-14760D01*
X120613Y-13005D01*
Y-11106D01*
X119886Y-9352D01*
X118543Y-8009D01*
X116789Y-7282D01*
D02*
G37*
G36*
X187990Y5026D02*
X186287Y4802D01*
X184700Y4144D01*
X183337Y3099D01*
X182292Y1736D01*
X181634Y149D01*
X181410Y-1554D01*
Y-12555D01*
X181634Y-14258D01*
X182292Y-15845D01*
X183337Y-17208D01*
X184700Y-18254D01*
X186287Y-18911D01*
X187990Y-19135D01*
X189693Y-18911D01*
X191280Y-18254D01*
X192643Y-17208D01*
X193689Y-15845D01*
X194346Y-14258D01*
X194570Y-12555D01*
Y-1554D01*
X194346Y149D01*
X193689Y1736D01*
X192643Y3099D01*
X191280Y4144D01*
X189693Y4802D01*
X187990Y5026D01*
D02*
G37*
G36*
X101488D02*
X99785Y4802D01*
X98198Y4144D01*
X96835Y3099D01*
X95789Y1736D01*
X95132Y149D01*
X94908Y-1554D01*
Y-12555D01*
X95132Y-14258D01*
X95789Y-15845D01*
X96835Y-17208D01*
X98198Y-18254D01*
X99785Y-18911D01*
X101488Y-19135D01*
X103191Y-18911D01*
X104778Y-18254D01*
X106141Y-17208D01*
X107187Y-15845D01*
X107844Y-14258D01*
X108068Y-12555D01*
Y-1554D01*
X107844Y149D01*
X107187Y1736D01*
X106141Y3099D01*
X104778Y4144D01*
X103191Y4802D01*
X101488Y5026D01*
D02*
G37*
G36*
X129138Y-8239D02*
X127522D01*
X126028Y-8857D01*
X124885Y-10000D01*
X124266Y-11494D01*
Y-13111D01*
X124885Y-14605D01*
X126028Y-15748D01*
X127522Y-16367D01*
X129138D01*
X130486Y-15808D01*
X130632Y-15748D01*
X131635Y-15271D01*
X132446Y-15963D01*
X132858Y-16376D01*
X133445Y-16619D01*
X134352Y-16994D01*
X135969D01*
X137462Y-16376D01*
X138606Y-15232D01*
X139024Y-15149D01*
X139863Y-15988D01*
X141356Y-16607D01*
X142973D01*
X144467Y-15988D01*
X145308Y-15148D01*
X145735Y-15232D01*
X146878Y-16376D01*
X148372Y-16994D01*
X149989D01*
X151482Y-16376D01*
X152492Y-15366D01*
X153502Y-16376D01*
X153966Y-16568D01*
X154263Y-18066D01*
X153738Y-18591D01*
X153120Y-20085D01*
Y-21702D01*
X153738Y-23195D01*
X154881Y-24338D01*
X156375Y-24957D01*
X157992D01*
X159486Y-24338D01*
X160629Y-23195D01*
X161248Y-21702D01*
Y-20085D01*
X160629Y-18591D01*
X159486Y-17448D01*
X159022Y-17256D01*
X158724Y-15758D01*
X159249Y-15232D01*
X159868Y-13739D01*
Y-12122D01*
X159249Y-10628D01*
X158106Y-9485D01*
X156612Y-8866D01*
X154995D01*
X153502Y-9485D01*
X152492Y-10495D01*
X151482Y-9485D01*
X149989Y-8866D01*
X148372D01*
X146878Y-9485D01*
X146037Y-10326D01*
X145610Y-10241D01*
X144467Y-9098D01*
X142973Y-8479D01*
X141356D01*
X139863Y-9098D01*
X138720Y-10241D01*
X138301Y-10324D01*
X137462Y-9485D01*
X135969Y-8866D01*
X134352D01*
X132858Y-9485D01*
X132249Y-10095D01*
X131775Y-10000D01*
X130632Y-8857D01*
X129138Y-8239D01*
D02*
G37*
G36*
X458672Y-7950D02*
X456295D01*
X454000Y-8565D01*
X451942Y-9753D01*
X450262Y-11433D01*
X449074Y-13491D01*
X448459Y-15786D01*
Y-18163D01*
X449074Y-20458D01*
X450262Y-22516D01*
X451942Y-24196D01*
X454000Y-25384D01*
X456295Y-25999D01*
X458672D01*
X460967Y-25384D01*
X463025Y-24196D01*
X464705Y-22516D01*
X465893Y-20458D01*
X466508Y-18163D01*
Y-15786D01*
X465893Y-13491D01*
X464705Y-11433D01*
X463025Y-9753D01*
X460967Y-8565D01*
X458672Y-7950D01*
D02*
G37*
G36*
X140123Y-19664D02*
X138506D01*
X137012Y-20282D01*
X135869Y-21426D01*
X135250Y-22919D01*
Y-24536D01*
X135869Y-26030D01*
X137012Y-27173D01*
X138506Y-27792D01*
X140123D01*
X141616Y-27173D01*
X142760Y-26030D01*
X143378Y-24536D01*
Y-22919D01*
X142760Y-21426D01*
X141616Y-20282D01*
X140123Y-19664D01*
D02*
G37*
G36*
X198605Y-22113D02*
X196988D01*
X195495Y-22731D01*
X194352Y-23875D01*
X193733Y-25368D01*
Y-26985D01*
X194352Y-28479D01*
X195495Y-29622D01*
X196988Y-30241D01*
X198605D01*
X200099Y-29622D01*
X201242Y-28479D01*
X201861Y-26985D01*
Y-25368D01*
X201242Y-23875D01*
X200099Y-22731D01*
X198605Y-22113D01*
D02*
G37*
G36*
X16933Y-25953D02*
X15316D01*
X13823Y-26572D01*
X12680Y-27715D01*
X12061Y-29209D01*
Y-30825D01*
X12680Y-32319D01*
X13821Y-33460D01*
X12844Y-34437D01*
X11865Y-33458D01*
X10371Y-32840D01*
X8755D01*
X7261Y-33458D01*
X6118Y-34602D01*
X5499Y-36095D01*
Y-37712D01*
X6118Y-39206D01*
X7261Y-40349D01*
X8755Y-40968D01*
X10371D01*
X11865Y-40349D01*
X12844Y-39370D01*
X13764Y-40290D01*
X12680Y-41375D01*
X12061Y-42868D01*
Y-44485D01*
X12680Y-45979D01*
X13823Y-47122D01*
X15316Y-47741D01*
X16933D01*
X18427Y-47122D01*
X19406Y-46143D01*
X20385Y-47122D01*
X21878Y-47741D01*
X23495D01*
X24989Y-47122D01*
X26132Y-45979D01*
X26751Y-44485D01*
Y-42868D01*
X26132Y-41375D01*
X24989Y-40231D01*
X23495Y-39613D01*
X21878D01*
X20385Y-40231D01*
X19406Y-41210D01*
X18486Y-40290D01*
X19570Y-39206D01*
X20189Y-37712D01*
Y-36095D01*
X19570Y-34602D01*
X18429Y-33460D01*
X19570Y-32319D01*
X20189Y-30825D01*
Y-29209D01*
X19570Y-27715D01*
X18427Y-26572D01*
X16933Y-25953D01*
D02*
G37*
G36*
X328058Y-42518D02*
X326442D01*
X324948Y-43137D01*
X324355Y-43730D01*
X323525Y-44141D01*
X322696Y-43730D01*
X322103Y-43137D01*
X320609Y-42518D01*
X318993D01*
X317499Y-43137D01*
X316356Y-44280D01*
X315737Y-45774D01*
Y-47390D01*
X316356Y-48884D01*
X317013Y-49541D01*
X316356Y-50198D01*
X315737Y-51692D01*
Y-53308D01*
X316356Y-54802D01*
X317499Y-55945D01*
X318993Y-56564D01*
X320609D01*
X322103Y-55945D01*
X322696Y-55353D01*
X323525Y-54941D01*
X324355Y-55353D01*
X324948Y-55945D01*
X326442Y-56564D01*
X328058D01*
X329552Y-55945D01*
X330695Y-54802D01*
X331314Y-53308D01*
Y-51692D01*
X330695Y-50198D01*
X330038Y-49541D01*
X330695Y-48884D01*
X331314Y-47390D01*
Y-45774D01*
X330695Y-44280D01*
X329552Y-43137D01*
X328058Y-42518D01*
D02*
G37*
G36*
X458672Y-42951D02*
X456295D01*
X454000Y-43566D01*
X451942Y-44754D01*
X450262Y-46435D01*
X449074Y-48492D01*
X448459Y-50788D01*
Y-51470D01*
X447189Y-51723D01*
X446693Y-50524D01*
X445549Y-49381D01*
X444055Y-48762D01*
X442439D01*
X440945Y-49381D01*
X440443Y-49883D01*
X439737Y-50483D01*
X438783Y-49883D01*
X438402Y-49502D01*
X436908Y-48884D01*
X435292D01*
X433798Y-49502D01*
X433296Y-50005D01*
X432590Y-50605D01*
X431636Y-50005D01*
X431255Y-49624D01*
X429762Y-49005D01*
X428145D01*
X426651Y-49624D01*
X425508Y-50767D01*
X424889Y-52261D01*
Y-53877D01*
X425508Y-55371D01*
X425859Y-55722D01*
X426617Y-56552D01*
X425859Y-57381D01*
X425508Y-57732D01*
X424889Y-59226D01*
Y-60843D01*
X425508Y-62337D01*
X426651Y-63480D01*
X428145Y-64099D01*
X429762D01*
X431255Y-63480D01*
X431758Y-62977D01*
X432464Y-62378D01*
X433417Y-62977D01*
X433798Y-63358D01*
X435292Y-63977D01*
X436908D01*
X438402Y-63358D01*
X438844Y-62917D01*
X439674Y-62309D01*
X440503Y-62917D01*
X440945Y-63358D01*
X442439Y-63977D01*
X444055D01*
X445549Y-63358D01*
X446693Y-62215D01*
X447311Y-60722D01*
Y-59105D01*
X446693Y-57611D01*
X446281Y-57199D01*
X445627Y-56370D01*
X446281Y-55540D01*
X446693Y-55128D01*
X447286Y-53695D01*
X447393Y-53656D01*
X448624Y-53780D01*
X449074Y-55459D01*
X450262Y-57517D01*
X451942Y-59197D01*
X454000Y-60385D01*
X456295Y-61000D01*
X458672D01*
X460967Y-60385D01*
X463025Y-59197D01*
X464705Y-57517D01*
X465893Y-55459D01*
X466508Y-53164D01*
Y-50788D01*
X465893Y-48492D01*
X464705Y-46435D01*
X463025Y-44754D01*
X460967Y-43566D01*
X458672Y-42951D01*
D02*
G37*
G36*
X187990Y-38771D02*
X186156Y-39012D01*
X184448Y-39720D01*
X182980Y-40846D01*
X181854Y-42313D01*
X181147Y-44022D01*
X180905Y-45856D01*
Y-51855D01*
X181147Y-53689D01*
X181854Y-55398D01*
X182980Y-56865D01*
X184448Y-57991D01*
X186156Y-58699D01*
X187990Y-58940D01*
X189824Y-58699D01*
X191533Y-57991D01*
X193000Y-56865D01*
X194126Y-55398D01*
X194834Y-53689D01*
X195075Y-51855D01*
Y-45856D01*
X194834Y-44022D01*
X194126Y-42313D01*
X193000Y-40846D01*
X191533Y-39720D01*
X189824Y-39012D01*
X187990Y-38771D01*
D02*
G37*
G36*
X101488D02*
X99654Y-39012D01*
X97945Y-39720D01*
X96478Y-40846D01*
X95352Y-42313D01*
X94644Y-44022D01*
X94403Y-45856D01*
Y-51855D01*
X94644Y-53689D01*
X95352Y-55398D01*
X96478Y-56865D01*
X97945Y-57991D01*
X99654Y-58699D01*
X101488Y-58940D01*
X103322Y-58699D01*
X105030Y-57991D01*
X106498Y-56865D01*
X107624Y-55398D01*
X108331Y-53689D01*
X108573Y-51855D01*
Y-45856D01*
X108331Y-44022D01*
X107624Y-42313D01*
X106498Y-40846D01*
X105030Y-39720D01*
X103322Y-39012D01*
X101488Y-38771D01*
D02*
G37*
G36*
X201862Y-45232D02*
X200245D01*
X198751Y-45851D01*
X197608Y-46994D01*
X196989Y-48487D01*
Y-50104D01*
X197608Y-51598D01*
X198387Y-52376D01*
X197608Y-53155D01*
X196989Y-54649D01*
Y-56266D01*
X197608Y-57759D01*
X198364Y-58516D01*
X197608Y-59272D01*
X196989Y-60765D01*
Y-62382D01*
X197608Y-63876D01*
X198751Y-65019D01*
X200245Y-65638D01*
X201862D01*
X203356Y-65019D01*
X203863Y-64512D01*
X204740Y-64026D01*
X205522Y-64512D01*
X206074Y-65064D01*
X207568Y-65683D01*
X209185D01*
X210678Y-65064D01*
X211821Y-63920D01*
X212440Y-62427D01*
Y-60810D01*
X211821Y-59316D01*
X211277Y-58772D01*
X211821Y-58228D01*
X212440Y-56734D01*
Y-55117D01*
X211821Y-53623D01*
X210678Y-52480D01*
X209185Y-51861D01*
X207568D01*
X206074Y-52480D01*
X205949Y-52605D01*
X204556Y-52599D01*
X204168Y-51929D01*
X204499Y-51598D01*
X205117Y-50104D01*
Y-48487D01*
X204499Y-46994D01*
X203356Y-45851D01*
X201862Y-45232D01*
D02*
G37*
G36*
X65579Y-48976D02*
X63962D01*
X62468Y-49595D01*
X61325Y-50738D01*
X60706Y-52231D01*
Y-53848D01*
X61325Y-55342D01*
X62289Y-56306D01*
X61326Y-57269D01*
X60707Y-58763D01*
Y-60380D01*
X61326Y-61873D01*
X62469Y-63017D01*
X63963Y-63635D01*
X65580D01*
X66848Y-63110D01*
X68183Y-63016D01*
X69327Y-64159D01*
X70820Y-64778D01*
X72437D01*
X73931Y-64159D01*
X74075Y-64015D01*
X74545Y-64066D01*
X75459Y-64428D01*
X75964Y-65647D01*
X77107Y-66790D01*
X78601Y-67409D01*
X80218D01*
X81711Y-66790D01*
X82854Y-65647D01*
X83473Y-64153D01*
Y-63093D01*
X83539Y-62500D01*
X84592Y-61919D01*
X85221D01*
X86715Y-61301D01*
X87858Y-60157D01*
X88477Y-58664D01*
Y-57047D01*
X87858Y-55553D01*
X86715Y-54410D01*
X85221Y-53791D01*
X83604D01*
X82111Y-54410D01*
X81926Y-54595D01*
X80452Y-54355D01*
X79309Y-53211D01*
X77815Y-52593D01*
X76198D01*
X74704Y-53211D01*
X73561Y-54355D01*
X73071Y-55538D01*
X72437Y-56650D01*
X70820D01*
X69552Y-57175D01*
X68217Y-57269D01*
X67252Y-56305D01*
X68216Y-55342D01*
X68834Y-53848D01*
Y-52231D01*
X68216Y-50738D01*
X67073Y-49595D01*
X65579Y-48976D01*
D02*
G37*
%LPD*%
D32*
X-61800Y67683D02*
X-38075Y43958D01*
X164910D02*
X169309Y39559D01*
X-38075Y43958D02*
X164910D01*
X-61800Y67683D02*
Y133096D01*
X-45086Y149810D01*
X-44744D01*
D56*
X-9078Y120379D02*
G03*
X-4408Y120379I2335J2335D01*
G01*
X-12786Y124087D02*
G03*
X-17455Y124087I-2335J-2335D01*
G01*
D02*
G03*
X-17455Y119417I2335J-2335D01*
G01*
X-13747Y111039D02*
G03*
X-13747Y115709I-2335J2335D01*
G01*
X27620Y63482D02*
X39876Y75738D01*
X47282Y265930D02*
Y274152D01*
Y265930D02*
X48090Y265121D01*
Y257861D02*
Y265121D01*
X-21131Y159180D02*
Y188640D01*
X48090Y257861D01*
X-53552Y71445D02*
X-45590Y63482D01*
X27620D01*
X-39337Y73278D02*
X13080D01*
X35209Y95407D02*
Y135396D01*
X13080Y73278D02*
X35209Y95407D01*
X-3149Y108458D02*
X-1045Y106354D01*
X16487D02*
X21350Y111217D01*
X-3715Y108458D02*
X-3149D01*
X-1045Y106354D02*
X16487D01*
X21350Y111217D02*
Y148184D01*
X-29079Y95708D02*
X-14286Y110500D01*
X-29079Y91351D02*
Y95708D01*
X14666Y139453D02*
X14966D01*
X-727Y124060D02*
X14666Y139453D01*
X-4408Y120379D02*
X-727Y124060D01*
X-12786Y124087D02*
X-9078Y120379D01*
X-17455Y119417D02*
X-13747Y115709D01*
X-13748Y115709D02*
X-13747Y115709D01*
X-14286Y110500D02*
X-13747Y111039D01*
X-53552Y71445D02*
Y83305D01*
X-45506Y91351D02*
X-44820D01*
X-53552Y83305D02*
X-45506Y91351D01*
X28694Y152976D02*
X32930Y148741D01*
X21350Y148184D02*
X26143Y152976D01*
X28694D01*
X-38735Y141576D02*
X-21131Y159180D01*
X27339Y140277D02*
X32930Y145867D01*
Y148741D01*
X27339Y139918D02*
Y140277D01*
D65*
X-2945Y166628D02*
X11230D01*
X-17926Y151647D02*
X-2945Y166628D01*
X11230D02*
X35950Y191348D01*
X-17926Y147479D02*
Y151647D01*
X-29627Y135777D02*
X-17926Y147479D01*
D69*
X457483Y305185D02*
D03*
D70*
X671200Y30458D02*
D03*
Y224457D02*
D03*
D71*
X0Y255258D02*
D03*
Y0D02*
D03*
D75*
X80688Y73966D02*
D03*
X39876Y75738D02*
D03*
X47282Y274152D02*
D03*
X77336Y270904D02*
D03*
X184665Y117831D02*
D03*
X109281Y52125D02*
D03*
X87478Y50873D02*
D03*
X63387Y49038D02*
D03*
X44506Y240469D02*
D03*
X15816Y218762D02*
D03*
X29555Y232502D02*
D03*
X-6313Y196633D02*
D03*
X295634Y257696D02*
D03*
X281566Y270904D02*
D03*
X269501D02*
D03*
X349373Y239866D02*
D03*
X52590Y220140D02*
D03*
X67600Y235150D02*
D03*
X306712Y257696D02*
D03*
X280921D02*
D03*
X198079D02*
D03*
X322646Y247915D02*
D03*
X241963Y271836D02*
D03*
X214764Y272390D02*
D03*
X254007D02*
D03*
X230258Y273025D02*
D03*
X296806Y278359D02*
D03*
X180376Y275438D02*
D03*
X169298D02*
D03*
X158630Y274676D02*
D03*
X195352D02*
D03*
X122711D02*
D03*
X135643Y275438D02*
D03*
X96980Y274231D02*
D03*
X260738Y256515D02*
D03*
X295634Y251218D02*
D03*
X240720Y255466D02*
D03*
X278456Y251218D02*
D03*
X313815D02*
D03*
X201302Y252070D02*
D03*
X389800Y97800D02*
D03*
X406700Y77500D02*
D03*
X397500Y90800D02*
D03*
X358500Y73400D02*
D03*
X339200Y74300D02*
D03*
X276300Y-49907D02*
D03*
X284159Y-67970D02*
D03*
X190761Y33312D02*
D03*
X199984Y323114D02*
D03*
X208323D02*
D03*
X216663D02*
D03*
X225002D02*
D03*
X233342D02*
D03*
X293574Y285674D02*
D03*
X279920Y283786D02*
D03*
X298011Y290111D02*
D03*
X302448Y294548D02*
D03*
X286926Y284737D02*
D03*
X-29328Y20080D02*
D03*
X-58921Y8985D02*
D03*
X-62362Y14445D02*
D03*
X-63005Y21374D02*
D03*
X-62913Y27751D02*
D03*
X29598Y17997D02*
D03*
X-44959Y99009D02*
D03*
X-34423Y68452D02*
D03*
X-44048Y42376D02*
D03*
X109408Y17799D02*
D03*
X159500D02*
D03*
X137590Y10960D02*
D03*
X573305Y202837D02*
D03*
X527250Y79167D02*
D03*
X575215D02*
D03*
X517279D02*
D03*
X442700D02*
D03*
X451600D02*
D03*
X459953D02*
D03*
X471500D02*
D03*
X482900D02*
D03*
X494298D02*
D03*
X505213D02*
D03*
X517144Y96027D02*
D03*
X607700Y38000D02*
D03*
X580150Y53800D02*
D03*
X565700Y130100D02*
D03*
X578600Y138932D02*
D03*
X582985Y110700D02*
D03*
X561600Y196300D02*
D03*
X580237Y202537D02*
D03*
X600889Y211863D02*
D03*
X56086Y-64799D02*
D03*
X138953Y-67639D02*
D03*
X130376D02*
D03*
X48398Y-62855D02*
D03*
X173388Y-67970D02*
D03*
X164683Y-67639D02*
D03*
X40534Y-60734D02*
D03*
X30377Y-57140D02*
D03*
X23001Y-54463D02*
D03*
X121799Y-67639D02*
D03*
X156106D02*
D03*
X147529D02*
D03*
X104645D02*
D03*
X113222D02*
D03*
X598800Y48100D02*
D03*
X340240Y197634D02*
D03*
X442700Y140100D02*
D03*
X403020Y155195D02*
D03*
X476013Y96027D02*
D03*
X492163D02*
D03*
X545930D02*
D03*
X436000Y140100D02*
D03*
X456700Y139700D02*
D03*
X442700Y118800D02*
D03*
X449600Y140100D02*
D03*
X445400Y131600D02*
D03*
X468120Y126796D02*
D03*
X470000Y118800D02*
D03*
X477290Y126608D02*
D03*
X433500Y214100D02*
D03*
X489323Y114413D02*
D03*
X505213Y96445D02*
D03*
X494298Y102346D02*
D03*
X477693Y106523D02*
D03*
X417600Y182800D02*
D03*
X409287D02*
D03*
X404500Y176900D02*
D03*
X423900Y183100D02*
D03*
X230811Y211811D02*
D03*
X126499D02*
D03*
X147962D02*
D03*
X302609Y212374D02*
D03*
X216767Y212289D02*
D03*
X135373Y211945D02*
D03*
X254171Y212289D02*
D03*
X159845Y212316D02*
D03*
X190634Y213970D02*
D03*
X202699Y214478D02*
D03*
X61856Y225273D02*
D03*
X609797Y201628D02*
D03*
X602700D02*
D03*
X500900Y124800D02*
D03*
X475900Y206400D02*
D03*
X460000Y183100D02*
D03*
X406137Y148382D02*
D03*
X402200Y162662D02*
D03*
X615570Y70008D02*
D03*
X604300Y53800D02*
D03*
X462500Y211300D02*
D03*
X-29079Y91351D02*
D03*
X-720Y96548D02*
D03*
X-44820Y91351D02*
D03*
X625500Y198868D02*
D03*
X230476Y54038D02*
D03*
X228353Y111100D02*
D03*
X529420Y96445D02*
D03*
X494298Y53138D02*
D03*
X514500Y55700D02*
D03*
X531680Y57358D02*
D03*
X543669D02*
D03*
X573200Y51248D02*
D03*
X564121Y37318D02*
D03*
X595930Y28418D02*
D03*
X606750D02*
D03*
X508200Y228300D02*
D03*
X559500Y100485D02*
D03*
X548792Y48758D02*
D03*
X606100Y115000D02*
D03*
X621740Y120200D02*
D03*
X625500Y191221D02*
D03*
X590800Y110700D02*
D03*
X625500Y146513D02*
D03*
Y156927D02*
D03*
Y166503D02*
D03*
Y175493D02*
D03*
X588942Y203527D02*
D03*
X563913Y138932D02*
D03*
X598400Y111100D02*
D03*
X625500Y137100D02*
D03*
X-34175Y117450D02*
D03*
X-47577Y174910D02*
D03*
X348074Y-23358D02*
D03*
X356076D02*
D03*
X6249Y-46806D02*
D03*
X-2396Y-41884D02*
D03*
X-14224Y287653D02*
D03*
X-19812Y283652D02*
D03*
X-24572Y279306D02*
D03*
X-29815Y274891D02*
D03*
X-35127Y270752D02*
D03*
X-39818Y266268D02*
D03*
X-37489Y135065D02*
D03*
X-29892Y143445D02*
D03*
X-14289Y-34338D02*
D03*
X-20007Y-30184D02*
D03*
X-25337Y-25830D02*
D03*
X-30656Y-21115D02*
D03*
X-35841Y-16435D02*
D03*
X-40797Y-11480D02*
D03*
X-45890Y-6524D02*
D03*
X-39399Y73341D02*
D03*
X-29627Y135777D02*
D03*
X169309Y39559D02*
D03*
X202526Y-6382D02*
D03*
X190761Y11299D02*
D03*
X214137Y-47797D02*
D03*
X268838Y124562D02*
D03*
X285391Y27280D02*
D03*
X221032Y27915D02*
D03*
X252610Y25121D02*
D03*
X303029Y31979D02*
D03*
X615570Y79918D02*
D03*
X180376Y322665D02*
D03*
X172542D02*
D03*
X370466Y115037D02*
D03*
X370078Y123911D02*
D03*
X369707Y148382D02*
D03*
X370466Y136500D02*
D03*
X369958Y162662D02*
D03*
X369570Y171536D02*
D03*
X369199Y196007D02*
D03*
X369958Y184125D02*
D03*
X199589Y191194D02*
D03*
X216767D02*
D03*
X116593Y238227D02*
D03*
X230811Y239356D02*
D03*
X214764Y236761D02*
D03*
X191509D02*
D03*
X173340Y240469D02*
D03*
X150723Y236761D02*
D03*
X128476Y238986D02*
D03*
X104004Y238615D02*
D03*
X95130Y238227D02*
D03*
X106052Y147676D02*
D03*
X108338Y117831D02*
D03*
X148216Y100432D02*
D03*
X142882Y120752D02*
D03*
X98559Y178156D02*
D03*
X155836Y164821D02*
D03*
X164853Y153391D02*
D03*
X264040Y47727D02*
D03*
X533145Y228448D02*
D03*
Y212958D02*
D03*
X408900Y142800D02*
D03*
X503547Y211049D02*
D03*
X472615Y231513D02*
D03*
X452649Y236050D02*
D03*
X432823Y224765D02*
D03*
X480321Y217399D02*
D03*
X456699Y224765D02*
D03*
X376816Y221590D02*
D03*
X404121Y290551D02*
D03*
X411355Y254202D02*
D03*
X417202Y267905D02*
D03*
X382277Y254229D02*
D03*
X391421Y238354D02*
D03*
X392310Y250546D02*
D03*
X369608Y234235D02*
D03*
X363708Y246487D02*
D03*
X353321Y255626D02*
D03*
X135643Y289662D02*
D03*
X144787Y298679D02*
D03*
X172542Y306777D02*
D03*
X152788Y311594D02*
D03*
X300235Y241910D02*
D03*
X275948Y244069D02*
D03*
X256366Y243551D02*
D03*
X268838Y190006D02*
D03*
X416966Y63957D02*
D03*
X398451Y9309D02*
D03*
X-50203Y-1844D02*
D03*
X-54746Y3616D02*
D03*
X78366Y149278D02*
D03*
Y141356D02*
D03*
X522119Y106523D02*
D03*
X545930Y114700D02*
D03*
X517144Y115397D02*
D03*
X535429Y105345D02*
D03*
X586871Y217334D02*
D03*
X563800Y122800D02*
D03*
X571000Y109800D02*
D03*
X554499Y107675D02*
D03*
X609797Y233919D02*
D03*
X607172Y223394D02*
D03*
X609797Y212009D02*
D03*
X496069Y228448D02*
D03*
X519564Y224638D02*
D03*
X467303Y-67716D02*
D03*
X448945D02*
D03*
X422282D02*
D03*
X430809D02*
D03*
X394723D02*
D03*
X403250D02*
D03*
X410396D02*
D03*
X35112Y285499D02*
D03*
X118752Y308585D02*
D03*
X139865Y306680D02*
D03*
X90685D02*
D03*
X69984Y280899D02*
D03*
X337954Y270739D02*
D03*
X322079Y275311D02*
D03*
X359036Y284201D02*
D03*
X359646Y309592D02*
D03*
X311663Y303363D02*
D03*
X343161Y300711D02*
D03*
X427108Y277008D02*
D03*
Y299695D02*
D03*
X410334Y302680D02*
D03*
X396510Y306630D02*
D03*
X372117Y273660D02*
D03*
X390913Y271120D02*
D03*
X417202Y282550D02*
D03*
X345164Y281615D02*
D03*
X390532Y286868D02*
D03*
X368180Y297409D02*
D03*
X324974Y316674D02*
D03*
X320537Y312237D02*
D03*
X122711Y296097D02*
D03*
X113164Y283312D02*
D03*
X105557Y296097D02*
D03*
X90411Y289844D02*
D03*
X69347Y296097D02*
D03*
X53855Y294488D02*
D03*
X580150Y14048D02*
D03*
X611650D02*
D03*
X601606Y20295D02*
D03*
X591700Y20549D02*
D03*
X148442Y291157D02*
D03*
X306296Y85988D02*
D03*
X577200Y237853D02*
D03*
X190542Y-67970D02*
D03*
X181965D02*
D03*
X422903Y322665D02*
D03*
X431480D02*
D03*
X440057D02*
D03*
X388595D02*
D03*
X397172D02*
D03*
X405749D02*
D03*
X414326D02*
D03*
X354288D02*
D03*
X362865D02*
D03*
X371441D02*
D03*
X380019D02*
D03*
X307226Y298926D02*
D03*
X330885Y322665D02*
D03*
X337134D02*
D03*
X345711D02*
D03*
X337134Y308027D02*
D03*
X316100Y307800D02*
D03*
X165595Y322665D02*
D03*
X131288D02*
D03*
X139865D02*
D03*
X148442D02*
D03*
X157019D02*
D03*
X-3715Y108458D02*
D03*
X327842Y235560D02*
D03*
X242525Y110688D02*
D03*
X278070Y148128D02*
D03*
X-8903Y-38371D02*
D03*
X-15248Y217968D02*
D03*
X-8100Y211328D02*
D03*
X-37615Y150218D02*
D03*
X276300Y-67970D02*
D03*
X27039Y126629D02*
D03*
X10644Y124726D02*
D03*
X-44700Y262118D02*
D03*
X-49492Y256578D02*
D03*
X-53977Y251478D02*
D03*
X-58769Y245323D02*
D03*
X-8500Y291911D02*
D03*
X-2607Y295349D02*
D03*
X4093Y299126D02*
D03*
X10387Y302108D02*
D03*
X16663Y304396D02*
D03*
X22712Y307840D02*
D03*
X28912Y310202D02*
D03*
X36023Y312982D02*
D03*
X-27764Y174931D02*
D03*
X470712Y296748D02*
D03*
X470611Y283358D02*
D03*
X471110Y258568D02*
D03*
X590985Y228758D02*
D03*
X569690Y223394D02*
D03*
X556591Y212958D02*
D03*
X545650Y217334D02*
D03*
X539089Y237089D02*
D03*
X516770Y241348D02*
D03*
X503547Y242748D02*
D03*
X493870D02*
D03*
X480010Y241348D02*
D03*
X466110Y246806D02*
D03*
X608750Y45818D02*
D03*
X555633Y64298D02*
D03*
X526720Y68078D02*
D03*
X595930Y40458D02*
D03*
X575215Y28418D02*
D03*
X625500Y129228D02*
D03*
X614650Y57358D02*
D03*
X539170Y39648D02*
D03*
X556963Y138932D02*
D03*
X562440Y51248D02*
D03*
X552520Y32458D02*
D03*
X548792Y17062D02*
D03*
X562440Y14048D02*
D03*
X531680Y28418D02*
D03*
X518420Y20218D02*
D03*
X528340Y12628D02*
D03*
X536130Y48758D02*
D03*
X524040Y47370D02*
D03*
X580150Y45818D02*
D03*
X520100Y37318D02*
D03*
X506790Y12328D02*
D03*
X503950Y67055D02*
D03*
X501815Y47370D02*
D03*
X503950Y37318D02*
D03*
X501815Y24394D02*
D03*
X503950Y114413D02*
D03*
X482900Y62564D02*
D03*
X487660Y31235D02*
D03*
X490900Y15768D02*
D03*
X614025Y114700D02*
D03*
X571031Y138932D02*
D03*
X548000Y126477D02*
D03*
X596031Y203423D02*
D03*
X625500Y184578D02*
D03*
X617940Y201628D02*
D03*
X559696Y234671D02*
D03*
X567140Y202537D02*
D03*
Y183100D02*
D03*
X559163D02*
D03*
X542300Y206818D02*
D03*
X545650Y228758D02*
D03*
X402200Y169200D02*
D03*
X527250Y122500D02*
D03*
X521800Y206400D02*
D03*
X445350Y211300D02*
D03*
X509800Y105345D02*
D03*
X485350Y126608D02*
D03*
X125586Y168289D02*
D03*
Y187375D02*
D03*
X276600Y2537D02*
D03*
X-22900Y50319D02*
D03*
X-4260Y143661D02*
D03*
X-44744Y149810D02*
D03*
X-38735Y141576D02*
D03*
X-4689Y129968D02*
D03*
X35950Y191348D02*
D03*
X-5311Y154356D02*
D03*
X14966Y139453D02*
D03*
X27339Y139918D02*
D03*
X35209Y135396D02*
D03*
X40980Y104898D02*
D03*
X442168Y47370D02*
D03*
X461985Y44377D02*
D03*
X448730Y47370D02*
D03*
Y56819D02*
D03*
X384673Y-67539D02*
D03*
X377527D02*
D03*
X446007Y-35111D02*
D03*
X429240Y-34295D02*
D03*
X437119Y-34391D02*
D03*
X363435Y-23358D02*
D03*
X371041Y3475D02*
D03*
X366045Y-3155D02*
D03*
X238915Y-24486D02*
D03*
X232383Y-29240D02*
D03*
X343680Y-67539D02*
D03*
X369000D02*
D03*
X337513D02*
D03*
X379873Y692D02*
D03*
X246005Y-27409D02*
D03*
X255200Y-67970D02*
D03*
X216031D02*
D03*
X223889D02*
D03*
X248100D02*
D03*
X329595Y-67539D02*
D03*
X307750Y21500D02*
D03*
X315473D02*
D03*
X36200Y1393D02*
D03*
X35471Y8546D02*
D03*
X32771Y-7621D02*
D03*
X476192Y14197D02*
D03*
X430700Y183100D02*
D03*
X438025D02*
D03*
X466680Y36188D02*
D03*
X197031Y54832D02*
D03*
X475059Y27555D02*
D03*
X471500Y48858D02*
D03*
X459953Y56819D02*
D03*
X328821Y62453D02*
D03*
X296055Y56057D02*
D03*
X487416Y42436D02*
D03*
X122711Y322665D02*
D03*
X114134D02*
D03*
X105557D02*
D03*
X96980D02*
D03*
X86721Y322428D02*
D03*
X77986Y321884D02*
D03*
X69606Y320643D02*
D03*
X60515Y319442D02*
D03*
X51833Y317597D02*
D03*
X43152Y315292D02*
D03*
X-62814Y238640D02*
D03*
X445350Y183100D02*
D03*
X452675D02*
D03*
D76*
X-50405Y45897D02*
D03*
Y209897D02*
D03*
D77*
X78366Y139955D02*
Y141356D01*
X90304Y225654D02*
X337954D01*
X78366Y213716D02*
X90304Y225654D01*
X78366Y141356D02*
Y213716D01*
X352432Y102972D02*
Y211176D01*
X337954Y225654D02*
X352432Y211176D01*
X408034Y47370D02*
X442168D01*
X352432Y102972D02*
X408034Y47370D01*
X442168D02*
X448730D01*
M02*
