G04*
G04 #@! TF.GenerationSoftware,Altium Limited,Altium Designer,22.2.1 (43)*
G04*
G04 Layer_Color=128*
%FSLAX44Y44*%
%MOMM*%
G71*
G04*
G04 #@! TF.SameCoordinates,32B94617-2C73-494B-87D1-3967A9C4A560*
G04*
G04*
G04 #@! TF.FilePolarity,Positive*
G04*
G01*
G75*
G04:AMPARAMS|DCode=18|XSize=0.6mm|YSize=0.5mm|CornerRadius=0.1mm|HoleSize=0mm|Usage=FLASHONLY|Rotation=0.000|XOffset=0mm|YOffset=0mm|HoleType=Round|Shape=RoundedRectangle|*
%AMROUNDEDRECTD18*
21,1,0.6000,0.3000,0,0,0.0*
21,1,0.4000,0.5000,0,0,0.0*
1,1,0.2000,0.2000,-0.1500*
1,1,0.2000,-0.2000,-0.1500*
1,1,0.2000,-0.2000,0.1500*
1,1,0.2000,0.2000,0.1500*
%
%ADD18ROUNDEDRECTD18*%
G04:AMPARAMS|DCode=21|XSize=0.6mm|YSize=0.5mm|CornerRadius=0.1mm|HoleSize=0mm|Usage=FLASHONLY|Rotation=90.000|XOffset=0mm|YOffset=0mm|HoleType=Round|Shape=RoundedRectangle|*
%AMROUNDEDRECTD21*
21,1,0.6000,0.3000,0,0,90.0*
21,1,0.4000,0.5000,0,0,90.0*
1,1,0.2000,0.1500,0.2000*
1,1,0.2000,0.1500,-0.2000*
1,1,0.2000,-0.1500,-0.2000*
1,1,0.2000,-0.1500,0.2000*
%
%ADD21ROUNDEDRECTD21*%
G04:AMPARAMS|DCode=23|XSize=0.8mm|YSize=0.5mm|CornerRadius=0.07mm|HoleSize=0mm|Usage=FLASHONLY|Rotation=180.000|XOffset=0mm|YOffset=0mm|HoleType=Round|Shape=RoundedRectangle|*
%AMROUNDEDRECTD23*
21,1,0.8000,0.3600,0,0,180.0*
21,1,0.6600,0.5000,0,0,180.0*
1,1,0.1400,-0.3300,0.1800*
1,1,0.1400,0.3300,0.1800*
1,1,0.1400,0.3300,-0.1800*
1,1,0.1400,-0.3300,-0.1800*
%
%ADD23ROUNDEDRECTD23*%
%ADD25R,0.5001X0.6000*%
%ADD78R,2.5400X1.2499*%
%ADD79R,0.6000X0.8000*%
%ADD80R,1.5000X2.3000*%
%ADD81R,2.3000X1.5000*%
G04:AMPARAMS|DCode=82|XSize=1.5mm|YSize=2.3mm|CornerRadius=0.375mm|HoleSize=0mm|Usage=FLASHONLY|Rotation=90.000|XOffset=0mm|YOffset=0mm|HoleType=Round|Shape=RoundedRectangle|*
%AMROUNDEDRECTD82*
21,1,1.5000,1.5500,0,0,90.0*
21,1,0.7500,2.3000,0,0,90.0*
1,1,0.7500,0.7750,0.3750*
1,1,0.7500,0.7750,-0.3750*
1,1,0.7500,-0.7750,-0.3750*
1,1,0.7500,-0.7750,0.3750*
%
%ADD82ROUNDEDRECTD82*%
%ADD83C,2.0000*%
%ADD84R,1.4000X0.8000*%
%ADD85R,1.2500X0.8000*%
%ADD86R,1.7000X0.9000*%
%ADD87R,1.3000X0.2500*%
%ADD88R,1.2000X1.5000*%
%ADD89O,1.2000X1.5000*%
%ADD90R,1.8000X0.7000*%
%ADD91O,1.8000X0.7000*%
G04:AMPARAMS|DCode=92|XSize=1.05mm|YSize=2.25mm|CornerRadius=0.2625mm|HoleSize=0mm|Usage=FLASHONLY|Rotation=90.000|XOffset=0mm|YOffset=0mm|HoleType=Round|Shape=RoundedRectangle|*
%AMROUNDEDRECTD92*
21,1,1.0500,1.7250,0,0,90.0*
21,1,0.5250,2.2500,0,0,90.0*
1,1,0.5250,0.8625,0.2625*
1,1,0.5250,0.8625,-0.2625*
1,1,0.5250,-0.8625,-0.2625*
1,1,0.5250,-0.8625,0.2625*
%
%ADD92ROUNDEDRECTD92*%
%ADD93R,1.2499X2.5400*%
%ADD94R,0.6000X1.1999*%
%ADD95R,0.3000X1.1999*%
G36*
X685682Y42791D02*
X686800Y41344D01*
X687773Y39796D01*
X688593Y38162D01*
X689253Y36456D01*
X689745Y34695D01*
X690067Y32895D01*
X690213Y31072D01*
X690185Y29244D01*
X689980Y27427D01*
X689603Y25638D01*
X689055Y23893D01*
X688342Y22210D01*
X687470Y20602D01*
X686449Y19086D01*
X685286Y17674D01*
X684640Y17027D01*
X683980Y16367D01*
X682537Y15182D01*
X680985Y14144D01*
X679338Y13263D01*
X677613Y12548D01*
X675827Y12006D01*
X673995Y11641D01*
X672137Y11458D01*
X670270Y11458D01*
X668412Y11640D01*
X666580Y12004D01*
X664793Y12546D01*
X663068Y13261D01*
X661421Y14141D01*
X659869Y15178D01*
X658425Y16363D01*
X657765Y17023D01*
X657119Y17669D01*
X655955Y19081D01*
X654933Y20597D01*
X654062Y22205D01*
X653348Y23889D01*
X652800Y25634D01*
X652422Y27423D01*
X652217Y29241D01*
X652188Y31069D01*
X652335Y32892D01*
X652656Y34693D01*
X653148Y36454D01*
X653807Y38160D01*
X654627Y39795D01*
X655601Y41343D01*
X656718Y42791D01*
X657344Y43458D01*
X685056D01*
X685682Y42791D01*
D02*
G37*
G36*
X581768Y170182D02*
X581866Y170073D01*
X581875Y169927D01*
X581832Y169868D01*
X581306Y169064D01*
X580462Y167340D01*
X579913Y165501D01*
X579673Y163597D01*
X579749Y161679D01*
X580140Y159800D01*
X580833Y158010D01*
X581812Y156359D01*
X582400Y155599D01*
X582033Y155653D01*
X581316Y155840D01*
X580623Y156102D01*
X579962Y156438D01*
X579652Y156640D01*
X579257Y156897D01*
X578580Y157551D01*
X578040Y158323D01*
X577656Y159182D01*
X577549Y159641D01*
X577549Y165748D01*
X577549Y165748D01*
X577549Y165748D01*
Y165748D01*
X577863Y166439D01*
X578698Y167709D01*
X579719Y168834D01*
X580902Y169788D01*
X581560Y170168D01*
X581560Y170168D01*
X581623Y170204D01*
X581768Y170182D01*
D02*
G37*
G36*
X673989Y243275D02*
X675820Y242911D01*
X677607Y242369D01*
X679332Y241655D01*
X680979Y240774D01*
X682532Y239737D01*
X683975Y238553D01*
X684635Y237892D01*
X685282Y237246D01*
X686445Y235835D01*
X687467Y234318D01*
X688339Y232710D01*
X689052Y231026D01*
X689600Y229281D01*
X689978Y227492D01*
X690183Y225674D01*
X690212Y223846D01*
X690066Y222023D01*
X689744Y220222D01*
X689252Y218461D01*
X688593Y216755D01*
X687773Y215120D01*
X686799Y213572D01*
X685682Y212124D01*
X685056Y211457D01*
X657344Y211457D01*
X657344Y211457D01*
X656718Y212124D01*
X655601Y213571D01*
X654627Y215119D01*
X653807Y216754D01*
X653147Y218459D01*
X652655Y220220D01*
X652334Y222020D01*
X652187Y223843D01*
X652215Y225671D01*
X652420Y227488D01*
X652798Y229277D01*
X653345Y231022D01*
X654058Y232706D01*
X654930Y234313D01*
X655951Y235830D01*
X657114Y237241D01*
X657760Y237888D01*
X658420Y238548D01*
X659863Y239733D01*
X661415Y240771D01*
X663062Y241652D01*
X664787Y242367D01*
X666574Y242909D01*
X668405Y243274D01*
X670263Y243457D01*
X672130Y243458D01*
X673989Y243275D01*
D02*
G37*
D18*
X208124Y138544D02*
D03*
X216380D02*
D03*
X536381Y75679D02*
D03*
Y85679D02*
D03*
X552520Y75679D02*
D03*
Y85679D02*
D03*
X286720Y152964D02*
D03*
Y162964D02*
D03*
X208124Y148544D02*
D03*
X141750Y138544D02*
D03*
Y148544D02*
D03*
X303029Y194238D02*
D03*
Y204238D02*
D03*
X268612Y140992D02*
D03*
Y130992D02*
D03*
X289694Y194238D02*
D03*
Y204238D02*
D03*
X216380Y148544D02*
D03*
X457740Y96938D02*
D03*
Y86938D02*
D03*
X25950Y211328D02*
D03*
Y221328D02*
D03*
D21*
X268070Y96988D02*
D03*
Y107988D02*
D03*
X458120D02*
D03*
X468120D02*
D03*
X278070Y96988D02*
D03*
Y107988D02*
D03*
X248890Y140988D02*
D03*
X258890D02*
D03*
X446131Y163055D02*
D03*
X456131D02*
D03*
D23*
X15481Y205439D02*
D03*
Y190439D02*
D03*
D25*
X327842Y220851D02*
D03*
X317840D02*
D03*
X322841Y207851D02*
D03*
D78*
X236075Y99332D02*
D03*
Y79332D02*
D03*
D79*
X177100Y21500D02*
D03*
X194100D02*
D03*
D80*
X624265Y223700D02*
D03*
Y29640D02*
D03*
D81*
X590735Y186620D02*
D03*
Y126920D02*
D03*
Y90920D02*
D03*
Y67220D02*
D03*
D82*
Y162920D02*
D03*
D83*
X72750Y12740D02*
D03*
D84*
X543840Y137240D02*
D03*
X512740D02*
D03*
X543840Y189060D02*
D03*
X512740D02*
D03*
D85*
X528290Y137240D02*
D03*
Y189060D02*
D03*
D86*
X67582Y-11302D02*
D03*
Y-40302D02*
D03*
D87*
X-57905Y125397D02*
D03*
Y120397D02*
D03*
X-17905Y155397D02*
D03*
Y160397D02*
D03*
Y170397D02*
D03*
Y180397D02*
D03*
Y190397D02*
D03*
Y200397D02*
D03*
Y165397D02*
D03*
Y175397D02*
D03*
Y185397D02*
D03*
Y195397D02*
D03*
X-57905Y160397D02*
D03*
Y170397D02*
D03*
Y180397D02*
D03*
Y190397D02*
D03*
Y200397D02*
D03*
Y195397D02*
D03*
Y185397D02*
D03*
Y155397D02*
D03*
Y165397D02*
D03*
Y175397D02*
D03*
X-17905Y150397D02*
D03*
X-57905Y150397D02*
D03*
Y75397D02*
D03*
Y70397D02*
D03*
Y65397D02*
D03*
Y60397D02*
D03*
Y55397D02*
D03*
X-17905Y60397D02*
D03*
Y65397D02*
D03*
Y70397D02*
D03*
Y75397D02*
D03*
Y80397D02*
D03*
Y85397D02*
D03*
Y90397D02*
D03*
Y95397D02*
D03*
Y100397D02*
D03*
Y105397D02*
D03*
Y110397D02*
D03*
Y120397D02*
D03*
Y130397D02*
D03*
Y140397D02*
D03*
Y115397D02*
D03*
Y125397D02*
D03*
Y135397D02*
D03*
Y145397D02*
D03*
X-57905Y80397D02*
D03*
Y90397D02*
D03*
Y100397D02*
D03*
Y110397D02*
D03*
Y130397D02*
D03*
Y140397D02*
D03*
Y145397D02*
D03*
Y135397D02*
D03*
X-17905Y55397D02*
D03*
X-57905Y85397D02*
D03*
Y95397D02*
D03*
Y105397D02*
D03*
Y115397D02*
D03*
D88*
X257170Y167144D02*
D03*
X229170D02*
D03*
X194170D02*
D03*
X169170D02*
D03*
X163170Y290144D02*
D03*
D89*
X184170D02*
D03*
D90*
X422280Y173988D02*
D03*
Y151988D02*
D03*
Y140988D02*
D03*
Y129988D02*
D03*
Y118988D02*
D03*
Y107988D02*
D03*
Y96988D02*
D03*
Y85988D02*
D03*
X326280Y173988D02*
D03*
Y162988D02*
D03*
Y151988D02*
D03*
Y140988D02*
D03*
Y129988D02*
D03*
Y118988D02*
D03*
Y107988D02*
D03*
Y96988D02*
D03*
Y85988D02*
D03*
D91*
X422280Y162988D02*
D03*
D92*
X487003Y177896D02*
D03*
Y148396D02*
D03*
D93*
X46061Y158469D02*
D03*
X26061D02*
D03*
D94*
X112740Y-1406D02*
D03*
X120739D02*
D03*
X168739D02*
D03*
X176738D02*
D03*
D95*
X127238D02*
D03*
X132240D02*
D03*
X137238D02*
D03*
X142240D02*
D03*
X147238D02*
D03*
X152240D02*
D03*
X157238D02*
D03*
X162240D02*
D03*
M02*
