M48
;Layer_Color=9474304
;FILE_FORMAT=2:5
INCH,LZ
;TYPE=PLATED
T1F00S00C0.01000
T2F00S00C0.02000
T4F00S00C0.02638
T5F00S00C0.02953
T6F00S00C0.09843
;TYPE=NON_PLATED
T7F00S00C0.02559
%
T01
X0137795Y-002656
Y-0023682
X0148669Y-002656
X0154753
X0159863
X0171693Y-0023588
Y-0020845
X0174507Y-0020798
Y-0023588
X0172094Y-001354
X0168992Y-0013502
Y-0009845
X0149557Y0000273
X0146166Y0001281
X0146253Y-000106
X0156126Y002774
X0174082Y0025238
X0177518
X0180954
X018439
X0187826
X0191262
X0194698
X0198134
X0200984Y0027126
X0201681Y0020038
X0198134
X0194802
X0191262
X0187826
X018439
X0180954
X0176665Y001865
X0174082
X0183688Y0015456
X0187477Y0013927
Y0009604
Y000559
X0193268Y0006208
X0193009Y001128
X0189981
Y0016417
X0194253Y0014973
X0198134Y0015456
X0203486Y0016417
X0207008
X0207951Y0020038
X0205827Y0023898
X0203526Y0021797
X0207951Y0026222
X0210157Y0028071
X0212402Y0026222
X021254Y0022108
X0212798Y0017036
X0219054Y0015681
X0217096Y0020432
Y0023728
X0216218Y0027126
X0220339Y0026831
X0223633Y0028071
X0224432Y002274
X0227587Y0021634
X0229944Y0018787
X0233347
X0236922Y0017165
X0238671Y00142
X0238858Y0009393
Y0004724
X0241412Y0006355
X0235803Y0006743
X0232127Y0005254
X0233347Y0010095
X0232079Y0012527
X0226463Y0011188
X0228406Y0007609
X0227539Y0015799
X0223633Y0018787
X0220651Y0022108
X0240103Y002091
X0241497Y0017894
X0243327Y002274
X0245784Y0020486
X0244724Y0026222
X0244484Y0028937
X0250121Y0005074
X0255276Y0005236
X0208008Y0004972
X0204102Y000796
X0203526Y0012527
X0209323Y0011188
X0197565Y0009604
X0199524Y0004853
X0123819Y0000219
X0120778
Y-0003168
X0123819
X0122107Y-0016187
X011978
Y-0018675
X0122107Y-0018686
X011978Y-0021162
X0123851Y-0021882
X0126732Y-002179
Y-0025017
X0123828
X0121095Y-002676
X010878
X0100472
X0097677
X0088145
X0085052
X0080568Y-0022916
X0078664Y-0020864
X0078614Y-0018193
X0077873Y-0015489
X0077823Y-0013125
X0077873Y-0010306
X0078051Y-0003784
X0078073Y-0000426
X0076676Y0002602
X008001
X008846Y-0009869
X0091489Y-0011512
X0094061Y-000964
X0096852Y-0010791
X0108898Y0000999
X0102905Y0016899
X0103957Y0027606
X0116557Y0027506
Y002207
X0117325Y0017692
X0122157Y001657
X0129457Y0024588
Y0027306
X0090657Y0025188
X0090739Y0021275
X0077571Y0021587
X0077657Y0025294
X0062795Y0007008
X0053957Y0005193
X0049796Y0006767
X0043074Y0007008
X0050618Y-0004927
X0053213Y-0005091
X005589Y-0005018
X0058736Y-0005234
X006133Y-0005055
X0063637Y-00084
X0054915Y-0009275
X0035906Y-0025586
X0032926Y-002581
X0030075Y-0025714
X0027428Y-00254
X0024926Y-0025214
X0022186Y-0025019
X0008932Y-0017196
X0006348
X0003765
Y-0014529
X0006348
X0008659Y-0014641
X0006348Y-0011818
X-0000202Y-001623
X-0002803Y-0014962
X-0006283Y-0012756
X-000877Y-0010566
X-0011682Y-0008081
X-0014361Y-0005868
X-001661Y-0003438
X-0019154Y-0000767
X-0021763Y0002443
X-002386Y0005565
X-0024768Y0008749
X-0024794Y0011424
X-0024816Y0013947
X-0024768Y0016504
X-0024787Y001918
X-0020626Y0010838
X-0017079Y0013757
X-0009327Y0015441
X-0006706Y0014984
X-0002535Y0015613
X-0002217Y0018969
X-0011582Y0017774
X-0013025Y0020203
X-0013823Y0027223
X0003319Y0028617
X0031767Y0028912
X0024974Y0019742
X0011457Y0005441
X0012559Y0002598
X001375Y0000032
X0012216Y-000245
X0009258
X0009405Y0001576
X0015637Y-0006549
X-0008027Y0008129
X0081557Y-0019751
X0077727Y002968
X0077571Y0034625
X0077657Y0041262
Y0043981
Y0049417
Y0052136
Y006012
Y0065557
Y0068275
Y0070993
Y0079284
Y0084721
Y008744
Y0090158
Y0098296
Y0101014
Y0103733
Y0106451
X0080685Y0115571
X0090886Y0114194
X0090657Y0109064
Y0106345
Y0103627
Y0100909
Y009819
Y0090052
Y0087334
Y0084615
Y0079179
Y0070888
Y0068169
Y0065451
Y0060014
Y005203
Y0049312
Y0043875
Y0041157
X0090713Y0029498
X0103957Y0030325
Y0033043
Y0040857
Y0043575
Y0049012
Y005173
X0116557Y005163
Y0048912
Y0043475
Y0040756
Y0032943
Y0030225
X0120197Y00358
X0129457Y0032743
Y0030025
X0129776Y005503
X0129457Y0061414
Y0069569
Y0072288
Y0083297
Y0086015
Y0088734
Y0091452
Y009959
Y0102309
Y0105027
Y0107746
X0116557Y0108664
Y0105946
Y0103227
Y0100509
Y009779
Y0089652
Y0086934
Y0084215
Y0078778
Y0070488
Y0067769
Y0065051
Y0059614
X0103957Y0078878
Y0084315
Y0087034
Y0089752
Y009789
Y0100609
Y0103327
Y0106045
Y0108764
X0104219Y0114194
X0104657Y0125979
X0108299Y0126105
X0117254Y0114194
X0069884Y0113968
X0067069Y0111849
X0064677Y0109576
X0063954Y0115377
X0060436Y0113377
X0056553Y0113574
X0056463Y0109321
X004837Y0109166
X003466
X0030057Y0109242
X0030043Y010512
X0033287Y0105337
X0029114Y0098868
X0030057Y009432
Y009052
X0027005Y0090482
X0033565Y0087611
X0034691Y009432
X0018933Y0096011
Y0106334
X0015877Y010507
X0014504Y0115148
X0014236Y0122641
X0011585Y0121668
X0009274Y0120597
X0006695Y011943
X0004336Y0118432
X0001977Y0117022
X-0000848Y0115814
X-000301Y0114054
X-0005334Y0112344
X-0007423Y0110744
X-0010046Y0108744
X-0012224Y010701
X-0014224Y0105099
X-0016396Y0103281
X-001824Y0100783
X-002093Y009844
X-0022621Y0096288
X-0024465Y0093905
X-0016404Y0097207
Y008317
X-0014932Y0080829
X-001222Y008071
X-0012399Y0083385
Y0077751
X-0015048
X-0017957Y0077771
X-0018037Y0073122
X-0017647Y0068842
X-0018093Y0065955
X-0015896Y0065932
X-0015839Y0062708
X-0013342Y0062446
X-0012803Y0064704
X-0012373Y0060081
X-0012365Y0056818
X-0011664Y0053456
X-0012972Y0047816
X-0015925Y0046439
X-0017879Y0043463
X-0014683Y0042587
X-0017646Y0035965
X-0015682Y0031932
X-0016632Y0029216
X-0011378Y0031339
X-0011448Y0035965
X-0002779Y0033782
X-0000594Y0038771
X0000167Y0042709
X0002925Y0049192
X0000681Y0055136
X-0001677Y0056803
X-0002034Y0053614
X0000123Y0059211
X-0002018Y0061372
X-0001454Y0068698
X0003327Y0072846
X-0002386Y0077316
X-0003189Y00832
X-0006003Y0085814
X0006214Y0084954
X0013169Y0082885
X0012652Y009052
X0014154Y0075334
X0017254Y0076868
X0014154Y0069445
X0013862Y0053306
X0010764Y0055086
X0005892Y0054903
X0010645Y0049854
X0015762Y0050172
X0016134Y0041298
X0015699Y0029818
X0031767Y0039543
X0032248Y0045275
X0027835Y0055196
X0027935Y0058044
X0035357Y006417
X0035157Y006732
X0033537Y0073957
X0033565Y0076341
X0026267Y0080272
X0049443Y007377
X0056307Y0073598
X0065057Y0072963
Y007027
X0064957Y0067529
Y0064836
Y005897
Y0051463
Y004877
Y0043236
Y0040543
X0064757Y003667
X0064804Y0033592
X0064957Y002977
X0049388Y0034647
Y0042097
X0056165Y0041881
X0049443Y0066256
X0065057Y008017
Y0083143
Y0085836
Y0088529
X0064201Y0093263
X0069022Y009242
X004837Y0126897
X0044929Y012694
X0041734Y0126897
X0038181
X0034142Y012694
X0030703Y0126726
X0027404Y0126237
X0023844Y0125389
X0020463Y0124513
X0017082Y0123613
X0028597Y0117546
Y011417
X0034102Y0116769
X-0013723Y0075509
X-0014743Y0068206
X-0011201Y0068266
X-0018126Y006328
X-0018231Y005908
X-0014809Y0059141
X-0017879Y0054814
X-0017616Y0051
X013429Y005491
Y003906
X0154882Y0036636
X015896Y0036489
X015732Y0038753
X0156331Y0041877
X0156773Y0045338
X0158908Y0047291
X0160757Y004992
X0163867Y005001
X0166924Y005003
X0169981Y005001
X0173037Y004992
X0176094
X0179151Y0049845
X0182207
X0185264
X0188321
X0191377
X0194434Y0049814
X0197491Y0049845
X020067Y0051145
X0206396
X0210157Y005015
X0213077Y0049942
X0216361Y0050697
X0215662Y0047264
X0212402Y004633
X0211438Y0042166
X021254Y0039496
X0213674Y0036769
X0210157Y0035803
Y0032143
X021254Y0033386
X0212402Y0030315
X0206396Y003266
X0203526
X0200359
X019758
X0194802
X0192024
X0189245
X0186467
X0183688
X018091
X0178131
X0175353
X0172575
X0153517Y0030349
X0158792Y0060844
X0158085Y0064142
X0158749Y0067363
X015676Y0071256
Y0075382
X0158085Y0079699
X0160315Y0082716
X016336Y0083678
X0162409Y008681
X0156496Y0089751
X015661Y0092361
X0154516Y0094239
X0152567Y0096381
X0150662Y0098392
X0148331Y0100385
X0145851Y010221
X0142993Y0103944
X0142747Y0106739
X0141874Y0109412
X0139673Y0111239
X0139401Y0114596
X0141138Y0116514
X0141026Y012001
Y0122915
Y0125821
X0158034Y0125931
X0162626Y0125857
X016437Y0120975
X0169087
X0173524Y0121897
X017274Y0117893
X0172295Y0112842
X0169087
Y0109058
X0172295Y0106924
X0174605Y0108922
X0178965Y0101798
X0180053Y009904
X0183508Y0097168
X0185476Y0095019
X018898
X0194437Y009557
X0198247
X0203453Y0095019
X0207205
X0211639Y0095808
X021224Y0093342
X021652Y009535
X0220897Y0093944
X0223353Y009564
X0226476Y0092752
X0227244Y0087267
X0224287Y0087951
X0219048Y0086207
X0216361Y0089229
X021224Y0086207
X0214803Y0081614
X021652Y0077806
X021224
X0221735
X0225028Y0077924
X0223868Y0075115
X0223885Y0072276
X0221381Y0072371
X0218773
X0220897Y0081614
X0226476
X0228706Y007937
X0239199
X0241992
X0244297Y0078354
X0244484Y0075797
Y007304
Y0070284
Y0067527
Y0064771
Y0062014
Y0059258
Y0056502
Y0053745
Y0050989
Y0048232
Y0045476
Y0042719
Y0039963
Y0037206
Y003445
Y0031694
X0239543Y0040157
X0237086Y0044733
X0233347Y0042166
X022993
X0227059Y0044233
X0223274Y0044349
X0224811Y0046545
X0223071Y0049904
X0223996Y005247
X0224813Y0055309
X0221735Y0055433
X0219048
X0220512Y0052205
X0220507Y0047846
X0218725Y0044733
X0214764Y0043386
X0217096Y0040157
X0217989Y0037623
X0221788Y0036769
X0224851
X022566Y0040157
X0221256Y004089
X0224851Y0030786
X0227886Y0031159
X020378Y0029488
X0207951Y0039496
Y0043488
X018178Y0055433
X0178847
X0175914
X0172981
Y0072087
X0175914
X0178847
X018178
X0180408Y0075354
X0185476Y0101798
X018528Y0111558
X0183508Y0115928
X01665Y0115873
X016437Y011268
X016124Y0117893
X0159276Y0120975
X016989Y0126397
X0132433Y011482
X0142873Y0094329
X0142747Y009178
X0142367Y00857
X0142677Y008025
X0149681Y007926
Y0076289
X01475Y0089342
X0148804Y0095753
X0143507Y006273
X0241571Y0082297
X0239685Y0084961
T02
X00713Y003667
X0084386Y003677
X0090929
X0097471
X0104014Y003667
X0110557
X011704
X0123255
X0129527
X0126453Y005697
X0118927Y005511
X0113357Y005497
X0106814
X0100271Y005507
X0093729
X0087186
X0080643Y005497
X00741
X0067557
X0067958Y0076166
X0074501
X0081044
X0087587Y0076266
X009413
X0100673
X0107216Y0076166
X0113758
X0120241
X0126456
X0130687Y007659
X0129755Y009437
X012354
X0117057
X0110514
X0103971Y009447
X0097429
X0090886
X0084343Y009437
X0076803Y0094468
X0071257Y009437
X013389Y0094449
X0139673Y0094239
X014561Y0099512
X0142677Y007372
X0143267Y005477
X0142967Y002983
T04
X-0019844Y001807
Y0082636
T05
X0180394Y-0020177
Y-0006397
Y0106658
Y0120438
T06
X0264252Y0011991
X0Y0
X0Y0100495
X0264252Y0088369
T07
X0045606Y-0004746
X0068362
M30
