G04*
G04 #@! TF.GenerationSoftware,Altium Limited,Altium Designer,22.2.1 (43)*
G04*
G04 Layer_Color=16711935*
%FSLAX44Y44*%
%MOMM*%
G71*
G04*
G04 #@! TF.SameCoordinates,D676EA34-7746-482F-A41B-9349FDE20BFB*
G04*
G04*
G04 #@! TF.FilePolarity,Negative*
G04*
G01*
G75*
G04:AMPARAMS|DCode=38|XSize=1mm|YSize=0.7mm|CornerRadius=0.17mm|HoleSize=0mm|Usage=FLASHONLY|Rotation=180.000|XOffset=0mm|YOffset=0mm|HoleType=Round|Shape=RoundedRectangle|*
%AMROUNDEDRECTD38*
21,1,1.0000,0.3600,0,0,180.0*
21,1,0.6600,0.7000,0,0,180.0*
1,1,0.3400,-0.3300,0.1800*
1,1,0.3400,0.3300,0.1800*
1,1,0.3400,0.3300,-0.1800*
1,1,0.3400,-0.3300,-0.1800*
%
%ADD38ROUNDEDRECTD38*%
G04:AMPARAMS|DCode=41|XSize=1.2032mm|YSize=0.7032mm|CornerRadius=0.1641mm|HoleSize=0mm|Usage=FLASHONLY|Rotation=270.000|XOffset=0mm|YOffset=0mm|HoleType=Round|Shape=RoundedRectangle|*
%AMROUNDEDRECTD41*
21,1,1.2032,0.3750,0,0,270.0*
21,1,0.8750,0.7032,0,0,270.0*
1,1,0.3282,-0.1875,-0.4375*
1,1,0.3282,-0.1875,0.4375*
1,1,0.3282,0.1875,0.4375*
1,1,0.3282,0.1875,-0.4375*
%
%ADD41ROUNDEDRECTD41*%
%ADD42R,1.2000X3.8000*%
G04:AMPARAMS|DCode=43|XSize=0.7mm|YSize=0.6mm|CornerRadius=0.15mm|HoleSize=0mm|Usage=FLASHONLY|Rotation=90.000|XOffset=0mm|YOffset=0mm|HoleType=Round|Shape=RoundedRectangle|*
%AMROUNDEDRECTD43*
21,1,0.7000,0.3000,0,0,90.0*
21,1,0.4000,0.6000,0,0,90.0*
1,1,0.3000,0.1500,0.2000*
1,1,0.3000,0.1500,-0.2000*
1,1,0.3000,-0.1500,-0.2000*
1,1,0.3000,-0.1500,0.2000*
%
%ADD43ROUNDEDRECTD43*%
G04:AMPARAMS|DCode=46|XSize=0.7mm|YSize=0.6mm|CornerRadius=0.15mm|HoleSize=0mm|Usage=FLASHONLY|Rotation=0.000|XOffset=0mm|YOffset=0mm|HoleType=Round|Shape=RoundedRectangle|*
%AMROUNDEDRECTD46*
21,1,0.7000,0.3000,0,0,0.0*
21,1,0.4000,0.6000,0,0,0.0*
1,1,0.3000,0.2000,-0.1500*
1,1,0.3000,-0.2000,-0.1500*
1,1,0.3000,-0.2000,0.1500*
1,1,0.3000,0.2000,0.1500*
%
%ADD46ROUNDEDRECTD46*%
G04:AMPARAMS|DCode=48|XSize=1mm|YSize=0.7mm|CornerRadius=0.17mm|HoleSize=0mm|Usage=FLASHONLY|Rotation=270.000|XOffset=0mm|YOffset=0mm|HoleType=Round|Shape=RoundedRectangle|*
%AMROUNDEDRECTD48*
21,1,1.0000,0.3600,0,0,270.0*
21,1,0.6600,0.7000,0,0,270.0*
1,1,0.3400,-0.1800,-0.3300*
1,1,0.3400,-0.1800,0.3300*
1,1,0.3400,0.1800,0.3300*
1,1,0.3400,0.1800,-0.3300*
%
%ADD48ROUNDEDRECTD48*%
%ADD50C,1.7033*%
%ADD51C,2.7286*%
%ADD52O,1.1000X2.2001*%
%ADD53O,1.3033X1.9032*%
%ADD54C,0.7500*%
%ADD55O,1.2032X2.3033*%
%ADD56C,4.0032*%
%ADD57C,0.8732*%
G04:AMPARAMS|DCode=109|XSize=1.15mm|YSize=2.35mm|CornerRadius=0.3125mm|HoleSize=0mm|Usage=FLASHONLY|Rotation=90.000|XOffset=0mm|YOffset=0mm|HoleType=Round|Shape=RoundedRectangle|*
%AMROUNDEDRECTD109*
21,1,1.1500,1.7250,0,0,90.0*
21,1,0.5250,2.3500,0,0,90.0*
1,1,0.6250,0.8625,0.2625*
1,1,0.6250,0.8625,-0.2625*
1,1,0.6250,-0.8625,-0.2625*
1,1,0.6250,-0.8625,0.2625*
%
%ADD109ROUNDEDRECTD109*%
G04:AMPARAMS|DCode=110|XSize=1.1mm|YSize=1.15mm|CornerRadius=0.3mm|HoleSize=0mm|Usage=FLASHONLY|Rotation=90.000|XOffset=0mm|YOffset=0mm|HoleType=Round|Shape=RoundedRectangle|*
%AMROUNDEDRECTD110*
21,1,1.1000,0.5500,0,0,90.0*
21,1,0.5000,1.1500,0,0,90.0*
1,1,0.6000,0.2750,0.2500*
1,1,0.6000,0.2750,-0.2500*
1,1,0.6000,-0.2750,-0.2500*
1,1,0.6000,-0.2750,0.2500*
%
%ADD110ROUNDEDRECTD110*%
%ADD111R,2.5032X1.7032*%
G04:AMPARAMS|DCode=112|XSize=1.7032mm|YSize=2.5032mm|CornerRadius=0.4766mm|HoleSize=0mm|Usage=FLASHONLY|Rotation=90.000|XOffset=0mm|YOffset=0mm|HoleType=Round|Shape=RoundedRectangle|*
%AMROUNDEDRECTD112*
21,1,1.7032,1.5500,0,0,90.0*
21,1,0.7500,2.5032,0,0,90.0*
1,1,0.9532,0.7750,0.3750*
1,1,0.9532,0.7750,-0.3750*
1,1,0.9532,-0.7750,-0.3750*
1,1,0.9532,-0.7750,0.3750*
%
%ADD112ROUNDEDRECTD112*%
%ADD113R,1.7032X2.5032*%
G04:AMPARAMS|DCode=114|XSize=1.0032mm|YSize=0.8032mm|CornerRadius=0mm|HoleSize=0mm|Usage=FLASHONLY|Rotation=45.000|XOffset=0mm|YOffset=0mm|HoleType=Round|Shape=Rectangle|*
%AMROTATEDRECTD114*
4,1,4,-0.0707,-0.6387,-0.6387,-0.0707,0.0707,0.6387,0.6387,0.0707,-0.0707,-0.6387,0.0*
%
%ADD114ROTATEDRECTD114*%

%ADD115C,2.2032*%
%ADD116R,1.6032X1.0032*%
%ADD117R,1.4532X1.0032*%
G04:AMPARAMS|DCode=118|XSize=0.7mm|YSize=0.6mm|CornerRadius=0.15mm|HoleSize=0mm|Usage=FLASHONLY|Rotation=315.000|XOffset=0mm|YOffset=0mm|HoleType=Round|Shape=RoundedRectangle|*
%AMROUNDEDRECTD118*
21,1,0.7000,0.3000,0,0,315.0*
21,1,0.4000,0.6000,0,0,315.0*
1,1,0.3000,0.0354,-0.2475*
1,1,0.3000,-0.2475,0.0354*
1,1,0.3000,-0.0354,0.2475*
1,1,0.3000,0.2475,-0.0354*
%
%ADD118ROUNDEDRECTD118*%
%ADD119R,0.7000X1.2999*%
%ADD120R,0.5032X1.4031*%
G04:AMPARAMS|DCode=121|XSize=1.92mm|YSize=1.45mm|CornerRadius=0.32mm|HoleSize=0mm|Usage=FLASHONLY|Rotation=270.000|XOffset=0mm|YOffset=0mm|HoleType=Round|Shape=RoundedRectangle|*
%AMROUNDEDRECTD121*
21,1,1.9200,0.8100,0,0,270.0*
21,1,1.2800,1.4500,0,0,270.0*
1,1,0.6400,-0.4050,-0.6400*
1,1,0.6400,-0.4050,0.6400*
1,1,0.6400,0.4050,0.6400*
1,1,0.6400,0.4050,-0.6400*
%
%ADD121ROUNDEDRECTD121*%
%ADD122R,1.2000X1.2000*%
%ADD123R,2.1000X3.1000*%
%ADD124R,0.9000X2.6000*%
%ADD125R,0.9000X3.1480*%
%ADD126R,2.6000X0.9000*%
G04:AMPARAMS|DCode=127|XSize=2.6mm|YSize=0.9mm|CornerRadius=0.45mm|HoleSize=0mm|Usage=FLASHONLY|Rotation=0.000|XOffset=0mm|YOffset=0mm|HoleType=Round|Shape=RoundedRectangle|*
%AMROUNDEDRECTD127*
21,1,2.6000,0.0000,0,0,0.0*
21,1,1.7000,0.9000,0,0,0.0*
1,1,0.9000,0.8500,0.0000*
1,1,0.9000,-0.8500,0.0000*
1,1,0.9000,-0.8500,0.0000*
1,1,0.9000,0.8500,0.0000*
%
%ADD127ROUNDEDRECTD127*%
G04:AMPARAMS|DCode=128|XSize=2.6mm|YSize=0.9mm|CornerRadius=0.45mm|HoleSize=0mm|Usage=FLASHONLY|Rotation=270.000|XOffset=0mm|YOffset=0mm|HoleType=Round|Shape=RoundedRectangle|*
%AMROUNDEDRECTD128*
21,1,2.6000,0.0000,0,0,270.0*
21,1,1.7000,0.9000,0,0,270.0*
1,1,0.9000,0.0000,-0.8500*
1,1,0.9000,0.0000,0.8500*
1,1,0.9000,0.0000,0.8500*
1,1,0.9000,0.0000,-0.8500*
%
%ADD128ROUNDEDRECTD128*%
%ADD129R,3.1480X0.9000*%
%ADD130R,1.5032X0.4532*%
%ADD131R,1.4531X2.7432*%
%ADD132R,1.8000X1.0000*%
G36*
X685155Y44390D02*
X685174Y44391D01*
X685186Y44389D01*
X685201Y44389D01*
X685234Y44385D01*
X685268Y44383D01*
X685288Y44379D01*
X685306Y44377D01*
X685319Y44374D01*
X685333Y44372D01*
X685366Y44363D01*
X685399Y44357D01*
X685418Y44350D01*
X685436Y44346D01*
X685447Y44341D01*
X685462Y44338D01*
X685493Y44325D01*
X685525Y44314D01*
X685543Y44305D01*
X685560Y44298D01*
X685571Y44292D01*
X685585Y44287D01*
X685614Y44270D01*
X685644Y44255D01*
X685661Y44244D01*
X685677Y44235D01*
X685687Y44228D01*
X685700Y44220D01*
X685727Y44200D01*
X685755Y44181D01*
X685770Y44168D01*
X685785Y44157D01*
X685794Y44148D01*
X685806Y44139D01*
X685830Y44115D01*
X685855Y44093D01*
X685869Y44078D01*
X685882Y44065D01*
X686501Y43397D01*
X686532Y43359D01*
X686564Y43322D01*
X687669Y41874D01*
X687696Y41833D01*
X687724Y41794D01*
X688685Y40246D01*
X688708Y40203D01*
X688733Y40161D01*
X689541Y38528D01*
X689560Y38483D01*
X689580Y38439D01*
X690229Y36737D01*
X690243Y36690D01*
X690259Y36644D01*
X690742Y34887D01*
X690752Y34840D01*
X690764Y34792D01*
X691076Y32998D01*
X691081Y32949D01*
X691088Y32901D01*
X691228Y31084D01*
X691229Y31036D01*
X691231Y30987D01*
X691196Y29165D01*
X691192Y29117D01*
X691189Y29068D01*
X690981Y27258D01*
X690972Y27210D01*
X690965Y27162D01*
X690584Y25381D01*
X690571Y25334D01*
X690559Y25286D01*
X690009Y23549D01*
X689992Y23504D01*
X689976Y23458D01*
X689262Y21782D01*
X689240Y21738D01*
X689220Y21694D01*
X688349Y20094D01*
X688323Y20052D01*
X688299Y20010D01*
X687279Y18500D01*
X687249Y18462D01*
X687221Y18422D01*
X686062Y17017D01*
X686028Y16981D01*
X685996Y16945D01*
X685352Y16301D01*
X685352Y16301D01*
X684692Y15641D01*
X684655Y15608D01*
X684618Y15574D01*
X683175Y14389D01*
X683135Y14360D01*
X683095Y14330D01*
X681543Y13293D01*
X681500Y13268D01*
X681457Y13241D01*
X679811Y12361D01*
X679765Y12341D01*
X679721Y12319D01*
X677996Y11604D01*
X677949Y11588D01*
X677902Y11571D01*
X676116Y11029D01*
X676067Y11017D01*
X676019Y11004D01*
X674188Y10640D01*
X674138Y10634D01*
X674089Y10626D01*
X672231Y10443D01*
X672181Y10441D01*
X672131Y10438D01*
X670265Y10438D01*
X670215Y10441D01*
X670165Y10443D01*
X668307Y10626D01*
X668258Y10634D01*
X668208Y10641D01*
X666378Y11005D01*
X666329Y11018D01*
X666281Y11029D01*
X664494Y11571D01*
X664448Y11589D01*
X664400Y11605D01*
X662676Y12320D01*
X662631Y12342D01*
X662586Y12362D01*
X660939Y13243D01*
X660897Y13269D01*
X660854Y13294D01*
X659302Y14331D01*
X659262Y14362D01*
X659221Y14391D01*
X657779Y15575D01*
X657743Y15609D01*
X657705Y15643D01*
X657045Y16303D01*
X656401Y16947D01*
X656369Y16984D01*
X656335Y17019D01*
X655176Y18424D01*
X655148Y18464D01*
X655118Y18502D01*
X654099Y20012D01*
X654074Y20054D01*
X654048Y20096D01*
X653178Y21696D01*
X653158Y21740D01*
X653136Y21784D01*
X652423Y23460D01*
X652407Y23506D01*
X652389Y23551D01*
X651839Y25288D01*
X651828Y25335D01*
X651814Y25382D01*
X651434Y27164D01*
X651427Y27213D01*
X651418Y27260D01*
X651209Y29070D01*
X651207Y29118D01*
X651203Y29167D01*
X651168Y30988D01*
X651171Y31037D01*
X651171Y31086D01*
X651311Y32902D01*
X651318Y32950D01*
X651323Y32999D01*
X651636Y34794D01*
X651647Y34841D01*
X651657Y34889D01*
X652140Y36645D01*
X652156Y36691D01*
X652171Y36738D01*
X652820Y38440D01*
X652840Y38484D01*
X652859Y38529D01*
X653667Y40161D01*
X653692Y40204D01*
X653715Y40247D01*
X654676Y41794D01*
X654704Y41834D01*
X654731Y41874D01*
X655836Y43323D01*
X655868Y43360D01*
X655899Y43397D01*
X656518Y44065D01*
X656532Y44079D01*
X656545Y44093D01*
X656581Y44124D01*
X656615Y44157D01*
X656630Y44168D01*
X656645Y44181D01*
X656684Y44207D01*
X656723Y44235D01*
X656740Y44244D01*
X656756Y44255D01*
X656798Y44276D01*
X656840Y44298D01*
X656858Y44305D01*
X656875Y44314D01*
X656920Y44329D01*
X656964Y44346D01*
X656983Y44350D01*
X657001Y44357D01*
X657048Y44366D01*
X657094Y44377D01*
X657113Y44379D01*
X657132Y44383D01*
X657179Y44386D01*
X657226Y44391D01*
X657246Y44390D01*
X657265Y44391D01*
X685135Y44391D01*
X685155Y44390D01*
D02*
G37*
G36*
X672180Y244473D02*
X672230Y244471D01*
X674088Y244288D01*
X674138Y244280D01*
X674187Y244274D01*
X676019Y243910D01*
X676067Y243897D01*
X676115Y243885D01*
X677902Y243344D01*
X677949Y243326D01*
X677997Y243310D01*
X679722Y242595D01*
X679766Y242573D01*
X679812Y242553D01*
X681459Y241673D01*
X681501Y241646D01*
X681544Y241621D01*
X683097Y240584D01*
X683137Y240553D01*
X683177Y240524D01*
X684621Y239340D01*
X684657Y239306D01*
X684695Y239273D01*
X685355Y238613D01*
X685355Y238612D01*
X686002Y237966D01*
X686034Y237929D01*
X686068Y237894D01*
X687231Y236482D01*
X687259Y236443D01*
X687289Y236404D01*
X688311Y234887D01*
X688336Y234845D01*
X688362Y234803D01*
X689234Y233195D01*
X689254Y233151D01*
X689276Y233107D01*
X689989Y231423D01*
X690005Y231377D01*
X690023Y231331D01*
X690572Y229587D01*
X690583Y229539D01*
X690596Y229492D01*
X690975Y227703D01*
X690982Y227654D01*
X690990Y227606D01*
X691195Y225788D01*
X691197Y225740D01*
X691201Y225691D01*
X691230Y223862D01*
X691228Y223813D01*
X691227Y223764D01*
X691080Y221941D01*
X691073Y221893D01*
X691068Y221844D01*
X690747Y220044D01*
X690735Y219996D01*
X690725Y219948D01*
X690233Y218187D01*
X690216Y218140D01*
X690202Y218094D01*
X689543Y216388D01*
X689522Y216344D01*
X689503Y216299D01*
X688683Y214664D01*
X688658Y214622D01*
X688635Y214579D01*
X687662Y213030D01*
X687633Y212991D01*
X687606Y212950D01*
X686488Y211502D01*
X686456Y211465D01*
X686424Y211428D01*
X685799Y210761D01*
X685787Y210750D01*
X685776Y210737D01*
X685739Y210704D01*
X685702Y210670D01*
X685688Y210660D01*
X685676Y210650D01*
X685634Y210622D01*
X685593Y210592D01*
X685579Y210585D01*
X685565Y210576D01*
X685520Y210553D01*
X685476Y210530D01*
X685461Y210524D01*
X685446Y210517D01*
X685398Y210501D01*
X685351Y210483D01*
X685335Y210479D01*
X685320Y210474D01*
X685270Y210464D01*
X685221Y210453D01*
X685205Y210451D01*
X685189Y210448D01*
X685139Y210445D01*
X685089Y210440D01*
X685072Y210440D01*
X685056Y210439D01*
X657344Y210439D01*
X657328Y210440D01*
X657311Y210440D01*
X657297Y210441D01*
X657283Y210441D01*
X657246Y210446D01*
X657211Y210448D01*
X657195Y210451D01*
X657179Y210453D01*
X657165Y210456D01*
X657151Y210458D01*
X657115Y210467D01*
X657080Y210474D01*
X657065Y210479D01*
X657049Y210483D01*
X657036Y210488D01*
X657022Y210492D01*
X656988Y210505D01*
X656954Y210517D01*
X656940Y210524D01*
X656925Y210530D01*
X656912Y210536D01*
X656898Y210542D01*
X656866Y210560D01*
X656835Y210576D01*
X656822Y210584D01*
X656807Y210592D01*
X656795Y210601D01*
X656783Y210608D01*
X656753Y210630D01*
X656724Y210650D01*
X656712Y210660D01*
X656699Y210670D01*
X656688Y210679D01*
X656677Y210688D01*
X656650Y210714D01*
X656624Y210737D01*
X656614Y210749D01*
X656601Y210761D01*
X655976Y211427D01*
X655945Y211465D01*
X655912Y211502D01*
X654795Y212949D01*
X654768Y212990D01*
X654739Y213029D01*
X653765Y214577D01*
X653742Y214621D01*
X653717Y214663D01*
X652897Y216297D01*
X652878Y216342D01*
X652857Y216386D01*
X652198Y218092D01*
X652183Y218138D01*
X652167Y218185D01*
X651674Y219946D01*
X651664Y219994D01*
X651653Y220041D01*
X651331Y221841D01*
X651326Y221890D01*
X651319Y221938D01*
X651172Y223761D01*
X651171Y223810D01*
X651169Y223859D01*
X651197Y225687D01*
X651201Y225736D01*
X651204Y225785D01*
X651408Y227602D01*
X651417Y227650D01*
X651423Y227699D01*
X651801Y229488D01*
X651815Y229535D01*
X651826Y229582D01*
X652374Y231327D01*
X652392Y231372D01*
X652408Y231419D01*
X653121Y233103D01*
X653143Y233146D01*
X653163Y233191D01*
X654035Y234798D01*
X654061Y234840D01*
X654085Y234882D01*
X655107Y236399D01*
X655137Y236437D01*
X655165Y236477D01*
X656328Y237889D01*
X656361Y237924D01*
X656394Y237961D01*
X657040Y238608D01*
X657040Y238608D01*
X657700Y239268D01*
X657738Y239301D01*
X657774Y239335D01*
X659217Y240520D01*
X659258Y240549D01*
X659297Y240580D01*
X660850Y241618D01*
X660893Y241642D01*
X660935Y241669D01*
X662582Y242550D01*
X662627Y242570D01*
X662672Y242592D01*
X664397Y243307D01*
X664444Y243323D01*
X664491Y243341D01*
X666278Y243883D01*
X666326Y243895D01*
X666375Y243908D01*
X668206Y244272D01*
X668255Y244279D01*
X668305Y244287D01*
X670163Y244471D01*
X670213Y244472D01*
X670263Y244475D01*
X672130Y244476D01*
X672180Y244473D01*
D02*
G37*
D38*
X15481Y205439D02*
D03*
Y190439D02*
D03*
D41*
X227000Y-15342D02*
D03*
X236500D02*
D03*
X246000D02*
D03*
X227000Y-39342D02*
D03*
X236500D02*
D03*
X246000D02*
D03*
D42*
X261300Y-32342D02*
D03*
X291300D02*
D03*
D43*
X450969Y106091D02*
D03*
X460969D02*
D03*
X332032Y-5298D02*
D03*
X322032D02*
D03*
X477416Y105977D02*
D03*
X487416D02*
D03*
X332032Y3320D02*
D03*
X322032D02*
D03*
X456131Y163055D02*
D03*
X446131D02*
D03*
X-42189Y9429D02*
D03*
X-32189D02*
D03*
X-32189Y17757D02*
D03*
X-42189D02*
D03*
X-32071Y26172D02*
D03*
X-42071D02*
D03*
X461110Y215758D02*
D03*
X451110D02*
D03*
X480010Y215848D02*
D03*
X470010D02*
D03*
X321645Y-22533D02*
D03*
X331645D02*
D03*
X358598Y-23012D02*
D03*
X348598D02*
D03*
X358598Y3320D02*
D03*
X348598D02*
D03*
X358598Y-14235D02*
D03*
X348598D02*
D03*
X358598Y-5457D02*
D03*
X348598D02*
D03*
X322032Y-13915D02*
D03*
X332032D02*
D03*
X217287Y-25957D02*
D03*
X207287D02*
D03*
Y-34285D02*
D03*
X217287D02*
D03*
X249744Y-51519D02*
D03*
X239744D02*
D03*
X217287Y-42822D02*
D03*
X207287D02*
D03*
X290300Y-61568D02*
D03*
X280300D02*
D03*
X57121Y238810D02*
D03*
X67121D02*
D03*
X57121Y251383D02*
D03*
X67121D02*
D03*
X57121Y264337D02*
D03*
X67121D02*
D03*
X57121Y277545D02*
D03*
X67121D02*
D03*
D46*
X559661Y76756D02*
D03*
Y86756D02*
D03*
X549557Y76756D02*
D03*
Y86756D02*
D03*
X442246Y107518D02*
D03*
Y117518D02*
D03*
X470080Y107518D02*
D03*
Y117518D02*
D03*
X217287Y-50658D02*
D03*
Y-60658D02*
D03*
X227317Y-60484D02*
D03*
Y-50484D02*
D03*
X25950Y211328D02*
D03*
Y221328D02*
D03*
D48*
X220116Y-3955D02*
D03*
X205116D02*
D03*
X62763Y291769D02*
D03*
X47763D02*
D03*
D50*
X458200Y-16249D02*
D03*
Y-51250D02*
D03*
Y270912D02*
D03*
Y305913D02*
D03*
D51*
X671200Y30458D02*
D03*
Y224458D02*
D03*
D52*
X101488Y-7055D02*
D03*
D53*
Y-48855D02*
D03*
X187990D02*
D03*
D54*
X115839Y-12056D02*
D03*
X173639D02*
D03*
D55*
X187990Y-7055D02*
D03*
D56*
X0Y0D02*
D03*
X0Y255258D02*
D03*
D57*
X-50405Y209897D02*
D03*
Y45897D02*
D03*
D109*
X506770Y201198D02*
D03*
Y230698D02*
D03*
X517066Y120868D02*
D03*
Y91368D02*
D03*
X487003Y148396D02*
D03*
Y177896D02*
D03*
D110*
X491520Y215947D02*
D03*
X501815Y106117D02*
D03*
D111*
X590735Y68050D02*
D03*
Y91750D02*
D03*
Y127750D02*
D03*
Y187450D02*
D03*
D112*
Y163750D02*
D03*
D113*
X624265Y30470D02*
D03*
Y224530D02*
D03*
D114*
X21997Y18345D02*
D03*
X9976Y30366D02*
D03*
D115*
X72755Y12738D02*
D03*
D116*
X543843Y137234D02*
D03*
X512743D02*
D03*
X543843Y189055D02*
D03*
X512743D02*
D03*
D117*
X528293Y137234D02*
D03*
Y189055D02*
D03*
D118*
X463182Y198352D02*
D03*
X470253Y205423D02*
D03*
X450985Y205263D02*
D03*
X443914Y198192D02*
D03*
D119*
X112740Y-1406D02*
D03*
X120739D02*
D03*
X168740D02*
D03*
X176738D02*
D03*
D120*
X127239D02*
D03*
X132240D02*
D03*
X137239D02*
D03*
X142240D02*
D03*
X147239D02*
D03*
X152240D02*
D03*
X157239D02*
D03*
X162240D02*
D03*
D121*
X399825Y-29609D02*
D03*
X370825D02*
D03*
X335500Y-51525D02*
D03*
X364500D02*
D03*
D122*
X133505Y277055D02*
D03*
Y257055D02*
D03*
Y237055D02*
D03*
Y217055D02*
D03*
Y197055D02*
D03*
Y177055D02*
D03*
Y157055D02*
D03*
Y137055D02*
D03*
Y117055D02*
D03*
Y97055D02*
D03*
Y77055D02*
D03*
Y57055D02*
D03*
X153505Y277055D02*
D03*
Y257055D02*
D03*
Y237055D02*
D03*
Y217055D02*
D03*
Y197055D02*
D03*
Y177055D02*
D03*
Y157055D02*
D03*
Y137055D02*
D03*
Y117055D02*
D03*
Y77055D02*
D03*
Y57055D02*
D03*
Y97055D02*
D03*
D123*
X181505Y263055D02*
D03*
Y215055D02*
D03*
Y167055D02*
D03*
Y119055D02*
D03*
Y71055D02*
D03*
X213505Y263055D02*
D03*
Y215055D02*
D03*
Y167055D02*
D03*
Y119055D02*
D03*
Y71055D02*
D03*
X247505Y263055D02*
D03*
Y215055D02*
D03*
Y119055D02*
D03*
Y71055D02*
D03*
X279505Y263055D02*
D03*
Y215055D02*
D03*
Y119055D02*
D03*
Y71055D02*
D03*
X313505Y263055D02*
D03*
Y215055D02*
D03*
Y167055D02*
D03*
Y119055D02*
D03*
Y71055D02*
D03*
X345505Y263055D02*
D03*
Y215055D02*
D03*
Y167055D02*
D03*
Y119055D02*
D03*
Y71055D02*
D03*
D124*
X168005Y24555D02*
D03*
X181005D02*
D03*
X194005D02*
D03*
X207005D02*
D03*
X272005D02*
D03*
X285005D02*
D03*
X298005D02*
D03*
X324005D02*
D03*
X337005D02*
D03*
X350005D02*
D03*
X363005D02*
D03*
X376005D02*
D03*
X389005Y309555D02*
D03*
X350005D02*
D03*
X337005D02*
D03*
X324005D02*
D03*
X311005D02*
D03*
X298005D02*
D03*
X285005D02*
D03*
X246005D02*
D03*
X233005D02*
D03*
X220005D02*
D03*
X207005D02*
D03*
X194005D02*
D03*
X181005D02*
D03*
X168005D02*
D03*
X155005D02*
D03*
X142005D02*
D03*
D125*
X220005Y21767D02*
D03*
X233005D02*
D03*
X246005D02*
D03*
X259005D02*
D03*
X311005D02*
D03*
D126*
X421005Y41055D02*
D03*
Y54055D02*
D03*
Y67055D02*
D03*
Y80055D02*
D03*
Y93055D02*
D03*
Y119055D02*
D03*
Y137055D02*
D03*
Y150055D02*
D03*
Y176055D02*
D03*
Y189055D02*
D03*
Y202055D02*
D03*
X106005Y293055D02*
D03*
Y280055D02*
D03*
Y267055D02*
D03*
Y254055D02*
D03*
Y241055D02*
D03*
Y228055D02*
D03*
Y215055D02*
D03*
Y202055D02*
D03*
Y189055D02*
D03*
Y176055D02*
D03*
Y163055D02*
D03*
Y150055D02*
D03*
Y137055D02*
D03*
Y67055D02*
D03*
Y54055D02*
D03*
Y41055D02*
D03*
D127*
X421005Y106055D02*
D03*
Y163055D02*
D03*
D128*
X376005Y309555D02*
D03*
D129*
X103465Y119055D02*
D03*
Y106055D02*
D03*
Y93055D02*
D03*
Y80055D02*
D03*
D130*
X-57905Y125397D02*
D03*
Y115397D02*
D03*
Y105397D02*
D03*
Y95397D02*
D03*
Y85397D02*
D03*
X-17905Y55397D02*
D03*
X-57905Y135397D02*
D03*
Y145397D02*
D03*
Y140397D02*
D03*
Y130397D02*
D03*
Y120397D02*
D03*
Y110397D02*
D03*
Y100397D02*
D03*
Y90397D02*
D03*
Y80397D02*
D03*
X-17905Y145397D02*
D03*
Y135397D02*
D03*
Y125397D02*
D03*
Y115397D02*
D03*
Y140397D02*
D03*
Y130397D02*
D03*
Y120397D02*
D03*
Y110397D02*
D03*
Y105397D02*
D03*
Y100397D02*
D03*
Y95397D02*
D03*
Y90397D02*
D03*
Y85397D02*
D03*
Y80397D02*
D03*
Y75397D02*
D03*
Y70397D02*
D03*
Y65397D02*
D03*
Y60397D02*
D03*
X-57905Y55397D02*
D03*
Y60397D02*
D03*
Y65397D02*
D03*
Y70397D02*
D03*
Y75397D02*
D03*
Y150397D02*
D03*
X-17905Y150397D02*
D03*
X-57905Y175397D02*
D03*
Y165397D02*
D03*
Y155397D02*
D03*
Y195397D02*
D03*
Y200397D02*
D03*
Y190397D02*
D03*
Y180397D02*
D03*
Y170397D02*
D03*
Y160397D02*
D03*
X-17905Y195397D02*
D03*
Y185397D02*
D03*
Y175397D02*
D03*
Y165397D02*
D03*
Y200397D02*
D03*
Y190397D02*
D03*
Y180397D02*
D03*
Y170397D02*
D03*
Y160397D02*
D03*
Y155397D02*
D03*
X-57905Y185397D02*
D03*
D131*
X26061Y158469D02*
D03*
X46061D02*
D03*
D132*
X60604Y-39271D02*
D03*
Y-10271D02*
D03*
M02*
