G04*
G04 #@! TF.GenerationSoftware,Altium Limited,Altium Designer,22.2.1 (43)*
G04*
G04 Layer_Color=8421504*
%FSLAX44Y44*%
%MOMM*%
G71*
G04*
G04 #@! TF.SameCoordinates,D676EA34-7746-482F-A41B-9349FDE20BFB*
G04*
G04*
G04 #@! TF.FilePolarity,Positive*
G04*
G01*
G75*
%ADD18R,0.6000X0.8000*%
%ADD19R,0.8000X1.4000*%
%ADD20R,1.4000X0.8000*%
%ADD21R,0.3000X0.3000*%
G04:AMPARAMS|DCode=22|XSize=1.2mm|YSize=0.6mm|CornerRadius=0.09mm|HoleSize=0mm|Usage=FLASHONLY|Rotation=0.000|XOffset=0mm|YOffset=0mm|HoleType=Round|Shape=RoundedRectangle|*
%AMROUNDEDRECTD22*
21,1,1.2000,0.4200,0,0,0.0*
21,1,1.0200,0.6000,0,0,0.0*
1,1,0.1800,0.5100,-0.2100*
1,1,0.1800,-0.5100,-0.2100*
1,1,0.1800,-0.5100,0.2100*
1,1,0.1800,0.5100,0.2100*
%
%ADD22ROUNDEDRECTD22*%
G04:AMPARAMS|DCode=23|XSize=0.8mm|YSize=0.5mm|CornerRadius=0.07mm|HoleSize=0mm|Usage=FLASHONLY|Rotation=180.000|XOffset=0mm|YOffset=0mm|HoleType=Round|Shape=RoundedRectangle|*
%AMROUNDEDRECTD23*
21,1,0.8000,0.3600,0,0,180.0*
21,1,0.6600,0.5000,0,0,180.0*
1,1,0.1400,-0.3300,0.1800*
1,1,0.1400,0.3300,0.1800*
1,1,0.1400,0.3300,-0.1800*
1,1,0.1400,-0.3300,-0.1800*
%
%ADD23ROUNDEDRECTD23*%
%ADD24R,0.8000X0.8000*%
%ADD25R,0.4501X0.6000*%
G04:AMPARAMS|DCode=26|XSize=1mm|YSize=0.5mm|CornerRadius=0.0625mm|HoleSize=0mm|Usage=FLASHONLY|Rotation=270.000|XOffset=0mm|YOffset=0mm|HoleType=Round|Shape=RoundedRectangle|*
%AMROUNDEDRECTD26*
21,1,1.0000,0.3750,0,0,270.0*
21,1,0.8750,0.5000,0,0,270.0*
1,1,0.1250,-0.1875,-0.4375*
1,1,0.1250,-0.1875,0.4375*
1,1,0.1250,0.1875,0.4375*
1,1,0.1250,0.1875,-0.4375*
%
%ADD26ROUNDEDRECTD26*%
%ADD27R,1.0000X3.6000*%
G04:AMPARAMS|DCode=28|XSize=0.6mm|YSize=0.5mm|CornerRadius=0.1mm|HoleSize=0mm|Usage=FLASHONLY|Rotation=90.000|XOffset=0mm|YOffset=0mm|HoleType=Round|Shape=RoundedRectangle|*
%AMROUNDEDRECTD28*
21,1,0.6000,0.3000,0,0,90.0*
21,1,0.4000,0.5000,0,0,90.0*
1,1,0.2000,0.1500,0.2000*
1,1,0.2000,0.1500,-0.2000*
1,1,0.2000,-0.1500,-0.2000*
1,1,0.2000,-0.1500,0.2000*
%
%ADD28ROUNDEDRECTD28*%
%ADD29R,0.5001X0.6000*%
G04:AMPARAMS|DCode=30|XSize=0.6mm|YSize=0.5mm|CornerRadius=0.1mm|HoleSize=0mm|Usage=FLASHONLY|Rotation=0.000|XOffset=0mm|YOffset=0mm|HoleType=Round|Shape=RoundedRectangle|*
%AMROUNDEDRECTD30*
21,1,0.6000,0.3000,0,0,0.0*
21,1,0.4000,0.5000,0,0,0.0*
1,1,0.2000,0.2000,-0.1500*
1,1,0.2000,-0.2000,-0.1500*
1,1,0.2000,-0.2000,0.1500*
1,1,0.2000,0.2000,0.1500*
%
%ADD30ROUNDEDRECTD30*%
%ADD31R,0.6000X0.5001*%
G04:AMPARAMS|DCode=32|XSize=0.8mm|YSize=0.5mm|CornerRadius=0.07mm|HoleSize=0mm|Usage=FLASHONLY|Rotation=270.000|XOffset=0mm|YOffset=0mm|HoleType=Round|Shape=RoundedRectangle|*
%AMROUNDEDRECTD32*
21,1,0.8000,0.3600,0,0,270.0*
21,1,0.6600,0.5000,0,0,270.0*
1,1,0.1400,-0.1800,-0.3300*
1,1,0.1400,-0.1800,0.3300*
1,1,0.1400,0.1800,0.3300*
1,1,0.1400,0.1800,-0.3300*
%
%ADD32ROUNDEDRECTD32*%
G36*
X673989Y243275D02*
X675820Y242911D01*
X677607Y242369D01*
X679332Y241655D01*
X680979Y240775D01*
X682532Y239737D01*
X683975Y238553D01*
X684635Y237893D01*
X685282Y237246D01*
X686445Y235835D01*
X687467Y234318D01*
X688339Y232710D01*
X689052Y231026D01*
X689600Y229281D01*
X689978Y227492D01*
X690183Y225675D01*
X690212Y223846D01*
X690066Y222023D01*
X689745Y220222D01*
X689252Y218461D01*
X688593Y216755D01*
X687773Y215121D01*
X686799Y213572D01*
X685682Y212124D01*
X685056Y211457D01*
X657344Y211457D01*
X657344Y211457D01*
X656718Y212124D01*
X655601Y213571D01*
X654627Y215119D01*
X653807Y216754D01*
X653148Y218459D01*
X652655Y220220D01*
X652334Y222020D01*
X652187Y223843D01*
X652215Y225671D01*
X652420Y227488D01*
X652798Y229277D01*
X653345Y231022D01*
X654058Y232706D01*
X654930Y234313D01*
X655951Y235830D01*
X657114Y237241D01*
X657760Y237888D01*
X658420Y238548D01*
X659863Y239733D01*
X661415Y240771D01*
X663062Y241652D01*
X664787Y242367D01*
X666574Y242909D01*
X668405Y243274D01*
X670263Y243457D01*
X672130Y243458D01*
X673989Y243275D01*
D02*
G37*
G36*
X685135Y43373D02*
X685754Y42705D01*
X686859Y41256D01*
X687820Y39709D01*
X688629Y38076D01*
X689277Y36374D01*
X689761Y34617D01*
X690073Y32823D01*
X690213Y31006D01*
X690178Y29185D01*
X689969Y27375D01*
X689588Y25594D01*
X689039Y23857D01*
X688325Y22180D01*
X687455Y20580D01*
X686435Y19070D01*
X685276Y17665D01*
X684632Y17021D01*
X684632Y17021D01*
X683972Y16361D01*
X682529Y15176D01*
X680977Y14139D01*
X679331Y13259D01*
X677606Y12545D01*
X675820Y12003D01*
X673989Y11639D01*
X672132Y11456D01*
X670265Y11456D01*
X668407Y11639D01*
X666576Y12004D01*
X664790Y12546D01*
X663066Y13260D01*
X661420Y14140D01*
X659868Y15178D01*
X658425Y16362D01*
X657765Y17023D01*
Y17023D01*
X657121Y17667D01*
X655962Y19072D01*
X654943Y20582D01*
X654073Y22182D01*
X653360Y23858D01*
X652810Y25595D01*
X652429Y27377D01*
X652221Y29186D01*
X652186Y31008D01*
X652326Y32824D01*
X652639Y34618D01*
X653122Y36375D01*
X653771Y38077D01*
X654580Y39709D01*
X655541Y41257D01*
X656646Y42705D01*
X657265Y43373D01*
X685135Y43373D01*
X685135Y43373D01*
D02*
G37*
G36*
X90698Y-10540D02*
X78200D01*
X78102Y-10550D01*
X78008Y-10578D01*
X77921Y-10625D01*
X77845Y-10687D01*
X77782Y-10763D01*
X77736Y-10850D01*
X77707Y-10944D01*
X77698Y-11042D01*
Y-20540D01*
X68703D01*
Y-4545D01*
X90698D01*
Y-10540D01*
D02*
G37*
G36*
X58698Y-20540D02*
X49703D01*
Y-11042D01*
X49693Y-10944D01*
X49664Y-10850D01*
X49618Y-10763D01*
X49555Y-10687D01*
X49479Y-10625D01*
X49392Y-10578D01*
X49298Y-10550D01*
X49200Y-10540D01*
X36702D01*
Y-4545D01*
X58698D01*
Y-20540D01*
D02*
G37*
G36*
X77698Y-44042D02*
X77707Y-44141D01*
X77736Y-44235D01*
X77782Y-44322D01*
X77845Y-44398D01*
X77921Y-44460D01*
X78008Y-44507D01*
X78102Y-44535D01*
X78200Y-44545D01*
X90698D01*
Y-50540D01*
X68703D01*
Y-34545D01*
X77698D01*
Y-44042D01*
D02*
G37*
G36*
X58698Y-50540D02*
X36702D01*
Y-44545D01*
X49200D01*
X49298Y-44535D01*
X49392Y-44507D01*
X49479Y-44460D01*
X49555Y-44398D01*
X49618Y-44322D01*
X49664Y-44235D01*
X49693Y-44141D01*
X49703Y-44042D01*
Y-34545D01*
X58698D01*
Y-50540D01*
D02*
G37*
D18*
X167011Y10971D02*
D03*
X150011D02*
D03*
D19*
X143495Y255656D02*
D03*
X177915D02*
D03*
X106105Y255756D02*
D03*
X127275Y255716D02*
D03*
X160164Y255656D02*
D03*
X91094Y255646D02*
D03*
X124915Y49556D02*
D03*
X219375Y255666D02*
D03*
X597155Y210196D02*
D03*
X219625Y49876D02*
D03*
D20*
X59595Y97336D02*
D03*
X59695Y84626D02*
D03*
X59776Y173656D02*
D03*
X59475Y160906D02*
D03*
X59566Y148166D02*
D03*
X59566Y135476D02*
D03*
X59475Y122786D02*
D03*
X59577Y70748D02*
D03*
X59285Y212616D02*
D03*
X59627Y57468D02*
D03*
X59775Y192446D02*
D03*
X59776Y110036D02*
D03*
D21*
X49200Y-47543D02*
D03*
X78200D02*
D03*
Y-7543D02*
D03*
X49200D02*
D03*
D22*
X-41862Y238022D02*
D03*
Y219022D02*
D03*
D23*
X-60208Y188960D02*
D03*
Y203960D02*
D03*
X358400Y-48542D02*
D03*
Y-63542D02*
D03*
X29598Y-36100D02*
D03*
Y-21100D02*
D03*
X-60276Y214719D02*
D03*
Y229718D02*
D03*
D24*
X177505Y303114D02*
D03*
X192505D02*
D03*
X327505D02*
D03*
X312505D02*
D03*
X288505D02*
D03*
X273505D02*
D03*
X253700D02*
D03*
X238700D02*
D03*
D25*
X18569Y171169D02*
D03*
X27067D02*
D03*
D26*
X350000Y-36542D02*
D03*
X359500D02*
D03*
X369000D02*
D03*
X350000Y-12542D02*
D03*
X359500D02*
D03*
X369000D02*
D03*
X226510Y-38174D02*
D03*
X236010D02*
D03*
X245510D02*
D03*
X226510Y-14174D02*
D03*
X236010D02*
D03*
X245510D02*
D03*
D27*
X384100Y-40442D02*
D03*
X414100D02*
D03*
X261600Y-23842D02*
D03*
X291600D02*
D03*
D28*
X187933Y278551D02*
D03*
X197933D02*
D03*
X-45244Y99122D02*
D03*
X-55244D02*
D03*
X-6460Y92182D02*
D03*
X3540D02*
D03*
X134890Y-2122D02*
D03*
X124890D02*
D03*
X154890D02*
D03*
X164890D02*
D03*
X132310Y-32731D02*
D03*
X122310D02*
D03*
X132015Y-22284D02*
D03*
X122015D02*
D03*
X229182Y-2531D02*
D03*
X239182D02*
D03*
X427382Y-42758D02*
D03*
X437381D02*
D03*
X293000Y1858D02*
D03*
X283000D02*
D03*
X387800Y-12102D02*
D03*
X377800D02*
D03*
X239182Y7219D02*
D03*
X229182D02*
D03*
X261185Y2430D02*
D03*
X251185D02*
D03*
X329400Y-23968D02*
D03*
X319400D02*
D03*
X290Y169628D02*
D03*
X10290D02*
D03*
X290Y160826D02*
D03*
X10290D02*
D03*
X349574Y692D02*
D03*
X359574D02*
D03*
X-20407Y75283D02*
D03*
X-10407D02*
D03*
X187933Y287978D02*
D03*
X197933D02*
D03*
X308780Y266769D02*
D03*
X242469Y290054D02*
D03*
X252469D02*
D03*
X277723D02*
D03*
X287723D02*
D03*
X338850Y284588D02*
D03*
X328850D02*
D03*
X318780Y266769D02*
D03*
X249182Y43352D02*
D03*
X239182D02*
D03*
D29*
X55265Y305068D02*
D03*
X50264Y292068D02*
D03*
X60266D02*
D03*
X212351Y13167D02*
D03*
X217352Y26167D02*
D03*
X207350D02*
D03*
X219232Y278551D02*
D03*
X209230D02*
D03*
X214231Y291550D02*
D03*
X242467Y267809D02*
D03*
X274286D02*
D03*
X247469Y280808D02*
D03*
X252470Y267809D02*
D03*
X279287Y280808D02*
D03*
X284288Y267809D02*
D03*
D30*
X-36934Y90178D02*
D03*
Y100178D02*
D03*
X-1460Y75668D02*
D03*
Y65668D02*
D03*
X-49927Y74341D02*
D03*
Y64341D02*
D03*
X-28899Y98988D02*
D03*
Y108988D02*
D03*
X449724Y283648D02*
D03*
Y293648D02*
D03*
X43623Y52596D02*
D03*
Y42596D02*
D03*
X155565Y-25957D02*
D03*
Y-35957D02*
D03*
X-6440Y105864D02*
D03*
Y115863D02*
D03*
X215852Y-33174D02*
D03*
Y-43174D02*
D03*
X207800D02*
D03*
Y-33174D02*
D03*
X220676Y-2570D02*
D03*
Y7430D02*
D03*
X400451Y-14652D02*
D03*
Y-4652D02*
D03*
X410025Y-14652D02*
D03*
Y-4652D02*
D03*
X339090Y-38542D02*
D03*
Y-28542D02*
D03*
X27392Y180128D02*
D03*
Y190128D02*
D03*
X133615Y307055D02*
D03*
Y317055D02*
D03*
X347650Y296338D02*
D03*
Y286338D02*
D03*
X446960Y-28048D02*
D03*
Y-38048D02*
D03*
D31*
X319005Y287873D02*
D03*
Y277870D02*
D03*
X306005Y282871D02*
D03*
D32*
X98960Y-28086D02*
D03*
X113960D02*
D03*
X235201Y-56182D02*
D03*
X250201D02*
D03*
M02*
