G04*
G04 #@! TF.GenerationSoftware,Altium Limited,Altium Designer,22.2.1 (43)*
G04*
G04 Layer_Physical_Order=3*
G04 Layer_Color=16440176*
%FSLAX44Y44*%
%MOMM*%
G71*
G04*
G04 #@! TF.SameCoordinates,D676EA34-7746-482F-A41B-9349FDE20BFB*
G04*
G04*
G04 #@! TF.FilePolarity,Positive*
G04*
G01*
G75*
%ADD33C,0.2032*%
%ADD58C,0.1524*%
%ADD65C,0.2540*%
%ADD71C,1.5001*%
%ADD72C,2.5254*%
%ADD76C,3.8000*%
%ADD77C,0.5080*%
%ADD78C,0.7112*%
%ADD80C,1.0160*%
G36*
X476363Y326405D02*
Y248728D01*
X476521Y247935D01*
X476970Y247263D01*
X477642Y246814D01*
X478435Y246656D01*
X570609D01*
X578446Y237830D01*
Y237089D01*
X578486Y236889D01*
Y236685D01*
X579082Y233686D01*
X579161Y233497D01*
X579200Y233297D01*
X580370Y230473D01*
X580484Y230303D01*
X580562Y230114D01*
X582261Y227572D01*
X582405Y227428D01*
X582518Y227258D01*
X584680Y225096D01*
X584850Y224983D01*
X584994Y224839D01*
X587536Y223140D01*
X587725Y223062D01*
X587895Y222949D01*
X590719Y221779D01*
X590919Y221739D01*
X591108Y221661D01*
X594106Y221064D01*
X594311D01*
X594511Y221024D01*
X597568D01*
X597768Y221064D01*
X597972D01*
X600971Y221661D01*
X601160Y221739D01*
X601360Y221779D01*
X604184Y222949D01*
X604354Y223062D01*
X604543Y223140D01*
X607085Y224839D01*
X607229Y224983D01*
X607399Y225096D01*
X609561Y227258D01*
X609674Y227428D01*
X609818Y227572D01*
X611517Y230114D01*
X611595Y230303D01*
X611708Y230473D01*
X612878Y233297D01*
X612918Y233497D01*
X612996Y233686D01*
X613593Y236685D01*
Y236889D01*
X613633Y237089D01*
Y237886D01*
X620708Y246656D01*
X698941D01*
X701520Y244076D01*
Y212532D01*
X685996D01*
X685682Y212124D01*
X685056Y211457D01*
X657344Y211457D01*
X657344Y211457D01*
X656718Y212124D01*
X656403Y212532D01*
X631590D01*
X630797Y212374D01*
X630125Y211925D01*
X629676Y211253D01*
X629518Y210460D01*
Y44460D01*
X629676Y43667D01*
X630125Y42995D01*
X630797Y42546D01*
X631590Y42388D01*
X656404D01*
X656646Y42705D01*
X657265Y43373D01*
X685135Y43373D01*
X685135Y43373D01*
X685754Y42705D01*
X685996Y42388D01*
X701520D01*
X701520Y11304D01*
X698476Y8260D01*
X580564D01*
X572726Y17085D01*
Y17826D01*
X572687Y18026D01*
Y18230D01*
X572090Y21229D01*
X572012Y21418D01*
X571972Y21618D01*
X570802Y24443D01*
X570689Y24612D01*
X570611Y24801D01*
X568912Y27343D01*
X568768Y27487D01*
X568655Y27657D01*
X566493Y29819D01*
X566323Y29932D01*
X566179Y30076D01*
X563636Y31775D01*
X563448Y31853D01*
X563278Y31967D01*
X560453Y33136D01*
X560253Y33176D01*
X560065Y33254D01*
X557066Y33851D01*
X556862D01*
X556662Y33891D01*
X553605D01*
X553404Y33851D01*
X553200D01*
X550202Y33254D01*
X550013Y33176D01*
X549813Y33136D01*
X546988Y31967D01*
X546819Y31853D01*
X546630Y31775D01*
X544088Y30076D01*
X543944Y29932D01*
X543774Y29819D01*
X541612Y27657D01*
X541499Y27487D01*
X541354Y27343D01*
X539656Y24801D01*
X539578Y24612D01*
X539464Y24443D01*
X538294Y21618D01*
X538254Y21418D01*
X538176Y21229D01*
X537580Y18230D01*
Y18026D01*
X537540Y17826D01*
Y17029D01*
X530465Y8260D01*
X478435D01*
X477642Y8102D01*
X476970Y7653D01*
X476521Y6981D01*
X476363Y6188D01*
X476363Y-71490D01*
X98700D01*
X98335Y-71563D01*
X97968Y-71624D01*
X97641Y-71747D01*
X91938Y-71792D01*
X79811Y-71135D01*
X75631Y-70648D01*
X75705Y-69378D01*
X77198D01*
X78692Y-68759D01*
X79060Y-68391D01*
X80139Y-67882D01*
X80719Y-68391D01*
X81330Y-69002D01*
X82824Y-69621D01*
X84441D01*
X85935Y-69002D01*
X86871Y-68066D01*
X87105Y-67861D01*
X88415Y-67951D01*
X88898Y-68434D01*
X90392Y-69053D01*
X92008D01*
X93502Y-68434D01*
X94645Y-67291D01*
X95264Y-65797D01*
Y-64180D01*
X94645Y-62687D01*
X93502Y-61543D01*
X92008Y-60925D01*
X90392D01*
X88898Y-61543D01*
X87962Y-62480D01*
X87728Y-62685D01*
X86418Y-62595D01*
X85935Y-62112D01*
X84441Y-61493D01*
X82824D01*
X81330Y-62112D01*
X80962Y-62480D01*
X79883Y-62989D01*
X79303Y-62480D01*
X78692Y-61868D01*
X77198Y-61250D01*
X75581D01*
X74307Y-61778D01*
X73113Y-62214D01*
X71969Y-61071D01*
X70476Y-60452D01*
X68859D01*
X67365Y-61071D01*
X66726Y-61710D01*
X65614Y-60597D01*
X64120Y-59978D01*
X62503D01*
X61009Y-60597D01*
X60268Y-61339D01*
X59798Y-61245D01*
X58654Y-60102D01*
X57161Y-59483D01*
X55544D01*
X54050Y-60102D01*
X52907Y-61245D01*
X52288Y-62739D01*
Y-64355D01*
X52776Y-65532D01*
X52208Y-66437D01*
X51965Y-66642D01*
X43998Y-64693D01*
X32402Y-61082D01*
X21053Y-56761D01*
X9992Y-51746D01*
X-737Y-46055D01*
X-11094Y-39712D01*
X-21038Y-32740D01*
X-30531Y-25166D01*
X-39538Y-17018D01*
X-48022Y-8329D01*
X-55953Y869D01*
X-63300Y10539D01*
X-66319Y15071D01*
X-66319Y64360D01*
Y195678D01*
X-66319Y237957D01*
X-63322Y242291D01*
X-56047Y251622D01*
X-48250Y260522D01*
X-39958Y268961D01*
X-31197Y276913D01*
X-21995Y284350D01*
X-12384Y291250D01*
X-2393Y297589D01*
X7943Y303347D01*
X18592Y308504D01*
X29518Y313044D01*
X40685Y316952D01*
X52058Y320215D01*
X63599Y322823D01*
X75270Y324767D01*
X87033Y326041D01*
X92941Y326340D01*
X93077Y326374D01*
X93217Y326373D01*
X93392Y326406D01*
X476363Y326405D01*
D02*
G37*
%LPC*%
G36*
X37648Y296539D02*
X36031D01*
X34538Y295920D01*
X33394Y294777D01*
X32776Y293284D01*
Y291667D01*
X33394Y290173D01*
X34538Y289030D01*
X36031Y288411D01*
X37648D01*
X39142Y289030D01*
X40285Y290173D01*
X40904Y291667D01*
Y293284D01*
X40285Y294777D01*
X39142Y295920D01*
X37648Y296539D01*
D02*
G37*
G36*
X337188Y295707D02*
X335572D01*
X334078Y295088D01*
X332935Y293945D01*
X332316Y292451D01*
Y290834D01*
X332935Y289341D01*
X334078Y288197D01*
X335572Y287579D01*
X337188D01*
X338682Y288197D01*
X339825Y289341D01*
X340444Y290834D01*
Y292451D01*
X339825Y293945D01*
X338682Y295088D01*
X337188Y295707D01*
D02*
G37*
G36*
X298633Y294118D02*
X297016D01*
X295522Y293499D01*
X294379Y292356D01*
X293761Y290862D01*
Y289245D01*
X294379Y287752D01*
X295522Y286609D01*
X297016Y285990D01*
X298633D01*
X300127Y286609D01*
X301270Y287752D01*
X301889Y289245D01*
Y290862D01*
X301270Y292356D01*
X300127Y293499D01*
X298633Y294118D01*
D02*
G37*
G36*
X265525D02*
X263908D01*
X262414Y293499D01*
X261271Y292356D01*
X260653Y290862D01*
Y289245D01*
X261271Y287752D01*
X262414Y286609D01*
X263908Y285990D01*
X265525D01*
X267019Y286609D01*
X268162Y287752D01*
X268781Y289245D01*
Y290862D01*
X268162Y292356D01*
X267019Y293499D01*
X265525Y294118D01*
D02*
G37*
G36*
X231658D02*
X230041D01*
X228548Y293499D01*
X227404Y292356D01*
X226786Y290862D01*
Y289245D01*
X227404Y287752D01*
X228548Y286609D01*
X230041Y285990D01*
X231658D01*
X233152Y286609D01*
X234295Y287752D01*
X234914Y289245D01*
Y290862D01*
X234295Y292356D01*
X233152Y293499D01*
X231658Y294118D01*
D02*
G37*
G36*
X73445Y294055D02*
X71828D01*
X70335Y293436D01*
X69192Y292293D01*
X68573Y290799D01*
Y289182D01*
X69192Y287689D01*
X70335Y286545D01*
X71828Y285927D01*
X73445D01*
X74939Y286545D01*
X76082Y287689D01*
X76701Y289182D01*
Y290799D01*
X76082Y292293D01*
X74939Y293436D01*
X73445Y294055D01*
D02*
G37*
G36*
X144454Y292542D02*
X142837D01*
X141343Y291923D01*
X140488Y291067D01*
X117314D01*
X116323Y290870D01*
X115483Y290309D01*
X107269Y282095D01*
X106707Y281255D01*
X106510Y280264D01*
Y220630D01*
X96089Y210209D01*
X84970D01*
X83979Y210012D01*
X83139Y209451D01*
X41479Y167791D01*
X27058D01*
X26067Y167594D01*
X25227Y167033D01*
X11181Y152986D01*
X3470D01*
X2615Y153842D01*
X1121Y154461D01*
X-496D01*
X-1989Y153842D01*
X-3133Y152699D01*
X-3751Y151205D01*
Y149588D01*
X-3133Y148095D01*
X-1989Y146952D01*
X-496Y146333D01*
X1121D01*
X2615Y146952D01*
X3470Y147807D01*
X12253D01*
X13244Y148004D01*
X14085Y148566D01*
X28131Y162612D01*
X42552D01*
X43543Y162809D01*
X44383Y163370D01*
X86043Y205030D01*
X97162D01*
X98153Y205227D01*
X98993Y205788D01*
X110931Y217726D01*
X111493Y218566D01*
X111690Y219558D01*
Y279191D01*
X118387Y285888D01*
X140488D01*
X141343Y285032D01*
X142837Y284414D01*
X144454D01*
X145948Y285032D01*
X147091Y286175D01*
X147709Y287669D01*
Y289286D01*
X147091Y290780D01*
X145948Y291923D01*
X144454Y292542D01*
D02*
G37*
G36*
X154316Y292041D02*
X152699D01*
X151205Y291422D01*
X150062Y290279D01*
X149443Y288785D01*
Y287168D01*
X150062Y285674D01*
X151205Y284531D01*
X152699Y283913D01*
X154316D01*
X155809Y284531D01*
X156952Y285674D01*
X157571Y287168D01*
Y288785D01*
X156952Y290279D01*
X155809Y291422D01*
X154316Y292041D01*
D02*
G37*
G36*
X77154Y281539D02*
X75537D01*
X74043Y280920D01*
X72900Y279777D01*
X72281Y278283D01*
Y276666D01*
X72900Y275173D01*
X74043Y274029D01*
X75537Y273411D01*
X77154D01*
X78647Y274029D01*
X79791Y275173D01*
X80409Y276666D01*
Y278283D01*
X79791Y279777D01*
X78647Y280920D01*
X77154Y281539D01*
D02*
G37*
G36*
X48899Y274152D02*
X47282D01*
X45788Y273533D01*
X44645Y272390D01*
X44026Y270896D01*
Y270722D01*
X42756Y270196D01*
X42630Y270322D01*
X41136Y270941D01*
X39520D01*
X38026Y270322D01*
X36883Y269179D01*
X36264Y267685D01*
Y266068D01*
X36883Y264575D01*
X38026Y263431D01*
X39520Y262813D01*
X41136D01*
X42630Y263431D01*
X43773Y264575D01*
X43987Y265091D01*
X45559Y265567D01*
X45759Y265434D01*
Y258693D01*
X-22779Y190154D01*
X-23284Y189398D01*
X-23462Y188506D01*
Y155560D01*
X-26093Y152929D01*
X-27363Y153413D01*
X-27982Y154907D01*
X-29125Y156050D01*
X-30343Y156555D01*
X-29825Y157804D01*
Y159421D01*
X-30406Y160824D01*
X-30218Y160902D01*
X-29075Y162045D01*
X-28456Y163539D01*
Y165155D01*
X-29075Y166649D01*
X-30218Y167792D01*
X-31712Y168411D01*
X-33328D01*
X-34031Y168120D01*
X-35540Y168696D01*
X-35581Y168748D01*
X-35746Y169239D01*
X-35506Y169649D01*
X-35146Y169798D01*
X-34003Y170941D01*
X-33384Y172435D01*
Y174051D01*
X-34003Y175545D01*
X-35146Y176688D01*
X-36640Y177307D01*
X-38257D01*
X-39751Y176688D01*
X-40894Y175545D01*
X-41512Y174051D01*
Y172435D01*
X-42201Y171262D01*
X-43532Y170851D01*
X-43653Y170971D01*
X-45147Y171590D01*
X-46764D01*
X-48257Y170971D01*
X-49401Y169828D01*
X-50019Y168335D01*
Y166718D01*
X-49401Y165224D01*
X-48348Y164172D01*
X-49487Y163033D01*
X-50105Y161539D01*
Y159922D01*
X-49487Y158429D01*
X-48343Y157285D01*
X-46850Y156667D01*
X-45233D01*
X-43796Y157262D01*
X-43677Y156975D01*
X-42534Y155832D01*
X-41040Y155213D01*
X-39423D01*
X-38344Y155660D01*
X-37930Y155832D01*
X-36495Y155471D01*
X-36191Y155167D01*
X-34974Y154663D01*
X-35491Y153413D01*
Y151797D01*
X-34873Y150303D01*
X-33729Y149160D01*
X-33694Y149145D01*
Y147770D01*
X-33709Y147764D01*
X-34853Y146621D01*
X-35471Y145127D01*
Y143510D01*
X-34853Y142017D01*
X-33709Y140873D01*
X-32457Y140355D01*
X-32280Y139976D01*
X-32190Y139592D01*
X-32167Y138985D01*
X-33073Y138079D01*
X-33691Y136586D01*
Y134969D01*
X-33073Y133475D01*
X-31930Y132332D01*
X-30436Y131713D01*
X-28819D01*
X-27325Y132332D01*
X-26182Y133475D01*
X-25563Y134969D01*
Y135813D01*
X-15911Y145465D01*
X-15911Y145465D01*
X-15294Y146389D01*
X-15077Y147479D01*
Y150467D01*
X-1765Y163779D01*
X11230D01*
X11230Y163779D01*
X12320Y163996D01*
X13245Y164613D01*
X35915Y187284D01*
X36758D01*
X38252Y187902D01*
X39395Y189046D01*
X40014Y190539D01*
Y192156D01*
X39395Y193650D01*
X38252Y194793D01*
X36758Y195412D01*
X35142D01*
X33648Y194793D01*
X32505Y193650D01*
X31886Y192156D01*
Y191312D01*
X10050Y169476D01*
X-1867D01*
X-2120Y170746D01*
X-1392Y171048D01*
X-249Y172191D01*
X370Y173685D01*
Y175301D01*
X-249Y176795D01*
X-1392Y177938D01*
X-2886Y178557D01*
X-4502D01*
X-5996Y177938D01*
X-7139Y176795D01*
X-7758Y175301D01*
Y173685D01*
X-7139Y172191D01*
X-5996Y171048D01*
X-4502Y170429D01*
X-4184Y169247D01*
X-4185Y169159D01*
X-4959Y168642D01*
X-4959Y168642D01*
X-17627Y155974D01*
X-18800Y156460D01*
Y187541D01*
X49738Y256080D01*
X50244Y256836D01*
X50421Y257728D01*
Y266671D01*
X51535Y267785D01*
X52154Y269279D01*
Y270896D01*
X51535Y272390D01*
X50392Y273533D01*
X48899Y274152D01*
D02*
G37*
G36*
X198058Y274450D02*
X196441D01*
X194947Y273831D01*
X194025Y272908D01*
X186989D01*
X185998Y272711D01*
X185157Y272150D01*
X153243Y240235D01*
X152682Y239395D01*
X152484Y238404D01*
Y67158D01*
X152682Y66167D01*
X153243Y65326D01*
X182707Y35862D01*
X183547Y35301D01*
X184538Y35104D01*
X290762D01*
X291753Y35301D01*
X292593Y35862D01*
X297604Y40873D01*
X298814D01*
X300307Y41492D01*
X301451Y42635D01*
X302069Y44129D01*
Y45746D01*
X301451Y47239D01*
X300307Y48383D01*
X298814Y49001D01*
X297197D01*
X295703Y48383D01*
X294560Y47239D01*
X293941Y45746D01*
Y44536D01*
X289689Y40283D01*
X266058D01*
X265209Y41553D01*
X265442Y42116D01*
Y43733D01*
X264824Y45227D01*
X263680Y46370D01*
X262187Y46989D01*
X260570D01*
X259076Y46370D01*
X257933Y45227D01*
X257314Y43733D01*
Y42116D01*
X257547Y41553D01*
X256699Y40283D01*
X185611D01*
X157664Y68230D01*
Y237332D01*
X188061Y267729D01*
X194159D01*
X194947Y266940D01*
X196441Y266322D01*
X198058D01*
X199551Y266940D01*
X200695Y268084D01*
X201313Y269577D01*
Y271194D01*
X200695Y272688D01*
X199551Y273831D01*
X198058Y274450D01*
D02*
G37*
G36*
X77119Y271068D02*
X75502D01*
X74008Y270449D01*
X72865Y269306D01*
X72246Y267812D01*
Y266195D01*
X72865Y264702D01*
X74008Y263558D01*
X75502Y262940D01*
X77119D01*
X78612Y263558D01*
X79755Y264702D01*
X80374Y266195D01*
Y267812D01*
X79755Y269306D01*
X78612Y270449D01*
X77119Y271068D01*
D02*
G37*
G36*
X459388Y279936D02*
X457012D01*
X454717Y279321D01*
X452659Y278133D01*
X450979Y276453D01*
X449790Y274395D01*
X449175Y272100D01*
Y269724D01*
X449790Y267428D01*
X450979Y265371D01*
X452659Y263690D01*
X454717Y262502D01*
X457012Y261887D01*
X459388D01*
X461684Y262502D01*
X463741Y263690D01*
X465422Y265371D01*
X466610Y267428D01*
X467225Y269724D01*
Y272100D01*
X466610Y274395D01*
X465422Y276453D01*
X463741Y278133D01*
X461684Y279321D01*
X459388Y279936D01*
D02*
G37*
G36*
X239871Y302922D02*
X179722D01*
X178830Y302745D01*
X178074Y302240D01*
X119112Y243278D01*
X118607Y242522D01*
X118429Y241630D01*
Y111613D01*
X118607Y110721D01*
X119112Y109965D01*
X121382Y107695D01*
Y106119D01*
X122000Y104625D01*
X123144Y103482D01*
X124637Y102863D01*
X126254D01*
X127748Y103482D01*
X128891Y104625D01*
X129510Y106119D01*
X130767Y106088D01*
Y96620D01*
X126214Y92067D01*
X124637D01*
X123144Y91448D01*
X122000Y90305D01*
X121382Y88811D01*
Y87194D01*
X122000Y85701D01*
X123144Y84558D01*
X124637Y83939D01*
X126254D01*
X127748Y84558D01*
X128891Y85701D01*
X129510Y87194D01*
Y88771D01*
X134746Y94007D01*
X135251Y94763D01*
X135428Y95655D01*
Y226265D01*
X191810Y282647D01*
X200805D01*
X221887Y261565D01*
X222643Y261059D01*
X223535Y260882D01*
X226853D01*
X227967Y259767D01*
X229461Y259149D01*
X231078D01*
X232571Y259767D01*
X233715Y260911D01*
X234333Y262404D01*
Y264021D01*
X233715Y265515D01*
X232571Y266658D01*
X231078Y267277D01*
X229461D01*
X227967Y266658D01*
X226853Y265543D01*
X224501D01*
X203418Y286626D01*
X202662Y287131D01*
X201770Y287308D01*
X190845D01*
X189953Y287131D01*
X189197Y286626D01*
X131450Y228879D01*
X130944Y228123D01*
X130767Y227231D01*
Y107766D01*
X129510Y107736D01*
X128891Y109229D01*
X127748Y110372D01*
X126254Y110991D01*
X124678D01*
X123091Y112578D01*
Y240664D01*
X165150Y282723D01*
X166648Y282425D01*
X166910Y281794D01*
X168053Y280650D01*
X169547Y280032D01*
X171163D01*
X172657Y280650D01*
X173800Y281794D01*
X174419Y283287D01*
Y284904D01*
X174327Y285126D01*
X174889Y285707D01*
X175352Y285971D01*
X176697Y285414D01*
X178314D01*
X179807Y286033D01*
X180951Y287176D01*
X181569Y288670D01*
Y290286D01*
X180951Y291780D01*
X179807Y292923D01*
X178314Y293542D01*
X177764D01*
X177239Y294812D01*
X180687Y298261D01*
X238906D01*
X250490Y286676D01*
Y264809D01*
X250668Y263917D01*
X251173Y263161D01*
X253531Y260803D01*
X254287Y260297D01*
X255179Y260120D01*
X260635D01*
X261749Y259005D01*
X263243Y258387D01*
X264860D01*
X266353Y259005D01*
X267497Y260149D01*
X268115Y261642D01*
Y263259D01*
X267497Y264753D01*
X266353Y265896D01*
X264860Y266515D01*
X263243D01*
X261749Y265896D01*
X260635Y264781D01*
X256145D01*
X255152Y265774D01*
Y287641D01*
X254975Y288533D01*
X254469Y289289D01*
X241519Y302240D01*
X240763Y302745D01*
X239871Y302922D01*
D02*
G37*
G36*
X74758Y255188D02*
X73141D01*
X71647Y254569D01*
X70504Y253426D01*
X69885Y251932D01*
Y250315D01*
X70504Y248822D01*
X71647Y247678D01*
X73141Y247060D01*
X74758D01*
X76251Y247678D01*
X77395Y248822D01*
X78013Y250315D01*
Y251932D01*
X77395Y253426D01*
X76251Y254569D01*
X74758Y255188D01*
D02*
G37*
G36*
X77154Y243636D02*
X75537D01*
X74043Y243017D01*
X72900Y241874D01*
X72281Y240380D01*
Y238763D01*
X72900Y237270D01*
X74043Y236126D01*
X75537Y235508D01*
X77154D01*
X78647Y236126D01*
X79791Y237270D01*
X80409Y238763D01*
Y240380D01*
X79791Y241874D01*
X78647Y243017D01*
X77154Y243636D01*
D02*
G37*
G36*
Y233984D02*
X75537D01*
X74043Y233365D01*
X72900Y232222D01*
X72281Y230728D01*
Y229111D01*
X72900Y227618D01*
X74043Y226474D01*
X75537Y225856D01*
X77154D01*
X78647Y226474D01*
X79791Y227618D01*
X80409Y229111D01*
Y230728D01*
X79791Y232222D01*
X78647Y233365D01*
X77154Y233984D01*
D02*
G37*
G36*
X-30684Y215863D02*
X-32301D01*
X-33795Y215244D01*
X-34938Y214101D01*
X-35556Y212607D01*
Y210990D01*
X-35412Y210640D01*
X-36311Y209492D01*
X-37007Y209597D01*
X-37601Y210442D01*
Y212059D01*
X-38220Y213553D01*
X-39363Y214696D01*
X-40857Y215315D01*
X-42474D01*
X-43967Y214696D01*
X-45110Y213553D01*
X-45227Y213271D01*
X-45300Y213228D01*
X-46685Y213070D01*
X-47644Y214029D01*
X-49435Y214771D01*
X-51374D01*
X-53166Y214029D01*
X-54537Y212658D01*
X-55279Y210866D01*
Y208927D01*
X-54537Y207136D01*
X-53166Y205765D01*
X-51374Y205023D01*
X-49435D01*
X-47644Y205765D01*
X-46273Y207136D01*
X-45928Y207970D01*
X-44429Y208268D01*
X-43967Y207805D01*
X-42856Y207345D01*
X-41991Y206114D01*
Y204497D01*
X-41372Y203004D01*
X-40631Y202262D01*
X-40542Y201160D01*
X-40742Y200714D01*
X-41061Y200395D01*
X-41946Y199949D01*
X-42720Y200395D01*
X-43308Y200982D01*
X-44802Y201601D01*
X-46418D01*
X-47912Y200982D01*
X-49055Y199839D01*
X-49674Y198345D01*
Y196729D01*
X-49055Y195235D01*
X-47912Y194092D01*
X-46418Y193473D01*
X-44802D01*
X-43308Y194092D01*
X-42771Y194629D01*
X-41886Y195075D01*
X-41111Y194629D01*
X-40524Y194042D01*
X-39030Y193423D01*
X-37413D01*
X-35920Y194042D01*
X-34857Y195104D01*
X-33795Y194042D01*
X-32301Y193423D01*
X-30684D01*
X-29190Y194042D01*
X-28047Y195185D01*
X-27429Y196679D01*
Y198295D01*
X-28047Y199789D01*
X-28528Y200270D01*
X-28729Y201501D01*
X-28447Y201848D01*
X-27595Y202701D01*
X-26976Y204194D01*
Y205811D01*
X-27595Y207305D01*
X-28738Y208448D01*
X-28797Y208746D01*
X-28047Y209496D01*
X-27429Y210990D01*
Y212607D01*
X-28047Y214101D01*
X-29190Y215244D01*
X-30684Y215863D01*
D02*
G37*
G36*
X34258Y214592D02*
X32642D01*
X31148Y213973D01*
X30005Y212830D01*
X29386Y211336D01*
Y209719D01*
X30005Y208225D01*
X31148Y207082D01*
X32642Y206464D01*
X34258D01*
X35752Y207082D01*
X36895Y208225D01*
X37514Y209719D01*
Y211336D01*
X36895Y212830D01*
X35752Y213973D01*
X34258Y214592D01*
D02*
G37*
G36*
X380999Y205385D02*
X379383D01*
X377889Y204766D01*
X376746Y203623D01*
X376127Y202129D01*
Y200512D01*
X376746Y199018D01*
X377388Y198377D01*
X377747Y197547D01*
X377388Y196717D01*
X376746Y196075D01*
X376127Y194582D01*
Y192965D01*
X376746Y191471D01*
X377889Y190328D01*
X379383Y189709D01*
X380999D01*
X382493Y190328D01*
X383636Y191471D01*
X384255Y192965D01*
Y194582D01*
X383636Y196075D01*
X382995Y196717D01*
X382635Y197547D01*
X382995Y198377D01*
X383636Y199018D01*
X384255Y200512D01*
Y202129D01*
X383636Y203623D01*
X382493Y204766D01*
X380999Y205385D01*
D02*
G37*
G36*
X86063Y197970D02*
X84446D01*
X82952Y197351D01*
X81809Y196208D01*
X81191Y194715D01*
Y193098D01*
X81809Y191604D01*
X82500Y190913D01*
X81740Y190153D01*
X81121Y188659D01*
Y187042D01*
X81740Y185549D01*
X82883Y184405D01*
X84376Y183787D01*
X85993D01*
X87487Y184405D01*
X88630Y185549D01*
X89249Y187042D01*
Y188659D01*
X88630Y190153D01*
X87939Y190844D01*
X88700Y191604D01*
X89319Y193098D01*
Y194715D01*
X88700Y196208D01*
X87557Y197351D01*
X86063Y197970D01*
D02*
G37*
G36*
X-45005Y189795D02*
X-46622D01*
X-48116Y189176D01*
X-49259Y188033D01*
X-49878Y186539D01*
Y184922D01*
X-49259Y183429D01*
X-48116Y182285D01*
X-46622Y181667D01*
X-45005D01*
X-43512Y182285D01*
X-42368Y183429D01*
X-41750Y184922D01*
Y186539D01*
X-42368Y188033D01*
X-43512Y189176D01*
X-45005Y189795D01*
D02*
G37*
G36*
X9258Y189092D02*
X7642D01*
X6148Y188473D01*
X5005Y187330D01*
X4386Y185836D01*
Y184219D01*
X5005Y182726D01*
X6148Y181582D01*
X7642Y180964D01*
X9258D01*
X10752Y181582D01*
X11895Y182726D01*
X12514Y184219D01*
Y185836D01*
X11895Y187330D01*
X10752Y188473D01*
X9258Y189092D01*
D02*
G37*
G36*
X36758Y180454D02*
X35142D01*
X33648Y179835D01*
X32505Y178692D01*
X31886Y177199D01*
Y175582D01*
X32505Y174088D01*
X33648Y172945D01*
X35142Y172326D01*
X36758D01*
X38252Y172945D01*
X39395Y174088D01*
X40014Y175582D01*
Y177199D01*
X39395Y178692D01*
X38252Y179835D01*
X36758Y180454D01*
D02*
G37*
G36*
X-45498Y154127D02*
X-47115D01*
X-48608Y153508D01*
X-49752Y152365D01*
X-50370Y150871D01*
Y149629D01*
X-62469Y137531D01*
X-62974Y136775D01*
X-63151Y135883D01*
Y65955D01*
X-62974Y65063D01*
X-62469Y64307D01*
X-53693Y55532D01*
X-52937Y55027D01*
X-52045Y54849D01*
X22055D01*
X70239Y6666D01*
X70995Y6160D01*
X71887Y5983D01*
X99484D01*
X99785Y4802D01*
X98198Y4144D01*
X96835Y3099D01*
X95789Y1736D01*
X95132Y149D01*
X94908Y-1554D01*
Y-12555D01*
X95132Y-14258D01*
X95789Y-15845D01*
X96835Y-17208D01*
X98198Y-18254D01*
X99785Y-18911D01*
X101488Y-19135D01*
X103191Y-18911D01*
X104778Y-18254D01*
X106141Y-17208D01*
X107187Y-15845D01*
X107844Y-14258D01*
X108068Y-12555D01*
Y-1554D01*
X107844Y149D01*
X107187Y1736D01*
X106141Y3099D01*
X104778Y4144D01*
X103191Y4802D01*
X103492Y5983D01*
X163032D01*
X163924Y6160D01*
X164680Y6666D01*
X169755Y11741D01*
X193207D01*
X193460Y10471D01*
X192455Y10055D01*
X191312Y8911D01*
X190693Y7418D01*
Y5801D01*
X190712Y5754D01*
X189740Y4782D01*
X189693Y4802D01*
X187990Y5026D01*
X186287Y4802D01*
X184700Y4144D01*
X183337Y3099D01*
X182292Y1736D01*
X181634Y149D01*
X181410Y-1554D01*
Y-12555D01*
X181634Y-14258D01*
X182292Y-15845D01*
X183337Y-17208D01*
X184700Y-18254D01*
X186287Y-18911D01*
X187990Y-19135D01*
X189693Y-18911D01*
X191280Y-18254D01*
X192643Y-17208D01*
X193689Y-15845D01*
X194346Y-14258D01*
X194571Y-12555D01*
Y-1554D01*
X194346Y149D01*
X193866Y1310D01*
X194433Y2350D01*
X194669Y2545D01*
X195565D01*
X197059Y3164D01*
X198202Y4307D01*
X198305Y4554D01*
X199679D01*
X199781Y4307D01*
X200925Y3164D01*
X202418Y2545D01*
X204035D01*
X205529Y3164D01*
X206672Y4307D01*
X207291Y5801D01*
Y7418D01*
X206672Y8911D01*
X205529Y10055D01*
X204035Y10673D01*
X202459D01*
X197412Y15720D01*
X196656Y16225D01*
X195764Y16402D01*
X168790D01*
X167898Y16225D01*
X167142Y15720D01*
X162067Y10645D01*
X72852D01*
X24669Y58828D01*
X23913Y59333D01*
X23021Y59511D01*
X-51080D01*
X-58490Y66921D01*
Y134917D01*
X-47322Y146085D01*
X-47115Y145999D01*
X-45498D01*
X-44004Y146617D01*
X-42861Y147761D01*
X-42242Y149254D01*
Y150871D01*
X-42861Y152365D01*
X-44004Y153508D01*
X-45498Y154127D01*
D02*
G37*
G36*
X29922Y154079D02*
X26936D01*
X26044Y153902D01*
X25288Y153396D01*
X19702Y147811D01*
X19197Y147055D01*
X19019Y146163D01*
Y142943D01*
X17749Y142417D01*
X17268Y142898D01*
X15775Y143517D01*
X14158D01*
X12664Y142898D01*
X11521Y141755D01*
X10902Y140261D01*
Y138645D01*
X10924Y138593D01*
X-22319Y105350D01*
X-22824Y104594D01*
X-23002Y103702D01*
Y100724D01*
X-28311Y95415D01*
X-29887D01*
X-31381Y94796D01*
X-32524Y93653D01*
X-33142Y92159D01*
Y90542D01*
X-32524Y89049D01*
X-31381Y87906D01*
X-29887Y87287D01*
X-28270D01*
X-26776Y87906D01*
X-25633Y89049D01*
X-25015Y90542D01*
Y92119D01*
X-19023Y98110D01*
X-18518Y98867D01*
X-18340Y99758D01*
Y102737D01*
X14312Y135389D01*
X15775D01*
X17268Y136008D01*
X17749Y136489D01*
X19019Y135963D01*
Y130373D01*
X1192Y112546D01*
X-384D01*
X-1877Y111927D01*
X-3021Y110784D01*
X-3639Y109290D01*
Y107674D01*
X-3021Y106180D01*
X-1877Y105037D01*
X-384Y104418D01*
X1233D01*
X2727Y105037D01*
X3870Y106180D01*
X4489Y107674D01*
Y109250D01*
X22998Y127759D01*
X23503Y128516D01*
X23681Y129408D01*
Y136033D01*
X24951Y136559D01*
X25037Y136472D01*
X26531Y135854D01*
X28148D01*
X29642Y136472D01*
X30051Y136882D01*
X31074Y136249D01*
X31145Y136180D01*
Y134588D01*
X31764Y133094D01*
X32878Y131980D01*
Y122216D01*
X-1943Y87394D01*
X-3441Y87692D01*
X-3614Y88109D01*
X-4757Y89252D01*
X-6251Y89871D01*
X-7868D01*
X-9361Y89252D01*
X-10504Y88109D01*
X-11123Y86615D01*
Y84999D01*
X-10504Y83505D01*
X-9361Y82362D01*
X-8945Y82189D01*
X-8647Y80691D01*
X-15319Y74018D01*
X-28427D01*
X-28593Y74268D01*
X-28162Y75357D01*
X-27953Y75595D01*
X-26597Y76156D01*
X-25454Y77300D01*
X-24835Y78793D01*
Y80410D01*
X-25454Y81904D01*
X-26597Y83047D01*
X-28091Y83666D01*
X-29707D01*
X-31201Y83047D01*
X-32344Y81904D01*
X-32963Y80410D01*
Y78793D01*
X-32533Y77755D01*
X-32666Y77354D01*
X-33171Y76642D01*
X-33300Y76540D01*
X-36992D01*
X-37266Y77109D01*
X-37382Y77810D01*
X-36388Y78804D01*
X-35769Y80298D01*
Y81915D01*
X-36388Y83408D01*
X-37531Y84551D01*
X-39024Y85170D01*
X-40641D01*
X-42135Y84551D01*
X-43278Y83408D01*
X-43897Y81915D01*
Y80298D01*
X-43278Y78804D01*
X-44107Y77836D01*
X-44546Y77654D01*
X-45690Y76511D01*
X-46308Y75017D01*
Y73401D01*
X-45690Y71907D01*
X-44546Y70764D01*
X-43053Y70145D01*
X-41436D01*
X-39942Y70764D01*
X-38828Y71878D01*
X-33901D01*
X-32062Y70040D01*
X-31306Y69534D01*
X-30414Y69357D01*
X-14354D01*
X-13462Y69534D01*
X-12706Y70040D01*
X36857Y119602D01*
X37363Y120358D01*
X37540Y121250D01*
Y122698D01*
X38810Y123546D01*
X39227Y123374D01*
X40844D01*
X42337Y123992D01*
X43481Y125135D01*
X44099Y126629D01*
Y128246D01*
X43481Y129740D01*
X42337Y130883D01*
X40844Y131502D01*
X39227D01*
X38352Y132514D01*
X38287Y132726D01*
X38654Y133094D01*
X39273Y134588D01*
Y136205D01*
X38654Y137698D01*
X37511Y138841D01*
X36018Y139460D01*
X34401D01*
X32907Y138841D01*
X32497Y138432D01*
X31475Y139065D01*
X31404Y139134D01*
Y140726D01*
X31310Y140951D01*
X34578Y144219D01*
X35083Y144975D01*
X35261Y145867D01*
Y148741D01*
X35083Y149633D01*
X34578Y150389D01*
X31570Y153396D01*
X30814Y153902D01*
X29922Y154079D01*
D02*
G37*
G36*
X-44605Y143291D02*
X-46221D01*
X-47715Y142672D01*
X-48858Y141529D01*
X-49477Y140035D01*
Y138418D01*
X-48858Y136925D01*
X-47715Y135781D01*
X-46221Y135163D01*
X-44605D01*
X-43111Y135781D01*
X-41968Y136925D01*
X-41349Y138418D01*
Y140035D01*
X-41968Y141529D01*
X-43111Y142672D01*
X-44605Y143291D01*
D02*
G37*
G36*
X-43935Y133603D02*
X-45552D01*
X-47046Y132984D01*
X-48189Y131841D01*
X-48808Y130347D01*
Y128731D01*
X-48189Y127237D01*
X-47046Y126094D01*
X-45552Y125475D01*
X-43935D01*
X-42442Y126094D01*
X-41298Y127237D01*
X-40680Y128731D01*
Y130347D01*
X-41298Y131841D01*
X-42442Y132984D01*
X-43935Y133603D01*
D02*
G37*
G36*
X-39642Y122018D02*
X-41259D01*
X-42753Y121399D01*
X-43896Y120256D01*
X-44515Y118762D01*
Y117145D01*
X-43896Y115652D01*
X-43709Y115464D01*
X-44428Y114388D01*
X-44605Y114461D01*
X-46221D01*
X-47715Y113842D01*
X-48858Y112699D01*
X-49477Y111205D01*
Y109588D01*
X-48858Y108095D01*
X-47715Y106952D01*
X-46221Y106333D01*
X-44605D01*
X-43111Y106952D01*
X-41968Y108095D01*
X-41349Y109588D01*
Y111205D01*
X-41968Y112699D01*
X-42155Y112886D01*
X-41435Y113963D01*
X-41259Y113890D01*
X-39642D01*
X-38149Y114508D01*
X-37005Y115652D01*
X-36387Y117145D01*
Y118762D01*
X-37005Y120256D01*
X-38149Y121399D01*
X-39642Y122018D01*
D02*
G37*
G36*
X70955Y154093D02*
X69231Y153866D01*
X67625Y153201D01*
X66245Y152142D01*
X65990Y151887D01*
X64931Y150507D01*
X64266Y148901D01*
X64039Y147177D01*
X64039Y147177D01*
Y140534D01*
X63988Y140146D01*
Y63829D01*
X63988Y63829D01*
X64215Y62105D01*
X64880Y60498D01*
X65939Y59119D01*
X102824Y22233D01*
X102824Y22233D01*
X104204Y21175D01*
X105810Y20509D01*
X107534Y20282D01*
X107535Y20282D01*
X122168D01*
X122838Y19012D01*
X122417Y17997D01*
Y16381D01*
X123036Y14887D01*
X124179Y13744D01*
X125673Y13125D01*
X127290D01*
X128783Y13744D01*
X129927Y14887D01*
X130545Y16381D01*
Y17997D01*
X130125Y19012D01*
X130795Y20282D01*
X380005D01*
X380005Y20282D01*
X381729Y20509D01*
X383336Y21175D01*
X384715Y22233D01*
X403191Y40709D01*
X448730D01*
X450454Y40936D01*
X452061Y41601D01*
X453440Y42660D01*
X454499Y44039D01*
X455164Y45646D01*
X455391Y47370D01*
X455164Y49094D01*
X454499Y50700D01*
X453440Y52080D01*
X452061Y53138D01*
X450454Y53804D01*
X448730Y54031D01*
X400432D01*
X400432Y54031D01*
X398708Y53804D01*
X397101Y53138D01*
X395722Y52080D01*
X377246Y33604D01*
X110294D01*
X77310Y66588D01*
Y96410D01*
X78580Y96913D01*
X79879Y96375D01*
X81496D01*
X82990Y96994D01*
X84133Y98137D01*
X84752Y99630D01*
Y101247D01*
X84133Y102741D01*
X82990Y103884D01*
X81496Y104503D01*
X79879D01*
X78580Y103965D01*
X77310Y104468D01*
Y139809D01*
X77361Y140197D01*
Y145639D01*
X77389Y145708D01*
X77616Y147432D01*
X77389Y149156D01*
X76724Y150763D01*
X75665Y152142D01*
X74286Y153201D01*
X72679Y153866D01*
X70955Y154093D01*
D02*
G37*
G36*
X540660Y88864D02*
X539043D01*
X537549Y88245D01*
X536406Y87102D01*
X535787Y85608D01*
X535428Y85368D01*
X534608Y85707D01*
X532992D01*
X531498Y85089D01*
X530355Y83945D01*
X529736Y82452D01*
Y80835D01*
X530355Y79341D01*
X531498Y78198D01*
X532992Y77579D01*
X534608D01*
X536102Y78198D01*
X537245Y79341D01*
X537864Y80835D01*
X538224Y81075D01*
X539043Y80736D01*
X540660D01*
X542153Y81355D01*
X543297Y82498D01*
X543915Y83992D01*
Y85608D01*
X543297Y87102D01*
X542153Y88245D01*
X540660Y88864D01*
D02*
G37*
G36*
X-44012Y95415D02*
X-45628D01*
X-47122Y94796D01*
X-48265Y93653D01*
X-48884Y92159D01*
Y90583D01*
X-56287Y83180D01*
X-56792Y82424D01*
X-56969Y81532D01*
Y72842D01*
X-56792Y71950D01*
X-56287Y71194D01*
X-47506Y62414D01*
X-46750Y61909D01*
X-45858Y61731D01*
X28199D01*
X29091Y61909D01*
X29847Y62414D01*
X39108Y71674D01*
X40684D01*
X42178Y72293D01*
X43321Y73436D01*
X43939Y74930D01*
Y76547D01*
X43321Y78040D01*
X42178Y79183D01*
X40684Y79802D01*
X39067D01*
X37573Y79183D01*
X36430Y78040D01*
X35812Y76547D01*
Y74970D01*
X27234Y66393D01*
X-44893D01*
X-52308Y73808D01*
Y80567D01*
X-45588Y87287D01*
X-44012D01*
X-42518Y87906D01*
X-41375Y89049D01*
X-40756Y90542D01*
Y92159D01*
X-41375Y93653D01*
X-42518Y94796D01*
X-44012Y95415D01*
D02*
G37*
G36*
X-49435Y50771D02*
X-51374D01*
X-53166Y50029D01*
X-54537Y48658D01*
X-55279Y46866D01*
Y44927D01*
X-54537Y43136D01*
X-53166Y41765D01*
X-51374Y41023D01*
X-49435D01*
X-47644Y41765D01*
X-46273Y43136D01*
X-45531Y44927D01*
Y46866D01*
X-46273Y48658D01*
X-47644Y50029D01*
X-49435Y50771D01*
D02*
G37*
G36*
X296864Y266261D02*
X295247D01*
X293753Y265642D01*
X292610Y264499D01*
X291991Y263005D01*
Y261388D01*
X292610Y259895D01*
X293753Y258751D01*
X295247Y258133D01*
X296864D01*
X298357Y258751D01*
X299213Y259607D01*
X300362D01*
X302623Y257347D01*
Y227917D01*
X302820Y226926D01*
X303381Y226086D01*
X310146Y219321D01*
Y135922D01*
X310343Y134931D01*
X310904Y134091D01*
X317085Y127910D01*
Y77844D01*
X308448Y69207D01*
X307887Y68366D01*
X307689Y67375D01*
Y45244D01*
X306834Y44389D01*
X306215Y42895D01*
Y41278D01*
X306834Y39785D01*
X307977Y38641D01*
X309471Y38023D01*
X311088D01*
X312581Y38641D01*
X313725Y39785D01*
X314343Y41278D01*
Y42895D01*
X313725Y44389D01*
X312869Y45244D01*
Y66303D01*
X321506Y74940D01*
X322068Y75780D01*
X322265Y76771D01*
Y128983D01*
X322068Y129974D01*
X321506Y130814D01*
X315325Y136995D01*
Y220394D01*
X315128Y221385D01*
X314567Y222225D01*
X307802Y228990D01*
Y258419D01*
X307605Y259410D01*
X307043Y260251D01*
X303266Y264028D01*
X302426Y264589D01*
X301435Y264786D01*
X299213D01*
X298357Y265642D01*
X296864Y266261D01*
D02*
G37*
G36*
X-5631Y43722D02*
X-7248D01*
X-8742Y43103D01*
X-9885Y41960D01*
X-10504Y40466D01*
Y38849D01*
X-9885Y37356D01*
X-8742Y36213D01*
X-7248Y35594D01*
X-5631D01*
X-4138Y36213D01*
X-2995Y37356D01*
X-2376Y38849D01*
Y40466D01*
X-2995Y41960D01*
X-4138Y43103D01*
X-5631Y43722D01*
D02*
G37*
G36*
X-28611Y49209D02*
X-30228D01*
X-31721Y48591D01*
X-32865Y47448D01*
X-33483Y45954D01*
Y44337D01*
X-32865Y42843D01*
X-31721Y41700D01*
X-30228Y41081D01*
X-28611D01*
X-27738Y40068D01*
X-27755Y40028D01*
Y38411D01*
X-27136Y36917D01*
X-25993Y35774D01*
X-24499Y35155D01*
X-22882D01*
X-21389Y35774D01*
X-20245Y36917D01*
X-19627Y38411D01*
Y40028D01*
X-20245Y41522D01*
X-21389Y42665D01*
X-22882Y43283D01*
X-24499D01*
X-25372Y44296D01*
X-25355Y44337D01*
Y45954D01*
X-25974Y47448D01*
X-27117Y48591D01*
X-28611Y49209D01*
D02*
G37*
G36*
X-51580Y31594D02*
X-53197D01*
X-54691Y30975D01*
X-55834Y29832D01*
X-56453Y28338D01*
Y26721D01*
X-55834Y25228D01*
X-54691Y24084D01*
X-53197Y23466D01*
X-51580D01*
X-50087Y24084D01*
X-48943Y25228D01*
X-48325Y26721D01*
Y28338D01*
X-48943Y29832D01*
X-50087Y30975D01*
X-51580Y31594D01*
D02*
G37*
G36*
X-19580Y24711D02*
X-21197D01*
X-22691Y24093D01*
X-23834Y22949D01*
X-24453Y21456D01*
Y19839D01*
X-23834Y18345D01*
X-22691Y17202D01*
X-21197Y16583D01*
X-19580D01*
X-18087Y17202D01*
X-16943Y18345D01*
X-16325Y19839D01*
Y21456D01*
X-16943Y22949D01*
X-18087Y24093D01*
X-19580Y24711D01*
D02*
G37*
G36*
X29910Y17884D02*
X28293D01*
X26800Y17265D01*
X25656Y16122D01*
X25038Y14628D01*
Y13012D01*
X25656Y11518D01*
X26800Y10375D01*
X28293Y9756D01*
X29910D01*
X31404Y10375D01*
X32547Y11518D01*
X33166Y13012D01*
Y14628D01*
X32547Y16122D01*
X31404Y17265D01*
X29910Y17884D01*
D02*
G37*
G36*
X174589Y-7282D02*
X172690D01*
X170935Y-8009D01*
X169592Y-9352D01*
X168865Y-11106D01*
Y-13005D01*
X169592Y-14760D01*
X170935Y-16103D01*
X172690Y-16830D01*
X174589D01*
X176343Y-16103D01*
X177686Y-14760D01*
X178413Y-13005D01*
Y-11106D01*
X177686Y-9352D01*
X176343Y-8009D01*
X174589Y-7282D01*
D02*
G37*
G36*
X116789D02*
X114889D01*
X113135Y-8009D01*
X111792Y-9352D01*
X111065Y-11106D01*
Y-13005D01*
X111792Y-14760D01*
X113135Y-16103D01*
X114889Y-16830D01*
X116789D01*
X118543Y-16103D01*
X119886Y-14760D01*
X120613Y-13005D01*
Y-11106D01*
X119886Y-9352D01*
X118543Y-8009D01*
X116789Y-7282D01*
D02*
G37*
G36*
X129378Y-8450D02*
X127761D01*
X126267Y-9069D01*
X125124Y-10212D01*
X124505Y-11706D01*
Y-13323D01*
X125124Y-14816D01*
X126267Y-15960D01*
X127761Y-16578D01*
X129378D01*
X130871Y-15960D01*
X131026Y-15805D01*
X131715Y-15232D01*
X132858Y-16376D01*
X134352Y-16994D01*
X135969D01*
X137462Y-16376D01*
X138606Y-15232D01*
X138684Y-15217D01*
X139659Y-16192D01*
X141153Y-16811D01*
X142769D01*
X144263Y-16192D01*
X144513Y-15942D01*
X145744Y-15597D01*
X146131Y-15984D01*
X146887Y-16740D01*
X148381Y-17358D01*
X149998D01*
X151491Y-16740D01*
X152635Y-15597D01*
X153324Y-16135D01*
X153476Y-16286D01*
X154969Y-16905D01*
X156586D01*
X158080Y-16286D01*
X159223Y-15143D01*
X159842Y-13649D01*
Y-12033D01*
X159223Y-10539D01*
X158080Y-9396D01*
X156586Y-8777D01*
X154969D01*
X153476Y-9396D01*
X152332Y-10539D01*
X151643Y-10001D01*
X151491Y-9849D01*
X149998Y-9230D01*
X148381D01*
X146887Y-9849D01*
X146638Y-10099D01*
X145406Y-10445D01*
X145019Y-10058D01*
X144263Y-9301D01*
X142769Y-8683D01*
X141153D01*
X139659Y-9301D01*
X138516Y-10445D01*
X138437Y-10460D01*
X137462Y-9485D01*
X135969Y-8866D01*
X134352D01*
X132858Y-9485D01*
X132704Y-9640D01*
X132015Y-10212D01*
X130871Y-9069D01*
X129378Y-8450D01*
D02*
G37*
G36*
X459388Y-7224D02*
X457012D01*
X454717Y-7839D01*
X452659Y-9028D01*
X450979Y-10708D01*
X449790Y-12766D01*
X449175Y-15061D01*
Y-17437D01*
X449790Y-19732D01*
X450979Y-21790D01*
X452659Y-23470D01*
X454717Y-24659D01*
X457012Y-25274D01*
X459388D01*
X461684Y-24659D01*
X463741Y-23470D01*
X465422Y-21790D01*
X466610Y-19732D01*
X467225Y-17437D01*
Y-15061D01*
X466610Y-12766D01*
X465422Y-10708D01*
X463741Y-9028D01*
X461684Y-7839D01*
X459388Y-7224D01*
D02*
G37*
G36*
X162446Y-17272D02*
X160829D01*
X159335Y-17891D01*
X158192Y-19034D01*
X157573Y-20528D01*
Y-22144D01*
X158192Y-23638D01*
X159335Y-24781D01*
X160829Y-25400D01*
X162446D01*
X163939Y-24781D01*
X165083Y-23638D01*
X165701Y-22144D01*
Y-20528D01*
X165083Y-19034D01*
X163939Y-17891D01*
X162446Y-17272D01*
D02*
G37*
G36*
X140293Y-19494D02*
X138676D01*
X137182Y-20113D01*
X136039Y-21256D01*
X135420Y-22750D01*
Y-24366D01*
X136039Y-25860D01*
X137182Y-27003D01*
X138676Y-27622D01*
X140293D01*
X141786Y-27003D01*
X142929Y-25860D01*
X143548Y-24366D01*
Y-22750D01*
X142929Y-21256D01*
X141786Y-20113D01*
X140293Y-19494D01*
D02*
G37*
G36*
X225498Y-21003D02*
X223881D01*
X222388Y-21622D01*
X221244Y-22765D01*
X220626Y-24259D01*
Y-25875D01*
X221244Y-27369D01*
X222388Y-28512D01*
X223881Y-29131D01*
X225498D01*
X226992Y-28512D01*
X228135Y-27369D01*
X228754Y-25875D01*
Y-24259D01*
X228135Y-22765D01*
X226992Y-21622D01*
X225498Y-21003D01*
D02*
G37*
G36*
X16933Y-25953D02*
X15316D01*
X13823Y-26572D01*
X12680Y-27715D01*
X12061Y-29209D01*
Y-30825D01*
X12680Y-32319D01*
X13821Y-33460D01*
X12844Y-34437D01*
X11865Y-33458D01*
X10371Y-32840D01*
X8755D01*
X7261Y-33458D01*
X6118Y-34602D01*
X5499Y-36095D01*
Y-37712D01*
X6118Y-39206D01*
X7202Y-40290D01*
X6118Y-41375D01*
X5499Y-42868D01*
Y-44485D01*
X6118Y-45979D01*
X7261Y-47122D01*
X8755Y-47741D01*
X10371D01*
X11865Y-47122D01*
X12844Y-46143D01*
X13823Y-47122D01*
X15316Y-47741D01*
X16933D01*
X18427Y-47122D01*
X19406Y-46143D01*
X20385Y-47122D01*
X21878Y-47741D01*
X23495D01*
X24989Y-47122D01*
X26132Y-45979D01*
X26751Y-44485D01*
Y-42868D01*
X26132Y-41375D01*
X24989Y-40231D01*
X25341Y-39590D01*
X25440Y-39491D01*
X26059Y-37997D01*
Y-36380D01*
X25440Y-34887D01*
X24297Y-33744D01*
X22803Y-33125D01*
X21186D01*
X20118Y-33567D01*
X19399Y-32491D01*
X19570Y-32319D01*
X20189Y-30825D01*
Y-29209D01*
X19570Y-27715D01*
X18427Y-26572D01*
X16933Y-25953D01*
D02*
G37*
G36*
X310959Y-37052D02*
X309342D01*
X307849Y-37671D01*
X307196Y-38323D01*
X306544Y-37671D01*
X305050Y-37052D01*
X303433D01*
X301940Y-37671D01*
X300796Y-38814D01*
X300178Y-40307D01*
Y-41924D01*
X300796Y-43418D01*
X301653Y-44275D01*
X300796Y-45131D01*
X300178Y-46625D01*
Y-48242D01*
X300796Y-49735D01*
X301653Y-50592D01*
X300796Y-51449D01*
X300178Y-52942D01*
Y-54559D01*
X300796Y-56053D01*
X301940Y-57196D01*
X303433Y-57815D01*
X305050D01*
X306544Y-57196D01*
X307687Y-56053D01*
X308306Y-54559D01*
Y-52942D01*
X308070Y-52373D01*
X309042Y-51401D01*
X309342Y-51525D01*
X310959D01*
X311187Y-51431D01*
X311906Y-52508D01*
X311136Y-53278D01*
X310518Y-54771D01*
Y-56388D01*
X311136Y-57882D01*
X312048Y-58794D01*
X312159Y-59625D01*
X312025Y-60294D01*
X311078Y-61240D01*
X310460Y-62734D01*
Y-64351D01*
X311078Y-65844D01*
X312222Y-66988D01*
X313715Y-67606D01*
X315332D01*
X316826Y-66988D01*
X317382Y-66431D01*
X318212Y-65977D01*
X319042Y-66431D01*
X319598Y-66988D01*
X321092Y-67606D01*
X322709D01*
X324202Y-66988D01*
X325346Y-65844D01*
X325964Y-64351D01*
Y-62734D01*
X325346Y-61240D01*
X324202Y-60097D01*
Y-58793D01*
X325346Y-57649D01*
X325964Y-56156D01*
Y-54539D01*
X325346Y-53045D01*
X324202Y-51902D01*
X322709Y-51283D01*
X321092D01*
X319598Y-51902D01*
X318954Y-52546D01*
X318369Y-53008D01*
X317295Y-52546D01*
X316884Y-52134D01*
X315390Y-51516D01*
X313773D01*
X313546Y-51610D01*
X312826Y-50533D01*
X313596Y-49763D01*
X314215Y-48270D01*
Y-46653D01*
X313596Y-45159D01*
X312725Y-44289D01*
X313596Y-43418D01*
X314215Y-41924D01*
Y-40307D01*
X313596Y-38814D01*
X312453Y-37671D01*
X310959Y-37052D01*
D02*
G37*
G36*
X198605Y-22113D02*
X196988D01*
X195495Y-22731D01*
X194352Y-23875D01*
X193733Y-25368D01*
Y-26985D01*
X194352Y-28479D01*
X194737Y-28864D01*
X195327Y-29822D01*
X194737Y-30523D01*
X194226Y-31034D01*
X193607Y-32528D01*
Y-34145D01*
X194226Y-35638D01*
X194990Y-36402D01*
X194352Y-37040D01*
X193733Y-38534D01*
Y-39807D01*
X192843Y-40422D01*
X192559Y-40508D01*
X191533Y-39720D01*
X189824Y-39012D01*
X187990Y-38771D01*
X186157Y-39012D01*
X184448Y-39720D01*
X182980Y-40846D01*
X181854Y-42313D01*
X181147Y-44022D01*
X180905Y-45856D01*
Y-51855D01*
X181147Y-53689D01*
X181854Y-55398D01*
X182980Y-56865D01*
X184448Y-57991D01*
X186157Y-58699D01*
X187990Y-58940D01*
X189824Y-58699D01*
X191533Y-57991D01*
X193000Y-56865D01*
X194126Y-55398D01*
X194577Y-54308D01*
X195952D01*
X196361Y-55296D01*
X197504Y-56439D01*
X198998Y-57057D01*
X199405D01*
X200578Y-57398D01*
Y-59015D01*
X201197Y-60508D01*
X202340Y-61652D01*
X203834Y-62270D01*
X205451D01*
X206944Y-61652D01*
X208088Y-60508D01*
X208706Y-59015D01*
Y-57398D01*
X208088Y-55904D01*
X206944Y-54761D01*
X205451Y-54142D01*
X205044D01*
X203871Y-53802D01*
Y-52185D01*
X203252Y-50691D01*
X202109Y-49548D01*
X202106Y-49533D01*
X203126Y-48513D01*
X203745Y-47019D01*
Y-45402D01*
X203126Y-43909D01*
X201983Y-42765D01*
X201840Y-42706D01*
X201361Y-41358D01*
X201861Y-40151D01*
Y-38534D01*
X201242Y-37040D01*
X200478Y-36277D01*
X201117Y-35638D01*
X201735Y-34145D01*
Y-32528D01*
X201117Y-31034D01*
X200731Y-30649D01*
X200141Y-29691D01*
X200731Y-28990D01*
X201242Y-28479D01*
X201861Y-26985D01*
Y-25368D01*
X201242Y-23875D01*
X200099Y-22731D01*
X198605Y-22113D01*
D02*
G37*
G36*
X444055Y-48762D02*
X442439D01*
X440945Y-49381D01*
X440443Y-49883D01*
X439737Y-50483D01*
X438783Y-49883D01*
X438402Y-49502D01*
X436908Y-48884D01*
X435292D01*
X433798Y-49502D01*
X432655Y-50645D01*
X432036Y-52139D01*
Y-53756D01*
X432655Y-55250D01*
X433006Y-55601D01*
X433764Y-56430D01*
X433006Y-57260D01*
X432655Y-57611D01*
X432036Y-59105D01*
Y-60722D01*
X432655Y-62215D01*
X433798Y-63358D01*
X435292Y-63977D01*
X436908D01*
X438402Y-63358D01*
X438844Y-62917D01*
X439674Y-62309D01*
X440503Y-62917D01*
X440945Y-63358D01*
X442439Y-63977D01*
X444055D01*
X445549Y-63358D01*
X446693Y-62215D01*
X447311Y-60722D01*
Y-59105D01*
X446693Y-57611D01*
X446281Y-57199D01*
X445627Y-56370D01*
X446281Y-55540D01*
X446693Y-55128D01*
X447311Y-53635D01*
Y-52018D01*
X446693Y-50524D01*
X445549Y-49381D01*
X444055Y-48762D01*
D02*
G37*
G36*
X101488Y-38771D02*
X99654Y-39012D01*
X97945Y-39720D01*
X96478Y-40846D01*
X95352Y-42313D01*
X94644Y-44022D01*
X94403Y-45856D01*
Y-51855D01*
X94644Y-53689D01*
X95352Y-55398D01*
X96478Y-56865D01*
X97945Y-57991D01*
X99654Y-58699D01*
X101488Y-58940D01*
X103322Y-58699D01*
X105030Y-57991D01*
X106498Y-56865D01*
X107624Y-55398D01*
X108332Y-53689D01*
X108573Y-51855D01*
Y-45856D01*
X108332Y-44022D01*
X107624Y-42313D01*
X106498Y-40846D01*
X105030Y-39720D01*
X103322Y-39012D01*
X101488Y-38771D01*
D02*
G37*
G36*
X459388Y-42226D02*
X457012D01*
X454717Y-42841D01*
X452659Y-44029D01*
X450979Y-45709D01*
X449790Y-47767D01*
X449175Y-50062D01*
Y-52438D01*
X449790Y-54734D01*
X450979Y-56791D01*
X452659Y-58472D01*
X454717Y-59660D01*
X457012Y-60275D01*
X459388D01*
X461684Y-59660D01*
X463741Y-58472D01*
X465422Y-56791D01*
X466610Y-54734D01*
X467225Y-52438D01*
Y-50062D01*
X466610Y-47767D01*
X465422Y-45709D01*
X463741Y-44029D01*
X461684Y-42841D01*
X459388Y-42226D01*
D02*
G37*
%LPD*%
D33*
X109100Y280264D02*
X117314Y288478D01*
X143645D01*
X109100Y219558D02*
Y280264D01*
X97162Y207620D02*
X109100Y219558D01*
X84970Y207620D02*
X97162D01*
X42552Y165202D02*
X84970Y207620D01*
X12253Y150397D02*
X27058Y165202D01*
X42552D01*
X313Y150397D02*
X12253D01*
X186989Y270319D02*
X197316D01*
X184538Y37694D02*
X290762D01*
X155074Y238404D02*
X186989Y270319D01*
X155074Y67158D02*
X184538Y37694D01*
X155074Y67158D02*
Y238404D01*
X290762Y37694D02*
X298005Y44937D01*
X312735Y135922D02*
Y220394D01*
X305212Y227917D02*
X312735Y220394D01*
Y135922D02*
X319675Y128983D01*
X296055Y262197D02*
X301435D01*
X305212Y227917D02*
Y258419D01*
X301435Y262197D02*
X305212Y258419D01*
X319675Y76771D02*
Y128983D01*
X310279Y67375D02*
X319675Y76771D01*
X310279Y42087D02*
Y67375D01*
D58*
X-52045Y57180D02*
X23021D01*
X71887Y8314D02*
X163032D01*
X23021Y57180D02*
X71887Y8314D01*
X163032D02*
X168790Y14072D01*
X48090Y257728D02*
Y270088D01*
X-21131Y188506D02*
X48090Y257728D01*
X-21131Y154595D02*
Y188506D01*
X-29079Y91351D02*
X-20671Y99758D01*
X-60821Y65955D02*
X-52045Y57180D01*
X-20671Y99758D02*
Y103702D01*
X14966Y139339D01*
X21350Y129408D02*
Y146163D01*
X425Y108482D02*
X21350Y129408D01*
X-60821Y135883D02*
X-46640Y150063D01*
X-46306D01*
X-60821Y65955D02*
Y135883D01*
X168790Y14072D02*
X195764D01*
X203227Y6609D01*
X-31407Y144319D02*
X-21131Y154595D01*
X-14354Y71688D02*
X35209Y121250D01*
X-30414Y71688D02*
X-14354D01*
X35209Y121250D02*
Y135396D01*
X-42244Y74209D02*
X-32936D01*
X-54639Y72842D02*
Y81532D01*
Y72842D02*
X-45858Y64062D01*
X-54639Y81532D02*
X-44820Y91351D01*
X29922Y151748D02*
X32930Y148741D01*
X26936Y151748D02*
X29922D01*
X21350Y146163D02*
X26936Y151748D01*
X28199Y64062D02*
X39876Y75738D01*
X-45858Y64062D02*
X28199D01*
X-32936Y74209D02*
X-30414Y71688D01*
X133098Y95655D02*
Y227231D01*
X125446Y88003D02*
X133098Y95655D01*
Y227231D02*
X190845Y284978D01*
X120760Y111613D02*
X125446Y106927D01*
X120760Y111613D02*
Y241630D01*
X179722Y300592D01*
X190845Y284978D02*
X201770D01*
X223535Y263213D02*
X230269D01*
X201770Y284978D02*
X223535Y263213D01*
X255179Y262451D02*
X264051D01*
X252821Y264809D02*
X255179Y262451D01*
X252821Y264809D02*
Y287641D01*
X239871Y300592D02*
X252821Y287641D01*
X179722Y300592D02*
X239871D01*
X27339Y140277D02*
X32930Y145867D01*
Y148741D01*
X27339Y139918D02*
Y140277D01*
D65*
X-2945Y166628D02*
X11230D01*
X-17926Y151647D02*
X-2945Y166628D01*
X11230D02*
X35950Y191348D01*
X-17926Y147479D02*
Y151647D01*
X-29627Y135777D02*
X-17926Y147479D01*
D71*
X458200Y305913D02*
D03*
D72*
X671200Y30458D02*
D03*
Y224458D02*
D03*
D76*
X0Y0D02*
D03*
X0Y255258D02*
D03*
D77*
X-17033Y38058D02*
D03*
X551423Y60268D02*
D03*
X559661Y68150D02*
D03*
X549193Y68900D02*
D03*
X542732Y93394D02*
D03*
X533800Y90939D02*
D03*
X553693Y95563D02*
D03*
X571120Y93394D02*
D03*
X563341D02*
D03*
X549557Y128770D02*
D03*
X524245Y129908D02*
D03*
X533800Y127381D02*
D03*
X539089Y197627D02*
D03*
X549960D02*
D03*
X613590Y209034D02*
D03*
X568028Y71300D02*
D03*
X602198Y113622D02*
D03*
X571572Y197927D02*
D03*
X568625Y190793D02*
D03*
X397499Y227968D02*
D03*
X137050Y13190D02*
D03*
X31900Y6600D02*
D03*
X-33085Y51316D02*
D03*
X389934Y77087D02*
D03*
X396560Y70461D02*
D03*
X393399Y93055D02*
D03*
X606700Y12000D02*
D03*
X635308Y12887D02*
D03*
X648400Y13300D02*
D03*
X613187Y16142D02*
D03*
X620990Y185522D02*
D03*
X620515Y199018D02*
D03*
X608800Y215800D02*
D03*
X575250Y207300D02*
D03*
X556383Y218964D02*
D03*
X549557Y226642D02*
D03*
X563208Y197627D02*
D03*
X561078Y207300D02*
D03*
X545600D02*
D03*
X539089Y218964D02*
D03*
X620990Y101505D02*
D03*
Y115508D02*
D03*
X608439Y101999D02*
D03*
X592700Y107101D02*
D03*
X560100Y132600D02*
D03*
X584022Y107101D02*
D03*
X573177Y101999D02*
D03*
X576730Y112353D02*
D03*
X547781Y120049D02*
D03*
X539851Y100320D02*
D03*
X545500Y110200D02*
D03*
X561990Y103860D02*
D03*
X567115Y112645D02*
D03*
X571019Y118224D02*
D03*
X566600Y126756D02*
D03*
X560087Y121528D02*
D03*
X555561Y113622D02*
D03*
X551423Y101999D02*
D03*
X537052Y107101D02*
D03*
X539500Y117679D02*
D03*
X541216Y126854D02*
D03*
X539500Y66603D02*
D03*
X528194Y50896D02*
D03*
X516855Y41700D02*
D03*
X482552Y28652D02*
D03*
X466568Y39258D02*
D03*
X482552Y41700D02*
D03*
X476192Y24394D02*
D03*
Y35375D02*
D03*
X493403Y38030D02*
D03*
X503260Y39258D02*
D03*
X516956Y31819D02*
D03*
X570058Y57759D02*
D03*
X560453Y56155D02*
D03*
X609861Y53112D02*
D03*
X584058Y47720D02*
D03*
X613403Y45451D02*
D03*
X601782Y43600D02*
D03*
X592700Y47720D02*
D03*
Y25641D02*
D03*
X606226Y36068D02*
D03*
X589481Y31819D02*
D03*
X589603Y13344D02*
D03*
X620990Y73500D02*
D03*
X618051Y57759D02*
D03*
X621600Y66603D02*
D03*
X624291Y52035D02*
D03*
X620990Y80501D02*
D03*
Y108507D02*
D03*
Y94504D02*
D03*
Y87503D02*
D03*
X551423Y51897D02*
D03*
X577948Y40130D02*
D03*
X568028Y47720D02*
D03*
X578071Y54951D02*
D03*
X556398Y39830D02*
D03*
X525800Y41700D02*
D03*
X540508Y43270D02*
D03*
X539851Y56155D02*
D03*
X88036Y277281D02*
D03*
X84549Y267556D02*
D03*
X86619Y296593D02*
D03*
X48090Y270088D02*
D03*
X72637Y298568D02*
D03*
X459623Y50896D02*
D03*
Y64104D02*
D03*
X503260D02*
D03*
X468351Y50896D02*
D03*
X442168Y47370D02*
D03*
X448730D02*
D03*
X485806Y50896D02*
D03*
X477078D02*
D03*
X362898Y239596D02*
D03*
X377962Y243212D02*
D03*
X374650Y226928D02*
D03*
X362400Y203834D02*
D03*
X362578Y233120D02*
D03*
X364508Y159333D02*
D03*
X361613Y217677D02*
D03*
X508911Y82958D02*
D03*
X528194Y66603D02*
D03*
X516956Y82958D02*
D03*
X490243Y28652D02*
D03*
X494797Y50896D02*
D03*
X516956Y55365D02*
D03*
X487740Y82958D02*
D03*
X578829Y79144D02*
D03*
X490900Y15768D02*
D03*
X476192Y14197D02*
D03*
X506790Y12328D02*
D03*
X341096Y139470D02*
D03*
Y99211D02*
D03*
X379873Y692D02*
D03*
X371262Y3254D02*
D03*
X371482Y-2692D02*
D03*
X358207Y304825D02*
D03*
X404560Y307278D02*
D03*
X122860Y277281D02*
D03*
X32137Y229920D02*
D03*
X15784Y215782D02*
D03*
X48090Y243868D02*
D03*
X-512Y-41225D02*
D03*
X-29079Y91351D02*
D03*
X34924Y80D02*
D03*
X620990Y164518D02*
D03*
Y171519D02*
D03*
X517600Y74900D02*
D03*
X571120Y78196D02*
D03*
X528194Y110459D02*
D03*
X461720Y140800D02*
D03*
X562308Y183823D02*
D03*
X555683D02*
D03*
X620990Y178521D02*
D03*
X533800Y71300D02*
D03*
X477078Y64104D02*
D03*
X40980Y104898D02*
D03*
X-35110Y69147D02*
D03*
X-43382Y34942D02*
D03*
X-5166Y136180D02*
D03*
X1731Y140047D02*
D03*
X-13548Y285355D02*
D03*
X-18855Y281290D02*
D03*
X-25516Y276210D02*
D03*
X-31048Y271806D02*
D03*
X-36129Y266952D02*
D03*
X-62958Y48718D02*
D03*
X-62910Y41919D02*
D03*
X-63033Y35425D02*
D03*
X-62977Y29018D02*
D03*
X-7120Y-38005D02*
D03*
X-15959Y-32400D02*
D03*
X-22277Y-26837D02*
D03*
X-29672Y-20526D02*
D03*
X-36476Y-14905D02*
D03*
X-46306Y150063D02*
D03*
X43824Y195245D02*
D03*
X-48651Y-1949D02*
D03*
X-42189Y-8733D02*
D03*
X-55279Y6205D02*
D03*
X-5631Y48180D02*
D03*
X425Y108482D02*
D03*
X-1508Y98478D02*
D03*
X-44824Y174858D02*
D03*
X-34857Y191792D02*
D03*
X-37294Y108171D02*
D03*
X203227Y6609D02*
D03*
X198306Y-1083D02*
D03*
X-31407Y144319D02*
D03*
X-32949Y121453D02*
D03*
X-42244Y74209D02*
D03*
X70700Y140197D02*
D03*
X70955Y147432D02*
D03*
X63433Y50145D02*
D03*
X313Y150397D02*
D03*
X-5126Y155885D02*
D03*
X143645Y288478D02*
D03*
X197249Y270386D02*
D03*
X298005Y44937D02*
D03*
X406052Y-67462D02*
D03*
X377620D02*
D03*
X350000D02*
D03*
Y-60153D02*
D03*
X307581Y-67970D02*
D03*
X620990Y143514D02*
D03*
X175316Y234746D02*
D03*
X66719Y203890D02*
D03*
X68592Y229823D02*
D03*
X163069Y236888D02*
D03*
X-4260Y144279D02*
D03*
X-6061Y196382D02*
D03*
X-15248Y217968D02*
D03*
X-8100Y211328D02*
D03*
X-37615Y150218D02*
D03*
X276300Y-67970D02*
D03*
X275080Y320308D02*
D03*
X265830Y319988D02*
D03*
X143416Y277675D02*
D03*
X85254Y222531D02*
D03*
X88115Y239572D02*
D03*
X81910Y114998D02*
D03*
X80688Y73436D02*
D03*
X142660Y106378D02*
D03*
X143020Y186938D02*
D03*
X27039Y126629D02*
D03*
X7430Y124948D02*
D03*
X109408Y17799D02*
D03*
X-41645Y262334D02*
D03*
X-46330Y255990D02*
D03*
X-53162Y250036D02*
D03*
X-57457Y244570D02*
D03*
X-7645Y289697D02*
D03*
X-2155Y294168D02*
D03*
X5020Y297235D02*
D03*
X11013Y300818D02*
D03*
X17006Y303351D02*
D03*
X23555Y306317D02*
D03*
X29425Y309035D02*
D03*
X36159Y311507D02*
D03*
X204939Y293551D02*
D03*
X-28451Y173395D02*
D03*
X159500Y17799D02*
D03*
X-29627Y135777D02*
D03*
X440750Y309618D02*
D03*
X437630Y286618D02*
D03*
X466110Y294457D02*
D03*
X470611Y283358D02*
D03*
X471110Y258568D02*
D03*
X457334Y251562D02*
D03*
X443496Y276662D02*
D03*
X471110Y241348D02*
D03*
X526299D02*
D03*
X575250Y235590D02*
D03*
X561078Y238618D02*
D03*
X567316Y242926D02*
D03*
X577200Y221658D02*
D03*
X569690Y223394D02*
D03*
X539089Y237089D02*
D03*
X549960Y242188D02*
D03*
X537563Y243353D02*
D03*
X516770Y241348D02*
D03*
X503547Y242748D02*
D03*
X493870D02*
D03*
X480010Y241348D02*
D03*
X466110Y246806D02*
D03*
X454570Y258568D02*
D03*
X409550Y299448D02*
D03*
X417500Y286208D02*
D03*
X429480Y277008D02*
D03*
X437630Y271588D02*
D03*
X417500Y307278D02*
D03*
X438760Y299448D02*
D03*
X429480Y307278D02*
D03*
X431520Y321048D02*
D03*
X413070Y319678D02*
D03*
X401405Y319865D02*
D03*
X422910Y294318D02*
D03*
X429480Y286618D02*
D03*
X398170Y180990D02*
D03*
Y191471D02*
D03*
X401535Y202434D02*
D03*
X407200Y210098D02*
D03*
X414933Y212543D02*
D03*
X412520Y220498D02*
D03*
X397790Y234598D02*
D03*
X392470Y239368D02*
D03*
X387520Y244808D02*
D03*
X620990Y122510D02*
D03*
Y129511D02*
D03*
X480683Y82958D02*
D03*
X575215Y28418D02*
D03*
X522800Y60700D02*
D03*
X494533Y64104D02*
D03*
X568950Y133273D02*
D03*
X439372Y183100D02*
D03*
X571024Y140484D02*
D03*
X539500Y77000D02*
D03*
X485806Y64104D02*
D03*
X606700Y23858D02*
D03*
X580150Y19326D02*
D03*
X598939Y17127D02*
D03*
X531680Y28418D02*
D03*
X518420Y20218D02*
D03*
X528340Y12628D02*
D03*
X510500Y68900D02*
D03*
X512269Y50896D02*
D03*
X524245Y82958D02*
D03*
X503260Y50896D02*
D03*
X501815Y24394D02*
D03*
X494797Y82958D02*
D03*
X501854D02*
D03*
X620990Y136512D02*
D03*
X563208Y140800D02*
D03*
X607564Y201600D02*
D03*
X620990Y157517D02*
D03*
Y150515D02*
D03*
X614659Y201600D02*
D03*
X620990Y192523D02*
D03*
X580913Y201600D02*
D03*
X568669Y183580D02*
D03*
X458236Y191398D02*
D03*
X445397Y82958D02*
D03*
X466568D02*
D03*
X473625D02*
D03*
X528194Y100320D02*
D03*
X468351Y64104D02*
D03*
X556383Y140800D02*
D03*
X509701Y129908D02*
D03*
X501627Y126608D02*
D03*
X493863Y126528D02*
D03*
X486099Y126608D02*
D03*
X478335D02*
D03*
X470571D02*
D03*
X462807D02*
D03*
X455043D02*
D03*
X446821Y140800D02*
D03*
X354078Y291073D02*
D03*
X362578Y271118D02*
D03*
X354770Y282548D02*
D03*
X370462Y259613D02*
D03*
X363202Y264019D02*
D03*
X382682Y249916D02*
D03*
X360360Y277908D02*
D03*
X376760Y254978D02*
D03*
X125586Y168289D02*
D03*
Y187375D02*
D03*
X125446Y106927D02*
D03*
Y88003D02*
D03*
X264051Y262451D02*
D03*
X328821Y273673D02*
D03*
X276600Y2537D02*
D03*
X-60605Y14135D02*
D03*
X162443Y293058D02*
D03*
X35950Y191348D02*
D03*
X14966Y139453D02*
D03*
X27339Y139918D02*
D03*
X-44820Y91351D02*
D03*
X39876Y75738D02*
D03*
X8430Y72688D02*
D03*
X35209Y135396D02*
D03*
X89299Y170992D02*
D03*
X89807Y162991D02*
D03*
X393072Y-67462D02*
D03*
X429240Y-25006D02*
D03*
Y-34295D02*
D03*
X437119Y-34391D02*
D03*
X238915Y-24486D02*
D03*
X232383Y-29240D02*
D03*
X447279Y126796D02*
D03*
X439515D02*
D03*
X207154Y-50167D02*
D03*
X198249Y-9610D02*
D03*
X246005Y-27409D02*
D03*
X255200Y-67970D02*
D03*
X216031D02*
D03*
X223889D02*
D03*
X248100D02*
D03*
X306777Y558D02*
D03*
X314500D02*
D03*
X306777Y-8047D02*
D03*
X314500D02*
D03*
X23515Y-6223D02*
D03*
X31028D02*
D03*
X23888Y4003D02*
D03*
X39718Y-16634D02*
D03*
X164991Y164684D02*
D03*
X358491Y295945D02*
D03*
X461720Y183100D02*
D03*
X446821D02*
D03*
X230476Y54038D02*
D03*
X197031Y54832D02*
D03*
X408323Y126796D02*
D03*
X416223Y127024D02*
D03*
X423987Y127075D02*
D03*
X431751Y127024D02*
D03*
X397080Y106367D02*
D03*
X459511Y82958D02*
D03*
X452454D02*
D03*
X450896Y64104D02*
D03*
X442168D02*
D03*
X439372Y140800D02*
D03*
X454271D02*
D03*
X328821Y259864D02*
D03*
Y266769D02*
D03*
Y252959D02*
D03*
Y225384D02*
D03*
Y218479D02*
D03*
Y211574D02*
D03*
Y232289D02*
D03*
Y155992D02*
D03*
Y176706D02*
D03*
Y183611D02*
D03*
X305301Y90931D02*
D03*
X329630Y139777D02*
D03*
X328821Y76263D02*
D03*
Y69358D02*
D03*
Y62453D02*
D03*
Y83168D02*
D03*
X296055Y276006D02*
D03*
Y255292D02*
D03*
Y262197D02*
D03*
Y269101D02*
D03*
Y248387D02*
D03*
Y200098D02*
D03*
Y220812D02*
D03*
Y213907D02*
D03*
Y227717D02*
D03*
Y151420D02*
D03*
Y172134D02*
D03*
Y165229D02*
D03*
Y179039D02*
D03*
Y103522D02*
D03*
Y124236D02*
D03*
Y110426D02*
D03*
Y131141D02*
D03*
Y56057D02*
D03*
Y76771D02*
D03*
Y69866D02*
D03*
Y83676D02*
D03*
X264051Y276260D02*
D03*
Y255546D02*
D03*
Y269355D02*
D03*
Y248641D02*
D03*
Y200352D02*
D03*
Y221066D02*
D03*
Y214161D02*
D03*
Y227971D02*
D03*
Y103776D02*
D03*
Y124490D02*
D03*
Y110680D02*
D03*
Y131395D02*
D03*
Y77025D02*
D03*
Y70120D02*
D03*
Y83930D02*
D03*
X230269Y277022D02*
D03*
Y256308D02*
D03*
Y263213D02*
D03*
Y270117D02*
D03*
Y249403D02*
D03*
Y201113D02*
D03*
Y221828D02*
D03*
Y214923D02*
D03*
Y228733D02*
D03*
Y152436D02*
D03*
Y173150D02*
D03*
Y166245D02*
D03*
Y180055D02*
D03*
Y104538D02*
D03*
Y125252D02*
D03*
Y111442D02*
D03*
Y132157D02*
D03*
X230410Y74925D02*
D03*
X230269Y63977D02*
D03*
X197030Y87948D02*
D03*
X197249Y64246D02*
D03*
X197428Y75388D02*
D03*
X197249Y132425D02*
D03*
Y111711D02*
D03*
Y125520D02*
D03*
Y104806D02*
D03*
Y180323D02*
D03*
Y166514D02*
D03*
Y173418D02*
D03*
Y152704D02*
D03*
Y229001D02*
D03*
Y215191D02*
D03*
Y222096D02*
D03*
Y201382D02*
D03*
Y249671D02*
D03*
Y263481D02*
D03*
Y256576D02*
D03*
X310279Y42087D02*
D03*
X122860Y322318D02*
D03*
X114120Y322428D02*
D03*
X106005Y322318D02*
D03*
X96980D02*
D03*
X86721Y322428D02*
D03*
X77986Y321884D02*
D03*
X69606Y320643D02*
D03*
X60564Y318488D02*
D03*
X51976Y316264D02*
D03*
X43388Y313978D02*
D03*
X-62142Y238519D02*
D03*
X-41665Y246906D02*
D03*
X-62910Y22224D02*
D03*
X164991Y102979D02*
D03*
Y109820D02*
D03*
Y75615D02*
D03*
X164603Y85323D02*
D03*
X164483Y93141D02*
D03*
X164991Y171525D02*
D03*
Y123875D02*
D03*
Y130716D02*
D03*
Y149783D02*
D03*
X165245Y211183D02*
D03*
Y218024D02*
D03*
Y224865D02*
D03*
Y178485D02*
D03*
Y185326D02*
D03*
Y203631D02*
D03*
X164279Y278324D02*
D03*
X403758Y92682D02*
D03*
X399593Y98434D02*
D03*
X358207Y319584D02*
D03*
Y312204D02*
D03*
X398204Y115160D02*
D03*
X403625Y120118D02*
D03*
X403332Y154543D02*
D03*
X401535Y162920D02*
D03*
X403222Y171102D02*
D03*
X454271Y183100D02*
D03*
X438340Y82958D02*
D03*
D78*
X369850Y252761D02*
D03*
X363899Y139115D02*
D03*
X363137Y75767D02*
D03*
X362400Y187248D02*
D03*
X354770Y239368D02*
D03*
X340080Y239900D02*
D03*
X280815Y93141D02*
D03*
X214340Y93395D02*
D03*
X230959D02*
D03*
X264196Y93141D02*
D03*
X247577Y93395D02*
D03*
X181102Y93141D02*
D03*
X328999D02*
D03*
X297281D02*
D03*
X313067D02*
D03*
X287927Y139623D02*
D03*
X221452Y139877D02*
D03*
X238071D02*
D03*
X271308Y139623D02*
D03*
X254690Y139877D02*
D03*
X204833Y139623D02*
D03*
X188214D02*
D03*
X171595D02*
D03*
X302075Y139978D02*
D03*
X321190Y144703D02*
D03*
X288946Y193462D02*
D03*
X222471Y193716D02*
D03*
X239090D02*
D03*
X272328Y193462D02*
D03*
X255709Y193716D02*
D03*
X205852Y193462D02*
D03*
X189233D02*
D03*
X172614D02*
D03*
X331945Y194538D02*
D03*
X305412Y193462D02*
D03*
X321199D02*
D03*
X195080Y239948D02*
D03*
X329577Y239699D02*
D03*
X313791D02*
D03*
X180993D02*
D03*
X214231D02*
D03*
X264088Y239953D02*
D03*
X280706Y239699D02*
D03*
X247469Y239953D02*
D03*
X230850D02*
D03*
X297325Y239699D02*
D03*
D80*
X400432Y47370D02*
X442168D01*
X448730D01*
X380005Y26943D02*
X400432Y47370D01*
X107534Y26943D02*
X380005D01*
X70649Y63829D02*
X107534Y26943D01*
X70649Y63829D02*
Y140146D01*
X70700Y140197D02*
Y147177D01*
X70955Y147432D01*
M02*
