G04*
G04 #@! TF.GenerationSoftware,Altium Limited,Altium Designer,22.2.1 (43)*
G04*
G04 Layer_Color=8388736*
%FSLAX44Y44*%
%MOMM*%
G71*
G04*
G04 #@! TF.SameCoordinates,D676EA34-7746-482F-A41B-9349FDE20BFB*
G04*
G04*
G04 #@! TF.FilePolarity,Negative*
G04*
G01*
G75*
%ADD21R,0.3000X0.3000*%
%ADD33C,0.2032*%
%ADD34R,0.8032X1.0032*%
%ADD35R,1.0032X1.6032*%
%ADD36R,1.6032X1.0032*%
G04:AMPARAMS|DCode=37|XSize=1.4mm|YSize=0.8mm|CornerRadius=0.19mm|HoleSize=0mm|Usage=FLASHONLY|Rotation=0.000|XOffset=0mm|YOffset=0mm|HoleType=Round|Shape=RoundedRectangle|*
%AMROUNDEDRECTD37*
21,1,1.4000,0.4200,0,0,0.0*
21,1,1.0200,0.8000,0,0,0.0*
1,1,0.3800,0.5100,-0.2100*
1,1,0.3800,-0.5100,-0.2100*
1,1,0.3800,-0.5100,0.2100*
1,1,0.3800,0.5100,0.2100*
%
%ADD37ROUNDEDRECTD37*%
G04:AMPARAMS|DCode=38|XSize=1mm|YSize=0.7mm|CornerRadius=0.17mm|HoleSize=0mm|Usage=FLASHONLY|Rotation=180.000|XOffset=0mm|YOffset=0mm|HoleType=Round|Shape=RoundedRectangle|*
%AMROUNDEDRECTD38*
21,1,1.0000,0.3600,0,0,180.0*
21,1,0.6600,0.7000,0,0,180.0*
1,1,0.3400,-0.3300,0.1800*
1,1,0.3400,0.3300,0.1800*
1,1,0.3400,0.3300,-0.1800*
1,1,0.3400,-0.3300,-0.1800*
%
%ADD38ROUNDEDRECTD38*%
%ADD39R,0.9000X0.9000*%
%ADD40R,0.6533X0.8032*%
G04:AMPARAMS|DCode=41|XSize=1.2032mm|YSize=0.7032mm|CornerRadius=0.1641mm|HoleSize=0mm|Usage=FLASHONLY|Rotation=270.000|XOffset=0mm|YOffset=0mm|HoleType=Round|Shape=RoundedRectangle|*
%AMROUNDEDRECTD41*
21,1,1.2032,0.3750,0,0,270.0*
21,1,0.8750,0.7032,0,0,270.0*
1,1,0.3282,-0.1875,-0.4375*
1,1,0.3282,-0.1875,0.4375*
1,1,0.3282,0.1875,0.4375*
1,1,0.3282,0.1875,-0.4375*
%
%ADD41ROUNDEDRECTD41*%
%ADD42R,1.2000X3.8000*%
G04:AMPARAMS|DCode=43|XSize=0.7mm|YSize=0.6mm|CornerRadius=0.15mm|HoleSize=0mm|Usage=FLASHONLY|Rotation=90.000|XOffset=0mm|YOffset=0mm|HoleType=Round|Shape=RoundedRectangle|*
%AMROUNDEDRECTD43*
21,1,0.7000,0.3000,0,0,90.0*
21,1,0.4000,0.6000,0,0,90.0*
1,1,0.3000,0.1500,0.2000*
1,1,0.3000,0.1500,-0.2000*
1,1,0.3000,-0.1500,-0.2000*
1,1,0.3000,-0.1500,0.2000*
%
%ADD43ROUNDEDRECTD43*%
G04:AMPARAMS|DCode=44|XSize=0.4064mm|YSize=0.4064mm|CornerRadius=0.108mm|HoleSize=0mm|Usage=FLASHONLY|Rotation=270.000|XOffset=0mm|YOffset=0mm|HoleType=Round|Shape=RoundedRectangle|*
%AMROUNDEDRECTD44*
21,1,0.4064,0.1905,0,0,270.0*
21,1,0.1905,0.4064,0,0,270.0*
1,1,0.2159,-0.0953,-0.0953*
1,1,0.2159,-0.0953,0.0953*
1,1,0.2159,0.0953,0.0953*
1,1,0.2159,0.0953,-0.0953*
%
%ADD44ROUNDEDRECTD44*%
%ADD45R,0.7033X0.8032*%
G04:AMPARAMS|DCode=46|XSize=0.7mm|YSize=0.6mm|CornerRadius=0.15mm|HoleSize=0mm|Usage=FLASHONLY|Rotation=0.000|XOffset=0mm|YOffset=0mm|HoleType=Round|Shape=RoundedRectangle|*
%AMROUNDEDRECTD46*
21,1,0.7000,0.3000,0,0,0.0*
21,1,0.4000,0.6000,0,0,0.0*
1,1,0.3000,0.2000,-0.1500*
1,1,0.3000,-0.2000,-0.1500*
1,1,0.3000,-0.2000,0.1500*
1,1,0.3000,0.2000,0.1500*
%
%ADD46ROUNDEDRECTD46*%
%ADD47R,0.8032X0.7033*%
G04:AMPARAMS|DCode=48|XSize=1mm|YSize=0.7mm|CornerRadius=0.17mm|HoleSize=0mm|Usage=FLASHONLY|Rotation=270.000|XOffset=0mm|YOffset=0mm|HoleType=Round|Shape=RoundedRectangle|*
%AMROUNDEDRECTD48*
21,1,1.0000,0.3600,0,0,270.0*
21,1,0.6600,0.7000,0,0,270.0*
1,1,0.3400,-0.1800,-0.3300*
1,1,0.3400,-0.1800,0.3300*
1,1,0.3400,0.1800,0.3300*
1,1,0.3400,0.1800,-0.3300*
%
%ADD48ROUNDEDRECTD48*%
G04:AMPARAMS|DCode=49|XSize=0.4064mm|YSize=0.4064mm|CornerRadius=0.108mm|HoleSize=0mm|Usage=FLASHONLY|Rotation=180.000|XOffset=0mm|YOffset=0mm|HoleType=Round|Shape=RoundedRectangle|*
%AMROUNDEDRECTD49*
21,1,0.4064,0.1905,0,0,180.0*
21,1,0.1905,0.4064,0,0,180.0*
1,1,0.2159,-0.0953,0.0953*
1,1,0.2159,0.0953,0.0953*
1,1,0.2159,0.0953,-0.0953*
1,1,0.2159,-0.0953,-0.0953*
%
%ADD49ROUNDEDRECTD49*%
%ADD50C,1.7033*%
%ADD51C,2.7286*%
%ADD52O,1.1000X2.2001*%
%ADD53O,1.3033X1.9032*%
%ADD54C,0.7500*%
%ADD55O,1.2032X2.3033*%
%ADD56C,4.0032*%
%ADD57C,0.8732*%
G36*
X672180Y244473D02*
X672230Y244471D01*
X674088Y244288D01*
X674138Y244280D01*
X674187Y244274D01*
X676019Y243910D01*
X676067Y243897D01*
X676115Y243885D01*
X677902Y243344D01*
X677949Y243326D01*
X677997Y243310D01*
X679722Y242595D01*
X679766Y242573D01*
X679812Y242553D01*
X681459Y241673D01*
X681501Y241646D01*
X681544Y241621D01*
X683097Y240584D01*
X683137Y240553D01*
X683177Y240524D01*
X684621Y239340D01*
X684657Y239306D01*
X684695Y239273D01*
X685355Y238613D01*
X685355Y238612D01*
X686002Y237966D01*
X686034Y237929D01*
X686068Y237894D01*
X687231Y236482D01*
X687259Y236443D01*
X687289Y236404D01*
X688311Y234887D01*
X688336Y234845D01*
X688362Y234803D01*
X689234Y233195D01*
X689254Y233151D01*
X689276Y233107D01*
X689989Y231423D01*
X690005Y231377D01*
X690023Y231331D01*
X690572Y229587D01*
X690583Y229539D01*
X690596Y229492D01*
X690975Y227703D01*
X690982Y227654D01*
X690990Y227606D01*
X691195Y225788D01*
X691197Y225740D01*
X691201Y225691D01*
X691230Y223862D01*
X691228Y223813D01*
X691227Y223764D01*
X691080Y221941D01*
X691073Y221893D01*
X691068Y221844D01*
X690747Y220044D01*
X690735Y219996D01*
X690725Y219948D01*
X690233Y218187D01*
X690216Y218140D01*
X690202Y218094D01*
X689543Y216388D01*
X689522Y216344D01*
X689503Y216299D01*
X688683Y214664D01*
X688658Y214622D01*
X688635Y214579D01*
X687662Y213030D01*
X687633Y212991D01*
X687606Y212950D01*
X686488Y211502D01*
X686456Y211465D01*
X686424Y211428D01*
X685799Y210761D01*
X685787Y210750D01*
X685776Y210737D01*
X685739Y210704D01*
X685702Y210670D01*
X685688Y210660D01*
X685676Y210650D01*
X685634Y210622D01*
X685593Y210592D01*
X685579Y210585D01*
X685565Y210576D01*
X685520Y210553D01*
X685476Y210530D01*
X685461Y210524D01*
X685446Y210517D01*
X685398Y210501D01*
X685351Y210483D01*
X685335Y210479D01*
X685320Y210474D01*
X685270Y210464D01*
X685221Y210453D01*
X685205Y210451D01*
X685189Y210448D01*
X685139Y210445D01*
X685089Y210440D01*
X685072Y210440D01*
X685056Y210439D01*
X657344Y210439D01*
X657328Y210440D01*
X657311Y210440D01*
X657297Y210441D01*
X657283Y210441D01*
X657246Y210446D01*
X657211Y210448D01*
X657195Y210451D01*
X657179Y210453D01*
X657165Y210456D01*
X657151Y210458D01*
X657115Y210467D01*
X657080Y210474D01*
X657065Y210479D01*
X657049Y210483D01*
X657036Y210488D01*
X657022Y210492D01*
X656988Y210505D01*
X656954Y210517D01*
X656940Y210524D01*
X656925Y210530D01*
X656912Y210536D01*
X656898Y210542D01*
X656866Y210560D01*
X656835Y210576D01*
X656822Y210584D01*
X656807Y210592D01*
X656795Y210601D01*
X656783Y210608D01*
X656753Y210630D01*
X656724Y210650D01*
X656712Y210660D01*
X656699Y210670D01*
X656688Y210679D01*
X656677Y210688D01*
X656650Y210714D01*
X656624Y210737D01*
X656614Y210749D01*
X656601Y210761D01*
X655976Y211427D01*
X655945Y211465D01*
X655912Y211502D01*
X654795Y212949D01*
X654768Y212990D01*
X654739Y213029D01*
X653765Y214577D01*
X653742Y214621D01*
X653717Y214663D01*
X652897Y216297D01*
X652878Y216342D01*
X652857Y216386D01*
X652198Y218092D01*
X652183Y218138D01*
X652167Y218185D01*
X651674Y219946D01*
X651664Y219994D01*
X651653Y220041D01*
X651331Y221841D01*
X651326Y221890D01*
X651319Y221938D01*
X651172Y223761D01*
X651171Y223810D01*
X651169Y223859D01*
X651197Y225687D01*
X651201Y225736D01*
X651204Y225785D01*
X651408Y227602D01*
X651417Y227650D01*
X651423Y227699D01*
X651801Y229488D01*
X651815Y229535D01*
X651826Y229582D01*
X652374Y231327D01*
X652392Y231372D01*
X652408Y231419D01*
X653121Y233103D01*
X653143Y233146D01*
X653163Y233191D01*
X654035Y234798D01*
X654061Y234840D01*
X654085Y234882D01*
X655107Y236399D01*
X655137Y236437D01*
X655165Y236477D01*
X656328Y237889D01*
X656361Y237924D01*
X656394Y237961D01*
X657040Y238608D01*
X657040Y238608D01*
X657700Y239268D01*
X657738Y239301D01*
X657774Y239335D01*
X659217Y240520D01*
X659258Y240549D01*
X659297Y240580D01*
X660850Y241618D01*
X660893Y241642D01*
X660935Y241669D01*
X662582Y242550D01*
X662627Y242570D01*
X662672Y242592D01*
X664397Y243307D01*
X664444Y243323D01*
X664491Y243341D01*
X666278Y243883D01*
X666326Y243895D01*
X666375Y243908D01*
X668206Y244272D01*
X668255Y244279D01*
X668305Y244287D01*
X670163Y244471D01*
X670213Y244472D01*
X670263Y244475D01*
X672130Y244476D01*
X672180Y244473D01*
D02*
G37*
G36*
X685155Y44390D02*
X685174Y44391D01*
X685186Y44389D01*
X685201Y44389D01*
X685234Y44385D01*
X685268Y44383D01*
X685288Y44379D01*
X685306Y44377D01*
X685319Y44374D01*
X685333Y44372D01*
X685366Y44363D01*
X685399Y44357D01*
X685418Y44350D01*
X685436Y44346D01*
X685447Y44341D01*
X685462Y44338D01*
X685493Y44325D01*
X685525Y44314D01*
X685543Y44305D01*
X685560Y44298D01*
X685571Y44292D01*
X685585Y44287D01*
X685614Y44270D01*
X685644Y44255D01*
X685661Y44244D01*
X685677Y44235D01*
X685687Y44228D01*
X685700Y44220D01*
X685727Y44200D01*
X685755Y44181D01*
X685770Y44168D01*
X685785Y44157D01*
X685794Y44148D01*
X685806Y44139D01*
X685830Y44115D01*
X685855Y44093D01*
X685869Y44078D01*
X685882Y44065D01*
X686501Y43397D01*
X686532Y43359D01*
X686564Y43322D01*
X687669Y41874D01*
X687696Y41833D01*
X687724Y41794D01*
X688685Y40246D01*
X688708Y40203D01*
X688733Y40161D01*
X689541Y38528D01*
X689560Y38483D01*
X689580Y38439D01*
X690229Y36737D01*
X690243Y36690D01*
X690259Y36644D01*
X690742Y34887D01*
X690752Y34840D01*
X690764Y34792D01*
X691076Y32998D01*
X691081Y32949D01*
X691088Y32901D01*
X691228Y31084D01*
X691229Y31036D01*
X691231Y30987D01*
X691196Y29165D01*
X691192Y29117D01*
X691189Y29068D01*
X690981Y27258D01*
X690972Y27210D01*
X690965Y27162D01*
X690584Y25381D01*
X690571Y25334D01*
X690559Y25286D01*
X690009Y23549D01*
X689992Y23504D01*
X689976Y23458D01*
X689262Y21782D01*
X689240Y21738D01*
X689220Y21694D01*
X688349Y20094D01*
X688323Y20052D01*
X688299Y20010D01*
X687279Y18500D01*
X687249Y18462D01*
X687221Y18422D01*
X686062Y17017D01*
X686028Y16981D01*
X685996Y16945D01*
X685352Y16301D01*
X685352Y16301D01*
X684692Y15641D01*
X684655Y15608D01*
X684618Y15574D01*
X683175Y14389D01*
X683135Y14360D01*
X683095Y14330D01*
X681543Y13293D01*
X681500Y13268D01*
X681457Y13241D01*
X679811Y12361D01*
X679765Y12341D01*
X679721Y12319D01*
X677996Y11604D01*
X677949Y11588D01*
X677902Y11571D01*
X676116Y11029D01*
X676067Y11017D01*
X676019Y11004D01*
X674188Y10640D01*
X674138Y10634D01*
X674089Y10626D01*
X672231Y10443D01*
X672181Y10441D01*
X672131Y10438D01*
X670265Y10438D01*
X670215Y10441D01*
X670165Y10443D01*
X668307Y10626D01*
X668258Y10634D01*
X668208Y10641D01*
X666378Y11005D01*
X666329Y11018D01*
X666281Y11029D01*
X664494Y11571D01*
X664448Y11589D01*
X664400Y11605D01*
X662676Y12320D01*
X662631Y12342D01*
X662586Y12362D01*
X660939Y13243D01*
X660897Y13269D01*
X660854Y13294D01*
X659302Y14331D01*
X659262Y14362D01*
X659221Y14391D01*
X657779Y15575D01*
X657743Y15609D01*
X657705Y15643D01*
X657045Y16303D01*
X656401Y16947D01*
X656369Y16984D01*
X656335Y17019D01*
X655176Y18424D01*
X655148Y18464D01*
X655118Y18502D01*
X654099Y20012D01*
X654074Y20054D01*
X654048Y20096D01*
X653178Y21696D01*
X653158Y21740D01*
X653136Y21784D01*
X652423Y23460D01*
X652407Y23506D01*
X652389Y23551D01*
X651839Y25288D01*
X651828Y25335D01*
X651814Y25382D01*
X651434Y27164D01*
X651427Y27213D01*
X651418Y27260D01*
X651209Y29070D01*
X651207Y29118D01*
X651203Y29167D01*
X651168Y30988D01*
X651171Y31037D01*
X651171Y31086D01*
X651311Y32902D01*
X651318Y32950D01*
X651323Y32999D01*
X651636Y34794D01*
X651647Y34841D01*
X651657Y34889D01*
X652140Y36645D01*
X652156Y36691D01*
X652171Y36738D01*
X652820Y38440D01*
X652840Y38484D01*
X652859Y38529D01*
X653667Y40161D01*
X653692Y40204D01*
X653715Y40247D01*
X654676Y41794D01*
X654704Y41834D01*
X654731Y41874D01*
X655836Y43323D01*
X655868Y43360D01*
X655899Y43397D01*
X656518Y44065D01*
X656532Y44079D01*
X656545Y44093D01*
X656581Y44124D01*
X656615Y44157D01*
X656630Y44168D01*
X656645Y44181D01*
X656684Y44207D01*
X656723Y44235D01*
X656740Y44244D01*
X656756Y44255D01*
X656798Y44276D01*
X656840Y44298D01*
X656858Y44305D01*
X656875Y44314D01*
X656920Y44329D01*
X656964Y44346D01*
X656983Y44350D01*
X657001Y44357D01*
X657048Y44366D01*
X657094Y44377D01*
X657113Y44379D01*
X657132Y44383D01*
X657179Y44386D01*
X657226Y44391D01*
X657246Y44390D01*
X657265Y44391D01*
X685135Y44391D01*
X685155Y44390D01*
D02*
G37*
G36*
X91298Y-3550D02*
X91392Y-3578D01*
X91479Y-3625D01*
X91555Y-3687D01*
X91618Y-3763D01*
X91664Y-3850D01*
X91693Y-3944D01*
X91702Y-4042D01*
Y-11042D01*
X91693Y-11141D01*
X91664Y-11235D01*
X91618Y-11322D01*
X91555Y-11398D01*
X91479Y-11460D01*
X91392Y-11507D01*
X91298Y-11535D01*
X91200Y-11545D01*
X78703D01*
Y-21042D01*
X78693Y-21140D01*
X78664Y-21235D01*
X78618Y-21322D01*
X78555Y-21398D01*
X78479Y-21460D01*
X78392Y-21507D01*
X78298Y-21535D01*
X78200Y-21545D01*
X68200D01*
X68102Y-21535D01*
X68008Y-21507D01*
X67921Y-21460D01*
X67845Y-21398D01*
X67782Y-21322D01*
X67736Y-21235D01*
X67707Y-21140D01*
X67698Y-21042D01*
Y-4042D01*
X67707Y-3944D01*
X67736Y-3850D01*
X67782Y-3763D01*
X67845Y-3687D01*
X67921Y-3625D01*
X68008Y-3578D01*
X68102Y-3550D01*
X68200Y-3540D01*
X91200D01*
X91298Y-3550D01*
D02*
G37*
G36*
X59298D02*
X59392Y-3578D01*
X59479Y-3625D01*
X59555Y-3687D01*
X59618Y-3763D01*
X59664Y-3850D01*
X59693Y-3944D01*
X59703Y-4042D01*
Y-21042D01*
X59693Y-21140D01*
X59664Y-21235D01*
X59618Y-21322D01*
X59555Y-21398D01*
X59479Y-21460D01*
X59392Y-21507D01*
X59298Y-21535D01*
X59200Y-21545D01*
X49200D01*
X49102Y-21535D01*
X49008Y-21507D01*
X48921Y-21460D01*
X48845Y-21398D01*
X48782Y-21322D01*
X48736Y-21235D01*
X48707Y-21140D01*
X48698Y-21042D01*
Y-11545D01*
X36200D01*
X36102Y-11535D01*
X36008Y-11507D01*
X35921Y-11460D01*
X35845Y-11398D01*
X35782Y-11322D01*
X35736Y-11235D01*
X35707Y-11141D01*
X35698Y-11042D01*
Y-4042D01*
X35707Y-3944D01*
X35736Y-3850D01*
X35782Y-3763D01*
X35845Y-3687D01*
X35921Y-3625D01*
X36008Y-3578D01*
X36102Y-3550D01*
X36200Y-3540D01*
X59200D01*
X59298Y-3550D01*
D02*
G37*
G36*
X78298Y-33550D02*
X78392Y-33578D01*
X78479Y-33625D01*
X78555Y-33687D01*
X78618Y-33763D01*
X78664Y-33850D01*
X78693Y-33944D01*
X78703Y-34042D01*
Y-43540D01*
X91200D01*
X91298Y-43550D01*
X91392Y-43578D01*
X91479Y-43625D01*
X91555Y-43687D01*
X91618Y-43763D01*
X91664Y-43850D01*
X91693Y-43944D01*
X91702Y-44042D01*
Y-51042D01*
X91693Y-51140D01*
X91664Y-51235D01*
X91618Y-51322D01*
X91555Y-51398D01*
X91479Y-51460D01*
X91392Y-51507D01*
X91298Y-51535D01*
X91200Y-51545D01*
X68200D01*
X68102Y-51535D01*
X68008Y-51507D01*
X67921Y-51460D01*
X67845Y-51398D01*
X67782Y-51322D01*
X67736Y-51235D01*
X67707Y-51140D01*
X67698Y-51042D01*
Y-34042D01*
X67707Y-33944D01*
X67736Y-33850D01*
X67782Y-33763D01*
X67845Y-33687D01*
X67921Y-33625D01*
X68008Y-33578D01*
X68102Y-33550D01*
X68200Y-33540D01*
X78200D01*
X78298Y-33550D01*
D02*
G37*
G36*
X59298D02*
X59392Y-33578D01*
X59479Y-33625D01*
X59555Y-33687D01*
X59618Y-33763D01*
X59664Y-33850D01*
X59693Y-33944D01*
X59703Y-34042D01*
Y-51042D01*
X59693Y-51140D01*
X59664Y-51235D01*
X59618Y-51322D01*
X59555Y-51398D01*
X59479Y-51460D01*
X59392Y-51507D01*
X59298Y-51535D01*
X59200Y-51545D01*
X36200D01*
X36102Y-51535D01*
X36008Y-51507D01*
X35921Y-51460D01*
X35845Y-51398D01*
X35782Y-51322D01*
X35736Y-51235D01*
X35707Y-51140D01*
X35698Y-51042D01*
Y-44042D01*
X35707Y-43944D01*
X35736Y-43850D01*
X35782Y-43763D01*
X35845Y-43687D01*
X35921Y-43625D01*
X36008Y-43578D01*
X36102Y-43550D01*
X36200Y-43540D01*
X48698D01*
Y-34042D01*
X48707Y-33944D01*
X48736Y-33850D01*
X48782Y-33763D01*
X48845Y-33687D01*
X48921Y-33625D01*
X49008Y-33578D01*
X49102Y-33550D01*
X49200Y-33540D01*
X59200D01*
X59298Y-33550D01*
D02*
G37*
D21*
X49200Y-47543D02*
D03*
X78200D02*
D03*
Y-7543D02*
D03*
X49200D02*
D03*
D33*
X226764Y24171D02*
G03*
X226764Y24171I-254J0D01*
G01*
X-54421Y136750D02*
G03*
X-54421Y136750I-254J0D01*
G01*
X-34866Y129993D02*
G03*
X-34866Y129993I-254J0D01*
G01*
D34*
X167011Y10971D02*
D03*
X150011D02*
D03*
D35*
X143495Y255656D02*
D03*
X177915D02*
D03*
X106105Y255756D02*
D03*
X127275Y255716D02*
D03*
X160164Y255656D02*
D03*
X91094Y255646D02*
D03*
X124915Y49556D02*
D03*
X219375Y255666D02*
D03*
X597155Y210196D02*
D03*
X219625Y49876D02*
D03*
D36*
X59595Y97336D02*
D03*
X59695Y84626D02*
D03*
X59776Y173656D02*
D03*
X59475Y160906D02*
D03*
X59566Y148166D02*
D03*
X59566Y135476D02*
D03*
X59475Y122786D02*
D03*
X59577Y70748D02*
D03*
X59285Y212616D02*
D03*
X59627Y57468D02*
D03*
X59775Y192446D02*
D03*
X59776Y110036D02*
D03*
D37*
X-41862Y238022D02*
D03*
Y219022D02*
D03*
D38*
X-60208Y188960D02*
D03*
Y203960D02*
D03*
X358400Y-48542D02*
D03*
Y-63542D02*
D03*
X29598Y-36100D02*
D03*
Y-21100D02*
D03*
X-60276Y214719D02*
D03*
Y229718D02*
D03*
D39*
X177505Y303114D02*
D03*
X192505D02*
D03*
X327505D02*
D03*
X312505D02*
D03*
X288505D02*
D03*
X273505D02*
D03*
X253700D02*
D03*
X238700D02*
D03*
D40*
X18569Y171169D02*
D03*
X27067D02*
D03*
D41*
X350000Y-36542D02*
D03*
X359500D02*
D03*
X369000D02*
D03*
X350000Y-12542D02*
D03*
X359500D02*
D03*
X369000D02*
D03*
X226510Y-38174D02*
D03*
X236010D02*
D03*
X245510D02*
D03*
X226510Y-14174D02*
D03*
X236010D02*
D03*
X245510D02*
D03*
D42*
X384100Y-40442D02*
D03*
X414100D02*
D03*
X261600Y-23842D02*
D03*
X291600D02*
D03*
D43*
X187933Y278551D02*
D03*
X197933D02*
D03*
X-45244Y99122D02*
D03*
X-55244D02*
D03*
X-6460Y92182D02*
D03*
X3540D02*
D03*
X134890Y-2122D02*
D03*
X124890D02*
D03*
X154890D02*
D03*
X164890D02*
D03*
X132310Y-32731D02*
D03*
X122310D02*
D03*
X132015Y-22284D02*
D03*
X122015D02*
D03*
X229182Y-2531D02*
D03*
X239182D02*
D03*
X427382Y-42758D02*
D03*
X437381D02*
D03*
X293000Y1858D02*
D03*
X283000D02*
D03*
X387800Y-12102D02*
D03*
X377800D02*
D03*
X239182Y7219D02*
D03*
X229182D02*
D03*
X261185Y2430D02*
D03*
X251185D02*
D03*
X329400Y-23968D02*
D03*
X319400D02*
D03*
X290Y169628D02*
D03*
X10290D02*
D03*
X290Y160826D02*
D03*
X10290D02*
D03*
X349574Y692D02*
D03*
X359574D02*
D03*
X-20407Y75283D02*
D03*
X-10407D02*
D03*
X187933Y287978D02*
D03*
X197933D02*
D03*
X308780Y266769D02*
D03*
X242469Y290054D02*
D03*
X252469D02*
D03*
X277723D02*
D03*
X287723D02*
D03*
X338850Y284588D02*
D03*
X328850D02*
D03*
X318780Y266769D02*
D03*
X249182Y43352D02*
D03*
X239182D02*
D03*
D44*
X226510Y21484D02*
D03*
Y26547D02*
D03*
X-54675Y139126D02*
D03*
Y134062D02*
D03*
D45*
X55265Y305068D02*
D03*
X50264Y292068D02*
D03*
X60266D02*
D03*
X212351Y13167D02*
D03*
X217352Y26167D02*
D03*
X207350D02*
D03*
X219232Y278551D02*
D03*
X209230D02*
D03*
X214231Y291550D02*
D03*
X242467Y267809D02*
D03*
X274286D02*
D03*
X247469Y280808D02*
D03*
X252470Y267809D02*
D03*
X279287Y280808D02*
D03*
X284288Y267809D02*
D03*
D46*
X-36934Y90178D02*
D03*
Y100178D02*
D03*
X-1460Y75668D02*
D03*
Y65668D02*
D03*
X-49927Y74341D02*
D03*
Y64341D02*
D03*
X-28899Y98988D02*
D03*
Y108988D02*
D03*
X449724Y283648D02*
D03*
Y293648D02*
D03*
X43623Y52596D02*
D03*
Y42596D02*
D03*
X155565Y-25957D02*
D03*
Y-35957D02*
D03*
X-6440Y105864D02*
D03*
Y115863D02*
D03*
X215852Y-33174D02*
D03*
Y-43174D02*
D03*
X207800D02*
D03*
Y-33174D02*
D03*
X220676Y-2570D02*
D03*
Y7430D02*
D03*
X400451Y-14652D02*
D03*
Y-4652D02*
D03*
X410025Y-14652D02*
D03*
Y-4652D02*
D03*
X339090Y-38542D02*
D03*
Y-28542D02*
D03*
X27392Y180128D02*
D03*
Y190128D02*
D03*
X133615Y307055D02*
D03*
Y317055D02*
D03*
X347650Y296338D02*
D03*
Y286338D02*
D03*
X446960Y-28048D02*
D03*
Y-38048D02*
D03*
D47*
X319005Y287873D02*
D03*
Y277870D02*
D03*
X306005Y282871D02*
D03*
D48*
X98960Y-28086D02*
D03*
X113960D02*
D03*
X235201Y-56182D02*
D03*
X250201D02*
D03*
D49*
X-32744Y129993D02*
D03*
X-37808D02*
D03*
D50*
X458200Y-16249D02*
D03*
Y-51250D02*
D03*
Y270912D02*
D03*
Y305913D02*
D03*
D51*
X671200Y30458D02*
D03*
Y224458D02*
D03*
D52*
X101488Y-7055D02*
D03*
D53*
Y-48855D02*
D03*
X187990D02*
D03*
D54*
X115839Y-12056D02*
D03*
X173639D02*
D03*
D55*
X187990Y-7055D02*
D03*
D56*
X0Y0D02*
D03*
X0Y255258D02*
D03*
D57*
X-50405Y209897D02*
D03*
Y45897D02*
D03*
M02*
