G04*
G04 #@! TF.GenerationSoftware,Altium Limited,Altium Designer,22.2.1 (43)*
G04*
G04 Layer_Physical_Order=5*
G04 Layer_Color=16737945*
%FSLAX44Y44*%
%MOMM*%
G71*
G04*
G04 #@! TF.SameCoordinates,D676EA34-7746-482F-A41B-9349FDE20BFB*
G04*
G04*
G04 #@! TF.FilePolarity,Positive*
G04*
G01*
G75*
%ADD65C,0.2540*%
%ADD66C,0.5080*%
%ADD67C,0.3810*%
%ADD71C,1.5001*%
%ADD72C,2.5254*%
%ADD73O,1.0000X2.1001*%
%ADD74O,1.1001X1.7000*%
%ADD76C,3.8000*%
%ADD77C,0.5080*%
%ADD78C,0.7112*%
G36*
X476363Y326405D02*
Y248728D01*
X476521Y247935D01*
X476970Y247263D01*
X477642Y246814D01*
X478435Y246656D01*
X570609D01*
X578446Y237830D01*
Y237089D01*
X578486Y236889D01*
Y236685D01*
X579082Y233686D01*
X579161Y233497D01*
X579200Y233297D01*
X580370Y230473D01*
X580484Y230303D01*
X580562Y230114D01*
X582261Y227572D01*
X582405Y227428D01*
X582518Y227258D01*
X584680Y225096D01*
X584850Y224983D01*
X584994Y224839D01*
X587536Y223140D01*
X587725Y223062D01*
X587895Y222949D01*
X590719Y221779D01*
X590919Y221739D01*
X591108Y221661D01*
X594106Y221064D01*
X594311D01*
X594511Y221024D01*
X597568D01*
X597768Y221064D01*
X597972D01*
X600971Y221661D01*
X601160Y221739D01*
X601360Y221779D01*
X604184Y222949D01*
X604354Y223062D01*
X604543Y223140D01*
X607085Y224839D01*
X607229Y224983D01*
X607399Y225096D01*
X609561Y227258D01*
X609674Y227428D01*
X609818Y227572D01*
X611517Y230114D01*
X611595Y230303D01*
X611708Y230473D01*
X612878Y233297D01*
X612918Y233497D01*
X612996Y233686D01*
X613593Y236685D01*
Y236889D01*
X613633Y237089D01*
Y237886D01*
X620708Y246656D01*
X698941D01*
X701520Y244076D01*
Y212532D01*
X685996D01*
X685682Y212124D01*
X685056Y211457D01*
X657344Y211457D01*
X657344Y211457D01*
X656718Y212124D01*
X656403Y212532D01*
X631590D01*
X630797Y212374D01*
X630125Y211925D01*
X629676Y211253D01*
X629518Y210460D01*
Y44460D01*
X629676Y43667D01*
X630125Y42995D01*
X630797Y42546D01*
X631590Y42388D01*
X656404D01*
X656646Y42705D01*
X657265Y43373D01*
X685135Y43373D01*
X685135Y43373D01*
X685754Y42705D01*
X685996Y42388D01*
X701520D01*
X701520Y11304D01*
X698476Y8260D01*
X580564D01*
X572726Y17085D01*
Y17826D01*
X572687Y18026D01*
Y18230D01*
X572090Y21229D01*
X572012Y21418D01*
X571972Y21618D01*
X570802Y24443D01*
X570689Y24612D01*
X570611Y24801D01*
X568912Y27343D01*
X568768Y27487D01*
X568655Y27657D01*
X566493Y29819D01*
X566323Y29932D01*
X566179Y30076D01*
X563636Y31775D01*
X563448Y31853D01*
X563278Y31967D01*
X560453Y33136D01*
X560253Y33176D01*
X560065Y33254D01*
X557066Y33851D01*
X556862D01*
X556662Y33891D01*
X553605D01*
X553404Y33851D01*
X553200D01*
X550202Y33254D01*
X550013Y33176D01*
X549813Y33136D01*
X546988Y31967D01*
X546819Y31853D01*
X546630Y31775D01*
X544088Y30076D01*
X543944Y29932D01*
X543774Y29819D01*
X541612Y27657D01*
X541499Y27487D01*
X541354Y27343D01*
X539656Y24801D01*
X539578Y24612D01*
X539464Y24443D01*
X538294Y21618D01*
X538254Y21418D01*
X538176Y21229D01*
X537580Y18230D01*
Y18026D01*
X537540Y17826D01*
Y17029D01*
X530465Y8260D01*
X478435D01*
X477642Y8102D01*
X476970Y7653D01*
X476521Y6981D01*
X476363Y6188D01*
X476363Y-71490D01*
X98700D01*
X98335Y-71563D01*
X97968Y-71624D01*
X97641Y-71747D01*
X91938Y-71792D01*
X79811Y-71135D01*
X75631Y-70648D01*
X75705Y-69378D01*
X77198D01*
X78692Y-68759D01*
X79060Y-68391D01*
X80139Y-67882D01*
X80719Y-68391D01*
X81330Y-69002D01*
X82824Y-69621D01*
X84441D01*
X85935Y-69002D01*
X86871Y-68066D01*
X87105Y-67861D01*
X88415Y-67951D01*
X88898Y-68434D01*
X90392Y-69053D01*
X92008D01*
X93502Y-68434D01*
X94645Y-67291D01*
X95264Y-65797D01*
Y-64180D01*
X94645Y-62687D01*
X93502Y-61543D01*
X92008Y-60925D01*
X90392D01*
X88898Y-61543D01*
X87962Y-62480D01*
X87728Y-62685D01*
X86418Y-62595D01*
X85935Y-62112D01*
X84441Y-61493D01*
X82824D01*
X81330Y-62112D01*
X80962Y-62480D01*
X79883Y-62989D01*
X79303Y-62480D01*
X78692Y-61868D01*
X77198Y-61250D01*
X75581D01*
X74307Y-61778D01*
X73113Y-62214D01*
X71969Y-61071D01*
X70476Y-60452D01*
X68859D01*
X67365Y-61071D01*
X66726Y-61710D01*
X65614Y-60597D01*
X64120Y-59978D01*
X62503D01*
X61009Y-60597D01*
X60268Y-61339D01*
X59798Y-61245D01*
X58654Y-60102D01*
X57161Y-59483D01*
X55544D01*
X54050Y-60102D01*
X52907Y-61245D01*
X52288Y-62739D01*
Y-64355D01*
X52776Y-65532D01*
X52208Y-66437D01*
X51965Y-66642D01*
X43998Y-64693D01*
X32402Y-61082D01*
X21053Y-56761D01*
X9992Y-51746D01*
X-737Y-46055D01*
X-11094Y-39712D01*
X-21038Y-32740D01*
X-30531Y-25166D01*
X-39538Y-17018D01*
X-48022Y-8329D01*
X-55953Y869D01*
X-63300Y10539D01*
X-66319Y15071D01*
X-66319Y64360D01*
Y195678D01*
X-66319Y237957D01*
X-63322Y242291D01*
X-56047Y251622D01*
X-48250Y260522D01*
X-39958Y268961D01*
X-31197Y276913D01*
X-21995Y284350D01*
X-12384Y291250D01*
X-2393Y297589D01*
X7943Y303347D01*
X18592Y308504D01*
X29518Y313044D01*
X40685Y316952D01*
X52058Y320215D01*
X63599Y322823D01*
X75270Y324767D01*
X87033Y326041D01*
X92941Y326340D01*
X93077Y326374D01*
X93217Y326373D01*
X93392Y326406D01*
X476363Y326405D01*
D02*
G37*
%LPC*%
G36*
X37648Y296539D02*
X36031D01*
X34538Y295920D01*
X33394Y294777D01*
X32776Y293284D01*
Y291667D01*
X33394Y290173D01*
X34538Y289030D01*
X36031Y288411D01*
X37648D01*
X39142Y289030D01*
X40285Y290173D01*
X40904Y291667D01*
Y293284D01*
X40285Y294777D01*
X39142Y295920D01*
X37648Y296539D01*
D02*
G37*
G36*
X337188Y295707D02*
X335572D01*
X334078Y295088D01*
X332935Y293945D01*
X332316Y292451D01*
Y290834D01*
X332935Y289341D01*
X334078Y288197D01*
X335572Y287579D01*
X337188D01*
X338682Y288197D01*
X339825Y289341D01*
X340444Y290834D01*
Y292451D01*
X339825Y293945D01*
X338682Y295088D01*
X337188Y295707D01*
D02*
G37*
G36*
X73445Y294055D02*
X71828D01*
X70335Y293436D01*
X69192Y292293D01*
X68573Y290799D01*
Y289182D01*
X69192Y287689D01*
X70335Y286545D01*
X71828Y285927D01*
X73445D01*
X74939Y286545D01*
X76082Y287689D01*
X76701Y289182D01*
Y290799D01*
X76082Y292293D01*
X74939Y293436D01*
X73445Y294055D01*
D02*
G37*
G36*
X77154Y281539D02*
X75537D01*
X74043Y280920D01*
X72900Y279777D01*
X72281Y278283D01*
Y276666D01*
X72900Y275173D01*
X74043Y274029D01*
X75537Y273411D01*
X77154D01*
X78647Y274029D01*
X79791Y275173D01*
X80409Y276666D01*
Y278283D01*
X79791Y279777D01*
X78647Y280920D01*
X77154Y281539D01*
D02*
G37*
G36*
X48899Y274152D02*
X47282D01*
X45788Y273533D01*
X44645Y272390D01*
X44026Y270896D01*
Y270722D01*
X42756Y270196D01*
X42630Y270322D01*
X41136Y270941D01*
X39520D01*
X38026Y270322D01*
X36883Y269179D01*
X36264Y267685D01*
Y266068D01*
X36883Y264575D01*
X38026Y263431D01*
X39520Y262813D01*
X41136D01*
X42630Y263431D01*
X43773Y264575D01*
X44392Y266068D01*
Y266242D01*
X45662Y266768D01*
X45788Y266642D01*
X47282Y266024D01*
X48899D01*
X50392Y266642D01*
X51535Y267785D01*
X52154Y269279D01*
Y270896D01*
X51535Y272390D01*
X50392Y273533D01*
X48899Y274152D01*
D02*
G37*
G36*
X459388Y279936D02*
X457012D01*
X454717Y279321D01*
X452659Y278133D01*
X450979Y276453D01*
X449790Y274395D01*
X449175Y272100D01*
Y269724D01*
X449790Y267428D01*
X450979Y265371D01*
X452659Y263690D01*
X454717Y262502D01*
X457012Y261887D01*
X459388D01*
X461684Y262502D01*
X463741Y263690D01*
X465422Y265371D01*
X466610Y267428D01*
X467225Y269724D01*
Y272100D01*
X466610Y274395D01*
X465422Y276453D01*
X463741Y278133D01*
X461684Y279321D01*
X459388Y279936D01*
D02*
G37*
G36*
X311301Y304677D02*
X126866D01*
X125280Y304361D01*
X123935Y303463D01*
X82344Y261871D01*
X77858D01*
X77605Y263141D01*
X78612Y263558D01*
X79755Y264702D01*
X80374Y266195D01*
Y267812D01*
X79755Y269306D01*
X78612Y270449D01*
X77119Y271068D01*
X75502D01*
X74008Y270449D01*
X72865Y269306D01*
X72246Y267812D01*
Y266195D01*
X72865Y264702D01*
X74008Y263558D01*
X75015Y263141D01*
X74763Y261871D01*
X48090D01*
X46504Y261556D01*
X45160Y260658D01*
X5520Y221018D01*
X4622Y219673D01*
X4306Y218088D01*
Y212697D01*
X4292Y212640D01*
X4162Y212305D01*
X3036Y211654D01*
X2929Y211676D01*
X2788Y211582D01*
X2619D01*
X-26950Y199334D01*
X-28047Y199789D01*
X-28528Y200270D01*
X-28729Y201501D01*
X-28447Y201848D01*
X-27595Y202701D01*
X-26976Y204194D01*
Y205811D01*
X-27595Y207305D01*
X-28738Y208448D01*
X-28797Y208746D01*
X-28047Y209496D01*
X-27429Y210990D01*
Y212607D01*
X-28047Y214101D01*
X-29190Y215244D01*
X-30684Y215863D01*
X-32301D01*
X-33795Y215244D01*
X-34938Y214101D01*
X-35556Y212607D01*
Y210990D01*
X-35412Y210640D01*
X-36311Y209492D01*
X-37007Y209597D01*
X-37601Y210442D01*
Y212059D01*
X-38220Y213553D01*
X-39363Y214696D01*
X-40857Y215315D01*
X-42474D01*
X-43967Y214696D01*
X-45110Y213553D01*
X-45227Y213271D01*
X-45300Y213228D01*
X-46685Y213070D01*
X-47644Y214029D01*
X-49435Y214771D01*
X-51374D01*
X-53166Y214029D01*
X-54537Y212658D01*
X-55279Y210866D01*
Y208927D01*
X-54537Y207136D01*
X-53166Y205765D01*
X-51374Y205023D01*
X-49435D01*
X-47644Y205765D01*
X-46273Y207136D01*
X-45928Y207970D01*
X-44429Y208268D01*
X-43967Y207805D01*
X-42856Y207345D01*
X-41991Y206114D01*
Y204497D01*
X-41372Y203004D01*
X-40631Y202262D01*
X-40542Y201160D01*
X-40742Y200714D01*
X-41061Y200395D01*
X-41946Y199949D01*
X-42720Y200395D01*
X-43308Y200982D01*
X-44802Y201601D01*
X-46418D01*
X-47912Y200982D01*
X-49055Y199839D01*
X-49674Y198345D01*
Y196729D01*
X-49055Y195235D01*
X-47912Y194092D01*
X-46418Y193473D01*
X-44802D01*
X-43308Y194092D01*
X-42771Y194629D01*
X-42567Y194731D01*
X-42149Y194413D01*
X-42337Y192961D01*
X-44266Y192161D01*
X-44462Y191966D01*
X-44723Y191877D01*
X-44891Y191537D01*
X-45159Y191269D01*
Y190993D01*
X-45281Y190745D01*
X-45343Y189795D01*
X-46622D01*
X-48116Y189176D01*
X-49259Y188033D01*
X-49878Y186539D01*
X-50891Y186332D01*
X-51265Y186178D01*
X-51668Y186138D01*
X-51827Y185945D01*
X-52057Y185849D01*
X-54329Y183578D01*
X-54812Y182412D01*
X-54812Y171391D01*
X-54329Y170224D01*
X-49727Y165622D01*
X-50064Y164520D01*
X-50272Y164300D01*
X-51312Y163869D01*
X-57902Y157279D01*
X-58385Y156113D01*
Y99643D01*
X-57902Y98477D01*
X-51041Y91616D01*
X-50821Y91525D01*
X-50672Y91338D01*
X-50259Y91292D01*
X-49875Y91133D01*
X-48823Y90396D01*
X-48265Y89049D01*
X-47122Y87906D01*
X-45628Y87287D01*
X-45038Y86296D01*
X-44879Y85912D01*
X-44833Y85499D01*
X-44646Y85350D01*
X-44555Y85129D01*
X-43056Y83631D01*
X-43278Y83408D01*
X-43897Y81915D01*
Y80298D01*
X-43278Y78804D01*
X-44107Y77836D01*
X-44546Y77654D01*
X-45690Y76511D01*
X-46308Y75017D01*
Y73401D01*
X-45690Y71907D01*
X-44546Y70764D01*
X-43053Y70145D01*
X-41436D01*
X-39942Y70764D01*
X-38799Y71907D01*
X-38180Y73401D01*
Y75017D01*
X-38589Y76003D01*
X-37826Y77197D01*
X-36778Y77352D01*
X-33826Y74401D01*
X-33826Y74401D01*
X-9513Y50087D01*
X-9068Y49903D01*
X-8668Y49636D01*
X-8502Y49669D01*
X-8346Y49604D01*
X-7902Y49788D01*
X-7430Y49882D01*
X-6574Y50454D01*
X-5631Y50642D01*
X-4689Y50454D01*
X-3891Y49921D01*
X-3357Y49122D01*
X-3170Y48180D01*
X-3357Y47238D01*
X-3929Y46382D01*
X-4023Y45910D01*
X-4207Y45465D01*
X-4143Y45309D01*
X-4175Y45143D01*
X-3908Y44743D01*
X-3728Y44308D01*
X-3744Y44270D01*
X-4456Y43235D01*
X-5631Y43722D01*
X-7248D01*
X-8742Y43103D01*
X-9885Y41960D01*
X-10504Y40466D01*
Y38849D01*
X-9885Y37356D01*
X-8742Y36213D01*
X-7248Y35594D01*
X-5631D01*
X-4138Y36213D01*
X-2995Y37356D01*
X-2376Y38849D01*
Y40466D01*
X-2863Y41641D01*
X-1786Y42361D01*
X23917Y16658D01*
X25083Y16175D01*
X25152Y14905D01*
X25038Y14628D01*
Y13012D01*
X25656Y11518D01*
X26800Y10375D01*
X28293Y9756D01*
X29910D01*
X31404Y10375D01*
X32547Y11518D01*
X33166Y13012D01*
Y14628D01*
X33051Y14905D01*
X33900Y16175D01*
X105270D01*
X105714Y16359D01*
X106186Y16453D01*
X106280Y16594D01*
X106436Y16658D01*
X106620Y17103D01*
X106888Y17503D01*
X107134Y18741D01*
X107668Y19540D01*
X108466Y20074D01*
X109408Y20261D01*
X110351Y20074D01*
X111149Y19540D01*
X111683Y18741D01*
X111929Y17503D01*
X112197Y17103D01*
X112381Y16658D01*
X112537Y16594D01*
X112631Y16453D01*
X113103Y16359D01*
X113547Y16175D01*
X122464D01*
X122510Y16156D01*
X123036Y14887D01*
X124179Y13744D01*
X125673Y13125D01*
X127290D01*
X128783Y13744D01*
X129927Y14887D01*
X130452Y16156D01*
X130499Y16175D01*
X155361D01*
X155806Y16359D01*
X156278Y16453D01*
X156372Y16594D01*
X156528Y16658D01*
X156712Y17103D01*
X156979Y17503D01*
X157226Y18741D01*
X157759Y19540D01*
X158558Y20074D01*
X159500Y20261D01*
X160442Y20074D01*
X161241Y19540D01*
X161774Y18741D01*
X162021Y17503D01*
X162288Y17103D01*
X162472Y16658D01*
X162628Y16594D01*
X162722Y16453D01*
X163194Y16359D01*
X163639Y16175D01*
X195543D01*
X201047Y10671D01*
X200925Y10055D01*
X199781Y8911D01*
X199679Y8665D01*
X198305D01*
X198202Y8911D01*
X197059Y10055D01*
X195565Y10673D01*
X193949D01*
X192455Y10055D01*
X191312Y8911D01*
X190693Y7418D01*
Y5801D01*
X190712Y5754D01*
X189740Y4782D01*
X189693Y4802D01*
X187990Y5026D01*
X186287Y4802D01*
X185100Y4310D01*
X181276Y8160D01*
X180699Y8401D01*
X180116Y8647D01*
X109415Y9102D01*
X109413Y9101D01*
X109410Y9102D01*
X108831Y8864D01*
X108246Y8626D01*
X108245Y8624D01*
X108242Y8623D01*
X104042Y4449D01*
X103191Y4802D01*
X101488Y5026D01*
X99785Y4802D01*
X98198Y4144D01*
X96835Y3099D01*
X95789Y1736D01*
X95132Y149D01*
X94908Y-1554D01*
Y-12555D01*
X95132Y-14258D01*
X95789Y-15845D01*
X96835Y-17208D01*
X98198Y-18254D01*
X99785Y-18911D01*
X100638Y-19023D01*
Y-38883D01*
X99654Y-39012D01*
X97945Y-39720D01*
X96478Y-40846D01*
X95352Y-42313D01*
X94644Y-44022D01*
X94403Y-45856D01*
Y-51855D01*
X94644Y-53689D01*
X95352Y-55398D01*
X96478Y-56865D01*
X97945Y-57991D01*
X99654Y-58699D01*
X101488Y-58940D01*
X103322Y-58699D01*
X104806Y-58084D01*
X109219Y-62496D01*
X110385Y-62979D01*
X180337Y-62979D01*
X181503Y-62496D01*
X185551Y-58448D01*
X186157Y-58699D01*
X187990Y-58940D01*
X189824Y-58699D01*
X191533Y-57991D01*
X191852Y-57746D01*
X192990Y-58308D01*
Y-63353D01*
X193474Y-64519D01*
X197694Y-68739D01*
X198860Y-69222D01*
X211967D01*
X212411Y-69038D01*
X212883Y-68944D01*
X212977Y-68804D01*
X213133Y-68739D01*
X213318Y-68295D01*
X213585Y-67895D01*
X213757Y-67028D01*
X214291Y-66230D01*
X215089Y-65696D01*
X216031Y-65509D01*
X216973Y-65696D01*
X217772Y-66230D01*
X217825Y-66309D01*
X217966Y-66403D01*
X218030Y-66559D01*
X218475Y-66743D01*
X218875Y-67010D01*
X219041Y-66977D01*
X219197Y-67042D01*
X220724D01*
X220880Y-66977D01*
X221046Y-67010D01*
X221446Y-66743D01*
X221890Y-66559D01*
X221955Y-66403D01*
X222096Y-66309D01*
X222148Y-66230D01*
X222947Y-65696D01*
X223889Y-65509D01*
X224831Y-65696D01*
X225630Y-66230D01*
X226164Y-67028D01*
X226336Y-67895D01*
X226603Y-68295D01*
X226787Y-68739D01*
X226943Y-68804D01*
X227037Y-68944D01*
X227509Y-69038D01*
X227954Y-69222D01*
X244036D01*
X244480Y-69038D01*
X244952Y-68944D01*
X245046Y-68804D01*
X245202Y-68739D01*
X245386Y-68295D01*
X245653Y-67895D01*
X245826Y-67028D01*
X246359Y-66230D01*
X247158Y-65696D01*
X248100Y-65509D01*
X249042Y-65696D01*
X249915Y-66279D01*
X250263Y-66348D01*
X250564Y-66536D01*
X251373Y-66668D01*
X251510Y-66636D01*
X251640Y-66690D01*
X251660D01*
X251790Y-66636D01*
X251927Y-66668D01*
X252736Y-66536D01*
X253037Y-66348D01*
X253385Y-66279D01*
X254258Y-65696D01*
X255200Y-65509D01*
X256142Y-65696D01*
X256941Y-66230D01*
X257474Y-67028D01*
X257647Y-67895D01*
X257914Y-68295D01*
X258098Y-68739D01*
X258254Y-68804D01*
X258348Y-68944D01*
X258820Y-69038D01*
X259265Y-69222D01*
X272236D01*
X272680Y-69038D01*
X273152Y-68944D01*
X273246Y-68804D01*
X273402Y-68739D01*
X273586Y-68295D01*
X273853Y-67895D01*
X274026Y-67028D01*
X274559Y-66230D01*
X275358Y-65696D01*
X276300Y-65509D01*
X277242Y-65696D01*
X278041Y-66230D01*
X278574Y-67028D01*
X278747Y-67895D01*
X279014Y-68295D01*
X279198Y-68739D01*
X279354Y-68804D01*
X279448Y-68944D01*
X279920Y-69038D01*
X280365Y-69222D01*
X303516D01*
X303961Y-69038D01*
X304433Y-68944D01*
X304526Y-68804D01*
X304682Y-68739D01*
X304867Y-68295D01*
X305134Y-67895D01*
X305306Y-67028D01*
X305840Y-66230D01*
X306639Y-65696D01*
X307581Y-65509D01*
X308523Y-65696D01*
X309321Y-66230D01*
X309855Y-67028D01*
X310027Y-67894D01*
X310295Y-68294D01*
X310480Y-68739D01*
X310635Y-68804D01*
X310728Y-68943D01*
X311201Y-69037D01*
X311646Y-69221D01*
X323453Y-69209D01*
X324053Y-68960D01*
X324618Y-68726D01*
X328067Y-65273D01*
X328307Y-64694D01*
X328550Y-64108D01*
Y-54086D01*
X328066Y-52920D01*
X328051Y-52905D01*
X328537Y-51731D01*
X331422D01*
X332002Y-51491D01*
X332584Y-51253D01*
X349653Y-34331D01*
X349895Y-33752D01*
X350141Y-33174D01*
X350297Y-15078D01*
X350346Y-15029D01*
X350829Y-13863D01*
Y25586D01*
X350830Y46525D01*
X350849Y48789D01*
X350848Y48793D01*
X350849Y48796D01*
X350611Y49377D01*
X350376Y49960D01*
X350373Y49961D01*
X350371Y49964D01*
X335078Y65390D01*
X334703Y65547D01*
X334389Y65806D01*
X334142Y65782D01*
X333914Y65878D01*
X333537Y65724D01*
X333132Y65685D01*
X331961Y65062D01*
X331702Y64749D01*
X331364Y64523D01*
X331316Y64279D01*
X331158Y64088D01*
X331197Y63683D01*
X331118Y63284D01*
X331283Y62453D01*
X331096Y61511D01*
X330562Y60713D01*
X329763Y60179D01*
X328821Y59992D01*
X327879Y60179D01*
X327080Y60713D01*
X326547Y61511D01*
X326359Y62453D01*
X326547Y63396D01*
X327263Y64467D01*
X327357Y64939D01*
X327541Y65384D01*
Y66428D01*
X327357Y66873D01*
X327263Y67345D01*
X326547Y68416D01*
X326359Y69358D01*
X326547Y70300D01*
X327263Y71372D01*
X327341Y71767D01*
X327532Y72122D01*
X327535Y72145D01*
X327510Y72226D01*
X327543Y72304D01*
X327479Y72460D01*
X327509Y72610D01*
X327302Y72920D01*
X327172Y73354D01*
X327097Y73394D01*
X327065Y73473D01*
X318084Y82531D01*
X318081Y82533D01*
X318079Y82536D01*
X317501Y82776D01*
X316920Y83020D01*
X316916Y83018D01*
X316913Y83020D01*
X299997D01*
X299963Y83006D01*
X299930Y83018D01*
X299385Y82766D01*
X298830Y82536D01*
X298817Y82503D01*
X298784Y82488D01*
X297772Y81391D01*
X297565Y80827D01*
X297336Y80273D01*
Y79701D01*
X297520Y79257D01*
X297614Y78785D01*
X298330Y77713D01*
X298517Y76771D01*
X298330Y75829D01*
X297614Y74758D01*
X297520Y74286D01*
X297336Y73841D01*
Y72796D01*
X297520Y72352D01*
X297614Y71880D01*
X298330Y70808D01*
X298517Y69866D01*
X298330Y68924D01*
X297796Y68126D01*
X296997Y67592D01*
X296055Y67404D01*
X295113Y67592D01*
X294314Y68126D01*
X293781Y68924D01*
X293594Y69866D01*
X293781Y70808D01*
X294497Y71880D01*
X294591Y72352D01*
X294775Y72796D01*
Y73841D01*
X294591Y74286D01*
X294497Y74758D01*
X293781Y75829D01*
X293594Y76771D01*
X293781Y77713D01*
X294497Y78785D01*
X294615Y79377D01*
X294754Y79964D01*
X294531Y81343D01*
X294343Y81646D01*
X294274Y81996D01*
X294080Y82287D01*
X293939Y82380D01*
X293875Y82536D01*
X293430Y82721D01*
X293030Y82988D01*
X292864Y82955D01*
X292708Y83020D01*
X268098D01*
X268080Y83012D01*
X268061Y83019D01*
X267499Y82771D01*
X266931Y82536D01*
X266924Y82518D01*
X266906Y82510D01*
X265789Y81343D01*
X265567Y80770D01*
X265332Y80203D01*
Y79955D01*
X265516Y79510D01*
X265610Y79039D01*
X266326Y77967D01*
X266513Y77025D01*
X266326Y76083D01*
X265610Y75012D01*
X265516Y74540D01*
X265332Y74095D01*
Y73050D01*
X265516Y72606D01*
X265610Y72134D01*
X266326Y71062D01*
X266513Y70120D01*
X266326Y69178D01*
X265792Y68380D01*
X264993Y67846D01*
X264051Y67659D01*
X263109Y67846D01*
X262311Y68380D01*
X261777Y69178D01*
X261590Y70120D01*
X261777Y71062D01*
X262493Y72134D01*
X262587Y72606D01*
X262771Y73050D01*
Y74095D01*
X262587Y74540D01*
X262493Y75012D01*
X261777Y76083D01*
X261590Y77025D01*
X261777Y77967D01*
X262493Y79039D01*
X262611Y79631D01*
X262750Y80218D01*
X262527Y81597D01*
X262339Y81900D01*
X262270Y82250D01*
X262245Y82287D01*
X262105Y82381D01*
X262040Y82536D01*
X261915Y82589D01*
X261864Y82671D01*
X261563Y82742D01*
X261195Y82988D01*
X261030Y82955D01*
X260874Y83020D01*
X165560Y83020D01*
X165404Y82955D01*
X165238Y82988D01*
X164603Y82862D01*
X163967Y82988D01*
X163801Y82955D01*
X163645Y83020D01*
X127353D01*
X127101Y84290D01*
X127748Y84558D01*
X128891Y85701D01*
X129510Y87194D01*
Y88811D01*
X128891Y90305D01*
X127748Y91448D01*
X126254Y92067D01*
X124637D01*
X123144Y91448D01*
X122000Y90305D01*
X121382Y88811D01*
Y87194D01*
X122000Y85701D01*
X123144Y84558D01*
X123791Y84290D01*
X123538Y83020D01*
X76331D01*
X38677Y120674D01*
X33215Y126136D01*
X33034Y126210D01*
X32921Y126369D01*
X32470Y126444D01*
X32048Y126619D01*
X31868Y126544D01*
X31675Y126576D01*
X30218Y126237D01*
X29724Y125884D01*
X29220Y125547D01*
X28779Y124888D01*
X27981Y124355D01*
X27039Y124167D01*
X26097Y124355D01*
X25298Y124888D01*
X24764Y125687D01*
X24577Y126629D01*
X24764Y127571D01*
X25298Y128370D01*
X25957Y128810D01*
X26293Y129314D01*
X26647Y129808D01*
X26985Y131266D01*
X26953Y131459D01*
X27028Y131639D01*
X26854Y132061D01*
X26779Y132511D01*
X26620Y132625D01*
X26545Y132805D01*
X21018Y138333D01*
X20938Y138366D01*
X20897Y138442D01*
X20365Y138603D01*
X19851Y138816D01*
X19030Y139701D01*
Y140261D01*
X18412Y141755D01*
X17268Y142898D01*
X15775Y143517D01*
X15214D01*
X14329Y144338D01*
X14117Y144852D01*
X13956Y145384D01*
X13879Y145424D01*
X13846Y145505D01*
X6702Y152649D01*
X6327Y152804D01*
X6014Y153061D01*
X5766Y153036D01*
X5535Y153132D01*
X5161Y152977D01*
X4758Y152937D01*
X4090Y152580D01*
X3758Y152699D01*
X2615Y153842D01*
X1121Y154461D01*
X-496D01*
X-1989Y153842D01*
X-2668Y153164D01*
X-3931Y153168D01*
X-4847Y153446D01*
X-4975Y153393D01*
X-5080Y153414D01*
X-6068Y153610D01*
X-6867Y154144D01*
X-7400Y154943D01*
X-7588Y155885D01*
X-7400Y156827D01*
X-6867Y157625D01*
X-6068Y158159D01*
X-5126Y158346D01*
X-5049Y158331D01*
X-4652Y158410D01*
X-4248Y158371D01*
X-4056Y158529D01*
X-3811Y158577D01*
X-3586Y158914D01*
X-3273Y159171D01*
X-2647Y160342D01*
X-2607Y160745D01*
X-2452Y161119D01*
X-2501Y161237D01*
X-2284Y161840D01*
X-1626Y162507D01*
X16858D01*
X76934Y102431D01*
X77088Y102367D01*
X76624Y101247D01*
Y99630D01*
X77242Y98137D01*
X78385Y96994D01*
X79879Y96375D01*
X81496D01*
X82990Y96994D01*
X83238Y97242D01*
X83369Y97335D01*
X84385Y97860D01*
X84899Y97647D01*
X85389Y97384D01*
X85472Y97409D01*
X85551Y97376D01*
X161334D01*
X161467Y97432D01*
X161608Y97400D01*
X162035Y97667D01*
X162500Y97860D01*
X162555Y97993D01*
X162678Y98070D01*
X162950Y98452D01*
X163007Y98701D01*
X163173Y98895D01*
X163464Y99783D01*
X163456Y99887D01*
X163514Y99974D01*
X163409Y100503D01*
X163368Y101041D01*
X163288Y101110D01*
X163268Y101213D01*
X162717Y102037D01*
X162530Y102979D01*
X162717Y103921D01*
X163181Y104615D01*
X163246Y104946D01*
X163431Y105230D01*
X163592Y106098D01*
X163528Y106399D01*
X163592Y106701D01*
X163431Y107569D01*
X163246Y107852D01*
X163181Y108184D01*
X162717Y108878D01*
X162530Y109820D01*
X162717Y110762D01*
X163251Y111561D01*
X164049Y112094D01*
X164991Y112282D01*
X165933Y112094D01*
X166732Y111561D01*
X167266Y110762D01*
X167453Y109820D01*
X167266Y108878D01*
X166802Y108184D01*
X166736Y107852D01*
X166552Y107569D01*
X166390Y106701D01*
X166454Y106399D01*
X166390Y106098D01*
X166552Y105230D01*
X166736Y104946D01*
X166802Y104615D01*
X167266Y103921D01*
X167453Y102979D01*
X167266Y102037D01*
X166715Y101213D01*
X166694Y101110D01*
X166615Y101041D01*
X166574Y100504D01*
X166469Y99974D01*
X166527Y99887D01*
X166519Y99783D01*
X166810Y98895D01*
X166976Y98701D01*
X167033Y98452D01*
X167305Y98070D01*
X167427Y97993D01*
X167482Y97860D01*
X167948Y97667D01*
X168375Y97399D01*
X168515Y97432D01*
X168649Y97376D01*
X261558Y97376D01*
X261933Y97532D01*
X262336Y97571D01*
X262494Y97764D01*
X262725Y97860D01*
X262880Y98234D01*
X263137Y98547D01*
X263388Y99373D01*
X264715D01*
X264965Y98547D01*
X265222Y98234D01*
X265378Y97860D01*
X265608Y97764D01*
X265766Y97571D01*
X266170Y97532D01*
X266544Y97376D01*
X293182D01*
X293557Y97532D01*
X293960Y97571D01*
X294118Y97764D01*
X294349Y97860D01*
X294504Y98234D01*
X294761Y98547D01*
X295146Y99817D01*
X295107Y100220D01*
X295186Y100618D01*
X295047Y100825D01*
X295022Y101074D01*
X294709Y101331D01*
X294484Y101668D01*
X294314Y101781D01*
X293781Y102580D01*
X293594Y103522D01*
X293781Y104464D01*
X294497Y105535D01*
X294591Y106007D01*
X294775Y106452D01*
Y107497D01*
X294591Y107941D01*
X294497Y108413D01*
X293781Y109484D01*
X293594Y110426D01*
X293781Y111369D01*
X294314Y112167D01*
X295113Y112701D01*
X296055Y112888D01*
X296997Y112701D01*
X297796Y112167D01*
X298330Y111369D01*
X298517Y110426D01*
X298330Y109484D01*
X297614Y108413D01*
X297520Y107941D01*
X297336Y107497D01*
Y106452D01*
X297520Y106007D01*
X297614Y105535D01*
X298330Y104464D01*
X298517Y103522D01*
X298330Y102580D01*
X297796Y101781D01*
X297626Y101668D01*
X297401Y101331D01*
X297088Y101074D01*
X297064Y100825D01*
X296925Y100618D01*
X297004Y100220D01*
X296964Y99817D01*
X297350Y98547D01*
X297607Y98234D01*
X297762Y97860D01*
X297992Y97764D01*
X298151Y97571D01*
X298554Y97532D01*
X298928Y97376D01*
X321968D01*
X323750Y95595D01*
X323829Y95562D01*
X323870Y95487D01*
X324402Y95325D01*
X324916Y95112D01*
X324995Y95145D01*
X325078Y95120D01*
X325499Y95162D01*
X325856Y95353D01*
X326254Y95432D01*
X327661Y96372D01*
X328999Y96638D01*
X330338Y96372D01*
X331473Y95614D01*
X332231Y94479D01*
X332497Y93141D01*
X332231Y91802D01*
X331291Y90395D01*
X331211Y89997D01*
X331020Y89640D01*
X330979Y89219D01*
X331004Y89137D01*
X330971Y89057D01*
X331184Y88543D01*
X331345Y88011D01*
X331421Y87970D01*
X331454Y87891D01*
X361596Y57749D01*
Y-62327D01*
X362079Y-63493D01*
X364099Y-65513D01*
X365266Y-65996D01*
X374968D01*
X375412Y-65812D01*
X375884Y-65718D01*
X376678Y-65188D01*
X377620Y-65001D01*
X378562Y-65188D01*
X379356Y-65718D01*
X379828Y-65812D01*
X380272Y-65996D01*
X390420D01*
X390864Y-65812D01*
X391336Y-65718D01*
X392130Y-65188D01*
X393072Y-65001D01*
X394014Y-65188D01*
X394808Y-65718D01*
X395280Y-65812D01*
X395724Y-65996D01*
X403400D01*
X403845Y-65812D01*
X404316Y-65718D01*
X405110Y-65188D01*
X406052Y-65001D01*
X406994Y-65188D01*
X407788Y-65718D01*
X408260Y-65812D01*
X408705Y-65996D01*
X444308D01*
X445474Y-65513D01*
X448461Y-62526D01*
X448945Y-61359D01*
Y-55808D01*
X450215Y-55468D01*
X450979Y-56791D01*
X452659Y-58472D01*
X454717Y-59660D01*
X457012Y-60275D01*
X459388D01*
X461684Y-59660D01*
X463741Y-58472D01*
X465422Y-56791D01*
X466610Y-54734D01*
X467225Y-52438D01*
Y-50062D01*
X466610Y-47767D01*
X465422Y-45709D01*
X463741Y-44029D01*
X461684Y-42841D01*
X459388Y-42226D01*
X457012D01*
X454717Y-42841D01*
X452659Y-44029D01*
X450979Y-45709D01*
X450215Y-47032D01*
X448945Y-46692D01*
Y-20807D01*
X450215Y-20467D01*
X450979Y-21790D01*
X452659Y-23470D01*
X454717Y-24659D01*
X457012Y-25274D01*
X459388D01*
X461684Y-24659D01*
X463741Y-23470D01*
X465422Y-21790D01*
X466610Y-19732D01*
X467225Y-17437D01*
Y-15061D01*
X466610Y-12766D01*
X465422Y-10708D01*
X463741Y-9028D01*
X461684Y-7839D01*
X459388Y-7224D01*
X457012D01*
X454717Y-7839D01*
X452659Y-9028D01*
X450979Y-10708D01*
X450215Y-12031D01*
X448945Y-11691D01*
Y-2243D01*
Y5214D01*
X448461Y6380D01*
X388445Y66397D01*
Y74469D01*
X388260Y74914D01*
X388167Y75386D01*
X387659Y76145D01*
X387472Y77087D01*
X387659Y78029D01*
X388167Y78788D01*
X388260Y79260D01*
X388445Y79705D01*
Y80396D01*
X389618Y80882D01*
X415930Y54570D01*
X417274Y53672D01*
X418860Y53356D01*
X509752D01*
X511337Y53672D01*
X512682Y54570D01*
X536730Y78618D01*
X536921Y78905D01*
X538673Y80656D01*
X539851D01*
X540252Y80736D01*
X540660D01*
X541037Y80892D01*
X541437Y80972D01*
X541776Y81199D01*
X542153Y81355D01*
X542442Y81643D01*
X542781Y81870D01*
X543008Y82209D01*
X543297Y82498D01*
X543453Y82875D01*
X543680Y83214D01*
X543759Y83615D01*
X543915Y83992D01*
Y84400D01*
X543995Y84800D01*
X543915Y85200D01*
Y85608D01*
X543759Y85985D01*
X543680Y86386D01*
X543453Y86725D01*
X543297Y87102D01*
X543008Y87391D01*
X542781Y87730D01*
X542442Y87957D01*
X542153Y88245D01*
X541776Y88401D01*
X541437Y88628D01*
X541037Y88708D01*
X540660Y88864D01*
X540252D01*
X539851Y88944D01*
X536957D01*
X535371Y88628D01*
X534027Y87730D01*
X530870Y84573D01*
X530679Y84287D01*
X508035Y61644D01*
X420576D01*
X390939Y91281D01*
Y225039D01*
X390623Y226625D01*
X389725Y227969D01*
X314231Y303463D01*
X312887Y304361D01*
X311301Y304677D01*
D02*
G37*
G36*
X379958Y323274D02*
X376356Y322929D01*
X372862Y321988D01*
X369573Y320478D01*
X366583Y318441D01*
X363974Y315934D01*
X361820Y313026D01*
X361000Y311413D01*
Y298106D01*
X368737Y272181D01*
X438483Y202434D01*
X448647Y195043D01*
X493840D01*
X493840Y195042D01*
X493840Y195042D01*
X495757Y195878D01*
X499200Y198255D01*
X502122Y201249D01*
X504414Y204748D01*
X505992Y208623D01*
X506795Y212728D01*
X506795Y216912D01*
X505992Y221017D01*
X504414Y224892D01*
X502122Y228391D01*
X499200Y231385D01*
X495758Y233762D01*
X493840Y234598D01*
X472830Y234598D01*
X453574Y242574D01*
X402103Y294044D01*
X397219Y305834D01*
X397219Y314879D01*
X397218Y314879D01*
X396108Y316308D01*
X393441Y318754D01*
X390404Y320721D01*
X387082Y322154D01*
X383567Y323013D01*
X379958Y323274D01*
D02*
G37*
G36*
X28148Y143982D02*
X26531D01*
X25037Y143363D01*
X23894Y142220D01*
X23275Y140726D01*
Y139109D01*
X23894Y137616D01*
X25037Y136472D01*
X26531Y135854D01*
X28148D01*
X29642Y136472D01*
X30051Y136882D01*
X31074Y136249D01*
X31145Y136180D01*
Y134588D01*
X31764Y133094D01*
X32907Y131951D01*
X34401Y131332D01*
X36018D01*
X36647Y131593D01*
X37366Y130516D01*
X36590Y129740D01*
X35971Y128246D01*
Y126629D01*
X36590Y125135D01*
X37733Y123992D01*
X39227Y123374D01*
X40844D01*
X42337Y123992D01*
X43481Y125135D01*
X44099Y126629D01*
Y128246D01*
X43481Y129740D01*
X42337Y130883D01*
X40844Y131502D01*
X39227D01*
X38597Y131241D01*
X37878Y132317D01*
X38654Y133094D01*
X39273Y134588D01*
Y136205D01*
X38654Y137698D01*
X37511Y138841D01*
X36018Y139460D01*
X34401D01*
X32907Y138841D01*
X32497Y138432D01*
X31475Y139065D01*
X31404Y139134D01*
Y140726D01*
X30785Y142220D01*
X29642Y143363D01*
X28148Y143982D01*
D02*
G37*
G36*
X588259Y198365D02*
X587006Y198116D01*
X585826Y197627D01*
X584764Y196917D01*
X583860Y196014D01*
X583151Y194951D01*
X582662Y193771D01*
X582412Y192518D01*
Y191879D01*
X582351Y190635D01*
X581866Y188193D01*
X580913Y185893D01*
X579530Y183823D01*
X577769Y182062D01*
X575699Y180679D01*
X573399Y179726D01*
X570957Y179241D01*
X569712Y179179D01*
X565250D01*
Y179179D01*
X411833Y179179D01*
X410381Y177336D01*
X408178Y173195D01*
X406746Y168728D01*
X406130Y164078D01*
X406349Y159392D01*
X407397Y154820D01*
X409239Y150506D01*
X411818Y146588D01*
X413435Y144889D01*
X565250Y144889D01*
Y144889D01*
X568467D01*
X569711Y144828D01*
X572153Y144343D01*
X574453Y143390D01*
X576523Y142007D01*
X578284Y140246D01*
X579667Y138176D01*
X580620Y135876D01*
X581105Y133434D01*
X581167Y132189D01*
X581167Y130996D01*
X581167Y130996D01*
X581167Y130244D01*
X581460Y128770D01*
X582035Y127381D01*
X582870Y126131D01*
X583933Y125069D01*
X585183Y124233D01*
X586572Y123658D01*
X588046Y123365D01*
X588798Y123365D01*
X605505D01*
X606449Y123365D01*
X608301Y123733D01*
X610045Y124456D01*
X611615Y125505D01*
X612950Y126840D01*
X613999Y128410D01*
X614722Y130154D01*
X615090Y132006D01*
X615090Y132950D01*
X615090Y191145D01*
X615090Y191145D01*
X615090Y191145D01*
X615090Y191147D01*
X615090Y191856D01*
X614996Y192328D01*
X614813Y193251D01*
X614268Y194565D01*
X613478Y195747D01*
X612473Y196753D01*
X611290Y197543D01*
X609977Y198087D01*
X608582Y198365D01*
X607871Y198365D01*
X588259Y198365D01*
D02*
G37*
G36*
X508911Y122770D02*
X507199D01*
X412974Y122769D01*
X411573Y121799D01*
X409119Y119435D01*
X407075Y116708D01*
X405494Y113689D01*
X404417Y110457D01*
X403871Y107093D01*
X403871Y103685D01*
X404417Y100322D01*
X405494Y97089D01*
X407076Y94070D01*
X409120Y91344D01*
X411574Y88980D01*
X412974Y88010D01*
X507199Y88010D01*
X507199Y88010D01*
X507199Y88010D01*
X508911Y88010D01*
X512269Y88677D01*
X515432Y89987D01*
X518278Y91890D01*
X520699Y94310D01*
X522601Y97157D01*
X523911Y100320D01*
X524579Y103678D01*
X524579Y107101D01*
X523911Y110459D01*
X522601Y113622D01*
X520699Y116469D01*
X518279Y118890D01*
X515432Y120792D01*
X512269Y122102D01*
X508911Y122770D01*
D02*
G37*
G36*
X449538Y51434D02*
X447922D01*
X446428Y50815D01*
X445449Y49836D01*
X444470Y50815D01*
X442977Y51434D01*
X441360D01*
X439866Y50815D01*
X438723Y49672D01*
X438104Y48178D01*
Y46561D01*
X438723Y45068D01*
X439866Y43924D01*
X441360Y43306D01*
X442977D01*
X444470Y43924D01*
X445449Y44903D01*
X446428Y43924D01*
X447922Y43306D01*
X449538D01*
X451032Y43924D01*
X452175Y45068D01*
X452794Y46561D01*
Y48178D01*
X452175Y49672D01*
X451032Y50815D01*
X449538Y51434D01*
D02*
G37*
G36*
X-49435Y50771D02*
X-51374D01*
X-53166Y50029D01*
X-54537Y48658D01*
X-55279Y46866D01*
Y44927D01*
X-54537Y43136D01*
X-53166Y41765D01*
X-51374Y41023D01*
X-49435D01*
X-47644Y41765D01*
X-46273Y43136D01*
X-45531Y44927D01*
Y46866D01*
X-46273Y48658D01*
X-47644Y50029D01*
X-49435Y50771D01*
D02*
G37*
G36*
X-28611Y49209D02*
X-30228D01*
X-31721Y48591D01*
X-32865Y47448D01*
X-33483Y45954D01*
Y44337D01*
X-32865Y42843D01*
X-31721Y41700D01*
X-30228Y41081D01*
X-28611D01*
X-27738Y40068D01*
X-27755Y40028D01*
Y38411D01*
X-27136Y36917D01*
X-25993Y35774D01*
X-24499Y35155D01*
X-22882D01*
X-21389Y35774D01*
X-20245Y36917D01*
X-19627Y38411D01*
Y40028D01*
X-20245Y41522D01*
X-21389Y42665D01*
X-22882Y43283D01*
X-24499D01*
X-25372Y44296D01*
X-25355Y44337D01*
Y45954D01*
X-25974Y47448D01*
X-27117Y48591D01*
X-28611Y49209D01*
D02*
G37*
G36*
X-51580Y31594D02*
X-53197D01*
X-54691Y30975D01*
X-55834Y29832D01*
X-56453Y28338D01*
Y26721D01*
X-55834Y25228D01*
X-54691Y24084D01*
X-53197Y23466D01*
X-51580D01*
X-50087Y24084D01*
X-48943Y25228D01*
X-48325Y26721D01*
Y28338D01*
X-48943Y29832D01*
X-50087Y30975D01*
X-51580Y31594D01*
D02*
G37*
G36*
X-19580Y24711D02*
X-21197D01*
X-22691Y24093D01*
X-23834Y22949D01*
X-24453Y21456D01*
Y19839D01*
X-23834Y18345D01*
X-22691Y17202D01*
X-21197Y16583D01*
X-19580D01*
X-18087Y17202D01*
X-16943Y18345D01*
X-16325Y19839D01*
Y21456D01*
X-16943Y22949D01*
X-18087Y24093D01*
X-19580Y24711D01*
D02*
G37*
G36*
X16933Y-25953D02*
X15316D01*
X13823Y-26572D01*
X12680Y-27715D01*
X12061Y-29209D01*
Y-30825D01*
X12680Y-32319D01*
X13821Y-33460D01*
X12844Y-34437D01*
X11865Y-33458D01*
X10371Y-32840D01*
X8755D01*
X7261Y-33458D01*
X6118Y-34602D01*
X5499Y-36095D01*
Y-37712D01*
X6118Y-39206D01*
X7202Y-40290D01*
X6118Y-41375D01*
X5499Y-42868D01*
Y-44485D01*
X6118Y-45979D01*
X7261Y-47122D01*
X8755Y-47741D01*
X10371D01*
X11865Y-47122D01*
X12844Y-46143D01*
X13823Y-47122D01*
X15316Y-47741D01*
X16933D01*
X18427Y-47122D01*
X19406Y-46143D01*
X20385Y-47122D01*
X21878Y-47741D01*
X23495D01*
X24989Y-47122D01*
X26132Y-45979D01*
X26751Y-44485D01*
Y-42868D01*
X26132Y-41375D01*
X24989Y-40231D01*
X25341Y-39590D01*
X25440Y-39491D01*
X26059Y-37997D01*
Y-36380D01*
X25440Y-34887D01*
X24297Y-33744D01*
X22803Y-33125D01*
X21186D01*
X20118Y-33567D01*
X19399Y-32491D01*
X19570Y-32319D01*
X20189Y-30825D01*
Y-29209D01*
X19570Y-27715D01*
X18427Y-26572D01*
X16933Y-25953D01*
D02*
G37*
%LPD*%
G36*
X325689Y214202D02*
X324993Y213160D01*
X324678Y211574D01*
X324993Y209989D01*
X325891Y208644D01*
X327236Y207746D01*
X328821Y207431D01*
X330407Y207746D01*
X331449Y208442D01*
X382651Y157239D01*
Y89565D01*
X382967Y87979D01*
X383865Y86635D01*
X386795Y83705D01*
Y79705D01*
X386105Y78673D01*
X385790Y77087D01*
X386105Y75501D01*
X386795Y74469D01*
Y65714D01*
X447295Y5214D01*
Y-2243D01*
Y-61359D01*
X444308Y-64347D01*
X408705D01*
X407638Y-63634D01*
X406052Y-63319D01*
X404467Y-63634D01*
X403400Y-64347D01*
X395724D01*
X394658Y-63634D01*
X393072Y-63319D01*
X391486Y-63634D01*
X390420Y-64347D01*
X380272D01*
X379206Y-63634D01*
X377620Y-63319D01*
X376034Y-63634D01*
X374968Y-64347D01*
X365266D01*
X363246Y-62327D01*
Y58432D01*
X332621Y89057D01*
X332662Y89478D01*
X333785Y91159D01*
X334179Y93141D01*
X333785Y95123D01*
X332662Y96803D01*
X330982Y97926D01*
X328999Y98320D01*
X327017Y97926D01*
X325337Y96803D01*
X324916Y96762D01*
X322652Y99026D01*
X298928D01*
X298543Y100296D01*
X298985Y100592D01*
X299883Y101936D01*
X300199Y103522D01*
X299883Y105107D01*
X298985Y106452D01*
Y107497D01*
X299883Y108841D01*
X300199Y110426D01*
X299883Y112012D01*
X298985Y113356D01*
X297641Y114255D01*
X296055Y114570D01*
X294470Y114255D01*
X293125Y113356D01*
X292227Y112012D01*
X291912Y110426D01*
X292227Y108841D01*
X293125Y107497D01*
Y106452D01*
X292227Y105107D01*
X291912Y103522D01*
X292227Y101936D01*
X293125Y100592D01*
X293568Y100296D01*
X293182Y99026D01*
X266544D01*
X266159Y100296D01*
X266981Y100846D01*
X267880Y102190D01*
X268195Y103776D01*
X267880Y105361D01*
X266981Y106706D01*
Y107751D01*
X267880Y109095D01*
X268195Y110680D01*
X267880Y112266D01*
X266981Y113610D01*
X265637Y114509D01*
X264051Y114824D01*
X262466Y114509D01*
X261121Y113610D01*
X260223Y112266D01*
X259908Y110680D01*
X260223Y109095D01*
X261121Y107751D01*
Y106706D01*
X260223Y105361D01*
X259908Y103776D01*
X260223Y102190D01*
X261121Y100846D01*
X261944Y100296D01*
X261558Y99026D01*
X168649Y99026D01*
X168377Y99408D01*
X168086Y100296D01*
X168820Y101393D01*
X169135Y102979D01*
X168820Y104565D01*
X168174Y105531D01*
X168012Y106399D01*
X168174Y107268D01*
X168820Y108234D01*
X169135Y109820D01*
X168820Y111406D01*
X167921Y112750D01*
X166577Y113648D01*
X164991Y113964D01*
X163406Y113648D01*
X162061Y112750D01*
X161163Y111406D01*
X160848Y109820D01*
X161163Y108234D01*
X161809Y107268D01*
X161970Y106399D01*
X161809Y105531D01*
X161163Y104565D01*
X160848Y102979D01*
X161163Y101393D01*
X161896Y100296D01*
X161605Y99408D01*
X161334Y99026D01*
X85551D01*
X84745Y100008D01*
X84831Y100439D01*
X84516Y102024D01*
X83617Y103369D01*
X82273Y104267D01*
X80688Y104582D01*
X79102Y104267D01*
X78100Y103598D01*
X17542Y164156D01*
X-5212D01*
X-5685Y164352D01*
X-28377D01*
X-28692Y165933D01*
X-29590Y167277D01*
X-30934Y168175D01*
X-32520Y168491D01*
X-34106Y168175D01*
X-35450Y167277D01*
X-35857Y166668D01*
X-36738Y166493D01*
X-37662Y165875D01*
X-37662Y165875D01*
X-39185Y164352D01*
X-44146D01*
X-44456Y164559D01*
X-46041Y164874D01*
X-46546Y164774D01*
X-53162Y171391D01*
X-53162Y182412D01*
X-50891Y184683D01*
X-49675Y184314D01*
X-49642Y184145D01*
X-48744Y182801D01*
X-47399Y181903D01*
X-45814Y181587D01*
X-44228Y181903D01*
X-42884Y182801D01*
X-41985Y184145D01*
X-41670Y185731D01*
X-41985Y187316D01*
X-42884Y188661D01*
X-43727Y189224D01*
X-43635Y190637D01*
X-40139Y192085D01*
X-38889Y191229D01*
X-38686Y190207D01*
X-37787Y188862D01*
X-36443Y187964D01*
X-34857Y187649D01*
X-33272Y187964D01*
X-31927Y188862D01*
X-31029Y190207D01*
X-30714Y191792D01*
X-30793Y192192D01*
X-30907Y192842D01*
X-30052Y193628D01*
X-29907Y193659D01*
X-28563Y194557D01*
X-27664Y195901D01*
X-27371Y197374D01*
X3250Y210058D01*
X4306Y209352D01*
Y185028D01*
X4622Y183442D01*
X5520Y182098D01*
X6864Y181199D01*
X8450Y180884D01*
X10036Y181199D01*
X11380Y182098D01*
X12278Y183442D01*
X12594Y185028D01*
Y211499D01*
X13864Y212178D01*
X14198Y211954D01*
X15784Y211639D01*
X17370Y211954D01*
X18714Y212852D01*
X19612Y214197D01*
X19928Y215782D01*
X19710Y216876D01*
X22482Y218024D01*
X161102D01*
X161417Y216438D01*
X162315Y215094D01*
Y214113D01*
X161417Y212769D01*
X161102Y211183D01*
X161417Y209597D01*
X162315Y208253D01*
X162631Y208042D01*
Y206772D01*
X162315Y206561D01*
X161417Y205216D01*
X161102Y203631D01*
X161417Y202045D01*
X162315Y200701D01*
X163660Y199802D01*
X165245Y199487D01*
X166831Y199802D01*
X168175Y200701D01*
X169074Y202045D01*
X169389Y203631D01*
X169074Y205216D01*
X168175Y206561D01*
X167859Y206772D01*
Y208042D01*
X168175Y208253D01*
X169074Y209597D01*
X169389Y211183D01*
X169074Y212769D01*
X168175Y214113D01*
Y215094D01*
X169074Y216438D01*
X169389Y218024D01*
X192907D01*
X193506Y216904D01*
X193421Y216777D01*
X193106Y215191D01*
X193421Y213606D01*
X194319Y212261D01*
X195664Y211363D01*
X197249Y211048D01*
X198835Y211363D01*
X200179Y212261D01*
X201077Y213606D01*
X201393Y215191D01*
X201077Y216777D01*
X200993Y216904D01*
X201591Y218024D01*
X225926D01*
X226605Y216754D01*
X226441Y216509D01*
X226126Y214923D01*
X226441Y213337D01*
X227339Y211993D01*
X228684Y211095D01*
X230269Y210779D01*
X231855Y211095D01*
X233199Y211993D01*
X234097Y213337D01*
X234413Y214923D01*
X234097Y216509D01*
X233934Y216754D01*
X234613Y218024D01*
X260333D01*
X260466Y217867D01*
X260896Y216754D01*
X260223Y215747D01*
X259908Y214161D01*
X260223Y212575D01*
X261121Y211231D01*
X262466Y210333D01*
X264051Y210018D01*
X265637Y210333D01*
X266981Y211231D01*
X267880Y212575D01*
X268195Y214161D01*
X267880Y215747D01*
X267206Y216754D01*
X267636Y217867D01*
X267769Y218024D01*
X292616D01*
X293003Y217121D01*
X293085Y216777D01*
X292227Y215493D01*
X291912Y213907D01*
X292227Y212321D01*
X293125Y210977D01*
X294470Y210079D01*
X296055Y209764D01*
X297641Y210079D01*
X298985Y210977D01*
X299883Y212321D01*
X300199Y213907D01*
X299883Y215493D01*
X299026Y216777D01*
X299107Y217121D01*
X299495Y218024D01*
X321867D01*
X325689Y214202D01*
D02*
G37*
G36*
X382651Y223323D02*
Y206075D01*
X381381Y205226D01*
X380999Y205385D01*
X379383D01*
X377889Y204766D01*
X376746Y203623D01*
X376127Y202129D01*
Y200512D01*
X376746Y199018D01*
X377388Y198377D01*
X377747Y197547D01*
X377388Y196717D01*
X376746Y196075D01*
X376127Y194582D01*
Y192965D01*
X376746Y191471D01*
X377889Y190328D01*
X379383Y189709D01*
X380999D01*
X381381Y189868D01*
X382651Y189019D01*
Y161231D01*
X381478Y160746D01*
X332615Y209608D01*
X332171Y209793D01*
X331771Y210060D01*
X331605Y210027D01*
X331449Y210092D01*
X331004Y209908D01*
X330532Y209814D01*
X329763Y209300D01*
X328821Y209113D01*
X327879Y209300D01*
X327080Y209834D01*
X326547Y210632D01*
X326359Y211574D01*
X326547Y212516D01*
X327061Y213285D01*
X327155Y213757D01*
X327339Y214202D01*
X327274Y214358D01*
X327307Y214524D01*
X327040Y214923D01*
X326856Y215368D01*
X323033Y219190D01*
X321867Y219674D01*
X299495D01*
X299201Y219552D01*
X298883Y219556D01*
X298641Y219320D01*
X298328Y219190D01*
X298207Y218897D01*
X297979Y218675D01*
X297591Y217772D01*
X297589Y217622D01*
X297502Y217501D01*
X297420Y217156D01*
X297425Y217125D01*
X297408Y217098D01*
X297526Y216506D01*
X297622Y215910D01*
X297648Y215891D01*
X297654Y215860D01*
X298330Y214849D01*
X298517Y213907D01*
X298330Y212965D01*
X297796Y212166D01*
X296997Y211633D01*
X296055Y211445D01*
X295113Y211633D01*
X294314Y212166D01*
X293781Y212965D01*
X293594Y213907D01*
X293781Y214849D01*
X294456Y215860D01*
X294463Y215891D01*
X294489Y215910D01*
X294585Y216506D01*
X294703Y217098D01*
X294685Y217125D01*
X294690Y217156D01*
X294609Y217501D01*
X294521Y217622D01*
X294519Y217772D01*
X294131Y218675D01*
X293904Y218897D01*
X293782Y219190D01*
X293470Y219320D01*
X293227Y219556D01*
X292909Y219552D01*
X292616Y219674D01*
X267769D01*
X267701Y219645D01*
X267631Y219668D01*
X267127Y219408D01*
X267053Y219377D01*
X266968Y219375D01*
X266916Y219320D01*
X266603Y219190D01*
X266574Y219122D01*
X266509Y219088D01*
X266376Y218931D01*
X266291Y218664D01*
X266097Y218461D01*
X265668Y217348D01*
X265671Y217199D01*
X265589Y217076D01*
X265686Y216586D01*
X265698Y216086D01*
X265806Y215984D01*
X265835Y215838D01*
X266326Y215103D01*
X266513Y214161D01*
X266326Y213219D01*
X265792Y212420D01*
X264993Y211887D01*
X264051Y211699D01*
X263109Y211887D01*
X262311Y212420D01*
X261777Y213219D01*
X261590Y214161D01*
X261777Y215103D01*
X262268Y215838D01*
X262297Y215984D01*
X262404Y216086D01*
X262416Y216586D01*
X262514Y217076D01*
X262431Y217199D01*
X262435Y217348D01*
X262005Y218461D01*
X261812Y218664D01*
X261727Y218931D01*
X261594Y219088D01*
X261528Y219122D01*
X261500Y219190D01*
X261186Y219320D01*
X261134Y219375D01*
X261049Y219377D01*
X260976Y219407D01*
X260472Y219668D01*
X260402Y219645D01*
X260333Y219674D01*
X234613D01*
X234382Y219578D01*
X234134Y219603D01*
X233820Y219345D01*
X233446Y219190D01*
X233351Y218960D01*
X233158Y218802D01*
X232479Y217532D01*
X232454Y217283D01*
X232316Y217076D01*
X232395Y216678D01*
X232355Y216275D01*
X232496Y216103D01*
X232731Y214923D01*
X232544Y213981D01*
X232010Y213182D01*
X231211Y212649D01*
X230269Y212461D01*
X229327Y212649D01*
X228528Y213182D01*
X227995Y213981D01*
X227808Y214923D01*
X228042Y216103D01*
X228183Y216275D01*
X228144Y216678D01*
X228223Y217076D01*
X228084Y217283D01*
X228060Y217532D01*
X227381Y218802D01*
X227188Y218960D01*
X227092Y219190D01*
X226718Y219345D01*
X226405Y219603D01*
X226157Y219578D01*
X225926Y219674D01*
X201591D01*
X201361Y219578D01*
X201113Y219603D01*
X200799Y219345D01*
X200425Y219190D01*
X200329Y218960D01*
X200137Y218802D01*
X199538Y217682D01*
X199513Y217433D01*
X199375Y217226D01*
X199454Y216828D01*
X199414Y216425D01*
X199482Y216342D01*
X199711Y215191D01*
X199524Y214249D01*
X198990Y213451D01*
X198191Y212917D01*
X197249Y212730D01*
X196307Y212917D01*
X195508Y213451D01*
X194975Y214249D01*
X194788Y215191D01*
X195016Y216342D01*
X195084Y216425D01*
X195045Y216828D01*
X195124Y217226D01*
X194985Y217433D01*
X194961Y217682D01*
X194362Y218802D01*
X194169Y218960D01*
X194074Y219190D01*
X193699Y219345D01*
X193386Y219603D01*
X193138Y219578D01*
X192907Y219674D01*
X169389D01*
X168944Y219489D01*
X168472Y219396D01*
X168379Y219255D01*
X168223Y219190D01*
X168038Y218746D01*
X167771Y218346D01*
X167520Y217082D01*
X166804Y216010D01*
X166710Y215539D01*
X166526Y215094D01*
Y214113D01*
X166710Y213668D01*
X166804Y213196D01*
X167520Y212125D01*
X167707Y211183D01*
X167520Y210241D01*
X166986Y209442D01*
X166943Y209413D01*
X166849Y209273D01*
X166693Y209208D01*
X166509Y208764D01*
X166241Y208364D01*
X166274Y208198D01*
X166210Y208042D01*
Y206772D01*
X166274Y206616D01*
X166241Y206450D01*
X166509Y206050D01*
X166693Y205605D01*
X166849Y205541D01*
X166943Y205400D01*
X166986Y205371D01*
X167520Y204573D01*
X167707Y203631D01*
X167520Y202689D01*
X166986Y201890D01*
X166187Y201356D01*
X165245Y201169D01*
X164303Y201356D01*
X163505Y201890D01*
X162971Y202689D01*
X162784Y203631D01*
X162971Y204573D01*
X163505Y205371D01*
X163548Y205400D01*
X163642Y205541D01*
X163798Y205605D01*
X163982Y206050D01*
X164249Y206450D01*
X164216Y206616D01*
X164281Y206772D01*
Y208042D01*
X164216Y208198D01*
X164249Y208364D01*
X163982Y208764D01*
X163798Y209208D01*
X163642Y209273D01*
X163548Y209413D01*
X163505Y209442D01*
X162971Y210241D01*
X162784Y211183D01*
X162971Y212125D01*
X163687Y213196D01*
X163781Y213668D01*
X163965Y214113D01*
Y215094D01*
X163781Y215539D01*
X163687Y216010D01*
X162971Y217082D01*
X162719Y218346D01*
X162452Y218746D01*
X162268Y219190D01*
X162112Y219255D01*
X162018Y219396D01*
X161546Y219489D01*
X161102Y219674D01*
X149172D01*
Y239191D01*
X179977Y269997D01*
X180735Y271131D01*
X181001Y272469D01*
Y287299D01*
X181569Y288670D01*
Y290286D01*
X180951Y291780D01*
X179807Y292923D01*
X178314Y293542D01*
X176697D01*
X175203Y292923D01*
X174060Y291780D01*
X173441Y290286D01*
Y288670D01*
X173533Y288448D01*
X172971Y287866D01*
X172509Y287602D01*
X171163Y288160D01*
X169547D01*
X168053Y287541D01*
X166910Y286398D01*
X166291Y284904D01*
Y283287D01*
X166910Y281794D01*
X168053Y280650D01*
X169547Y280032D01*
X171163D01*
X172657Y280650D01*
X172739Y280732D01*
X174009Y280206D01*
Y273917D01*
X143204Y243112D01*
X142446Y241978D01*
X142180Y240640D01*
Y219674D01*
X22482D01*
X22179Y219548D01*
X21851D01*
X19079Y218400D01*
X18738Y218060D01*
X18339Y217792D01*
X18305Y217627D01*
X18186Y217507D01*
Y217026D01*
X18092Y216554D01*
X18246Y215782D01*
X18058Y214840D01*
X17525Y214042D01*
X16726Y213508D01*
X15784Y213321D01*
X14842Y213508D01*
X14780Y213549D01*
X14535Y213598D01*
X14343Y213756D01*
X13939Y213716D01*
X13542Y213796D01*
X12673Y214588D01*
X12594Y214700D01*
Y216371D01*
X49806Y253584D01*
X69195D01*
X70044Y252314D01*
X69885Y251932D01*
Y250315D01*
X70504Y248822D01*
X71647Y247678D01*
X73141Y247060D01*
X74758D01*
X76251Y247678D01*
X77395Y248822D01*
X78013Y250315D01*
Y251932D01*
X77855Y252314D01*
X78704Y253584D01*
X84060D01*
X85646Y253899D01*
X86990Y254798D01*
X128582Y296389D01*
X309585D01*
X382651Y223323D01*
D02*
G37*
G36*
X-4102Y161119D02*
X-4727Y159949D01*
X-5126Y160028D01*
X-6712Y159713D01*
X-8056Y158815D01*
X-8954Y157470D01*
X-9269Y155885D01*
X-8954Y154299D01*
X-8056Y152955D01*
X-6712Y152057D01*
X-5126Y151741D01*
X-4847Y151797D01*
X-3767Y150716D01*
X-3831Y150397D01*
X-3672Y149601D01*
X-4211Y148522D01*
X-4620Y148351D01*
X-5846Y148107D01*
X-7190Y147209D01*
X-8088Y145865D01*
X-8403Y144279D01*
X-8088Y142693D01*
X-7190Y141349D01*
X-7024Y141238D01*
X-6955Y140928D01*
X-7111Y139769D01*
X-8096Y139110D01*
X-8994Y137766D01*
X-9310Y136180D01*
X-8994Y134594D01*
X-8096Y133250D01*
X-6752Y132352D01*
X-5166Y132036D01*
X-3580Y132352D01*
X-2236Y133250D01*
X-1338Y134594D01*
X-1147Y135554D01*
X129Y136210D01*
X180Y136211D01*
X1731Y135903D01*
X3316Y136218D01*
X4660Y137116D01*
X5559Y138461D01*
X5874Y140047D01*
X5559Y141632D01*
X4660Y142976D01*
X3316Y143875D01*
X1731Y144190D01*
X1122Y144069D01*
X481Y144178D01*
X116Y144981D01*
X668Y146312D01*
X677Y146326D01*
X1899Y146569D01*
X3243Y147467D01*
X4141Y148811D01*
X4456Y150397D01*
X4365Y150857D01*
X5535Y151482D01*
X12680Y144338D01*
X12517Y142704D01*
X12036Y142383D01*
X11138Y141039D01*
X10823Y139453D01*
X11138Y137867D01*
X12036Y136523D01*
X13381Y135625D01*
X14966Y135309D01*
X16552Y135625D01*
X17896Y136523D01*
X18218Y137004D01*
X19851Y137166D01*
X25379Y131639D01*
X25040Y130182D01*
X24109Y129559D01*
X23210Y128215D01*
X22895Y126629D01*
X23210Y125043D01*
X24109Y123699D01*
X25453Y122801D01*
X27039Y122486D01*
X28624Y122801D01*
X29969Y123699D01*
X30591Y124631D01*
X32048Y124969D01*
X37510Y119508D01*
X75648Y81370D01*
X163645D01*
X164603Y81180D01*
X165560Y81370D01*
X260874Y81370D01*
X260898Y81334D01*
X261121Y79955D01*
X260223Y78611D01*
X259908Y77025D01*
X260223Y75439D01*
X261121Y74095D01*
Y73050D01*
X260223Y71706D01*
X259908Y70120D01*
X260223Y68535D01*
X261121Y67190D01*
X262466Y66292D01*
X264051Y65977D01*
X265637Y66292D01*
X266981Y67190D01*
X267880Y68535D01*
X268195Y70120D01*
X267880Y71706D01*
X266981Y73050D01*
Y74095D01*
X267880Y75439D01*
X268195Y77025D01*
X267880Y78611D01*
X266981Y79955D01*
Y80203D01*
X268098Y81370D01*
X292708D01*
X292902Y81080D01*
X293125Y79701D01*
X292227Y78357D01*
X291912Y76771D01*
X292227Y75185D01*
X293125Y73841D01*
Y72796D01*
X292227Y71452D01*
X291912Y69866D01*
X292227Y68281D01*
X293125Y66936D01*
X294470Y66038D01*
X296055Y65723D01*
X297641Y66038D01*
X298985Y66936D01*
X299883Y68281D01*
X300199Y69866D01*
X299883Y71452D01*
X298985Y72796D01*
Y73841D01*
X299883Y75185D01*
X300199Y76771D01*
X299883Y78357D01*
X298985Y79701D01*
Y80273D01*
X299997Y81370D01*
X316913D01*
X325894Y72311D01*
X325891Y72288D01*
X324993Y70944D01*
X324678Y69358D01*
X324993Y67773D01*
X325891Y66428D01*
Y65384D01*
X324993Y64039D01*
X324678Y62453D01*
X324993Y60868D01*
X325891Y59524D01*
X327236Y58625D01*
X328821Y58310D01*
X330407Y58625D01*
X331751Y59524D01*
X332649Y60868D01*
X332965Y62453D01*
X332736Y63606D01*
X333907Y64229D01*
X349199Y48803D01*
X349180Y46533D01*
X349180Y25586D01*
Y-13863D01*
X348654Y-14389D01*
X348491Y-33159D01*
X331422Y-50082D01*
X325228D01*
X324881Y-49735D01*
X323715Y-49252D01*
X312318D01*
X311873Y-49436D01*
X311402Y-49530D01*
X311093Y-49736D01*
X310151Y-49923D01*
X309403Y-49774D01*
X309348Y-49785D01*
X309299Y-49757D01*
X308736Y-49907D01*
X308165Y-50021D01*
X308133Y-50067D01*
X308079Y-50082D01*
X307678Y-50388D01*
X307574Y-50568D01*
X307393Y-50667D01*
X307205Y-50901D01*
X301625D01*
X301257Y-50163D01*
X301052Y-49985D01*
X300948Y-49735D01*
X300593Y-49588D01*
X300303Y-49336D01*
X300032Y-49356D01*
X299781Y-49252D01*
X228367D01*
X219801Y-40686D01*
Y-27338D01*
X221071Y-26967D01*
X221760Y-27997D01*
X223104Y-28895D01*
X224690Y-29211D01*
X226275Y-28895D01*
X227126Y-28327D01*
X228269Y-29090D01*
X228239Y-29240D01*
X228555Y-30826D01*
X229453Y-32170D01*
X230797Y-33069D01*
X232383Y-33384D01*
X233969Y-33069D01*
X235313Y-32170D01*
X236211Y-30826D01*
X236527Y-29240D01*
X236677Y-29067D01*
X237650Y-28379D01*
X238915Y-28630D01*
X240501Y-28315D01*
X240718Y-28169D01*
X242129Y-28754D01*
X242177Y-28994D01*
X243075Y-30339D01*
X244420Y-31237D01*
X246005Y-31552D01*
X247591Y-31237D01*
X248935Y-30339D01*
X249834Y-28994D01*
X250149Y-27409D01*
X249834Y-25823D01*
X248935Y-24479D01*
X247591Y-23580D01*
X246005Y-23265D01*
X244420Y-23580D01*
X244202Y-23726D01*
X242791Y-23141D01*
X242743Y-22901D01*
X241845Y-21556D01*
X240501Y-20658D01*
X238915Y-20343D01*
X237329Y-20658D01*
X235985Y-21556D01*
X235087Y-22901D01*
X234771Y-24486D01*
X234621Y-24660D01*
X233648Y-25348D01*
X232383Y-25097D01*
X230797Y-25412D01*
X229946Y-25981D01*
X228803Y-25217D01*
X228833Y-25067D01*
X228518Y-23481D01*
X227620Y-22137D01*
X226275Y-21239D01*
X224690Y-20924D01*
X223104Y-21239D01*
X221760Y-22137D01*
X221071Y-23167D01*
X219801Y-22796D01*
Y-5750D01*
X207353Y6699D01*
X207055Y8195D01*
X206157Y9539D01*
X204812Y10437D01*
X203316Y10735D01*
X196227Y17825D01*
X163639D01*
X163328Y19385D01*
X162430Y20729D01*
X161086Y21628D01*
X159500Y21943D01*
X157914Y21628D01*
X156570Y20729D01*
X155672Y19385D01*
X155361Y17825D01*
X130499D01*
X130309Y18775D01*
X129411Y20119D01*
X128067Y21017D01*
X126481Y21333D01*
X124896Y21017D01*
X123551Y20119D01*
X122653Y18775D01*
X122464Y17825D01*
X113547D01*
X113237Y19385D01*
X112338Y20729D01*
X110994Y21628D01*
X109408Y21943D01*
X107823Y21628D01*
X106478Y20729D01*
X105580Y19385D01*
X105270Y17825D01*
X29801D01*
X29102Y17964D01*
X28403Y17825D01*
X25083D01*
X-2558Y45465D01*
X-1803Y46594D01*
X-1488Y48180D01*
X-1803Y49766D01*
X-2702Y51110D01*
X-4046Y52008D01*
X-5631Y52324D01*
X-7217Y52008D01*
X-8346Y51254D01*
X-32660Y75568D01*
X-36248Y79156D01*
X-36005Y79521D01*
X-35689Y81106D01*
X-36005Y82692D01*
X-36903Y84036D01*
X-38247Y84934D01*
X-39833Y85250D01*
X-41418Y84934D01*
X-41783Y84691D01*
X-43388Y86296D01*
X-42985Y87689D01*
X-41890Y88421D01*
X-40992Y89765D01*
X-40676Y91351D01*
X-40992Y92936D01*
X-41890Y94281D01*
X-43234Y95179D01*
X-44820Y95494D01*
X-46406Y95179D01*
X-47750Y94281D01*
X-48482Y93185D01*
X-49875Y92783D01*
X-56736Y99643D01*
Y156113D01*
X-50146Y162703D01*
X-5685D01*
X-4102Y161119D01*
D02*
G37*
G36*
X199781Y4307D02*
X200925Y3164D01*
X202418Y2545D01*
X204035D01*
X205529Y3164D01*
X206672Y4307D01*
X207288Y4430D01*
X218152Y-6434D01*
Y-21293D01*
X216882Y-21819D01*
X211199Y-16136D01*
X210033Y-15653D01*
X198596Y-15653D01*
X197430Y-16136D01*
X193761Y-19804D01*
X192588Y-19318D01*
Y-17250D01*
X192643Y-17208D01*
X193689Y-15845D01*
X194346Y-14258D01*
X194571Y-12555D01*
Y-1554D01*
X194346Y149D01*
X193866Y1310D01*
X194433Y2350D01*
X194669Y2545D01*
X195565D01*
X197059Y3164D01*
X198202Y4307D01*
X198305Y4554D01*
X199679D01*
X199781Y4307D01*
D02*
G37*
G36*
X180106Y6997D02*
X190938Y-3906D01*
Y-50728D01*
X180337Y-61330D01*
X110385Y-61330D01*
X102287Y-53232D01*
Y381D01*
X109405Y7452D01*
X180106Y6997D01*
D02*
G37*
G36*
X210033Y-17302D02*
X216150Y-23419D01*
Y-44855D01*
X222196Y-50901D01*
X299781D01*
X299812Y-50962D01*
D01*
X300150Y-51639D01*
X300355Y-51817D01*
X300459Y-52067D01*
X300465Y-52087D01*
X300413Y-52165D01*
X300228Y-53097D01*
X300098Y-53751D01*
X300413Y-55336D01*
X301312Y-56681D01*
X302656Y-57579D01*
X304242Y-57894D01*
X305827Y-57579D01*
X307172Y-56681D01*
X308070Y-55336D01*
X308385Y-53751D01*
X308161Y-52624D01*
X308117Y-52401D01*
X308680Y-51699D01*
X309081Y-51392D01*
X310151Y-51605D01*
X311737Y-51290D01*
X312318Y-50901D01*
X323715D01*
X326900Y-54086D01*
Y-64108D01*
X323451Y-67560D01*
X311645Y-67572D01*
X311409Y-66385D01*
X310511Y-65040D01*
X309166Y-64142D01*
X307581Y-63827D01*
X305995Y-64142D01*
X304650Y-65040D01*
X303752Y-66385D01*
X303516Y-67573D01*
X280365D01*
X280128Y-66385D01*
X279230Y-65040D01*
X277886Y-64142D01*
X276300Y-63827D01*
X274714Y-64142D01*
X273370Y-65040D01*
X272472Y-66385D01*
X272236Y-67573D01*
X259265D01*
X259028Y-66385D01*
X258130Y-65040D01*
X256786Y-64142D01*
X255200Y-63827D01*
X253614Y-64142D01*
X252469Y-64908D01*
X251660Y-65040D01*
X251640D01*
X250831Y-64908D01*
X249686Y-64142D01*
X248100Y-63827D01*
X246514Y-64142D01*
X245170Y-65040D01*
X244272Y-66385D01*
X244036Y-67573D01*
X227954D01*
X227717Y-66385D01*
X226819Y-65040D01*
X225475Y-64142D01*
X223889Y-63827D01*
X222304Y-64142D01*
X220959Y-65040D01*
X220724Y-65392D01*
X219197D01*
X218961Y-65040D01*
X217617Y-64142D01*
X216031Y-63827D01*
X214446Y-64142D01*
X213101Y-65040D01*
X212203Y-66385D01*
X211967Y-67573D01*
X198860D01*
X194640Y-63353D01*
Y-54156D01*
X194834Y-53689D01*
X195075Y-51855D01*
Y-45856D01*
X194834Y-44022D01*
X194640Y-43554D01*
D01*
Y-41311D01*
X193596Y-40268D01*
Y-22302D01*
X198596Y-17302D01*
X210033Y-17302D01*
D02*
G37*
%LPC*%
G36*
X33450Y214671D02*
X31864Y214356D01*
X30520Y213458D01*
X29622Y212113D01*
X29306Y210528D01*
X29622Y208942D01*
X30520Y207598D01*
X31864Y206699D01*
X33450Y206384D01*
X35036Y206699D01*
X36380Y207598D01*
X37278Y208942D01*
X37594Y210528D01*
X37278Y212113D01*
X36380Y213458D01*
X35036Y214356D01*
X33450Y214671D01*
D02*
G37*
G36*
X66719Y208034D02*
X65133Y207719D01*
X63789Y206820D01*
X62891Y205476D01*
X62575Y203890D01*
X62891Y202305D01*
X63789Y200960D01*
X65133Y200062D01*
X66719Y199747D01*
X68304Y200062D01*
X69649Y200960D01*
X70547Y202305D01*
X70862Y203890D01*
X70547Y205476D01*
X69649Y206820D01*
X68304Y207719D01*
X66719Y208034D01*
D02*
G37*
G36*
X296055Y204241D02*
X294470Y203926D01*
X293125Y203027D01*
X292227Y201683D01*
X291912Y200098D01*
X292136Y198968D01*
X291044Y198170D01*
X290928Y198248D01*
X288946Y198642D01*
X286964Y198248D01*
X285284Y197125D01*
X284161Y195444D01*
X283767Y193462D01*
X284161Y191480D01*
X285284Y189800D01*
X286964Y188677D01*
X288946Y188283D01*
X290928Y188677D01*
X292609Y189800D01*
X293732Y191480D01*
X294126Y193462D01*
X293778Y195210D01*
X294099Y195702D01*
X294173Y195780D01*
X294744Y196215D01*
X296055Y195954D01*
X297641Y196269D01*
X298985Y197167D01*
X299883Y198512D01*
X300199Y200098D01*
X299883Y201683D01*
X298985Y203027D01*
X297641Y203926D01*
X296055Y204241D01*
D02*
G37*
G36*
X197249Y205525D02*
X195664Y205210D01*
X194319Y204312D01*
X193421Y202968D01*
X193106Y201382D01*
X193421Y199796D01*
X194319Y198452D01*
X195664Y197554D01*
X197249Y197238D01*
X198835Y197554D01*
X200179Y198452D01*
X201077Y199796D01*
X201393Y201382D01*
X201077Y202968D01*
X200179Y204312D01*
X198835Y205210D01*
X197249Y205525D01*
D02*
G37*
G36*
X230269Y205257D02*
X228684Y204942D01*
X227339Y204044D01*
X226441Y202699D01*
X226126Y201113D01*
X226441Y199528D01*
X227339Y198183D01*
X228684Y197285D01*
X230269Y196970D01*
X231855Y197285D01*
X233199Y198183D01*
X234097Y199528D01*
X234413Y201113D01*
X234097Y202699D01*
X233199Y204044D01*
X231855Y204942D01*
X230269Y205257D01*
D02*
G37*
G36*
X264051Y204495D02*
X262466Y204180D01*
X261121Y203281D01*
X260223Y201937D01*
X259908Y200352D01*
X260223Y198766D01*
X261121Y197421D01*
X262466Y196523D01*
X264051Y196208D01*
X265637Y196523D01*
X266981Y197421D01*
X267880Y198766D01*
X268195Y200352D01*
X267880Y201937D01*
X266981Y203281D01*
X265637Y204180D01*
X264051Y204495D01*
D02*
G37*
G36*
X331945Y199717D02*
X329963Y199323D01*
X328283Y198200D01*
X327160Y196520D01*
X327063Y196032D01*
X325728Y195828D01*
X324861Y197125D01*
X323181Y198248D01*
X321199Y198642D01*
X319216Y198248D01*
X317536Y197125D01*
X316413Y195444D01*
X316019Y193462D01*
X316413Y191480D01*
X317536Y189800D01*
X319216Y188677D01*
X321199Y188283D01*
X323181Y188677D01*
X324861Y189800D01*
X325984Y191480D01*
X326081Y191968D01*
X327416Y192172D01*
X328283Y190875D01*
X329963Y189752D01*
X331945Y189358D01*
X333928Y189752D01*
X335608Y190875D01*
X336731Y192555D01*
X337125Y194538D01*
X336731Y196520D01*
X335608Y198200D01*
X333928Y199323D01*
X331945Y199717D01*
D02*
G37*
G36*
X43824Y199389D02*
X42238Y199073D01*
X40894Y198175D01*
X39996Y196831D01*
X39681Y195245D01*
X39696Y195169D01*
X38532Y194510D01*
X37536Y195176D01*
X35950Y195491D01*
X34364Y195176D01*
X33020Y194278D01*
X32122Y192933D01*
X31806Y191348D01*
X32122Y189762D01*
X33020Y188418D01*
X34364Y187519D01*
X35950Y187204D01*
X37536Y187519D01*
X38880Y188418D01*
X39778Y189762D01*
X40094Y191348D01*
X40079Y191424D01*
X41242Y192083D01*
X42238Y191417D01*
X43824Y191101D01*
X45410Y191417D01*
X46754Y192315D01*
X47653Y193659D01*
X47968Y195245D01*
X47653Y196831D01*
X46754Y198175D01*
X45410Y199073D01*
X43824Y199389D01*
D02*
G37*
G36*
X-6061Y200526D02*
X-7647Y200210D01*
X-8991Y199312D01*
X-9890Y197968D01*
X-10205Y196382D01*
X-9890Y194796D01*
X-8991Y193452D01*
X-7647Y192554D01*
X-6061Y192238D01*
X-4476Y192554D01*
X-3131Y193452D01*
X-2233Y194796D01*
X-1918Y196382D01*
X-2233Y197968D01*
X-3131Y199312D01*
X-4476Y200210D01*
X-6061Y200526D01*
D02*
G37*
G36*
X255709Y198896D02*
X253727Y198501D01*
X252046Y197379D01*
X250924Y195698D01*
X250529Y193716D01*
X250924Y191734D01*
X252046Y190054D01*
X253727Y188931D01*
X255709Y188537D01*
X257691Y188931D01*
X259371Y190054D01*
X260494Y191734D01*
X260888Y193716D01*
X260494Y195698D01*
X259371Y197379D01*
X257691Y198501D01*
X255709Y198896D01*
D02*
G37*
G36*
X239090D02*
X237108Y198501D01*
X235427Y197379D01*
X234305Y195698D01*
X233910Y193716D01*
X234305Y191734D01*
X235427Y190054D01*
X237108Y188931D01*
X239090Y188537D01*
X241072Y188931D01*
X242752Y190054D01*
X243875Y191734D01*
X244269Y193716D01*
X243875Y195698D01*
X242752Y197379D01*
X241072Y198501D01*
X239090Y198896D01*
D02*
G37*
G36*
X222471D02*
X220489Y198501D01*
X218809Y197379D01*
X217686Y195698D01*
X217292Y193716D01*
X217686Y191734D01*
X218809Y190054D01*
X220489Y188931D01*
X222471Y188537D01*
X224453Y188931D01*
X226133Y190054D01*
X227256Y191734D01*
X227651Y193716D01*
X227256Y195698D01*
X226133Y197379D01*
X224453Y198501D01*
X222471Y198896D01*
D02*
G37*
G36*
X305412Y198642D02*
X303430Y198248D01*
X301750Y197125D01*
X300627Y195444D01*
X300233Y193462D01*
X300627Y191480D01*
X301750Y189800D01*
X303430Y188677D01*
X305412Y188283D01*
X307395Y188677D01*
X309075Y189800D01*
X310198Y191480D01*
X310592Y193462D01*
X310198Y195444D01*
X309075Y197125D01*
X307395Y198248D01*
X305412Y198642D01*
D02*
G37*
G36*
X272328D02*
X270345Y198248D01*
X268665Y197125D01*
X267542Y195444D01*
X267148Y193462D01*
X267542Y191480D01*
X268665Y189800D01*
X270345Y188677D01*
X272328Y188283D01*
X274310Y188677D01*
X275990Y189800D01*
X277113Y191480D01*
X277507Y193462D01*
X277113Y195444D01*
X275990Y197125D01*
X274310Y198248D01*
X272328Y198642D01*
D02*
G37*
G36*
X205852D02*
X203870Y198248D01*
X202190Y197125D01*
X201067Y195444D01*
X200673Y193462D01*
X201067Y191480D01*
X202190Y189800D01*
X203870Y188677D01*
X205852Y188283D01*
X207834Y188677D01*
X209515Y189800D01*
X210637Y191480D01*
X211032Y193462D01*
X210637Y195444D01*
X209515Y197125D01*
X207834Y198248D01*
X205852Y198642D01*
D02*
G37*
G36*
X189233D02*
X187251Y198248D01*
X185571Y197125D01*
X184448Y195444D01*
X184054Y193462D01*
X184448Y191480D01*
X185571Y189800D01*
X187251Y188677D01*
X189233Y188283D01*
X191215Y188677D01*
X192896Y189800D01*
X194019Y191480D01*
X194413Y193462D01*
X194019Y195444D01*
X192896Y197125D01*
X191215Y198248D01*
X189233Y198642D01*
D02*
G37*
G36*
X172614D02*
X170632Y198248D01*
X168952Y197125D01*
X167829Y195444D01*
X167435Y193462D01*
X167829Y191480D01*
X168952Y189800D01*
X170632Y188677D01*
X172614Y188283D01*
X174597Y188677D01*
X176277Y189800D01*
X177400Y191480D01*
X177794Y193462D01*
X177400Y195444D01*
X176277Y197125D01*
X174597Y198248D01*
X172614Y198642D01*
D02*
G37*
G36*
X85254Y198050D02*
X83669Y197734D01*
X82324Y196836D01*
X81426Y195492D01*
X81111Y193906D01*
X81426Y192320D01*
X82324Y190976D01*
X81661Y189892D01*
X81357Y189436D01*
X81041Y187851D01*
X81357Y186265D01*
X82255Y184921D01*
X83599Y184023D01*
X85185Y183707D01*
X86771Y184023D01*
X88115Y184921D01*
X89013Y186265D01*
X89328Y187851D01*
X89013Y189436D01*
X88115Y190781D01*
X88778Y191865D01*
X89083Y192320D01*
X89398Y193906D01*
X89083Y195492D01*
X88184Y196836D01*
X86840Y197734D01*
X85254Y198050D01*
D02*
G37*
G36*
X125586Y191518D02*
X124000Y191203D01*
X122656Y190305D01*
X121758Y188960D01*
X121442Y187375D01*
X121758Y185789D01*
X122656Y184445D01*
X124000Y183547D01*
X125586Y183231D01*
X127172Y183547D01*
X128516Y184445D01*
X129414Y185789D01*
X129730Y187375D01*
X129414Y188960D01*
X128516Y190305D01*
X127172Y191203D01*
X125586Y191518D01*
D02*
G37*
G36*
X143020Y191081D02*
X141434Y190766D01*
X140090Y189868D01*
X139192Y188523D01*
X138876Y186938D01*
X139192Y185352D01*
X140090Y184008D01*
X141434Y183109D01*
X143020Y182794D01*
X144606Y183109D01*
X145950Y184008D01*
X146848Y185352D01*
X147164Y186938D01*
X146848Y188523D01*
X145950Y189868D01*
X144606Y190766D01*
X143020Y191081D01*
D02*
G37*
G36*
X328821Y187754D02*
X327236Y187439D01*
X325891Y186541D01*
X324993Y185197D01*
X324678Y183611D01*
X324993Y182025D01*
X325891Y180681D01*
Y179636D01*
X324993Y178292D01*
X324678Y176706D01*
X324993Y175120D01*
X325891Y173776D01*
X327236Y172878D01*
X328821Y172563D01*
X330407Y172878D01*
X331751Y173776D01*
X332649Y175120D01*
X332965Y176706D01*
X332649Y178292D01*
X331751Y179636D01*
Y180681D01*
X332649Y182025D01*
X332965Y183611D01*
X332649Y185197D01*
X331751Y186541D01*
X330407Y187439D01*
X328821Y187754D01*
D02*
G37*
G36*
X35950Y180534D02*
X34364Y180218D01*
X33020Y179320D01*
X32122Y177976D01*
X31806Y176390D01*
X32122Y174804D01*
X33020Y173460D01*
X34364Y172562D01*
X35950Y172246D01*
X37536Y172562D01*
X38880Y173460D01*
X39778Y174804D01*
X40094Y176390D01*
X39778Y177976D01*
X38880Y179320D01*
X37536Y180218D01*
X35950Y180534D01*
D02*
G37*
G36*
X-44824Y179001D02*
X-46410Y178686D01*
X-47754Y177788D01*
X-48652Y176444D01*
X-48967Y174858D01*
X-48652Y173272D01*
X-47754Y171928D01*
X-46410Y171030D01*
X-44824Y170714D01*
X-43238Y171030D01*
X-41894Y171928D01*
X-40996Y173272D01*
X-40680Y174858D01*
X-40996Y176444D01*
X-41894Y177788D01*
X-43238Y178686D01*
X-44824Y179001D01*
D02*
G37*
G36*
X-28451Y177539D02*
X-30036Y177223D01*
X-31381Y176325D01*
X-32279Y174981D01*
X-32594Y173395D01*
X-32279Y171810D01*
X-31381Y170465D01*
X-30036Y169567D01*
X-28451Y169252D01*
X-26865Y169567D01*
X-25521Y170465D01*
X-24623Y171810D01*
X-24307Y173395D01*
X-24623Y174981D01*
X-25521Y176325D01*
X-26865Y177223D01*
X-28451Y177539D01*
D02*
G37*
G36*
X125586Y172433D02*
X124000Y172117D01*
X122656Y171219D01*
X121758Y169875D01*
X121442Y168289D01*
X121758Y166703D01*
X122656Y165359D01*
X124000Y164461D01*
X125586Y164146D01*
X127172Y164461D01*
X128516Y165359D01*
X129414Y166703D01*
X129730Y168289D01*
X129414Y169875D01*
X128516Y171219D01*
X127172Y172117D01*
X125586Y172433D01*
D02*
G37*
G36*
X197249Y184467D02*
X195664Y184151D01*
X194319Y183253D01*
X193421Y181909D01*
X193106Y180323D01*
X193421Y178738D01*
X194319Y177393D01*
Y176348D01*
X193421Y175004D01*
X193106Y173418D01*
X193421Y171833D01*
X194319Y170488D01*
Y169444D01*
X193421Y168099D01*
X193106Y166514D01*
X193421Y164928D01*
X194319Y163584D01*
X195664Y162686D01*
X197249Y162370D01*
X198835Y162686D01*
X200179Y163584D01*
X201077Y164928D01*
X201393Y166514D01*
X201077Y168099D01*
X200179Y169444D01*
Y170488D01*
X201077Y171833D01*
X201393Y173418D01*
X201077Y175004D01*
X200179Y176348D01*
Y177393D01*
X201077Y178738D01*
X201393Y180323D01*
X201077Y181909D01*
X200179Y183253D01*
X198835Y184151D01*
X197249Y184467D01*
D02*
G37*
G36*
X230269Y184198D02*
X228684Y183883D01*
X227339Y182985D01*
X226441Y181641D01*
X226126Y180055D01*
X226441Y178469D01*
X227339Y177125D01*
Y176080D01*
X226441Y174736D01*
X226126Y173150D01*
X226441Y171564D01*
X227339Y170220D01*
Y169175D01*
X226441Y167831D01*
X226126Y166245D01*
X226441Y164660D01*
X227339Y163315D01*
X228684Y162417D01*
X230269Y162102D01*
X231855Y162417D01*
X233199Y163315D01*
X234097Y164660D01*
X234413Y166245D01*
X234097Y167831D01*
X233199Y169175D01*
Y170220D01*
X234097Y171564D01*
X234413Y173150D01*
X234097Y174736D01*
X233199Y176080D01*
Y177125D01*
X234097Y178469D01*
X234413Y180055D01*
X234097Y181641D01*
X233199Y182985D01*
X231855Y183883D01*
X230269Y184198D01*
D02*
G37*
G36*
X296055Y183183D02*
X294470Y182867D01*
X293125Y181969D01*
X292227Y180625D01*
X291912Y179039D01*
X292227Y177453D01*
X293125Y176109D01*
Y175064D01*
X292227Y173720D01*
X291912Y172134D01*
X292227Y170548D01*
X293125Y169204D01*
Y168159D01*
X292227Y166815D01*
X291912Y165229D01*
X292227Y163644D01*
X293125Y162299D01*
X294470Y161401D01*
X296055Y161086D01*
X297641Y161401D01*
X298985Y162299D01*
X299883Y163644D01*
X300199Y165229D01*
X299883Y166815D01*
X298985Y168159D01*
Y169204D01*
X299883Y170548D01*
X300199Y172134D01*
X299883Y173720D01*
X298985Y175064D01*
Y176109D01*
X299883Y177453D01*
X300199Y179039D01*
X299883Y180625D01*
X298985Y181969D01*
X297641Y182867D01*
X296055Y183183D01*
D02*
G37*
G36*
X165245Y189469D02*
X163660Y189154D01*
X162315Y188256D01*
X161417Y186912D01*
X161102Y185326D01*
X161417Y183740D01*
X162315Y182396D01*
Y181415D01*
X161417Y180070D01*
X161102Y178485D01*
X161417Y176899D01*
X162039Y175968D01*
X162061Y174455D01*
X161163Y173111D01*
X160848Y171525D01*
X161163Y169939D01*
X162061Y168595D01*
Y167614D01*
X161163Y166270D01*
X160848Y164684D01*
X161163Y163098D01*
X162061Y161754D01*
X163406Y160856D01*
X164991Y160540D01*
X166577Y160856D01*
X167921Y161754D01*
X168820Y163098D01*
X169135Y164684D01*
X168820Y166270D01*
X167921Y167614D01*
Y168595D01*
X168820Y169939D01*
X169135Y171525D01*
X168820Y173111D01*
X168197Y174042D01*
X168175Y175555D01*
X169074Y176899D01*
X169389Y178485D01*
X169074Y180070D01*
X168175Y181415D01*
Y182396D01*
X169074Y183740D01*
X169389Y185326D01*
X169074Y186912D01*
X168175Y188256D01*
X166831Y189154D01*
X165245Y189469D01*
D02*
G37*
G36*
X89299Y175135D02*
X87714Y174820D01*
X86369Y173922D01*
X85471Y172577D01*
X85156Y170992D01*
X85471Y169406D01*
X86369Y168062D01*
X87082Y167585D01*
X87123Y166085D01*
X86877Y165921D01*
X85979Y164576D01*
X85664Y162991D01*
X85979Y161405D01*
X86877Y160061D01*
X88222Y159163D01*
X89807Y158847D01*
X91393Y159163D01*
X92737Y160061D01*
X93636Y161405D01*
X93951Y162991D01*
X93636Y164576D01*
X92737Y165921D01*
X92024Y166397D01*
X91984Y167898D01*
X92229Y168062D01*
X93127Y169406D01*
X93443Y170992D01*
X93127Y172577D01*
X92229Y173922D01*
X90885Y174820D01*
X89299Y175135D01*
D02*
G37*
G36*
X364508Y163477D02*
X362923Y163161D01*
X361578Y162263D01*
X360680Y160919D01*
X360365Y159333D01*
X360680Y157747D01*
X361578Y156403D01*
X362923Y155505D01*
X364508Y155190D01*
X366094Y155505D01*
X367438Y156403D01*
X368336Y157747D01*
X368652Y159333D01*
X368336Y160919D01*
X367438Y162263D01*
X366094Y163161D01*
X364508Y163477D01*
D02*
G37*
G36*
X328821Y160135D02*
X327236Y159820D01*
X325891Y158922D01*
X324993Y157577D01*
X324678Y155992D01*
X324993Y154406D01*
X325891Y153062D01*
X327236Y152163D01*
X328821Y151848D01*
X330407Y152163D01*
X331751Y153062D01*
X332649Y154406D01*
X332965Y155992D01*
X332649Y157577D01*
X331751Y158922D01*
X330407Y159820D01*
X328821Y160135D01*
D02*
G37*
G36*
X197249Y156848D02*
X195664Y156532D01*
X194319Y155634D01*
X193421Y154290D01*
X193106Y152704D01*
X193421Y151118D01*
X194319Y149774D01*
X195664Y148876D01*
X197249Y148560D01*
X198835Y148876D01*
X200179Y149774D01*
X201077Y151118D01*
X201393Y152704D01*
X201077Y154290D01*
X200179Y155634D01*
X198835Y156532D01*
X197249Y156848D01*
D02*
G37*
G36*
X230269Y156579D02*
X228684Y156264D01*
X227339Y155366D01*
X226441Y154021D01*
X226126Y152436D01*
X226441Y150850D01*
X227339Y149506D01*
X228684Y148608D01*
X230269Y148292D01*
X231855Y148608D01*
X233199Y149506D01*
X234097Y150850D01*
X234413Y152436D01*
X234097Y154021D01*
X233199Y155366D01*
X231855Y156264D01*
X230269Y156579D01*
D02*
G37*
G36*
X296055Y155563D02*
X294470Y155248D01*
X293125Y154350D01*
X292227Y153005D01*
X291912Y151420D01*
X292227Y149834D01*
X293125Y148490D01*
X294470Y147591D01*
X296055Y147276D01*
X297641Y147591D01*
X298985Y148490D01*
X299883Y149834D01*
X300199Y151420D01*
X299883Y153005D01*
X298985Y154350D01*
X297641Y155248D01*
X296055Y155563D01*
D02*
G37*
G36*
X164991Y153926D02*
X163406Y153611D01*
X162061Y152713D01*
X161163Y151368D01*
X160848Y149783D01*
X161163Y148197D01*
X162061Y146853D01*
X163406Y145955D01*
X164991Y145639D01*
X166577Y145955D01*
X167921Y146853D01*
X168820Y148197D01*
X169135Y149783D01*
X168820Y151368D01*
X167921Y152713D01*
X166577Y153611D01*
X164991Y153926D01*
D02*
G37*
G36*
X70955Y151576D02*
X69370Y151260D01*
X68025Y150362D01*
X67127Y149018D01*
X66812Y147432D01*
X67127Y145847D01*
X67876Y144725D01*
X68025Y143457D01*
Y143298D01*
X67770Y143127D01*
X66872Y141783D01*
X66556Y140197D01*
X66872Y138611D01*
X67770Y137267D01*
X69114Y136369D01*
X70700Y136053D01*
X72286Y136369D01*
X73630Y137267D01*
X74528Y138611D01*
X74844Y140197D01*
X74528Y141783D01*
X73779Y142904D01*
X73630Y144172D01*
Y144332D01*
X73885Y144502D01*
X74784Y145847D01*
X75099Y147432D01*
X74784Y149018D01*
X73885Y150362D01*
X72541Y151260D01*
X70955Y151576D01*
D02*
G37*
G36*
X321190Y149882D02*
X319208Y149488D01*
X317527Y148365D01*
X316404Y146685D01*
X316010Y144703D01*
X316404Y142721D01*
X317527Y141040D01*
X319208Y139917D01*
X321190Y139523D01*
X323172Y139917D01*
X324380Y140724D01*
X325523Y139961D01*
X325486Y139777D01*
X325801Y138191D01*
X326700Y136847D01*
X328044Y135949D01*
X329630Y135633D01*
X331215Y135949D01*
X332560Y136847D01*
X333458Y138191D01*
X333773Y139777D01*
X333458Y141362D01*
X332560Y142707D01*
X331215Y143605D01*
X329630Y143920D01*
X328044Y143605D01*
X327354Y143144D01*
X326211Y143908D01*
X326369Y144703D01*
X325975Y146685D01*
X324852Y148365D01*
X323172Y149488D01*
X321190Y149882D01*
D02*
G37*
G36*
X204833Y144802D02*
X202851Y144408D01*
X201171Y143285D01*
X200048Y141605D01*
X199653Y139623D01*
X200048Y137641D01*
X200641Y136753D01*
X200856Y136430D01*
X199941Y135514D01*
X199583Y135754D01*
X198835Y136253D01*
X197249Y136569D01*
X195664Y136253D01*
X194319Y135355D01*
X193421Y134011D01*
X193106Y132425D01*
X193421Y130839D01*
X194319Y129495D01*
Y128450D01*
X193421Y127106D01*
X193106Y125520D01*
X193421Y123935D01*
X194319Y122590D01*
X195664Y121692D01*
X197249Y121377D01*
X198835Y121692D01*
X200179Y122590D01*
X201077Y123935D01*
X201393Y125520D01*
X201077Y127106D01*
X200179Y128450D01*
Y129495D01*
X201077Y130839D01*
X201393Y132425D01*
X201077Y134011D01*
X200709Y134562D01*
X200493Y134885D01*
X201409Y135801D01*
X201767Y135562D01*
X202851Y134837D01*
X204833Y134443D01*
X206815Y134837D01*
X208495Y135960D01*
X209618Y137641D01*
X210012Y139623D01*
X209618Y141605D01*
X208495Y143285D01*
X206815Y144408D01*
X204833Y144802D01*
D02*
G37*
G36*
X341096Y143614D02*
X339510Y143299D01*
X338166Y142400D01*
X337268Y141056D01*
X336952Y139470D01*
X337268Y137885D01*
X338166Y136540D01*
X339510Y135642D01*
X341096Y135327D01*
X342682Y135642D01*
X344026Y136540D01*
X344924Y137885D01*
X345240Y139470D01*
X344924Y141056D01*
X344026Y142400D01*
X342682Y143299D01*
X341096Y143614D01*
D02*
G37*
G36*
X302075Y145158D02*
X300093Y144764D01*
X298413Y143641D01*
X297290Y141960D01*
X296896Y139978D01*
X297290Y137996D01*
X298413Y136316D01*
X300093Y135193D01*
X302075Y134799D01*
X304057Y135193D01*
X305737Y136316D01*
X306860Y137996D01*
X307255Y139978D01*
X306860Y141960D01*
X305737Y143641D01*
X304057Y144764D01*
X302075Y145158D01*
D02*
G37*
G36*
X254690Y145056D02*
X252707Y144662D01*
X251027Y143539D01*
X249904Y141859D01*
X249510Y139877D01*
X249904Y137895D01*
X251027Y136214D01*
X252707Y135091D01*
X254690Y134697D01*
X256672Y135091D01*
X258352Y136214D01*
X259475Y137895D01*
X259869Y139877D01*
X259475Y141859D01*
X258352Y143539D01*
X256672Y144662D01*
X254690Y145056D01*
D02*
G37*
G36*
X238071D02*
X236089Y144662D01*
X234408Y143539D01*
X233285Y141859D01*
X232891Y139877D01*
X233285Y137895D01*
X234408Y136214D01*
X236089Y135091D01*
X238071Y134697D01*
X240053Y135091D01*
X241733Y136214D01*
X242856Y137895D01*
X243250Y139877D01*
X242856Y141859D01*
X241733Y143539D01*
X240053Y144662D01*
X238071Y145056D01*
D02*
G37*
G36*
X221452D02*
X219470Y144662D01*
X217789Y143539D01*
X216667Y141859D01*
X216272Y139877D01*
X216667Y137895D01*
X217789Y136214D01*
X219470Y135091D01*
X221452Y134697D01*
X223434Y135091D01*
X225114Y136214D01*
X226237Y137895D01*
X226631Y139877D01*
X226237Y141859D01*
X225114Y143539D01*
X223434Y144662D01*
X221452Y145056D01*
D02*
G37*
G36*
X287927Y144802D02*
X285945Y144408D01*
X284265Y143285D01*
X283142Y141605D01*
X282748Y139623D01*
X283142Y137641D01*
X284265Y135960D01*
X285945Y134837D01*
X287927Y134443D01*
X289909Y134837D01*
X291590Y135960D01*
X292712Y137641D01*
X293107Y139623D01*
X292712Y141605D01*
X291590Y143285D01*
X289909Y144408D01*
X287927Y144802D01*
D02*
G37*
G36*
X271308D02*
X269326Y144408D01*
X267646Y143285D01*
X266523Y141605D01*
X266129Y139623D01*
X266523Y137641D01*
X267646Y135960D01*
X269326Y134837D01*
X271308Y134443D01*
X273290Y134837D01*
X274971Y135960D01*
X276094Y137641D01*
X276488Y139623D01*
X276094Y141605D01*
X274971Y143285D01*
X273290Y144408D01*
X271308Y144802D01*
D02*
G37*
G36*
X188214D02*
X186232Y144408D01*
X184552Y143285D01*
X183429Y141605D01*
X183035Y139623D01*
X183429Y137641D01*
X184552Y135960D01*
X186232Y134837D01*
X188214Y134443D01*
X190196Y134837D01*
X191877Y135960D01*
X192999Y137641D01*
X193394Y139623D01*
X192999Y141605D01*
X191877Y143285D01*
X190196Y144408D01*
X188214Y144802D01*
D02*
G37*
G36*
X171595D02*
X169613Y144408D01*
X167933Y143285D01*
X166810Y141605D01*
X166416Y139623D01*
X166810Y137641D01*
X167933Y135960D01*
X169613Y134837D01*
X171595Y134443D01*
X173577Y134837D01*
X175258Y135960D01*
X176381Y137641D01*
X176775Y139623D01*
X176381Y141605D01*
X175258Y143285D01*
X173577Y144408D01*
X171595Y144802D01*
D02*
G37*
G36*
X363899Y144294D02*
X361917Y143900D01*
X360236Y142777D01*
X359113Y141097D01*
X358719Y139115D01*
X359113Y137133D01*
X360236Y135452D01*
X361917Y134329D01*
X363899Y133935D01*
X365881Y134329D01*
X367561Y135452D01*
X368684Y137133D01*
X369078Y139115D01*
X368684Y141097D01*
X367561Y142777D01*
X365881Y143900D01*
X363899Y144294D01*
D02*
G37*
G36*
X230269Y136300D02*
X228684Y135985D01*
X227339Y135087D01*
X226441Y133743D01*
X226126Y132157D01*
X226441Y130571D01*
X227339Y129227D01*
Y128182D01*
X226441Y126838D01*
X226126Y125252D01*
X226441Y123666D01*
X227339Y122322D01*
X228684Y121424D01*
X230269Y121108D01*
X231855Y121424D01*
X233199Y122322D01*
X234097Y123666D01*
X234413Y125252D01*
X234097Y126838D01*
X233199Y128182D01*
Y129227D01*
X234097Y130571D01*
X234413Y132157D01*
X234097Y133743D01*
X233199Y135087D01*
X231855Y135985D01*
X230269Y136300D01*
D02*
G37*
G36*
X264051Y135538D02*
X262466Y135223D01*
X261121Y134325D01*
X260223Y132980D01*
X259908Y131395D01*
X260223Y129809D01*
X261121Y128465D01*
Y127420D01*
X260223Y126076D01*
X259908Y124490D01*
X260223Y122904D01*
X261121Y121560D01*
X262466Y120662D01*
X264051Y120346D01*
X265637Y120662D01*
X266981Y121560D01*
X267880Y122904D01*
X268195Y124490D01*
X267880Y126076D01*
X266981Y127420D01*
Y128465D01*
X267880Y129809D01*
X268195Y131395D01*
X267880Y132980D01*
X266981Y134325D01*
X265637Y135223D01*
X264051Y135538D01*
D02*
G37*
G36*
X296055Y135284D02*
X294470Y134969D01*
X293125Y134071D01*
X292227Y132726D01*
X291912Y131141D01*
X292227Y129555D01*
X293125Y128211D01*
Y127166D01*
X292227Y125822D01*
X291912Y124236D01*
X292227Y122650D01*
X293125Y121306D01*
X294470Y120408D01*
X296055Y120092D01*
X297641Y120408D01*
X298985Y121306D01*
X299883Y122650D01*
X300199Y124236D01*
X299883Y125822D01*
X298985Y127166D01*
Y128211D01*
X299883Y129555D01*
X300199Y131141D01*
X299883Y132726D01*
X298985Y134071D01*
X297641Y134969D01*
X296055Y135284D01*
D02*
G37*
G36*
X164991Y134859D02*
X163406Y134544D01*
X162061Y133646D01*
X161163Y132302D01*
X160848Y130716D01*
X161163Y129130D01*
X162061Y127786D01*
Y126805D01*
X161163Y125460D01*
X160848Y123875D01*
X161163Y122289D01*
X162061Y120945D01*
X163406Y120047D01*
X164991Y119731D01*
X166577Y120047D01*
X167921Y120945D01*
X168820Y122289D01*
X169135Y123875D01*
X168820Y125460D01*
X167921Y126805D01*
Y127786D01*
X168820Y129130D01*
X169135Y130716D01*
X168820Y132302D01*
X167921Y133646D01*
X166577Y134544D01*
X164991Y134859D01*
D02*
G37*
G36*
X81910Y119141D02*
X80324Y118826D01*
X78980Y117928D01*
X78082Y116583D01*
X77766Y114998D01*
X78082Y113412D01*
X78980Y112068D01*
X80324Y111169D01*
X81910Y110854D01*
X83496Y111169D01*
X84840Y112068D01*
X85738Y113412D01*
X86054Y114998D01*
X85738Y116583D01*
X84840Y117928D01*
X83496Y118826D01*
X81910Y119141D01*
D02*
G37*
G36*
X125446Y111071D02*
X123860Y110755D01*
X122516Y109857D01*
X121617Y108513D01*
X121302Y106927D01*
X121617Y105341D01*
X122516Y103997D01*
X123860Y103099D01*
X125446Y102783D01*
X127031Y103099D01*
X128376Y103997D01*
X129274Y105341D01*
X129589Y106927D01*
X129274Y108513D01*
X128376Y109857D01*
X127031Y110755D01*
X125446Y111071D01*
D02*
G37*
G36*
X142660Y110521D02*
X141074Y110206D01*
X139730Y109308D01*
X138832Y107963D01*
X138517Y106378D01*
X138832Y104792D01*
X139730Y103448D01*
X141074Y102549D01*
X142660Y102234D01*
X144246Y102549D01*
X145590Y103448D01*
X146488Y104792D01*
X146804Y106378D01*
X146488Y107963D01*
X145590Y109308D01*
X144246Y110206D01*
X142660Y110521D01*
D02*
G37*
G36*
X197249Y115854D02*
X195664Y115539D01*
X194319Y114641D01*
X193421Y113296D01*
X193106Y111711D01*
X193421Y110125D01*
X194319Y108781D01*
Y107736D01*
X193421Y106392D01*
X193106Y104806D01*
X193421Y103220D01*
X194319Y101876D01*
X195664Y100978D01*
X197249Y100662D01*
X198835Y100978D01*
X200179Y101876D01*
X201077Y103220D01*
X201393Y104806D01*
X201077Y106392D01*
X200179Y107736D01*
Y108781D01*
X201077Y110125D01*
X201393Y111711D01*
X201077Y113296D01*
X200179Y114641D01*
X198835Y115539D01*
X197249Y115854D01*
D02*
G37*
G36*
X230269Y115586D02*
X228684Y115271D01*
X227339Y114372D01*
X226441Y113028D01*
X226126Y111442D01*
X226441Y109857D01*
X227339Y108512D01*
Y107468D01*
X226441Y106123D01*
X226126Y104538D01*
X226441Y102952D01*
X227339Y101608D01*
X228684Y100709D01*
X230269Y100394D01*
X231855Y100709D01*
X233199Y101608D01*
X234097Y102952D01*
X234413Y104538D01*
X234097Y106123D01*
X233199Y107468D01*
Y108512D01*
X234097Y109857D01*
X234413Y111442D01*
X234097Y113028D01*
X233199Y114372D01*
X231855Y115271D01*
X230269Y115586D01*
D02*
G37*
G36*
X341096Y103355D02*
X339510Y103040D01*
X338166Y102141D01*
X337268Y100797D01*
X336952Y99211D01*
X337268Y97626D01*
X338166Y96281D01*
X339510Y95383D01*
X341096Y95068D01*
X342682Y95383D01*
X344026Y96281D01*
X344924Y97626D01*
X345240Y99211D01*
X344924Y100797D01*
X344026Y102141D01*
X342682Y103040D01*
X341096Y103355D01*
D02*
G37*
G36*
X363137Y80947D02*
X361155Y80552D01*
X359474Y79430D01*
X358351Y77749D01*
X357957Y75767D01*
X358351Y73785D01*
X359474Y72105D01*
X361155Y70982D01*
X363137Y70588D01*
X365119Y70982D01*
X366799Y72105D01*
X367922Y73785D01*
X368316Y75767D01*
X367922Y77749D01*
X366799Y79430D01*
X365119Y80552D01*
X363137Y80947D01*
D02*
G37*
G36*
X371262Y7398D02*
X369676Y7083D01*
X368332Y6184D01*
X367434Y4840D01*
X367118Y3254D01*
X367434Y1669D01*
X368332Y324D01*
X368524Y196D01*
X367654Y-1107D01*
X367338Y-2692D01*
X367654Y-4278D01*
X368552Y-5622D01*
X369896Y-6521D01*
X371482Y-6836D01*
X373068Y-6521D01*
X374412Y-5622D01*
X375310Y-4278D01*
X375626Y-2692D01*
X375586Y-2492D01*
X376782Y-1997D01*
X376943Y-2238D01*
X378288Y-3136D01*
X379873Y-3451D01*
X381459Y-3136D01*
X382803Y-2238D01*
X383702Y-894D01*
X384017Y692D01*
X383702Y2278D01*
X382803Y3622D01*
X381459Y4520D01*
X379873Y4836D01*
X378288Y4520D01*
X376943Y3622D01*
X376624Y3144D01*
X376231Y3179D01*
X375351Y3525D01*
X375090Y4840D01*
X374192Y6184D01*
X372847Y7083D01*
X371262Y7398D01*
D02*
G37*
G36*
X429240Y-20862D02*
X427654Y-21178D01*
X426310Y-22076D01*
X425412Y-23420D01*
X425096Y-25006D01*
X425412Y-26591D01*
X426310Y-27936D01*
X427654Y-28834D01*
X428503Y-29003D01*
Y-30298D01*
X427654Y-30466D01*
X426310Y-31365D01*
X425412Y-32709D01*
X425096Y-34295D01*
X425412Y-35880D01*
X426310Y-37225D01*
X427654Y-38123D01*
X429240Y-38438D01*
X430826Y-38123D01*
X432170Y-37225D01*
X432384Y-36905D01*
X433911D01*
X434189Y-37321D01*
X435534Y-38219D01*
X437119Y-38534D01*
X438705Y-38219D01*
X440049Y-37321D01*
X440948Y-35977D01*
X441263Y-34391D01*
X440948Y-32805D01*
X440049Y-31461D01*
X438705Y-30563D01*
X437119Y-30247D01*
X435534Y-30563D01*
X434189Y-31461D01*
X433975Y-31781D01*
X432448D01*
X432170Y-31365D01*
X430826Y-30466D01*
X429977Y-30298D01*
Y-29003D01*
X430826Y-28834D01*
X432170Y-27936D01*
X433068Y-26591D01*
X433384Y-25006D01*
X433068Y-23420D01*
X432170Y-22076D01*
X430826Y-21178D01*
X429240Y-20862D01*
D02*
G37*
G36*
X298633Y294118D02*
X297016D01*
X295522Y293499D01*
X294379Y292356D01*
X293761Y290862D01*
Y289245D01*
X294379Y287752D01*
X295522Y286609D01*
X297016Y285990D01*
X298633D01*
X300127Y286609D01*
X301270Y287752D01*
X301889Y289245D01*
Y290862D01*
X301270Y292356D01*
X300127Y293499D01*
X298633Y294118D01*
D02*
G37*
G36*
X265525D02*
X263908D01*
X262414Y293499D01*
X261271Y292356D01*
X260653Y290862D01*
Y289245D01*
X261271Y287752D01*
X262414Y286609D01*
X263908Y285990D01*
X265525D01*
X267019Y286609D01*
X268162Y287752D01*
X268781Y289245D01*
Y290862D01*
X268162Y292356D01*
X267019Y293499D01*
X265525Y294118D01*
D02*
G37*
G36*
X231658D02*
X230041D01*
X228548Y293499D01*
X227404Y292356D01*
X226786Y290862D01*
Y289245D01*
X227404Y287752D01*
X228548Y286609D01*
X230041Y285990D01*
X231658D01*
X233152Y286609D01*
X234295Y287752D01*
X234914Y289245D01*
Y290862D01*
X234295Y292356D01*
X233152Y293499D01*
X231658Y294118D01*
D02*
G37*
G36*
X144454Y292542D02*
X142837D01*
X141343Y291923D01*
X140200Y290780D01*
X139581Y289286D01*
Y287669D01*
X140200Y286175D01*
X141343Y285032D01*
X142837Y284414D01*
X144454D01*
X145948Y285032D01*
X147091Y286175D01*
X147709Y287669D01*
Y289286D01*
X147091Y290780D01*
X145948Y291923D01*
X144454Y292542D01*
D02*
G37*
G36*
X154316Y292041D02*
X152699D01*
X151205Y291422D01*
X150062Y290279D01*
X149443Y288785D01*
Y287168D01*
X150062Y285674D01*
X151205Y284531D01*
X152699Y283913D01*
X154316D01*
X155809Y284531D01*
X156952Y285674D01*
X157571Y287168D01*
Y288785D01*
X156952Y290279D01*
X155809Y291422D01*
X154316Y292041D01*
D02*
G37*
G36*
X198058Y274450D02*
X196441D01*
X194947Y273831D01*
X193804Y272688D01*
X193185Y271194D01*
Y269577D01*
X193804Y268084D01*
X194947Y266940D01*
X196441Y266322D01*
X198058D01*
X199551Y266940D01*
X200695Y268084D01*
X201313Y269577D01*
Y271194D01*
X200695Y272688D01*
X199551Y273831D01*
X198058Y274450D01*
D02*
G37*
G36*
X231078Y267277D02*
X229461D01*
X227967Y266658D01*
X226824Y265515D01*
X226205Y264021D01*
Y262404D01*
X226824Y260911D01*
X227967Y259767D01*
X229461Y259149D01*
X231078D01*
X232571Y259767D01*
X233715Y260911D01*
X234333Y262404D01*
Y264021D01*
X233715Y265515D01*
X232571Y266658D01*
X231078Y267277D01*
D02*
G37*
G36*
X264860Y266515D02*
X263243D01*
X261749Y265896D01*
X260606Y264753D01*
X259987Y263259D01*
Y261642D01*
X260606Y260149D01*
X261749Y259005D01*
X263243Y258387D01*
X264860D01*
X266353Y259005D01*
X267497Y260149D01*
X268115Y261642D01*
Y263259D01*
X267497Y264753D01*
X266353Y265896D01*
X264860Y266515D01*
D02*
G37*
G36*
X296864Y266261D02*
X295247D01*
X293753Y265642D01*
X292610Y264499D01*
X291991Y263005D01*
Y261388D01*
X292610Y259895D01*
X293753Y258751D01*
X295247Y258133D01*
X296864D01*
X298357Y258751D01*
X299501Y259895D01*
X300119Y261388D01*
Y263005D01*
X299501Y264499D01*
X298357Y265642D01*
X296864Y266261D01*
D02*
G37*
G36*
X77154Y243636D02*
X75537D01*
X74043Y243017D01*
X72900Y241874D01*
X72281Y240380D01*
Y238763D01*
X72900Y237270D01*
X74043Y236126D01*
X75537Y235508D01*
X77154D01*
X78647Y236126D01*
X79791Y237270D01*
X80409Y238763D01*
Y240380D01*
X79791Y241874D01*
X78647Y243017D01*
X77154Y243636D01*
D02*
G37*
G36*
Y233984D02*
X75537D01*
X74043Y233365D01*
X72900Y232222D01*
X72281Y230728D01*
Y229111D01*
X72900Y227618D01*
X74043Y226474D01*
X75537Y225856D01*
X77154D01*
X78647Y226474D01*
X79791Y227618D01*
X80409Y229111D01*
Y230728D01*
X79791Y232222D01*
X78647Y233365D01*
X77154Y233984D01*
D02*
G37*
G36*
X-37615Y154362D02*
X-39200Y154046D01*
X-40545Y153148D01*
X-41307Y152007D01*
X-41519Y151942D01*
X-42132Y151902D01*
X-42702Y151983D01*
X-43376Y152993D01*
X-44721Y153891D01*
X-46306Y154206D01*
X-47892Y153891D01*
X-49236Y152993D01*
X-50135Y151649D01*
X-50450Y150063D01*
X-50135Y148477D01*
X-49236Y147133D01*
X-47892Y146235D01*
X-46306Y145919D01*
X-44721Y146235D01*
X-43376Y147133D01*
X-42614Y148273D01*
X-42402Y148338D01*
X-41789Y148379D01*
X-41219Y148297D01*
X-40545Y147288D01*
X-39200Y146390D01*
X-37615Y146074D01*
X-36367Y146323D01*
X-35543Y145631D01*
X-35350Y145329D01*
X-35551Y144319D01*
X-35236Y142733D01*
X-34337Y141389D01*
X-32993Y140491D01*
X-32362Y140365D01*
X-32094Y139017D01*
X-32557Y138707D01*
X-33456Y137363D01*
X-33771Y135777D01*
X-33456Y134192D01*
X-32557Y132847D01*
X-31213Y131949D01*
X-29627Y131634D01*
X-28042Y131949D01*
X-26697Y132847D01*
X-25799Y134192D01*
X-25484Y135777D01*
X-25799Y137363D01*
X-26697Y138707D01*
X-28042Y139606D01*
X-28672Y139731D01*
X-28940Y141079D01*
X-28477Y141389D01*
X-27579Y142733D01*
X-27264Y144319D01*
X-27579Y145904D01*
X-28477Y147249D01*
X-29822Y148147D01*
X-31407Y148462D01*
X-32655Y148214D01*
X-33479Y148906D01*
X-33672Y149208D01*
X-33471Y150218D01*
X-33786Y151804D01*
X-34685Y153148D01*
X-36029Y154046D01*
X-37615Y154362D01*
D02*
G37*
G36*
X-45413Y143370D02*
X-46999Y143055D01*
X-48343Y142157D01*
X-49241Y140812D01*
X-49557Y139227D01*
X-49241Y137641D01*
X-48343Y136297D01*
X-46999Y135398D01*
X-45413Y135083D01*
X-43827Y135398D01*
X-42483Y136297D01*
X-41585Y137641D01*
X-41269Y139227D01*
X-41585Y140812D01*
X-42483Y142157D01*
X-43827Y143055D01*
X-45413Y143370D01*
D02*
G37*
G36*
X-44744Y133683D02*
X-46329Y133367D01*
X-47674Y132469D01*
X-48572Y131125D01*
X-48887Y129539D01*
X-48572Y127953D01*
X-47674Y126609D01*
X-46329Y125711D01*
X-44744Y125395D01*
X-43158Y125711D01*
X-41814Y126609D01*
X-40915Y127953D01*
X-40600Y129539D01*
X-40915Y131125D01*
X-41814Y132469D01*
X-43158Y133367D01*
X-44744Y133683D01*
D02*
G37*
G36*
X-32949Y125597D02*
X-34535Y125281D01*
X-35879Y124383D01*
X-36777Y123039D01*
X-36975Y122046D01*
X-38242Y121406D01*
X-38299Y121404D01*
X-38865Y121782D01*
X-40451Y122097D01*
X-42036Y121782D01*
X-43381Y120884D01*
X-44279Y119539D01*
X-44594Y117954D01*
X-44279Y116368D01*
X-43695Y115493D01*
X-44458Y114351D01*
X-45413Y114540D01*
X-46999Y114225D01*
X-48343Y113327D01*
X-49241Y111982D01*
X-49557Y110397D01*
X-49241Y108811D01*
X-48343Y107467D01*
X-46999Y106569D01*
X-45413Y106253D01*
X-43827Y106569D01*
X-42580Y107402D01*
X-42006Y107318D01*
X-41219Y107072D01*
X-41122Y106585D01*
X-40224Y105241D01*
X-38880Y104342D01*
X-37294Y104027D01*
X-35708Y104342D01*
X-34364Y105241D01*
X-33466Y106585D01*
X-33150Y108171D01*
X-33466Y109756D01*
X-34364Y111101D01*
X-35708Y111999D01*
X-37294Y112314D01*
X-38880Y111999D01*
X-40127Y111165D01*
X-40701Y111250D01*
X-41488Y111495D01*
X-41585Y111982D01*
X-42169Y112857D01*
X-41405Y114000D01*
X-40451Y113810D01*
X-38865Y114125D01*
X-37521Y115024D01*
X-36623Y116368D01*
X-36425Y117360D01*
X-35158Y118001D01*
X-35101Y118003D01*
X-34535Y117625D01*
X-32949Y117309D01*
X-31363Y117625D01*
X-30019Y118523D01*
X-29121Y119867D01*
X-28806Y121453D01*
X-29121Y123039D01*
X-30019Y124383D01*
X-31363Y125281D01*
X-32949Y125597D01*
D02*
G37*
G36*
X7430Y129091D02*
X5844Y128776D01*
X4500Y127878D01*
X3602Y126533D01*
X3286Y124948D01*
X3602Y123362D01*
X4500Y122018D01*
X5844Y121119D01*
X7430Y120804D01*
X9016Y121119D01*
X10360Y122018D01*
X11258Y123362D01*
X11574Y124948D01*
X11258Y126533D01*
X10360Y127878D01*
X9016Y128776D01*
X7430Y129091D01*
D02*
G37*
G36*
X425Y112626D02*
X-1161Y112310D01*
X-2505Y111412D01*
X-3404Y110068D01*
X-3719Y108482D01*
X-3404Y106896D01*
X-2505Y105552D01*
X-1161Y104654D01*
X425Y104338D01*
X2010Y104654D01*
X3355Y105552D01*
X4253Y106896D01*
X4568Y108482D01*
X4253Y110068D01*
X3355Y111412D01*
X2010Y112310D01*
X425Y112626D01*
D02*
G37*
G36*
X40980Y109041D02*
X39394Y108726D01*
X38050Y107828D01*
X37152Y106483D01*
X36837Y104898D01*
X37152Y103312D01*
X38050Y101968D01*
X39394Y101069D01*
X40980Y100754D01*
X42566Y101069D01*
X43910Y101968D01*
X44808Y103312D01*
X45124Y104898D01*
X44808Y106483D01*
X43910Y107828D01*
X42566Y108726D01*
X40980Y109041D01*
D02*
G37*
G36*
X-1508Y102622D02*
X-3094Y102306D01*
X-4439Y101408D01*
X-5337Y100064D01*
X-5652Y98478D01*
X-5337Y96892D01*
X-4439Y95548D01*
X-3094Y94650D01*
X-1508Y94335D01*
X77Y94650D01*
X1421Y95548D01*
X2320Y96892D01*
X2635Y98478D01*
X2320Y100064D01*
X1421Y101408D01*
X77Y102306D01*
X-1508Y102622D01*
D02*
G37*
G36*
X-29079Y95494D02*
X-30664Y95179D01*
X-32009Y94281D01*
X-32907Y92936D01*
X-33222Y91351D01*
X-32907Y89765D01*
X-32009Y88421D01*
X-30664Y87523D01*
X-29079Y87207D01*
X-27493Y87523D01*
X-26149Y88421D01*
X-25250Y89765D01*
X-24935Y91351D01*
X-25250Y92936D01*
X-26149Y94281D01*
X-27493Y95179D01*
X-29079Y95494D01*
D02*
G37*
G36*
X-7059Y89951D02*
X-8645Y89635D01*
X-9989Y88737D01*
X-10887Y87393D01*
X-11203Y85807D01*
X-10887Y84221D01*
X-9989Y82877D01*
X-8645Y81979D01*
X-7059Y81663D01*
X-5473Y81979D01*
X-4129Y82877D01*
X-3231Y84221D01*
X-2916Y85807D01*
X-3231Y87393D01*
X-4129Y88737D01*
X-5473Y89635D01*
X-7059Y89951D01*
D02*
G37*
G36*
X-28899Y83745D02*
X-30485Y83430D01*
X-31829Y82532D01*
X-32727Y81187D01*
X-33043Y79602D01*
X-32727Y78016D01*
X-31829Y76672D01*
X-30485Y75774D01*
X-28899Y75458D01*
X-27313Y75774D01*
X-25969Y76672D01*
X-25071Y78016D01*
X-24755Y79602D01*
X-25071Y81187D01*
X-25969Y82532D01*
X-27313Y83430D01*
X-28899Y83745D01*
D02*
G37*
G36*
X39876Y79882D02*
X38290Y79566D01*
X36946Y78668D01*
X36047Y77324D01*
X35732Y75738D01*
X36047Y74152D01*
X36946Y72808D01*
X38290Y71910D01*
X39876Y71595D01*
X41461Y71910D01*
X42806Y72808D01*
X43704Y74152D01*
X44019Y75738D01*
X43704Y77324D01*
X42806Y78668D01*
X41461Y79566D01*
X39876Y79882D01*
D02*
G37*
G36*
X164991Y79758D02*
X163406Y79443D01*
X162061Y78545D01*
X161163Y77200D01*
X160848Y75615D01*
X161163Y74029D01*
X162061Y72685D01*
X163406Y71786D01*
X164991Y71471D01*
X166577Y71786D01*
X167921Y72685D01*
X168820Y74029D01*
X169135Y75615D01*
X168820Y77200D01*
X167921Y78545D01*
X166577Y79443D01*
X164991Y79758D01*
D02*
G37*
G36*
X197428Y79531D02*
X195842Y79216D01*
X194498Y78318D01*
X193599Y76974D01*
X193284Y75388D01*
X193599Y73802D01*
X194498Y72458D01*
X195842Y71560D01*
X197428Y71244D01*
X199013Y71560D01*
X200357Y72458D01*
X201256Y73802D01*
X201571Y75388D01*
X201256Y76974D01*
X200357Y78318D01*
X199013Y79216D01*
X197428Y79531D01*
D02*
G37*
G36*
X230410Y79069D02*
X228825Y78753D01*
X227480Y77855D01*
X226582Y76511D01*
X226267Y74925D01*
X226582Y73340D01*
X227480Y71995D01*
X228825Y71097D01*
X230410Y70781D01*
X231996Y71097D01*
X233340Y71995D01*
X234238Y73340D01*
X234554Y74925D01*
X234238Y76511D01*
X233340Y77855D01*
X231996Y78753D01*
X230410Y79069D01*
D02*
G37*
G36*
X80688Y77580D02*
X79102Y77264D01*
X77758Y76366D01*
X76859Y75022D01*
X76544Y73436D01*
X76859Y71850D01*
X77758Y70506D01*
X79102Y69608D01*
X80688Y69292D01*
X82273Y69608D01*
X83617Y70506D01*
X84516Y71850D01*
X84831Y73436D01*
X84516Y75022D01*
X83617Y76366D01*
X82273Y77264D01*
X80688Y77580D01*
D02*
G37*
G36*
X8430Y76831D02*
X6844Y76516D01*
X5500Y75618D01*
X4602Y74273D01*
X4286Y72688D01*
X4602Y71102D01*
X5500Y69758D01*
X6844Y68859D01*
X8430Y68544D01*
X10016Y68859D01*
X11360Y69758D01*
X12258Y71102D01*
X12574Y72688D01*
X12258Y74273D01*
X11360Y75618D01*
X10016Y76516D01*
X8430Y76831D01*
D02*
G37*
G36*
X230269Y68121D02*
X228684Y67806D01*
X227339Y66908D01*
X226441Y65563D01*
X226126Y63977D01*
X226441Y62392D01*
X227339Y61048D01*
X228684Y60149D01*
X230269Y59834D01*
X231855Y60149D01*
X233199Y61048D01*
X234097Y62392D01*
X234413Y63977D01*
X234097Y65563D01*
X233199Y66908D01*
X231855Y67806D01*
X230269Y68121D01*
D02*
G37*
G36*
X296055Y60200D02*
X294470Y59885D01*
X293125Y58987D01*
X292227Y57642D01*
X291912Y56057D01*
X292227Y54471D01*
X293125Y53127D01*
X294470Y52228D01*
X296055Y51913D01*
X297641Y52228D01*
X298985Y53127D01*
X299883Y54471D01*
X300199Y56057D01*
X299883Y57642D01*
X298985Y58987D01*
X297641Y59885D01*
X296055Y60200D01*
D02*
G37*
G36*
X197249Y68390D02*
X195664Y68074D01*
X194319Y67176D01*
X193421Y65831D01*
X193106Y64246D01*
X193421Y62660D01*
X194319Y61316D01*
X195664Y60418D01*
X196341Y60283D01*
X196718Y60208D01*
Y58913D01*
X196308Y58831D01*
X195445Y58660D01*
X194101Y57762D01*
X193203Y56417D01*
X192887Y54832D01*
X193203Y53246D01*
X194101Y51901D01*
X195445Y51003D01*
X197031Y50688D01*
X198617Y51003D01*
X199961Y51901D01*
X200859Y53246D01*
X201175Y54832D01*
X200859Y56417D01*
X199961Y57762D01*
X198617Y58660D01*
X197939Y58794D01*
X197562Y58870D01*
Y60164D01*
X197973Y60246D01*
X198835Y60418D01*
X200179Y61316D01*
X201077Y62660D01*
X201393Y64246D01*
X201077Y65831D01*
X200179Y67176D01*
X198835Y68074D01*
X197249Y68390D01*
D02*
G37*
G36*
X230476Y58182D02*
X228891Y57867D01*
X227547Y56968D01*
X226648Y55624D01*
X226333Y54038D01*
X226648Y52453D01*
X227547Y51108D01*
X228891Y50210D01*
X230476Y49895D01*
X232062Y50210D01*
X233406Y51108D01*
X234305Y52453D01*
X234620Y54038D01*
X234305Y55624D01*
X233406Y56968D01*
X232062Y57867D01*
X230476Y58182D01*
D02*
G37*
G36*
X63433Y54289D02*
X61848Y53974D01*
X60503Y53075D01*
X59605Y51731D01*
X59290Y50145D01*
X59605Y48560D01*
X60503Y47215D01*
X61848Y46317D01*
X63433Y46002D01*
X65019Y46317D01*
X66363Y47215D01*
X67261Y48560D01*
X67577Y50145D01*
X67261Y51731D01*
X66363Y53075D01*
X65019Y53974D01*
X63433Y54289D01*
D02*
G37*
G36*
X298005Y49081D02*
X296420Y48766D01*
X296063Y48528D01*
D01*
X295075Y47867D01*
X294177Y46523D01*
X293862Y44937D01*
X294177Y43352D01*
X295075Y42007D01*
X296420Y41109D01*
X298005Y40794D01*
X299591Y41109D01*
X300935Y42007D01*
X301833Y43352D01*
X302149Y44937D01*
X301833Y46523D01*
X300935Y47867D01*
X299591Y48766D01*
X298005Y49081D01*
D02*
G37*
G36*
X310279Y46230D02*
X308694Y45915D01*
X307349Y45017D01*
X306451Y43672D01*
X306136Y42087D01*
X306451Y40501D01*
X307349Y39157D01*
X308694Y38259D01*
X310279Y37943D01*
X311865Y38259D01*
X313209Y39157D01*
X314107Y40501D01*
X314423Y42087D01*
X314107Y43672D01*
X313209Y45017D01*
X311865Y45915D01*
X310279Y46230D01*
D02*
G37*
G36*
X314500Y4701D02*
X312914Y4386D01*
X311570Y3488D01*
X311402Y3236D01*
X309875D01*
X309707Y3488D01*
X308362Y4386D01*
X306777Y4701D01*
X305191Y4386D01*
X303847Y3488D01*
X302948Y2143D01*
X302633Y558D01*
X302948Y-1028D01*
X303847Y-2372D01*
X304844Y-3039D01*
X304904Y-3243D01*
Y-4246D01*
X304844Y-4450D01*
X303847Y-5117D01*
X302948Y-6461D01*
X302633Y-8047D01*
X302948Y-9632D01*
X303847Y-10977D01*
X305191Y-11875D01*
X306777Y-12190D01*
X308362Y-11875D01*
X309707Y-10977D01*
X309875Y-10725D01*
X311402D01*
X311570Y-10977D01*
X312914Y-11875D01*
X314500Y-12190D01*
X316086Y-11875D01*
X317430Y-10977D01*
X318328Y-9632D01*
X318644Y-8047D01*
X318328Y-6461D01*
X317430Y-5117D01*
X316433Y-4450D01*
X316373Y-4246D01*
Y-3243D01*
X316433Y-3039D01*
X317430Y-2372D01*
X318328Y-1028D01*
X318644Y558D01*
X318328Y2143D01*
X317430Y3488D01*
X316086Y4386D01*
X314500Y4701D01*
D02*
G37*
G36*
X276600Y6681D02*
X275014Y6366D01*
X273670Y5467D01*
X272772Y4123D01*
X272456Y2537D01*
X272772Y952D01*
X273670Y-393D01*
X275014Y-1291D01*
X276600Y-1606D01*
X278186Y-1291D01*
X279530Y-393D01*
X280428Y952D01*
X280744Y2537D01*
X280428Y4123D01*
X279530Y5467D01*
X278186Y6366D01*
X276600Y6681D01*
D02*
G37*
G36*
X173639Y-7188D02*
X171777Y-7559D01*
X170197Y-8614D01*
X169142Y-10193D01*
X168772Y-12056D01*
X169142Y-13918D01*
X170197Y-15498D01*
X171777Y-16553D01*
X173639Y-16923D01*
X175502Y-16553D01*
X177081Y-15498D01*
X178136Y-13918D01*
X178507Y-12056D01*
X178136Y-10193D01*
X177081Y-8614D01*
X175502Y-7559D01*
X173639Y-7188D01*
D02*
G37*
G36*
X115839D02*
X113976Y-7559D01*
X112397Y-8614D01*
X111342Y-10193D01*
X110972Y-12056D01*
X111342Y-13918D01*
X112397Y-15498D01*
X113976Y-16553D01*
X115839Y-16923D01*
X117702Y-16553D01*
X119281Y-15498D01*
X120336Y-13918D01*
X120707Y-12056D01*
X120336Y-10193D01*
X119281Y-8614D01*
X117702Y-7559D01*
X115839Y-7188D01*
D02*
G37*
G36*
X128569Y-8371D02*
X126984Y-8686D01*
X125639Y-9584D01*
X124741Y-10929D01*
X124426Y-12514D01*
X124741Y-14100D01*
X125639Y-15444D01*
X126984Y-16343D01*
X128569Y-16658D01*
X130155Y-16343D01*
X130757Y-15941D01*
X132230Y-15860D01*
X133575Y-16759D01*
X135160Y-17074D01*
X136746Y-16759D01*
X138090Y-15860D01*
X138213Y-15677D01*
X139031D01*
X140375Y-16575D01*
X141961Y-16890D01*
X143547Y-16575D01*
X144528Y-15919D01*
X146098Y-15983D01*
X146259Y-16224D01*
X147604Y-17123D01*
X149189Y-17438D01*
X150775Y-17123D01*
X151776Y-16454D01*
X152848Y-15771D01*
X154192Y-16669D01*
X155778Y-16985D01*
X157363Y-16669D01*
X158708Y-15771D01*
X159606Y-14427D01*
X159921Y-12841D01*
X159606Y-11255D01*
X158708Y-9911D01*
X157363Y-9013D01*
X155778Y-8697D01*
X154192Y-9013D01*
X152848Y-9911D01*
X151357Y-9855D01*
X150775Y-9466D01*
X149189Y-9151D01*
X147604Y-9466D01*
X146622Y-10122D01*
X145053Y-10058D01*
X144891Y-9817D01*
X143547Y-8918D01*
X141961Y-8603D01*
X140375Y-8918D01*
X139031Y-9817D01*
X138908Y-10000D01*
X138090D01*
X136746Y-9102D01*
X135160Y-8787D01*
X133575Y-9102D01*
X132230Y-10000D01*
X131141Y-9345D01*
X130155Y-8686D01*
X128569Y-8371D01*
D02*
G37*
G36*
X161637Y-17192D02*
X160052Y-17508D01*
X158707Y-18406D01*
X157809Y-19750D01*
X157494Y-21336D01*
X157809Y-22922D01*
X158707Y-24266D01*
X160052Y-25164D01*
X161637Y-25480D01*
X163223Y-25164D01*
X164567Y-24266D01*
X165466Y-22922D01*
X165781Y-21336D01*
X165466Y-19750D01*
X164567Y-18406D01*
X163223Y-17508D01*
X161637Y-17192D01*
D02*
G37*
G36*
X139484Y-19414D02*
X137899Y-19730D01*
X136554Y-20628D01*
X135656Y-21972D01*
X135340Y-23558D01*
X135656Y-25144D01*
X136554Y-26488D01*
X137899Y-27386D01*
X139484Y-27701D01*
X141070Y-27386D01*
X142414Y-26488D01*
X143312Y-25144D01*
X143628Y-23558D01*
X143312Y-21972D01*
X142414Y-20628D01*
X141070Y-19730D01*
X139484Y-19414D01*
D02*
G37*
G36*
X207154Y-46024D02*
X205569Y-46339D01*
X204224Y-47237D01*
X203326Y-48582D01*
X203011Y-50167D01*
X203326Y-51753D01*
X204224Y-53097D01*
X205569Y-53996D01*
X207154Y-54311D01*
X208740Y-53996D01*
X210084Y-53097D01*
X210983Y-51753D01*
X211298Y-50167D01*
X210983Y-48582D01*
X210084Y-47237D01*
X208740Y-46339D01*
X207154Y-46024D01*
D02*
G37*
%LPD*%
D65*
X-31427Y152605D02*
Y162567D01*
X-40232Y159277D02*
X-35648Y163861D01*
X-32520Y163660D02*
X-31427Y162567D01*
X-35648Y163861D02*
X-33006D01*
X-32520Y163660D02*
Y164347D01*
X-33006Y163861D02*
X-32520Y164347D01*
D66*
X536957Y84800D02*
X539851D01*
X509752Y57500D02*
X533800Y81548D01*
Y81643D01*
X536957Y84800D01*
X386795Y89565D02*
Y225039D01*
X418860Y57500D02*
X509752D01*
X386795Y89565D02*
X418860Y57500D01*
X311301Y300533D02*
X386795Y225039D01*
X126866Y300533D02*
X311301D01*
X84060Y257728D02*
X126866Y300533D01*
X48090Y257728D02*
X84060D01*
X8450Y218088D02*
X48090Y257728D01*
X8450Y185028D02*
Y218088D01*
D67*
X145676Y240640D02*
X177505Y272469D01*
Y289478D01*
X145676Y212261D02*
Y240640D01*
X304242Y-53751D02*
Y-47433D01*
D71*
X458200Y305913D02*
D03*
D72*
X671200Y30458D02*
D03*
Y224458D02*
D03*
D73*
X101488Y-7055D02*
D03*
X187990D02*
D03*
D74*
X101488Y-48855D02*
D03*
X187990D02*
D03*
D76*
X0Y0D02*
D03*
X0Y255258D02*
D03*
D77*
X-17033Y38058D02*
D03*
X551423Y60268D02*
D03*
X559661Y68150D02*
D03*
X549193Y68900D02*
D03*
X539851Y84800D02*
D03*
X542732Y93394D02*
D03*
X533800Y81643D02*
D03*
Y90939D02*
D03*
X553693Y95563D02*
D03*
X571120Y93394D02*
D03*
X563341D02*
D03*
X549557Y128770D02*
D03*
X524245Y129908D02*
D03*
X533800Y127381D02*
D03*
X539089Y197627D02*
D03*
X549960D02*
D03*
X613590Y209034D02*
D03*
X568028Y71300D02*
D03*
X602198Y113622D02*
D03*
X571572Y197927D02*
D03*
X568625Y190793D02*
D03*
X397499Y227968D02*
D03*
X137050Y13190D02*
D03*
X31900Y6600D02*
D03*
X-33085Y51316D02*
D03*
X389934Y77087D02*
D03*
X396560Y70461D02*
D03*
X393399Y93055D02*
D03*
X606700Y12000D02*
D03*
X635308Y12887D02*
D03*
X648400Y13300D02*
D03*
X613187Y16142D02*
D03*
X620990Y185522D02*
D03*
X620515Y199018D02*
D03*
X608800Y215800D02*
D03*
X575250Y207300D02*
D03*
X556383Y218964D02*
D03*
X549557Y226642D02*
D03*
X563208Y197627D02*
D03*
X561078Y207300D02*
D03*
X545600D02*
D03*
X539089Y218964D02*
D03*
X620990Y101505D02*
D03*
Y115508D02*
D03*
X608439Y101999D02*
D03*
X592700Y107101D02*
D03*
X560100Y132600D02*
D03*
X584022Y107101D02*
D03*
X573177Y101999D02*
D03*
X576730Y112353D02*
D03*
X547781Y120049D02*
D03*
X539851Y100320D02*
D03*
X545500Y110200D02*
D03*
X561990Y103860D02*
D03*
X567115Y112645D02*
D03*
X571019Y118224D02*
D03*
X566600Y126756D02*
D03*
X560087Y121528D02*
D03*
X555561Y113622D02*
D03*
X551423Y101999D02*
D03*
X537052Y107101D02*
D03*
X539500Y117679D02*
D03*
X541216Y126854D02*
D03*
X539500Y66603D02*
D03*
X528194Y50896D02*
D03*
X516855Y41700D02*
D03*
X482552Y28652D02*
D03*
X466568Y39258D02*
D03*
X482552Y41700D02*
D03*
X476192Y24394D02*
D03*
Y35375D02*
D03*
X493403Y38030D02*
D03*
X503260Y39258D02*
D03*
X516956Y31819D02*
D03*
X570058Y57759D02*
D03*
X560453Y56155D02*
D03*
X609861Y53112D02*
D03*
X584058Y47720D02*
D03*
X613403Y45451D02*
D03*
X601782Y43600D02*
D03*
X592700Y47720D02*
D03*
Y25641D02*
D03*
X606226Y36068D02*
D03*
X589481Y31819D02*
D03*
X589603Y13344D02*
D03*
X620990Y73500D02*
D03*
X618051Y57759D02*
D03*
X621600Y66603D02*
D03*
X624291Y52035D02*
D03*
X620990Y80501D02*
D03*
Y108507D02*
D03*
Y94504D02*
D03*
Y87503D02*
D03*
X551423Y51897D02*
D03*
X577948Y40130D02*
D03*
X568028Y47720D02*
D03*
X578071Y54951D02*
D03*
X556398Y39830D02*
D03*
X525800Y41700D02*
D03*
X540508Y43270D02*
D03*
X539851Y56155D02*
D03*
X88036Y277281D02*
D03*
X84549Y267556D02*
D03*
X86619Y296593D02*
D03*
X72637Y298568D02*
D03*
X459623Y50896D02*
D03*
Y64104D02*
D03*
X503260D02*
D03*
X468351Y50896D02*
D03*
X485806D02*
D03*
X477078D02*
D03*
X362898Y239596D02*
D03*
X377962Y243212D02*
D03*
X374650Y226928D02*
D03*
X362400Y203834D02*
D03*
X362578Y233120D02*
D03*
X361613Y217677D02*
D03*
X508911Y82958D02*
D03*
X528194Y66603D02*
D03*
X516956Y82958D02*
D03*
X490243Y28652D02*
D03*
X494797Y50896D02*
D03*
X516956Y55365D02*
D03*
X487740Y82958D02*
D03*
X578829Y79144D02*
D03*
X490900Y15768D02*
D03*
X476192Y14197D02*
D03*
X506790Y12328D02*
D03*
X358207Y304825D02*
D03*
X404560Y307278D02*
D03*
X122860Y277281D02*
D03*
X32137Y229920D02*
D03*
X15784Y215782D02*
D03*
X48090Y243868D02*
D03*
X-512Y-41225D02*
D03*
X34924Y80D02*
D03*
X620990Y164518D02*
D03*
Y171519D02*
D03*
X517600Y74900D02*
D03*
X571120Y78196D02*
D03*
X528194Y110459D02*
D03*
X461720Y140800D02*
D03*
X562308Y183823D02*
D03*
X555683D02*
D03*
X620990Y178521D02*
D03*
X533800Y71300D02*
D03*
X477078Y64104D02*
D03*
X-35110Y69147D02*
D03*
X-43382Y34942D02*
D03*
X-3694Y174493D02*
D03*
X-32520Y164347D02*
D03*
X-13548Y285355D02*
D03*
X-18855Y281290D02*
D03*
X-25516Y276210D02*
D03*
X-31048Y271806D02*
D03*
X-36129Y266952D02*
D03*
X-62958Y48718D02*
D03*
X-62910Y41919D02*
D03*
X-63033Y35425D02*
D03*
X-62977Y29018D02*
D03*
X-7120Y-38005D02*
D03*
X-15959Y-32400D02*
D03*
X-22277Y-26837D02*
D03*
X-29672Y-20526D02*
D03*
X-36476Y-14905D02*
D03*
X-46041Y160731D02*
D03*
X-45955Y167526D02*
D03*
X-40232Y159277D02*
D03*
X-48651Y-1949D02*
D03*
X-42189Y-8733D02*
D03*
X-55279Y6205D02*
D03*
X-5631Y48180D02*
D03*
X-33889Y158612D02*
D03*
X-31427Y152605D02*
D03*
X-40376Y167467D02*
D03*
X-37448Y173243D02*
D03*
X198306Y-1083D02*
D03*
X177505Y289478D02*
D03*
X-5126Y155885D02*
D03*
X406052Y-67462D02*
D03*
X377620D02*
D03*
X350000D02*
D03*
Y-60153D02*
D03*
X307581Y-67970D02*
D03*
X321900Y-63542D02*
D03*
X620990Y143514D02*
D03*
X175316Y234746D02*
D03*
X68592Y229823D02*
D03*
X163069Y236888D02*
D03*
X-15248Y217968D02*
D03*
X-8100Y211328D02*
D03*
X276300Y-67970D02*
D03*
X275080Y320308D02*
D03*
X265830Y319988D02*
D03*
X143416Y277675D02*
D03*
X85254Y222531D02*
D03*
X88115Y239572D02*
D03*
X27039Y126629D02*
D03*
X109408Y17799D02*
D03*
X-41645Y262334D02*
D03*
X-46330Y255990D02*
D03*
X-53162Y250036D02*
D03*
X-57457Y244570D02*
D03*
X-7645Y289697D02*
D03*
X-2155Y294168D02*
D03*
X5020Y297235D02*
D03*
X11013Y300818D02*
D03*
X17006Y303351D02*
D03*
X23555Y306317D02*
D03*
X29425Y309035D02*
D03*
X36159Y311507D02*
D03*
X204939Y293551D02*
D03*
X159500Y17799D02*
D03*
X440750Y309618D02*
D03*
X437630Y286618D02*
D03*
X466110Y294457D02*
D03*
X470611Y283358D02*
D03*
X471110Y258568D02*
D03*
X457334Y251562D02*
D03*
X443496Y276662D02*
D03*
X471110Y241348D02*
D03*
X526299D02*
D03*
X575250Y235590D02*
D03*
X561078Y238618D02*
D03*
X567316Y242926D02*
D03*
X577200Y221658D02*
D03*
X569690Y223394D02*
D03*
X539089Y237089D02*
D03*
X549960Y242188D02*
D03*
X537563Y243353D02*
D03*
X516770Y241348D02*
D03*
X503547Y242748D02*
D03*
X493870D02*
D03*
X480010Y241348D02*
D03*
X466110Y246806D02*
D03*
X454570Y258568D02*
D03*
X409550Y299448D02*
D03*
X417500Y286208D02*
D03*
X429480Y277008D02*
D03*
X437630Y271588D02*
D03*
X417500Y307278D02*
D03*
X438760Y299448D02*
D03*
X429480Y307278D02*
D03*
X431520Y321048D02*
D03*
X413070Y319678D02*
D03*
X401405Y319865D02*
D03*
X422910Y294318D02*
D03*
X429480Y286618D02*
D03*
X398170Y180990D02*
D03*
Y191471D02*
D03*
X401535Y202434D02*
D03*
X407200Y210098D02*
D03*
X414933Y212543D02*
D03*
X412520Y220498D02*
D03*
X397790Y234598D02*
D03*
X392470Y239368D02*
D03*
X387520Y244808D02*
D03*
X620990Y122510D02*
D03*
Y129511D02*
D03*
X480683Y82958D02*
D03*
X575215Y28418D02*
D03*
X522800Y60700D02*
D03*
X494533Y64104D02*
D03*
X568950Y133273D02*
D03*
X439372Y183100D02*
D03*
X571024Y140484D02*
D03*
X539500Y77000D02*
D03*
X485806Y64104D02*
D03*
X606700Y23858D02*
D03*
X580150Y19326D02*
D03*
X598939Y17127D02*
D03*
X531680Y28418D02*
D03*
X518420Y20218D02*
D03*
X528340Y12628D02*
D03*
X510500Y68900D02*
D03*
X512269Y50896D02*
D03*
X524245Y82958D02*
D03*
X503260Y50896D02*
D03*
X501815Y24394D02*
D03*
X494797Y82958D02*
D03*
X501854D02*
D03*
X620990Y136512D02*
D03*
X563208Y140800D02*
D03*
X607564Y201600D02*
D03*
X620990Y157517D02*
D03*
Y150515D02*
D03*
X614659Y201600D02*
D03*
X620990Y192523D02*
D03*
X580913Y201600D02*
D03*
X568669Y183580D02*
D03*
X458236Y191398D02*
D03*
X445397Y82958D02*
D03*
X466568D02*
D03*
X473625D02*
D03*
X528194Y100320D02*
D03*
X468351Y64104D02*
D03*
X556383Y140800D02*
D03*
X509701Y129908D02*
D03*
X501627Y126608D02*
D03*
X493863Y126528D02*
D03*
X486099Y126608D02*
D03*
X478335D02*
D03*
X470571D02*
D03*
X462807D02*
D03*
X455043D02*
D03*
X446821Y140800D02*
D03*
X354078Y291073D02*
D03*
X362578Y271118D02*
D03*
X354770Y282548D02*
D03*
X370462Y259613D02*
D03*
X363202Y264019D02*
D03*
X382682Y249916D02*
D03*
X360360Y277908D02*
D03*
X376760Y254978D02*
D03*
X328821Y273673D02*
D03*
X-60605Y14135D02*
D03*
X162443Y293058D02*
D03*
X8450Y185028D02*
D03*
X310151Y-47461D02*
D03*
X393072Y-67462D02*
D03*
X447279Y126796D02*
D03*
X439515D02*
D03*
X443247Y-52826D02*
D03*
Y-59913D02*
D03*
X436100Y-52948D02*
D03*
Y-59913D02*
D03*
X204642Y-58206D02*
D03*
X199806Y-52993D02*
D03*
X197797Y-26177D02*
D03*
X199681Y-46211D02*
D03*
X197797Y-39342D02*
D03*
X197671Y-33336D02*
D03*
X198249Y-9610D02*
D03*
X255200Y-67970D02*
D03*
X216031D02*
D03*
X223889D02*
D03*
X248100D02*
D03*
X314524Y-63542D02*
D03*
X314582Y-55580D02*
D03*
X321900Y-55347D02*
D03*
X304242Y-41116D02*
D03*
Y-47433D02*
D03*
X310151Y-41116D02*
D03*
X304242Y-53751D02*
D03*
X23515Y-6223D02*
D03*
X31028D02*
D03*
X23888Y4003D02*
D03*
X39718Y-16634D02*
D03*
X358491Y295945D02*
D03*
X461720Y183100D02*
D03*
X446821D02*
D03*
X408323Y126796D02*
D03*
X416223Y127024D02*
D03*
X423987Y127075D02*
D03*
X431751Y127024D02*
D03*
X397080Y106367D02*
D03*
X459511Y82958D02*
D03*
X452454D02*
D03*
X450896Y64104D02*
D03*
X442168D02*
D03*
X439372Y140800D02*
D03*
X454271D02*
D03*
X328821Y259864D02*
D03*
Y266769D02*
D03*
Y252959D02*
D03*
Y225384D02*
D03*
Y218479D02*
D03*
Y211574D02*
D03*
Y232289D02*
D03*
X305301Y90931D02*
D03*
X328821Y76263D02*
D03*
Y69358D02*
D03*
Y62453D02*
D03*
Y83168D02*
D03*
X296055Y276006D02*
D03*
Y255292D02*
D03*
Y269101D02*
D03*
Y248387D02*
D03*
Y220812D02*
D03*
Y213907D02*
D03*
Y227717D02*
D03*
Y103522D02*
D03*
Y110426D02*
D03*
Y76771D02*
D03*
Y69866D02*
D03*
Y83676D02*
D03*
X264051Y276260D02*
D03*
Y255546D02*
D03*
Y269355D02*
D03*
Y248641D02*
D03*
Y221066D02*
D03*
Y214161D02*
D03*
Y227971D02*
D03*
Y77025D02*
D03*
Y70120D02*
D03*
Y83930D02*
D03*
X230269Y277022D02*
D03*
Y256308D02*
D03*
Y270117D02*
D03*
Y249403D02*
D03*
Y221828D02*
D03*
Y214923D02*
D03*
Y228733D02*
D03*
X197030Y87948D02*
D03*
X197249Y229001D02*
D03*
Y215191D02*
D03*
Y222096D02*
D03*
Y249671D02*
D03*
Y263481D02*
D03*
Y256576D02*
D03*
X122860Y322318D02*
D03*
X114120Y322428D02*
D03*
X106005Y322318D02*
D03*
X96980D02*
D03*
X86721Y322428D02*
D03*
X77986Y321884D02*
D03*
X69606Y320643D02*
D03*
X60564Y318488D02*
D03*
X51976Y316264D02*
D03*
X43388Y313978D02*
D03*
X-62142Y238519D02*
D03*
X-41665Y246906D02*
D03*
X-62910Y22224D02*
D03*
X164991Y102979D02*
D03*
Y109820D02*
D03*
X164603Y85323D02*
D03*
X164483Y93141D02*
D03*
X165245Y211183D02*
D03*
Y218024D02*
D03*
Y224865D02*
D03*
Y203631D02*
D03*
X164279Y278324D02*
D03*
X403758Y92682D02*
D03*
X399593Y98434D02*
D03*
X358207Y319584D02*
D03*
Y312204D02*
D03*
X398204Y115160D02*
D03*
X403625Y120118D02*
D03*
X403332Y154543D02*
D03*
X401535Y162920D02*
D03*
X403222Y171102D02*
D03*
X261378Y42924D02*
D03*
X454271Y183100D02*
D03*
X438340Y82958D02*
D03*
D78*
X369850Y252761D02*
D03*
X362400Y187248D02*
D03*
X354770Y239368D02*
D03*
X340080Y239900D02*
D03*
X280815Y93141D02*
D03*
X214340Y93395D02*
D03*
X230959D02*
D03*
X264196Y93141D02*
D03*
X247577Y93395D02*
D03*
X181102Y93141D02*
D03*
X328999D02*
D03*
X297281D02*
D03*
X313067D02*
D03*
X195080Y239948D02*
D03*
X329577Y239699D02*
D03*
X313791D02*
D03*
X180993D02*
D03*
X214231D02*
D03*
X264088Y239953D02*
D03*
X280706Y239699D02*
D03*
X247469Y239953D02*
D03*
X230850D02*
D03*
X297325Y239699D02*
D03*
M02*
