G04*
G04 #@! TF.GenerationSoftware,Altium Limited,Altium Designer,22.2.1 (43)*
G04*
G04 Layer_Physical_Order=2*
G04 Layer_Color=36540*
%FSLAX44Y44*%
%MOMM*%
G71*
G04*
G04 #@! TF.SameCoordinates,D676EA34-7746-482F-A41B-9349FDE20BFB*
G04*
G04*
G04 #@! TF.FilePolarity,Positive*
G04*
G01*
G75*
%ADD71C,1.5001*%
%ADD72C,2.5254*%
%ADD73O,1.0000X2.1001*%
%ADD74O,1.1001X1.7000*%
%ADD76C,3.8000*%
%ADD77C,0.5080*%
%ADD78C,0.7112*%
G36*
X476363Y326405D02*
Y248728D01*
X476521Y247935D01*
X476970Y247263D01*
X477642Y246814D01*
X478435Y246656D01*
X570609D01*
X578446Y237830D01*
Y237089D01*
X578486Y236889D01*
Y236685D01*
X579082Y233686D01*
X579161Y233497D01*
X579200Y233297D01*
X580370Y230473D01*
X580484Y230303D01*
X580562Y230114D01*
X582261Y227572D01*
X582405Y227428D01*
X582518Y227258D01*
X584680Y225096D01*
X584850Y224983D01*
X584994Y224839D01*
X587536Y223140D01*
X587725Y223062D01*
X587895Y222949D01*
X590719Y221779D01*
X590919Y221739D01*
X591108Y221661D01*
X594106Y221064D01*
X594311D01*
X594511Y221024D01*
X597568D01*
X597768Y221064D01*
X597972D01*
X600971Y221661D01*
X601160Y221739D01*
X601360Y221779D01*
X604184Y222949D01*
X604354Y223062D01*
X604543Y223140D01*
X607085Y224839D01*
X607229Y224983D01*
X607399Y225096D01*
X609561Y227258D01*
X609674Y227428D01*
X609818Y227572D01*
X611517Y230114D01*
X611595Y230303D01*
X611708Y230473D01*
X612878Y233297D01*
X612918Y233497D01*
X612996Y233686D01*
X613593Y236685D01*
Y236889D01*
X613633Y237089D01*
Y237886D01*
X620708Y246656D01*
X698941D01*
X701520Y244076D01*
Y212532D01*
X685996D01*
X685682Y212124D01*
X685056Y211457D01*
X657344Y211457D01*
X657344Y211457D01*
X656718Y212124D01*
X656403Y212532D01*
X631590D01*
X630797Y212374D01*
X630125Y211925D01*
X629676Y211253D01*
X629518Y210460D01*
Y44460D01*
X629676Y43667D01*
X630125Y42995D01*
X630797Y42546D01*
X631590Y42388D01*
X656404D01*
X656646Y42705D01*
X657265Y43373D01*
X685135Y43373D01*
X685135Y43373D01*
X685754Y42705D01*
X685996Y42388D01*
X701520D01*
X701520Y11304D01*
X698476Y8260D01*
X580564D01*
X572726Y17085D01*
Y17826D01*
X572687Y18026D01*
Y18230D01*
X572090Y21229D01*
X572012Y21418D01*
X571972Y21618D01*
X570802Y24443D01*
X570689Y24612D01*
X570611Y24801D01*
X568912Y27343D01*
X568768Y27487D01*
X568655Y27657D01*
X566493Y29819D01*
X566323Y29932D01*
X566179Y30076D01*
X563636Y31775D01*
X563448Y31853D01*
X563278Y31967D01*
X560453Y33136D01*
X560253Y33176D01*
X560065Y33254D01*
X557066Y33851D01*
X556862D01*
X556662Y33891D01*
X553605D01*
X553404Y33851D01*
X553200D01*
X550202Y33254D01*
X550013Y33176D01*
X549813Y33136D01*
X546988Y31967D01*
X546819Y31853D01*
X546630Y31775D01*
X544088Y30076D01*
X543944Y29932D01*
X543774Y29819D01*
X541612Y27657D01*
X541499Y27487D01*
X541354Y27343D01*
X539656Y24801D01*
X539578Y24612D01*
X539464Y24443D01*
X538294Y21618D01*
X538254Y21418D01*
X538176Y21229D01*
X537580Y18230D01*
Y18026D01*
X537540Y17826D01*
Y17029D01*
X530465Y8260D01*
X478435D01*
X477642Y8102D01*
X476970Y7653D01*
X476521Y6981D01*
X476363Y6188D01*
X476363Y-71490D01*
X98700D01*
X98335Y-71563D01*
X97968Y-71624D01*
X97641Y-71747D01*
X91938Y-71792D01*
X79811Y-71135D01*
X75631Y-70648D01*
X75705Y-69378D01*
X77198D01*
X78692Y-68759D01*
X79060Y-68391D01*
X80139Y-67882D01*
X80719Y-68391D01*
X81330Y-69002D01*
X82824Y-69621D01*
X84441D01*
X85935Y-69002D01*
X86871Y-68066D01*
X87105Y-67861D01*
X88415Y-67951D01*
X88898Y-68434D01*
X90392Y-69053D01*
X92008D01*
X93502Y-68434D01*
X94645Y-67291D01*
X95264Y-65797D01*
Y-64180D01*
X94645Y-62687D01*
X93502Y-61543D01*
X92008Y-60925D01*
X90392D01*
X88898Y-61543D01*
X87962Y-62480D01*
X87728Y-62685D01*
X86418Y-62595D01*
X85935Y-62112D01*
X84441Y-61493D01*
X82824D01*
X81330Y-62112D01*
X80962Y-62480D01*
X79883Y-62989D01*
X79303Y-62480D01*
X78692Y-61868D01*
X77198Y-61250D01*
X75581D01*
X74307Y-61778D01*
X73113Y-62214D01*
X71969Y-61071D01*
X70476Y-60452D01*
X68859D01*
X67365Y-61071D01*
X66726Y-61710D01*
X65614Y-60597D01*
X64120Y-59978D01*
X62503D01*
X61009Y-60597D01*
X60268Y-61339D01*
X59798Y-61245D01*
X58654Y-60102D01*
X57161Y-59483D01*
X55544D01*
X54050Y-60102D01*
X52907Y-61245D01*
X52288Y-62739D01*
Y-64355D01*
X52776Y-65532D01*
X52208Y-66437D01*
X51965Y-66642D01*
X43998Y-64693D01*
X32402Y-61082D01*
X21053Y-56761D01*
X9992Y-51746D01*
X-737Y-46055D01*
X-11094Y-39712D01*
X-21038Y-32740D01*
X-30531Y-25166D01*
X-39538Y-17018D01*
X-48022Y-8329D01*
X-55953Y869D01*
X-63300Y10539D01*
X-66319Y15071D01*
X-66319Y64360D01*
Y195678D01*
X-66319Y237957D01*
X-63322Y242291D01*
X-56047Y251622D01*
X-48250Y260522D01*
X-39958Y268961D01*
X-31197Y276913D01*
X-21995Y284350D01*
X-12384Y291250D01*
X-2393Y297589D01*
X7943Y303347D01*
X18592Y308504D01*
X29518Y313044D01*
X40685Y316952D01*
X52058Y320215D01*
X63599Y322823D01*
X75270Y324767D01*
X87033Y326041D01*
X92941Y326340D01*
X93077Y326374D01*
X93217Y326373D01*
X93392Y326406D01*
X476363Y326405D01*
D02*
G37*
%LPC*%
G36*
X37648Y296539D02*
X36031D01*
X34538Y295920D01*
X33394Y294777D01*
X32776Y293284D01*
Y291667D01*
X33394Y290173D01*
X34538Y289030D01*
X36031Y288411D01*
X37648D01*
X39142Y289030D01*
X40285Y290173D01*
X40904Y291667D01*
Y293284D01*
X40285Y294777D01*
X39142Y295920D01*
X37648Y296539D01*
D02*
G37*
G36*
X178314Y293542D02*
X176697D01*
X175203Y292923D01*
X174060Y291780D01*
X173441Y290286D01*
Y288670D01*
X173533Y288448D01*
X172971Y287866D01*
X172509Y287602D01*
X171163Y288160D01*
X169547D01*
X168053Y287541D01*
X166910Y286398D01*
X166291Y284904D01*
Y283287D01*
X166910Y281794D01*
X168053Y280650D01*
X169547Y280032D01*
X171163D01*
X172657Y280650D01*
X173800Y281794D01*
X174419Y283287D01*
Y284904D01*
X174327Y285126D01*
X174889Y285707D01*
X175352Y285971D01*
X176697Y285414D01*
X178314D01*
X179807Y286033D01*
X180951Y287176D01*
X181569Y288670D01*
Y290286D01*
X180951Y291780D01*
X179807Y292923D01*
X178314Y293542D01*
D02*
G37*
G36*
X337188Y295707D02*
X335572D01*
X334078Y295088D01*
X332935Y293945D01*
X332316Y292451D01*
Y290834D01*
X332935Y289341D01*
X334078Y288197D01*
X335572Y287579D01*
X337188D01*
X338682Y288197D01*
X339825Y289341D01*
X340444Y290834D01*
Y292451D01*
X339825Y293945D01*
X338682Y295088D01*
X337188Y295707D01*
D02*
G37*
G36*
X298633Y294118D02*
X297016D01*
X295522Y293499D01*
X294379Y292356D01*
X293761Y290862D01*
Y289245D01*
X294379Y287752D01*
X295522Y286609D01*
X297016Y285990D01*
X298633D01*
X300127Y286609D01*
X301270Y287752D01*
X301889Y289245D01*
Y290862D01*
X301270Y292356D01*
X300127Y293499D01*
X298633Y294118D01*
D02*
G37*
G36*
X265525D02*
X263908D01*
X262414Y293499D01*
X261271Y292356D01*
X260653Y290862D01*
Y289245D01*
X261271Y287752D01*
X262414Y286609D01*
X263908Y285990D01*
X265525D01*
X267019Y286609D01*
X268162Y287752D01*
X268781Y289245D01*
Y290862D01*
X268162Y292356D01*
X267019Y293499D01*
X265525Y294118D01*
D02*
G37*
G36*
X231658D02*
X230041D01*
X228548Y293499D01*
X227404Y292356D01*
X226786Y290862D01*
Y289245D01*
X227404Y287752D01*
X228548Y286609D01*
X230041Y285990D01*
X231658D01*
X233152Y286609D01*
X234295Y287752D01*
X234914Y289245D01*
Y290862D01*
X234295Y292356D01*
X233152Y293499D01*
X231658Y294118D01*
D02*
G37*
G36*
X73445Y294055D02*
X71828D01*
X70335Y293436D01*
X69192Y292293D01*
X68573Y290799D01*
Y289182D01*
X69192Y287689D01*
X70335Y286545D01*
X71828Y285927D01*
X73445D01*
X74939Y286545D01*
X76082Y287689D01*
X76701Y289182D01*
Y290799D01*
X76082Y292293D01*
X74939Y293436D01*
X73445Y294055D01*
D02*
G37*
G36*
X144454Y292542D02*
X142837D01*
X141343Y291923D01*
X140200Y290780D01*
X139581Y289286D01*
Y287669D01*
X140200Y286175D01*
X141343Y285032D01*
X142837Y284414D01*
X144454D01*
X145948Y285032D01*
X147091Y286175D01*
X147709Y287669D01*
Y289286D01*
X147091Y290780D01*
X145948Y291923D01*
X144454Y292542D01*
D02*
G37*
G36*
X154316Y292041D02*
X152699D01*
X151205Y291422D01*
X150062Y290279D01*
X149443Y288785D01*
Y287168D01*
X150062Y285674D01*
X151205Y284531D01*
X152699Y283913D01*
X154316D01*
X155809Y284531D01*
X156952Y285674D01*
X157571Y287168D01*
Y288785D01*
X156952Y290279D01*
X155809Y291422D01*
X154316Y292041D01*
D02*
G37*
G36*
X77154Y281539D02*
X75537D01*
X74043Y280920D01*
X72900Y279777D01*
X72281Y278283D01*
Y276666D01*
X72900Y275173D01*
X74043Y274029D01*
X75537Y273411D01*
X77154D01*
X78647Y274029D01*
X79791Y275173D01*
X80409Y276666D01*
Y278283D01*
X79791Y279777D01*
X78647Y280920D01*
X77154Y281539D01*
D02*
G37*
G36*
X48899Y274152D02*
X47282D01*
X45788Y273533D01*
X44645Y272390D01*
X44026Y270896D01*
Y270722D01*
X42756Y270196D01*
X42630Y270322D01*
X41136Y270941D01*
X39520D01*
X38026Y270322D01*
X36883Y269179D01*
X36264Y267685D01*
Y266068D01*
X36883Y264575D01*
X38026Y263431D01*
X39520Y262813D01*
X41136D01*
X42630Y263431D01*
X43773Y264575D01*
X44392Y266068D01*
Y266242D01*
X45662Y266768D01*
X45788Y266642D01*
X47282Y266024D01*
X48899D01*
X50392Y266642D01*
X51535Y267785D01*
X52154Y269279D01*
Y270896D01*
X51535Y272390D01*
X50392Y273533D01*
X48899Y274152D01*
D02*
G37*
G36*
X198058Y274450D02*
X196441D01*
X194947Y273831D01*
X193804Y272688D01*
X193185Y271194D01*
Y269577D01*
X193804Y268084D01*
X194947Y266940D01*
X196441Y266322D01*
X198058D01*
X199551Y266940D01*
X200695Y268084D01*
X201313Y269577D01*
Y271194D01*
X200695Y272688D01*
X199551Y273831D01*
X198058Y274450D01*
D02*
G37*
G36*
X77119Y271068D02*
X75502D01*
X74008Y270449D01*
X72865Y269306D01*
X72246Y267812D01*
Y266195D01*
X72865Y264702D01*
X74008Y263558D01*
X75502Y262940D01*
X77119D01*
X78612Y263558D01*
X79755Y264702D01*
X80374Y266195D01*
Y267812D01*
X79755Y269306D01*
X78612Y270449D01*
X77119Y271068D01*
D02*
G37*
G36*
X459388Y279936D02*
X457012D01*
X454717Y279321D01*
X452659Y278133D01*
X450979Y276453D01*
X449790Y274395D01*
X449175Y272100D01*
Y269724D01*
X449790Y267428D01*
X450979Y265371D01*
X452659Y263690D01*
X454717Y262502D01*
X457012Y261887D01*
X459388D01*
X461684Y262502D01*
X463741Y263690D01*
X465422Y265371D01*
X466610Y267428D01*
X467225Y269724D01*
Y272100D01*
X466610Y274395D01*
X465422Y276453D01*
X463741Y278133D01*
X461684Y279321D01*
X459388Y279936D01*
D02*
G37*
G36*
X231078Y267277D02*
X229461D01*
X227967Y266658D01*
X226824Y265515D01*
X226205Y264021D01*
Y262404D01*
X226824Y260911D01*
X227967Y259767D01*
X229461Y259149D01*
X231078D01*
X232571Y259767D01*
X233715Y260911D01*
X234333Y262404D01*
Y264021D01*
X233715Y265515D01*
X232571Y266658D01*
X231078Y267277D01*
D02*
G37*
G36*
X264860Y266515D02*
X263243D01*
X261749Y265896D01*
X260606Y264753D01*
X259987Y263259D01*
Y261642D01*
X260606Y260149D01*
X261749Y259005D01*
X263243Y258387D01*
X264860D01*
X266353Y259005D01*
X267497Y260149D01*
X268115Y261642D01*
Y263259D01*
X267497Y264753D01*
X266353Y265896D01*
X264860Y266515D01*
D02*
G37*
G36*
X296864Y266261D02*
X295247D01*
X293753Y265642D01*
X292610Y264499D01*
X291991Y263005D01*
Y261388D01*
X292610Y259895D01*
X293753Y258751D01*
X295247Y258133D01*
X296864D01*
X298357Y258751D01*
X299501Y259895D01*
X300119Y261388D01*
Y263005D01*
X299501Y264499D01*
X298357Y265642D01*
X296864Y266261D01*
D02*
G37*
G36*
X74758Y255188D02*
X73141D01*
X71647Y254569D01*
X70504Y253426D01*
X69885Y251932D01*
Y250315D01*
X70504Y248822D01*
X71647Y247678D01*
X73141Y247060D01*
X74758D01*
X76251Y247678D01*
X77395Y248822D01*
X78013Y250315D01*
Y251932D01*
X77395Y253426D01*
X76251Y254569D01*
X74758Y255188D01*
D02*
G37*
G36*
X77154Y243636D02*
X75537D01*
X74043Y243017D01*
X72900Y241874D01*
X72281Y240380D01*
Y238763D01*
X72900Y237270D01*
X74043Y236126D01*
X75537Y235508D01*
X77154D01*
X78647Y236126D01*
X79791Y237270D01*
X80409Y238763D01*
Y240380D01*
X79791Y241874D01*
X78647Y243017D01*
X77154Y243636D01*
D02*
G37*
G36*
Y233984D02*
X75537D01*
X74043Y233365D01*
X72900Y232222D01*
X72281Y230728D01*
Y229111D01*
X72900Y227618D01*
X74043Y226474D01*
X75537Y225856D01*
X77154D01*
X78647Y226474D01*
X79791Y227618D01*
X80409Y229111D01*
Y230728D01*
X79791Y232222D01*
X78647Y233365D01*
X77154Y233984D01*
D02*
G37*
G36*
X-30684Y215863D02*
X-32301D01*
X-33795Y215244D01*
X-34938Y214101D01*
X-35556Y212607D01*
Y210990D01*
X-35412Y210640D01*
X-36311Y209492D01*
X-37007Y209597D01*
X-37601Y210442D01*
Y212059D01*
X-38220Y213553D01*
X-39363Y214696D01*
X-40857Y215315D01*
X-42474D01*
X-43967Y214696D01*
X-45110Y213553D01*
X-45227Y213271D01*
X-45300Y213228D01*
X-46685Y213070D01*
X-47644Y214029D01*
X-49435Y214771D01*
X-51374D01*
X-53166Y214029D01*
X-54537Y212658D01*
X-55279Y210866D01*
Y208927D01*
X-54537Y207136D01*
X-53166Y205765D01*
X-51374Y205023D01*
X-49435D01*
X-47644Y205765D01*
X-46273Y207136D01*
X-45928Y207970D01*
X-44429Y208268D01*
X-43967Y207805D01*
X-42856Y207345D01*
X-41991Y206114D01*
Y204497D01*
X-41372Y203004D01*
X-40631Y202262D01*
X-40542Y201160D01*
X-40742Y200714D01*
X-41061Y200395D01*
X-41946Y199949D01*
X-42720Y200395D01*
X-43308Y200982D01*
X-44802Y201601D01*
X-46418D01*
X-47912Y200982D01*
X-49055Y199839D01*
X-49674Y198345D01*
Y196729D01*
X-49055Y195235D01*
X-47912Y194092D01*
X-46418Y193473D01*
X-44802D01*
X-43308Y194092D01*
X-42771Y194629D01*
X-41886Y195075D01*
X-41111Y194629D01*
X-40524Y194042D01*
X-39030Y193423D01*
X-37413D01*
X-35920Y194042D01*
X-34857Y195104D01*
X-33795Y194042D01*
X-32301Y193423D01*
X-30684D01*
X-29190Y194042D01*
X-28047Y195185D01*
X-27429Y196679D01*
Y198295D01*
X-28047Y199789D01*
X-28528Y200270D01*
X-28729Y201501D01*
X-28447Y201848D01*
X-27595Y202701D01*
X-26976Y204194D01*
Y205811D01*
X-27595Y207305D01*
X-28738Y208448D01*
X-28797Y208746D01*
X-28047Y209496D01*
X-27429Y210990D01*
Y212607D01*
X-28047Y214101D01*
X-29190Y215244D01*
X-30684Y215863D01*
D02*
G37*
G36*
X34258Y214592D02*
X32642D01*
X31148Y213973D01*
X30005Y212830D01*
X29386Y211336D01*
Y209719D01*
X30005Y208225D01*
X31148Y207082D01*
X32642Y206464D01*
X34258D01*
X35752Y207082D01*
X36895Y208225D01*
X37514Y209719D01*
Y211336D01*
X36895Y212830D01*
X35752Y213973D01*
X34258Y214592D01*
D02*
G37*
G36*
X380999Y205385D02*
X379383D01*
X377889Y204766D01*
X376746Y203623D01*
X376127Y202129D01*
Y200512D01*
X376746Y199018D01*
X377388Y198377D01*
X377747Y197547D01*
X377388Y196717D01*
X376746Y196075D01*
X376127Y194582D01*
Y192965D01*
X376746Y191471D01*
X377889Y190328D01*
X379383Y189709D01*
X380999D01*
X382493Y190328D01*
X383636Y191471D01*
X384255Y192965D01*
Y194582D01*
X383636Y196075D01*
X382995Y196717D01*
X382635Y197547D01*
X382995Y198377D01*
X383636Y199018D01*
X384255Y200512D01*
Y202129D01*
X383636Y203623D01*
X382493Y204766D01*
X380999Y205385D01*
D02*
G37*
G36*
X36758Y195412D02*
X35142D01*
X33648Y194793D01*
X32505Y193650D01*
X31886Y192156D01*
Y190539D01*
X32505Y189046D01*
X33648Y187902D01*
X35142Y187284D01*
X36758D01*
X38252Y187902D01*
X39395Y189046D01*
X40014Y190539D01*
Y192156D01*
X39395Y193650D01*
X38252Y194793D01*
X36758Y195412D01*
D02*
G37*
G36*
X86063Y197970D02*
X84446D01*
X82952Y197351D01*
X81809Y196208D01*
X81191Y194715D01*
Y193098D01*
X81809Y191604D01*
X82500Y190913D01*
X81740Y190153D01*
X81121Y188659D01*
Y187042D01*
X81740Y185549D01*
X82883Y184405D01*
X84376Y183787D01*
X85993D01*
X87487Y184405D01*
X88630Y185549D01*
X89249Y187042D01*
Y188659D01*
X88630Y190153D01*
X87939Y190844D01*
X88700Y191604D01*
X89319Y193098D01*
Y194715D01*
X88700Y196208D01*
X87557Y197351D01*
X86063Y197970D01*
D02*
G37*
G36*
X-45005Y189795D02*
X-46622D01*
X-48116Y189176D01*
X-49259Y188033D01*
X-49878Y186539D01*
Y184922D01*
X-49259Y183429D01*
X-48116Y182285D01*
X-46622Y181667D01*
X-45005D01*
X-43512Y182285D01*
X-42368Y183429D01*
X-41750Y184922D01*
Y186539D01*
X-42368Y188033D01*
X-43512Y189176D01*
X-45005Y189795D01*
D02*
G37*
G36*
X9258Y189092D02*
X7642D01*
X6148Y188473D01*
X5005Y187330D01*
X4386Y185836D01*
Y184219D01*
X5005Y182726D01*
X6148Y181582D01*
X7642Y180964D01*
X9258D01*
X10752Y181582D01*
X11895Y182726D01*
X12514Y184219D01*
Y185836D01*
X11895Y187330D01*
X10752Y188473D01*
X9258Y189092D01*
D02*
G37*
G36*
X36758Y180454D02*
X35142D01*
X33648Y179835D01*
X32505Y178692D01*
X31886Y177199D01*
Y175582D01*
X32505Y174088D01*
X33648Y172945D01*
X35142Y172326D01*
X36758D01*
X38252Y172945D01*
X39395Y174088D01*
X40014Y175582D01*
Y177199D01*
X39395Y178692D01*
X38252Y179835D01*
X36758Y180454D01*
D02*
G37*
G36*
X-36640Y177307D02*
X-38257D01*
X-39751Y176688D01*
X-40894Y175545D01*
X-41512Y174051D01*
Y172435D01*
X-42201Y171262D01*
X-43532Y170851D01*
X-43653Y170971D01*
X-45147Y171590D01*
X-46764D01*
X-48257Y170971D01*
X-49401Y169828D01*
X-50019Y168335D01*
Y166718D01*
X-49401Y165224D01*
X-48348Y164172D01*
X-49487Y163033D01*
X-50105Y161539D01*
Y159922D01*
X-49487Y158429D01*
X-48343Y157285D01*
X-46850Y156667D01*
X-45233D01*
X-43796Y157262D01*
X-43677Y156975D01*
X-42534Y155832D01*
X-41040Y155213D01*
X-39423D01*
X-38344Y155660D01*
X-37930Y155832D01*
X-36495Y155471D01*
X-36191Y155167D01*
X-34974Y154663D01*
X-35491Y153413D01*
Y151797D01*
X-34873Y150303D01*
X-33729Y149160D01*
X-33694Y149145D01*
Y147770D01*
X-33709Y147764D01*
X-34853Y146621D01*
X-35471Y145127D01*
Y143510D01*
X-34853Y142017D01*
X-33709Y140873D01*
X-32457Y140355D01*
X-32280Y139976D01*
X-32190Y139592D01*
X-32167Y138985D01*
X-33073Y138079D01*
X-33691Y136586D01*
Y134969D01*
X-33073Y133475D01*
X-31930Y132332D01*
X-30436Y131713D01*
X-28819D01*
X-27325Y132332D01*
X-26182Y133475D01*
X-25563Y134969D01*
Y136586D01*
X-26182Y138079D01*
X-27325Y139223D01*
X-28578Y139741D01*
X-28754Y140120D01*
X-28844Y140504D01*
X-28867Y141111D01*
X-27962Y142017D01*
X-27343Y143510D01*
Y145127D01*
X-27962Y146621D01*
X-29105Y147764D01*
X-29141Y147779D01*
Y149153D01*
X-29125Y149160D01*
X-27982Y150303D01*
X-27363Y151797D01*
Y153413D01*
X-27982Y154907D01*
X-29125Y156050D01*
X-30343Y156555D01*
X-29825Y157804D01*
Y159421D01*
X-30406Y160824D01*
X-30218Y160902D01*
X-29075Y162045D01*
X-28456Y163539D01*
Y165155D01*
X-29075Y166649D01*
X-30218Y167792D01*
X-31712Y168411D01*
X-33328D01*
X-34031Y168120D01*
X-35540Y168696D01*
X-35581Y168748D01*
X-35746Y169239D01*
X-35506Y169649D01*
X-35146Y169798D01*
X-34003Y170941D01*
X-33384Y172435D01*
Y174051D01*
X-34003Y175545D01*
X-35146Y176688D01*
X-36640Y177307D01*
D02*
G37*
G36*
X-2886Y178557D02*
X-4502D01*
X-5996Y177938D01*
X-7139Y176795D01*
X-7758Y175301D01*
Y173685D01*
X-7139Y172191D01*
X-5996Y171048D01*
X-4502Y170429D01*
X-2886D01*
X-1392Y171048D01*
X-249Y172191D01*
X370Y173685D01*
Y175301D01*
X-249Y176795D01*
X-1392Y177938D01*
X-2886Y178557D01*
D02*
G37*
G36*
X1121Y154461D02*
X-496D01*
X-1989Y153842D01*
X-3133Y152699D01*
X-3751Y151205D01*
Y149588D01*
X-3133Y148095D01*
X-1989Y146952D01*
X-496Y146333D01*
X1121D01*
X2615Y146952D01*
X3758Y148095D01*
X4377Y149588D01*
Y151205D01*
X3758Y152699D01*
X2615Y153842D01*
X1121Y154461D01*
D02*
G37*
G36*
X-45498Y154127D02*
X-47115D01*
X-48608Y153508D01*
X-49752Y152365D01*
X-50370Y150871D01*
Y149254D01*
X-49752Y147761D01*
X-48608Y146617D01*
X-47115Y145999D01*
X-45498D01*
X-44004Y146617D01*
X-42861Y147761D01*
X-42242Y149254D01*
Y150871D01*
X-42861Y152365D01*
X-44004Y153508D01*
X-45498Y154127D01*
D02*
G37*
G36*
X71764Y151496D02*
X70147D01*
X68653Y150878D01*
X67510Y149734D01*
X66891Y148240D01*
Y146624D01*
X67510Y145130D01*
X67868Y144772D01*
X68379Y143682D01*
X67868Y143113D01*
X67255Y142499D01*
X66636Y141005D01*
Y139389D01*
X67255Y137895D01*
X68398Y136752D01*
X69892Y136133D01*
X71508D01*
X73002Y136752D01*
X74145Y137895D01*
X74764Y139389D01*
Y141005D01*
X74145Y142499D01*
X73787Y142857D01*
X73276Y143947D01*
X73787Y144516D01*
X74401Y145130D01*
X75019Y146624D01*
Y148240D01*
X74401Y149734D01*
X73257Y150878D01*
X71764Y151496D01*
D02*
G37*
G36*
X15775Y143517D02*
X14158D01*
X12664Y142898D01*
X11521Y141755D01*
X10902Y140261D01*
Y138645D01*
X11521Y137151D01*
X12664Y136008D01*
X14158Y135389D01*
X15775D01*
X17268Y136008D01*
X18412Y137151D01*
X19030Y138645D01*
Y140261D01*
X18412Y141755D01*
X17268Y142898D01*
X15775Y143517D01*
D02*
G37*
G36*
X-44605Y143291D02*
X-46221D01*
X-47715Y142672D01*
X-48858Y141529D01*
X-49477Y140035D01*
Y138418D01*
X-48858Y136925D01*
X-47715Y135781D01*
X-46221Y135163D01*
X-44605D01*
X-43111Y135781D01*
X-41968Y136925D01*
X-41349Y138418D01*
Y140035D01*
X-41968Y141529D01*
X-43111Y142672D01*
X-44605Y143291D01*
D02*
G37*
G36*
X-43935Y133603D02*
X-45552D01*
X-47046Y132984D01*
X-48189Y131841D01*
X-48808Y130347D01*
Y128731D01*
X-48189Y127237D01*
X-47046Y126094D01*
X-45552Y125475D01*
X-43935D01*
X-42442Y126094D01*
X-41298Y127237D01*
X-40680Y128731D01*
Y130347D01*
X-41298Y131841D01*
X-42442Y132984D01*
X-43935Y133603D01*
D02*
G37*
G36*
X28148Y143982D02*
X26531D01*
X25037Y143363D01*
X23894Y142220D01*
X23275Y140726D01*
Y139109D01*
X23894Y137616D01*
X25037Y136472D01*
X26531Y135854D01*
X28148D01*
X29642Y136472D01*
X30051Y136882D01*
X31074Y136249D01*
X31145Y136180D01*
Y134588D01*
X31764Y133094D01*
X32907Y131951D01*
X34401Y131332D01*
X36018D01*
X36647Y131593D01*
X37366Y130516D01*
X36590Y129740D01*
X35971Y128246D01*
Y126629D01*
X36590Y125135D01*
X37733Y123992D01*
X39227Y123374D01*
X40844D01*
X42337Y123992D01*
X43481Y125135D01*
X44099Y126629D01*
Y128246D01*
X43481Y129740D01*
X42337Y130883D01*
X40844Y131502D01*
X39227D01*
X38597Y131241D01*
X37878Y132317D01*
X38654Y133094D01*
X39273Y134588D01*
Y136205D01*
X38654Y137698D01*
X37511Y138841D01*
X36018Y139460D01*
X34401D01*
X32907Y138841D01*
X32497Y138432D01*
X31475Y139065D01*
X31404Y139134D01*
Y140726D01*
X30785Y142220D01*
X29642Y143363D01*
X28148Y143982D01*
D02*
G37*
G36*
X-39642Y122018D02*
X-41259D01*
X-42753Y121399D01*
X-43896Y120256D01*
X-44515Y118762D01*
Y117145D01*
X-43896Y115652D01*
X-43709Y115464D01*
X-44428Y114388D01*
X-44605Y114461D01*
X-46221D01*
X-47715Y113842D01*
X-48858Y112699D01*
X-49477Y111205D01*
Y109588D01*
X-48858Y108095D01*
X-47715Y106952D01*
X-46221Y106333D01*
X-44605D01*
X-43111Y106952D01*
X-41968Y108095D01*
X-41349Y109588D01*
Y111205D01*
X-41968Y112699D01*
X-42155Y112886D01*
X-41435Y113963D01*
X-41259Y113890D01*
X-39642D01*
X-38149Y114508D01*
X-37005Y115652D01*
X-36387Y117145D01*
Y118762D01*
X-37005Y120256D01*
X-38149Y121399D01*
X-39642Y122018D01*
D02*
G37*
G36*
X1233Y112546D02*
X-384D01*
X-1877Y111927D01*
X-3021Y110784D01*
X-3639Y109290D01*
Y107674D01*
X-3021Y106180D01*
X-1877Y105037D01*
X-384Y104418D01*
X1233D01*
X2727Y105037D01*
X3870Y106180D01*
X4489Y107674D01*
Y109290D01*
X3870Y110784D01*
X2727Y111927D01*
X1233Y112546D01*
D02*
G37*
G36*
X126254Y110991D02*
X124637D01*
X123144Y110372D01*
X122000Y109229D01*
X121382Y107736D01*
Y106119D01*
X122000Y104625D01*
X123144Y103482D01*
X124637Y102863D01*
X126254D01*
X127748Y103482D01*
X128891Y104625D01*
X129510Y106119D01*
Y107736D01*
X128891Y109229D01*
X127748Y110372D01*
X126254Y110991D01*
D02*
G37*
G36*
X81496Y104503D02*
X79879D01*
X78385Y103884D01*
X77242Y102741D01*
X76624Y101247D01*
Y99630D01*
X77242Y98137D01*
X78385Y96994D01*
X79879Y96375D01*
X81496D01*
X82990Y96994D01*
X84133Y98137D01*
X84752Y99630D01*
Y101247D01*
X84133Y102741D01*
X82990Y103884D01*
X81496Y104503D01*
D02*
G37*
G36*
X-28270Y95415D02*
X-29887D01*
X-31381Y94796D01*
X-32524Y93653D01*
X-33142Y92159D01*
Y90542D01*
X-32524Y89049D01*
X-31381Y87906D01*
X-29887Y87287D01*
X-28270D01*
X-26776Y87906D01*
X-25633Y89049D01*
X-25015Y90542D01*
Y92159D01*
X-25633Y93653D01*
X-26776Y94796D01*
X-28270Y95415D01*
D02*
G37*
G36*
X-44012D02*
X-45628D01*
X-47122Y94796D01*
X-48265Y93653D01*
X-48884Y92159D01*
Y90542D01*
X-48265Y89049D01*
X-47122Y87906D01*
X-45628Y87287D01*
X-44012D01*
X-42518Y87906D01*
X-41375Y89049D01*
X-40756Y90542D01*
Y92159D01*
X-41375Y93653D01*
X-42518Y94796D01*
X-44012Y95415D01*
D02*
G37*
G36*
X540660Y88864D02*
X539043D01*
X537549Y88245D01*
X536406Y87102D01*
X535787Y85608D01*
X535428Y85368D01*
X534608Y85707D01*
X532992D01*
X531498Y85089D01*
X530355Y83945D01*
X529736Y82452D01*
Y80835D01*
X530355Y79341D01*
X531498Y78198D01*
X532992Y77579D01*
X534608D01*
X536102Y78198D01*
X537245Y79341D01*
X537864Y80835D01*
X538224Y81075D01*
X539043Y80736D01*
X540660D01*
X542153Y81355D01*
X543297Y82498D01*
X543915Y83992D01*
Y85608D01*
X543297Y87102D01*
X542153Y88245D01*
X540660Y88864D01*
D02*
G37*
G36*
X126254Y92067D02*
X124637D01*
X123144Y91448D01*
X122000Y90305D01*
X121382Y88811D01*
Y87194D01*
X122000Y85701D01*
X123144Y84558D01*
X124637Y83939D01*
X126254D01*
X127748Y84558D01*
X128891Y85701D01*
X129510Y87194D01*
Y88811D01*
X128891Y90305D01*
X127748Y91448D01*
X126254Y92067D01*
D02*
G37*
G36*
X-6251Y89871D02*
X-7868D01*
X-9361Y89252D01*
X-10504Y88109D01*
X-11123Y86615D01*
Y84999D01*
X-10504Y83505D01*
X-9361Y82362D01*
X-7868Y81743D01*
X-6251D01*
X-4757Y82362D01*
X-3614Y83505D01*
X-2995Y84999D01*
Y86615D01*
X-3614Y88109D01*
X-4757Y89252D01*
X-6251Y89871D01*
D02*
G37*
G36*
X-28091Y83666D02*
X-29707D01*
X-31201Y83047D01*
X-32344Y81904D01*
X-32963Y80410D01*
Y78793D01*
X-32344Y77300D01*
X-31201Y76156D01*
X-29707Y75538D01*
X-28091D01*
X-26597Y76156D01*
X-25454Y77300D01*
X-24835Y78793D01*
Y80410D01*
X-25454Y81904D01*
X-26597Y83047D01*
X-28091Y83666D01*
D02*
G37*
G36*
X40684Y79802D02*
X39067D01*
X37573Y79183D01*
X36430Y78040D01*
X35812Y76547D01*
Y74930D01*
X36430Y73436D01*
X37573Y72293D01*
X39067Y71674D01*
X40684D01*
X42178Y72293D01*
X43321Y73436D01*
X43939Y74930D01*
Y76547D01*
X43321Y78040D01*
X42178Y79183D01*
X40684Y79802D01*
D02*
G37*
G36*
X-39024Y85170D02*
X-40641D01*
X-42135Y84551D01*
X-43278Y83408D01*
X-43897Y81915D01*
Y80298D01*
X-43278Y78804D01*
X-44107Y77836D01*
X-44546Y77654D01*
X-45690Y76511D01*
X-46308Y75017D01*
Y73401D01*
X-45690Y71907D01*
X-44546Y70764D01*
X-43053Y70145D01*
X-41436D01*
X-39942Y70764D01*
X-38799Y71907D01*
X-38180Y73401D01*
Y75017D01*
X-38799Y76511D01*
X-37971Y77479D01*
X-37531Y77661D01*
X-36388Y78804D01*
X-35769Y80298D01*
Y81915D01*
X-36388Y83408D01*
X-37531Y84551D01*
X-39024Y85170D01*
D02*
G37*
G36*
X449538Y51434D02*
X447922D01*
X446428Y50815D01*
X445449Y49836D01*
X444470Y50815D01*
X442977Y51434D01*
X441360D01*
X439866Y50815D01*
X438723Y49672D01*
X438104Y48178D01*
Y46561D01*
X438723Y45068D01*
X439866Y43924D01*
X441360Y43306D01*
X442977D01*
X444470Y43924D01*
X445449Y44903D01*
X446428Y43924D01*
X447922Y43306D01*
X449538D01*
X451032Y43924D01*
X452175Y45068D01*
X452794Y46561D01*
Y48178D01*
X452175Y49672D01*
X451032Y50815D01*
X449538Y51434D01*
D02*
G37*
G36*
X-49435Y50771D02*
X-51374D01*
X-53166Y50029D01*
X-54537Y48658D01*
X-55279Y46866D01*
Y44927D01*
X-54537Y43136D01*
X-53166Y41765D01*
X-51374Y41023D01*
X-49435D01*
X-47644Y41765D01*
X-46273Y43136D01*
X-45531Y44927D01*
Y46866D01*
X-46273Y48658D01*
X-47644Y50029D01*
X-49435Y50771D01*
D02*
G37*
G36*
X298814Y49001D02*
X297197D01*
X295703Y48383D01*
X294560Y47239D01*
X293941Y45746D01*
Y44129D01*
X294560Y42635D01*
X295703Y41492D01*
X297197Y40873D01*
X298814D01*
X300307Y41492D01*
X301451Y42635D01*
X302069Y44129D01*
Y45746D01*
X301451Y47239D01*
X300307Y48383D01*
X298814Y49001D01*
D02*
G37*
G36*
X262187Y46989D02*
X260570D01*
X259076Y46370D01*
X257933Y45227D01*
X257314Y43733D01*
Y42116D01*
X257933Y40622D01*
X259076Y39479D01*
X260570Y38860D01*
X262187D01*
X263680Y39479D01*
X264824Y40622D01*
X265442Y42116D01*
Y43733D01*
X264824Y45227D01*
X263680Y46370D01*
X262187Y46989D01*
D02*
G37*
G36*
X311088Y46151D02*
X309471D01*
X307977Y45532D01*
X306834Y44389D01*
X306215Y42895D01*
Y41278D01*
X306834Y39785D01*
X307977Y38641D01*
X309471Y38023D01*
X311088D01*
X312581Y38641D01*
X313725Y39785D01*
X314343Y41278D01*
Y42895D01*
X313725Y44389D01*
X312581Y45532D01*
X311088Y46151D01*
D02*
G37*
G36*
X-5631Y43722D02*
X-7248D01*
X-8742Y43103D01*
X-9885Y41960D01*
X-10504Y40466D01*
Y38849D01*
X-9885Y37356D01*
X-8742Y36213D01*
X-7248Y35594D01*
X-5631D01*
X-4138Y36213D01*
X-2995Y37356D01*
X-2376Y38849D01*
Y40466D01*
X-2995Y41960D01*
X-4138Y43103D01*
X-5631Y43722D01*
D02*
G37*
G36*
X-28611Y49209D02*
X-30228D01*
X-31721Y48591D01*
X-32865Y47448D01*
X-33483Y45954D01*
Y44337D01*
X-32865Y42843D01*
X-31721Y41700D01*
X-30228Y41081D01*
X-28611D01*
X-27738Y40068D01*
X-27755Y40028D01*
Y38411D01*
X-27136Y36917D01*
X-25993Y35774D01*
X-24499Y35155D01*
X-22882D01*
X-21389Y35774D01*
X-20245Y36917D01*
X-19627Y38411D01*
Y40028D01*
X-20245Y41522D01*
X-21389Y42665D01*
X-22882Y43283D01*
X-24499D01*
X-25372Y44296D01*
X-25355Y44337D01*
Y45954D01*
X-25974Y47448D01*
X-27117Y48591D01*
X-28611Y49209D01*
D02*
G37*
G36*
X-51580Y31594D02*
X-53197D01*
X-54691Y30975D01*
X-55834Y29832D01*
X-56453Y28338D01*
Y26721D01*
X-55834Y25228D01*
X-54691Y24084D01*
X-53197Y23466D01*
X-51580D01*
X-50087Y24084D01*
X-48943Y25228D01*
X-48325Y26721D01*
Y28338D01*
X-48943Y29832D01*
X-50087Y30975D01*
X-51580Y31594D01*
D02*
G37*
G36*
X-19580Y24711D02*
X-21197D01*
X-22691Y24093D01*
X-23834Y22949D01*
X-24453Y21456D01*
Y19839D01*
X-23834Y18345D01*
X-22691Y17202D01*
X-21197Y16583D01*
X-19580D01*
X-18087Y17202D01*
X-16943Y18345D01*
X-16325Y19839D01*
Y21456D01*
X-16943Y22949D01*
X-18087Y24093D01*
X-19580Y24711D01*
D02*
G37*
G36*
X127290Y21253D02*
X125673D01*
X124179Y20634D01*
X123036Y19491D01*
X122417Y17997D01*
Y16381D01*
X123036Y14887D01*
X124179Y13744D01*
X125673Y13125D01*
X127290D01*
X128783Y13744D01*
X129927Y14887D01*
X130545Y16381D01*
Y17997D01*
X129927Y19491D01*
X128783Y20634D01*
X127290Y21253D01*
D02*
G37*
G36*
X29910Y17884D02*
X28293D01*
X26800Y17265D01*
X25656Y16122D01*
X25038Y14628D01*
Y13012D01*
X25656Y11518D01*
X26800Y10375D01*
X28293Y9756D01*
X29910D01*
X31404Y10375D01*
X32547Y11518D01*
X33166Y13012D01*
Y14628D01*
X32547Y16122D01*
X31404Y17265D01*
X29910Y17884D01*
D02*
G37*
G36*
X204035Y10673D02*
X202418D01*
X200925Y10055D01*
X199781Y8911D01*
X199679Y8665D01*
X198305D01*
X198202Y8911D01*
X197059Y10055D01*
X195565Y10673D01*
X193949D01*
X192455Y10055D01*
X191312Y8911D01*
X190693Y7418D01*
Y5801D01*
X190712Y5754D01*
X189740Y4782D01*
X189693Y4802D01*
X187990Y5026D01*
X186287Y4802D01*
X185100Y4310D01*
X181276Y8160D01*
X180699Y8401D01*
X180116Y8647D01*
X109415Y9102D01*
X109413Y9101D01*
X109410Y9102D01*
X108831Y8864D01*
X108246Y8626D01*
X108245Y8624D01*
X108242Y8623D01*
X104042Y4449D01*
X103191Y4802D01*
X101488Y5026D01*
X99785Y4802D01*
X98198Y4144D01*
X96835Y3099D01*
X95789Y1736D01*
X95132Y149D01*
X94908Y-1554D01*
Y-12555D01*
X95132Y-14258D01*
X95789Y-15845D01*
X96835Y-17208D01*
X98198Y-18254D01*
X99785Y-18911D01*
X100638Y-19023D01*
Y-38883D01*
X99654Y-39012D01*
X97945Y-39720D01*
X96478Y-40846D01*
X95352Y-42313D01*
X94644Y-44022D01*
X94403Y-45856D01*
Y-51855D01*
X94644Y-53689D01*
X95352Y-55398D01*
X96478Y-56865D01*
X97945Y-57991D01*
X99654Y-58699D01*
X101488Y-58940D01*
X103322Y-58699D01*
X104806Y-58084D01*
X109219Y-62496D01*
X110385Y-62979D01*
X180337Y-62979D01*
X181503Y-62496D01*
X185551Y-58448D01*
X186157Y-58699D01*
X187990Y-58940D01*
X189824Y-58699D01*
X191533Y-57991D01*
X193000Y-56865D01*
X194126Y-55398D01*
X194577Y-54308D01*
X195952D01*
X196361Y-55296D01*
X197504Y-56439D01*
X198998Y-57057D01*
X199405D01*
X200578Y-57398D01*
Y-59015D01*
X201197Y-60508D01*
X202340Y-61652D01*
X203834Y-62270D01*
X205451D01*
X206944Y-61652D01*
X208088Y-60508D01*
X208706Y-59015D01*
Y-57398D01*
X208088Y-55904D01*
X206944Y-54761D01*
X205451Y-54142D01*
X205044D01*
X203871Y-53802D01*
Y-52185D01*
X203252Y-50691D01*
X202109Y-49548D01*
X202106Y-49533D01*
X203126Y-48513D01*
X203745Y-47019D01*
Y-45402D01*
X203126Y-43909D01*
X201983Y-42765D01*
X201840Y-42706D01*
X201361Y-41358D01*
X201861Y-40151D01*
Y-38534D01*
X201242Y-37040D01*
X200478Y-36277D01*
X201117Y-35638D01*
X201735Y-34145D01*
Y-32528D01*
X201117Y-31034D01*
X200731Y-30649D01*
X200141Y-29691D01*
X200731Y-28990D01*
X201242Y-28479D01*
X201861Y-26985D01*
Y-25368D01*
X201242Y-23875D01*
X200099Y-22731D01*
X198605Y-22113D01*
X196988D01*
X195495Y-22731D01*
X194352Y-23875D01*
X193858Y-25066D01*
X192588Y-24813D01*
Y-17250D01*
X192643Y-17208D01*
X193689Y-15845D01*
X194346Y-14258D01*
X194571Y-12555D01*
Y-1554D01*
X194346Y149D01*
X193866Y1310D01*
X194433Y2350D01*
X194669Y2545D01*
X195565D01*
X197059Y3164D01*
X198202Y4307D01*
X198305Y4554D01*
X199679D01*
X199781Y4307D01*
X200925Y3164D01*
X202418Y2545D01*
X204035D01*
X205529Y3164D01*
X206672Y4307D01*
X207291Y5801D01*
Y7418D01*
X206672Y8911D01*
X205529Y10055D01*
X204035Y10673D01*
D02*
G37*
G36*
X459388Y-7224D02*
X457012D01*
X454717Y-7839D01*
X452659Y-9028D01*
X450979Y-10708D01*
X449790Y-12766D01*
X449175Y-15061D01*
Y-17437D01*
X449790Y-19732D01*
X450979Y-21790D01*
X452659Y-23470D01*
X454717Y-24659D01*
X457012Y-25274D01*
X459388D01*
X461684Y-24659D01*
X463741Y-23470D01*
X465422Y-21790D01*
X466610Y-19732D01*
X467225Y-17437D01*
Y-15061D01*
X466610Y-12766D01*
X465422Y-10708D01*
X463741Y-9028D01*
X461684Y-7839D01*
X459388Y-7224D01*
D02*
G37*
G36*
X225498Y-21003D02*
X223881D01*
X222388Y-21622D01*
X221244Y-22765D01*
X220626Y-24259D01*
Y-25875D01*
X221244Y-27369D01*
X222388Y-28512D01*
X223881Y-29131D01*
X225498D01*
X226992Y-28512D01*
X228135Y-27369D01*
X228754Y-25875D01*
Y-24259D01*
X228135Y-22765D01*
X226992Y-21622D01*
X225498Y-21003D01*
D02*
G37*
G36*
X16933Y-25953D02*
X15316D01*
X13823Y-26572D01*
X12680Y-27715D01*
X12061Y-29209D01*
Y-30825D01*
X12680Y-32319D01*
X13821Y-33460D01*
X12844Y-34437D01*
X11865Y-33458D01*
X10371Y-32840D01*
X8755D01*
X7261Y-33458D01*
X6118Y-34602D01*
X5499Y-36095D01*
Y-37712D01*
X6118Y-39206D01*
X7202Y-40290D01*
X6118Y-41375D01*
X5499Y-42868D01*
Y-44485D01*
X6118Y-45979D01*
X7261Y-47122D01*
X8755Y-47741D01*
X10371D01*
X11865Y-47122D01*
X12844Y-46143D01*
X13823Y-47122D01*
X15316Y-47741D01*
X16933D01*
X18427Y-47122D01*
X19406Y-46143D01*
X20385Y-47122D01*
X21878Y-47741D01*
X23495D01*
X24989Y-47122D01*
X26132Y-45979D01*
X26751Y-44485D01*
Y-42868D01*
X26132Y-41375D01*
X24989Y-40231D01*
X25341Y-39590D01*
X25440Y-39491D01*
X26059Y-37997D01*
Y-36380D01*
X25440Y-34887D01*
X24297Y-33744D01*
X22803Y-33125D01*
X21186D01*
X20118Y-33567D01*
X19399Y-32491D01*
X19570Y-32319D01*
X20189Y-30825D01*
Y-29209D01*
X19570Y-27715D01*
X18427Y-26572D01*
X16933Y-25953D01*
D02*
G37*
G36*
X310959Y-37052D02*
X309342D01*
X307849Y-37671D01*
X307196Y-38323D01*
X306544Y-37671D01*
X305050Y-37052D01*
X303433D01*
X301940Y-37671D01*
X300796Y-38814D01*
X300178Y-40307D01*
Y-41924D01*
X300796Y-43418D01*
X301653Y-44275D01*
X300796Y-45131D01*
X300178Y-46625D01*
Y-48242D01*
X300796Y-49735D01*
X301653Y-50592D01*
X300796Y-51449D01*
X300178Y-52942D01*
Y-54559D01*
X300796Y-56053D01*
X301940Y-57196D01*
X303433Y-57815D01*
X305050D01*
X306544Y-57196D01*
X307687Y-56053D01*
X308306Y-54559D01*
Y-52942D01*
X308070Y-52373D01*
X309042Y-51401D01*
X309342Y-51525D01*
X310959D01*
X311187Y-51431D01*
X311906Y-52508D01*
X311136Y-53278D01*
X310518Y-54771D01*
Y-56388D01*
X311136Y-57882D01*
X312048Y-58794D01*
X312159Y-59625D01*
X312025Y-60294D01*
X311078Y-61240D01*
X310460Y-62734D01*
Y-64351D01*
X311078Y-65844D01*
X312222Y-66988D01*
X313715Y-67606D01*
X315332D01*
X316826Y-66988D01*
X317382Y-66431D01*
X318212Y-65977D01*
X319042Y-66431D01*
X319598Y-66988D01*
X321092Y-67606D01*
X322709D01*
X324202Y-66988D01*
X325346Y-65844D01*
X325964Y-64351D01*
Y-62734D01*
X325346Y-61240D01*
X324202Y-60097D01*
Y-58793D01*
X325346Y-57649D01*
X325964Y-56156D01*
Y-54539D01*
X325346Y-53045D01*
X324202Y-51902D01*
X322709Y-51283D01*
X321092D01*
X319598Y-51902D01*
X318954Y-52546D01*
X318369Y-53008D01*
X317295Y-52546D01*
X316884Y-52134D01*
X315390Y-51516D01*
X313773D01*
X313546Y-51610D01*
X312826Y-50533D01*
X313596Y-49763D01*
X314215Y-48270D01*
Y-46653D01*
X313596Y-45159D01*
X312725Y-44289D01*
X313596Y-43418D01*
X314215Y-41924D01*
Y-40307D01*
X313596Y-38814D01*
X312453Y-37671D01*
X310959Y-37052D01*
D02*
G37*
G36*
X444055Y-48762D02*
X442439D01*
X440945Y-49381D01*
X440443Y-49883D01*
X439737Y-50483D01*
X438783Y-49883D01*
X438402Y-49502D01*
X436908Y-48884D01*
X435292D01*
X433798Y-49502D01*
X432655Y-50645D01*
X432036Y-52139D01*
Y-53756D01*
X432655Y-55250D01*
X433006Y-55601D01*
X433764Y-56430D01*
X433006Y-57260D01*
X432655Y-57611D01*
X432036Y-59105D01*
Y-60722D01*
X432655Y-62215D01*
X433798Y-63358D01*
X435292Y-63977D01*
X436908D01*
X438402Y-63358D01*
X438844Y-62917D01*
X439674Y-62309D01*
X440503Y-62917D01*
X440945Y-63358D01*
X442439Y-63977D01*
X444055D01*
X445549Y-63358D01*
X446693Y-62215D01*
X447311Y-60722D01*
Y-59105D01*
X446693Y-57611D01*
X446281Y-57199D01*
X445627Y-56370D01*
X446281Y-55540D01*
X446693Y-55128D01*
X447311Y-53635D01*
Y-52018D01*
X446693Y-50524D01*
X445549Y-49381D01*
X444055Y-48762D01*
D02*
G37*
G36*
X459388Y-42226D02*
X457012D01*
X454717Y-42841D01*
X452659Y-44029D01*
X450979Y-45709D01*
X449790Y-47767D01*
X449175Y-50062D01*
Y-52438D01*
X449790Y-54734D01*
X450979Y-56791D01*
X452659Y-58472D01*
X454717Y-59660D01*
X457012Y-60275D01*
X459388D01*
X461684Y-59660D01*
X463741Y-58472D01*
X465422Y-56791D01*
X466610Y-54734D01*
X467225Y-52438D01*
Y-50062D01*
X466610Y-47767D01*
X465422Y-45709D01*
X463741Y-44029D01*
X461684Y-42841D01*
X459388Y-42226D01*
D02*
G37*
%LPD*%
G36*
X180106Y6997D02*
X190938Y-3906D01*
Y-50728D01*
X180337Y-61330D01*
X110385Y-61330D01*
X102287Y-53232D01*
Y381D01*
X109405Y7452D01*
X180106Y6997D01*
D02*
G37*
%LPC*%
G36*
X173639Y-7188D02*
X171777Y-7559D01*
X170197Y-8614D01*
X169142Y-10193D01*
X168772Y-12056D01*
X169142Y-13918D01*
X170197Y-15498D01*
X171777Y-16553D01*
X173639Y-16923D01*
X175502Y-16553D01*
X177081Y-15498D01*
X178136Y-13918D01*
X178507Y-12056D01*
X178136Y-10193D01*
X177081Y-8614D01*
X175502Y-7559D01*
X173639Y-7188D01*
D02*
G37*
G36*
X115839D02*
X113976Y-7559D01*
X112397Y-8614D01*
X111342Y-10193D01*
X110972Y-12056D01*
X111342Y-13918D01*
X112397Y-15498D01*
X113976Y-16553D01*
X115839Y-16923D01*
X117702Y-16553D01*
X119281Y-15498D01*
X120336Y-13918D01*
X120707Y-12056D01*
X120336Y-10193D01*
X119281Y-8614D01*
X117702Y-7559D01*
X115839Y-7188D01*
D02*
G37*
G36*
X128569Y-8371D02*
X126984Y-8686D01*
X125639Y-9584D01*
X124741Y-10929D01*
X124426Y-12514D01*
X124741Y-14100D01*
X125639Y-15444D01*
X126984Y-16343D01*
X128569Y-16658D01*
X130155Y-16343D01*
X130757Y-15941D01*
X132230Y-15860D01*
X133575Y-16759D01*
X135160Y-17074D01*
X136746Y-16759D01*
X138090Y-15860D01*
X138213Y-15677D01*
X139031D01*
X140375Y-16575D01*
X141961Y-16890D01*
X143547Y-16575D01*
X144528Y-15919D01*
X146098Y-15983D01*
X146259Y-16224D01*
X147604Y-17123D01*
X149189Y-17438D01*
X150775Y-17123D01*
X151776Y-16454D01*
X152848Y-15771D01*
X154192Y-16669D01*
X155778Y-16985D01*
X157363Y-16669D01*
X158708Y-15771D01*
X159606Y-14427D01*
X159921Y-12841D01*
X159606Y-11255D01*
X158708Y-9911D01*
X157363Y-9013D01*
X155778Y-8697D01*
X154192Y-9013D01*
X152848Y-9911D01*
X151357Y-9855D01*
X150775Y-9466D01*
X149189Y-9151D01*
X147604Y-9466D01*
X146622Y-10122D01*
X145053Y-10058D01*
X144891Y-9817D01*
X143547Y-8918D01*
X141961Y-8603D01*
X140375Y-8918D01*
X139031Y-9817D01*
X138908Y-10000D01*
X138090D01*
X136746Y-9102D01*
X135160Y-8787D01*
X133575Y-9102D01*
X132230Y-10000D01*
X131141Y-9345D01*
X130155Y-8686D01*
X128569Y-8371D01*
D02*
G37*
G36*
X161637Y-17192D02*
X160052Y-17508D01*
X158707Y-18406D01*
X157809Y-19750D01*
X157494Y-21336D01*
X157809Y-22922D01*
X158707Y-24266D01*
X160052Y-25164D01*
X161637Y-25480D01*
X163223Y-25164D01*
X164567Y-24266D01*
X165466Y-22922D01*
X165781Y-21336D01*
X165466Y-19750D01*
X164567Y-18406D01*
X163223Y-17508D01*
X161637Y-17192D01*
D02*
G37*
G36*
X139484Y-19414D02*
X137899Y-19730D01*
X136554Y-20628D01*
X135656Y-21972D01*
X135340Y-23558D01*
X135656Y-25144D01*
X136554Y-26488D01*
X137899Y-27386D01*
X139484Y-27701D01*
X141070Y-27386D01*
X142414Y-26488D01*
X143312Y-25144D01*
X143628Y-23558D01*
X143312Y-21972D01*
X142414Y-20628D01*
X141070Y-19730D01*
X139484Y-19414D01*
D02*
G37*
%LPD*%
D71*
X458200Y305913D02*
D03*
D72*
X671200Y30458D02*
D03*
Y224458D02*
D03*
D73*
X101488Y-7055D02*
D03*
X187990D02*
D03*
D74*
X101488Y-48855D02*
D03*
X187990D02*
D03*
D76*
X0Y0D02*
D03*
X0Y255258D02*
D03*
D77*
X-17033Y38058D02*
D03*
X551423Y60268D02*
D03*
X559661Y68150D02*
D03*
X549193Y68900D02*
D03*
X542732Y93394D02*
D03*
X533800Y90939D02*
D03*
X553693Y95563D02*
D03*
X571120Y93394D02*
D03*
X563341D02*
D03*
X549557Y128770D02*
D03*
X524245Y129908D02*
D03*
X533800Y127381D02*
D03*
X539089Y197627D02*
D03*
X549960D02*
D03*
X613590Y209034D02*
D03*
X568028Y71300D02*
D03*
X602198Y113622D02*
D03*
X571572Y197927D02*
D03*
X568625Y190793D02*
D03*
X397499Y227968D02*
D03*
X137050Y13190D02*
D03*
X31900Y6600D02*
D03*
X-33085Y51316D02*
D03*
X389934Y77087D02*
D03*
X396560Y70461D02*
D03*
X393399Y93055D02*
D03*
X606700Y12000D02*
D03*
X635308Y12887D02*
D03*
X648400Y13300D02*
D03*
X613187Y16142D02*
D03*
X620990Y185522D02*
D03*
X620515Y199018D02*
D03*
X608800Y215800D02*
D03*
X575250Y207300D02*
D03*
X556383Y218964D02*
D03*
X549557Y226642D02*
D03*
X563208Y197627D02*
D03*
X561078Y207300D02*
D03*
X545600D02*
D03*
X539089Y218964D02*
D03*
X620990Y101505D02*
D03*
Y115508D02*
D03*
X608439Y101999D02*
D03*
X592700Y107101D02*
D03*
X560100Y132600D02*
D03*
X584022Y107101D02*
D03*
X573177Y101999D02*
D03*
X576730Y112353D02*
D03*
X547781Y120049D02*
D03*
X539851Y100320D02*
D03*
X545500Y110200D02*
D03*
X561990Y103860D02*
D03*
X567115Y112645D02*
D03*
X571019Y118224D02*
D03*
X566600Y126756D02*
D03*
X560087Y121528D02*
D03*
X555561Y113622D02*
D03*
X551423Y101999D02*
D03*
X537052Y107101D02*
D03*
X539500Y117679D02*
D03*
X541216Y126854D02*
D03*
X539500Y66603D02*
D03*
X528194Y50896D02*
D03*
X516855Y41700D02*
D03*
X482552Y28652D02*
D03*
X466568Y39258D02*
D03*
X482552Y41700D02*
D03*
X476192Y24394D02*
D03*
Y35375D02*
D03*
X493403Y38030D02*
D03*
X503260Y39258D02*
D03*
X516956Y31819D02*
D03*
X570058Y57759D02*
D03*
X560453Y56155D02*
D03*
X609861Y53112D02*
D03*
X584058Y47720D02*
D03*
X613403Y45451D02*
D03*
X601782Y43600D02*
D03*
X592700Y47720D02*
D03*
Y25641D02*
D03*
X606226Y36068D02*
D03*
X589481Y31819D02*
D03*
X589603Y13344D02*
D03*
X620990Y73500D02*
D03*
X618051Y57759D02*
D03*
X621600Y66603D02*
D03*
X624291Y52035D02*
D03*
X620990Y80501D02*
D03*
Y108507D02*
D03*
Y94504D02*
D03*
Y87503D02*
D03*
X551423Y51897D02*
D03*
X577948Y40130D02*
D03*
X568028Y47720D02*
D03*
X578071Y54951D02*
D03*
X556398Y39830D02*
D03*
X525800Y41700D02*
D03*
X540508Y43270D02*
D03*
X539851Y56155D02*
D03*
X88036Y277281D02*
D03*
X84549Y267556D02*
D03*
X86619Y296593D02*
D03*
X72637Y298568D02*
D03*
X459623Y50896D02*
D03*
Y64104D02*
D03*
X503260D02*
D03*
X468351Y50896D02*
D03*
X485806D02*
D03*
X477078D02*
D03*
X362898Y239596D02*
D03*
X377962Y243212D02*
D03*
X374650Y226928D02*
D03*
X362400Y203834D02*
D03*
X362578Y233120D02*
D03*
X364508Y159333D02*
D03*
X361613Y217677D02*
D03*
X508911Y82958D02*
D03*
X528194Y66603D02*
D03*
X516956Y82958D02*
D03*
X490243Y28652D02*
D03*
X494797Y50896D02*
D03*
X516956Y55365D02*
D03*
X487740Y82958D02*
D03*
X578829Y79144D02*
D03*
X490900Y15768D02*
D03*
X476192Y14197D02*
D03*
X506790Y12328D02*
D03*
X341096Y139470D02*
D03*
Y99211D02*
D03*
X379873Y692D02*
D03*
X371262Y3254D02*
D03*
X371482Y-2692D02*
D03*
X358207Y304825D02*
D03*
X404560Y307278D02*
D03*
X122860Y277281D02*
D03*
X32137Y229920D02*
D03*
X15784Y215782D02*
D03*
X48090Y243868D02*
D03*
X-512Y-41225D02*
D03*
X34924Y80D02*
D03*
X620990Y164518D02*
D03*
Y171519D02*
D03*
X517600Y74900D02*
D03*
X571120Y78196D02*
D03*
X528194Y110459D02*
D03*
X461720Y140800D02*
D03*
X562308Y183823D02*
D03*
X555683D02*
D03*
X620990Y178521D02*
D03*
X533800Y71300D02*
D03*
X477078Y64104D02*
D03*
X40980Y104898D02*
D03*
X-35110Y69147D02*
D03*
X-43382Y34942D02*
D03*
X-5166Y136180D02*
D03*
X1731Y140047D02*
D03*
X-13548Y285355D02*
D03*
X-18855Y281290D02*
D03*
X-25516Y276210D02*
D03*
X-31048Y271806D02*
D03*
X-36129Y266952D02*
D03*
X-62958Y48718D02*
D03*
X-62910Y41919D02*
D03*
X-63033Y35425D02*
D03*
X-62977Y29018D02*
D03*
X-7120Y-38005D02*
D03*
X-15959Y-32400D02*
D03*
X-22277Y-26837D02*
D03*
X-29672Y-20526D02*
D03*
X-36476Y-14905D02*
D03*
X43824Y195245D02*
D03*
X-48651Y-1949D02*
D03*
X-42189Y-8733D02*
D03*
X-55279Y6205D02*
D03*
X-5631Y48180D02*
D03*
X-1508Y98478D02*
D03*
X-44824Y174858D02*
D03*
X-34857Y191792D02*
D03*
X-37294Y108171D02*
D03*
X198306Y-1083D02*
D03*
X-32949Y121453D02*
D03*
X63433Y50145D02*
D03*
X-5126Y155885D02*
D03*
X406052Y-67462D02*
D03*
X377620D02*
D03*
X350000D02*
D03*
Y-60153D02*
D03*
X307581Y-67970D02*
D03*
X620990Y143514D02*
D03*
X175316Y234746D02*
D03*
X66719Y203890D02*
D03*
X68592Y229823D02*
D03*
X163069Y236888D02*
D03*
X-4260Y144279D02*
D03*
X-6061Y196382D02*
D03*
X-15248Y217968D02*
D03*
X-8100Y211328D02*
D03*
X-37615Y150218D02*
D03*
X276300Y-67970D02*
D03*
X275080Y320308D02*
D03*
X265830Y319988D02*
D03*
X143416Y277675D02*
D03*
X85254Y222531D02*
D03*
X88115Y239572D02*
D03*
X81910Y114998D02*
D03*
X80688Y73436D02*
D03*
X142660Y106378D02*
D03*
X143020Y186938D02*
D03*
X27039Y126629D02*
D03*
X7430Y124948D02*
D03*
X109408Y17799D02*
D03*
X-41645Y262334D02*
D03*
X-46330Y255990D02*
D03*
X-53162Y250036D02*
D03*
X-57457Y244570D02*
D03*
X-7645Y289697D02*
D03*
X-2155Y294168D02*
D03*
X5020Y297235D02*
D03*
X11013Y300818D02*
D03*
X17006Y303351D02*
D03*
X23555Y306317D02*
D03*
X29425Y309035D02*
D03*
X36159Y311507D02*
D03*
X204939Y293551D02*
D03*
X-28451Y173395D02*
D03*
X159500Y17799D02*
D03*
X440750Y309618D02*
D03*
X437630Y286618D02*
D03*
X466110Y294457D02*
D03*
X470611Y283358D02*
D03*
X471110Y258568D02*
D03*
X457334Y251562D02*
D03*
X443496Y276662D02*
D03*
X471110Y241348D02*
D03*
X526299D02*
D03*
X575250Y235590D02*
D03*
X561078Y238618D02*
D03*
X567316Y242926D02*
D03*
X577200Y221658D02*
D03*
X569690Y223394D02*
D03*
X539089Y237089D02*
D03*
X549960Y242188D02*
D03*
X537563Y243353D02*
D03*
X516770Y241348D02*
D03*
X503547Y242748D02*
D03*
X493870D02*
D03*
X480010Y241348D02*
D03*
X466110Y246806D02*
D03*
X454570Y258568D02*
D03*
X409550Y299448D02*
D03*
X417500Y286208D02*
D03*
X429480Y277008D02*
D03*
X437630Y271588D02*
D03*
X417500Y307278D02*
D03*
X438760Y299448D02*
D03*
X429480Y307278D02*
D03*
X431520Y321048D02*
D03*
X413070Y319678D02*
D03*
X401405Y319865D02*
D03*
X422910Y294318D02*
D03*
X429480Y286618D02*
D03*
X398170Y180990D02*
D03*
Y191471D02*
D03*
X401535Y202434D02*
D03*
X407200Y210098D02*
D03*
X414933Y212543D02*
D03*
X412520Y220498D02*
D03*
X397790Y234598D02*
D03*
X392470Y239368D02*
D03*
X387520Y244808D02*
D03*
X620990Y122510D02*
D03*
Y129511D02*
D03*
X480683Y82958D02*
D03*
X575215Y28418D02*
D03*
X522800Y60700D02*
D03*
X494533Y64104D02*
D03*
X568950Y133273D02*
D03*
X439372Y183100D02*
D03*
X571024Y140484D02*
D03*
X539500Y77000D02*
D03*
X485806Y64104D02*
D03*
X606700Y23858D02*
D03*
X580150Y19326D02*
D03*
X598939Y17127D02*
D03*
X531680Y28418D02*
D03*
X518420Y20218D02*
D03*
X528340Y12628D02*
D03*
X510500Y68900D02*
D03*
X512269Y50896D02*
D03*
X524245Y82958D02*
D03*
X503260Y50896D02*
D03*
X501815Y24394D02*
D03*
X494797Y82958D02*
D03*
X501854D02*
D03*
X620990Y136512D02*
D03*
X563208Y140800D02*
D03*
X607564Y201600D02*
D03*
X620990Y157517D02*
D03*
Y150515D02*
D03*
X614659Y201600D02*
D03*
X620990Y192523D02*
D03*
X580913Y201600D02*
D03*
X568669Y183580D02*
D03*
X458236Y191398D02*
D03*
X445397Y82958D02*
D03*
X466568D02*
D03*
X473625D02*
D03*
X528194Y100320D02*
D03*
X468351Y64104D02*
D03*
X556383Y140800D02*
D03*
X509701Y129908D02*
D03*
X501627Y126608D02*
D03*
X493863Y126528D02*
D03*
X486099Y126608D02*
D03*
X478335D02*
D03*
X470571D02*
D03*
X462807D02*
D03*
X455043D02*
D03*
X446821Y140800D02*
D03*
X354078Y291073D02*
D03*
X362578Y271118D02*
D03*
X354770Y282548D02*
D03*
X370462Y259613D02*
D03*
X363202Y264019D02*
D03*
X382682Y249916D02*
D03*
X360360Y277908D02*
D03*
X376760Y254978D02*
D03*
X125586Y168289D02*
D03*
Y187375D02*
D03*
X328821Y273673D02*
D03*
X276600Y2537D02*
D03*
X-60605Y14135D02*
D03*
X162443Y293058D02*
D03*
X8430Y72688D02*
D03*
X89299Y170992D02*
D03*
X89807Y162991D02*
D03*
X393072Y-67462D02*
D03*
X429240Y-25006D02*
D03*
Y-34295D02*
D03*
X437119Y-34391D02*
D03*
X238915Y-24486D02*
D03*
X232383Y-29240D02*
D03*
X447279Y126796D02*
D03*
X439515D02*
D03*
X207154Y-50167D02*
D03*
X198249Y-9610D02*
D03*
X246005Y-27409D02*
D03*
X255200Y-67970D02*
D03*
X216031D02*
D03*
X223889D02*
D03*
X248100D02*
D03*
X306777Y558D02*
D03*
X314500D02*
D03*
X306777Y-8047D02*
D03*
X314500D02*
D03*
X23515Y-6223D02*
D03*
X31028D02*
D03*
X23888Y4003D02*
D03*
X39718Y-16634D02*
D03*
X164991Y164684D02*
D03*
X358491Y295945D02*
D03*
X461720Y183100D02*
D03*
X446821D02*
D03*
X230476Y54038D02*
D03*
X197031Y54832D02*
D03*
X408323Y126796D02*
D03*
X416223Y127024D02*
D03*
X423987Y127075D02*
D03*
X431751Y127024D02*
D03*
X397080Y106367D02*
D03*
X459511Y82958D02*
D03*
X452454D02*
D03*
X450896Y64104D02*
D03*
X442168D02*
D03*
X439372Y140800D02*
D03*
X454271D02*
D03*
X328821Y259864D02*
D03*
Y266769D02*
D03*
Y252959D02*
D03*
Y225384D02*
D03*
Y218479D02*
D03*
Y211574D02*
D03*
Y232289D02*
D03*
Y155992D02*
D03*
Y176706D02*
D03*
Y183611D02*
D03*
X305301Y90931D02*
D03*
X329630Y139777D02*
D03*
X328821Y76263D02*
D03*
Y69358D02*
D03*
Y62453D02*
D03*
Y83168D02*
D03*
X296055Y276006D02*
D03*
Y255292D02*
D03*
Y269101D02*
D03*
Y248387D02*
D03*
Y200098D02*
D03*
Y220812D02*
D03*
Y213907D02*
D03*
Y227717D02*
D03*
Y151420D02*
D03*
Y172134D02*
D03*
Y165229D02*
D03*
Y179039D02*
D03*
Y103522D02*
D03*
Y124236D02*
D03*
Y110426D02*
D03*
Y131141D02*
D03*
Y56057D02*
D03*
Y76771D02*
D03*
Y69866D02*
D03*
Y83676D02*
D03*
X264051Y276260D02*
D03*
Y255546D02*
D03*
Y269355D02*
D03*
Y248641D02*
D03*
Y200352D02*
D03*
Y221066D02*
D03*
Y214161D02*
D03*
Y227971D02*
D03*
Y103776D02*
D03*
Y124490D02*
D03*
Y110680D02*
D03*
Y131395D02*
D03*
Y77025D02*
D03*
Y70120D02*
D03*
Y83930D02*
D03*
X230269Y277022D02*
D03*
Y256308D02*
D03*
Y270117D02*
D03*
Y249403D02*
D03*
Y201113D02*
D03*
Y221828D02*
D03*
Y214923D02*
D03*
Y228733D02*
D03*
Y152436D02*
D03*
Y173150D02*
D03*
Y166245D02*
D03*
Y180055D02*
D03*
Y104538D02*
D03*
Y125252D02*
D03*
Y111442D02*
D03*
Y132157D02*
D03*
X230410Y74925D02*
D03*
X230269Y63977D02*
D03*
X197030Y87948D02*
D03*
X197249Y64246D02*
D03*
X197428Y75388D02*
D03*
X197249Y132425D02*
D03*
Y111711D02*
D03*
Y125520D02*
D03*
Y104806D02*
D03*
Y180323D02*
D03*
Y166514D02*
D03*
Y173418D02*
D03*
Y152704D02*
D03*
Y229001D02*
D03*
Y215191D02*
D03*
Y222096D02*
D03*
Y201382D02*
D03*
Y249671D02*
D03*
Y263481D02*
D03*
Y256576D02*
D03*
X122860Y322318D02*
D03*
X114120Y322428D02*
D03*
X106005Y322318D02*
D03*
X96980D02*
D03*
X86721Y322428D02*
D03*
X77986Y321884D02*
D03*
X69606Y320643D02*
D03*
X60564Y318488D02*
D03*
X51976Y316264D02*
D03*
X43388Y313978D02*
D03*
X-62142Y238519D02*
D03*
X-41665Y246906D02*
D03*
X-62910Y22224D02*
D03*
X164991Y102979D02*
D03*
Y109820D02*
D03*
Y75615D02*
D03*
X164603Y85323D02*
D03*
X164483Y93141D02*
D03*
X164991Y171525D02*
D03*
Y123875D02*
D03*
Y130716D02*
D03*
Y149783D02*
D03*
X165245Y211183D02*
D03*
Y218024D02*
D03*
Y224865D02*
D03*
Y178485D02*
D03*
Y185326D02*
D03*
Y203631D02*
D03*
X164279Y278324D02*
D03*
X403758Y92682D02*
D03*
X399593Y98434D02*
D03*
X358207Y319584D02*
D03*
Y312204D02*
D03*
X398204Y115160D02*
D03*
X403625Y120118D02*
D03*
X403332Y154543D02*
D03*
X401535Y162920D02*
D03*
X403222Y171102D02*
D03*
X454271Y183100D02*
D03*
X438340Y82958D02*
D03*
D78*
X369850Y252761D02*
D03*
X363899Y139115D02*
D03*
X363137Y75767D02*
D03*
X362400Y187248D02*
D03*
X354770Y239368D02*
D03*
X340080Y239900D02*
D03*
X280815Y93141D02*
D03*
X214340Y93395D02*
D03*
X230959D02*
D03*
X264196Y93141D02*
D03*
X247577Y93395D02*
D03*
X181102Y93141D02*
D03*
X328999D02*
D03*
X297281D02*
D03*
X313067D02*
D03*
X287927Y139623D02*
D03*
X221452Y139877D02*
D03*
X238071D02*
D03*
X271308Y139623D02*
D03*
X254690Y139877D02*
D03*
X204833Y139623D02*
D03*
X188214D02*
D03*
X171595D02*
D03*
X302075Y139978D02*
D03*
X321190Y144703D02*
D03*
X288946Y193462D02*
D03*
X222471Y193716D02*
D03*
X239090D02*
D03*
X272328Y193462D02*
D03*
X255709Y193716D02*
D03*
X205852Y193462D02*
D03*
X189233D02*
D03*
X172614D02*
D03*
X331945Y194538D02*
D03*
X305412Y193462D02*
D03*
X321199D02*
D03*
X195080Y239948D02*
D03*
X329577Y239699D02*
D03*
X313791D02*
D03*
X180993D02*
D03*
X214231D02*
D03*
X264088Y239953D02*
D03*
X280706Y239699D02*
D03*
X247469Y239953D02*
D03*
X230850D02*
D03*
X297325Y239699D02*
D03*
M02*
