G04*
G04 #@! TF.GenerationSoftware,Altium Limited,Altium Designer,22.2.1 (43)*
G04*
G04 Layer_Physical_Order=1*
G04 Layer_Color=255*
%FSLAX44Y44*%
%MOMM*%
G71*
G04*
G04 #@! TF.SameCoordinates,D676EA34-7746-482F-A41B-9349FDE20BFB*
G04*
G04*
G04 #@! TF.FilePolarity,Positive*
G04*
G01*
G75*
%ADD18R,0.6000X0.8000*%
%ADD19R,0.8000X1.4000*%
%ADD20R,1.4000X0.8000*%
%ADD21R,0.3000X0.3000*%
%ADD24R,0.8000X0.8000*%
%ADD25R,0.4501X0.6000*%
G04:AMPARAMS|DCode=26|XSize=1mm|YSize=0.5mm|CornerRadius=0.0625mm|HoleSize=0mm|Usage=FLASHONLY|Rotation=270.000|XOffset=0mm|YOffset=0mm|HoleType=Round|Shape=RoundedRectangle|*
%AMROUNDEDRECTD26*
21,1,1.0000,0.3750,0,0,270.0*
21,1,0.8750,0.5000,0,0,270.0*
1,1,0.1250,-0.1875,-0.4375*
1,1,0.1250,-0.1875,0.4375*
1,1,0.1250,0.1875,0.4375*
1,1,0.1250,0.1875,-0.4375*
%
%ADD26ROUNDEDRECTD26*%
G04:AMPARAMS|DCode=28|XSize=0.6mm|YSize=0.5mm|CornerRadius=0.1mm|HoleSize=0mm|Usage=FLASHONLY|Rotation=90.000|XOffset=0mm|YOffset=0mm|HoleType=Round|Shape=RoundedRectangle|*
%AMROUNDEDRECTD28*
21,1,0.6000,0.3000,0,0,90.0*
21,1,0.4000,0.5000,0,0,90.0*
1,1,0.2000,0.1500,0.2000*
1,1,0.2000,0.1500,-0.2000*
1,1,0.2000,-0.1500,-0.2000*
1,1,0.2000,-0.1500,0.2000*
%
%ADD28ROUNDEDRECTD28*%
%ADD29R,0.5001X0.6000*%
G04:AMPARAMS|DCode=30|XSize=0.6mm|YSize=0.5mm|CornerRadius=0.1mm|HoleSize=0mm|Usage=FLASHONLY|Rotation=0.000|XOffset=0mm|YOffset=0mm|HoleType=Round|Shape=RoundedRectangle|*
%AMROUNDEDRECTD30*
21,1,0.6000,0.3000,0,0,0.0*
21,1,0.4000,0.5000,0,0,0.0*
1,1,0.2000,0.2000,-0.1500*
1,1,0.2000,-0.2000,-0.1500*
1,1,0.2000,-0.2000,0.1500*
1,1,0.2000,0.2000,0.1500*
%
%ADD30ROUNDEDRECTD30*%
%ADD31R,0.6000X0.5001*%
%ADD33C,0.2032*%
%ADD58C,0.1524*%
G04:AMPARAMS|DCode=59|XSize=1.3mm|YSize=0.7mm|CornerRadius=0.14mm|HoleSize=0mm|Usage=FLASHONLY|Rotation=0.000|XOffset=0mm|YOffset=0mm|HoleType=Round|Shape=RoundedRectangle|*
%AMROUNDEDRECTD59*
21,1,1.3000,0.4200,0,0,0.0*
21,1,1.0200,0.7000,0,0,0.0*
1,1,0.2800,0.5100,-0.2100*
1,1,0.2800,-0.5100,-0.2100*
1,1,0.2800,-0.5100,0.2100*
1,1,0.2800,0.5100,0.2100*
%
%ADD59ROUNDEDRECTD59*%
G04:AMPARAMS|DCode=60|XSize=0.9mm|YSize=0.6mm|CornerRadius=0.12mm|HoleSize=0mm|Usage=FLASHONLY|Rotation=180.000|XOffset=0mm|YOffset=0mm|HoleType=Round|Shape=RoundedRectangle|*
%AMROUNDEDRECTD60*
21,1,0.9000,0.3600,0,0,180.0*
21,1,0.6600,0.6000,0,0,180.0*
1,1,0.2400,-0.3300,0.1800*
1,1,0.2400,0.3300,0.1800*
1,1,0.2400,0.3300,-0.1800*
1,1,0.2400,-0.3300,-0.1800*
%
%ADD60ROUNDEDRECTD60*%
%ADD61R,1.1000X3.7000*%
G04:AMPARAMS|DCode=62|XSize=0.381mm|YSize=0.381mm|CornerRadius=0.0953mm|HoleSize=0mm|Usage=FLASHONLY|Rotation=270.000|XOffset=0mm|YOffset=0mm|HoleType=Round|Shape=RoundedRectangle|*
%AMROUNDEDRECTD62*
21,1,0.3810,0.1905,0,0,270.0*
21,1,0.1905,0.3810,0,0,270.0*
1,1,0.1905,-0.0953,-0.0953*
1,1,0.1905,-0.0953,0.0953*
1,1,0.1905,0.0953,0.0953*
1,1,0.1905,0.0953,-0.0953*
%
%ADD62ROUNDEDRECTD62*%
G04:AMPARAMS|DCode=63|XSize=0.9mm|YSize=0.6mm|CornerRadius=0.12mm|HoleSize=0mm|Usage=FLASHONLY|Rotation=270.000|XOffset=0mm|YOffset=0mm|HoleType=Round|Shape=RoundedRectangle|*
%AMROUNDEDRECTD63*
21,1,0.9000,0.3600,0,0,270.0*
21,1,0.6600,0.6000,0,0,270.0*
1,1,0.2400,-0.1800,-0.3300*
1,1,0.2400,-0.1800,0.3300*
1,1,0.2400,0.1800,0.3300*
1,1,0.2400,0.1800,-0.3300*
%
%ADD63ROUNDEDRECTD63*%
G04:AMPARAMS|DCode=64|XSize=0.381mm|YSize=0.381mm|CornerRadius=0.0953mm|HoleSize=0mm|Usage=FLASHONLY|Rotation=180.000|XOffset=0mm|YOffset=0mm|HoleType=Round|Shape=RoundedRectangle|*
%AMROUNDEDRECTD64*
21,1,0.3810,0.1905,0,0,180.0*
21,1,0.1905,0.3810,0,0,180.0*
1,1,0.1905,-0.0953,0.0953*
1,1,0.1905,0.0953,0.0953*
1,1,0.1905,0.0953,-0.0953*
1,1,0.1905,-0.0953,-0.0953*
%
%ADD64ROUNDEDRECTD64*%
%ADD65C,0.2540*%
%ADD66C,0.5080*%
%ADD67C,0.3810*%
%ADD68C,0.3048*%
%ADD69R,0.1326X0.1687*%
%ADD70R,0.1687X0.1326*%
%ADD71C,1.5001*%
%ADD72C,2.5254*%
%ADD73O,1.0000X2.1001*%
%ADD74O,1.1001X1.7000*%
%ADD75C,0.6500*%
%ADD76C,3.8000*%
%ADD77C,0.5080*%
%ADD78C,0.7112*%
%ADD79C,0.6700*%
G36*
X476363Y326405D02*
Y248728D01*
X476521Y247935D01*
X476970Y247263D01*
X477642Y246814D01*
X478435Y246656D01*
X570609D01*
X578446Y237830D01*
Y237089D01*
X578486Y236889D01*
Y236685D01*
X579082Y233686D01*
X579161Y233497D01*
X579200Y233297D01*
X580370Y230473D01*
X580484Y230303D01*
X580562Y230114D01*
X582261Y227572D01*
X582405Y227428D01*
X582518Y227258D01*
X584680Y225096D01*
X584850Y224983D01*
X584994Y224839D01*
X587536Y223140D01*
X587725Y223062D01*
X587895Y222949D01*
X590719Y221779D01*
X590919Y221739D01*
X591108Y221661D01*
X594106Y221064D01*
X594311D01*
X594511Y221024D01*
X597568D01*
X597768Y221064D01*
X597972D01*
X600971Y221661D01*
X601160Y221739D01*
X601360Y221779D01*
X604184Y222949D01*
X604354Y223062D01*
X604543Y223140D01*
X607085Y224839D01*
X607229Y224983D01*
X607399Y225096D01*
X609561Y227258D01*
X609674Y227428D01*
X609818Y227572D01*
X611517Y230114D01*
X611595Y230303D01*
X611708Y230473D01*
X612878Y233297D01*
X612918Y233497D01*
X612996Y233686D01*
X613593Y236685D01*
Y236889D01*
X613633Y237089D01*
Y237886D01*
X620708Y246656D01*
X698941D01*
X701520Y244076D01*
Y212532D01*
X685996D01*
X685682Y212124D01*
X685056Y211457D01*
X657344Y211457D01*
X657344Y211457D01*
X656718Y212124D01*
X656403Y212532D01*
X631590D01*
X630797Y212374D01*
X630125Y211925D01*
X629676Y211253D01*
X629518Y210460D01*
Y44460D01*
X629676Y43667D01*
X630125Y42995D01*
X630797Y42546D01*
X631590Y42388D01*
X656404D01*
X656646Y42705D01*
X657265Y43373D01*
X685135Y43373D01*
X685135Y43373D01*
X685754Y42705D01*
X685996Y42388D01*
X701520D01*
X701520Y11304D01*
X698476Y8260D01*
X580564D01*
X572726Y17085D01*
Y17826D01*
X572687Y18026D01*
Y18230D01*
X572090Y21229D01*
X572012Y21418D01*
X571972Y21618D01*
X570802Y24443D01*
X570689Y24612D01*
X570611Y24801D01*
X568912Y27343D01*
X568768Y27487D01*
X568655Y27657D01*
X566493Y29819D01*
X566323Y29932D01*
X566179Y30076D01*
X563636Y31775D01*
X563448Y31853D01*
X563278Y31967D01*
X560453Y33136D01*
X560253Y33176D01*
X560065Y33254D01*
X557066Y33851D01*
X556862D01*
X556662Y33891D01*
X553605D01*
X553404Y33851D01*
X553200D01*
X550202Y33254D01*
X550013Y33176D01*
X549813Y33136D01*
X546988Y31967D01*
X546819Y31853D01*
X546630Y31775D01*
X544088Y30076D01*
X543944Y29932D01*
X543774Y29819D01*
X541612Y27657D01*
X541499Y27487D01*
X541354Y27343D01*
X539656Y24801D01*
X539578Y24612D01*
X539464Y24443D01*
X538294Y21618D01*
X538254Y21418D01*
X538176Y21229D01*
X537580Y18230D01*
Y18026D01*
X537540Y17826D01*
Y17029D01*
X530465Y8260D01*
X478435D01*
X477642Y8102D01*
X476970Y7653D01*
X476521Y6981D01*
X476363Y6188D01*
X476363Y-623D01*
X475093Y-1149D01*
X466128Y7816D01*
Y27201D01*
X465813Y28787D01*
X464915Y30131D01*
X456010Y39035D01*
X456011Y47370D01*
X455527Y48536D01*
X450645Y53418D01*
X449479Y53901D01*
X440086D01*
X438920Y53418D01*
X435427Y49925D01*
X434944Y48759D01*
X434944Y38156D01*
X435427Y36990D01*
X438913Y33504D01*
X440079Y33021D01*
X450305D01*
X457841Y25485D01*
Y6100D01*
X458157Y4514D01*
X459055Y3169D01*
X469058Y-6833D01*
Y-34532D01*
X460947Y-42643D01*
X459388Y-42226D01*
X457012D01*
X454717Y-42841D01*
X453965Y-43275D01*
X451438Y-40748D01*
Y-40028D01*
X451534Y-39548D01*
Y-36548D01*
X451338Y-35563D01*
X450780Y-34729D01*
X449945Y-34171D01*
X448960Y-33975D01*
X447648D01*
X447295Y-33905D01*
X446942Y-33975D01*
X444961D01*
X443976Y-34171D01*
X443141Y-34729D01*
X442583Y-35563D01*
X442387Y-36548D01*
Y-39548D01*
X442583Y-40533D01*
X443141Y-41368D01*
X443151Y-41375D01*
Y-42465D01*
X443467Y-44050D01*
X443668Y-44352D01*
X442989Y-45622D01*
X439183D01*
X439027Y-45686D01*
X438861Y-45653D01*
X438719Y-45682D01*
X436044D01*
X435901Y-45653D01*
X435736Y-45686D01*
X435580Y-45622D01*
X432164D01*
X431455Y-44758D01*
Y-40758D01*
X431259Y-39773D01*
X430701Y-38938D01*
X429866Y-38380D01*
X428881Y-38184D01*
X426745D01*
X424959Y-36396D01*
X424959Y-25006D01*
Y-17224D01*
X424476Y-16057D01*
X422123Y-13704D01*
X420957Y-13221D01*
X414599Y-13221D01*
Y-13152D01*
X414403Y-12167D01*
X413845Y-11332D01*
X413010Y-10774D01*
X412025Y-10579D01*
X408025D01*
X407041Y-10774D01*
X406206Y-11332D01*
X405944Y-11724D01*
X405923Y-11733D01*
X404553D01*
X404533Y-11724D01*
X404271Y-11332D01*
X403436Y-10774D01*
X402451Y-10579D01*
X398451D01*
X397466Y-10774D01*
X396631Y-11332D01*
X396073Y-12167D01*
X395877Y-13152D01*
Y-16152D01*
X396073Y-17137D01*
X396631Y-17972D01*
X397466Y-18529D01*
X398451Y-18725D01*
X402451D01*
X403040Y-18608D01*
X404072Y-19217D01*
X404310Y-19473D01*
X404309Y-59081D01*
X404793Y-60247D01*
X407721Y-63176D01*
X408888Y-63659D01*
X418665D01*
X423708Y-66312D01*
X424107Y-66349D01*
X424476Y-66502D01*
X443802D01*
X444968Y-66019D01*
X448461Y-62526D01*
X448945Y-61359D01*
X448945Y-55808D01*
X450215Y-55468D01*
X450979Y-56791D01*
X452659Y-58472D01*
X454717Y-59660D01*
X457012Y-60275D01*
X459388D01*
X461684Y-59660D01*
X463741Y-58472D01*
X465422Y-56791D01*
X466610Y-54734D01*
X467225Y-52438D01*
Y-50062D01*
X466807Y-48503D01*
X475093Y-40217D01*
X476363Y-40743D01*
X476363Y-71490D01*
X327218D01*
X326732Y-70317D01*
X339357Y-57692D01*
X349833Y-57692D01*
X349969Y-57636D01*
X350000Y-57629D01*
X350031Y-57636D01*
X350167Y-57692D01*
X362908D01*
X364075Y-57209D01*
X366367Y-54917D01*
X366850Y-53751D01*
Y-47877D01*
X368064Y-47505D01*
X378005Y-62216D01*
X378143Y-62307D01*
X378206Y-62459D01*
X378654Y-62645D01*
X379059Y-62912D01*
X379220Y-62879D01*
X379372Y-62942D01*
X390252D01*
X391418Y-62459D01*
X393698Y-60180D01*
X394181Y-59013D01*
Y-40149D01*
X394180Y-21311D01*
X393697Y-20145D01*
X391049Y-17497D01*
X391110Y-15938D01*
X391125Y-15914D01*
X391678Y-15087D01*
X391874Y-14102D01*
Y-10102D01*
X391678Y-9117D01*
X391120Y-8282D01*
X390285Y-7724D01*
X389300Y-7528D01*
X386300D01*
X385316Y-7724D01*
X384481Y-8282D01*
X383923Y-9117D01*
X383727Y-10102D01*
Y-14102D01*
X383923Y-15087D01*
X383977Y-15168D01*
X383416Y-16216D01*
X382184Y-16217D01*
X381624Y-15168D01*
X381678Y-15087D01*
X381874Y-14102D01*
Y-10102D01*
X381678Y-9117D01*
X381120Y-8282D01*
X380285Y-7724D01*
X379300Y-7528D01*
X376301D01*
X375316Y-7724D01*
X374481Y-8282D01*
X374336Y-8498D01*
X373168Y-8194D01*
X373058Y-8126D01*
X372900Y-7329D01*
X372425Y-6618D01*
X371714Y-6143D01*
X370875Y-5976D01*
X367125D01*
X366287Y-6143D01*
X365576Y-6618D01*
X365101Y-7329D01*
X364934Y-8167D01*
Y-16917D01*
X365101Y-17756D01*
X365576Y-18467D01*
X366287Y-18942D01*
X367125Y-19109D01*
X370875D01*
X371714Y-18942D01*
X372425Y-18467D01*
X372900Y-17756D01*
X373066Y-16917D01*
Y-16091D01*
X374336Y-15705D01*
X374481Y-15921D01*
X375316Y-16479D01*
X376301Y-16675D01*
X377179D01*
X377705Y-17945D01*
X374014Y-21637D01*
X373531Y-22803D01*
X373531Y-27709D01*
X372866Y-28375D01*
X367948Y-28383D01*
X366628D01*
X365462Y-28867D01*
X364240Y-30088D01*
X364186Y-30220D01*
X363685Y-30378D01*
X362737Y-30484D01*
X362706Y-30472D01*
X362214Y-30143D01*
X361375Y-29976D01*
X357625D01*
X356787Y-30143D01*
X356076Y-30618D01*
X355601Y-31329D01*
X355434Y-32167D01*
Y-35105D01*
X355336Y-35170D01*
X354066Y-34491D01*
Y-32167D01*
X353899Y-31329D01*
X353424Y-30618D01*
X352714Y-30143D01*
X351875Y-29976D01*
X348276D01*
X348262Y-29974D01*
X344178D01*
X343663Y-29459D01*
Y-27042D01*
X343468Y-26058D01*
X342910Y-25223D01*
X342075Y-24665D01*
X341090Y-24469D01*
X337090D01*
X336105Y-24665D01*
X335270Y-25223D01*
X334576Y-25237D01*
X333474Y-24154D01*
Y-21968D01*
X333278Y-20983D01*
X332720Y-20148D01*
X331885Y-19591D01*
X330900Y-19395D01*
X327900D01*
X326915Y-19591D01*
X326080Y-20148D01*
X325522Y-20983D01*
X325327Y-21968D01*
Y-25968D01*
X325522Y-26953D01*
X326080Y-27788D01*
X326915Y-28346D01*
X327900Y-28542D01*
X330590D01*
X331624Y-29576D01*
X332381Y-30081D01*
X333273Y-30258D01*
X334560D01*
X334712Y-31027D01*
X335270Y-31862D01*
X336105Y-32420D01*
X337090Y-32616D01*
X339734D01*
X340178Y-33199D01*
X339549Y-34469D01*
X337090D01*
X336105Y-34665D01*
X335270Y-35223D01*
X334712Y-36058D01*
X334517Y-37042D01*
Y-40042D01*
X334712Y-41027D01*
X335270Y-41862D01*
X336105Y-42420D01*
X337090Y-42616D01*
X340977D01*
X341349Y-42988D01*
Y-45365D01*
X334348Y-47347D01*
X316150Y-47347D01*
Y-41706D01*
X315903Y-41110D01*
X315667Y-40541D01*
X303160Y-28012D01*
X303160Y-7706D01*
Y-5059D01*
X302676Y-3893D01*
X297073Y1710D01*
Y3858D01*
X296878Y4842D01*
X296320Y5677D01*
X295485Y6235D01*
X294500Y6431D01*
X292223D01*
X287028Y11626D01*
X286272Y12131D01*
X285380Y12308D01*
X241940D01*
X241048Y12131D01*
X240542Y11793D01*
X237682D01*
X236697Y11597D01*
X235862Y11039D01*
X235304Y10204D01*
X235108Y9219D01*
Y5219D01*
X235304Y4234D01*
X235862Y3399D01*
X236385Y3050D01*
X236465Y2744D01*
Y1944D01*
X236385Y1639D01*
X235862Y1289D01*
X235304Y454D01*
X235108Y-531D01*
Y-4531D01*
X235304Y-5516D01*
X235862Y-6350D01*
X236697Y-6908D01*
X237682Y-7104D01*
X240682D01*
X240735Y-7094D01*
X242072Y-8048D01*
X242086Y-8247D01*
X242071Y-8272D01*
X241611Y-8960D01*
X241444Y-9799D01*
Y-18549D01*
X241611Y-19387D01*
X242086Y-20098D01*
X242797Y-20573D01*
X243635Y-20740D01*
X247385D01*
X248224Y-20573D01*
X248771Y-20208D01*
X249455Y-20395D01*
X250041Y-20729D01*
Y-29341D01*
X249376Y-30007D01*
X244458Y-30015D01*
X243138D01*
X241972Y-30498D01*
X240750Y-31720D01*
X240696Y-31851D01*
X240195Y-32009D01*
X239247Y-32115D01*
X239216Y-32104D01*
X238724Y-31775D01*
X237885Y-31608D01*
X234135D01*
X233297Y-31775D01*
X232586Y-32250D01*
X232111Y-32960D01*
X231944Y-33799D01*
Y-38068D01*
X231846Y-38134D01*
X230576Y-37455D01*
Y-33799D01*
X230410Y-32960D01*
X229935Y-32250D01*
X229224Y-31775D01*
X228385Y-31608D01*
X226877D01*
Y-28560D01*
X226992Y-28512D01*
X228135Y-27369D01*
X228754Y-25875D01*
Y-24259D01*
X228135Y-22765D01*
X227380Y-22010D01*
X227906Y-20740D01*
X228385D01*
X229224Y-20573D01*
X229935Y-20098D01*
X230410Y-19387D01*
X230576Y-18549D01*
Y-9799D01*
X230410Y-8960D01*
X230018Y-8374D01*
X230161Y-7796D01*
X230506Y-7104D01*
X230682D01*
X231667Y-6908D01*
X232502Y-6350D01*
X233059Y-5516D01*
X233255Y-4531D01*
Y-531D01*
X233059Y454D01*
X232502Y1289D01*
X231978Y1639D01*
X231899Y1944D01*
Y2744D01*
X231978Y3050D01*
X232502Y3399D01*
X233059Y4234D01*
X233255Y5219D01*
Y9219D01*
X233059Y10204D01*
X232502Y11039D01*
X231667Y11597D01*
X230682Y11793D01*
X227682D01*
X226697Y11597D01*
X225862Y11039D01*
X225304Y10204D01*
X225108Y9219D01*
Y5219D01*
X225304Y4234D01*
X225862Y3399D01*
X226386Y3050D01*
X226465Y2744D01*
Y1944D01*
X226386Y1639D01*
X225862Y1289D01*
X225763Y1140D01*
X224580Y775D01*
X224216Y937D01*
X223661Y1307D01*
X222676Y1503D01*
X218676D01*
X217691Y1307D01*
X216856Y749D01*
X216299Y-86D01*
X216103Y-1070D01*
Y-4070D01*
X216299Y-5055D01*
X216856Y-5890D01*
X217691Y-6448D01*
X218676Y-6644D01*
X222676D01*
X223085Y-7857D01*
X223086Y-8250D01*
X222611Y-8960D01*
X222444Y-9799D01*
Y-17729D01*
X221174Y-18255D01*
X214682Y-11763D01*
Y8643D01*
X216376D01*
Y17336D01*
X224590D01*
X225482Y17514D01*
X226220Y18006D01*
X227463D01*
X228429Y18198D01*
X229248Y18746D01*
X229796Y19565D01*
X229988Y20531D01*
Y22436D01*
X229796Y23402D01*
X229386Y24015D01*
X229796Y24629D01*
X229988Y25595D01*
Y27500D01*
X229796Y28466D01*
X229248Y29285D01*
X228429Y29833D01*
X227463Y30025D01*
X225558D01*
X224592Y29833D01*
X223772Y29285D01*
X223246Y28498D01*
X221377D01*
Y30690D01*
X213328D01*
Y21998D01*
X207700D01*
X206808Y21820D01*
X206052Y21315D01*
X201579Y16841D01*
X201073Y16085D01*
X200896Y15193D01*
Y10026D01*
X199781Y8911D01*
X199679Y8665D01*
X198305D01*
X198202Y8911D01*
X197347Y9767D01*
Y23098D01*
X208773Y34524D01*
X226510D01*
X227501Y34721D01*
X228342Y35283D01*
X233913Y40854D01*
X235274Y40521D01*
X235305Y40367D01*
X235863Y39532D01*
X236697Y38974D01*
X237682Y38778D01*
X240682D01*
X241667Y38974D01*
X242502Y39532D01*
X243060Y40367D01*
X243256Y41352D01*
Y45352D01*
X243060Y46337D01*
X242502Y47172D01*
X241667Y47729D01*
X240682Y47925D01*
X237682D01*
X236697Y47729D01*
X235863Y47172D01*
X235364Y46425D01*
X233231D01*
X232240Y46227D01*
X231400Y45666D01*
X225438Y39704D01*
X207700D01*
X206709Y39507D01*
X205869Y38945D01*
X192926Y26002D01*
X192364Y25162D01*
X192167Y24171D01*
Y9767D01*
X191312Y8911D01*
X190693Y7418D01*
Y5801D01*
X190712Y5754D01*
X189740Y4782D01*
X189693Y4802D01*
X187990Y5026D01*
X186287Y4802D01*
X184700Y4144D01*
X183337Y3099D01*
X182511Y2021D01*
X167725D01*
X167374Y2255D01*
X166390Y2451D01*
X163390D01*
X162405Y2255D01*
X161570Y1697D01*
X161012Y862D01*
X160816Y-122D01*
Y-1769D01*
X160746Y-2122D01*
X160816Y-2476D01*
Y-4122D01*
X161012Y-5107D01*
X161570Y-5942D01*
X162405Y-6500D01*
X163390Y-6696D01*
X166390D01*
X167374Y-6500D01*
X167724Y-6266D01*
X171823D01*
X172076Y-7536D01*
X170935Y-8009D01*
X169592Y-9352D01*
X168865Y-11106D01*
Y-13005D01*
X169592Y-14760D01*
X170935Y-16103D01*
X172690Y-16830D01*
X174589D01*
X176343Y-16103D01*
X177686Y-14760D01*
X178413Y-13005D01*
Y-11106D01*
X177686Y-9352D01*
X176343Y-8009D01*
X175202Y-7536D01*
X175455Y-6266D01*
X181410D01*
Y-12555D01*
X181625Y-14188D01*
X176861Y-18952D01*
X175962Y-20296D01*
X175865Y-20788D01*
X164839Y-31814D01*
X141056D01*
X139471Y-32129D01*
X138126Y-33027D01*
X137654Y-33500D01*
X136384Y-32974D01*
Y-30731D01*
X136368Y-30650D01*
X139396Y-27622D01*
X140293D01*
X141786Y-27003D01*
X142929Y-25860D01*
X143548Y-24366D01*
Y-22750D01*
X142929Y-21256D01*
X142847Y-21173D01*
X143373Y-19903D01*
X144832D01*
X145724Y-19726D01*
X146480Y-19221D01*
X148354Y-17347D01*
X148381Y-17358D01*
X149998D01*
X151491Y-16740D01*
X152635Y-15597D01*
X153324Y-16135D01*
X153476Y-16286D01*
X154969Y-16905D01*
X156586D01*
X158080Y-16286D01*
X159223Y-15143D01*
X159842Y-13649D01*
Y-12033D01*
X159223Y-10539D01*
X158080Y-9396D01*
X157664Y-9224D01*
Y-6306D01*
X158209Y-5942D01*
X158767Y-5107D01*
X158963Y-4122D01*
Y-122D01*
X158767Y862D01*
X158209Y1697D01*
X157374Y2255D01*
X156390Y2451D01*
X154260D01*
X152437Y4274D01*
X152923Y5447D01*
X154535D01*
Y16495D01*
X149313D01*
X149297Y16575D01*
X148792Y17332D01*
X134142Y31981D01*
X133386Y32487D01*
X132494Y32664D01*
X-17678D01*
X-21089Y36074D01*
X-20245Y36917D01*
X-19627Y38411D01*
Y40028D01*
X-20245Y41522D01*
X-21389Y42665D01*
X-22882Y43283D01*
X-24499D01*
X-25372Y44296D01*
X-25355Y44337D01*
Y45954D01*
X-25974Y47448D01*
X-27117Y48591D01*
X-28611Y49209D01*
X-30228D01*
X-31721Y48591D01*
X-32865Y47448D01*
X-33483Y45954D01*
Y44337D01*
X-32865Y42843D01*
X-31750Y41729D01*
Y36798D01*
X-31573Y35907D01*
X-31067Y35150D01*
X-21767Y25850D01*
X-21783Y24958D01*
X-21973Y24390D01*
X-22691Y24093D01*
X-23834Y22949D01*
X-24453Y21456D01*
Y19839D01*
X-23834Y18345D01*
X-22691Y17202D01*
X-21197Y16583D01*
X-19580D01*
X-18087Y17202D01*
X-16943Y18345D01*
X-16325Y19839D01*
Y21456D01*
X-16943Y22949D01*
X-17678Y23684D01*
X-17152Y24954D01*
X130266D01*
X141097Y14123D01*
Y7463D01*
X136085Y2451D01*
X133390D01*
X132405Y2255D01*
X131570Y1697D01*
X131012Y862D01*
X130816Y-122D01*
Y-4122D01*
X131012Y-5107D01*
X131570Y-5942D01*
X132405Y-6500D01*
X133390Y-6696D01*
X133515D01*
Y-9213D01*
X132858Y-9485D01*
X132704Y-9640D01*
X132015Y-10212D01*
X130871Y-9069D01*
X129378Y-8450D01*
X127761D01*
X126267Y-9069D01*
X125124Y-10212D01*
X124619Y-11432D01*
X123706Y-11793D01*
X123235Y-11844D01*
X123021Y-11629D01*
X122790Y-11534D01*
X122632Y-11341D01*
X122229Y-11301D01*
X121854Y-11146D01*
X121683Y-11141D01*
X120463Y-10743D01*
X119886Y-9352D01*
X118543Y-8009D01*
X117495Y-7575D01*
X117748Y-6305D01*
X122113D01*
X122405Y-6500D01*
X123390Y-6696D01*
X126390D01*
X127374Y-6500D01*
X128209Y-5942D01*
X128767Y-5107D01*
X128963Y-4122D01*
Y-2312D01*
X128993Y-2161D01*
X128963Y-2010D01*
Y-122D01*
X128767Y862D01*
X128209Y1697D01*
X127374Y2255D01*
X126390Y2451D01*
X123390D01*
X122405Y2255D01*
X121997Y1983D01*
X109408D01*
X106659Y4732D01*
X105493Y5215D01*
X64463Y5215D01*
X63297Y4732D01*
X61125Y2560D01*
X60642Y1393D01*
X60641Y-23854D01*
X61125Y-25020D01*
X63299Y-27194D01*
X62727Y-28418D01*
X61684Y-28851D01*
X60097Y-30437D01*
X59988Y-30701D01*
X58491Y-31001D01*
X57325Y-30518D01*
X39117D01*
X33727Y-24570D01*
X33688Y-24551D01*
X33671Y-24511D01*
X33123Y-24284D01*
X32586Y-24030D01*
X32545Y-24045D01*
X32505Y-24028D01*
X26461D01*
X25879Y-23912D01*
X25524Y-23675D01*
X25481Y-23611D01*
X25340Y-23517D01*
X25276Y-23361D01*
X24831Y-23177D01*
X24431Y-22910D01*
X24265Y-22943D01*
X24109Y-22878D01*
X15567Y-22878D01*
X14400Y-23361D01*
X3734Y-34028D01*
X3250Y-35194D01*
Y-44549D01*
X3379Y-44857D01*
X3381Y-45192D01*
X3611Y-45417D01*
X3734Y-45715D01*
X4042Y-45843D01*
X4281Y-46077D01*
X32599Y-57551D01*
X32921Y-57549D01*
X33219Y-57672D01*
X45539D01*
X46052Y-58942D01*
X45432Y-59541D01*
X45387Y-59646D01*
X45287Y-59702D01*
X45141Y-60212D01*
X44929Y-60699D01*
X44971Y-60806D01*
X44940Y-60916D01*
X45241Y-63537D01*
X45339Y-63713D01*
X45264Y-63924D01*
X44452Y-64804D01*
X43998Y-64693D01*
X32402Y-61082D01*
X21053Y-56761D01*
X9992Y-51746D01*
X-737Y-46055D01*
X-11094Y-39712D01*
X-21038Y-32740D01*
X-30531Y-25166D01*
X-39538Y-17018D01*
X-48022Y-8329D01*
X-55953Y869D01*
X-63300Y10539D01*
X-66319Y15071D01*
X-66319Y64360D01*
Y147373D01*
X-65049Y148222D01*
X-64900Y148160D01*
X-50658Y148160D01*
X-49752Y147761D01*
X-48608Y146617D01*
X-47115Y145999D01*
X-45498D01*
X-44004Y146617D01*
X-42861Y147761D01*
X-42242Y149254D01*
X-42139Y149732D01*
X-41036Y150365D01*
X-40823Y150430D01*
X-40396Y150783D01*
X-40317Y150836D01*
X-40279Y150855D01*
X-40276Y150863D01*
X-39935Y151091D01*
X-39355Y151959D01*
X-38557Y152492D01*
X-37615Y152680D01*
X-36673Y152492D01*
X-35874Y151959D01*
X-35340Y151160D01*
X-35089Y149896D01*
X-34864Y149559D01*
X-34746Y149172D01*
X-34411Y148763D01*
X-34390Y148752D01*
X-34291Y148462D01*
X-34219Y147292D01*
X-34241Y147232D01*
X-34853Y146621D01*
X-35471Y145127D01*
Y143510D01*
X-34853Y142017D01*
X-33709Y140873D01*
X-32457Y140355D01*
X-32280Y139976D01*
X-32190Y139592D01*
X-32167Y138985D01*
X-33073Y138079D01*
X-33691Y136586D01*
Y134969D01*
X-33597Y134740D01*
X-33612Y134549D01*
X-34284Y133496D01*
X-35621Y133099D01*
X-35889Y133278D01*
X-36855Y133470D01*
X-38760D01*
X-39726Y133278D01*
X-40332Y132874D01*
X-42331D01*
X-42442Y132984D01*
X-43935Y133603D01*
X-45552D01*
X-47046Y132984D01*
X-48189Y131841D01*
X-48808Y130347D01*
Y128731D01*
X-48189Y127237D01*
X-47046Y126094D01*
X-45552Y125475D01*
X-43935D01*
X-42442Y126094D01*
X-41877Y126658D01*
X-39479D01*
X-38760Y126515D01*
X-36855D01*
X-35889Y126707D01*
X-35276Y127117D01*
X-34663Y126707D01*
X-33696Y126515D01*
X-31791D01*
X-30825Y126707D01*
X-30006Y127255D01*
X-29458Y128074D01*
X-29266Y129040D01*
Y129442D01*
X-28099Y130609D01*
X-28099Y130609D01*
X-27482Y131533D01*
X-27322Y132336D01*
X-26182Y133475D01*
X-25563Y134969D01*
Y136586D01*
X-26182Y138079D01*
X-27325Y139223D01*
X-28578Y139741D01*
X-28754Y140120D01*
X-28844Y140504D01*
X-28867Y141111D01*
X-27962Y142017D01*
X-27343Y143510D01*
Y145127D01*
X-27962Y146621D01*
X-28637Y147296D01*
X-28664Y147848D01*
X-28548Y148770D01*
X-28514Y148832D01*
X-24148Y153197D01*
X-23665Y154364D01*
Y165837D01*
X-23820Y166211D01*
X-23859Y166614D01*
X-24053Y166773D01*
X-24148Y167004D01*
X-24522Y167159D01*
X-24834Y167415D01*
X-33295Y169990D01*
X-33785Y171467D01*
X-33384Y172435D01*
Y174051D01*
X-34003Y175545D01*
X-35146Y176688D01*
X-36640Y177307D01*
X-38257D01*
X-39751Y176688D01*
X-40894Y175545D01*
X-41512Y174051D01*
Y172435D01*
X-42201Y171262D01*
X-43532Y170851D01*
X-43653Y170971D01*
X-45147Y171590D01*
X-45863D01*
X-46457Y172255D01*
X-46614Y172800D01*
X-46725Y173357D01*
X-47001Y173771D01*
X-47463Y174079D01*
X-47893Y174432D01*
X-50800Y175317D01*
X-52450Y188727D01*
X-51834Y189723D01*
X-51553Y189997D01*
X-49091D01*
X-48757Y189457D01*
X-48644Y188727D01*
X-48744Y188661D01*
X-48970Y188321D01*
X-49259Y188033D01*
X-49415Y187656D01*
X-49642Y187316D01*
X-49721Y186916D01*
X-49878Y186539D01*
Y186131D01*
X-49957Y185731D01*
X-49878Y185331D01*
Y184922D01*
X-49721Y184545D01*
X-49642Y184145D01*
X-49415Y183806D01*
X-49259Y183429D01*
X-48970Y183140D01*
X-48744Y182801D01*
X-48141Y182198D01*
X-46796Y181299D01*
X-45210Y180984D01*
X-45210Y180984D01*
X7592D01*
X7642Y180964D01*
X8050D01*
X8450Y180884D01*
X8850Y180964D01*
X9258D01*
X9635Y181120D01*
X10036Y181199D01*
X10375Y181426D01*
X10752Y181582D01*
X11041Y181871D01*
X11380Y182098D01*
X11607Y182437D01*
X11895Y182726D01*
X12052Y183103D01*
X12278Y183442D01*
X12358Y183842D01*
X12514Y184219D01*
Y184627D01*
X12594Y185028D01*
X12514Y185428D01*
Y185836D01*
X12358Y186213D01*
X12278Y186613D01*
X12052Y186953D01*
X11895Y187330D01*
X11607Y187618D01*
X11380Y187958D01*
X11280Y188058D01*
X10941Y188284D01*
X10752Y188473D01*
X10506Y188575D01*
X9936Y188956D01*
X9263Y189090D01*
X9258Y189092D01*
X9254D01*
X8350Y189271D01*
X-37554D01*
X-37954Y190480D01*
X-37921Y190560D01*
X-37845Y190600D01*
X-37726Y190746D01*
X-37608Y191133D01*
X-37383Y191470D01*
X-37132Y192734D01*
X-36598Y193533D01*
X-35800Y194067D01*
X-34857Y194254D01*
X-33915Y194067D01*
X-33117Y193533D01*
X-32612Y192778D01*
X-32127Y192454D01*
X-31663Y192100D01*
X-30244Y191724D01*
X-30025Y191753D01*
X-29821Y191669D01*
X-29421Y191834D01*
X-28992Y191892D01*
X-28859Y192067D01*
X-28655Y192152D01*
X-20687Y200120D01*
X-20204Y201286D01*
Y208720D01*
X-20687Y209886D01*
X-35425Y224624D01*
X-36591Y225107D01*
X-60343D01*
X-61509Y224624D01*
X-65146Y220988D01*
X-66319Y221474D01*
Y237957D01*
X-63322Y242291D01*
X-56047Y251622D01*
X-48250Y260522D01*
X-39958Y268961D01*
X-31197Y276913D01*
X-21995Y284350D01*
X-12384Y291250D01*
X-2393Y297589D01*
X7943Y303347D01*
X18592Y308504D01*
X29518Y313044D01*
X40685Y316952D01*
X52058Y320215D01*
X63599Y322823D01*
X75270Y324767D01*
X87033Y326041D01*
X92941Y326340D01*
X93077Y326374D01*
X93217Y326373D01*
X93392Y326406D01*
X476363Y326405D01*
D02*
G37*
G36*
X-21853Y208720D02*
Y201286D01*
X-29821Y193318D01*
X-31241Y193694D01*
X-31927Y194722D01*
X-33272Y195620D01*
X-34857Y195936D01*
X-36443Y195620D01*
X-37787Y194722D01*
X-38686Y193378D01*
X-39001Y191792D01*
X-39121Y191647D01*
X-54307Y191647D01*
X-54342Y191822D01*
X-54944Y192724D01*
X-55845Y193326D01*
X-56908Y193537D01*
X-61070D01*
X-66319Y198785D01*
X-66319Y217481D01*
X-60343Y223458D01*
X-36591D01*
X-21853Y208720D01*
D02*
G37*
G36*
X-52307Y174051D02*
X-48373Y172854D01*
X-48096Y172440D01*
X-48260Y170994D01*
X-48361Y170806D01*
X-48885Y170456D01*
X-49783Y169112D01*
X-50099Y167526D01*
X-49783Y165940D01*
X-48885Y164596D01*
X-47541Y163698D01*
X-45955Y163382D01*
X-44370Y163698D01*
X-43210Y164473D01*
X-41961Y163639D01*
X-40376Y163323D01*
X-38790Y163639D01*
X-37446Y164537D01*
X-36548Y165882D01*
X-36232Y167467D01*
X-36309Y167856D01*
X-35212Y168849D01*
X-25315Y165837D01*
Y154364D01*
X-29869Y149810D01*
X-33136D01*
X-33471Y150218D01*
X-33786Y151804D01*
X-34685Y153148D01*
X-36029Y154046D01*
X-37615Y154362D01*
X-39200Y154046D01*
X-40545Y153148D01*
X-41307Y152007D01*
X-41519Y151942D01*
X-42132Y151902D01*
X-42702Y151983D01*
X-43376Y152993D01*
X-44721Y153891D01*
X-46306Y154206D01*
X-47892Y153891D01*
X-49236Y152993D01*
X-50135Y151649D01*
X-50450Y150063D01*
X-50658Y149810D01*
X-64900Y149810D01*
X-64900Y188878D01*
X-54130D01*
X-52307Y174051D01*
D02*
G37*
G36*
X454361Y47370D02*
Y42436D01*
X454361Y36080D01*
X452951Y34670D01*
X440079D01*
X436593Y38156D01*
X436593Y48759D01*
X440086Y52252D01*
X449479D01*
X454361Y47370D01*
D02*
G37*
G36*
X208326Y15337D02*
Y8643D01*
X210020D01*
Y-12729D01*
X210198Y-13621D01*
X210703Y-14377D01*
X220626Y-24299D01*
Y-25875D01*
X221244Y-27369D01*
X222215Y-28340D01*
Y-30843D01*
X220261D01*
X220230Y-30689D01*
X219672Y-29854D01*
X218837Y-29296D01*
X217852Y-29100D01*
X213852D01*
X212868Y-29296D01*
X212033Y-29854D01*
X211620D01*
X210785Y-29296D01*
X209800Y-29100D01*
X205800D01*
X205348Y-28729D01*
Y-21956D01*
X204865Y-20790D01*
X202383Y-18308D01*
X201217Y-17825D01*
X197407D01*
X196240Y-18308D01*
X194459Y-20089D01*
X193285Y-19604D01*
Y-16371D01*
X193689Y-15845D01*
X194346Y-14258D01*
X194571Y-12555D01*
Y-1554D01*
X194346Y149D01*
X193866Y1310D01*
X194433Y2350D01*
X194669Y2545D01*
X195565D01*
X197059Y3164D01*
X198202Y4307D01*
X198305Y4554D01*
X199679D01*
X199781Y4307D01*
X200925Y3164D01*
X202418Y2545D01*
X204035D01*
X205529Y3164D01*
X206672Y4307D01*
X207291Y5801D01*
Y7418D01*
X206672Y8911D01*
X205557Y10026D01*
Y14228D01*
X207153Y15824D01*
X208326Y15337D01*
D02*
G37*
G36*
X115099Y-6041D02*
X114681Y-7419D01*
X113976Y-7559D01*
X112397Y-8614D01*
X111342Y-10193D01*
X110972Y-12056D01*
X111342Y-13918D01*
X112397Y-15498D01*
X113976Y-16553D01*
X115839Y-16923D01*
X117702Y-16553D01*
X119281Y-15498D01*
X120336Y-13918D01*
X120476Y-13214D01*
X121854Y-12796D01*
X122760Y-13701D01*
Y-52886D01*
X112600Y-63046D01*
X103516D01*
X97498Y-57028D01*
Y-40771D01*
X99239Y-39033D01*
X106455Y-39048D01*
X108275Y-37231D01*
Y-23105D01*
X104645Y-19474D01*
X87598Y-19474D01*
X79667Y-27404D01*
X65842D01*
X62291Y-23854D01*
X62291Y1393D01*
X64463Y3566D01*
X105493Y3566D01*
X115099Y-6041D01*
D02*
G37*
G36*
X269041Y212D02*
X269041Y-41781D01*
X266112Y-44710D01*
X245458D01*
X244319Y-44187D01*
X244051Y-43787D01*
X243867Y-43343D01*
X243711Y-43278D01*
X243617Y-43137D01*
X243275Y-42909D01*
X242983Y-42471D01*
X242852Y-42383D01*
X242771Y-42189D01*
X241917Y-41335D01*
X241917Y-32886D01*
X243138Y-31664D01*
X244460D01*
X250061Y-31655D01*
X251690Y-30023D01*
X251690Y-7706D01*
Y-5059D01*
X259179Y2430D01*
X266823Y2430D01*
X269041Y212D01*
D02*
G37*
G36*
X364934Y-40409D02*
Y-40917D01*
X365101Y-41756D01*
X365200Y-41905D01*
Y-53751D01*
X362908Y-56042D01*
X350167D01*
X350000Y-56009D01*
X349833Y-56042D01*
X338674Y-56042D01*
X324274Y-70442D01*
X315175Y-70442D01*
X311481Y-66747D01*
X311409Y-66385D01*
X310681Y-65296D01*
X310681Y-54209D01*
X315893Y-48996D01*
X334577Y-48996D01*
X355815Y-42984D01*
Y-38292D01*
X357048Y-37059D01*
X361585D01*
X364934Y-40409D01*
D02*
G37*
G36*
X24109Y-24528D02*
X24334Y-24864D01*
X25235Y-25466D01*
X26298Y-25678D01*
X32505D01*
X38385Y-32167D01*
X57325D01*
X59200Y-34042D01*
Y-34042D01*
X59200D01*
Y-51042D01*
D01*
Y-53695D01*
X56872Y-56023D01*
X33219D01*
X4900Y-44549D01*
Y-35194D01*
X15567Y-24528D01*
X24109Y-24528D01*
D02*
G37*
G36*
X294021Y2430D02*
X301510Y-5059D01*
Y-7706D01*
X301510Y-28695D01*
X314500Y-41706D01*
Y-48057D01*
X309515Y-53042D01*
X309440Y-53224D01*
X306376Y-56287D01*
X296219Y-56286D01*
X284159Y-44226D01*
X284159Y-3903D01*
X285657Y-2405D01*
X286320Y-1962D01*
X286763Y-1299D01*
X290492Y2430D01*
X294021Y2430D01*
D02*
G37*
G36*
X203698Y-21956D02*
Y-30277D01*
X203423Y-30689D01*
X203227Y-31674D01*
Y-34674D01*
X203423Y-35659D01*
X203698Y-36071D01*
Y-40277D01*
X203423Y-40689D01*
X203227Y-41674D01*
Y-44674D01*
X203423Y-45659D01*
X203698Y-46071D01*
Y-48025D01*
X203326Y-48582D01*
X203011Y-50167D01*
X203326Y-51753D01*
X204224Y-53097D01*
X205569Y-53996D01*
X207154Y-54311D01*
X208740Y-53996D01*
X209515Y-53478D01*
X212637D01*
Y-51800D01*
Y-42872D01*
X220676D01*
X222972Y-45168D01*
X230020D01*
X232210Y-42978D01*
Y-41371D01*
X233239Y-40343D01*
X238592D01*
X241605Y-43356D01*
X241611Y-43387D01*
X242086Y-44098D01*
X242701Y-44509D01*
Y-56182D01*
X237934Y-60948D01*
X222218Y-60948D01*
X217805Y-63924D01*
X216522D01*
X216031Y-63827D01*
X215541Y-63924D01*
X198785Y-63924D01*
X193596Y-58735D01*
Y-56088D01*
X194126Y-55398D01*
X194834Y-53689D01*
X195075Y-51855D01*
Y-45856D01*
X194834Y-44022D01*
X194126Y-42313D01*
X193596Y-41623D01*
X193596Y-23284D01*
X197407Y-19474D01*
X201217D01*
X203698Y-21956D01*
D02*
G37*
G36*
X392531Y-21311D02*
X392531Y-40149D01*
Y-59013D01*
X390252Y-61292D01*
X379372D01*
X367064Y-43078D01*
X366850Y-42864D01*
Y-41905D01*
X366698Y-41538D01*
X366719Y-41434D01*
X366584Y-40755D01*
Y-40409D01*
X366335Y-39808D01*
X366101Y-39242D01*
X365406Y-38548D01*
X365406Y-31255D01*
X366628Y-30033D01*
X367950D01*
X373551Y-30024D01*
X375180Y-28392D01*
X375180Y-22803D01*
X379873Y-18109D01*
X389329Y-18109D01*
X392531Y-21311D01*
D02*
G37*
G36*
X288260Y3801D02*
Y2531D01*
X285596Y-133D01*
X285532Y-289D01*
X285391Y-383D01*
X285131Y-773D01*
X284740Y-1034D01*
X284646Y-1174D01*
X284490Y-1239D01*
X282993Y-2736D01*
X282510Y-3903D01*
X282509Y-44226D01*
X282992Y-45392D01*
X295053Y-57453D01*
X296219Y-57936D01*
X306376Y-57936D01*
X307543Y-57453D01*
X307858Y-57138D01*
X309032Y-57624D01*
X309032Y-65296D01*
X309216Y-65740D01*
X309310Y-66212D01*
X309855Y-67028D01*
X309863Y-67069D01*
X310130Y-67469D01*
X310315Y-67914D01*
X312718Y-70317D01*
X312232Y-71490D01*
X98700D01*
X98335Y-71563D01*
X97968Y-71624D01*
X97641Y-71747D01*
X94649Y-71771D01*
X93904Y-70507D01*
X96938Y-65126D01*
X96989Y-64707D01*
X97151Y-64316D01*
Y-60673D01*
X98324Y-60187D01*
X102349Y-64212D01*
X103516Y-64696D01*
X112600D01*
X113767Y-64212D01*
X123926Y-54053D01*
X124409Y-52886D01*
Y-44046D01*
X137112D01*
X138698Y-43730D01*
X140042Y-42832D01*
X142773Y-40101D01*
X166555D01*
X168141Y-39786D01*
X169485Y-38887D01*
X181313Y-27060D01*
X184998D01*
Y-39492D01*
X184448Y-39720D01*
X182980Y-40846D01*
X181854Y-42313D01*
X181147Y-44022D01*
X180905Y-45856D01*
Y-51855D01*
X181147Y-53689D01*
X181854Y-55398D01*
X182980Y-56865D01*
X184448Y-57991D01*
X186157Y-58699D01*
X187990Y-58940D01*
X189824Y-58699D01*
X190677Y-58345D01*
X191909Y-58724D01*
X192081Y-59059D01*
X192430Y-59902D01*
X197619Y-65091D01*
X198785Y-65574D01*
X215541Y-65574D01*
X215697Y-65509D01*
X215863Y-65542D01*
X216031Y-65509D01*
X216200Y-65542D01*
X216366Y-65509D01*
X216522Y-65574D01*
X217805D01*
X218252Y-65389D01*
X218727Y-65292D01*
X222722Y-62598D01*
X237934Y-62598D01*
X239100Y-62115D01*
X243867Y-57348D01*
X244350Y-56182D01*
Y-47307D01*
X244632Y-46915D01*
X245459Y-46359D01*
X266112D01*
X267279Y-45876D01*
X270208Y-42947D01*
X270691Y-41781D01*
X270691Y212D01*
X270208Y1379D01*
X267990Y3596D01*
X266823Y4079D01*
X265609Y4079D01*
X265258Y4430D01*
X265063Y5415D01*
X264505Y6249D01*
X264314Y6377D01*
X264699Y7647D01*
X284415D01*
X288260Y3801D01*
D02*
G37*
G36*
X420957Y-14871D02*
X423310Y-17224D01*
Y-25006D01*
X423310Y-37078D01*
X426901Y-40676D01*
Y-47271D01*
X435580D01*
X435881Y-47331D01*
X438881D01*
X439183Y-47271D01*
X443809D01*
X447295Y-50757D01*
X447295Y-61359D01*
X443802Y-64852D01*
X424476D01*
X419073Y-62010D01*
X408888D01*
X405959Y-59081D01*
X405959Y-16514D01*
X407603Y-14870D01*
X420957Y-14871D01*
D02*
G37*
G36*
X103354Y-24718D02*
X103354Y-31900D01*
X101751Y-33503D01*
X98881D01*
X95501Y-36883D01*
Y-42119D01*
X95352Y-42313D01*
X94644Y-44022D01*
X94403Y-45856D01*
Y-51855D01*
X94644Y-53689D01*
X95352Y-55398D01*
X95501Y-55592D01*
Y-64316D01*
X91961Y-70592D01*
X86226Y-70604D01*
X74791Y-69703D01*
X63465Y-67883D01*
X52323Y-65156D01*
X46880Y-63348D01*
X46579Y-60727D01*
X47696Y-59647D01*
X60058D01*
X61264Y-58442D01*
X61264Y-31603D01*
X62850Y-30017D01*
X85461D01*
X93080Y-22398D01*
X101034D01*
X103354Y-24718D01*
D02*
G37*
%LPC*%
G36*
X459522Y315954D02*
X459470D01*
Y307183D01*
X468241D01*
Y307235D01*
X467556Y309788D01*
X466235Y312078D01*
X464365Y313948D01*
X462076Y315269D01*
X459522Y315954D01*
D02*
G37*
G36*
X456930D02*
X456878D01*
X454325Y315269D01*
X452035Y313948D01*
X450166Y312078D01*
X448844Y309788D01*
X448159Y307235D01*
Y307183D01*
X456930D01*
Y315954D01*
D02*
G37*
G36*
X135615Y311128D02*
X131615D01*
X130630Y310932D01*
X129795Y310374D01*
X129237Y309540D01*
X129041Y308555D01*
Y306802D01*
X127771Y306276D01*
X127148Y306899D01*
X126308Y307460D01*
X125317Y307657D01*
X59290D01*
Y309591D01*
X51241D01*
Y300544D01*
X59290D01*
Y302478D01*
X124244D01*
X134437Y292285D01*
X135277Y291723D01*
X136268Y291526D01*
X139287D01*
X139983Y290256D01*
X139581Y289286D01*
Y287669D01*
X140200Y286175D01*
X141343Y285032D01*
X142837Y284414D01*
X144047D01*
X157862Y270598D01*
X157336Y269328D01*
X142696D01*
X120386Y291639D01*
X119630Y292144D01*
X118738Y292321D01*
X76054D01*
X74939Y293436D01*
X73445Y294055D01*
X71828D01*
X70335Y293436D01*
X69192Y292293D01*
X68573Y290799D01*
Y289182D01*
X69192Y287689D01*
X70335Y286545D01*
X71828Y285927D01*
X73445D01*
X74939Y286545D01*
X76054Y287660D01*
X117772D01*
X139982Y265450D01*
X139935Y265026D01*
X139547Y264180D01*
X137971D01*
Y247132D01*
X136826Y246830D01*
X133919D01*
X132799Y247192D01*
X132799Y248100D01*
Y264240D01*
X128585D01*
X108397Y284428D01*
X107641Y284933D01*
X106749Y285111D01*
X81483D01*
X80591Y284933D01*
X79835Y284428D01*
X76945Y281539D01*
X75537D01*
X74043Y280920D01*
X72900Y279777D01*
X72281Y278283D01*
Y276666D01*
X72900Y275173D01*
X74043Y274029D01*
X75537Y273411D01*
X77154D01*
X77958Y273744D01*
X78678Y272667D01*
X77078Y271068D01*
X75502D01*
X74008Y270449D01*
X72865Y269306D01*
X72246Y267812D01*
Y266195D01*
X72865Y264702D01*
X73704Y263863D01*
X73274Y262593D01*
X65054D01*
X63468Y262277D01*
X62124Y261379D01*
X53602Y252857D01*
X52704Y251513D01*
X52389Y249927D01*
Y232543D01*
X52704Y230957D01*
X53602Y229613D01*
X81041Y202174D01*
Y193976D01*
X81048Y193941D01*
X81041Y193906D01*
Y187851D01*
X81121Y187451D01*
Y187042D01*
X81277Y186665D01*
X81357Y186265D01*
X81583Y185926D01*
X81740Y185549D01*
X82028Y185260D01*
X82255Y184921D01*
X82594Y184694D01*
X82883Y184405D01*
X83260Y184249D01*
X83599Y184023D01*
X84000Y183943D01*
X84376Y183787D01*
X84785D01*
X85185Y183707D01*
X85585Y183787D01*
X85993D01*
X86370Y183943D01*
X86771Y184023D01*
X87110Y184249D01*
X87487Y184405D01*
X87776Y184694D01*
X88115Y184921D01*
X88342Y185260D01*
X88630Y185549D01*
X88786Y185926D01*
X89013Y186265D01*
X89093Y186665D01*
X89249Y187042D01*
Y187451D01*
X89328Y187851D01*
Y193556D01*
X89398Y193906D01*
X89328Y194256D01*
Y203890D01*
X89013Y205476D01*
X88115Y206820D01*
X60676Y234259D01*
Y248211D01*
X66770Y254305D01*
X69724D01*
X70342Y253035D01*
X69885Y251932D01*
Y250962D01*
X65071Y246147D01*
X64565Y245391D01*
X64388Y244499D01*
Y239470D01*
X64565Y238578D01*
X65071Y237822D01*
X69795Y233098D01*
X70551Y232592D01*
X71443Y232415D01*
X71605D01*
X72454Y231145D01*
X72281Y230728D01*
Y229111D01*
X72900Y227618D01*
X74043Y226474D01*
X75537Y225856D01*
X77154D01*
X78647Y226474D01*
X79762Y227589D01*
X162926D01*
X163818Y227766D01*
X164574Y228272D01*
X179153Y242851D01*
X179659Y243607D01*
X179836Y244499D01*
Y247132D01*
X183439D01*
Y264180D01*
X180396D01*
Y264248D01*
X180219Y265140D01*
X179714Y265896D01*
X177481Y268129D01*
X178007Y269399D01*
X191370D01*
X191942Y269512D01*
X192446Y269539D01*
X193496Y268827D01*
X193804Y268084D01*
X194947Y266940D01*
X196441Y266322D01*
X198058D01*
X199551Y266940D01*
X200695Y268084D01*
X200817Y268379D01*
X202147D01*
X203138Y268576D01*
X203978Y269138D01*
X208867Y274027D01*
X213254D01*
Y283074D01*
X205205D01*
Y277689D01*
X203111Y275595D01*
X201940Y276221D01*
X202006Y276551D01*
Y280551D01*
X201810Y281535D01*
X201252Y282370D01*
X201022Y282524D01*
Y284004D01*
X201252Y284158D01*
X201810Y284993D01*
X201940Y285647D01*
X211157D01*
X212049Y285824D01*
X212805Y286329D01*
X213503Y287027D01*
X218256D01*
Y296074D01*
X210206D01*
Y290323D01*
X210192Y290308D01*
X201940D01*
X201810Y290962D01*
X201252Y291797D01*
X200417Y292355D01*
X199433Y292551D01*
X196550D01*
X196340Y292625D01*
X195354Y293631D01*
Y297590D01*
X198029D01*
Y308638D01*
X186981D01*
Y297590D01*
X189657D01*
Y294230D01*
X187977Y292551D01*
X186433D01*
X185448Y292355D01*
X184613Y291797D01*
X184055Y290962D01*
X183859Y289978D01*
Y288446D01*
X182686Y287960D01*
X181569Y289076D01*
Y290286D01*
X180951Y291780D01*
X180095Y292636D01*
Y297590D01*
X183029D01*
Y308638D01*
X171981D01*
Y297590D01*
X174916D01*
Y292636D01*
X174060Y291780D01*
X173722Y290965D01*
X172453Y291218D01*
Y293877D01*
X172275Y294769D01*
X171770Y295525D01*
X158592Y308703D01*
X157836Y309208D01*
X156944Y309386D01*
X138023D01*
X137992Y309540D01*
X137434Y310374D01*
X136599Y310932D01*
X135615Y311128D01*
D02*
G37*
G36*
X333029Y308638D02*
X321981D01*
Y298674D01*
X321981Y298560D01*
X321428Y298392D01*
X320209Y298706D01*
X318029Y300886D01*
Y308638D01*
X306981D01*
Y297590D01*
X314733D01*
X316674Y295648D01*
Y291897D01*
X314481D01*
Y283848D01*
X323507D01*
X323527Y283848D01*
X324424Y282949D01*
X323370Y281895D01*
X314481D01*
Y273846D01*
X316449D01*
Y271177D01*
X316295Y271146D01*
X315460Y270588D01*
X314902Y269753D01*
X314706Y268769D01*
Y264769D01*
X314902Y263784D01*
X315460Y262949D01*
X316295Y262391D01*
X317280Y262195D01*
X320280D01*
X321265Y262391D01*
X322100Y262949D01*
X322658Y263784D01*
X322853Y264769D01*
Y268769D01*
X322658Y269753D01*
X322100Y270588D01*
X321265Y271146D01*
X321111Y271177D01*
Y273846D01*
X323529D01*
Y276322D01*
X324290Y276474D01*
X325046Y276979D01*
X328082Y280014D01*
X330350D01*
X331335Y280210D01*
X332170Y280768D01*
X332728Y281603D01*
X332924Y282588D01*
Y284173D01*
X334194Y284759D01*
X334777Y284261D01*
Y282588D01*
X334972Y281603D01*
X335530Y280768D01*
X336365Y280210D01*
X337350Y280014D01*
X340350D01*
X341335Y280210D01*
X342170Y280768D01*
X342728Y281603D01*
X342924Y282588D01*
Y286588D01*
X342728Y287572D01*
X342170Y288407D01*
X341335Y288965D01*
X341067Y289018D01*
X340287Y290256D01*
X340277Y290431D01*
X340444Y290834D01*
Y292451D01*
X339825Y293945D01*
X338682Y295088D01*
X337188Y295707D01*
X335572D01*
X334078Y295088D01*
X332935Y293945D01*
X332316Y292451D01*
Y290834D01*
X332935Y289341D01*
X332006Y288517D01*
X331335Y288965D01*
X330350Y289161D01*
X327350D01*
X326365Y288965D01*
X325530Y288407D01*
X324973Y287572D01*
X324777Y286588D01*
X323529Y286641D01*
Y291897D01*
X321336D01*
Y296336D01*
X322062Y297258D01*
X322437Y297590D01*
X322704Y297590D01*
X333029D01*
Y300783D01*
X339409D01*
X343077Y297115D01*
Y294838D01*
X343273Y293853D01*
X343830Y293018D01*
X344665Y292460D01*
X345650Y292264D01*
X349650D01*
X350635Y292460D01*
X351470Y293018D01*
X352028Y293853D01*
X352224Y294838D01*
Y297838D01*
X352028Y298822D01*
X351470Y299657D01*
X350635Y300215D01*
X349650Y300411D01*
X346373D01*
X342022Y304762D01*
X341266Y305267D01*
X340374Y305444D01*
X333029D01*
Y308638D01*
D02*
G37*
G36*
X468241Y304643D02*
X459470D01*
Y295872D01*
X459522D01*
X462076Y296557D01*
X464365Y297878D01*
X466235Y299748D01*
X467556Y302038D01*
X468241Y304591D01*
Y304643D01*
D02*
G37*
G36*
X456930D02*
X448159D01*
Y304591D01*
X448844Y302038D01*
X450166Y299748D01*
X452035Y297878D01*
X454325Y296557D01*
X456878Y295872D01*
X456930D01*
Y304643D01*
D02*
G37*
G36*
X259224Y308638D02*
X248176D01*
Y297590D01*
X249620D01*
Y294188D01*
X249149Y293874D01*
X248591Y293039D01*
X248395Y292054D01*
Y290187D01*
X247125Y289558D01*
X246542Y290002D01*
Y292054D01*
X246346Y293039D01*
X245788Y293874D01*
X244953Y294431D01*
X243969Y294627D01*
X240969D01*
X239984Y294431D01*
X239963Y294418D01*
X238819Y295174D01*
X238819Y295174D01*
Y297590D01*
X244224D01*
Y308638D01*
X233176D01*
Y300659D01*
X233121Y300384D01*
X233121Y300383D01*
Y296354D01*
X230885Y294118D01*
X230041D01*
X228548Y293499D01*
X227404Y292356D01*
X226786Y290862D01*
Y289245D01*
X227404Y287752D01*
X228548Y286609D01*
X230041Y285990D01*
X231658D01*
X233152Y286609D01*
X234295Y287752D01*
X234914Y289245D01*
Y290089D01*
X237155Y292331D01*
X237724Y292204D01*
X238395Y291775D01*
Y288054D01*
X238591Y287069D01*
X239149Y286234D01*
X239984Y285676D01*
X240969Y285480D01*
X242513D01*
X243389Y284604D01*
Y282039D01*
X243389Y282039D01*
X243444Y281764D01*
Y276285D01*
X251493D01*
Y284389D01*
X251493Y285332D01*
X252702Y285480D01*
X253969D01*
X254953Y285676D01*
X255788Y286234D01*
X256346Y287069D01*
X256542Y288054D01*
Y292054D01*
X256346Y293039D01*
X255788Y293874D01*
X255317Y294188D01*
Y297590D01*
X259224D01*
Y308638D01*
D02*
G37*
G36*
X279029D02*
X267981D01*
Y301618D01*
X262702Y296339D01*
X262085Y295415D01*
X261868Y294325D01*
X261868Y294325D01*
Y292952D01*
X261271Y292356D01*
X260653Y290862D01*
Y289245D01*
X261271Y287752D01*
X262414Y286609D01*
X263908Y285990D01*
X265525D01*
X267019Y286609D01*
X268162Y287752D01*
X268781Y289245D01*
Y290862D01*
X268162Y292356D01*
X267565Y292952D01*
Y293145D01*
X272010Y297590D01*
X279029D01*
Y308638D01*
D02*
G37*
G36*
X294029D02*
X282981D01*
Y297590D01*
X284874D01*
Y294188D01*
X284403Y293874D01*
X283845Y293039D01*
X283650Y292054D01*
Y288054D01*
X283845Y287069D01*
X284403Y286234D01*
X285238Y285676D01*
X286223Y285480D01*
X289223D01*
X290208Y285676D01*
X291043Y286234D01*
X291600Y287069D01*
X291796Y288054D01*
Y292054D01*
X291600Y293039D01*
X291043Y293874D01*
X290572Y294188D01*
Y297590D01*
X294029D01*
Y308638D01*
D02*
G37*
G36*
X298633Y294118D02*
X297016D01*
X295522Y293499D01*
X294379Y292356D01*
X293761Y290862D01*
Y289245D01*
X294379Y287752D01*
X295522Y286609D01*
X297016Y285990D01*
X298359D01*
X301482Y282867D01*
Y278847D01*
X310529D01*
Y286896D01*
X305510D01*
X301889Y290518D01*
Y290862D01*
X301270Y292356D01*
X300127Y293499D01*
X298633Y294118D01*
D02*
G37*
G36*
X279223Y294627D02*
X276223D01*
X275238Y294431D01*
X274403Y293874D01*
X273845Y293039D01*
X273650Y292054D01*
Y288054D01*
X273845Y287069D01*
X274403Y286234D01*
X274874Y285919D01*
Y282871D01*
X274874Y282871D01*
X275091Y281781D01*
X275262Y281525D01*
Y276285D01*
X283312D01*
Y285332D01*
X281851D01*
X281766Y285427D01*
X281289Y286602D01*
X281601Y287069D01*
X281796Y288054D01*
Y292054D01*
X281601Y293039D01*
X281043Y293874D01*
X280208Y294431D01*
X279223Y294627D01*
D02*
G37*
G36*
X54289Y296591D02*
X46239D01*
Y287544D01*
X47931D01*
Y274152D01*
X47282D01*
X45788Y273533D01*
X44645Y272390D01*
X44431Y271874D01*
X42859Y271397D01*
X42659Y271530D01*
Y288987D01*
X42481Y289879D01*
X41976Y290635D01*
X40904Y291707D01*
Y293284D01*
X40285Y294777D01*
X39142Y295920D01*
X37648Y296539D01*
X36031D01*
X34538Y295920D01*
X33394Y294777D01*
X32776Y293284D01*
Y291667D01*
X33394Y290173D01*
X34538Y289030D01*
X36031Y288411D01*
X37608D01*
X37997Y288021D01*
Y270293D01*
X36883Y269179D01*
X36264Y267685D01*
Y266068D01*
X36883Y264575D01*
X38026Y263431D01*
X39520Y262813D01*
X41136D01*
X42630Y263431D01*
X43773Y264575D01*
X44392Y266068D01*
Y266242D01*
X45662Y266768D01*
X45788Y266642D01*
X47282Y266024D01*
X48899D01*
X50392Y266642D01*
X51535Y267785D01*
X52154Y269279D01*
Y270896D01*
X52133Y270946D01*
X52415Y271368D01*
X52593Y272260D01*
Y287544D01*
X54289D01*
Y296591D01*
D02*
G37*
G36*
X246492Y272332D02*
X238443D01*
Y267080D01*
X236906Y265543D01*
X233686D01*
X232571Y266658D01*
X231078Y267277D01*
X229461D01*
X227967Y266658D01*
X226824Y265515D01*
X226205Y264021D01*
Y262404D01*
X226824Y260911D01*
X227967Y259767D01*
X229461Y259149D01*
X231078D01*
X232571Y259767D01*
X233686Y260882D01*
X237871D01*
X238763Y261059D01*
X239520Y261565D01*
X241240Y263285D01*
X246492D01*
Y272332D01*
D02*
G37*
G36*
X310280Y271342D02*
X307280D01*
X306295Y271146D01*
X305460Y270588D01*
X304902Y269753D01*
X304706Y268769D01*
Y266358D01*
X303135Y264786D01*
X299213D01*
X298357Y265642D01*
X296864Y266261D01*
X295247D01*
X293753Y265642D01*
X292610Y264499D01*
X291991Y263005D01*
Y261388D01*
X292610Y259895D01*
X293753Y258751D01*
X295247Y258133D01*
X296864D01*
X298357Y258751D01*
X299213Y259607D01*
X304208D01*
X305199Y259804D01*
X306039Y260365D01*
X307869Y262195D01*
X310280D01*
X311265Y262391D01*
X312100Y262949D01*
X312658Y263784D01*
X312853Y264769D01*
Y268769D01*
X312658Y269753D01*
X312100Y270588D01*
X311265Y271146D01*
X310280Y271342D01*
D02*
G37*
G36*
X278310Y272332D02*
X270261D01*
Y267080D01*
X267962Y264781D01*
X267468D01*
X266353Y265896D01*
X264860Y266515D01*
X263243D01*
X261749Y265896D01*
X260606Y264753D01*
X259987Y263259D01*
Y261642D01*
X260606Y260149D01*
X261749Y259005D01*
X263243Y258387D01*
X264860D01*
X266353Y259005D01*
X267468Y260120D01*
X268928D01*
X269820Y260297D01*
X270576Y260803D01*
X273058Y263285D01*
X278310D01*
Y272332D01*
D02*
G37*
G36*
X451724Y287721D02*
X447724D01*
X446739Y287525D01*
X445905Y286968D01*
X445347Y286133D01*
X445151Y285148D01*
Y282148D01*
X445347Y281163D01*
X445905Y280328D01*
X446739Y279770D01*
X447724Y279574D01*
X448853D01*
X451477Y276951D01*
X450979Y276453D01*
X449790Y274395D01*
X449459Y273157D01*
X447884D01*
X446298Y272842D01*
X444954Y271943D01*
X377261Y204251D01*
X377034Y203911D01*
X376746Y203623D01*
X376590Y203246D01*
X376363Y202906D01*
X376283Y202506D01*
X376127Y202129D01*
Y201721D01*
X376047Y201320D01*
Y193773D01*
X376127Y193373D01*
Y192965D01*
X376283Y192588D01*
X376363Y192188D01*
X376590Y191848D01*
X376746Y191471D01*
X377034Y191183D01*
X377261Y190844D01*
X377600Y190617D01*
X377889Y190328D01*
X378266Y190172D01*
X378605Y189945D01*
X379006Y189866D01*
X379383Y189709D01*
X379791D01*
X380191Y189630D01*
X380591Y189709D01*
X380999D01*
X381376Y189866D01*
X381777Y189945D01*
X382116Y190172D01*
X382493Y190328D01*
X382782Y190617D01*
X383121Y190844D01*
X383348Y191183D01*
X383636Y191471D01*
X383792Y191848D01*
X384019Y192188D01*
X384099Y192588D01*
X384255Y192965D01*
Y193373D01*
X384335Y193773D01*
Y199604D01*
X449600Y264870D01*
X451479D01*
X452659Y263690D01*
X454717Y262502D01*
X457012Y261887D01*
X459388D01*
X461684Y262502D01*
X463741Y263690D01*
X465422Y265371D01*
X466610Y267428D01*
X467225Y269724D01*
Y272100D01*
X466610Y274395D01*
X465422Y276453D01*
X463741Y278133D01*
X461684Y279321D01*
X459388Y279936D01*
X458380D01*
X454298Y284019D01*
Y285148D01*
X454102Y286133D01*
X453544Y286968D01*
X452709Y287525D01*
X451724Y287721D01*
D02*
G37*
G36*
X34258Y214592D02*
X32642D01*
X31148Y213973D01*
X30005Y212830D01*
X29386Y211336D01*
Y209719D01*
X30005Y208225D01*
X31148Y207082D01*
X32642Y206464D01*
X34258D01*
X35752Y207082D01*
X36895Y208225D01*
X37514Y209719D01*
Y211336D01*
X36895Y212830D01*
X35752Y213973D01*
X34258Y214592D01*
D02*
G37*
G36*
X36758Y195412D02*
X35142D01*
X33648Y194793D01*
X32564Y193709D01*
X32459Y193643D01*
X31483Y193490D01*
X31082Y193534D01*
X30377Y194005D01*
X29392Y194201D01*
X25392D01*
X24407Y194005D01*
X23573Y193447D01*
X23015Y192612D01*
X22819Y191628D01*
Y188628D01*
X23015Y187643D01*
X23573Y186808D01*
X24407Y186250D01*
X25392Y186054D01*
X29392D01*
X30377Y186250D01*
X31212Y186808D01*
X31527Y187279D01*
X34043D01*
X34043Y187279D01*
X34793Y187428D01*
X35142Y187284D01*
X36758D01*
X38252Y187902D01*
X39395Y189046D01*
X40014Y190539D01*
Y192156D01*
X39395Y193650D01*
X38252Y194793D01*
X36758Y195412D01*
D02*
G37*
G36*
X29392Y184201D02*
X25392D01*
X24407Y184005D01*
X23573Y183447D01*
X23015Y182612D01*
X22819Y181628D01*
Y178628D01*
X23015Y177643D01*
X23469Y176963D01*
X23293Y175693D01*
X22343D01*
X22023Y175693D01*
X14794D01*
Y173895D01*
X12940D01*
X12775Y174005D01*
X11790Y174201D01*
X8790D01*
X7805Y174005D01*
X6970Y173447D01*
X6413Y172612D01*
X6217Y171628D01*
Y167628D01*
X6413Y166643D01*
X6794Y166072D01*
Y164382D01*
X6413Y163811D01*
X6217Y162826D01*
Y158826D01*
X6413Y157841D01*
X6970Y157006D01*
X7805Y156448D01*
X8790Y156253D01*
X11790D01*
X12775Y156448D01*
X13610Y157006D01*
X14168Y157841D01*
X14363Y158826D01*
Y162826D01*
X14168Y163811D01*
X13786Y164382D01*
Y166013D01*
X14794Y166646D01*
X22023D01*
X22343Y166646D01*
X23293D01*
X23613Y166646D01*
X30842D01*
Y174758D01*
X30901Y174796D01*
X32112Y175037D01*
X32505Y174088D01*
X33648Y172945D01*
X35142Y172326D01*
X36758D01*
X38252Y172945D01*
X39395Y174088D01*
X40014Y175582D01*
Y177199D01*
X39395Y178692D01*
X38252Y179835D01*
X36881Y180403D01*
X35280Y182005D01*
X34146Y182763D01*
X32808Y183029D01*
X31492D01*
X31212Y183447D01*
X30377Y184005D01*
X29392Y184201D01*
D02*
G37*
G36*
X68300Y179180D02*
X51252D01*
Y175907D01*
X48764D01*
X47872Y175729D01*
X47116Y175224D01*
X15408Y143517D01*
X14158D01*
X12664Y142898D01*
X11521Y141755D01*
X10902Y140261D01*
Y138645D01*
X11521Y137151D01*
X12664Y136008D01*
X14158Y135389D01*
X15775D01*
X17268Y136008D01*
X18412Y137151D01*
X19030Y138645D01*
Y140261D01*
X18947Y140463D01*
X49729Y171245D01*
X51252D01*
Y168132D01*
X68300D01*
Y179180D01*
D02*
G37*
G36*
X-2886Y178557D02*
X-4502D01*
X-5996Y177938D01*
X-7139Y176795D01*
X-7758Y175301D01*
Y173685D01*
X-7139Y172191D01*
X-5996Y171048D01*
X-5276Y170750D01*
X-3783Y169257D01*
Y167628D01*
X-3587Y166643D01*
X-3030Y165808D01*
X-2195Y165250D01*
X-1210Y165054D01*
X1790D01*
X2775Y165250D01*
X3610Y165808D01*
X4168Y166643D01*
X4364Y167628D01*
Y171628D01*
X4168Y172612D01*
X3610Y173447D01*
X2775Y174005D01*
X1790Y174201D01*
X1161D01*
X370Y174992D01*
Y175301D01*
X-249Y176795D01*
X-1392Y177938D01*
X-2886Y178557D01*
D02*
G37*
G36*
X68000Y166430D02*
X50952D01*
Y163157D01*
X48464D01*
X47572Y162979D01*
X46816Y162474D01*
X28272Y143930D01*
X28148Y143982D01*
X26531D01*
X25037Y143363D01*
X23894Y142220D01*
X23275Y140726D01*
Y139109D01*
X23894Y137616D01*
X25037Y136472D01*
X26531Y135854D01*
X28148D01*
X29642Y136472D01*
X30051Y136882D01*
X31074Y136249D01*
X31145Y136180D01*
Y134588D01*
X31764Y133094D01*
X32907Y131951D01*
X34401Y131332D01*
X35984D01*
X36113Y131206D01*
X36813Y130287D01*
X36207Y129380D01*
X35991Y128294D01*
X35971Y128246D01*
Y128195D01*
X35892Y127794D01*
Y127438D01*
X35971Y127037D01*
Y126629D01*
X36127Y126252D01*
X36207Y125852D01*
X36434Y125513D01*
X36590Y125135D01*
X36878Y124847D01*
X37105Y124508D01*
X37445Y124281D01*
X37733Y123992D01*
X38110Y123836D01*
X38449Y123609D01*
X38850Y123530D01*
X39227Y123374D01*
X39635D01*
X40035Y123294D01*
X40436Y123374D01*
X40844D01*
X41221Y123530D01*
X41621Y123609D01*
X41960Y123836D01*
X42337Y123992D01*
X42626Y124281D01*
X42965Y124508D01*
X43192Y124847D01*
X43481Y125135D01*
X43637Y125513D01*
X43683Y125582D01*
X44926Y126825D01*
X45513Y126942D01*
X46858Y127840D01*
X48810Y129792D01*
X58256D01*
X59058Y129952D01*
X68090D01*
Y135505D01*
X69360Y136353D01*
X69892Y136133D01*
X71508D01*
X73002Y136752D01*
X74145Y137895D01*
X74764Y139389D01*
Y141005D01*
X74145Y142499D01*
X73787Y142857D01*
X73276Y143947D01*
X73787Y144516D01*
X74401Y145130D01*
X75019Y146624D01*
Y148240D01*
X74401Y149734D01*
X73257Y150878D01*
X71764Y151496D01*
X70147D01*
X69360Y151170D01*
X68090Y151973D01*
Y153690D01*
X51042D01*
Y150417D01*
X48554D01*
X47662Y150239D01*
X46905Y149734D01*
X36452Y139280D01*
X36018Y139460D01*
X34401D01*
X32907Y138841D01*
X32497Y138432D01*
X31475Y139065D01*
X31404Y139134D01*
Y140470D01*
X49429Y158495D01*
X50952D01*
Y155382D01*
X68000D01*
Y166430D01*
D02*
G37*
G36*
X1121Y154461D02*
X-496D01*
X-1989Y153842D01*
X-3133Y152699D01*
X-3751Y151205D01*
Y149588D01*
X-3133Y148095D01*
X-1989Y146952D01*
X-496Y146333D01*
X1121D01*
X2615Y146952D01*
X3758Y148095D01*
X4377Y149588D01*
Y151205D01*
X3758Y152699D01*
X2615Y153842D01*
X1121Y154461D01*
D02*
G37*
G36*
X-44605Y143291D02*
X-46221D01*
X-47715Y142672D01*
X-48858Y141529D01*
X-48888Y141457D01*
X-51665D01*
X-51937Y141864D01*
X-52756Y142412D01*
X-53722Y142604D01*
X-55627D01*
X-56593Y142412D01*
X-57413Y141864D01*
X-57960Y141045D01*
X-58152Y140079D01*
Y138174D01*
X-57960Y137207D01*
X-57413Y136388D01*
X-57020Y136126D01*
Y135714D01*
X-56537Y134548D01*
X-55370Y134065D01*
X-54044D01*
X-52877Y134548D01*
X-52394Y135714D01*
Y136083D01*
X-51937Y136388D01*
X-51665Y136796D01*
X-48729D01*
X-47715Y135781D01*
X-46221Y135163D01*
X-44605D01*
X-43111Y135781D01*
X-41968Y136925D01*
X-41349Y138418D01*
Y140035D01*
X-41968Y141529D01*
X-43111Y142672D01*
X-44605Y143291D01*
D02*
G37*
G36*
X68000Y128310D02*
X50951D01*
Y125012D01*
X48439D01*
X47547Y124835D01*
X46791Y124330D01*
X38264Y115803D01*
X35006Y112545D01*
X35000Y112551D01*
X34320Y112269D01*
X33692Y112529D01*
X33672Y112508D01*
X29659Y116093D01*
X28719Y116947D01*
X28719Y116947D01*
X27140Y118003D01*
X24959Y118437D01*
X22779Y118003D01*
X20931Y116768D01*
X19696Y114920D01*
X19262Y112739D01*
X19696Y110559D01*
X20426Y109466D01*
X20426Y109466D01*
X20426Y109465D01*
X20931Y108711D01*
X21199Y108531D01*
X21206Y108539D01*
X29476Y101149D01*
X30146Y100520D01*
X30085Y99639D01*
X29719Y99386D01*
X28864Y99091D01*
X20859Y106245D01*
X19919Y107099D01*
X19919Y107099D01*
X18339Y108154D01*
X16159Y108588D01*
X13978Y108154D01*
X12907Y107438D01*
X12892Y107429D01*
X12892Y107429D01*
X12130Y106919D01*
X11950Y106651D01*
X11950Y106651D01*
X10895Y105071D01*
X10461Y102891D01*
X10895Y100710D01*
X11625Y99617D01*
X11625Y99617D01*
X11626Y99616D01*
X12130Y98862D01*
X12398Y98682D01*
X12405Y98690D01*
X15383Y96030D01*
X16239Y95226D01*
X16369Y94031D01*
X16292Y93843D01*
X16298Y93837D01*
X14720Y92259D01*
X14720Y92258D01*
X14719Y92258D01*
X1823Y79347D01*
X1525Y79545D01*
X540Y79741D01*
X-3460D01*
X-4444Y79545D01*
X-5279Y78988D01*
X-5431Y78760D01*
X-6900Y78822D01*
X-7088Y79103D01*
X-7922Y79661D01*
X-8907Y79856D01*
X-11907D01*
X-12892Y79661D01*
X-13727Y79103D01*
X-14285Y78268D01*
X-14481Y77283D01*
Y73283D01*
X-14285Y72298D01*
X-13727Y71463D01*
X-12892Y70905D01*
X-11907Y70710D01*
X-8907D01*
X-7922Y70905D01*
X-7088Y71463D01*
X-6651Y72116D01*
X-5617Y72335D01*
X-5279Y72348D01*
X-4444Y71790D01*
X-3460Y71594D01*
X540D01*
X1525Y71790D01*
X2360Y72348D01*
X2918Y73183D01*
X3114Y74168D01*
Y74736D01*
X3217Y74757D01*
X3664Y74846D01*
X3664Y74846D01*
X3665Y74846D01*
X4040Y75097D01*
X4420Y75351D01*
X4420Y75352D01*
X4421Y75352D01*
X18017Y88963D01*
X19594Y90540D01*
X19640Y90495D01*
X20875Y92343D01*
X21309Y94523D01*
X20875Y96704D01*
X20144Y97797D01*
X20144Y97797D01*
X20144Y97797D01*
X19640Y98552D01*
X19371Y98731D01*
X19364Y98724D01*
X16386Y101384D01*
X15531Y102188D01*
X15526Y102271D01*
X15895Y102828D01*
X17475Y103017D01*
X25951Y95443D01*
X25944Y95435D01*
X27524Y94379D01*
X29704Y93945D01*
X31885Y94379D01*
X32971Y95105D01*
X33733Y95614D01*
X33912Y95883D01*
X33912Y95883D01*
X34968Y97463D01*
X35402Y99643D01*
X34968Y101823D01*
X34238Y102916D01*
X33733Y103672D01*
X33465Y103851D01*
X33458Y103843D01*
X25187Y111233D01*
X24741Y111653D01*
X24788Y113119D01*
X25254Y113443D01*
X25587Y113442D01*
X25587Y113442D01*
X25628Y113444D01*
X30566Y109032D01*
X30559Y109024D01*
X32139Y107968D01*
X34320Y107534D01*
X36500Y107968D01*
X38348Y109203D01*
X38302Y109249D01*
X41561Y112507D01*
X49404Y120351D01*
X50951D01*
Y117262D01*
X68000D01*
Y128310D01*
D02*
G37*
G36*
X-39642Y122018D02*
X-41259D01*
X-42753Y121399D01*
X-43896Y120256D01*
X-44515Y118762D01*
Y117145D01*
X-43896Y115652D01*
X-43709Y115464D01*
X-44428Y114388D01*
X-44605Y114461D01*
X-46221D01*
X-47715Y113842D01*
X-48858Y112699D01*
X-49477Y111205D01*
Y109588D01*
X-48858Y108095D01*
X-47715Y106952D01*
X-46221Y106333D01*
X-44605D01*
X-43111Y106952D01*
X-41968Y108095D01*
X-41349Y109588D01*
Y111205D01*
X-41968Y112699D01*
X-42155Y112886D01*
X-41435Y113963D01*
X-41259Y113890D01*
X-39642D01*
X-38149Y114508D01*
X-37005Y115652D01*
X-36387Y117145D01*
Y118762D01*
X-37005Y120256D01*
X-38149Y121399D01*
X-39642Y122018D01*
D02*
G37*
G36*
X1233Y112546D02*
X-384D01*
X-1877Y111927D01*
X-3021Y110784D01*
X-3272Y110177D01*
X-4401D01*
X-5293Y110000D01*
X-5387Y109937D01*
X-8440D01*
X-9425Y109741D01*
X-10260Y109183D01*
X-10818Y108348D01*
X-11013Y107364D01*
Y104363D01*
X-10818Y103379D01*
X-10260Y102544D01*
X-9681Y102157D01*
Y96067D01*
X-9779Y96002D01*
X-10337Y95167D01*
X-10533Y94182D01*
Y90182D01*
X-10337Y89197D01*
X-9968Y88645D01*
X-10504Y88109D01*
X-11123Y86615D01*
Y84999D01*
X-10504Y83505D01*
X-9361Y82362D01*
X-7868Y81743D01*
X-6251D01*
X-4757Y82362D01*
X-3614Y83505D01*
X-2995Y84999D01*
Y86615D01*
X-3593Y88059D01*
X-3140Y88363D01*
X-2582Y89197D01*
X-2386Y90182D01*
Y94182D01*
X-2582Y95167D01*
X-3140Y96002D01*
X-3975Y96560D01*
X-4960Y96756D01*
X-5020D01*
Y101790D01*
X-4440D01*
X-3455Y101986D01*
X-2620Y102544D01*
X-2062Y103379D01*
X-1996Y103711D01*
X-708Y104552D01*
X-384Y104418D01*
X1233D01*
X2727Y105037D01*
X3870Y106180D01*
X4489Y107674D01*
Y109290D01*
X3870Y110784D01*
X2727Y111927D01*
X1233Y112546D01*
D02*
G37*
G36*
X126254Y110991D02*
X124637D01*
X123144Y110372D01*
X122000Y109229D01*
X121382Y107736D01*
Y106119D01*
X122000Y104625D01*
X123144Y103482D01*
X124637Y102863D01*
X126254D01*
X127748Y103482D01*
X128891Y104625D01*
X129510Y106119D01*
Y107736D01*
X128891Y109229D01*
X127748Y110372D01*
X126254Y110991D01*
D02*
G37*
G36*
X-43744Y103696D02*
X-46744D01*
X-47729Y103500D01*
X-48564Y102942D01*
X-49122Y102107D01*
X-49318Y101122D01*
Y97122D01*
X-49122Y96137D01*
X-48564Y95302D01*
X-48473Y95241D01*
X-48264Y93655D01*
X-48265Y93653D01*
X-48884Y92159D01*
Y90542D01*
X-48265Y89049D01*
X-47122Y87906D01*
X-45628Y87287D01*
X-44012D01*
X-43407Y87537D01*
X-43205Y87495D01*
X-42164Y86678D01*
Y84523D01*
X-43278Y83408D01*
X-43897Y81915D01*
Y80298D01*
X-43278Y78804D01*
X-44107Y77836D01*
X-44546Y77654D01*
X-44564Y77637D01*
X-46107Y77660D01*
X-46942Y78218D01*
X-47927Y78414D01*
X-51927D01*
X-52912Y78218D01*
X-53746Y77660D01*
X-54304Y76825D01*
X-54500Y75841D01*
Y72840D01*
X-54304Y71856D01*
X-53746Y71021D01*
X-52912Y70463D01*
X-51927Y70267D01*
X-47927D01*
X-46942Y70463D01*
X-46107Y71021D01*
X-44921Y71138D01*
X-44546Y70764D01*
X-43053Y70145D01*
X-41436D01*
X-39942Y70764D01*
X-38799Y71907D01*
X-38180Y73401D01*
Y74362D01*
X-36910Y74888D01*
X-13579Y51556D01*
X-12823Y51051D01*
X-11931Y50873D01*
X16778D01*
X17670Y51051D01*
X18426Y51556D01*
X30388Y63517D01*
X30893Y64274D01*
X31070Y65166D01*
Y82761D01*
X43234Y94925D01*
X51071D01*
Y91812D01*
X68119D01*
Y102860D01*
X51071D01*
Y99587D01*
X42269D01*
X41377Y99409D01*
X40621Y98904D01*
X27092Y85375D01*
X26586Y84619D01*
X26409Y83727D01*
Y66131D01*
X15813Y55535D01*
X-10965D01*
X-27455Y72025D01*
X-26960Y73192D01*
X-26881Y73246D01*
X-26061Y73084D01*
X-24441D01*
X-24285Y72298D01*
X-23727Y71463D01*
X-22892Y70905D01*
X-21907Y70710D01*
X-18907D01*
X-17922Y70905D01*
X-17088Y71463D01*
X-16530Y72298D01*
X-16334Y73283D01*
Y77283D01*
X-16530Y78268D01*
X-17088Y79103D01*
X-17922Y79661D01*
X-18907Y79856D01*
X-21907D01*
X-22892Y79661D01*
X-23565Y79211D01*
X-24244Y79395D01*
X-24835Y79730D01*
Y80410D01*
X-25454Y81904D01*
X-26597Y83047D01*
X-28091Y83666D01*
X-29707D01*
X-31201Y83047D01*
X-32344Y81904D01*
X-32963Y80410D01*
Y79329D01*
X-34233Y78803D01*
X-35769Y80338D01*
Y81915D01*
X-36388Y83408D01*
X-37502Y84523D01*
Y86104D01*
X-34934D01*
X-33949Y86300D01*
X-33114Y86858D01*
X-32720Y87449D01*
X-31708Y87794D01*
X-31232Y87844D01*
X-29887Y87287D01*
X-28270D01*
X-26776Y87906D01*
X-25633Y89049D01*
X-25015Y90542D01*
Y92159D01*
X-25633Y93653D01*
X-25815Y93835D01*
X-25840Y94151D01*
X-25543Y95358D01*
X-25079Y95668D01*
X-24521Y96503D01*
X-24326Y97488D01*
Y100488D01*
X-24521Y101472D01*
X-25079Y102307D01*
X-25914Y102865D01*
X-26899Y103061D01*
X-30899D01*
X-31884Y102865D01*
X-32719Y102307D01*
X-33277Y101472D01*
X-33472Y100488D01*
Y97488D01*
X-33277Y96503D01*
X-32719Y95668D01*
X-32887Y94389D01*
X-33471Y93871D01*
X-33779Y93942D01*
X-33949Y94055D01*
X-34934Y94251D01*
X-38934D01*
X-39919Y94055D01*
X-40113Y93926D01*
X-40528Y93836D01*
X-41280Y94322D01*
X-41583Y95814D01*
X-41367Y96137D01*
X-41171Y97122D01*
Y101122D01*
X-41367Y102107D01*
X-41925Y102942D01*
X-42760Y103500D01*
X-43744Y103696D01*
D02*
G37*
G36*
X540660Y88864D02*
X539043D01*
X537549Y88245D01*
X536406Y87102D01*
X535787Y85608D01*
X535428Y85368D01*
X534608Y85707D01*
X532992D01*
X531498Y85089D01*
X530355Y83945D01*
X529736Y82452D01*
Y80835D01*
X530355Y79341D01*
X531498Y78198D01*
X532992Y77579D01*
X534608D01*
X536102Y78198D01*
X537245Y79341D01*
X537864Y80835D01*
X538224Y81075D01*
X539043Y80736D01*
X540660D01*
X542153Y81355D01*
X543297Y82498D01*
X543915Y83992D01*
Y85608D01*
X543297Y87102D01*
X542153Y88245D01*
X540660Y88864D01*
D02*
G37*
G36*
X126254Y92067D02*
X124637D01*
X123144Y91448D01*
X122000Y90305D01*
X121382Y88811D01*
Y87194D01*
X122000Y85701D01*
X123144Y84558D01*
X124637Y83939D01*
X126254D01*
X127748Y84558D01*
X128891Y85701D01*
X129510Y87194D01*
Y88811D01*
X128891Y90305D01*
X127748Y91448D01*
X126254Y92067D01*
D02*
G37*
G36*
X68219Y90150D02*
X51171D01*
Y86877D01*
X48683D01*
X47792Y86699D01*
X47035Y86194D01*
X40643Y79802D01*
X39067D01*
X37573Y79183D01*
X36430Y78040D01*
X35812Y76547D01*
Y74930D01*
X36430Y73436D01*
X37573Y72293D01*
X39067Y71674D01*
X40684D01*
X42178Y72293D01*
X43321Y73436D01*
X43939Y74930D01*
Y76506D01*
X49649Y82215D01*
X51171D01*
Y79102D01*
X68219D01*
Y90150D01*
D02*
G37*
G36*
X68101Y76272D02*
X51053D01*
Y73258D01*
X49932D01*
X48941Y73060D01*
X48100Y72499D01*
X41554Y65953D01*
X40993Y65113D01*
X40796Y64122D01*
Y56505D01*
X40638Y56473D01*
X39804Y55915D01*
X39246Y55081D01*
X39050Y54096D01*
Y51096D01*
X39246Y50111D01*
X39804Y49276D01*
X40638Y48718D01*
X41623Y48522D01*
X45623D01*
X46608Y48718D01*
X47443Y49276D01*
X48001Y50111D01*
X48197Y51096D01*
Y54096D01*
X48001Y55081D01*
X47443Y55915D01*
X46608Y56473D01*
X45975Y56599D01*
Y63049D01*
X49783Y66857D01*
X51053Y66330D01*
Y65224D01*
X68101D01*
Y76272D01*
D02*
G37*
G36*
X45623Y46669D02*
X41623D01*
X40638Y46473D01*
X39804Y45916D01*
X39246Y45081D01*
X39050Y44096D01*
Y41989D01*
X-3023D01*
X-4138Y43103D01*
X-5631Y43722D01*
X-7248D01*
X-8742Y43103D01*
X-9885Y41960D01*
X-10504Y40466D01*
Y38849D01*
X-9885Y37356D01*
X-8742Y36213D01*
X-7248Y35594D01*
X-5631D01*
X-4138Y36213D01*
X-3023Y37327D01*
X40493D01*
X41384Y37504D01*
X42141Y38010D01*
X42653Y38522D01*
X45623D01*
X46608Y38718D01*
X47443Y39276D01*
X48001Y40111D01*
X48197Y41096D01*
Y44096D01*
X48001Y45081D01*
X47443Y45916D01*
X46608Y46473D01*
X45623Y46669D01*
D02*
G37*
G36*
X-49435Y50771D02*
X-51374D01*
X-53166Y50029D01*
X-54537Y48658D01*
X-55279Y46866D01*
Y44927D01*
X-54537Y43136D01*
X-53166Y41765D01*
X-51374Y41023D01*
X-49435D01*
X-47644Y41765D01*
X-46273Y43136D01*
X-45531Y44927D01*
Y46866D01*
X-46273Y48658D01*
X-47644Y50029D01*
X-49435Y50771D01*
D02*
G37*
G36*
X298814Y49001D02*
X297197D01*
X295703Y48383D01*
X294560Y47239D01*
X293941Y45746D01*
Y44129D01*
X294560Y42635D01*
X295703Y41492D01*
X297197Y40873D01*
X298814D01*
X300307Y41492D01*
X301451Y42635D01*
X302069Y44129D01*
Y45746D01*
X301451Y47239D01*
X300307Y48383D01*
X298814Y49001D01*
D02*
G37*
G36*
X250682Y47925D02*
X247682D01*
X246697Y47729D01*
X245863Y47172D01*
X245305Y46337D01*
X245109Y45352D01*
Y41352D01*
X245305Y40367D01*
X245863Y39532D01*
X246697Y38974D01*
X247682Y38778D01*
X250682D01*
X251667Y38974D01*
X252502Y39532D01*
X253008Y40289D01*
X258266D01*
X259076Y39479D01*
X260570Y38860D01*
X262187D01*
X263680Y39479D01*
X264824Y40622D01*
X265442Y42116D01*
Y43733D01*
X264824Y45227D01*
X263680Y46370D01*
X262187Y46989D01*
X260570D01*
X259076Y46370D01*
X258693Y45987D01*
X253129D01*
X253060Y46337D01*
X252502Y47172D01*
X251667Y47729D01*
X250682Y47925D01*
D02*
G37*
G36*
X311088Y46151D02*
X309471D01*
X307977Y45532D01*
X306834Y44389D01*
X306215Y42895D01*
Y41278D01*
X306834Y39785D01*
X307977Y38641D01*
X309471Y38023D01*
X311088D01*
X312581Y38641D01*
X313725Y39785D01*
X314343Y41278D01*
Y42895D01*
X313725Y44389D01*
X312581Y45532D01*
X311088Y46151D01*
D02*
G37*
G36*
X-51580Y31594D02*
X-53197D01*
X-54691Y30975D01*
X-55834Y29832D01*
X-56453Y28338D01*
Y26721D01*
X-55834Y25228D01*
X-54691Y24084D01*
X-53197Y23466D01*
X-51580D01*
X-50087Y24084D01*
X-48943Y25228D01*
X-48325Y26721D01*
Y28338D01*
X-48943Y29832D01*
X-50087Y30975D01*
X-51580Y31594D01*
D02*
G37*
G36*
X29502Y17884D02*
X28701D01*
X27916Y17728D01*
X27177Y17421D01*
X26511Y16977D01*
X25945Y16411D01*
X25500Y15745D01*
X25194Y15005D01*
X25158Y14827D01*
X25122Y14831D01*
X25038Y14628D01*
Y13012D01*
X25122Y12809D01*
X25158Y12813D01*
X25194Y12635D01*
X25500Y11895D01*
X25945Y11229D01*
X26511Y10663D01*
X27177Y10218D01*
X27916Y9912D01*
X28701Y9756D01*
X29502D01*
X30287Y9912D01*
X31027Y10218D01*
X31692Y10663D01*
X32259Y11229D01*
X32703Y11895D01*
X33010Y12635D01*
X33166Y13420D01*
Y14220D01*
X33010Y15005D01*
X32703Y15745D01*
X32259Y16411D01*
X31692Y16977D01*
X31027Y17421D01*
X30287Y17728D01*
X29502Y17884D01*
D02*
G37*
G36*
X127290Y21253D02*
X125673D01*
X124179Y20634D01*
X123036Y19491D01*
X122417Y17997D01*
Y16381D01*
X123036Y14887D01*
X124179Y13744D01*
X125673Y13125D01*
X127290D01*
X128783Y13744D01*
X129927Y14887D01*
X130545Y16381D01*
Y17997D01*
X129927Y19491D01*
X128783Y20634D01*
X127290Y21253D01*
D02*
G37*
G36*
X81496Y104503D02*
X79879D01*
X78385Y103884D01*
X77242Y102741D01*
X76624Y101247D01*
Y99630D01*
X77242Y98137D01*
X78385Y96994D01*
X79879Y96375D01*
X81496D01*
X82990Y96994D01*
X83586Y97590D01*
X95226D01*
X164162Y28654D01*
Y16495D01*
X162487D01*
Y5447D01*
X171535D01*
Y16495D01*
X169859D01*
Y29834D01*
X169859Y29834D01*
X169643Y30924D01*
X169025Y31849D01*
X169025Y31849D01*
X98420Y102453D01*
X97496Y103071D01*
X96406Y103288D01*
X96406Y103288D01*
X83586D01*
X82990Y103884D01*
X81496Y104503D01*
D02*
G37*
G36*
X386295Y10632D02*
X357182D01*
X356290Y10454D01*
X355534Y9949D01*
X350851Y5265D01*
X348074D01*
X347089Y5070D01*
X346254Y4512D01*
X345696Y3677D01*
X345500Y2692D01*
Y-1308D01*
X345696Y-2293D01*
X346254Y-3128D01*
X347089Y-3686D01*
X347456Y-3758D01*
Y-6109D01*
X347287Y-6143D01*
X346576Y-6618D01*
X346101Y-7329D01*
X345934Y-8167D01*
Y-16917D01*
X346101Y-17756D01*
X346576Y-18467D01*
X347287Y-18942D01*
X348125Y-19109D01*
X351875D01*
X352714Y-18942D01*
X353424Y-18467D01*
X353899Y-17756D01*
X354066Y-16917D01*
Y-8167D01*
X353899Y-7329D01*
X353424Y-6618D01*
X352714Y-6143D01*
X352118Y-6025D01*
Y-3646D01*
X352893Y-3128D01*
X353451Y-2293D01*
X353647Y-1308D01*
Y1469D01*
X358148Y5970D01*
X385330D01*
X395877Y-4577D01*
Y-6152D01*
X396073Y-7137D01*
X396631Y-7972D01*
X397466Y-8529D01*
X398451Y-8725D01*
X402451D01*
X403436Y-8529D01*
X404271Y-7972D01*
X404533Y-7580D01*
X404553Y-7571D01*
X405923D01*
X405944Y-7580D01*
X406206Y-7972D01*
X407041Y-8529D01*
X408025Y-8725D01*
X412025D01*
X413010Y-8529D01*
X413845Y-7972D01*
X414403Y-7137D01*
X414599Y-6152D01*
Y-3152D01*
X414403Y-2167D01*
X413845Y-1332D01*
X413010Y-774D01*
X412025Y-578D01*
X408025D01*
X407041Y-774D01*
X406206Y-1332D01*
X405944Y-1724D01*
X405923Y-1733D01*
X404553D01*
X404533Y-1724D01*
X404271Y-1332D01*
X403436Y-774D01*
X402451Y-578D01*
X398471D01*
X387943Y9949D01*
X387187Y10454D01*
X386295Y10632D01*
D02*
G37*
G36*
X459388Y-7224D02*
X457012D01*
X454717Y-7839D01*
X452659Y-9028D01*
X450979Y-10708D01*
X449790Y-12766D01*
X449175Y-15061D01*
Y-17437D01*
X449790Y-19732D01*
X450172Y-20393D01*
X446590Y-23975D01*
X444961D01*
X443976Y-24171D01*
X443141Y-24729D01*
X442583Y-25563D01*
X442387Y-26548D01*
Y-29548D01*
X442583Y-30533D01*
X443141Y-31368D01*
X443976Y-31926D01*
X444961Y-32122D01*
X448960D01*
X449945Y-31926D01*
X450780Y-31368D01*
X451338Y-30533D01*
X451534Y-29548D01*
Y-28919D01*
X455567Y-24886D01*
X457012Y-25274D01*
X459388D01*
X461684Y-24659D01*
X463741Y-23470D01*
X465422Y-21790D01*
X466610Y-19732D01*
X467225Y-17437D01*
Y-15061D01*
X466610Y-12766D01*
X465422Y-10708D01*
X463741Y-9028D01*
X461684Y-7839D01*
X459388Y-7224D01*
D02*
G37*
G36*
X162446Y-17272D02*
X160829D01*
X159335Y-17891D01*
X158192Y-19034D01*
X157649Y-20344D01*
X156110Y-21884D01*
X153565D01*
X152580Y-22080D01*
X151745Y-22638D01*
X151187Y-23473D01*
X150991Y-24457D01*
Y-27457D01*
X151187Y-28442D01*
X151745Y-29277D01*
X152580Y-29835D01*
X153565Y-30031D01*
X157565D01*
X158550Y-29835D01*
X159384Y-29277D01*
X159942Y-28442D01*
X160138Y-27457D01*
Y-26442D01*
X160829Y-25400D01*
X162446D01*
X163939Y-24781D01*
X165083Y-23638D01*
X165701Y-22144D01*
Y-20528D01*
X165083Y-19034D01*
X163939Y-17891D01*
X162446Y-17272D01*
D02*
G37*
%LPD*%
G36*
X167791Y292911D02*
Y287279D01*
X166910Y286398D01*
X166291Y284904D01*
Y283287D01*
X166910Y281794D01*
X168053Y280650D01*
X169547Y280032D01*
X171163D01*
X172657Y280650D01*
X173800Y281794D01*
X174419Y283287D01*
Y284904D01*
X174327Y285126D01*
X174889Y285707D01*
X175352Y285971D01*
X176697Y285414D01*
X177907D01*
X183859Y279462D01*
Y276551D01*
X183999Y275848D01*
X183496Y274929D01*
X183188Y274578D01*
X161207D01*
X153143Y282642D01*
X153669Y283913D01*
X154316D01*
X155809Y284531D01*
X156952Y285674D01*
X157571Y287168D01*
Y288785D01*
X156952Y290279D01*
X155809Y291422D01*
X154316Y292041D01*
X153106D01*
X149199Y295947D01*
X148359Y296508D01*
X147368Y296706D01*
X137341D01*
X132335Y301711D01*
X132861Y302981D01*
X135615D01*
X136599Y303177D01*
X137434Y303735D01*
X137992Y304570D01*
X138023Y304724D01*
X155979D01*
X167791Y292911D01*
D02*
G37*
G36*
X121051Y265182D02*
X121751Y264240D01*
X121751D01*
X121751Y264240D01*
Y248100D01*
X121751Y247192D01*
X120631Y246830D01*
X112733D01*
X111629Y247232D01*
X111629Y248100D01*
Y264280D01*
X108586D01*
Y266850D01*
X108409Y267742D01*
X107904Y268498D01*
X102335Y274067D01*
X101579Y274572D01*
X100687Y274749D01*
X81725D01*
X80853Y274576D01*
X80757Y274649D01*
X79922Y275491D01*
X80409Y276666D01*
Y278283D01*
X80372Y278373D01*
X82448Y280449D01*
X105784D01*
X121051Y265182D01*
D02*
G37*
G36*
X103925Y265885D02*
Y264280D01*
X100582D01*
Y248100D01*
X100581Y247232D01*
X99478Y246830D01*
X97767D01*
X96618Y247122D01*
Y264170D01*
X85570D01*
Y262593D01*
X79347D01*
X78916Y263863D01*
X79755Y264702D01*
X80374Y266195D01*
Y267771D01*
X82690Y270088D01*
X99722D01*
X103925Y265885D01*
D02*
G37*
G36*
X154640Y264180D02*
Y247132D01*
X157984D01*
Y241924D01*
X153136Y237077D01*
X81085D01*
X80237Y238347D01*
X80409Y238763D01*
Y240310D01*
X82267Y242169D01*
X141220D01*
X142112Y242346D01*
X142868Y242851D01*
X145294Y245277D01*
X145799Y246033D01*
X145976Y246925D01*
Y247132D01*
X149019D01*
Y264180D01*
X150088Y264667D01*
X153572D01*
X154640Y264180D01*
D02*
G37*
G36*
X172391D02*
Y247132D01*
X175175D01*
Y245465D01*
X161960Y232251D01*
X156699D01*
X156173Y233521D01*
X161963Y239310D01*
X162468Y240066D01*
X162645Y240958D01*
Y247132D01*
X165688D01*
Y264180D01*
X166757Y264667D01*
X171323D01*
X172391Y264180D01*
D02*
G37*
%LPC*%
G36*
X-50405Y214866D02*
X-52307Y214488D01*
X-53919Y213411D01*
X-54996Y211798D01*
X-55374Y209897D01*
X-54996Y207995D01*
X-53919Y206383D01*
X-52307Y205306D01*
X-50405Y204927D01*
X-48503Y205306D01*
X-46891Y206383D01*
X-45814Y207995D01*
X-45435Y209897D01*
X-45814Y211798D01*
X-46891Y213411D01*
X-48503Y214488D01*
X-50405Y214866D01*
D02*
G37*
%LPD*%
D18*
X167011Y10971D02*
D03*
X150011D02*
D03*
D19*
X143495Y255656D02*
D03*
X177915D02*
D03*
X106105Y255756D02*
D03*
X127275Y255716D02*
D03*
X160164Y255656D02*
D03*
X91094Y255646D02*
D03*
X124915Y49556D02*
D03*
X219375Y255666D02*
D03*
X597155Y210196D02*
D03*
X219625Y49876D02*
D03*
D20*
X59595Y97336D02*
D03*
X59695Y84626D02*
D03*
X59776Y173656D02*
D03*
X59475Y160906D02*
D03*
X59566Y148166D02*
D03*
X59566Y135476D02*
D03*
X59475Y122786D02*
D03*
X59577Y70748D02*
D03*
X59285Y212616D02*
D03*
X59627Y57468D02*
D03*
X59775Y192446D02*
D03*
X59776Y110036D02*
D03*
D21*
X49200Y-47543D02*
D03*
X78200D02*
D03*
Y-7543D02*
D03*
X49200D02*
D03*
D24*
X177505Y303114D02*
D03*
X192505D02*
D03*
X327505D02*
D03*
X312505D02*
D03*
X288505D02*
D03*
X273505D02*
D03*
X253700D02*
D03*
X238700D02*
D03*
D25*
X18569Y171169D02*
D03*
X27067D02*
D03*
D26*
X350000Y-36542D02*
D03*
X359500D02*
D03*
X369000D02*
D03*
X350000Y-12542D02*
D03*
X359500D02*
D03*
X369000D02*
D03*
X226510Y-38174D02*
D03*
X236010D02*
D03*
X245510D02*
D03*
X226510Y-14174D02*
D03*
X236010D02*
D03*
X245510D02*
D03*
D28*
X187933Y278551D02*
D03*
X197933D02*
D03*
X-45244Y99122D02*
D03*
X-55244D02*
D03*
X-6460Y92182D02*
D03*
X3540D02*
D03*
X134890Y-2122D02*
D03*
X124890D02*
D03*
X154890D02*
D03*
X164890D02*
D03*
X132310Y-32731D02*
D03*
X122310D02*
D03*
X132015Y-22284D02*
D03*
X122015D02*
D03*
X229182Y-2531D02*
D03*
X239182D02*
D03*
X427382Y-42758D02*
D03*
X437381D02*
D03*
X293000Y1858D02*
D03*
X283000D02*
D03*
X387800Y-12102D02*
D03*
X377800D02*
D03*
X239182Y7219D02*
D03*
X229182D02*
D03*
X261185Y2430D02*
D03*
X251185D02*
D03*
X329400Y-23968D02*
D03*
X319400D02*
D03*
X290Y169628D02*
D03*
X10290D02*
D03*
X290Y160826D02*
D03*
X10290D02*
D03*
X349574Y692D02*
D03*
X359574D02*
D03*
X-20407Y75283D02*
D03*
X-10407D02*
D03*
X187933Y287978D02*
D03*
X197933D02*
D03*
X308780Y266769D02*
D03*
X242469Y290054D02*
D03*
X252469D02*
D03*
X277723D02*
D03*
X287723D02*
D03*
X338850Y284588D02*
D03*
X328850D02*
D03*
X318780Y266769D02*
D03*
X249182Y43352D02*
D03*
X239182D02*
D03*
D29*
X55265Y305068D02*
D03*
X50264Y292068D02*
D03*
X60266D02*
D03*
X212351Y13167D02*
D03*
X217352Y26167D02*
D03*
X207350D02*
D03*
X219232Y278551D02*
D03*
X209230D02*
D03*
X214231Y291550D02*
D03*
X242467Y267809D02*
D03*
X274286D02*
D03*
X247469Y280808D02*
D03*
X252470Y267809D02*
D03*
X279287Y280808D02*
D03*
X284288Y267809D02*
D03*
D30*
X-36934Y90178D02*
D03*
Y100178D02*
D03*
X-1460Y75668D02*
D03*
Y65668D02*
D03*
X-49927Y74341D02*
D03*
Y64341D02*
D03*
X-28899Y98988D02*
D03*
Y108988D02*
D03*
X449724Y283648D02*
D03*
Y293648D02*
D03*
X43623Y52596D02*
D03*
Y42596D02*
D03*
X155565Y-25957D02*
D03*
Y-35957D02*
D03*
X-6440Y105864D02*
D03*
Y115863D02*
D03*
X215852Y-33174D02*
D03*
Y-43174D02*
D03*
X207800D02*
D03*
Y-33174D02*
D03*
X220676Y-2570D02*
D03*
Y7430D02*
D03*
X400451Y-14652D02*
D03*
Y-4652D02*
D03*
X410025Y-14652D02*
D03*
Y-4652D02*
D03*
X339090Y-38542D02*
D03*
Y-28542D02*
D03*
X27392Y180128D02*
D03*
Y190128D02*
D03*
X133615Y307055D02*
D03*
Y317055D02*
D03*
X347650Y296338D02*
D03*
Y286338D02*
D03*
X446960Y-28048D02*
D03*
Y-38048D02*
D03*
D31*
X319005Y287873D02*
D03*
Y277870D02*
D03*
X306005Y282871D02*
D03*
D33*
X125317Y305068D02*
X136268Y294116D01*
X55265Y305068D02*
X125317D01*
X226510Y37114D02*
X233231Y43835D01*
X194757Y24171D02*
X207700Y37114D01*
X226510D01*
X194757Y6609D02*
Y24171D01*
X136268Y294116D02*
X147368D01*
X153507Y287976D01*
X43385Y52878D02*
Y64122D01*
X49932Y70668D01*
X59727D01*
X233231Y43835D02*
X238699D01*
X239182Y43352D01*
X177505Y289478D02*
Y303114D01*
X187933Y278551D02*
Y279051D01*
X177505Y289478D02*
X187933Y279051D01*
X143645Y288478D02*
X160135Y271988D01*
X191370D01*
X195949Y276567D02*
X196449D01*
X191370Y271988D02*
X195949Y276567D01*
X197933Y278051D02*
Y278551D01*
X196449Y276567D02*
X197933Y278051D01*
X202147Y270969D02*
X209230Y278051D01*
X197249Y270386D02*
X197832Y270969D01*
X209230Y278051D02*
Y278551D01*
X197832Y270969D02*
X202147D01*
X306796Y264785D02*
X307296D01*
X296055Y262197D02*
X304208D01*
X308780Y266269D02*
Y266769D01*
X307296Y264785D02*
X308780Y266269D01*
X304208Y262197D02*
X306796Y264785D01*
D58*
X32119Y110770D02*
G03*
X36654Y110897I2200J2462D01*
G01*
X27159Y115202D02*
G03*
X22759Y110277I-2200J-2462D01*
G01*
X32167Y97443D02*
G03*
X31904Y102105I-2462J2200D01*
G01*
X27504Y97181D02*
G03*
X32167Y97443I2200J2462D01*
G01*
X18359Y105353D02*
G03*
X13696Y105091I-2200J-2462D01*
G01*
X13696Y105091D02*
G03*
X13958Y100428I2462J-2200D01*
G01*
X17946Y92189D02*
G03*
X17811Y96986I-2335J2335D01*
G01*
X-29419Y36798D02*
Y45445D01*
X-23691Y35380D02*
Y40619D01*
Y35380D02*
X-18643Y30333D01*
X-29419Y36798D02*
X-19906Y27285D01*
X131231D01*
X-18643Y30333D02*
X132494D01*
X153471Y-3541D02*
X154890Y-2122D01*
X144832Y-17573D02*
X149110Y-13295D01*
X147144Y6271D02*
X154889Y-1475D01*
X149110Y-13295D02*
X149189D01*
X154889Y-2122D02*
Y-1475D01*
X155334Y-12397D02*
X155778Y-12841D01*
X155334Y-12397D02*
Y-2566D01*
X128569Y-13477D02*
X131193Y-16100D01*
Y-22153D02*
Y-16100D01*
X128569Y-13477D02*
Y-12514D01*
X131231Y27285D02*
X143428Y15089D01*
X132494Y30333D02*
X147144Y15683D01*
X106749Y282780D02*
X127903Y261627D01*
X76345Y277642D02*
X81483Y282780D01*
X81725Y272419D02*
X100687D01*
X76345Y277475D02*
Y277642D01*
X76310Y267004D02*
X81725Y272419D01*
X81483Y282780D02*
X106749D01*
X100687Y272419D02*
X106256Y266850D01*
X72637Y289991D02*
X118738D01*
X141731Y266998D01*
X48090Y270088D02*
X50262Y272260D01*
Y292069D01*
X40328Y266877D02*
Y288987D01*
X106256Y255676D02*
Y266850D01*
X371262Y-2472D02*
Y3254D01*
Y-2472D02*
X371482Y-2692D01*
X371288Y-2886D02*
X371482Y-2692D01*
X366656Y-2886D02*
X371288D01*
X73343Y251124D02*
X73949D01*
X66719Y244499D02*
X73343Y251124D01*
X147144Y6271D02*
Y15683D01*
X143428Y6497D02*
Y15089D01*
X-28989Y98898D02*
X-28899Y98988D01*
X-28989Y91441D02*
Y98898D01*
X-29079Y91351D02*
X-28989Y91441D01*
X-44824Y91355D02*
Y98654D01*
Y91355D02*
X-44820Y91351D01*
X136573Y-357D02*
X143428Y6497D01*
X135181Y-12910D02*
X139844Y-17573D01*
X144832D01*
X135846Y-11283D02*
Y-710D01*
X36654Y110897D02*
X39912Y114155D01*
X32119Y110770D02*
X32119Y110770D01*
X27159Y115202D02*
X32119Y110770D01*
X22759Y110277D02*
X22759Y110277D01*
X31904Y102105D01*
X32167Y97443D02*
X32167D01*
X27504Y97181D02*
X27504Y97181D01*
X18359Y105353D02*
X27504Y97181D01*
X13696Y105091D02*
X13696Y105091D01*
X13958Y100428D02*
X13958Y100428D01*
X17811Y96986D01*
X16368Y90611D02*
X17946Y92189D01*
X2772Y76999D02*
X16368Y90611D01*
X39912Y114155D02*
X48439Y122682D01*
X-128Y76999D02*
X2772D01*
X-1460Y75668D02*
X-128Y76999D01*
X-28219Y77572D02*
X-26061Y75414D01*
X-20538D02*
X-20407Y75283D01*
X-26061Y75414D02*
X-20538D01*
X-4401Y107846D02*
X-211D01*
X425Y108482D01*
X224590Y19667D02*
X225745Y20822D01*
X207700Y19667D02*
X224590D01*
X225745Y20822D02*
X226501D01*
X203227Y15193D02*
X207700Y19667D01*
X203227Y6609D02*
Y15193D01*
X226130Y26167D02*
X226510Y26547D01*
X217352Y26167D02*
X226130D01*
X212351Y-12729D02*
X224690Y-25067D01*
X212351Y-12729D02*
Y13167D01*
X-45513Y139126D02*
X-45413Y139227D01*
X-54675Y139126D02*
X-45513D01*
X-6440Y39658D02*
X40493D01*
X41385Y40729D02*
X43252Y42596D01*
X43623D01*
X41385Y40551D02*
Y40729D01*
X40493Y39658D02*
X41385Y40551D01*
X-7059Y85807D02*
X-6759Y86107D01*
Y91591D01*
X-7351Y92182D02*
Y104897D01*
Y92182D02*
X-6759Y91591D01*
X-7351Y104897D02*
X-4401Y107846D01*
X-39833Y81106D02*
Y87279D01*
X-39025Y88458D02*
X-37305Y90178D01*
X-39833Y87279D02*
X-39025Y88087D01*
X-37305Y90178D02*
X-36934D01*
X-39025Y88087D02*
Y88458D01*
X-48207Y74209D02*
X-42244D01*
X215852Y-33174D02*
X224546D01*
X224772Y-36436D02*
Y-33400D01*
X224546Y-33174D02*
X224772Y-33400D01*
Y-36436D02*
X226510Y-38174D01*
X224546Y-33174D02*
Y-25210D01*
X224690Y-25067D01*
X207800Y-33174D02*
X215852D01*
X36840Y292475D02*
X40328Y288987D01*
X156944Y307055D02*
X170122Y293877D01*
Y284329D02*
Y293877D01*
Y284329D02*
X170355Y284096D01*
X-5126Y155885D02*
X-4280D01*
X290Y160455D01*
Y160826D01*
X197933Y278551D02*
Y287978D01*
X359537Y-10006D02*
X366656Y-2886D01*
X362881Y-22803D02*
X371041D01*
X359500Y-19422D02*
X362881Y-22803D01*
X141220Y244499D02*
X143645Y246925D01*
Y255576D01*
X81302Y244499D02*
X141220D01*
X177505Y255016D02*
X178065Y255576D01*
X177505Y244499D02*
Y255016D01*
X160314Y240958D02*
Y255576D01*
X162926Y229920D02*
X177505Y244499D01*
X71443Y234746D02*
X154102D01*
X76345Y229920D02*
X162926D01*
X154102Y234746D02*
X160314Y240958D01*
X127903Y254074D02*
Y261627D01*
X141731Y266998D02*
X175316D01*
X178065Y255576D02*
Y264248D01*
X175316Y266998D02*
X178065Y264248D01*
X76374Y239572D02*
X81302Y244499D01*
X76345Y239572D02*
X76374D01*
X48439Y122682D02*
X59845D01*
X341328Y-30420D02*
X343212Y-32304D01*
X341328Y-30420D02*
Y-30409D01*
X339461Y-28542D02*
X341328Y-30409D01*
X343212Y-32304D02*
X348262D01*
X330371Y-25310D02*
Y-25026D01*
X339142Y-28542D02*
X339461D01*
X333273Y-27928D02*
X339585D01*
X340200Y-39024D02*
X341310Y-40133D01*
X341791D02*
X343680Y-42022D01*
X340200Y-39024D02*
Y-38542D01*
X341310Y-40133D02*
X341791D01*
X343680Y-51880D02*
Y-42022D01*
X342505Y-53056D02*
X343680Y-51880D01*
X330371Y-25310D02*
X331120Y-26059D01*
X331404D02*
X333273Y-27928D01*
X331120Y-26059D02*
X331404D01*
X272547Y265571D02*
X274286Y267309D01*
X268928Y262451D02*
X272048Y265571D01*
X274286Y267309D02*
Y267809D01*
X272048Y265571D02*
X272547D01*
X264051Y262451D02*
X268928D01*
X240729Y265571D02*
X242467Y267309D01*
X237871Y263213D02*
X240230Y265571D01*
X242467Y267309D02*
Y267809D01*
X240230Y265571D02*
X240729D01*
X230269Y263213D02*
X237871D01*
X340374Y303114D02*
X347150Y296338D01*
X327505Y303114D02*
X340374D01*
X347150Y296338D02*
X347650D01*
X319762Y278627D02*
X323398D01*
X328384Y283612D01*
X318780Y277645D02*
X319762Y278627D01*
X319005Y287873D02*
Y296614D01*
X312505Y303114D02*
X319005Y296614D01*
X318780Y266769D02*
Y277645D01*
X293800Y267809D02*
X295093Y269101D01*
X296055D01*
X284288Y267809D02*
X293800D01*
X261542D02*
X263089Y269355D01*
X252470Y267809D02*
X261542D01*
X263089Y269355D02*
X264051D01*
X211157Y287978D02*
X214231Y291051D01*
X197933Y287978D02*
X211157D01*
X214231Y291051D02*
Y291550D01*
X227779Y278551D02*
X229307Y277022D01*
X219232Y278551D02*
X227779D01*
X229307Y277022D02*
X230269D01*
X133615Y307055D02*
X156944D01*
X16778Y53204D02*
X28740Y65166D01*
X-39833Y81106D02*
X-11931Y53204D01*
X16778D01*
X28740Y65166D02*
Y83727D01*
X14966Y139453D02*
Y139779D01*
X48764Y173576D01*
X-49927Y75929D02*
Y76021D01*
Y75929D02*
X-48207Y74209D01*
X27555Y139918D02*
X48464Y160826D01*
X59626D01*
X27339Y139918D02*
X27555D01*
X35864Y135396D02*
X48554Y148086D01*
X35209Y135396D02*
X35864D01*
X48764Y173576D02*
X59926D01*
X133901Y-31140D02*
Y-29820D01*
X139484Y-24237D02*
Y-23558D01*
X132310Y-32731D02*
X133901Y-31140D01*
Y-29820D02*
X139484Y-24237D01*
X42269Y97256D02*
X59745D01*
X28740Y83727D02*
X42269Y97256D01*
X-28219Y77572D02*
Y78921D01*
X-28899Y79602D02*
X-28219Y78921D01*
X39876Y75738D02*
X48683Y84546D01*
X59845D01*
X48554Y148086D02*
X59716D01*
X-2007Y75340D02*
X-1950Y75397D01*
X-10350Y75340D02*
X-2007D01*
X-10407Y75283D02*
X-10350Y75340D01*
X359500Y-19422D02*
Y-12542D01*
X359537Y-10006D02*
Y655D01*
Y-12506D02*
Y-10006D01*
X359500Y-12542D02*
X359537Y-12506D01*
Y655D02*
X359574Y692D01*
X350000Y-36542D02*
Y-34042D01*
X348262Y-32304D02*
X350000Y-34042D01*
X349787Y-12329D02*
Y479D01*
X349574Y692D02*
X349787Y479D01*
Y-12329D02*
X350000Y-12542D01*
X386295Y8301D02*
X399248Y-4652D01*
X349574Y692D02*
X357182Y8301D01*
X386295D01*
X399248Y-4652D02*
X400451D01*
X410025D01*
X400451Y-14652D02*
X410025D01*
X384100Y-40442D02*
X387800Y-36742D01*
Y-12102D01*
X369000Y-12542D02*
X376600D01*
X291600Y-23842D02*
X293000Y-22442D01*
Y1858D01*
X285380Y9978D02*
X293000Y2358D01*
Y1858D02*
Y2358D01*
X241940Y9978D02*
X285380D01*
X240902Y9310D02*
X241273D01*
X239182Y7219D02*
Y7590D01*
X240902Y9310D01*
X241273D02*
X241940Y9978D01*
X239182Y-2531D02*
Y7219D01*
X229182Y-2531D02*
Y7219D01*
X221051Y-2512D02*
X229163D01*
X229182Y-2531D01*
X221032Y-2493D02*
X221051Y-2512D01*
X226510Y-5831D02*
X229182Y-3160D01*
X226510Y-14174D02*
Y-5831D01*
X229182Y-3160D02*
Y-2531D01*
X236010Y-21460D02*
X238915Y-24365D01*
X236010Y-21460D02*
Y-14174D01*
X238915Y-24486D02*
Y-24365D01*
X207477Y-49844D02*
Y-43497D01*
X207800Y-43174D01*
X207154Y-50167D02*
X207477Y-49844D01*
X245510Y-14174D02*
Y-3745D01*
X251185Y1930D02*
Y2430D01*
X245510Y-3745D02*
X251185Y1930D01*
X66719Y239470D02*
Y244499D01*
Y239470D02*
X71443Y234746D01*
D59*
X-41862Y238022D02*
D03*
Y219022D02*
D03*
D60*
X-60208Y188960D02*
D03*
Y203960D02*
D03*
X358400Y-48542D02*
D03*
Y-63542D02*
D03*
X29598Y-36100D02*
D03*
Y-21100D02*
D03*
X-60276Y214719D02*
D03*
Y229718D02*
D03*
D61*
X384100Y-40442D02*
D03*
X414100D02*
D03*
X261600Y-23842D02*
D03*
X291600D02*
D03*
D62*
X226510Y21484D02*
D03*
Y26547D02*
D03*
X-54675Y139126D02*
D03*
Y134062D02*
D03*
D63*
X98960Y-28086D02*
D03*
X113960D02*
D03*
X235201Y-56182D02*
D03*
X250201D02*
D03*
D64*
X-32744Y129993D02*
D03*
X-37808D02*
D03*
D65*
X156065Y-25957D02*
X160200Y-21822D01*
X161151D02*
X161637Y-21336D01*
X155565Y-25957D02*
X156065D01*
X160200Y-21822D02*
X161151D01*
X161259Y-20957D02*
X161637Y-21336D01*
X451021Y295245D02*
Y298734D01*
X458200Y305913D02*
Y305913D01*
X450233Y294457D02*
X451021Y295245D01*
Y298734D02*
X458200Y305913D01*
X167011Y10971D02*
Y29834D01*
X96406Y100439D02*
X167011Y29834D01*
X80688Y100439D02*
X96406D01*
X-30113Y132623D02*
Y135291D01*
X-32744Y129993D02*
X-30113Y132623D01*
Y135291D02*
X-29627Y135777D01*
X297824Y290054D02*
X298324D01*
X297325D02*
X297824D01*
X249396Y43138D02*
X261165D01*
X249182Y43352D02*
X249396Y43138D01*
X261165D02*
X261378Y42924D01*
X336380Y287058D02*
X338580Y284858D01*
X336380Y287058D02*
Y291643D01*
X305506Y282871D02*
X306005D01*
X298324Y290054D02*
X305506Y282871D01*
X277723D02*
X279287Y281307D01*
X277723Y282871D02*
Y290054D01*
X279287Y280808D02*
Y281307D01*
X287723Y302331D02*
X288505Y303114D01*
X287723Y290054D02*
Y302331D01*
X264717Y290054D02*
Y294325D01*
X273505Y303114D01*
X235970Y295174D02*
Y300384D01*
X238700Y303114D01*
X230850Y290054D02*
X235970Y295174D01*
X242469Y289554D02*
X246238Y285784D01*
Y282039D02*
X247469Y280808D01*
X242469Y289554D02*
Y290054D01*
X246238Y282039D02*
Y285784D01*
X252469Y301882D02*
X253700Y303114D01*
X252469Y290054D02*
Y301882D01*
X187933Y288478D02*
X192505Y293050D01*
Y303114D01*
X187933Y287978D02*
Y288478D01*
X27392Y190128D02*
X34043D01*
X35263Y191348D01*
X35950D01*
D66*
X141056Y-35957D02*
X166555D01*
X179750Y-22762D01*
X180671D02*
X180825Y-22916D01*
X189142D01*
X179790Y-22722D02*
X179830Y-22762D01*
X180671D01*
X137112Y-39902D02*
X141056Y-35957D01*
X179790Y-22302D02*
Y-21882D01*
X189142Y-12531D01*
X380191Y201320D02*
X447884Y269014D01*
X380191Y193773D02*
Y201320D01*
X447884Y269014D02*
X456302D01*
X102639Y-7055D02*
Y-4434D01*
X442168Y47017D02*
Y47370D01*
Y47017D02*
X461985Y27201D01*
Y6100D02*
Y27201D01*
Y6100D02*
X473201Y-5117D01*
X458200Y-51250D02*
X473201Y-36249D01*
Y-5117D01*
X456302Y269014D02*
X458200Y270912D01*
X456080Y-51250D02*
X458200D01*
X447295Y-42465D02*
X456080Y-51250D01*
X447295Y-42465D02*
Y-38048D01*
X-45210Y185128D02*
X8350D01*
X-45814Y185731D02*
X-45210Y185128D01*
X88362Y258449D02*
X91244Y255566D01*
X85185Y187851D02*
Y193906D01*
X56532Y232543D02*
Y249927D01*
Y232543D02*
X85185Y203890D01*
Y193976D02*
X85254Y193906D01*
X85185Y193976D02*
Y203890D01*
X47094Y133936D02*
X58256D01*
X40035Y127438D02*
Y127794D01*
X58256Y133936D02*
X59716Y135396D01*
X43011Y130770D02*
X43928D01*
X40035Y127794D02*
X43011Y130770D01*
X115839Y-39902D02*
X137112D01*
X189142Y-22916D02*
Y-12531D01*
Y-48855D02*
Y-22916D01*
X8350Y185128D02*
X8450Y185028D01*
X43928Y130770D02*
X47094Y133936D01*
X104912Y-2161D02*
X124850D01*
X102639Y-4434D02*
X104912Y-2161D01*
X101623Y-3493D02*
X103896Y-1220D01*
X101623Y-6801D02*
Y-3493D01*
X186869Y-2122D02*
X189142Y-4395D01*
X164889Y-2122D02*
X186869D01*
X189142Y-12531D02*
Y-4395D01*
X56532Y249927D02*
X65054Y258449D01*
X88362D01*
D67*
X-3451Y173869D02*
X290Y170128D01*
X-3694Y174493D02*
X-3451Y174250D01*
Y173869D02*
Y174250D01*
X290Y169628D02*
Y170128D01*
X450224Y283648D02*
X450819Y283053D01*
Y282553D02*
X456059Y277313D01*
Y273053D02*
Y277313D01*
X449724Y283648D02*
X450224D01*
X450819Y282553D02*
Y283053D01*
X458200Y-17309D02*
Y-16249D01*
X446960Y-28048D02*
X447461D01*
X458200Y-17309D01*
X456059Y273053D02*
X458200Y270912D01*
X457588Y-16249D02*
X458200D01*
X27987Y179533D02*
X32808D01*
X35950Y176390D01*
X27392Y180128D02*
X27987Y179533D01*
X10290Y160826D02*
Y169628D01*
Y169804D02*
X10885Y170399D01*
X18569Y170744D02*
Y171169D01*
X18223Y170399D02*
X18569Y170744D01*
X10885Y170399D02*
X18223D01*
X10290Y169628D02*
Y169804D01*
X27230Y179965D02*
X27392Y180128D01*
X27067Y171169D02*
X27230Y171332D01*
Y179965D01*
D68*
X-44744Y129539D02*
X-44517Y129766D01*
X-38034D01*
X-37808Y129993D01*
D69*
X226474Y23979D02*
D03*
X-54707Y136558D02*
D03*
D70*
X-35308Y130024D02*
D03*
D71*
X458200Y-16249D02*
D03*
Y-51250D02*
D03*
Y270912D02*
D03*
Y305913D02*
D03*
D72*
X671200Y30458D02*
D03*
Y224458D02*
D03*
D73*
X101488Y-7055D02*
D03*
X187990D02*
D03*
D74*
X101488Y-48855D02*
D03*
X187990D02*
D03*
D75*
X115839Y-12056D02*
D03*
X173639D02*
D03*
D76*
X0Y0D02*
D03*
X0Y255258D02*
D03*
D77*
X-29419Y45145D02*
D03*
X-17033Y38058D02*
D03*
X-23691Y39219D02*
D03*
X149189Y-13295D02*
D03*
X155778Y-12841D02*
D03*
X141961Y-12747D02*
D03*
X128569Y-12514D02*
D03*
X161637Y-21336D02*
D03*
X551423Y60268D02*
D03*
X559661Y68150D02*
D03*
X549193Y68900D02*
D03*
X539851Y84800D02*
D03*
X542732Y93394D02*
D03*
X533800Y81643D02*
D03*
Y90939D02*
D03*
X553693Y95563D02*
D03*
X571120Y93394D02*
D03*
X563341D02*
D03*
X549557Y128770D02*
D03*
X524245Y129908D02*
D03*
X533800Y127381D02*
D03*
X539089Y197627D02*
D03*
X549960D02*
D03*
X613590Y209034D02*
D03*
X568028Y71300D02*
D03*
X602198Y113622D02*
D03*
X571572Y197927D02*
D03*
X568625Y190793D02*
D03*
X397499Y227968D02*
D03*
X137050Y13190D02*
D03*
X126481Y17189D02*
D03*
X29102Y13820D02*
D03*
X-20389Y20647D02*
D03*
X31900Y6600D02*
D03*
X-33085Y51316D02*
D03*
X389934Y77087D02*
D03*
X396560Y70461D02*
D03*
X393399Y93055D02*
D03*
X606700Y12000D02*
D03*
X635308Y12887D02*
D03*
X648400Y13300D02*
D03*
X613187Y16142D02*
D03*
X620990Y185522D02*
D03*
X620515Y199018D02*
D03*
X608800Y215800D02*
D03*
X575250Y207300D02*
D03*
X556383Y218964D02*
D03*
X549557Y226642D02*
D03*
X563208Y197627D02*
D03*
X561078Y207300D02*
D03*
X545600D02*
D03*
X539089Y218964D02*
D03*
X620990Y101505D02*
D03*
Y115508D02*
D03*
X608439Y101999D02*
D03*
X592700Y107101D02*
D03*
X560100Y132600D02*
D03*
X584022Y107101D02*
D03*
X573177Y101999D02*
D03*
X576730Y112353D02*
D03*
X547781Y120049D02*
D03*
X539851Y100320D02*
D03*
X545500Y110200D02*
D03*
X561990Y103860D02*
D03*
X567115Y112645D02*
D03*
X571019Y118224D02*
D03*
X566600Y126756D02*
D03*
X560087Y121528D02*
D03*
X555561Y113622D02*
D03*
X551423Y101999D02*
D03*
X537052Y107101D02*
D03*
X539500Y117679D02*
D03*
X541216Y126854D02*
D03*
X539500Y66603D02*
D03*
X528194Y50896D02*
D03*
X516855Y41700D02*
D03*
X482552Y28652D02*
D03*
X466568Y39258D02*
D03*
X482552Y41700D02*
D03*
X476192Y24394D02*
D03*
Y35375D02*
D03*
X493403Y38030D02*
D03*
X503260Y39258D02*
D03*
X516956Y31819D02*
D03*
X570058Y57759D02*
D03*
X560453Y56155D02*
D03*
X609861Y53112D02*
D03*
X584058Y47720D02*
D03*
X613403Y45451D02*
D03*
X601782Y43600D02*
D03*
X592700Y47720D02*
D03*
Y25641D02*
D03*
X606226Y36068D02*
D03*
X589481Y31819D02*
D03*
X589603Y13344D02*
D03*
X620990Y73500D02*
D03*
X618051Y57759D02*
D03*
X621600Y66603D02*
D03*
X624291Y52035D02*
D03*
X620990Y80501D02*
D03*
Y108507D02*
D03*
Y94504D02*
D03*
Y87503D02*
D03*
X551423Y51897D02*
D03*
X577948Y40130D02*
D03*
X568028Y47720D02*
D03*
X578071Y54951D02*
D03*
X556398Y39830D02*
D03*
X525800Y41700D02*
D03*
X540508Y43270D02*
D03*
X539851Y56155D02*
D03*
X76345Y277475D02*
D03*
X76310Y267004D02*
D03*
X88036Y277281D02*
D03*
X84549Y267556D02*
D03*
X72637Y289991D02*
D03*
X86619Y296593D02*
D03*
X48090Y270088D02*
D03*
X72637Y298568D02*
D03*
X40328Y266877D02*
D03*
X459623Y50896D02*
D03*
Y64104D02*
D03*
X503260D02*
D03*
X468351Y50896D02*
D03*
X442168Y47370D02*
D03*
X448730D02*
D03*
X485806Y50896D02*
D03*
X477078D02*
D03*
X380191Y193773D02*
D03*
X362898Y239596D02*
D03*
X377962Y243212D02*
D03*
X380191Y201320D02*
D03*
X374650Y226928D02*
D03*
X362400Y203834D02*
D03*
X362578Y233120D02*
D03*
X364508Y159333D02*
D03*
X361613Y217677D02*
D03*
X508911Y82958D02*
D03*
X528194Y66603D02*
D03*
X516956Y82958D02*
D03*
X490243Y28652D02*
D03*
X494797Y50896D02*
D03*
X516956Y55365D02*
D03*
X487740Y82958D02*
D03*
X578829Y79144D02*
D03*
X490900Y15768D02*
D03*
X476192Y14197D02*
D03*
X506790Y12328D02*
D03*
X341096Y139470D02*
D03*
Y99211D02*
D03*
X379873Y692D02*
D03*
X371262Y3254D02*
D03*
X371482Y-2692D02*
D03*
X358207Y304825D02*
D03*
X404560Y307278D02*
D03*
X73949Y251124D02*
D03*
X122860Y277281D02*
D03*
X32137Y229920D02*
D03*
X15784Y215782D02*
D03*
X48090Y243868D02*
D03*
X56352Y-63547D02*
D03*
X76390Y-65314D02*
D03*
X69667Y-64517D02*
D03*
X63312Y-64043D02*
D03*
X9563Y-43677D02*
D03*
X-512Y-41225D02*
D03*
X-29079Y91351D02*
D03*
X34924Y80D02*
D03*
X-45413Y110397D02*
D03*
X620990Y164518D02*
D03*
Y171519D02*
D03*
X517600Y74900D02*
D03*
X571120Y78196D02*
D03*
X528194Y110459D02*
D03*
X461720Y140800D02*
D03*
X562308Y183823D02*
D03*
X555683D02*
D03*
X620990Y178521D02*
D03*
X533800Y71300D02*
D03*
X477078Y64104D02*
D03*
X40980Y104898D02*
D03*
X-35110Y69147D02*
D03*
X-43382Y34942D02*
D03*
X-5166Y136180D02*
D03*
X1731Y140047D02*
D03*
X-3694Y174493D02*
D03*
X-32520Y164347D02*
D03*
X-13548Y285355D02*
D03*
X-18855Y281290D02*
D03*
X-25516Y276210D02*
D03*
X-31048Y271806D02*
D03*
X-36129Y266952D02*
D03*
X-62958Y48718D02*
D03*
X-62910Y41919D02*
D03*
X-63033Y35425D02*
D03*
X-62977Y29018D02*
D03*
X-7120Y-38005D02*
D03*
X-15959Y-32400D02*
D03*
X-22277Y-26837D02*
D03*
X-29672Y-20526D02*
D03*
X-36476Y-14905D02*
D03*
X-46041Y160731D02*
D03*
X-46306Y150063D02*
D03*
X-45955Y167526D02*
D03*
X-40232Y159277D02*
D03*
X43824Y195245D02*
D03*
X-48651Y-1949D02*
D03*
X-42189Y-8733D02*
D03*
X-55279Y6205D02*
D03*
X-5631Y48180D02*
D03*
X425Y108482D02*
D03*
X-1508Y98478D02*
D03*
X-33889Y158612D02*
D03*
X-31427Y152605D02*
D03*
X-40376Y167467D02*
D03*
X-44824Y174858D02*
D03*
X-37448Y173243D02*
D03*
X-34857Y191792D02*
D03*
X-37294Y108171D02*
D03*
X203227Y6609D02*
D03*
X198306Y-1083D02*
D03*
X153507Y287976D02*
D03*
X-45413Y139227D02*
D03*
X-31407Y144319D02*
D03*
X-52389Y27530D02*
D03*
X-40451Y117954D02*
D03*
X-6440Y39658D02*
D03*
X-7059Y85807D02*
D03*
X-32949Y121453D02*
D03*
X-42244Y74209D02*
D03*
X70700Y140197D02*
D03*
X70955Y147432D02*
D03*
X-45814Y185731D02*
D03*
X63433Y50145D02*
D03*
X21995Y-37189D02*
D03*
X170355Y284096D02*
D03*
X177505Y289478D02*
D03*
X313Y150397D02*
D03*
X-5126Y155885D02*
D03*
X143645Y288478D02*
D03*
X197249Y270386D02*
D03*
X298005Y44937D02*
D03*
X406052Y-67462D02*
D03*
X377620D02*
D03*
X350000D02*
D03*
Y-60153D02*
D03*
X307581Y-67970D02*
D03*
X321900Y-63542D02*
D03*
X620990Y143514D02*
D03*
X175316Y234746D02*
D03*
X66719Y203890D02*
D03*
X68592Y229823D02*
D03*
X163069Y236888D02*
D03*
X-4260Y144279D02*
D03*
X-44744Y129539D02*
D03*
X-6061Y196382D02*
D03*
X-15248Y217968D02*
D03*
X-8100Y211328D02*
D03*
X-37615Y150218D02*
D03*
X276300Y-67970D02*
D03*
X275080Y320308D02*
D03*
X265830Y319988D02*
D03*
X143416Y277675D02*
D03*
X85254Y222531D02*
D03*
X88115Y239572D02*
D03*
X81910Y114998D02*
D03*
X80688Y73436D02*
D03*
X142660Y106378D02*
D03*
X143020Y186938D02*
D03*
X27039Y126629D02*
D03*
X7430Y124948D02*
D03*
X109408Y17799D02*
D03*
X-41645Y262334D02*
D03*
X-46330Y255990D02*
D03*
X-53162Y250036D02*
D03*
X-57457Y244570D02*
D03*
X-7645Y289697D02*
D03*
X-2155Y294168D02*
D03*
X5020Y297235D02*
D03*
X11013Y300818D02*
D03*
X17006Y303351D02*
D03*
X23555Y306317D02*
D03*
X29425Y309035D02*
D03*
X36159Y311507D02*
D03*
X204939Y293551D02*
D03*
X-31493Y211798D02*
D03*
Y197487D02*
D03*
X-31040Y205003D02*
D03*
X-41665Y211251D02*
D03*
X-38222Y197487D02*
D03*
X-28451Y173395D02*
D03*
X80688Y100439D02*
D03*
X159500Y17799D02*
D03*
X-29627Y135777D02*
D03*
X440750Y309618D02*
D03*
X437630Y286618D02*
D03*
X466110Y294457D02*
D03*
X470611Y283358D02*
D03*
X471110Y258568D02*
D03*
X457334Y251562D02*
D03*
X443496Y276662D02*
D03*
X471110Y241348D02*
D03*
X526299D02*
D03*
X575250Y235590D02*
D03*
X561078Y238618D02*
D03*
X567316Y242926D02*
D03*
X577200Y221658D02*
D03*
X569690Y223394D02*
D03*
X539089Y237089D02*
D03*
X549960Y242188D02*
D03*
X537563Y243353D02*
D03*
X516770Y241348D02*
D03*
X503547Y242748D02*
D03*
X493870D02*
D03*
X480010Y241348D02*
D03*
X466110Y246806D02*
D03*
X454570Y258568D02*
D03*
X409550Y299448D02*
D03*
X417500Y286208D02*
D03*
X429480Y277008D02*
D03*
X437630Y271588D02*
D03*
X417500Y307278D02*
D03*
X438760Y299448D02*
D03*
X429480Y307278D02*
D03*
X431520Y321048D02*
D03*
X413070Y319678D02*
D03*
X401405Y319865D02*
D03*
X422910Y294318D02*
D03*
X429480Y286618D02*
D03*
X398170Y180990D02*
D03*
Y191471D02*
D03*
X401535Y202434D02*
D03*
X407200Y210098D02*
D03*
X414933Y212543D02*
D03*
X412520Y220498D02*
D03*
X397790Y234598D02*
D03*
X392470Y239368D02*
D03*
X387520Y244808D02*
D03*
X620990Y122510D02*
D03*
Y129511D02*
D03*
X480683Y82958D02*
D03*
X575215Y28418D02*
D03*
X522800Y60700D02*
D03*
X494533Y64104D02*
D03*
X568950Y133273D02*
D03*
X439372Y183100D02*
D03*
X571024Y140484D02*
D03*
X539500Y77000D02*
D03*
X485806Y64104D02*
D03*
X606700Y23858D02*
D03*
X580150Y19326D02*
D03*
X598939Y17127D02*
D03*
X531680Y28418D02*
D03*
X518420Y20218D02*
D03*
X528340Y12628D02*
D03*
X510500Y68900D02*
D03*
X512269Y50896D02*
D03*
X524245Y82958D02*
D03*
X503260Y50896D02*
D03*
X501815Y24394D02*
D03*
X494797Y82958D02*
D03*
X501854D02*
D03*
X620990Y136512D02*
D03*
X563208Y140800D02*
D03*
X607564Y201600D02*
D03*
X620990Y157517D02*
D03*
Y150515D02*
D03*
X614659Y201600D02*
D03*
X620990Y192523D02*
D03*
X580913Y201600D02*
D03*
X568669Y183580D02*
D03*
X458236Y191398D02*
D03*
X445397Y82958D02*
D03*
X466568D02*
D03*
X473625D02*
D03*
X528194Y100320D02*
D03*
X468351Y64104D02*
D03*
X556383Y140800D02*
D03*
X509701Y129908D02*
D03*
X501627Y126608D02*
D03*
X493863Y126528D02*
D03*
X486099Y126608D02*
D03*
X478335D02*
D03*
X470571D02*
D03*
X462807D02*
D03*
X455043D02*
D03*
X446821Y140800D02*
D03*
X354078Y291073D02*
D03*
X362578Y271118D02*
D03*
X354770Y282548D02*
D03*
X370462Y259613D02*
D03*
X363202Y264019D02*
D03*
X382682Y249916D02*
D03*
X360360Y277908D02*
D03*
X376760Y254978D02*
D03*
X194757Y6609D02*
D03*
X125586Y168289D02*
D03*
Y187375D02*
D03*
X125446Y106927D02*
D03*
Y88003D02*
D03*
X230850Y290054D02*
D03*
X264717D02*
D03*
X297824D02*
D03*
X336380Y291643D02*
D03*
X264051Y262451D02*
D03*
X328821Y273673D02*
D03*
X276600Y2537D02*
D03*
X-60605Y14135D02*
D03*
X162443Y293058D02*
D03*
X8450Y185028D02*
D03*
X35950Y176390D02*
D03*
Y191348D02*
D03*
X-37927Y205306D02*
D03*
X-45610Y197537D02*
D03*
X14966Y139453D02*
D03*
X40035Y127438D02*
D03*
X27339Y139918D02*
D03*
X135160Y-12930D02*
D03*
X-39833Y81106D02*
D03*
X-28899Y79602D02*
D03*
X-44820Y91351D02*
D03*
X39876Y75738D02*
D03*
X8430Y72688D02*
D03*
X35209Y135396D02*
D03*
X33450Y210528D02*
D03*
X89299Y170992D02*
D03*
X89807Y162991D02*
D03*
X310151Y-47461D02*
D03*
X393072Y-67462D02*
D03*
X429240Y-25006D02*
D03*
Y-34295D02*
D03*
X437119Y-34391D02*
D03*
X139484Y-23558D02*
D03*
X224690Y-25067D02*
D03*
X238915Y-24486D02*
D03*
X232383Y-29240D02*
D03*
X16125Y-30017D02*
D03*
X447279Y126796D02*
D03*
X439515D02*
D03*
X443247Y-52826D02*
D03*
Y-59913D02*
D03*
X436100Y-52948D02*
D03*
Y-59913D02*
D03*
X204642Y-58206D02*
D03*
X199806Y-52993D02*
D03*
X197797Y-26177D02*
D03*
X199681Y-46211D02*
D03*
X197797Y-39342D02*
D03*
X197671Y-33336D02*
D03*
X207154Y-50167D02*
D03*
X198249Y-9610D02*
D03*
X246005Y-27409D02*
D03*
X255200Y-67970D02*
D03*
X216031D02*
D03*
X223889D02*
D03*
X248100D02*
D03*
X314524Y-63542D02*
D03*
X314582Y-55580D02*
D03*
X321900Y-55347D02*
D03*
X304242Y-41116D02*
D03*
Y-47433D02*
D03*
X310151Y-41116D02*
D03*
X306777Y558D02*
D03*
X314500D02*
D03*
X306777Y-8047D02*
D03*
X314500D02*
D03*
X304242Y-53751D02*
D03*
X83632Y-65557D02*
D03*
X91200Y-64989D02*
D03*
X23515Y-6223D02*
D03*
X31028D02*
D03*
X23888Y4003D02*
D03*
X39718Y-16634D02*
D03*
X9563Y-36904D02*
D03*
X16125D02*
D03*
X22687Y-43677D02*
D03*
X16125D02*
D03*
X164991Y164684D02*
D03*
X358491Y295945D02*
D03*
X36840Y292475D02*
D03*
X76345Y239572D02*
D03*
X461720Y183100D02*
D03*
X446821D02*
D03*
X230476Y54038D02*
D03*
X197031Y54832D02*
D03*
X408323Y126796D02*
D03*
X416223Y127024D02*
D03*
X423987Y127075D02*
D03*
X431751Y127024D02*
D03*
X397080Y106367D02*
D03*
X459511Y82958D02*
D03*
X452454D02*
D03*
X450896Y64104D02*
D03*
X442168D02*
D03*
X439372Y140800D02*
D03*
X454271D02*
D03*
X328821Y259864D02*
D03*
Y266769D02*
D03*
Y252959D02*
D03*
Y225384D02*
D03*
Y218479D02*
D03*
Y211574D02*
D03*
Y232289D02*
D03*
Y155992D02*
D03*
Y176706D02*
D03*
Y183611D02*
D03*
X305301Y90931D02*
D03*
X329630Y139777D02*
D03*
X328821Y76263D02*
D03*
Y69358D02*
D03*
Y62453D02*
D03*
Y83168D02*
D03*
X296055Y276006D02*
D03*
Y255292D02*
D03*
Y262197D02*
D03*
Y269101D02*
D03*
Y248387D02*
D03*
Y200098D02*
D03*
Y220812D02*
D03*
Y213907D02*
D03*
Y227717D02*
D03*
Y151420D02*
D03*
Y172134D02*
D03*
Y165229D02*
D03*
Y179039D02*
D03*
Y103522D02*
D03*
Y124236D02*
D03*
Y110426D02*
D03*
Y131141D02*
D03*
Y56057D02*
D03*
Y76771D02*
D03*
Y69866D02*
D03*
Y83676D02*
D03*
X264051Y276260D02*
D03*
Y255546D02*
D03*
Y269355D02*
D03*
Y248641D02*
D03*
Y200352D02*
D03*
Y221066D02*
D03*
Y214161D02*
D03*
Y227971D02*
D03*
Y103776D02*
D03*
Y124490D02*
D03*
Y110680D02*
D03*
Y131395D02*
D03*
Y77025D02*
D03*
Y70120D02*
D03*
Y83930D02*
D03*
X230269Y277022D02*
D03*
Y256308D02*
D03*
Y263213D02*
D03*
Y270117D02*
D03*
Y249403D02*
D03*
Y201113D02*
D03*
Y221828D02*
D03*
Y214923D02*
D03*
Y228733D02*
D03*
Y152436D02*
D03*
Y173150D02*
D03*
Y166245D02*
D03*
Y180055D02*
D03*
Y104538D02*
D03*
Y125252D02*
D03*
Y111442D02*
D03*
Y132157D02*
D03*
X230410Y74925D02*
D03*
X230269Y63977D02*
D03*
X197030Y87948D02*
D03*
X197249Y64246D02*
D03*
X197428Y75388D02*
D03*
X197249Y132425D02*
D03*
Y111711D02*
D03*
Y125520D02*
D03*
Y104806D02*
D03*
Y180323D02*
D03*
Y166514D02*
D03*
Y173418D02*
D03*
Y152704D02*
D03*
Y229001D02*
D03*
Y215191D02*
D03*
Y222096D02*
D03*
Y201382D02*
D03*
Y249671D02*
D03*
Y263481D02*
D03*
Y256576D02*
D03*
X310279Y42087D02*
D03*
X85185Y187851D02*
D03*
X85254Y193906D02*
D03*
X122860Y322318D02*
D03*
X114120Y322428D02*
D03*
X106005Y322318D02*
D03*
X96980D02*
D03*
X86721Y322428D02*
D03*
X77986Y321884D02*
D03*
X69606Y320643D02*
D03*
X60564Y318488D02*
D03*
X51976Y316264D02*
D03*
X43388Y313978D02*
D03*
X-62142Y238519D02*
D03*
X-41665Y246906D02*
D03*
X-62910Y22224D02*
D03*
X164991Y102979D02*
D03*
Y109820D02*
D03*
Y75615D02*
D03*
X164603Y85323D02*
D03*
X164483Y93141D02*
D03*
X164991Y171525D02*
D03*
Y123875D02*
D03*
Y130716D02*
D03*
Y149783D02*
D03*
X165245Y211183D02*
D03*
Y218024D02*
D03*
Y224865D02*
D03*
Y178485D02*
D03*
Y185326D02*
D03*
Y203631D02*
D03*
X164279Y278324D02*
D03*
X403758Y92682D02*
D03*
X399593Y98434D02*
D03*
X358207Y319584D02*
D03*
Y312204D02*
D03*
X398204Y115160D02*
D03*
X403625Y120118D02*
D03*
X403332Y154543D02*
D03*
X401535Y162920D02*
D03*
X403222Y171102D02*
D03*
X261378Y42924D02*
D03*
X454271Y183100D02*
D03*
X438340Y82958D02*
D03*
X76345Y229920D02*
D03*
D78*
X369850Y252761D02*
D03*
X363899Y139115D02*
D03*
X363137Y75767D02*
D03*
X362400Y187248D02*
D03*
X354770Y239368D02*
D03*
X340080Y239900D02*
D03*
X280815Y93141D02*
D03*
X214340Y93395D02*
D03*
X230959D02*
D03*
X264196Y93141D02*
D03*
X247577Y93395D02*
D03*
X181102Y93141D02*
D03*
X328999D02*
D03*
X297281D02*
D03*
X313067D02*
D03*
X287927Y139623D02*
D03*
X221452Y139877D02*
D03*
X238071D02*
D03*
X271308Y139623D02*
D03*
X254690Y139877D02*
D03*
X204833Y139623D02*
D03*
X188214D02*
D03*
X171595D02*
D03*
X302075Y139978D02*
D03*
X321190Y144703D02*
D03*
X288946Y193462D02*
D03*
X222471Y193716D02*
D03*
X239090D02*
D03*
X272328Y193462D02*
D03*
X255709Y193716D02*
D03*
X205852Y193462D02*
D03*
X189233D02*
D03*
X172614D02*
D03*
X331945Y194538D02*
D03*
X305412Y193462D02*
D03*
X321199D02*
D03*
X195080Y239948D02*
D03*
X329577Y239699D02*
D03*
X313791D02*
D03*
X180993D02*
D03*
X214231D02*
D03*
X264088Y239953D02*
D03*
X280706Y239699D02*
D03*
X247469Y239953D02*
D03*
X230850D02*
D03*
X297325Y239699D02*
D03*
D79*
X-50405Y209897D02*
D03*
Y45897D02*
D03*
M02*
