G04*
G04 #@! TF.GenerationSoftware,Altium Limited,Altium Designer,22.2.1 (43)*
G04*
G04 Layer_Color=128*
%FSLAX44Y44*%
%MOMM*%
G71*
G04*
G04 #@! TF.SameCoordinates,D676EA34-7746-482F-A41B-9349FDE20BFB*
G04*
G04*
G04 #@! TF.FilePolarity,Positive*
G04*
G01*
G75*
%ADD11C,0.1016*%
%ADD157C,0.0508*%
D11*
X477612Y328479D02*
X477989Y328325D01*
X477408Y328477D02*
X477612Y328479D01*
X93200Y328477D02*
X477408Y328477D01*
X92836Y328409D02*
X93200Y328477D01*
X86869Y328107D02*
X92836Y328409D01*
X74988Y326820D02*
X86869Y328107D01*
X63200Y324857D02*
X74988Y326820D01*
X51544Y322223D02*
X63200Y324857D01*
X40057Y318927D02*
X51544Y322223D01*
X28777Y314980D02*
X40057Y318927D01*
X17742Y310394D02*
X28777Y314980D01*
X6987Y305185D02*
X17742Y310394D01*
X-3453Y299370D02*
X6987Y305185D01*
X-13544Y292968D02*
X-3453Y299370D01*
X-23252Y285999D02*
X-13544Y292968D01*
X-32545Y278487D02*
X-23252Y285999D01*
X-41394Y270455D02*
X-32545Y278487D01*
X-49770Y261931D02*
X-41394Y270455D01*
X-57644Y252942D02*
X-49770Y261931D01*
X-64992Y243518D02*
X-57644Y252942D01*
X-68391Y238604D02*
X-64992Y243518D01*
X-68391Y238604D02*
X-68391Y195678D01*
Y64360D02*
Y195678D01*
X-68391Y14444D02*
X-68391Y64360D01*
X-68391Y14444D02*
X-64988Y9337D01*
X-57564Y-436D01*
X-49550Y-9730D01*
X-40975Y-18512D01*
X-31873Y-26745D01*
X-22280Y-34399D01*
X-12231Y-41445D01*
X-1765Y-47856D01*
X9078Y-53606D01*
X20255Y-58674D01*
X31725Y-63041D01*
X43443Y-66690D01*
X55365Y-69606D01*
X67444Y-71779D01*
X79635Y-73200D01*
X91890Y-73864D01*
X98026Y-73816D01*
X98700Y-73562D01*
X477415D01*
X477618Y-73563D01*
X477993Y-73408D01*
X478280Y-73121D01*
X478435Y-72745D01*
X478435Y-72542D02*
X478435Y-72745D01*
X478435Y-72542D02*
X478435Y6188D01*
X531455D01*
X539612Y16298D01*
Y17826D01*
X540208Y20825D01*
X541378Y23650D01*
X543077Y26192D01*
X545239Y28354D01*
X547781Y30052D01*
X550606Y31222D01*
X553605Y31819D01*
X556662D01*
X559661Y31222D01*
X562485Y30052D01*
X565028Y28354D01*
X567189Y26192D01*
X568888Y23650D01*
X570058Y20825D01*
X570655Y17826D01*
Y16298D02*
Y17826D01*
Y16298D02*
X579632Y6188D01*
X699334D01*
X703293Y10147D01*
X703592Y10868D01*
X703592Y44460D01*
X631590D02*
X703592D01*
X631590D02*
Y210460D01*
X703592D01*
Y244512D01*
X703293Y245233D02*
X703592Y244512D01*
X699799Y248728D02*
X703293Y245233D01*
X619718Y248728D02*
X699799D01*
X611561Y238618D02*
X619718Y248728D01*
X611561Y237089D02*
Y238618D01*
X610964Y234090D02*
X611561Y237089D01*
X609794Y231265D02*
X610964Y234090D01*
X608096Y228723D02*
X609794Y231265D01*
X605934Y226561D02*
X608096Y228723D01*
X603392Y224863D02*
X605934Y226561D01*
X600567Y223693D02*
X603392Y224863D01*
X597568Y223096D02*
X600567Y223693D01*
X594511Y223096D02*
X597568D01*
X591512Y223693D02*
X594511Y223096D01*
X588687Y224863D02*
X591512Y223693D01*
X586145Y226561D02*
X588687Y224863D01*
X583983Y228723D02*
X586145Y226561D01*
X582285Y231265D02*
X583983Y228723D01*
X581115Y234090D02*
X582285Y231265D01*
X580518Y237089D02*
X581115Y234090D01*
X580518Y237089D02*
Y238618D01*
X571540Y248728D02*
X580518Y238618D01*
X478435Y248728D02*
X571540D01*
X478435D02*
Y327458D01*
X478435Y327661D01*
X478279Y328038D02*
X478435Y327661D01*
X477989Y328325D02*
X478279Y328038D01*
D157*
X454450Y-16249D02*
X461950D01*
X458200Y-19999D02*
Y-12499D01*
X454450Y-51250D02*
X461950D01*
X458200Y-55001D02*
Y-47500D01*
X454450Y270912D02*
X461950D01*
X458200Y267162D02*
Y274662D01*
X454450Y305913D02*
X461950D01*
X458200Y302163D02*
Y309663D01*
X658700Y30458D02*
X683700D01*
X671200Y17958D02*
Y42958D01*
X658700Y224458D02*
X683700D01*
X671200Y211958D02*
Y236958D01*
X92988Y-7055D02*
X109988D01*
X101488Y-15555D02*
Y1445D01*
X95489Y-48855D02*
X107487D01*
X101488Y-54855D02*
Y-42856D01*
X112589Y-12056D02*
X119089D01*
X115839Y-15306D02*
Y-8806D01*
X170389Y-12056D02*
X176889D01*
X173639Y-15306D02*
Y-8806D01*
X179490Y-7055D02*
X196490D01*
X187990Y-15555D02*
Y1445D01*
X181991Y-48855D02*
X193990D01*
X187990Y-54855D02*
Y-42856D01*
X-12500Y0D02*
X12500D01*
X0Y-12500D02*
Y12500D01*
X-12500Y255258D02*
X12500D01*
X0Y242758D02*
Y267758D01*
X-30689Y45145D02*
X-28149D01*
X-29419Y43875D02*
Y46415D01*
X-18303Y38058D02*
X-15763D01*
X-17033Y36788D02*
Y39328D01*
X-24961Y39219D02*
X-22421D01*
X-23691Y37949D02*
Y40489D01*
X147919Y-13295D02*
X150459D01*
X149189Y-14564D02*
Y-12025D01*
X154508Y-12841D02*
X157048D01*
X155778Y-14111D02*
Y-11571D01*
X140691Y-12747D02*
X143231D01*
X141961Y-14017D02*
Y-11477D01*
X127299Y-12514D02*
X129839D01*
X128569Y-13784D02*
Y-11244D01*
X160367Y-21336D02*
X162907D01*
X161637Y-22606D02*
Y-20066D01*
X550153Y60268D02*
X552693D01*
X551423Y58998D02*
Y61538D01*
X558391Y68150D02*
X560931D01*
X559661Y66880D02*
Y69420D01*
X547924Y68900D02*
X550463D01*
X549193Y67630D02*
Y70170D01*
X538581Y84800D02*
X541121D01*
X539851Y83530D02*
Y86070D01*
X541462Y93394D02*
X544002D01*
X542732Y92124D02*
Y94664D01*
X532530Y81643D02*
X535070D01*
X533800Y80373D02*
Y82913D01*
X532530Y90939D02*
X535070D01*
X533800Y89669D02*
Y92208D01*
X552423Y95563D02*
X554963D01*
X553693Y94293D02*
Y96833D01*
X569850Y93394D02*
X572390D01*
X571120Y92124D02*
Y94664D01*
X562071Y93394D02*
X564611D01*
X563341Y92124D02*
Y94664D01*
X548288Y128770D02*
X550827D01*
X549557Y127500D02*
Y130040D01*
X522975Y129908D02*
X525515D01*
X524245Y128638D02*
Y131178D01*
X532530Y127381D02*
X535070D01*
X533800Y126111D02*
Y128651D01*
X537819Y197627D02*
X540359D01*
X539089Y196357D02*
Y198897D01*
X548690Y197627D02*
X551230D01*
X549960Y196357D02*
Y198897D01*
X612320Y209034D02*
X614860D01*
X613590Y207764D02*
Y210304D01*
X566758Y71300D02*
X569298D01*
X568028Y70030D02*
Y72570D01*
X600928Y113622D02*
X603468D01*
X602198Y112352D02*
Y114892D01*
X570302Y197927D02*
X572842D01*
X571572Y196657D02*
Y199197D01*
X567355Y190793D02*
X569896D01*
X568625Y189522D02*
Y192062D01*
X396229Y227968D02*
X398769D01*
X397499Y226698D02*
Y229238D01*
X135780Y13190D02*
X138320D01*
X137050Y11920D02*
Y14460D01*
X125211Y17189D02*
X127751D01*
X126481Y15919D02*
Y18459D01*
X27832Y13820D02*
X30372D01*
X29102Y12550D02*
Y15090D01*
X-21659Y20647D02*
X-19119D01*
X-20389Y19377D02*
Y21917D01*
X30630Y6600D02*
X33170D01*
X31900Y5330D02*
Y7870D01*
X-34355Y51316D02*
X-31815D01*
X-33085Y50047D02*
Y52586D01*
X388664Y77087D02*
X391204D01*
X389934Y75817D02*
Y78357D01*
X395290Y70461D02*
X397830D01*
X396560Y69191D02*
Y71730D01*
X392129Y93055D02*
X394669D01*
X393399Y91785D02*
Y94325D01*
X605430Y12000D02*
X607970D01*
X606700Y10730D02*
Y13270D01*
X634038Y12887D02*
X636578D01*
X635308Y11617D02*
Y14157D01*
X647130Y13300D02*
X649670D01*
X648400Y12030D02*
Y14570D01*
X611917Y16142D02*
X614457D01*
X613187Y14872D02*
Y17412D01*
X619720Y185522D02*
X622260D01*
X620990Y184252D02*
Y186792D01*
X619245Y199018D02*
X621785D01*
X620515Y197748D02*
Y200288D01*
X607530Y215800D02*
X610070D01*
X608800Y214530D02*
Y217070D01*
X573980Y207300D02*
X576520D01*
X575250Y206030D02*
Y208570D01*
X555113Y218964D02*
X557653D01*
X556383Y217694D02*
Y220234D01*
X548288Y226642D02*
X550827D01*
X549557Y225371D02*
Y227911D01*
X561938Y197627D02*
X564478D01*
X563208Y196357D02*
Y198897D01*
X559808Y207300D02*
X562348D01*
X561078Y206030D02*
Y208570D01*
X544330Y207300D02*
X546870D01*
X545600Y206030D02*
Y208570D01*
X537819Y218964D02*
X540359D01*
X539089Y217694D02*
Y220234D01*
X619720Y101505D02*
X622260D01*
X620990Y100236D02*
Y102775D01*
X619720Y115508D02*
X622260D01*
X620990Y114238D02*
Y116778D01*
X607169Y101999D02*
X609709D01*
X608439Y100729D02*
Y103269D01*
X591430Y107101D02*
X593970D01*
X592700Y105831D02*
Y108371D01*
X558830Y132600D02*
X561370D01*
X560100Y131330D02*
Y133870D01*
X582752Y107101D02*
X585292D01*
X584022Y105831D02*
Y108371D01*
X571907Y101999D02*
X574447D01*
X573177Y100729D02*
Y103269D01*
X575460Y112353D02*
X578000D01*
X576730Y111082D02*
Y113623D01*
X546511Y120049D02*
X549051D01*
X547781Y118779D02*
Y121320D01*
X538581Y100320D02*
X541121D01*
X539851Y99050D02*
Y101590D01*
X544230Y110200D02*
X546770D01*
X545500Y108930D02*
Y111470D01*
X560720Y103860D02*
X563260D01*
X561990Y102590D02*
Y105130D01*
X565845Y112645D02*
X568385D01*
X567115Y111375D02*
Y113915D01*
X569749Y118224D02*
X572289D01*
X571019Y116954D02*
Y119494D01*
X565330Y126756D02*
X567870D01*
X566600Y125486D02*
Y128026D01*
X558817Y121528D02*
X561357D01*
X560087Y120258D02*
Y122798D01*
X554291Y113622D02*
X556831D01*
X555561Y112352D02*
Y114892D01*
X550153Y101999D02*
X552693D01*
X551423Y100729D02*
Y103269D01*
X535782Y107101D02*
X538322D01*
X537052Y105831D02*
Y108371D01*
X538230Y117679D02*
X540770D01*
X539500Y116409D02*
Y118949D01*
X539946Y126854D02*
X542486D01*
X541216Y125584D02*
Y128124D01*
X538230Y66603D02*
X540770D01*
X539500Y65333D02*
Y67873D01*
X526924Y50896D02*
X529464D01*
X528194Y49626D02*
Y52166D01*
X515585Y41700D02*
X518125D01*
X516855Y40430D02*
Y42970D01*
X481282Y28652D02*
X483822D01*
X482552Y27382D02*
Y29922D01*
X465298Y39258D02*
X467838D01*
X466568Y37988D02*
Y40528D01*
X481282Y41700D02*
X483822D01*
X482552Y40430D02*
Y42970D01*
X474922Y24394D02*
X477462D01*
X476192Y23124D02*
Y25664D01*
X474922Y35375D02*
X477462D01*
X476192Y34105D02*
Y36645D01*
X492133Y38030D02*
X494673D01*
X493403Y36760D02*
Y39300D01*
X501990Y39258D02*
X504530D01*
X503260Y37988D02*
Y40528D01*
X515686Y31819D02*
X518226D01*
X516956Y30549D02*
Y33089D01*
X568788Y57759D02*
X571328D01*
X570058Y56490D02*
Y59029D01*
X559184Y56155D02*
X561724D01*
X560453Y54885D02*
Y57425D01*
X608591Y53112D02*
X611131D01*
X609861Y51842D02*
Y54382D01*
X582788Y47720D02*
X585328D01*
X584058Y46450D02*
Y48990D01*
X612133Y45451D02*
X614673D01*
X613403Y44181D02*
Y46721D01*
X600512Y43600D02*
X603052D01*
X601782Y42330D02*
Y44870D01*
X591430Y47720D02*
X593970D01*
X592700Y46450D02*
Y48990D01*
X591430Y25641D02*
X593970D01*
X592700Y24371D02*
Y26911D01*
X604956Y36068D02*
X607496D01*
X606226Y34798D02*
Y37338D01*
X588211Y31819D02*
X590751D01*
X589481Y30549D02*
Y33089D01*
X588332Y13344D02*
X590872D01*
X589603Y12074D02*
Y14614D01*
X619720Y73500D02*
X622260D01*
X620990Y72230D02*
Y74770D01*
X616781Y57759D02*
X619321D01*
X618051Y56490D02*
Y59029D01*
X620330Y66603D02*
X622870D01*
X621600Y65333D02*
Y67873D01*
X623021Y52035D02*
X625561D01*
X624291Y50766D02*
Y53306D01*
X619720Y80501D02*
X622260D01*
X620990Y79231D02*
Y81771D01*
X619720Y108507D02*
X622260D01*
X620990Y107237D02*
Y109777D01*
X619720Y94504D02*
X622260D01*
X620990Y93234D02*
Y95774D01*
X619720Y87503D02*
X622260D01*
X620990Y86233D02*
Y88773D01*
X550153Y51897D02*
X552693D01*
X551423Y50627D02*
Y53167D01*
X576678Y40130D02*
X579218D01*
X577948Y38860D02*
Y41400D01*
X566758Y47720D02*
X569298D01*
X568028Y46450D02*
Y48990D01*
X576801Y54951D02*
X579341D01*
X578071Y53681D02*
Y56221D01*
X555128Y39830D02*
X557668D01*
X556398Y38560D02*
Y41100D01*
X524530Y41700D02*
X527070D01*
X525800Y40430D02*
Y42970D01*
X539238Y43270D02*
X541778D01*
X540508Y42000D02*
Y44540D01*
X538581Y56155D02*
X541121D01*
X539851Y54885D02*
Y57425D01*
X75075Y277475D02*
X77615D01*
X76345Y276205D02*
Y278745D01*
X75040Y267004D02*
X77580D01*
X76310Y265734D02*
Y268274D01*
X86766Y277281D02*
X89306D01*
X88036Y276011D02*
Y278551D01*
X83279Y267556D02*
X85819D01*
X84549Y266286D02*
Y268826D01*
X71367Y289991D02*
X73907D01*
X72637Y288721D02*
Y291261D01*
X85349Y296593D02*
X87889D01*
X86619Y295323D02*
Y297863D01*
X46820Y270088D02*
X49360D01*
X48090Y268818D02*
Y271358D01*
X71367Y298568D02*
X73907D01*
X72637Y297298D02*
Y299838D01*
X39058Y266877D02*
X41598D01*
X40328Y265607D02*
Y268147D01*
X458353Y50896D02*
X460893D01*
X459623Y49626D02*
Y52166D01*
X458353Y64104D02*
X460893D01*
X459623Y62834D02*
Y65374D01*
X501990Y64104D02*
X504530D01*
X503260Y62834D02*
Y65374D01*
X467081Y50896D02*
X469621D01*
X468351Y49626D02*
Y52166D01*
X440898Y47370D02*
X443438D01*
X442168Y46100D02*
Y48640D01*
X447460Y47370D02*
X450000D01*
X448730Y46100D02*
Y48640D01*
X484535Y50896D02*
X487076D01*
X485806Y49626D02*
Y52166D01*
X475808Y50896D02*
X478348D01*
X477078Y49626D02*
Y52166D01*
X378921Y193773D02*
X381461D01*
X380191Y192504D02*
Y195044D01*
X361628Y239596D02*
X364169D01*
X362898Y238326D02*
Y240866D01*
X376692Y243212D02*
X379232D01*
X377962Y241942D02*
Y244482D01*
X378921Y201320D02*
X381461D01*
X380191Y200051D02*
Y202591D01*
X367310Y252761D02*
X372390D01*
X369850Y250221D02*
Y255301D01*
X373380Y226928D02*
X375920D01*
X374650Y225658D02*
Y228198D01*
X361359Y139115D02*
X366439D01*
X363899Y136575D02*
Y141655D01*
X360597Y75767D02*
X365677D01*
X363137Y73227D02*
Y78307D01*
X361130Y203834D02*
X363670D01*
X362400Y202564D02*
Y205104D01*
X361308Y233120D02*
X363848D01*
X362578Y231850D02*
Y234390D01*
X359860Y187248D02*
X364940D01*
X362400Y184708D02*
Y189788D01*
X363238Y159333D02*
X365778D01*
X364508Y158063D02*
Y160603D01*
X360343Y217677D02*
X362883D01*
X361613Y216407D02*
Y218947D01*
X352230Y239368D02*
X357310D01*
X354770Y236828D02*
Y241908D01*
X507641Y82958D02*
X510181D01*
X508911Y81688D02*
Y84228D01*
X526924Y66603D02*
X529464D01*
X528194Y65333D02*
Y67873D01*
X515686Y82958D02*
X518226D01*
X516956Y81688D02*
Y84228D01*
X488973Y28652D02*
X491513D01*
X490243Y27382D02*
Y29922D01*
X493527Y50896D02*
X496067D01*
X494797Y49626D02*
Y52166D01*
X515686Y55365D02*
X518226D01*
X516956Y54095D02*
Y56635D01*
X486470Y82958D02*
X489010D01*
X487740Y81688D02*
Y84228D01*
X577559Y79144D02*
X580099D01*
X578829Y77874D02*
Y80414D01*
X489630Y15768D02*
X492170D01*
X490900Y14498D02*
Y17038D01*
X474922Y14197D02*
X477462D01*
X476192Y12928D02*
Y15467D01*
X505520Y12328D02*
X508060D01*
X506790Y11058D02*
Y13598D01*
X339826Y139470D02*
X342366D01*
X341096Y138200D02*
Y140740D01*
X339826Y99211D02*
X342366D01*
X341096Y97941D02*
Y100481D01*
X378603Y692D02*
X381143D01*
X379873Y-578D02*
Y1962D01*
X369992Y3254D02*
X372532D01*
X371262Y1984D02*
Y4524D01*
X370212Y-2692D02*
X372752D01*
X371482Y-3962D02*
Y-1422D01*
X337540Y239900D02*
X342620D01*
X340080Y237360D02*
Y242440D01*
X356937Y304825D02*
X359477D01*
X358207Y303555D02*
Y306095D01*
X403290Y307278D02*
X405830D01*
X404560Y306008D02*
Y308548D01*
X72679Y251124D02*
X75219D01*
X73949Y249854D02*
Y252394D01*
X121590Y277281D02*
X124130D01*
X122860Y276011D02*
Y278551D01*
X30867Y229920D02*
X33407D01*
X32137Y228650D02*
Y231190D01*
X14514Y215782D02*
X17054D01*
X15784Y214512D02*
Y217052D01*
X46820Y243868D02*
X49360D01*
X48090Y242598D02*
Y245138D01*
X55082Y-63547D02*
X57622D01*
X56352Y-64817D02*
Y-62277D01*
X75120Y-65314D02*
X77660D01*
X76390Y-66584D02*
Y-64044D01*
X68397Y-64517D02*
X70937D01*
X69667Y-65786D02*
Y-63246D01*
X62042Y-64043D02*
X64581D01*
X63312Y-65312D02*
Y-62772D01*
X8293Y-43677D02*
X10833D01*
X9563Y-44947D02*
Y-42407D01*
X-1782Y-41225D02*
X758D01*
X-512Y-42495D02*
Y-39955D01*
X-30348Y91351D02*
X-27808D01*
X-29079Y90081D02*
Y92621D01*
X33654Y80D02*
X36194D01*
X34924Y-1190D02*
Y1350D01*
X-46683Y110397D02*
X-44143D01*
X-45413Y109127D02*
Y111667D01*
X619720Y164518D02*
X622260D01*
X620990Y163248D02*
Y165788D01*
X619720Y171519D02*
X622260D01*
X620990Y170249D02*
Y172789D01*
X516330Y74900D02*
X518870D01*
X517600Y73630D02*
Y76170D01*
X569850Y78196D02*
X572390D01*
X571120Y76926D02*
Y79466D01*
X526924Y110459D02*
X529464D01*
X528194Y109189D02*
Y111729D01*
X460450Y140800D02*
X462990D01*
X461720Y139530D02*
Y142070D01*
X561038Y183823D02*
X563578D01*
X562308Y182553D02*
Y185093D01*
X554413Y183823D02*
X556953D01*
X555683Y182553D02*
Y185093D01*
X619720Y178521D02*
X622260D01*
X620990Y177251D02*
Y179791D01*
X532530Y71300D02*
X535070D01*
X533800Y70030D02*
Y72570D01*
X475808Y64104D02*
X478348D01*
X477078Y62834D02*
Y65374D01*
X-53755Y209897D02*
X-47055D01*
X-50405Y206547D02*
Y213247D01*
X-53755Y45897D02*
X-47055D01*
X-50405Y42547D02*
Y49247D01*
X39710Y104898D02*
X42250D01*
X40980Y103628D02*
Y106168D01*
X-36380Y69147D02*
X-33840D01*
X-35110Y67877D02*
Y70417D01*
X-44652Y34942D02*
X-42112D01*
X-43382Y33672D02*
Y36212D01*
X-6436Y136180D02*
X-3896D01*
X-5166Y134910D02*
Y137450D01*
X461Y140047D02*
X3001D01*
X1731Y138777D02*
Y141316D01*
X-4964Y174493D02*
X-2424D01*
X-3694Y173223D02*
Y175763D01*
X-33790Y164347D02*
X-31250D01*
X-32520Y163077D02*
Y165617D01*
X-14818Y285355D02*
X-12278D01*
X-13548Y284085D02*
Y286625D01*
X-20125Y281290D02*
X-17585D01*
X-18855Y280020D02*
Y282560D01*
X-26786Y276210D02*
X-24246D01*
X-25516Y274940D02*
Y277480D01*
X-32318Y271806D02*
X-29778D01*
X-31048Y270536D02*
Y273076D01*
X-37399Y266952D02*
X-34859D01*
X-36129Y265682D02*
Y268222D01*
X-64228Y48718D02*
X-61688D01*
X-62958Y47448D02*
Y49988D01*
X-64180Y41919D02*
X-61640D01*
X-62910Y40649D02*
Y43189D01*
X-64303Y35425D02*
X-61763D01*
X-63033Y34155D02*
Y36695D01*
X-64247Y29018D02*
X-61707D01*
X-62977Y27747D02*
Y30287D01*
X-8390Y-38005D02*
X-5850D01*
X-7120Y-39274D02*
Y-36734D01*
X-17229Y-32400D02*
X-14689D01*
X-15959Y-33670D02*
Y-31130D01*
X-23547Y-26837D02*
X-21007D01*
X-22277Y-28107D02*
Y-25567D01*
X-30942Y-20526D02*
X-28402D01*
X-29672Y-21796D02*
Y-19256D01*
X-37746Y-14905D02*
X-35206D01*
X-36476Y-16175D02*
Y-13635D01*
X-47311Y160731D02*
X-44771D01*
X-46041Y159461D02*
Y162001D01*
X-47576Y150063D02*
X-45036D01*
X-46306Y148793D02*
Y151333D01*
X-47225Y167526D02*
X-44685D01*
X-45955Y166256D02*
Y168796D01*
X-41502Y159277D02*
X-38962D01*
X-40232Y158007D02*
Y160547D01*
X42554Y195245D02*
X45094D01*
X43824Y193975D02*
Y196515D01*
X-49921Y-1949D02*
X-47381D01*
X-48651Y-3219D02*
Y-679D01*
X-43459Y-8733D02*
X-40919D01*
X-42189Y-10003D02*
Y-7463D01*
X-56549Y6205D02*
X-54009D01*
X-55279Y4935D02*
Y7475D01*
X-6902Y48180D02*
X-4362D01*
X-5631Y46910D02*
Y49450D01*
X-845Y108482D02*
X1695D01*
X425Y107212D02*
Y109752D01*
X-2779Y98478D02*
X-238D01*
X-1508Y97208D02*
Y99748D01*
X-35159Y158612D02*
X-32619D01*
X-33889Y157342D02*
Y159882D01*
X-32697Y152605D02*
X-30157D01*
X-31427Y151335D02*
Y153875D01*
X-41646Y167467D02*
X-39106D01*
X-40376Y166197D02*
Y168737D01*
X-46094Y174858D02*
X-43554D01*
X-44824Y173588D02*
Y176128D01*
X-38719Y173243D02*
X-36179D01*
X-37448Y171973D02*
Y174513D01*
X-36128Y191792D02*
X-33588D01*
X-34857Y190522D02*
Y193062D01*
X-38564Y108171D02*
X-36024D01*
X-37294Y106901D02*
Y109441D01*
X201957Y6609D02*
X204497D01*
X203227Y5339D02*
Y7879D01*
X197036Y-1083D02*
X199576D01*
X198306Y-2353D02*
Y187D01*
X152237Y287976D02*
X154777D01*
X153507Y286707D02*
Y289247D01*
X-46683Y139227D02*
X-44143D01*
X-45413Y137957D02*
Y140497D01*
X-32677Y144319D02*
X-30137D01*
X-31407Y143049D02*
Y145589D01*
X-53659Y27530D02*
X-51119D01*
X-52389Y26260D02*
Y28800D01*
X-41721Y117954D02*
X-39181D01*
X-40451Y116684D02*
Y119224D01*
X-7710Y39658D02*
X-5170D01*
X-6440Y38388D02*
Y40928D01*
X-8329Y85807D02*
X-5789D01*
X-7059Y84537D02*
Y87077D01*
X-34219Y121453D02*
X-31679D01*
X-32949Y120183D02*
Y122723D01*
X-43514Y74209D02*
X-40974D01*
X-42244Y72939D02*
Y75479D01*
X69430Y140197D02*
X71970D01*
X70700Y138927D02*
Y141467D01*
X69685Y147432D02*
X72225D01*
X70955Y146162D02*
Y148702D01*
X-47084Y185731D02*
X-44544D01*
X-45814Y184461D02*
Y187001D01*
X62163Y50145D02*
X64703D01*
X63433Y48875D02*
Y51415D01*
X20725Y-37189D02*
X23265D01*
X21995Y-38459D02*
Y-35919D01*
X169085Y284096D02*
X171625D01*
X170355Y282826D02*
Y285366D01*
X176235Y289478D02*
X178775D01*
X177505Y288208D02*
Y290748D01*
X-957Y150397D02*
X1583D01*
X313Y149127D02*
Y151667D01*
X-6396Y155885D02*
X-3856D01*
X-5126Y154615D02*
Y157155D01*
X142375Y288478D02*
X144915D01*
X143645Y287208D02*
Y289748D01*
X195979Y270386D02*
X198519D01*
X197249Y269116D02*
Y271656D01*
X296735Y44937D02*
X299275D01*
X298005Y43667D02*
Y46207D01*
X404782Y-67462D02*
X407322D01*
X406052Y-68732D02*
Y-66192D01*
X376350Y-67462D02*
X378890D01*
X377620Y-68732D02*
Y-66192D01*
X348730Y-67462D02*
X351270D01*
X350000Y-68732D02*
Y-66192D01*
X348730Y-60153D02*
X351270D01*
X350000Y-61423D02*
Y-58883D01*
X306311Y-67970D02*
X308850D01*
X307581Y-69240D02*
Y-66700D01*
X320630Y-63542D02*
X323170D01*
X321900Y-64812D02*
Y-62272D01*
X619720Y143514D02*
X622260D01*
X620990Y142244D02*
Y144784D01*
X174046Y234746D02*
X176586D01*
X175316Y233476D02*
Y236016D01*
X65449Y203890D02*
X67989D01*
X66719Y202620D02*
Y205160D01*
X67322Y229823D02*
X69862D01*
X68592Y228553D02*
Y231093D01*
X161799Y236888D02*
X164339D01*
X163069Y235618D02*
Y238158D01*
X-5530Y144279D02*
X-2990D01*
X-4260Y143009D02*
Y145549D01*
X-46014Y129539D02*
X-43474D01*
X-44744Y128269D02*
Y130809D01*
X-7331Y196382D02*
X-4791D01*
X-6061Y195112D02*
Y197652D01*
X-16518Y217968D02*
X-13978D01*
X-15248Y216698D02*
Y219238D01*
X-9370Y211328D02*
X-6830D01*
X-8100Y210058D02*
Y212598D01*
X-38885Y150218D02*
X-36345D01*
X-37615Y148948D02*
Y151488D01*
X275030Y-67970D02*
X277570D01*
X276300Y-69240D02*
Y-66700D01*
X273810Y320308D02*
X276350D01*
X275080Y319038D02*
Y321578D01*
X264560Y319988D02*
X267100D01*
X265830Y318718D02*
Y321258D01*
X142146Y277675D02*
X144686D01*
X143416Y276405D02*
Y278945D01*
X83984Y222531D02*
X86524D01*
X85254Y221261D02*
Y223801D01*
X86845Y239572D02*
X89385D01*
X88115Y238302D02*
Y240842D01*
X80640Y114998D02*
X83180D01*
X81910Y113728D02*
Y116268D01*
X79418Y73436D02*
X81958D01*
X80688Y72166D02*
Y74706D01*
X141390Y106378D02*
X143930D01*
X142660Y105108D02*
Y107648D01*
X141750Y186938D02*
X144290D01*
X143020Y185668D02*
Y188208D01*
X25769Y126629D02*
X28309D01*
X27039Y125359D02*
Y127899D01*
X6160Y124948D02*
X8700D01*
X7430Y123678D02*
Y126218D01*
X108138Y17799D02*
X110678D01*
X109408Y16529D02*
Y19069D01*
X-42915Y262334D02*
X-40375D01*
X-41645Y261064D02*
Y263604D01*
X-47600Y255990D02*
X-45060D01*
X-46330Y254720D02*
Y257260D01*
X-54432Y250036D02*
X-51892D01*
X-53162Y248766D02*
Y251306D01*
X-58727Y244570D02*
X-56187D01*
X-57457Y243300D02*
Y245840D01*
X-8915Y289697D02*
X-6375D01*
X-7645Y288428D02*
Y290968D01*
X-3425Y294168D02*
X-885D01*
X-2155Y292898D02*
Y295438D01*
X3750Y297235D02*
X6290D01*
X5020Y295965D02*
Y298505D01*
X9743Y300818D02*
X12283D01*
X11013Y299548D02*
Y302088D01*
X15736Y303351D02*
X18276D01*
X17006Y302082D02*
Y304622D01*
X22285Y306317D02*
X24825D01*
X23555Y305047D02*
Y307587D01*
X28155Y309035D02*
X30695D01*
X29425Y307766D02*
Y310306D01*
X34889Y311507D02*
X37429D01*
X36159Y310237D02*
Y312777D01*
X203669Y293551D02*
X206209D01*
X204939Y292281D02*
Y294821D01*
X-32762Y211798D02*
X-30222D01*
X-31493Y210529D02*
Y213069D01*
X-32762Y197487D02*
X-30222D01*
X-31493Y196217D02*
Y198757D01*
X-32310Y205003D02*
X-29770D01*
X-31040Y203733D02*
Y206273D01*
X-42935Y211251D02*
X-40395D01*
X-41665Y209981D02*
Y212521D01*
X-39492Y197487D02*
X-36952D01*
X-38222Y196217D02*
Y198757D01*
X-29721Y173395D02*
X-27181D01*
X-28451Y172125D02*
Y174665D01*
X79418Y100439D02*
X81958D01*
X80688Y99169D02*
Y101709D01*
X158230Y17799D02*
X160770D01*
X159500Y16529D02*
Y19069D01*
X-30897Y135777D02*
X-28357D01*
X-29627Y134507D02*
Y137047D01*
X439480Y309618D02*
X442020D01*
X440750Y308348D02*
Y310888D01*
X436360Y286618D02*
X438900D01*
X437630Y285348D02*
Y287888D01*
X464840Y294457D02*
X467380D01*
X466110Y293187D02*
Y295727D01*
X469341Y283358D02*
X471881D01*
X470611Y282088D02*
Y284628D01*
X469840Y258568D02*
X472380D01*
X471110Y257298D02*
Y259838D01*
X456064Y251562D02*
X458604D01*
X457334Y250292D02*
Y252832D01*
X442226Y276662D02*
X444766D01*
X443496Y275392D02*
Y277932D01*
X469840Y241348D02*
X472380D01*
X471110Y240077D02*
Y242617D01*
X525029Y241348D02*
X527569D01*
X526299Y240077D02*
Y242617D01*
X573980Y235590D02*
X576520D01*
X575250Y234319D02*
Y236859D01*
X559808Y238618D02*
X562348D01*
X561078Y237348D02*
Y239888D01*
X566046Y242926D02*
X568586D01*
X567316Y241656D02*
Y244196D01*
X575930Y221658D02*
X578470D01*
X577200Y220388D02*
Y222928D01*
X568420Y223394D02*
X570960D01*
X569690Y222124D02*
Y224664D01*
X537819Y237089D02*
X540359D01*
X539089Y235819D02*
Y238359D01*
X548690Y242188D02*
X551230D01*
X549960Y240918D02*
Y243458D01*
X536293Y243353D02*
X538833D01*
X537563Y242083D02*
Y244622D01*
X515500Y241348D02*
X518040D01*
X516770Y240077D02*
Y242617D01*
X502277Y242748D02*
X504817D01*
X503547Y241478D02*
Y244018D01*
X492600Y242748D02*
X495140D01*
X493870Y241478D02*
Y244018D01*
X478740Y241348D02*
X481280D01*
X480010Y240077D02*
Y242617D01*
X464840Y246806D02*
X467380D01*
X466110Y245536D02*
Y248076D01*
X453300Y258568D02*
X455840D01*
X454570Y257298D02*
Y259838D01*
X408280Y299448D02*
X410820D01*
X409550Y298178D02*
Y300718D01*
X416230Y286208D02*
X418770D01*
X417500Y284938D02*
Y287478D01*
X428210Y277008D02*
X430750D01*
X429480Y275738D02*
Y278278D01*
X436360Y271588D02*
X438900D01*
X437630Y270318D02*
Y272858D01*
X416230Y307278D02*
X418770D01*
X417500Y306008D02*
Y308548D01*
X437490Y299448D02*
X440030D01*
X438760Y298178D02*
Y300718D01*
X428210Y307278D02*
X430750D01*
X429480Y306008D02*
Y308548D01*
X430250Y321048D02*
X432790D01*
X431520Y319778D02*
Y322318D01*
X411800Y319678D02*
X414340D01*
X413070Y318408D02*
Y320948D01*
X400135Y319865D02*
X402675D01*
X401405Y318595D02*
Y321135D01*
X421640Y294318D02*
X424180D01*
X422910Y293048D02*
Y295588D01*
X428210Y286618D02*
X430750D01*
X429480Y285348D02*
Y287888D01*
X396900Y180990D02*
X399440D01*
X398170Y179720D02*
Y182260D01*
X396900Y191471D02*
X399440D01*
X398170Y190201D02*
Y192741D01*
X400266Y202434D02*
X402805D01*
X401535Y201164D02*
Y203704D01*
X405930Y210098D02*
X408470D01*
X407200Y208828D02*
Y211368D01*
X413663Y212543D02*
X416203D01*
X414933Y211273D02*
Y213813D01*
X411250Y220498D02*
X413790D01*
X412520Y219228D02*
Y221768D01*
X396520Y234598D02*
X399060D01*
X397790Y233328D02*
Y235868D01*
X391200Y239368D02*
X393740D01*
X392470Y238098D02*
Y240638D01*
X386250Y244808D02*
X388790D01*
X387520Y243538D02*
Y246078D01*
X619720Y122510D02*
X622260D01*
X620990Y121240D02*
Y123780D01*
X619720Y129511D02*
X622260D01*
X620990Y128241D02*
Y130781D01*
X479413Y82958D02*
X481953D01*
X480683Y81688D02*
Y84228D01*
X573945Y28418D02*
X576485D01*
X575215Y27148D02*
Y29688D01*
X521530Y60700D02*
X524070D01*
X522800Y59430D02*
Y61970D01*
X493263Y64104D02*
X495803D01*
X494533Y62834D02*
Y65374D01*
X567680Y133273D02*
X570220D01*
X568950Y132003D02*
Y134543D01*
X438102Y183100D02*
X440642D01*
X439372Y181830D02*
Y184370D01*
X569754Y140484D02*
X572294D01*
X571024Y139214D02*
Y141754D01*
X538230Y77000D02*
X540770D01*
X539500Y75730D02*
Y78270D01*
X484535Y64104D02*
X487076D01*
X485806Y62834D02*
Y65374D01*
X605430Y23858D02*
X607970D01*
X606700Y22589D02*
Y25129D01*
X578880Y19326D02*
X581420D01*
X580150Y18056D02*
Y20596D01*
X597669Y17127D02*
X600209D01*
X598939Y15857D02*
Y18397D01*
X530410Y28418D02*
X532950D01*
X531680Y27148D02*
Y29688D01*
X517150Y20218D02*
X519690D01*
X518420Y18948D02*
Y21488D01*
X527070Y12628D02*
X529610D01*
X528340Y11358D02*
Y13898D01*
X509230Y68900D02*
X511770D01*
X510500Y67630D02*
Y70170D01*
X510999Y50896D02*
X513539D01*
X512269Y49626D02*
Y52166D01*
X522975Y82958D02*
X525515D01*
X524245Y81688D02*
Y84228D01*
X501990Y50896D02*
X504530D01*
X503260Y49626D02*
Y52166D01*
X500545Y24394D02*
X503085D01*
X501815Y23124D02*
Y25664D01*
X493527Y82958D02*
X496067D01*
X494797Y81688D02*
Y84228D01*
X500584Y82958D02*
X503124D01*
X501854Y81688D02*
Y84228D01*
X619720Y136512D02*
X622260D01*
X620990Y135243D02*
Y137782D01*
X561938Y140800D02*
X564478D01*
X563208Y139530D02*
Y142070D01*
X606294Y201600D02*
X608834D01*
X607564Y200330D02*
Y202870D01*
X619720Y157517D02*
X622260D01*
X620990Y156247D02*
Y158787D01*
X619720Y150515D02*
X622260D01*
X620990Y149245D02*
Y151785D01*
X613389Y201600D02*
X615929D01*
X614659Y200330D02*
Y202870D01*
X619720Y192523D02*
X622260D01*
X620990Y191254D02*
Y193794D01*
X579643Y201600D02*
X582183D01*
X580913Y200330D02*
Y202870D01*
X567399Y183580D02*
X569939D01*
X568669Y182310D02*
Y184850D01*
X456966Y191398D02*
X459506D01*
X458236Y190128D02*
Y192668D01*
X444127Y82958D02*
X446667D01*
X445397Y81688D02*
Y84228D01*
X465298Y82958D02*
X467838D01*
X466568Y81688D02*
Y84228D01*
X472355Y82958D02*
X474896D01*
X473625Y81688D02*
Y84228D01*
X526924Y100320D02*
X529464D01*
X528194Y99050D02*
Y101590D01*
X467081Y64104D02*
X469621D01*
X468351Y62834D02*
Y65374D01*
X555113Y140800D02*
X557653D01*
X556383Y139530D02*
Y142070D01*
X508431Y129908D02*
X510971D01*
X509701Y128638D02*
Y131178D01*
X500357Y126608D02*
X502897D01*
X501627Y125338D02*
Y127878D01*
X492593Y126528D02*
X495133D01*
X493863Y125258D02*
Y127798D01*
X484829Y126608D02*
X487369D01*
X486099Y125338D02*
Y127878D01*
X477065Y126608D02*
X479605D01*
X478335Y125338D02*
Y127878D01*
X469301Y126608D02*
X471841D01*
X470571Y125338D02*
Y127878D01*
X461537Y126608D02*
X464077D01*
X462807Y125338D02*
Y127878D01*
X453773Y126608D02*
X456313D01*
X455043Y125338D02*
Y127878D01*
X445551Y140800D02*
X448091D01*
X446821Y139530D02*
Y142070D01*
X352808Y291073D02*
X355348D01*
X354078Y289803D02*
Y292343D01*
X361308Y271118D02*
X363848D01*
X362578Y269848D02*
Y272388D01*
X353500Y282548D02*
X356040D01*
X354770Y281278D02*
Y283818D01*
X369192Y259613D02*
X371731D01*
X370462Y258343D02*
Y260883D01*
X361932Y264019D02*
X364472D01*
X363202Y262749D02*
Y265289D01*
X381412Y249916D02*
X383951D01*
X382682Y248646D02*
Y251186D01*
X359090Y277908D02*
X361630D01*
X360360Y276638D02*
Y279178D01*
X375490Y254978D02*
X378030D01*
X376760Y253708D02*
Y256248D01*
X193487Y6609D02*
X196027D01*
X194757Y5339D02*
Y7879D01*
X124316Y168289D02*
X126856D01*
X125586Y167019D02*
Y169559D01*
X124316Y187375D02*
X126856D01*
X125586Y186105D02*
Y188645D01*
X124176Y106927D02*
X126716D01*
X125446Y105657D02*
Y108197D01*
X124176Y88003D02*
X126716D01*
X125446Y86733D02*
Y89273D01*
X229580Y290054D02*
X232120D01*
X230850Y288784D02*
Y291324D01*
X263447Y290054D02*
X265987D01*
X264717Y288784D02*
Y291324D01*
X296555Y290054D02*
X299095D01*
X297824Y288784D02*
Y291324D01*
X335110Y291643D02*
X337650D01*
X336380Y290373D02*
Y292913D01*
X262781Y262451D02*
X265321D01*
X264051Y261181D02*
Y263721D01*
X327551Y273673D02*
X330091D01*
X328821Y272403D02*
Y274943D01*
X275330Y2537D02*
X277870D01*
X276600Y1267D02*
Y3807D01*
X-61874Y14135D02*
X-59335D01*
X-60605Y12865D02*
Y15405D01*
X161173Y293058D02*
X163713D01*
X162443Y291788D02*
Y294328D01*
X7180Y185028D02*
X9720D01*
X8450Y183758D02*
Y186298D01*
X34680Y176390D02*
X37220D01*
X35950Y175120D02*
Y177660D01*
X34680Y191348D02*
X37220D01*
X35950Y190078D02*
Y192618D01*
X-39197Y205306D02*
X-36657D01*
X-37927Y204036D02*
Y206576D01*
X-46880Y197537D02*
X-44340D01*
X-45610Y196267D02*
Y198807D01*
X13696Y139453D02*
X16236D01*
X14966Y138183D02*
Y140723D01*
X38765Y127438D02*
X41305D01*
X40035Y126168D02*
Y128708D01*
X26070Y139918D02*
X28609D01*
X27339Y138648D02*
Y141188D01*
X133890Y-12930D02*
X136430D01*
X135160Y-14200D02*
Y-11660D01*
X-41103Y81106D02*
X-38563D01*
X-39833Y79836D02*
Y82376D01*
X-30169Y79602D02*
X-27629D01*
X-28899Y78332D02*
Y80872D01*
X-46090Y91351D02*
X-43550D01*
X-44820Y90081D02*
Y92621D01*
X38605Y75738D02*
X41146D01*
X39876Y74468D02*
Y77008D01*
X7160Y72688D02*
X9700D01*
X8430Y71418D02*
Y73958D01*
X33939Y135396D02*
X36479D01*
X35209Y134126D02*
Y136666D01*
X32180Y210528D02*
X34720D01*
X33450Y209258D02*
Y211798D01*
X88029Y170992D02*
X90569D01*
X89299Y169722D02*
Y172262D01*
X88537Y162991D02*
X91077D01*
X89807Y161721D02*
Y164261D01*
X308881Y-47461D02*
X311421D01*
X310151Y-48731D02*
Y-46191D01*
X391802Y-67462D02*
X394342D01*
X393072Y-68732D02*
Y-66192D01*
X427970Y-25006D02*
X430510D01*
X429240Y-26276D02*
Y-23736D01*
X427970Y-34295D02*
X430510D01*
X429240Y-35565D02*
Y-33025D01*
X435849Y-34391D02*
X438389D01*
X437119Y-35661D02*
Y-33121D01*
X138214Y-23558D02*
X140754D01*
X139484Y-24828D02*
Y-22288D01*
X223420Y-25067D02*
X225960D01*
X224690Y-26337D02*
Y-23797D01*
X237645Y-24486D02*
X240185D01*
X238915Y-25756D02*
Y-23217D01*
X231113Y-29240D02*
X233653D01*
X232383Y-30510D02*
Y-27970D01*
X14855Y-30017D02*
X17395D01*
X16125Y-31287D02*
Y-28747D01*
X446009Y126796D02*
X448549D01*
X447279Y125526D02*
Y128066D01*
X438245Y126796D02*
X440785D01*
X439515Y125526D02*
Y128066D01*
X441977Y-52826D02*
X444517D01*
X443247Y-54096D02*
Y-51556D01*
X441977Y-59913D02*
X444517D01*
X443247Y-61183D02*
Y-58643D01*
X434830Y-52948D02*
X437370D01*
X436100Y-54218D02*
Y-51678D01*
X434830Y-59913D02*
X437370D01*
X436100Y-61183D02*
Y-58643D01*
X203372Y-58206D02*
X205912D01*
X204642Y-59476D02*
Y-56936D01*
X198536Y-52993D02*
X201077D01*
X199806Y-54264D02*
Y-51723D01*
X196527Y-26177D02*
X199067D01*
X197797Y-27447D02*
Y-24907D01*
X198411Y-46211D02*
X200951D01*
X199681Y-47481D02*
Y-44941D01*
X196527Y-39342D02*
X199067D01*
X197797Y-40612D02*
Y-38072D01*
X196401Y-33336D02*
X198941D01*
X197671Y-34606D02*
Y-32066D01*
X205884Y-50167D02*
X208424D01*
X207154Y-51437D02*
Y-48897D01*
X196979Y-9610D02*
X199519D01*
X198249Y-10880D02*
Y-8340D01*
X244735Y-27409D02*
X247275D01*
X246005Y-28679D02*
Y-26139D01*
X253930Y-67970D02*
X256470D01*
X255200Y-69240D02*
Y-66700D01*
X214761Y-67970D02*
X217301D01*
X216031Y-69240D02*
Y-66700D01*
X222619Y-67970D02*
X225159D01*
X223889Y-69240D02*
Y-66700D01*
X246830Y-67970D02*
X249370D01*
X248100Y-69240D02*
Y-66700D01*
X313254Y-63542D02*
X315794D01*
X314524Y-64812D02*
Y-62272D01*
X313312Y-55580D02*
X315851D01*
X314582Y-56850D02*
Y-54310D01*
X320630Y-55347D02*
X323170D01*
X321900Y-56617D02*
Y-54078D01*
X302972Y-41116D02*
X305512D01*
X304242Y-42386D02*
Y-39846D01*
X302972Y-47433D02*
X305512D01*
X304242Y-48703D02*
Y-46163D01*
X308881Y-41116D02*
X311421D01*
X310151Y-42386D02*
Y-39846D01*
X305507Y558D02*
X308047D01*
X306777Y-712D02*
Y1828D01*
X313230Y558D02*
X315770D01*
X314500Y-712D02*
Y1828D01*
X305507Y-8047D02*
X308047D01*
X306777Y-9316D02*
Y-6776D01*
X313230Y-8047D02*
X315770D01*
X314500Y-9316D02*
Y-6776D01*
X302972Y-53751D02*
X305512D01*
X304242Y-55021D02*
Y-52481D01*
X82362Y-65557D02*
X84902D01*
X83632Y-66827D02*
Y-64287D01*
X89930Y-64989D02*
X92470D01*
X91200Y-66259D02*
Y-63719D01*
X22245Y-6223D02*
X24785D01*
X23515Y-7493D02*
Y-4953D01*
X29758Y-6223D02*
X32298D01*
X31028Y-7493D02*
Y-4953D01*
X22618Y4003D02*
X25158D01*
X23888Y2733D02*
Y5273D01*
X38448Y-16634D02*
X40988D01*
X39718Y-17904D02*
Y-15364D01*
X8293Y-36904D02*
X10833D01*
X9563Y-38174D02*
Y-35634D01*
X14855Y-36904D02*
X17395D01*
X16125Y-38174D02*
Y-35634D01*
X21417Y-43677D02*
X23957D01*
X22687Y-44947D02*
Y-42407D01*
X14855Y-43677D02*
X17395D01*
X16125Y-44947D02*
Y-42407D01*
X163721Y164684D02*
X166261D01*
X164991Y163414D02*
Y165954D01*
X357221Y295945D02*
X359761D01*
X358491Y294675D02*
Y297215D01*
X35570Y292475D02*
X38110D01*
X36840Y291205D02*
Y293745D01*
X75075Y239572D02*
X77615D01*
X76345Y238302D02*
Y240842D01*
X460450Y183100D02*
X462990D01*
X461720Y181830D02*
Y184370D01*
X445551Y183100D02*
X448091D01*
X446821Y181830D02*
Y184370D01*
X229207Y54038D02*
X231747D01*
X230476Y52768D02*
Y55308D01*
X195761Y54832D02*
X198301D01*
X197031Y53562D02*
Y56101D01*
X407053Y126796D02*
X409593D01*
X408323Y125526D02*
Y128066D01*
X414953Y127024D02*
X417493D01*
X416223Y125754D02*
Y128294D01*
X422717Y127075D02*
X425257D01*
X423987Y125805D02*
Y128345D01*
X430481Y127024D02*
X433021D01*
X431751Y125754D02*
Y128294D01*
X395810Y106367D02*
X398350D01*
X397080Y105097D02*
Y107637D01*
X458241Y82958D02*
X460781D01*
X459511Y81688D02*
Y84228D01*
X451184Y82958D02*
X453724D01*
X452454Y81688D02*
Y84228D01*
X449626Y64104D02*
X452166D01*
X450896Y62834D02*
Y65374D01*
X440898Y64104D02*
X443438D01*
X442168Y62834D02*
Y65374D01*
X438102Y140800D02*
X440642D01*
X439372Y139530D02*
Y142070D01*
X453001Y140800D02*
X455541D01*
X454271Y139530D02*
Y142070D01*
X327551Y259864D02*
X330091D01*
X328821Y258594D02*
Y261134D01*
X327551Y266769D02*
X330091D01*
X328821Y265499D02*
Y268039D01*
X327551Y252959D02*
X330091D01*
X328821Y251689D02*
Y254229D01*
X327551Y225384D02*
X330091D01*
X328821Y224114D02*
Y226654D01*
X327551Y218479D02*
X330091D01*
X328821Y217209D02*
Y219749D01*
X327551Y211574D02*
X330091D01*
X328821Y210304D02*
Y212844D01*
X327551Y232289D02*
X330091D01*
X328821Y231019D02*
Y233559D01*
X327551Y155992D02*
X330091D01*
X328821Y154722D02*
Y157262D01*
X327551Y176706D02*
X330091D01*
X328821Y175436D02*
Y177976D01*
X327551Y183611D02*
X330091D01*
X328821Y182341D02*
Y184881D01*
X304031Y90931D02*
X306571D01*
X305301Y89661D02*
Y92201D01*
X328360Y139777D02*
X330900D01*
X329630Y138507D02*
Y141047D01*
X327551Y76263D02*
X330091D01*
X328821Y74993D02*
Y77533D01*
X327551Y69358D02*
X330091D01*
X328821Y68088D02*
Y70628D01*
X327551Y62453D02*
X330091D01*
X328821Y61184D02*
Y63724D01*
X327551Y83168D02*
X330091D01*
X328821Y81898D02*
Y84438D01*
X294785Y276006D02*
X297325D01*
X296055Y274736D02*
Y277276D01*
X294785Y255292D02*
X297325D01*
X296055Y254022D02*
Y256562D01*
X294785Y262197D02*
X297325D01*
X296055Y260927D02*
Y263467D01*
X294785Y269101D02*
X297325D01*
X296055Y267831D02*
Y270371D01*
X294785Y248387D02*
X297325D01*
X296055Y247117D02*
Y249657D01*
X294785Y200098D02*
X297325D01*
X296055Y198827D02*
Y201367D01*
X294785Y220812D02*
X297325D01*
X296055Y219542D02*
Y222082D01*
X294785Y213907D02*
X297325D01*
X296055Y212637D02*
Y215177D01*
X294785Y227717D02*
X297325D01*
X296055Y226447D02*
Y228987D01*
X294785Y151420D02*
X297325D01*
X296055Y150150D02*
Y152690D01*
X294785Y172134D02*
X297325D01*
X296055Y170864D02*
Y173404D01*
X294785Y165229D02*
X297325D01*
X296055Y163959D02*
Y166499D01*
X294785Y179039D02*
X297325D01*
X296055Y177769D02*
Y180309D01*
X294785Y103522D02*
X297325D01*
X296055Y102252D02*
Y104792D01*
X294785Y124236D02*
X297325D01*
X296055Y122966D02*
Y125506D01*
X294785Y110426D02*
X297325D01*
X296055Y109156D02*
Y111696D01*
X294785Y131141D02*
X297325D01*
X296055Y129871D02*
Y132411D01*
X294785Y56057D02*
X297325D01*
X296055Y54787D02*
Y57327D01*
X294785Y76771D02*
X297325D01*
X296055Y75501D02*
Y78041D01*
X294785Y69866D02*
X297325D01*
X296055Y68596D02*
Y71136D01*
X294785Y83676D02*
X297325D01*
X296055Y82406D02*
Y84946D01*
X262781Y276260D02*
X265321D01*
X264051Y274990D02*
Y277530D01*
X262781Y255546D02*
X265321D01*
X264051Y254276D02*
Y256816D01*
X262781Y269355D02*
X265321D01*
X264051Y268085D02*
Y270625D01*
X262781Y248641D02*
X265321D01*
X264051Y247371D02*
Y249911D01*
X262781Y200352D02*
X265321D01*
X264051Y199081D02*
Y201621D01*
X262781Y221066D02*
X265321D01*
X264051Y219796D02*
Y222336D01*
X262781Y214161D02*
X265321D01*
X264051Y212891D02*
Y215431D01*
X262781Y227971D02*
X265321D01*
X264051Y226701D02*
Y229241D01*
X262781Y103776D02*
X265321D01*
X264051Y102506D02*
Y105046D01*
X262781Y124490D02*
X265321D01*
X264051Y123220D02*
Y125760D01*
X262781Y110680D02*
X265321D01*
X264051Y109410D02*
Y111950D01*
X262781Y131395D02*
X265321D01*
X264051Y130125D02*
Y132665D01*
X262781Y77025D02*
X265321D01*
X264051Y75755D02*
Y78295D01*
X262781Y70120D02*
X265321D01*
X264051Y68850D02*
Y71390D01*
X262781Y83930D02*
X265321D01*
X264051Y82660D02*
Y85200D01*
X228999Y277022D02*
X231539D01*
X230269Y275752D02*
Y278292D01*
X228999Y256308D02*
X231539D01*
X230269Y255038D02*
Y257578D01*
X228999Y263213D02*
X231539D01*
X230269Y261943D02*
Y264483D01*
X228999Y270117D02*
X231539D01*
X230269Y268847D02*
Y271387D01*
X228999Y249403D02*
X231539D01*
X230269Y248133D02*
Y250673D01*
X228999Y201113D02*
X231539D01*
X230269Y199844D02*
Y202383D01*
X228999Y221828D02*
X231539D01*
X230269Y220558D02*
Y223098D01*
X228999Y214923D02*
X231539D01*
X230269Y213653D02*
Y216193D01*
X228999Y228733D02*
X231539D01*
X230269Y227463D02*
Y230003D01*
X228999Y152436D02*
X231539D01*
X230269Y151166D02*
Y153706D01*
X228999Y173150D02*
X231539D01*
X230269Y171880D02*
Y174420D01*
X228999Y166245D02*
X231539D01*
X230269Y164975D02*
Y167515D01*
X228999Y180055D02*
X231539D01*
X230269Y178785D02*
Y181325D01*
X228999Y104538D02*
X231539D01*
X230269Y103268D02*
Y105808D01*
X228999Y125252D02*
X231539D01*
X230269Y123982D02*
Y126522D01*
X228999Y111442D02*
X231539D01*
X230269Y110172D02*
Y112712D01*
X228999Y132157D02*
X231539D01*
X230269Y130887D02*
Y133427D01*
X229140Y74925D02*
X231680D01*
X230410Y73655D02*
Y76195D01*
X228999Y63977D02*
X231539D01*
X230269Y62708D02*
Y65248D01*
X195760Y87948D02*
X198300D01*
X197030Y86678D02*
Y89218D01*
X195979Y64246D02*
X198519D01*
X197249Y62976D02*
Y65516D01*
X196157Y75388D02*
X198697D01*
X197428Y74118D02*
Y76658D01*
X195979Y132425D02*
X198519D01*
X197249Y131155D02*
Y133695D01*
X195979Y111711D02*
X198519D01*
X197249Y110441D02*
Y112981D01*
X195979Y125520D02*
X198519D01*
X197249Y124250D02*
Y126790D01*
X195979Y104806D02*
X198519D01*
X197249Y103536D02*
Y106076D01*
X195979Y180323D02*
X198519D01*
X197249Y179053D02*
Y181593D01*
X195979Y166514D02*
X198519D01*
X197249Y165244D02*
Y167784D01*
X195979Y173418D02*
X198519D01*
X197249Y172148D02*
Y174688D01*
X195979Y152704D02*
X198519D01*
X197249Y151434D02*
Y153974D01*
X195979Y229001D02*
X198519D01*
X197249Y227731D02*
Y230271D01*
X195979Y215191D02*
X198519D01*
X197249Y213921D02*
Y216461D01*
X195979Y222096D02*
X198519D01*
X197249Y220826D02*
Y223366D01*
X195979Y201382D02*
X198519D01*
X197249Y200112D02*
Y202652D01*
X195979Y249671D02*
X198519D01*
X197249Y248401D02*
Y250941D01*
X195979Y263481D02*
X198519D01*
X197249Y262211D02*
Y264751D01*
X195979Y256576D02*
X198519D01*
X197249Y255306D02*
Y257846D01*
X309009Y42087D02*
X311549D01*
X310279Y40817D02*
Y43357D01*
X278275Y93141D02*
X283355D01*
X280815Y90601D02*
Y95681D01*
X211800Y93395D02*
X216880D01*
X214340Y90855D02*
Y95935D01*
X228419Y93395D02*
X233499D01*
X230959Y90855D02*
Y95935D01*
X261656Y93141D02*
X266736D01*
X264196Y90601D02*
Y95681D01*
X245037Y93395D02*
X250117D01*
X247577Y90855D02*
Y95935D01*
X178562Y93141D02*
X183642D01*
X181102Y90601D02*
Y95681D01*
X326460Y93141D02*
X331539D01*
X328999Y90601D02*
Y95681D01*
X294741Y93141D02*
X299821D01*
X297281Y90601D02*
Y95681D01*
X310527Y93141D02*
X315607D01*
X313067Y90601D02*
Y95681D01*
X285387Y139623D02*
X290467D01*
X287927Y137083D02*
Y142163D01*
X218912Y139877D02*
X223992D01*
X221452Y137337D02*
Y142417D01*
X235531Y139877D02*
X240611D01*
X238071Y137337D02*
Y142417D01*
X268768Y139623D02*
X273848D01*
X271308Y137083D02*
Y142163D01*
X252150Y139877D02*
X257229D01*
X254690Y137337D02*
Y142417D01*
X202293Y139623D02*
X207373D01*
X204833Y137083D02*
Y142163D01*
X185674Y139623D02*
X190754D01*
X188214Y137083D02*
Y142163D01*
X169055Y139623D02*
X174135D01*
X171595Y137083D02*
Y142163D01*
X299535Y139978D02*
X304615D01*
X302075Y137438D02*
Y142518D01*
X318650Y144703D02*
X323730D01*
X321190Y142163D02*
Y147243D01*
X286406Y193462D02*
X291486D01*
X288946Y190922D02*
Y196002D01*
X219931Y193716D02*
X225011D01*
X222471Y191176D02*
Y196256D01*
X236550Y193716D02*
X241630D01*
X239090Y191176D02*
Y196256D01*
X269788Y193462D02*
X274868D01*
X272328Y190922D02*
Y196002D01*
X253169Y193716D02*
X258249D01*
X255709Y191176D02*
Y196256D01*
X203312Y193462D02*
X208392D01*
X205852Y190922D02*
Y196002D01*
X186693Y193462D02*
X191773D01*
X189233Y190922D02*
Y196002D01*
X170075Y193462D02*
X175154D01*
X172614Y190922D02*
Y196002D01*
X329406Y194538D02*
X334486D01*
X331945Y191998D02*
Y197078D01*
X302872Y193462D02*
X307952D01*
X305412Y190922D02*
Y196002D01*
X318659Y193462D02*
X323739D01*
X321199Y190922D02*
Y196002D01*
X192540Y239948D02*
X197620D01*
X195080Y237408D02*
Y242488D01*
X327037Y239699D02*
X332117D01*
X329577Y237159D02*
Y242239D01*
X311251Y239699D02*
X316331D01*
X313791Y237159D02*
Y242239D01*
X178453Y239699D02*
X183533D01*
X180993Y237159D02*
Y242239D01*
X211691Y239699D02*
X216771D01*
X214231Y237159D02*
Y242239D01*
X261548Y239953D02*
X266628D01*
X264088Y237413D02*
Y242493D01*
X278166Y239699D02*
X283246D01*
X280706Y237159D02*
Y242239D01*
X244929Y239953D02*
X250009D01*
X247469Y237413D02*
Y242493D01*
X228310Y239953D02*
X233390D01*
X230850Y237413D02*
Y242493D01*
X294785Y239699D02*
X299865D01*
X297325Y237159D02*
Y242239D01*
X83915Y187851D02*
X86455D01*
X85185Y186581D02*
Y189121D01*
X83984Y193906D02*
X86524D01*
X85254Y192636D02*
Y195176D01*
X121590Y322318D02*
X124130D01*
X122860Y321048D02*
Y323588D01*
X112850Y322428D02*
X115390D01*
X114120Y321158D02*
Y323698D01*
X104735Y322318D02*
X107275D01*
X106005Y321048D02*
Y323588D01*
X95710Y322318D02*
X98250D01*
X96980Y321048D02*
Y323588D01*
X85450Y322428D02*
X87991D01*
X86721Y321158D02*
Y323698D01*
X76716Y321884D02*
X79256D01*
X77986Y320614D02*
Y323154D01*
X68336Y320643D02*
X70876D01*
X69606Y319373D02*
Y321913D01*
X59294Y318488D02*
X61834D01*
X60564Y317218D02*
Y319758D01*
X50706Y316264D02*
X53246D01*
X51976Y314994D02*
Y317534D01*
X42118Y313978D02*
X44658D01*
X43388Y312708D02*
Y315248D01*
X-63412Y238519D02*
X-60872D01*
X-62142Y237249D02*
Y239789D01*
X-42935Y246906D02*
X-40395D01*
X-41665Y245636D02*
Y248176D01*
X-64180Y22224D02*
X-61640D01*
X-62910Y20954D02*
Y23494D01*
X163721Y102979D02*
X166261D01*
X164991Y101709D02*
Y104249D01*
X163721Y109820D02*
X166261D01*
X164991Y108550D02*
Y111090D01*
X163721Y75615D02*
X166261D01*
X164991Y74345D02*
Y76885D01*
X163333Y85323D02*
X165873D01*
X164603Y84053D02*
Y86593D01*
X163213Y93141D02*
X165753D01*
X164483Y91871D02*
Y94411D01*
X163721Y171525D02*
X166261D01*
X164991Y170255D02*
Y172795D01*
X163721Y123875D02*
X166261D01*
X164991Y122605D02*
Y125145D01*
X163721Y130716D02*
X166261D01*
X164991Y129446D02*
Y131986D01*
X163721Y149783D02*
X166261D01*
X164991Y148513D02*
Y151053D01*
X163975Y211183D02*
X166515D01*
X165245Y209913D02*
Y212453D01*
X163975Y218024D02*
X166515D01*
X165245Y216754D02*
Y219294D01*
X163975Y224865D02*
X166515D01*
X165245Y223595D02*
Y226135D01*
X163975Y178485D02*
X166515D01*
X165245Y177215D02*
Y179755D01*
X163975Y185326D02*
X166515D01*
X165245Y184056D02*
Y186596D01*
X163975Y203631D02*
X166515D01*
X165245Y202361D02*
Y204901D01*
X163009Y278324D02*
X165549D01*
X164279Y277054D02*
Y279594D01*
X402487Y92682D02*
X405028D01*
X403758Y91412D02*
Y93952D01*
X398322Y98434D02*
X400863D01*
X399593Y97164D02*
Y99704D01*
X356937Y319584D02*
X359477D01*
X358207Y318314D02*
Y320854D01*
X356937Y312204D02*
X359477D01*
X358207Y310935D02*
Y313475D01*
X396934Y115160D02*
X399474D01*
X398204Y113890D02*
Y116430D01*
X402355Y120118D02*
X404895D01*
X403625Y118848D02*
Y121388D01*
X402062Y154543D02*
X404602D01*
X403332Y153273D02*
Y155813D01*
X400266Y162920D02*
X402805D01*
X401535Y161651D02*
Y164191D01*
X401952Y171102D02*
X404492D01*
X403222Y169832D02*
Y172372D01*
X260108Y42924D02*
X262648D01*
X261378Y41655D02*
Y44194D01*
X453001Y183100D02*
X455541D01*
X454271Y181830D02*
Y184370D01*
X437070Y82958D02*
X439610D01*
X438340Y81688D02*
Y84228D01*
X75075Y229920D02*
X77615D01*
X76345Y228650D02*
Y231190D01*
M02*
