G04*
G04 #@! TF.GenerationSoftware,Altium Limited,Altium Designer,22.2.1 (43)*
G04*
G04 Layer_Physical_Order=2*
G04 Layer_Color=36540*
%FSLAX25Y25*%
%MOIN*%
G70*
G04*
G04 #@! TF.SameCoordinates,78EA78F8-FF88-446E-916A-2EA80F8DE5DB*
G04*
G04*
G04 #@! TF.FilePolarity,Positive*
G04*
G01*
G75*
%ADD14C,0.01000*%
%ADD146C,0.17717*%
%ADD147C,0.01600*%
%ADD148C,0.05118*%
%ADD150C,0.02400*%
G36*
X308869Y155111D02*
X309320Y155106D01*
X310202Y154922D01*
X311032Y154571D01*
X311778Y154066D01*
X312413Y153425D01*
X312910Y152673D01*
X313253Y151840D01*
X313428Y150955D01*
Y150505D01*
X313428Y123639D01*
X313602Y123218D01*
X315246Y121574D01*
Y108609D01*
X315246Y108609D01*
X315246Y108608D01*
X315247Y108264D01*
X315119Y107624D01*
X314869Y107020D01*
X314506Y106476D01*
X314044Y106014D01*
X313500Y105651D01*
X312896Y105401D01*
X312255Y105273D01*
X311928Y105273D01*
X307658Y105274D01*
X307633Y105264D01*
X307608Y105272D01*
X307325Y105248D01*
X307284Y105227D01*
X307238Y105234D01*
X306707Y105109D01*
X306658Y105074D01*
X306597Y105071D01*
X306100Y104845D01*
X306059Y104801D01*
X305999Y104787D01*
X305556Y104468D01*
X305524Y104416D01*
X305469Y104391D01*
X305097Y103991D01*
X305075Y103934D01*
X305026Y103899D01*
X304738Y103435D01*
X304729Y103375D01*
X304687Y103330D01*
X304496Y102819D01*
X304498Y102758D01*
X304466Y102706D01*
X304378Y102167D01*
X304389Y102122D01*
X304371Y102080D01*
X304367Y101807D01*
X304368Y101803D01*
X304367Y101798D01*
X304366Y55135D01*
Y54937D01*
X304381Y54902D01*
X304370Y54865D01*
X304434Y54345D01*
X304477Y54269D01*
X304478Y54183D01*
X304888Y53223D01*
X304970Y53144D01*
X305013Y53038D01*
X305748Y52297D01*
X305853Y52253D01*
X305932Y52171D01*
X306889Y51753D01*
X306975Y51752D01*
X307050Y51708D01*
X307570Y51641D01*
X307610Y51651D01*
X307647Y51636D01*
X311847Y51635D01*
X311880Y51649D01*
X311898Y51642D01*
X311917D01*
X311923Y51640D01*
X311937Y51642D01*
X312225Y51642D01*
X312866Y51514D01*
X313470Y51264D01*
X314014Y50901D01*
X314476Y50439D01*
X314839Y49895D01*
X315089Y49291D01*
X315217Y48650D01*
X315217Y48323D01*
X315216Y35341D01*
X313572Y33697D01*
X313398Y33276D01*
Y32908D01*
X312588Y32819D01*
X309819Y32248D01*
X307116Y31419D01*
X304504Y30338D01*
X302005Y29016D01*
X299642Y27464D01*
X297436Y25696D01*
X295406Y23728D01*
X293571Y21578D01*
X292038Y19394D01*
X267026D01*
X267026Y19394D01*
X266678Y19394D01*
X265997Y19258D01*
X265354Y18992D01*
X264776Y18606D01*
X264284Y18114D01*
X263898Y17536D01*
X263632Y16894D01*
X263496Y16212D01*
X263496Y15864D01*
X263496Y14130D01*
X263634Y13436D01*
X263905Y12783D01*
X264298Y12195D01*
X264798Y11695D01*
X265386Y11302D01*
X266039Y11032D01*
X266733Y10893D01*
X287915D01*
X288225Y10501D01*
X287820Y8803D01*
X287426Y6003D01*
X287299Y3179D01*
X287321Y2726D01*
X286976Y2364D01*
X116468Y2362D01*
X113626Y6855D01*
X113570Y6895D01*
X113543Y6958D01*
X113390Y7022D01*
X113253Y7118D01*
X113186Y7106D01*
X113122Y7133D01*
X109678D01*
X109471Y7633D01*
X109818Y7980D01*
X110201Y8643D01*
X110400Y9383D01*
Y10149D01*
X110201Y10889D01*
X109818Y11552D01*
X109277Y12094D01*
X108613Y12477D01*
X107874Y12675D01*
X107108D01*
X106368Y12477D01*
X105704Y12094D01*
X105163Y11552D01*
X104780Y10889D01*
X104581Y10149D01*
Y9383D01*
X104780Y8643D01*
X105163Y7980D01*
X105510Y7633D01*
X105303Y7133D01*
X99678Y7133D01*
X99471Y7633D01*
X99818Y7980D01*
X100201Y8643D01*
X100400Y9383D01*
Y10149D01*
X100201Y10889D01*
X99818Y11552D01*
X99277Y12094D01*
X98614Y12477D01*
X97874Y12675D01*
X97108D01*
X96368Y12477D01*
X95704Y12094D01*
X95163Y11552D01*
X94780Y10889D01*
X94582Y10149D01*
Y9383D01*
X94780Y8643D01*
X95163Y7980D01*
X95510Y7633D01*
X95303Y7133D01*
X89872D01*
X89665Y7633D01*
X90505Y8473D01*
X90505Y10973D01*
X88978Y12500D01*
X85733D01*
X84605Y11373D01*
X84605Y8573D01*
X85878Y7300D01*
X85911D01*
X86106Y6800D01*
X82019Y2369D01*
X78795Y2373D01*
X78758Y2358D01*
X78740Y2365D01*
X78719D01*
X78712Y2367D01*
X78699Y2365D01*
X76184Y2365D01*
X71084Y2707D01*
X66018Y3389D01*
X61010Y4408D01*
X56080Y5760D01*
X51252Y7438D01*
X46547Y9435D01*
X41985Y11742D01*
X37589Y14349D01*
X33376Y17244D01*
X29366Y20415D01*
X25578Y23846D01*
X24051Y25427D01*
X24724Y27727D01*
X24722Y27745D01*
X24733Y27760D01*
X24698Y27969D01*
X24675Y28180D01*
X24661Y28192D01*
X24658Y28209D01*
X7819Y55219D01*
X7670Y55326D01*
X7539Y55455D01*
X5773Y56177D01*
X5324Y57600D01*
X4345Y61356D01*
X3558Y65158D01*
X2965Y68994D01*
X2568Y72855D01*
X2367Y76732D01*
X2364Y80614D01*
X2558Y84492D01*
X2948Y88354D01*
X3534Y92191D01*
X4315Y95994D01*
X5287Y99752D01*
X5727Y101153D01*
X8373Y102187D01*
X8505Y102314D01*
X8656Y102418D01*
X25592Y128498D01*
X25631Y128707D01*
X25681Y128913D01*
X25040Y133050D01*
X26536Y134544D01*
X30294Y137836D01*
X34259Y140875D01*
X38415Y143649D01*
X42743Y146146D01*
X47225Y148354D01*
X51841Y150265D01*
X56573Y151870D01*
X61399Y153162D01*
X66299Y154136D01*
X71253Y154788D01*
X76239Y155115D01*
X78737Y155115D01*
X82221Y155115D01*
X86030Y151306D01*
X86450Y151132D01*
X113901D01*
X113928Y151143D01*
X113956Y151135D01*
X114135Y151229D01*
X114322Y151306D01*
X114333Y151333D01*
X114359Y151347D01*
X117490Y155119D01*
X139190Y155118D01*
X228621Y155118D01*
Y145537D01*
X234886D01*
Y126907D01*
X247375D01*
Y145537D01*
X248921D01*
Y155118D01*
X308782D01*
X308795Y155116D01*
X308802Y155118D01*
X308822D01*
X308837Y155124D01*
X308869Y155111D01*
D02*
G37*
%LPC*%
G36*
X160132Y149746D02*
X159674D01*
X159252Y149571D01*
X159180Y149499D01*
X158853Y149295D01*
X158527Y149499D01*
X158455Y149571D01*
X158032Y149746D01*
X157574D01*
X157152Y149571D01*
X156828Y149248D01*
X156653Y148825D01*
Y148368D01*
X156828Y147945D01*
X157152Y147621D01*
X157574Y147446D01*
X158032D01*
X158455Y147621D01*
X158527Y147693D01*
X158853Y147898D01*
X159180Y147693D01*
X159252Y147621D01*
X159674Y147446D01*
X160132D01*
X160555Y147621D01*
X160878Y147945D01*
X161053Y148368D01*
Y148825D01*
X160878Y149248D01*
X160555Y149571D01*
X160132Y149746D01*
D02*
G37*
G36*
X164940Y150851D02*
X164482D01*
X164060Y150676D01*
X163736Y150352D01*
X163561Y149929D01*
Y149472D01*
X163736Y149049D01*
X164060Y148726D01*
X164482Y148551D01*
X164940D01*
X165363Y148726D01*
X165686Y149049D01*
X165861Y149472D01*
Y149929D01*
X165686Y150352D01*
X165363Y150676D01*
X164940Y150851D01*
D02*
G37*
G36*
X204339Y148961D02*
X203882D01*
X203459Y148786D01*
X203135Y148463D01*
X202960Y148040D01*
Y147582D01*
X203135Y147160D01*
X203459Y146836D01*
X203882Y146661D01*
X204339D01*
X204762Y146836D01*
X205085Y147160D01*
X205260Y147582D01*
Y148040D01*
X205085Y148463D01*
X204762Y148786D01*
X204339Y148961D01*
D02*
G37*
G36*
X64952Y147960D02*
X64495D01*
X64072Y147785D01*
X63748Y147461D01*
X63573Y147039D01*
Y146581D01*
X63748Y146159D01*
X64072Y145835D01*
X64495Y145660D01*
X64952D01*
X65375Y145835D01*
X65698Y146159D01*
X65873Y146581D01*
Y147039D01*
X65698Y147461D01*
X65375Y147785D01*
X64952Y147960D01*
D02*
G37*
G36*
X174487Y149346D02*
X174029D01*
X173607Y149171D01*
X173283Y148848D01*
X173108Y148425D01*
Y147968D01*
X173283Y147545D01*
X173607Y147221D01*
X174029Y147046D01*
X174319D01*
X174499Y147029D01*
X174781Y146627D01*
Y146544D01*
X174956Y146121D01*
X175280Y145797D01*
X175702Y145622D01*
X176160D01*
X176583Y145797D01*
X176906Y146121D01*
X177081Y146544D01*
Y147001D01*
X176906Y147424D01*
X176583Y147747D01*
X176160Y147922D01*
X175870D01*
X175690Y147940D01*
X175408Y148342D01*
Y148425D01*
X175233Y148848D01*
X174910Y149171D01*
X174487Y149346D01*
D02*
G37*
G36*
X68142Y147742D02*
X67685D01*
X67262Y147567D01*
X66939Y147243D01*
X66763Y146820D01*
Y146363D01*
X66939Y145940D01*
X67262Y145617D01*
X67685Y145442D01*
X68142D01*
X68565Y145617D01*
X68888Y145940D01*
X69063Y146363D01*
Y146820D01*
X68888Y147243D01*
X68565Y147567D01*
X68142Y147742D01*
D02*
G37*
G36*
X173091Y146671D02*
X172633D01*
X172211Y146496D01*
X171887Y146173D01*
X171712Y145750D01*
Y145293D01*
X171887Y144870D01*
X172211Y144546D01*
X172633Y144371D01*
X173091D01*
X173514Y144546D01*
X173837Y144870D01*
X174012Y145293D01*
Y145750D01*
X173837Y146173D01*
X173514Y146496D01*
X173091Y146671D01*
D02*
G37*
G36*
X195603Y145618D02*
X195145D01*
X194723Y145443D01*
X194399Y145120D01*
X194224Y144697D01*
Y144240D01*
X194399Y143817D01*
X194723Y143493D01*
X195145Y143318D01*
X195603D01*
X196026Y143493D01*
X196349Y143817D01*
X196524Y144240D01*
Y144697D01*
X196349Y145120D01*
X196026Y145443D01*
X195603Y145618D01*
D02*
G37*
G36*
X198826Y145488D02*
X198368D01*
X197946Y145313D01*
X197622Y144990D01*
X197447Y144567D01*
Y144109D01*
X197622Y143687D01*
X197946Y143363D01*
X198368Y143188D01*
X198826D01*
X199249Y143363D01*
X199572Y143687D01*
X199747Y144109D01*
Y144567D01*
X199572Y144990D01*
X199249Y145313D01*
X198826Y145488D01*
D02*
G37*
G36*
X191836D02*
X191378D01*
X190956Y145313D01*
X190632Y144990D01*
X190457Y144567D01*
Y144109D01*
X190632Y143687D01*
X190956Y143363D01*
X191378Y143188D01*
X191836D01*
X192259Y143363D01*
X192582Y143687D01*
X192757Y144109D01*
Y144567D01*
X192582Y144990D01*
X192259Y145313D01*
X191836Y145488D01*
D02*
G37*
G36*
X185906Y145257D02*
X185448D01*
X185026Y145082D01*
X184702Y144759D01*
X184527Y144336D01*
Y143878D01*
X184702Y143456D01*
X185026Y143132D01*
X185448Y142957D01*
X185906D01*
X186329Y143132D01*
X186408Y143212D01*
X186755Y143395D01*
X187062Y143212D01*
X187160Y143114D01*
X187582Y142939D01*
X188040D01*
X188463Y143114D01*
X188786Y143438D01*
X188961Y143860D01*
Y144318D01*
X188786Y144741D01*
X188463Y145064D01*
X188040Y145239D01*
X187582D01*
X187160Y145064D01*
X187080Y144984D01*
X186734Y144802D01*
X186426Y144984D01*
X186329Y145082D01*
X185906Y145257D01*
D02*
G37*
G36*
X157959Y146702D02*
X157501D01*
X157079Y146527D01*
X156755Y146204D01*
X156580Y145781D01*
Y145324D01*
X156633Y145195D01*
X156545Y144752D01*
X156369Y144627D01*
X156111Y144520D01*
X155787Y144197D01*
X155612Y143774D01*
Y143317D01*
X155787Y142894D01*
X156111Y142570D01*
X156533Y142395D01*
X156991D01*
X157414Y142570D01*
X157737Y142894D01*
X157912Y143317D01*
Y143774D01*
X157859Y143902D01*
X157948Y144346D01*
X158124Y144471D01*
X158382Y144577D01*
X158705Y144901D01*
X158880Y145324D01*
Y145781D01*
X158705Y146204D01*
X158382Y146527D01*
X157959Y146702D01*
D02*
G37*
G36*
X153557Y143653D02*
X153099D01*
X152677Y143478D01*
X152353Y143155D01*
X152178Y142732D01*
Y142274D01*
X152353Y141852D01*
X152677Y141528D01*
X153099Y141353D01*
X153557D01*
X153980Y141528D01*
X154303Y141852D01*
X154478Y142274D01*
Y142732D01*
X154303Y143155D01*
X153980Y143478D01*
X153557Y143653D01*
D02*
G37*
G36*
X169087Y143163D02*
X168629D01*
X168207Y142988D01*
X167883Y142665D01*
X167708Y142242D01*
Y141785D01*
X167883Y141362D01*
X168207Y141038D01*
X168629Y140863D01*
X169087D01*
X169510Y141038D01*
X169833Y141362D01*
X170008Y141785D01*
Y142242D01*
X169833Y142665D01*
X169510Y142988D01*
X169087Y143163D01*
D02*
G37*
G36*
X141691Y142188D02*
X141233D01*
X140811Y142013D01*
X140487Y141690D01*
X140312Y141267D01*
Y140810D01*
X140487Y140387D01*
X140811Y140063D01*
X141233Y139888D01*
X141691D01*
X142114Y140063D01*
X142437Y140387D01*
X142612Y140810D01*
Y141267D01*
X142437Y141690D01*
X142114Y142013D01*
X141691Y142188D01*
D02*
G37*
G36*
X163401Y144543D02*
X162943D01*
X162521Y144368D01*
X162197Y144045D01*
X162022Y143622D01*
Y143165D01*
X162197Y142742D01*
X162521Y142418D01*
X162652Y142364D01*
Y141823D01*
X162607Y141804D01*
X162283Y141481D01*
X162108Y141058D01*
Y140601D01*
X162283Y140178D01*
X162607Y139854D01*
X163029Y139679D01*
X163487D01*
X163910Y139854D01*
X164233Y140178D01*
X164408Y140601D01*
Y141058D01*
X164233Y141481D01*
X163910Y141804D01*
X163778Y141858D01*
Y142400D01*
X163824Y142418D01*
X164147Y142742D01*
X164322Y143165D01*
Y143622D01*
X164147Y144045D01*
X163824Y144368D01*
X163401Y144543D01*
D02*
G37*
G36*
X205625Y141896D02*
X205167D01*
X204745Y141721D01*
X204421Y141398D01*
X204246Y140975D01*
Y140518D01*
X204421Y140095D01*
X204745Y139771D01*
X205167Y139596D01*
X205625D01*
X206048Y139771D01*
X206371Y140095D01*
X206546Y140518D01*
Y140975D01*
X206371Y141398D01*
X206048Y141721D01*
X205625Y141896D01*
D02*
G37*
G36*
X157049Y141822D02*
X156591D01*
X156169Y141647D01*
X155845Y141324D01*
X155670Y140901D01*
Y140444D01*
X155845Y140021D01*
X156169Y139697D01*
X156591Y139522D01*
X157049D01*
X157472Y139697D01*
X157795Y140021D01*
X157970Y140444D01*
Y140901D01*
X157795Y141324D01*
X157472Y141647D01*
X157049Y141822D01*
D02*
G37*
G36*
X202647Y141724D02*
X202189D01*
X201767Y141549D01*
X201443Y141226D01*
X201268Y140803D01*
Y140346D01*
X201443Y139923D01*
X201767Y139599D01*
X202189Y139424D01*
X202647D01*
X203070Y139599D01*
X203393Y139923D01*
X203568Y140346D01*
Y140803D01*
X203393Y141226D01*
X203070Y141549D01*
X202647Y141724D01*
D02*
G37*
G36*
X174516Y141563D02*
X174058D01*
X173636Y141388D01*
X173312Y141065D01*
X173137Y140642D01*
Y140184D01*
X173312Y139762D01*
X173636Y139438D01*
X174058Y139263D01*
X174516D01*
X174939Y139438D01*
X175262Y139762D01*
X175437Y140184D01*
Y140642D01*
X175262Y141065D01*
X174939Y141388D01*
X174516Y141563D01*
D02*
G37*
G36*
X180024Y140755D02*
X179566D01*
X179144Y140580D01*
X178820Y140257D01*
X178645Y139834D01*
Y139376D01*
X178820Y138954D01*
X179144Y138630D01*
X179566Y138455D01*
X180024D01*
X180447Y138630D01*
X180770Y138954D01*
X180945Y139376D01*
Y139834D01*
X180770Y140257D01*
X180447Y140580D01*
X180024Y140755D01*
D02*
G37*
G36*
X102019Y138947D02*
X101562D01*
X101139Y138772D01*
X100816Y138449D01*
X100640Y138026D01*
Y137569D01*
X100816Y137146D01*
X101139Y136822D01*
X101562Y136647D01*
X102019D01*
X102442Y136822D01*
X102766Y137146D01*
X102941Y137569D01*
Y138026D01*
X102766Y138449D01*
X102442Y138772D01*
X102019Y138947D01*
D02*
G37*
G36*
X205881Y138831D02*
X205423D01*
X205001Y138656D01*
X204677Y138333D01*
X204502Y137910D01*
Y137452D01*
X204677Y137030D01*
X205001Y136706D01*
X205423Y136531D01*
X205881D01*
X206304Y136706D01*
X206627Y137030D01*
X206802Y137452D01*
Y137910D01*
X206627Y138333D01*
X206304Y138656D01*
X205881Y138831D01*
D02*
G37*
G36*
X186699Y138775D02*
X186241D01*
X185819Y138600D01*
X185495Y138277D01*
X185320Y137854D01*
Y137397D01*
X185495Y136974D01*
X185819Y136650D01*
X186241Y136475D01*
X186699D01*
X187122Y136650D01*
X187445Y136974D01*
X187620Y137397D01*
Y137854D01*
X187445Y138277D01*
X187122Y138600D01*
X186699Y138775D01*
D02*
G37*
G36*
X135132Y138704D02*
X134674D01*
X134252Y138529D01*
X133928Y138206D01*
X133753Y137783D01*
Y137326D01*
X133928Y136903D01*
X134252Y136579D01*
X134674Y136404D01*
X135132D01*
X135555Y136579D01*
X135878Y136903D01*
X136053Y137326D01*
Y137783D01*
X135878Y138206D01*
X135555Y138529D01*
X135132Y138704D01*
D02*
G37*
G36*
X202559Y138663D02*
X202101D01*
X201679Y138488D01*
X201355Y138165D01*
X201180Y137742D01*
Y137285D01*
X201355Y136862D01*
X201679Y136538D01*
X202101Y136363D01*
X202559D01*
X202982Y136538D01*
X203305Y136862D01*
X203480Y137285D01*
Y137742D01*
X203305Y138165D01*
X202982Y138488D01*
X202559Y138663D01*
D02*
G37*
G36*
X157073Y138649D02*
X156615D01*
X156193Y138474D01*
X155869Y138151D01*
X155694Y137728D01*
Y137271D01*
X155869Y136848D01*
X156193Y136524D01*
X156615Y136349D01*
X157073D01*
X157496Y136524D01*
X157819Y136848D01*
X157994Y137271D01*
Y137728D01*
X157819Y138151D01*
X157496Y138474D01*
X157073Y138649D01*
D02*
G37*
G36*
X138274Y138550D02*
X137816D01*
X137394Y138375D01*
X137070Y138052D01*
X136895Y137629D01*
Y137172D01*
X137070Y136749D01*
X137394Y136425D01*
X137816Y136250D01*
X138274D01*
X138697Y136425D01*
X139020Y136749D01*
X139195Y137172D01*
Y137629D01*
X139020Y138052D01*
X138697Y138375D01*
X138274Y138550D01*
D02*
G37*
G36*
X106238Y137639D02*
X105781D01*
X105358Y137464D01*
X105035Y137141D01*
X104860Y136718D01*
Y136261D01*
X105035Y135838D01*
X105358Y135515D01*
X105781Y135339D01*
X106238D01*
X106661Y135515D01*
X106984Y135838D01*
X107160Y136261D01*
Y136718D01*
X106984Y137141D01*
X106661Y137464D01*
X106238Y137639D01*
D02*
G37*
G36*
X178812Y135599D02*
X178354D01*
X177932Y135424D01*
X177608Y135101D01*
X177236Y135347D01*
X176813Y135522D01*
X176355D01*
X175933Y135347D01*
X175609Y135024D01*
X175434Y134601D01*
Y134144D01*
X175527Y133919D01*
X175555Y133419D01*
X175198Y133070D01*
X174712Y133114D01*
X174412Y133238D01*
X173954D01*
X173532Y133063D01*
X173208Y132740D01*
X173033Y132317D01*
Y131860D01*
X173208Y131437D01*
X173532Y131113D01*
X173954Y130938D01*
X174412D01*
X174835Y131113D01*
X175158Y131437D01*
X175680Y131389D01*
X175979Y131265D01*
X176437D01*
X176860Y131440D01*
X177183Y131764D01*
X177358Y132186D01*
Y132644D01*
X177265Y132868D01*
X177237Y133372D01*
X177608Y133688D01*
X177932Y133474D01*
X178354Y133299D01*
X178812D01*
X179235Y133474D01*
X179558Y133798D01*
X179733Y134221D01*
Y134678D01*
X179558Y135101D01*
X179235Y135424D01*
X178812Y135599D01*
D02*
G37*
G36*
X153987Y138585D02*
X153529D01*
X153107Y138410D01*
X152783Y138087D01*
X152608Y137664D01*
Y137573D01*
X152410Y137171D01*
X152146Y137123D01*
X151929D01*
X151507Y136948D01*
X151183Y136625D01*
X151008Y136202D01*
Y135745D01*
X151183Y135322D01*
X151507Y134998D01*
X151929Y134823D01*
X152387D01*
X152810Y134998D01*
X153133Y135322D01*
X153308Y135745D01*
Y135836D01*
X153506Y136238D01*
X153770Y136285D01*
X153987D01*
X154410Y136460D01*
X154733Y136784D01*
X154908Y137206D01*
Y137664D01*
X154733Y138087D01*
X154410Y138410D01*
X153987Y138585D01*
D02*
G37*
G36*
X213733Y137016D02*
X213275D01*
X212853Y136841D01*
X212529Y136518D01*
X212354Y136095D01*
Y135637D01*
X212529Y135215D01*
X212853Y134891D01*
X213275Y134716D01*
X213733D01*
X214155Y134891D01*
X214479Y135215D01*
X214654Y135637D01*
Y136095D01*
X214479Y136518D01*
X214155Y136841D01*
X213733Y137016D01*
D02*
G37*
G36*
X186636Y135673D02*
X186178D01*
X185756Y135498D01*
X185432Y135175D01*
X185257Y134752D01*
Y134295D01*
X185432Y133872D01*
X185756Y133548D01*
X186178Y133373D01*
X186636D01*
X187059Y133548D01*
X187382Y133872D01*
X187557Y134295D01*
Y134752D01*
X187382Y135175D01*
X187059Y135498D01*
X186636Y135673D01*
D02*
G37*
G36*
X183549Y135625D02*
X183091D01*
X182669Y135450D01*
X182345Y135127D01*
X182170Y134704D01*
Y134247D01*
X182345Y133824D01*
X182669Y133500D01*
X183091Y133325D01*
X183549D01*
X183972Y133500D01*
X184295Y133824D01*
X184470Y134247D01*
Y134704D01*
X184295Y135127D01*
X183972Y135450D01*
X183549Y135625D01*
D02*
G37*
G36*
X202509Y135563D02*
X202051D01*
X201629Y135388D01*
X201305Y135065D01*
X201130Y134642D01*
Y134185D01*
X201305Y133762D01*
X201629Y133438D01*
X202051Y133263D01*
X202509D01*
X202932Y133438D01*
X203255Y133762D01*
X203430Y134185D01*
Y134642D01*
X203255Y135065D01*
X202932Y135388D01*
X202509Y135563D01*
D02*
G37*
G36*
X194132Y137647D02*
X193674D01*
X193252Y137472D01*
X192928Y137149D01*
X192753Y136726D01*
Y136269D01*
X192928Y135846D01*
X192992Y135782D01*
X193208Y135455D01*
X192992Y135129D01*
X192928Y135065D01*
X192753Y134642D01*
Y134185D01*
X192928Y133762D01*
X193252Y133438D01*
X193674Y133263D01*
X194132D01*
X194555Y133438D01*
X194878Y133762D01*
X195053Y134185D01*
Y134642D01*
X194878Y135065D01*
X194814Y135129D01*
X194599Y135455D01*
X194814Y135782D01*
X194878Y135846D01*
X195053Y136269D01*
Y136726D01*
X194878Y137149D01*
X194555Y137472D01*
X194132Y137647D01*
D02*
G37*
G36*
X160148Y135563D02*
X159690D01*
X159268Y135388D01*
X158944Y135065D01*
X158769Y134642D01*
Y134185D01*
X158944Y133762D01*
X159268Y133438D01*
X159690Y133263D01*
X160148D01*
X160571Y133438D01*
X160894Y133762D01*
X161069Y134185D01*
Y134642D01*
X160894Y135065D01*
X160571Y135388D01*
X160148Y135563D01*
D02*
G37*
G36*
X108279Y135529D02*
X107821D01*
X107399Y135354D01*
X107075Y135031D01*
X106900Y134608D01*
Y134151D01*
X107075Y133728D01*
X107399Y133405D01*
X107821Y133229D01*
X108279D01*
X108701Y133405D01*
X109025Y133728D01*
X109200Y134151D01*
Y134608D01*
X109025Y135031D01*
X108701Y135354D01*
X108279Y135529D01*
D02*
G37*
G36*
X163000Y135510D02*
X162542D01*
X162120Y135335D01*
X161796Y135012D01*
X161621Y134589D01*
Y134132D01*
X161796Y133709D01*
X162120Y133385D01*
X162542Y133210D01*
X163000D01*
X163423Y133385D01*
X163746Y133709D01*
X163921Y134132D01*
Y134589D01*
X163746Y135012D01*
X163423Y135335D01*
X163000Y135510D01*
D02*
G37*
G36*
X137966Y135313D02*
X137508D01*
X137086Y135138D01*
X136762Y134815D01*
X136587Y134392D01*
Y133934D01*
X136762Y133512D01*
X137086Y133188D01*
X137508Y133013D01*
X137966D01*
X138389Y133188D01*
X138712Y133512D01*
X138887Y133934D01*
Y134392D01*
X138712Y134815D01*
X138389Y135138D01*
X137966Y135313D01*
D02*
G37*
G36*
X141224Y135256D02*
X140766D01*
X140344Y135081D01*
X140020Y134758D01*
X139845Y134335D01*
Y133878D01*
X140020Y133455D01*
X140344Y133131D01*
X140766Y132956D01*
X141224D01*
X141647Y133131D01*
X141970Y133455D01*
X142145Y133878D01*
Y134335D01*
X141970Y134758D01*
X141647Y135081D01*
X141224Y135256D01*
D02*
G37*
G36*
X151233Y134489D02*
X150775D01*
X150353Y134314D01*
X150029Y133991D01*
X149854Y133568D01*
Y133110D01*
X150029Y132688D01*
X150353Y132364D01*
X150775Y132189D01*
X151233D01*
X151656Y132364D01*
X151979Y132688D01*
X152154Y133110D01*
Y133568D01*
X151979Y133991D01*
X151656Y134314D01*
X151233Y134489D01*
D02*
G37*
G36*
X79419Y134447D02*
X78962D01*
X78539Y134272D01*
X78216Y133949D01*
X78040Y133526D01*
Y133069D01*
X78216Y132646D01*
X78539Y132322D01*
X78962Y132147D01*
X79419D01*
X79842Y132322D01*
X80165Y132646D01*
X80340Y133069D01*
Y133526D01*
X80165Y133949D01*
X79842Y134272D01*
X79419Y134447D01*
D02*
G37*
G36*
X92381Y131879D02*
X91923D01*
X91501Y131704D01*
X91232Y131436D01*
X91162Y131381D01*
X90635Y131379D01*
X90542Y131472D01*
X90119Y131647D01*
X89662D01*
X89239Y131472D01*
X88916Y131149D01*
X88740Y130726D01*
Y130322D01*
X88604Y130145D01*
X88347Y129911D01*
X87967D01*
X87544Y129736D01*
X87221Y129413D01*
X87046Y128990D01*
Y128533D01*
X87221Y128110D01*
X87399Y127931D01*
X87523Y127703D01*
X87418Y127297D01*
X87305Y127184D01*
X87129Y126761D01*
Y126304D01*
X87290Y125916D01*
X87397Y125419D01*
X87255Y125277D01*
X87074Y125096D01*
X86899Y124673D01*
Y124216D01*
X87074Y123793D01*
X87397Y123469D01*
X87820Y123294D01*
X88277D01*
X88700Y123469D01*
X89024Y123793D01*
X89199Y124216D01*
Y124673D01*
X89038Y125060D01*
X88931Y125557D01*
X89073Y125699D01*
X89254Y125881D01*
X89429Y126304D01*
Y126761D01*
X89254Y127184D01*
X89076Y127362D01*
X88952Y127591D01*
X89057Y127996D01*
X89170Y128110D01*
X89346Y128533D01*
Y128937D01*
X89482Y129114D01*
X89739Y129347D01*
X90119D01*
X90542Y129522D01*
X90811Y129791D01*
X90881Y129846D01*
X91407Y129848D01*
X91501Y129755D01*
X91923Y129579D01*
X92381D01*
X92701Y129712D01*
X93203Y129806D01*
X93527Y129483D01*
X93949Y129308D01*
X94407D01*
X94829Y129483D01*
X95153Y129806D01*
X95328Y130229D01*
Y130686D01*
X95153Y131109D01*
X94829Y131433D01*
X94407Y131608D01*
X93949D01*
X93629Y131475D01*
X93127Y131381D01*
X92803Y131704D01*
X92381Y131879D01*
D02*
G37*
G36*
X214323Y133473D02*
X213866D01*
X213443Y133298D01*
X213120Y132974D01*
X212945Y132552D01*
Y132094D01*
X213120Y131671D01*
X213443Y131348D01*
X213866Y131173D01*
X214323D01*
X214746Y131348D01*
X215069Y131671D01*
X215245Y132094D01*
Y132552D01*
X215069Y132974D01*
X214746Y133298D01*
X214323Y133473D01*
D02*
G37*
G36*
X115090Y132836D02*
X114633D01*
X114210Y132661D01*
X113887Y132338D01*
X113712Y131915D01*
Y131457D01*
X113741Y131386D01*
X113341Y131045D01*
X113069Y131157D01*
X112612D01*
X112189Y130982D01*
X111866Y130659D01*
X111691Y130236D01*
Y129779D01*
X111866Y129356D01*
X112189Y129032D01*
X112612Y128857D01*
X113069D01*
X113492Y129032D01*
X113815Y129356D01*
X113991Y129779D01*
Y130236D01*
X113961Y130307D01*
X114361Y130649D01*
X114633Y130536D01*
X115090D01*
X115513Y130711D01*
X115837Y131035D01*
X116012Y131457D01*
Y131915D01*
X115837Y132338D01*
X115513Y132661D01*
X115090Y132836D01*
D02*
G37*
G36*
X205950Y132601D02*
X205492D01*
X205070Y132426D01*
X204746Y132103D01*
X204571Y131680D01*
Y131223D01*
X204746Y130800D01*
X205070Y130476D01*
X205492Y130301D01*
X205950D01*
X206373Y130476D01*
X206696Y130800D01*
X206871Y131223D01*
Y131680D01*
X206696Y132103D01*
X206373Y132426D01*
X205950Y132601D01*
D02*
G37*
G36*
X156987Y132563D02*
X156529D01*
X156107Y132388D01*
X155783Y132065D01*
X155608Y131642D01*
Y131184D01*
X155783Y130762D01*
X156107Y130438D01*
X156529Y130263D01*
X156987D01*
X157410Y130438D01*
X157733Y130762D01*
X157908Y131184D01*
Y131642D01*
X157733Y132065D01*
X157410Y132388D01*
X156987Y132563D01*
D02*
G37*
G36*
X194232Y132447D02*
X193774D01*
X193352Y132272D01*
X193028Y131949D01*
X192853Y131526D01*
Y131069D01*
X193028Y130646D01*
X193352Y130322D01*
X193774Y130147D01*
X194232D01*
X194655Y130322D01*
X194978Y130646D01*
X195153Y131069D01*
Y131526D01*
X194978Y131949D01*
X194655Y132272D01*
X194232Y132447D01*
D02*
G37*
G36*
X153848Y132425D02*
X153390D01*
X152968Y132250D01*
X152644Y131927D01*
X152469Y131504D01*
Y131047D01*
X152644Y130624D01*
X152968Y130300D01*
X153390Y130125D01*
X153848D01*
X154271Y130300D01*
X154594Y130624D01*
X154769Y131047D01*
Y131504D01*
X154594Y131927D01*
X154271Y132250D01*
X153848Y132425D01*
D02*
G37*
G36*
X202626Y132147D02*
X202168D01*
X201746Y131972D01*
X201422Y131649D01*
X201247Y131226D01*
Y130769D01*
X201422Y130346D01*
X201746Y130022D01*
X202168Y129847D01*
X202626D01*
X203049Y130022D01*
X203372Y130346D01*
X203547Y130769D01*
Y131226D01*
X203372Y131649D01*
X203049Y131972D01*
X202626Y132147D01*
D02*
G37*
G36*
X132741Y131485D02*
X132284D01*
X131861Y131310D01*
X131537Y130986D01*
X131362Y130564D01*
Y130106D01*
X131537Y129684D01*
X131861Y129360D01*
X132284Y129185D01*
X132741D01*
X133164Y129360D01*
X133487Y129684D01*
X133662Y130106D01*
Y130564D01*
X133487Y130986D01*
X133164Y131310D01*
X132741Y131485D01*
D02*
G37*
G36*
X125323Y131479D02*
X124866D01*
X124443Y131304D01*
X124120Y130981D01*
X123945Y130558D01*
Y130101D01*
X124120Y129678D01*
X124443Y129355D01*
X124866Y129179D01*
X125323D01*
X125746Y129355D01*
X126070Y129678D01*
X126245Y130101D01*
Y130558D01*
X126070Y130981D01*
X125746Y131304D01*
X125323Y131479D01*
D02*
G37*
G36*
X175431Y130528D02*
X174973D01*
X174551Y130353D01*
X174227Y130030D01*
X174052Y129607D01*
Y129149D01*
X174227Y128727D01*
X174551Y128403D01*
X174973Y128228D01*
X175431D01*
X175854Y128403D01*
X176177Y128727D01*
X176352Y129149D01*
Y129607D01*
X176177Y130030D01*
X175854Y130353D01*
X175431Y130528D01*
D02*
G37*
G36*
X232873Y130279D02*
X232416D01*
X231993Y130104D01*
X231669Y129781D01*
X231494Y129358D01*
Y128900D01*
X231669Y128478D01*
X231993Y128154D01*
X232416Y127979D01*
X232873D01*
X233296Y128154D01*
X233619Y128478D01*
X233794Y128900D01*
Y129358D01*
X233619Y129781D01*
X233296Y130104D01*
X232873Y130279D01*
D02*
G37*
G36*
X53179Y132240D02*
X52721D01*
X52299Y132065D01*
X51975Y131741D01*
X51800Y131319D01*
Y130861D01*
X51936Y130532D01*
X51920Y130472D01*
X51779Y130225D01*
X51636Y130070D01*
X51351D01*
X50929Y129895D01*
X50605Y129571D01*
X50430Y129149D01*
Y128691D01*
X50605Y128269D01*
X50929Y127945D01*
X51351Y127770D01*
X51809D01*
X52231Y127945D01*
X52555Y128269D01*
X52730Y128691D01*
Y129149D01*
X52594Y129478D01*
X52610Y129538D01*
X52751Y129785D01*
X52893Y129940D01*
X53179D01*
X53601Y130115D01*
X53925Y130439D01*
X54100Y130861D01*
Y131319D01*
X53925Y131741D01*
X53601Y132065D01*
X53179Y132240D01*
D02*
G37*
G36*
X290622Y132174D02*
X290165D01*
X289742Y131999D01*
X289419Y131675D01*
X289244Y131252D01*
Y130795D01*
X289419Y130372D01*
X289688Y130103D01*
X289743Y129989D01*
X289745Y129506D01*
X289576Y129338D01*
X289401Y128915D01*
Y128458D01*
X289576Y128035D01*
X289900Y127711D01*
X290322Y127536D01*
X290780D01*
X291203Y127711D01*
X291526Y128035D01*
X291701Y128458D01*
Y128915D01*
X291526Y129338D01*
X291257Y129607D01*
X291202Y129721D01*
X291200Y130204D01*
X291369Y130372D01*
X291544Y130795D01*
Y131252D01*
X291369Y131675D01*
X291045Y131999D01*
X290622Y132174D01*
D02*
G37*
G36*
X178281Y129763D02*
X177823D01*
X177401Y129588D01*
X177077Y129265D01*
X176902Y128842D01*
Y128384D01*
X177077Y127962D01*
X177401Y127638D01*
X177823Y127463D01*
X178281D01*
X178704Y127638D01*
X179027Y127962D01*
X179202Y128384D01*
Y128842D01*
X179027Y129265D01*
X178704Y129588D01*
X178281Y129763D01*
D02*
G37*
G36*
X79319Y129595D02*
X78862D01*
X78439Y129420D01*
X78116Y129097D01*
X77940Y128674D01*
Y128217D01*
X78116Y127794D01*
X78439Y127470D01*
X78862Y127295D01*
X79319D01*
X79742Y127470D01*
X80066Y127794D01*
X80240Y128217D01*
Y128674D01*
X80066Y129097D01*
X79742Y129420D01*
X79319Y129595D01*
D02*
G37*
G36*
X141403Y129455D02*
X140945D01*
X140523Y129280D01*
X140199Y128957D01*
X140024Y128534D01*
Y128077D01*
X140199Y127654D01*
X140523Y127330D01*
X140945Y127155D01*
X141403D01*
X141826Y127330D01*
X142149Y127654D01*
X142324Y128077D01*
Y128534D01*
X142149Y128957D01*
X141826Y129280D01*
X141403Y129455D01*
D02*
G37*
G36*
X227259Y131163D02*
X226802D01*
X226379Y130988D01*
X226056Y130665D01*
X225881Y130242D01*
Y129785D01*
X225912Y129710D01*
X225805Y129124D01*
X225482Y128801D01*
X225307Y128378D01*
Y127921D01*
X225482Y127498D01*
X225805Y127175D01*
X226228Y127000D01*
X226685D01*
X227108Y127175D01*
X227432Y127498D01*
X227607Y127921D01*
Y128378D01*
X227576Y128453D01*
X227682Y129038D01*
X228006Y129362D01*
X228181Y129785D01*
Y130242D01*
X228006Y130665D01*
X227682Y130988D01*
X227259Y131163D01*
D02*
G37*
G36*
X183640Y129176D02*
X183182D01*
X182760Y129001D01*
X182436Y128678D01*
X182261Y128255D01*
Y127798D01*
X182436Y127375D01*
X182760Y127051D01*
X183182Y126876D01*
X183640D01*
X184063Y127051D01*
X184386Y127375D01*
X184561Y127798D01*
Y128255D01*
X184386Y128678D01*
X184063Y129001D01*
X183640Y129176D01*
D02*
G37*
G36*
X138228Y129147D02*
X137770D01*
X137348Y128972D01*
X137024Y128649D01*
X136849Y128226D01*
Y127769D01*
X137024Y127346D01*
X137348Y127022D01*
X137770Y126847D01*
X138228D01*
X138651Y127022D01*
X138974Y127346D01*
X139149Y127769D01*
Y128226D01*
X138974Y128649D01*
X138651Y128972D01*
X138228Y129147D01*
D02*
G37*
G36*
X168987Y129066D02*
X168529D01*
X168107Y128891D01*
X167783Y128568D01*
X167608Y128145D01*
Y127688D01*
X167783Y127265D01*
X168107Y126941D01*
X168529Y126766D01*
X168987D01*
X169410Y126941D01*
X169733Y127265D01*
X169908Y127688D01*
Y128145D01*
X169733Y128568D01*
X169410Y128891D01*
X168987Y129066D01*
D02*
G37*
G36*
X160259D02*
X159801D01*
X159379Y128891D01*
X159055Y128568D01*
X158880Y128145D01*
Y127688D01*
X159055Y127265D01*
X159379Y126941D01*
X159801Y126766D01*
X160259D01*
X160682Y126941D01*
X161005Y127265D01*
X161180Y127688D01*
Y128145D01*
X161005Y128568D01*
X160682Y128891D01*
X160259Y129066D01*
D02*
G37*
G36*
X205865Y128881D02*
X205407D01*
X204985Y128706D01*
X204661Y128383D01*
X204486Y127960D01*
Y127503D01*
X204661Y127080D01*
X204985Y126756D01*
X205407Y126581D01*
X205865D01*
X206288Y126756D01*
X206611Y127080D01*
X206786Y127503D01*
Y127960D01*
X206611Y128383D01*
X206288Y128706D01*
X205865Y128881D01*
D02*
G37*
G36*
X250678Y133213D02*
X250221D01*
X249798Y133038D01*
X249474Y132714D01*
X249299Y132292D01*
Y131834D01*
X249474Y131412D01*
X249798Y131088D01*
X250221Y130913D01*
X250651D01*
X250684Y130908D01*
X251121Y130555D01*
Y130382D01*
X251296Y129960D01*
X251620Y129636D01*
X252042Y129461D01*
X252174D01*
X252522Y129384D01*
X252636Y128999D01*
Y128902D01*
X252811Y128479D01*
X253134Y128156D01*
X253557Y127981D01*
X253644Y127841D01*
X253787Y127481D01*
X253645Y127136D01*
Y126679D01*
X253820Y126256D01*
X254143Y125932D01*
X254566Y125757D01*
X255023D01*
X255446Y125932D01*
X255769Y126256D01*
X255945Y126679D01*
Y127136D01*
X255769Y127559D01*
X255446Y127882D01*
X255023Y128057D01*
X254937Y128196D01*
X254793Y128557D01*
X254936Y128902D01*
Y129359D01*
X254761Y129782D01*
X254437Y130105D01*
X254015Y130281D01*
X253883D01*
X253535Y130357D01*
X253421Y130743D01*
Y130840D01*
X253246Y131263D01*
X252922Y131586D01*
X252500Y131761D01*
X252069D01*
X252036Y131766D01*
X251599Y132119D01*
Y132292D01*
X251424Y132714D01*
X251101Y133038D01*
X250678Y133213D01*
D02*
G37*
G36*
X70789Y128030D02*
X70331D01*
X69909Y127855D01*
X69585Y127531D01*
X69410Y127109D01*
Y126651D01*
X69585Y126229D01*
X69909Y125905D01*
X70331Y125730D01*
X70789D01*
X71211Y125905D01*
X71535Y126229D01*
X71710Y126651D01*
Y127109D01*
X71535Y127531D01*
X71211Y127855D01*
X70789Y128030D01*
D02*
G37*
G36*
X113935Y127981D02*
X113478D01*
X113055Y127806D01*
X112732Y127482D01*
X112557Y127060D01*
Y126602D01*
X112732Y126180D01*
X113055Y125856D01*
X113478Y125681D01*
X113935D01*
X114358Y125856D01*
X114681Y126180D01*
X114857Y126602D01*
Y127060D01*
X114681Y127482D01*
X114358Y127806D01*
X113935Y127981D01*
D02*
G37*
G36*
X49709Y127790D02*
X49251D01*
X48829Y127615D01*
X48505Y127291D01*
X48330Y126869D01*
Y126411D01*
X48505Y125989D01*
X48829Y125665D01*
X49251Y125490D01*
X49709D01*
X50131Y125665D01*
X50455Y125989D01*
X50630Y126411D01*
Y126869D01*
X50455Y127291D01*
X50131Y127615D01*
X49709Y127790D01*
D02*
G37*
G36*
X97828Y127189D02*
X97370D01*
X96947Y127014D01*
X96624Y126690D01*
X96449Y126268D01*
Y125810D01*
X96624Y125388D01*
X96947Y125064D01*
X97370Y124889D01*
X97828D01*
X98250Y125064D01*
X98574Y125388D01*
X98749Y125810D01*
Y126268D01*
X98574Y126690D01*
X98250Y127014D01*
X97828Y127189D01*
D02*
G37*
G36*
X146632Y129147D02*
X146174D01*
X145752Y128972D01*
X145428Y128649D01*
X145253Y128226D01*
Y127769D01*
X145428Y127346D01*
X145450Y127324D01*
X145730Y126997D01*
X145450Y126671D01*
X145428Y126649D01*
X145253Y126226D01*
Y125769D01*
X145428Y125346D01*
X145752Y125022D01*
X146174Y124847D01*
X146632D01*
X147055Y125022D01*
X147378Y125346D01*
X147553Y125769D01*
Y126226D01*
X147378Y126649D01*
X147356Y126671D01*
X147076Y126997D01*
X147356Y127324D01*
X147378Y127346D01*
X147553Y127769D01*
Y128226D01*
X147378Y128649D01*
X147055Y128972D01*
X146632Y129147D01*
D02*
G37*
G36*
X273378Y124693D02*
X272921D01*
X272498Y124518D01*
X272175Y124195D01*
X272121Y124065D01*
X271580D01*
X271526Y124195D01*
X271203Y124518D01*
X270780Y124693D01*
X270322D01*
X269900Y124518D01*
X269576Y124195D01*
X269401Y123772D01*
Y123315D01*
X269576Y122892D01*
X269900Y122568D01*
X270322Y122393D01*
X270780D01*
X271203Y122568D01*
X271526Y122892D01*
X271580Y123021D01*
X272121D01*
X272175Y122892D01*
X272498Y122568D01*
X272921Y122393D01*
X273378D01*
X273801Y122568D01*
X274125Y122892D01*
X274300Y123315D01*
Y123772D01*
X274125Y124195D01*
X273801Y124518D01*
X273378Y124693D01*
D02*
G37*
G36*
X154014Y126165D02*
X153556D01*
X153134Y125990D01*
X152810Y125667D01*
X152635Y125244D01*
Y124787D01*
X152810Y124364D01*
X153134Y124040D01*
X153556Y123865D01*
X154014D01*
X154437Y124040D01*
X154760Y124364D01*
X154935Y124787D01*
Y125244D01*
X154760Y125667D01*
X154437Y125990D01*
X154014Y126165D01*
D02*
G37*
G36*
X138132Y126147D02*
X137674D01*
X137252Y125972D01*
X136928Y125649D01*
X136753Y125226D01*
Y124769D01*
X136928Y124346D01*
X137252Y124022D01*
X137674Y123847D01*
X138132D01*
X138555Y124022D01*
X138878Y124346D01*
X139053Y124769D01*
Y125226D01*
X138878Y125649D01*
X138555Y125972D01*
X138132Y126147D01*
D02*
G37*
G36*
X202624Y126125D02*
X202166D01*
X201744Y125950D01*
X201420Y125627D01*
X201245Y125204D01*
Y124747D01*
X201420Y124324D01*
X201744Y124000D01*
X202166Y123825D01*
X202624D01*
X203047Y124000D01*
X203370Y124324D01*
X203545Y124747D01*
Y125204D01*
X203370Y125627D01*
X203047Y125950D01*
X202624Y126125D01*
D02*
G37*
G36*
X186823Y126063D02*
X186365D01*
X185943Y125888D01*
X185619Y125565D01*
X185444Y125142D01*
Y124685D01*
X185619Y124262D01*
X185943Y123938D01*
X186365Y123763D01*
X186823D01*
X187246Y123938D01*
X187569Y124262D01*
X187744Y124685D01*
Y125142D01*
X187569Y125565D01*
X187246Y125888D01*
X186823Y126063D01*
D02*
G37*
G36*
X183789D02*
X183331D01*
X182909Y125888D01*
X182585Y125565D01*
X182410Y125142D01*
Y124685D01*
X182585Y124262D01*
X182909Y123938D01*
X183331Y123763D01*
X183789D01*
X184212Y123938D01*
X184535Y124262D01*
X184710Y124685D01*
Y125142D01*
X184535Y125565D01*
X184212Y125888D01*
X183789Y126063D01*
D02*
G37*
G36*
X141359Y126049D02*
X140901D01*
X140479Y125874D01*
X140155Y125551D01*
X139980Y125128D01*
Y124671D01*
X140155Y124248D01*
X140479Y123924D01*
X140901Y123749D01*
X141359D01*
X141782Y123924D01*
X142105Y124248D01*
X142280Y124671D01*
Y125128D01*
X142105Y125551D01*
X141782Y125874D01*
X141359Y126049D01*
D02*
G37*
G36*
X205609Y125960D02*
X205151D01*
X204729Y125785D01*
X204405Y125462D01*
X204230Y125039D01*
Y124582D01*
X204405Y124159D01*
X204729Y123835D01*
X205151Y123660D01*
X205609D01*
X206032Y123835D01*
X206355Y124159D01*
X206530Y124582D01*
Y125039D01*
X206355Y125462D01*
X206032Y125785D01*
X205609Y125960D01*
D02*
G37*
G36*
X166423Y125907D02*
X165965D01*
X165543Y125732D01*
X165219Y125409D01*
X165044Y124986D01*
Y124529D01*
X165219Y124106D01*
X165543Y123782D01*
X165965Y123607D01*
X166423D01*
X166846Y123782D01*
X167169Y124106D01*
X167344Y124529D01*
Y124986D01*
X167169Y125409D01*
X166846Y125732D01*
X166423Y125907D01*
D02*
G37*
G36*
X108489Y125640D02*
X108031D01*
X107609Y125465D01*
X107285Y125141D01*
X107110Y124719D01*
Y124261D01*
X107285Y123839D01*
X107609Y123515D01*
X108031Y123340D01*
X108489D01*
X108911Y123515D01*
X109235Y123839D01*
X109410Y124261D01*
Y124719D01*
X109235Y125141D01*
X108911Y125465D01*
X108489Y125640D01*
D02*
G37*
G36*
X191909Y125263D02*
X191451D01*
X191029Y125088D01*
X190705Y124765D01*
X190530Y124342D01*
Y123884D01*
X190705Y123462D01*
X191029Y123138D01*
X191451Y122963D01*
X191909D01*
X192332Y123138D01*
X192655Y123462D01*
X192830Y123884D01*
Y124342D01*
X192655Y124765D01*
X192332Y125088D01*
X191909Y125263D01*
D02*
G37*
G36*
X254914Y125087D02*
X254456D01*
X254034Y124912D01*
X253710Y124588D01*
X253535Y124166D01*
Y123708D01*
X253710Y123286D01*
X254034Y122962D01*
X254456Y122787D01*
X254914D01*
X255336Y122962D01*
X255660Y123286D01*
X255835Y123708D01*
Y124166D01*
X255660Y124588D01*
X255336Y124912D01*
X254914Y125087D01*
D02*
G37*
G36*
X163763Y124063D02*
X163305D01*
X162883Y123888D01*
X162559Y123565D01*
X162384Y123142D01*
Y122685D01*
X162559Y122262D01*
X162883Y121938D01*
X163305Y121763D01*
X163763D01*
X164186Y121938D01*
X164509Y122262D01*
X164684Y122685D01*
Y123142D01*
X164509Y123565D01*
X164186Y123888D01*
X163763Y124063D01*
D02*
G37*
G36*
X223063Y123591D02*
X222606D01*
X222183Y123416D01*
X221860Y123092D01*
X221685Y122670D01*
Y122212D01*
X221860Y121790D01*
X222183Y121466D01*
X222606Y121291D01*
X223063D01*
X223486Y121466D01*
X223810Y121790D01*
X223985Y122212D01*
Y122670D01*
X223810Y123092D01*
X223486Y123416D01*
X223063Y123591D01*
D02*
G37*
G36*
X168487Y123259D02*
X168029D01*
X167607Y123084D01*
X167283Y122761D01*
X167108Y122338D01*
Y121880D01*
X167283Y121458D01*
X167607Y121134D01*
X168029Y120959D01*
X168487D01*
X168910Y121134D01*
X169233Y121458D01*
X169408Y121880D01*
Y122338D01*
X169233Y122761D01*
X168910Y123084D01*
X168487Y123259D01*
D02*
G37*
G36*
X153987Y123138D02*
X153529D01*
X153107Y122963D01*
X152783Y122640D01*
X152608Y122217D01*
Y121759D01*
X152783Y121337D01*
X153107Y121013D01*
X153529Y120838D01*
X153987D01*
X154410Y121013D01*
X154733Y121337D01*
X154908Y121759D01*
Y122217D01*
X154733Y122640D01*
X154410Y122963D01*
X153987Y123138D01*
D02*
G37*
G36*
X160343Y123119D02*
X159885D01*
X159463Y122944D01*
X159139Y122621D01*
X158964Y122198D01*
Y121741D01*
X159139Y121318D01*
X159463Y120994D01*
X159885Y120819D01*
X160343D01*
X160766Y120994D01*
X161089Y121318D01*
X161264Y121741D01*
Y122198D01*
X161089Y122621D01*
X160766Y122944D01*
X160343Y123119D01*
D02*
G37*
G36*
X137981Y123095D02*
X137523D01*
X137101Y122920D01*
X136777Y122597D01*
X136602Y122174D01*
Y121717D01*
X136777Y121294D01*
X137101Y120970D01*
X137523Y120795D01*
X137981D01*
X138404Y120970D01*
X138727Y121294D01*
X138902Y121717D01*
Y122174D01*
X138727Y122597D01*
X138404Y122920D01*
X137981Y123095D01*
D02*
G37*
G36*
X205879Y123081D02*
X205421D01*
X204999Y122906D01*
X204675Y122583D01*
X204500Y122160D01*
Y121703D01*
X204675Y121280D01*
X204999Y120956D01*
X205421Y120781D01*
X205879D01*
X206302Y120956D01*
X206625Y121280D01*
X206800Y121703D01*
Y122160D01*
X206625Y122583D01*
X206302Y122906D01*
X205879Y123081D01*
D02*
G37*
G36*
X179649Y123063D02*
X179191D01*
X178769Y122888D01*
X178445Y122565D01*
X178270Y122142D01*
Y121685D01*
X178445Y121262D01*
X178769Y120938D01*
X179191Y120763D01*
X179649D01*
X180072Y120938D01*
X180395Y121262D01*
X180570Y121685D01*
Y122142D01*
X180395Y122565D01*
X180072Y122888D01*
X179649Y123063D01*
D02*
G37*
G36*
X157055Y122990D02*
X156597D01*
X156175Y122815D01*
X155851Y122492D01*
X155676Y122069D01*
Y121612D01*
X155851Y121189D01*
X156175Y120865D01*
X156597Y120690D01*
X157055D01*
X157478Y120865D01*
X157801Y121189D01*
X157976Y121612D01*
Y122069D01*
X157801Y122492D01*
X157478Y122815D01*
X157055Y122990D01*
D02*
G37*
G36*
X202661Y122937D02*
X202203D01*
X201781Y122762D01*
X201457Y122439D01*
X201282Y122016D01*
Y121558D01*
X201457Y121136D01*
X201781Y120812D01*
X202203Y120637D01*
X202661D01*
X203084Y120812D01*
X203407Y121136D01*
X203582Y121558D01*
Y122016D01*
X203407Y122439D01*
X203084Y122762D01*
X202661Y122937D01*
D02*
G37*
G36*
X102339Y129784D02*
X101881D01*
X101458Y129609D01*
X101135Y129285D01*
X100960Y128863D01*
Y128405D01*
X101135Y127982D01*
X101202Y127916D01*
X101376Y127532D01*
X101202Y127262D01*
X101082Y127143D01*
X100907Y126720D01*
Y126263D01*
X101082Y125840D01*
X101197Y125725D01*
X101208Y125220D01*
X101145Y125125D01*
X100885Y124865D01*
X100710Y124443D01*
Y123985D01*
X100885Y123562D01*
X101209Y123239D01*
X101267Y123215D01*
X101307Y122932D01*
X101297Y122661D01*
X101016Y122380D01*
X100840Y121957D01*
Y121500D01*
X101016Y121077D01*
X101339Y120754D01*
X101762Y120579D01*
X102219D01*
X102642Y120754D01*
X102965Y121077D01*
X103141Y121500D01*
Y121957D01*
X102965Y122380D01*
X102642Y122703D01*
X102584Y122728D01*
X102544Y123011D01*
X102554Y123281D01*
X102835Y123562D01*
X103010Y123985D01*
Y124443D01*
X102835Y124865D01*
X102720Y124980D01*
X102709Y125485D01*
X102773Y125581D01*
X103032Y125840D01*
X103207Y126263D01*
Y126720D01*
X103032Y127143D01*
X102965Y127210D01*
X102791Y127594D01*
X102965Y127863D01*
X103085Y127982D01*
X103260Y128405D01*
Y128863D01*
X103085Y129285D01*
X102761Y129609D01*
X102339Y129784D01*
D02*
G37*
G36*
X72359Y121437D02*
X71902D01*
X71479Y121262D01*
X71156Y120939D01*
X70981Y120516D01*
Y120059D01*
X71156Y119636D01*
X71479Y119312D01*
X71902Y119137D01*
X72359D01*
X72782Y119312D01*
X73106Y119636D01*
X73281Y120059D01*
Y120516D01*
X73106Y120939D01*
X72782Y121262D01*
X72359Y121437D01*
D02*
G37*
G36*
X226331Y120951D02*
X225874D01*
X225451Y120776D01*
X225127Y120453D01*
X224952Y120030D01*
Y119572D01*
X225127Y119150D01*
X225451Y118826D01*
X225874Y118651D01*
X226331D01*
X226754Y118826D01*
X227077Y119150D01*
X227252Y119572D01*
Y120030D01*
X227077Y120453D01*
X226754Y120776D01*
X226331Y120951D01*
D02*
G37*
G36*
X179761Y120089D02*
X179303D01*
X178881Y119914D01*
X178557Y119591D01*
X178382Y119168D01*
Y118710D01*
X178557Y118288D01*
X178881Y117964D01*
X179303Y117789D01*
X179761D01*
X180184Y117964D01*
X180507Y118288D01*
X180682Y118710D01*
Y119168D01*
X180507Y119591D01*
X180184Y119914D01*
X179761Y120089D01*
D02*
G37*
G36*
X146558Y122167D02*
X146100D01*
X145678Y121992D01*
X145354Y121669D01*
X145179Y121246D01*
Y120789D01*
X145354Y120366D01*
X145375Y120345D01*
X145568Y119916D01*
X145375Y119692D01*
X145254Y119572D01*
X145079Y119149D01*
Y118692D01*
X145254Y118269D01*
X145578Y117945D01*
X146000Y117770D01*
X146458D01*
X146881Y117945D01*
X147204Y118269D01*
X147379Y118692D01*
Y119149D01*
X147204Y119572D01*
X147184Y119592D01*
X146990Y120022D01*
X147184Y120245D01*
X147304Y120366D01*
X147479Y120789D01*
Y121246D01*
X147304Y121669D01*
X146981Y121992D01*
X146558Y122167D01*
D02*
G37*
G36*
X193412Y119961D02*
X192954D01*
X192532Y119786D01*
X192208Y119463D01*
X192033Y119040D01*
Y118582D01*
X192208Y118160D01*
X192532Y117836D01*
X192954Y117661D01*
X193412D01*
X193835Y117836D01*
X194158Y118160D01*
X194333Y118582D01*
Y119040D01*
X194158Y119463D01*
X193835Y119786D01*
X193412Y119961D01*
D02*
G37*
G36*
X205849Y119925D02*
X205391D01*
X204969Y119750D01*
X204645Y119427D01*
X204470Y119004D01*
Y118547D01*
X204645Y118124D01*
X204969Y117800D01*
X205391Y117625D01*
X205849D01*
X206272Y117800D01*
X206595Y118124D01*
X206770Y118547D01*
Y119004D01*
X206595Y119427D01*
X206272Y119750D01*
X205849Y119925D01*
D02*
G37*
G36*
X274104Y119851D02*
X273647D01*
X273224Y119676D01*
X272901Y119352D01*
X272726Y118930D01*
Y118472D01*
X272901Y118049D01*
X273224Y117726D01*
X273647Y117551D01*
X274104D01*
X274527Y117726D01*
X274851Y118049D01*
X275026Y118472D01*
Y118930D01*
X274851Y119352D01*
X274527Y119676D01*
X274104Y119851D01*
D02*
G37*
G36*
X153987Y119725D02*
X153529D01*
X153107Y119550D01*
X152783Y119227D01*
X152608Y118804D01*
Y118347D01*
X152783Y117924D01*
X153107Y117600D01*
X153529Y117425D01*
X153987D01*
X154410Y117600D01*
X154733Y117924D01*
X154908Y118347D01*
Y118804D01*
X154733Y119227D01*
X154410Y119550D01*
X153987Y119725D01*
D02*
G37*
G36*
X160217Y119685D02*
X159759D01*
X159337Y119510D01*
X159013Y119187D01*
X158838Y118764D01*
Y118307D01*
X159013Y117884D01*
X159337Y117560D01*
X159759Y117385D01*
X160217D01*
X160640Y117560D01*
X160963Y117884D01*
X161138Y118307D01*
Y118764D01*
X160963Y119187D01*
X160640Y119510D01*
X160217Y119685D01*
D02*
G37*
G36*
X138048Y119647D02*
X137590D01*
X137168Y119472D01*
X136844Y119149D01*
X136669Y118726D01*
Y118269D01*
X136844Y117846D01*
X137168Y117522D01*
X137590Y117347D01*
X138048D01*
X138471Y117522D01*
X138794Y117846D01*
X138969Y118269D01*
Y118726D01*
X138794Y119149D01*
X138471Y119472D01*
X138048Y119647D01*
D02*
G37*
G36*
X208675Y119578D02*
X208217D01*
X207795Y119403D01*
X207471Y119080D01*
X207296Y118657D01*
Y118200D01*
X207471Y117777D01*
X207795Y117453D01*
X208217Y117278D01*
X208675D01*
X209098Y117453D01*
X209421Y117777D01*
X209596Y118200D01*
Y118657D01*
X209421Y119080D01*
X209098Y119403D01*
X208675Y119578D01*
D02*
G37*
G36*
X259914Y121741D02*
X259456D01*
X259034Y121565D01*
X258710Y121242D01*
X258535Y120819D01*
Y120362D01*
X258674Y120027D01*
X258551Y119770D01*
X258367Y119575D01*
X258000D01*
X257577Y119400D01*
X257253Y119077D01*
X257078Y118654D01*
Y118196D01*
X257253Y117774D01*
X257577Y117450D01*
X258000Y117275D01*
X258457D01*
X258880Y117450D01*
X259203Y117774D01*
X259378Y118196D01*
Y118654D01*
X259240Y118989D01*
X259363Y119246D01*
X259546Y119441D01*
X259914D01*
X260336Y119616D01*
X260660Y119939D01*
X260835Y120362D01*
Y120819D01*
X260660Y121242D01*
X260336Y121565D01*
X259914Y121741D01*
D02*
G37*
G36*
X163545Y119113D02*
X163087D01*
X162665Y118938D01*
X162341Y118615D01*
X162166Y118192D01*
Y117735D01*
X162341Y117312D01*
X162665Y116988D01*
X163087Y116813D01*
X163545D01*
X163968Y116988D01*
X164291Y117312D01*
X164466Y117735D01*
Y118192D01*
X164291Y118615D01*
X163968Y118938D01*
X163545Y119113D01*
D02*
G37*
G36*
X31725Y117016D02*
X31267D01*
X30845Y116841D01*
X30521Y116518D01*
X30494Y116451D01*
X29952D01*
X29925Y116518D01*
X29601Y116841D01*
X29179Y117016D01*
X28721D01*
X28299Y116841D01*
X27975Y116518D01*
X27948Y116451D01*
X27407D01*
X27379Y116518D01*
X27056Y116841D01*
X26633Y117016D01*
X26175D01*
X25753Y116841D01*
X25429Y116518D01*
X25402Y116451D01*
X24861D01*
X24833Y116518D01*
X24510Y116841D01*
X24087Y117016D01*
X23629D01*
X23207Y116841D01*
X22883Y116518D01*
X22708Y116095D01*
Y115637D01*
X22883Y115215D01*
X23013Y115085D01*
X23151Y114758D01*
X23013Y114431D01*
X22883Y114301D01*
X22708Y113878D01*
Y113421D01*
X22883Y112998D01*
X23207Y112675D01*
X23629Y112500D01*
X24087D01*
X24510Y112675D01*
X24833Y112998D01*
X24861Y113065D01*
X25402D01*
X25429Y112998D01*
X25753Y112675D01*
X26175Y112500D01*
X26633D01*
X27056Y112675D01*
X27379Y112998D01*
X27407Y113065D01*
X27948D01*
X27975Y112998D01*
X28299Y112675D01*
X28721Y112500D01*
X29179D01*
X29601Y112675D01*
X29925Y112998D01*
X29952Y113065D01*
X30494D01*
X30521Y112998D01*
X30845Y112675D01*
X31267Y112500D01*
X31725D01*
X32147Y112675D01*
X32471Y112998D01*
X32646Y113421D01*
Y113878D01*
X32471Y114301D01*
X32341Y114431D01*
X32204Y114758D01*
X32341Y115085D01*
X32471Y115215D01*
X32646Y115637D01*
Y116095D01*
X32471Y116518D01*
X32147Y116841D01*
X31725Y117016D01*
D02*
G37*
G36*
X190482Y118572D02*
X190024D01*
X189602Y118397D01*
X189278Y118074D01*
X189103Y117651D01*
Y117194D01*
X189278Y116771D01*
X189602Y116447D01*
X190024Y116272D01*
X190482D01*
X190905Y116447D01*
X191228Y116771D01*
X191403Y117194D01*
Y117651D01*
X191228Y118074D01*
X190905Y118397D01*
X190482Y118572D01*
D02*
G37*
G36*
X88258Y120286D02*
X87801D01*
X87378Y120111D01*
X87055Y119788D01*
X86880Y119365D01*
Y118907D01*
X87055Y118485D01*
X87378Y118161D01*
X87394Y118056D01*
X87389Y117615D01*
X87128Y117354D01*
X86953Y116931D01*
Y116474D01*
X87128Y116051D01*
X87451Y115727D01*
X87874Y115552D01*
X88331D01*
X88754Y115727D01*
X89078Y116051D01*
X89253Y116474D01*
Y116931D01*
X89078Y117354D01*
X88754Y117677D01*
X88738Y117783D01*
X88743Y118223D01*
X89005Y118485D01*
X89180Y118907D01*
Y119365D01*
X89005Y119788D01*
X88681Y120111D01*
X88258Y120286D01*
D02*
G37*
G36*
X166014Y116790D02*
X165556D01*
X165134Y116615D01*
X164810Y116292D01*
X164635Y115869D01*
Y115412D01*
X164810Y114989D01*
X165134Y114665D01*
X165556Y114490D01*
X166014D01*
X166437Y114665D01*
X166760Y114989D01*
X166935Y115412D01*
Y115869D01*
X166760Y116292D01*
X166437Y116615D01*
X166014Y116790D01*
D02*
G37*
G36*
X141151Y116775D02*
X140693D01*
X140271Y116600D01*
X139947Y116277D01*
X139772Y115854D01*
Y115397D01*
X139947Y114974D01*
X140271Y114650D01*
X140693Y114475D01*
X141151D01*
X141574Y114650D01*
X141897Y114974D01*
X142072Y115397D01*
Y115854D01*
X141897Y116277D01*
X141574Y116600D01*
X141151Y116775D01*
D02*
G37*
G36*
X202461Y116738D02*
X202003D01*
X201581Y116563D01*
X201257Y116240D01*
X201082Y115817D01*
Y115359D01*
X201257Y114937D01*
X201581Y114613D01*
X202003Y114438D01*
X202461D01*
X202884Y114613D01*
X203207Y114937D01*
X203382Y115359D01*
Y115817D01*
X203207Y116240D01*
X202884Y116563D01*
X202461Y116738D01*
D02*
G37*
G36*
X205609Y116715D02*
X205151D01*
X204729Y116540D01*
X204405Y116217D01*
X204230Y115794D01*
Y115337D01*
X204405Y114914D01*
X204729Y114590D01*
X205151Y114415D01*
X205609D01*
X206032Y114590D01*
X206355Y114914D01*
X206530Y115337D01*
Y115794D01*
X206355Y116217D01*
X206032Y116540D01*
X205609Y116715D01*
D02*
G37*
G36*
X227985Y116621D02*
X227527D01*
X227104Y116446D01*
X226781Y116122D01*
X226606Y115699D01*
Y115242D01*
X226781Y114819D01*
X227104Y114496D01*
X227527Y114321D01*
X227985D01*
X228407Y114496D01*
X228731Y114819D01*
X228906Y115242D01*
Y115699D01*
X228731Y116122D01*
X228407Y116446D01*
X227985Y116621D01*
D02*
G37*
G36*
X254809Y116303D02*
X254351D01*
X253929Y116128D01*
X253605Y115805D01*
X253430Y115382D01*
Y114925D01*
X253605Y114502D01*
X253929Y114178D01*
X254351Y114003D01*
X254809D01*
X255231Y114178D01*
X255555Y114502D01*
X255730Y114925D01*
Y115382D01*
X255555Y115805D01*
X255231Y116128D01*
X254809Y116303D01*
D02*
G37*
G36*
X257389Y114970D02*
X256931D01*
X256509Y114795D01*
X256185Y114471D01*
X256010Y114049D01*
Y113591D01*
X256185Y113169D01*
X256509Y112845D01*
X256931Y112670D01*
X257389D01*
X257811Y112845D01*
X258135Y113169D01*
X258310Y113591D01*
Y114049D01*
X258135Y114471D01*
X257811Y114795D01*
X257389Y114970D01*
D02*
G37*
G36*
X262289Y112880D02*
X261831D01*
X261409Y112705D01*
X261167Y112463D01*
X260873Y112416D01*
X260578Y112463D01*
X260336Y112705D01*
X259914Y112880D01*
X259456D01*
X259034Y112705D01*
X258710Y112381D01*
X258535Y111959D01*
Y111501D01*
X258710Y111079D01*
X259034Y110755D01*
X259456Y110580D01*
X259914D01*
X260336Y110755D01*
X260578Y110996D01*
X260873Y111044D01*
X261167Y110996D01*
X261409Y110755D01*
X261831Y110580D01*
X262289D01*
X262711Y110755D01*
X263035Y111079D01*
X263210Y111501D01*
Y111959D01*
X263035Y112381D01*
X262711Y112705D01*
X262289Y112880D01*
D02*
G37*
G36*
X179649Y114357D02*
X179191D01*
X178769Y114182D01*
X178445Y113859D01*
X178270Y113436D01*
Y112978D01*
X178445Y112556D01*
X178769Y112232D01*
X179191Y112057D01*
X179649D01*
X180072Y112232D01*
X180395Y112556D01*
X180570Y112978D01*
Y113436D01*
X180395Y113859D01*
X180072Y114182D01*
X179649Y114357D01*
D02*
G37*
G36*
X190667Y114163D02*
X190209D01*
X189787Y113988D01*
X189463Y113665D01*
X189288Y113242D01*
Y112785D01*
X189463Y112362D01*
X189787Y112038D01*
X190209Y111863D01*
X190667D01*
X191090Y112038D01*
X191413Y112362D01*
X191588Y112785D01*
Y113242D01*
X191413Y113665D01*
X191090Y113988D01*
X190667Y114163D01*
D02*
G37*
G36*
X202287Y113763D02*
X201829D01*
X201407Y113588D01*
X201083Y113265D01*
X200908Y112842D01*
Y112384D01*
X201083Y111962D01*
X201407Y111638D01*
X201829Y111463D01*
X202287D01*
X202710Y111638D01*
X203033Y111962D01*
X203208Y112384D01*
Y112842D01*
X203033Y113265D01*
X202710Y113588D01*
X202287Y113763D01*
D02*
G37*
G36*
X278929Y111830D02*
X278471D01*
X278049Y111655D01*
X278013Y111620D01*
X277687Y111362D01*
X277360Y111620D01*
X277325Y111655D01*
X276902Y111830D01*
X276445D01*
X276022Y111655D01*
X275698Y111331D01*
X275523Y110909D01*
Y110451D01*
X275698Y110029D01*
X276022Y109705D01*
X276445Y109530D01*
X276902D01*
X277325Y109705D01*
X277360Y109740D01*
X277687Y109998D01*
X278013Y109740D01*
X278049Y109705D01*
X278471Y109530D01*
X278929D01*
X279351Y109705D01*
X279675Y110029D01*
X279850Y110451D01*
Y110909D01*
X279675Y111331D01*
X279351Y111655D01*
X278929Y111830D01*
D02*
G37*
G36*
X141439Y113590D02*
X140981D01*
X140559Y113415D01*
X140235Y113092D01*
X140060Y112669D01*
Y112212D01*
X140235Y111789D01*
X140559Y111465D01*
X140981Y111290D01*
X141439D01*
X141862Y111465D01*
X142185Y111789D01*
X142360Y112212D01*
Y112669D01*
X142185Y113092D01*
X141862Y113415D01*
X141439Y113590D01*
D02*
G37*
G36*
X205609Y113566D02*
X205151D01*
X204729Y113391D01*
X204405Y113068D01*
X204230Y112645D01*
Y112188D01*
X204405Y111765D01*
X204729Y111441D01*
X205151Y111266D01*
X205609D01*
X206032Y111441D01*
X206355Y111765D01*
X206530Y112188D01*
Y112645D01*
X206355Y113068D01*
X206032Y113391D01*
X205609Y113566D01*
D02*
G37*
G36*
X208620Y113224D02*
X208162D01*
X207740Y113049D01*
X207416Y112726D01*
X207241Y112303D01*
Y111846D01*
X207416Y111423D01*
X207740Y111099D01*
X208162Y110924D01*
X208620D01*
X209043Y111099D01*
X209366Y111423D01*
X209541Y111846D01*
Y112303D01*
X209366Y112726D01*
X209043Y113049D01*
X208620Y113224D01*
D02*
G37*
G36*
X77906Y112528D02*
X77448D01*
X77026Y112353D01*
X76702Y112029D01*
X76527Y111607D01*
Y111149D01*
X76702Y110726D01*
X77026Y110403D01*
X77448Y110228D01*
X77906D01*
X78329Y110403D01*
X78652Y110726D01*
X78827Y111149D01*
Y111607D01*
X78652Y112029D01*
X78329Y112353D01*
X77906Y112528D01*
D02*
G37*
G36*
X19623Y112833D02*
X18959D01*
X18346Y112579D01*
X17876Y112110D01*
X17622Y111496D01*
Y110832D01*
X17876Y110219D01*
X18346Y109749D01*
X18959Y109495D01*
X19623D01*
X20237Y109749D01*
X20706Y110219D01*
X20960Y110832D01*
Y111496D01*
X20706Y112110D01*
X20237Y112579D01*
X19623Y112833D01*
D02*
G37*
G36*
X169562Y113782D02*
X169104D01*
X168682Y113607D01*
X168358Y113284D01*
X168183Y112861D01*
Y112404D01*
X168358Y111981D01*
X168404Y111935D01*
X168646Y111608D01*
X168404Y111282D01*
X168358Y111236D01*
X168183Y110813D01*
Y110355D01*
X168358Y109933D01*
X168682Y109609D01*
X169104Y109434D01*
X169562D01*
X169985Y109609D01*
X170308Y109933D01*
X170483Y110355D01*
Y110813D01*
X170308Y111236D01*
X170262Y111282D01*
X170021Y111608D01*
X170262Y111935D01*
X170308Y111981D01*
X170483Y112404D01*
Y112861D01*
X170308Y113284D01*
X169985Y113607D01*
X169562Y113782D01*
D02*
G37*
G36*
X150987Y113393D02*
X150529D01*
X150107Y113218D01*
X149783Y112895D01*
X149608Y112472D01*
Y112015D01*
X149783Y111592D01*
X149993Y111382D01*
X150063Y111078D01*
X149993Y110774D01*
X149783Y110565D01*
X149608Y110142D01*
Y109685D01*
X149783Y109262D01*
X150107Y108938D01*
X150529Y108763D01*
X150987D01*
X151410Y108938D01*
X151733Y109262D01*
X151908Y109685D01*
Y110142D01*
X151733Y110565D01*
X151523Y110774D01*
X151453Y111078D01*
X151523Y111382D01*
X151733Y111592D01*
X151908Y112015D01*
Y112472D01*
X151733Y112895D01*
X151410Y113218D01*
X150987Y113393D01*
D02*
G37*
G36*
X179847Y110981D02*
X179389D01*
X178967Y110806D01*
X178643Y110483D01*
X178468Y110060D01*
Y109602D01*
X178643Y109180D01*
X178967Y108856D01*
X179389Y108681D01*
X179847D01*
X180270Y108856D01*
X180593Y109180D01*
X180768Y109602D01*
Y110060D01*
X180593Y110483D01*
X180270Y110806D01*
X179847Y110981D01*
D02*
G37*
G36*
X163614Y110853D02*
X163156D01*
X162734Y110678D01*
X162410Y110355D01*
X162235Y109932D01*
Y109475D01*
X162410Y109052D01*
X162734Y108728D01*
X163156Y108553D01*
X163614D01*
X164037Y108728D01*
X164360Y109052D01*
X164535Y109475D01*
Y109932D01*
X164360Y110355D01*
X164037Y110678D01*
X163614Y110853D01*
D02*
G37*
G36*
X205609Y110416D02*
X205151D01*
X204729Y110241D01*
X204405Y109918D01*
X204230Y109495D01*
Y109038D01*
X204405Y108615D01*
X204729Y108291D01*
X205151Y108116D01*
X205609D01*
X206032Y108291D01*
X206355Y108615D01*
X206530Y109038D01*
Y109495D01*
X206355Y109918D01*
X206032Y110241D01*
X205609Y110416D01*
D02*
G37*
G36*
X202459D02*
X202001D01*
X201579Y110241D01*
X201255Y109918D01*
X201080Y109495D01*
Y109038D01*
X201255Y108615D01*
X201579Y108291D01*
X202001Y108116D01*
X202459D01*
X202882Y108291D01*
X203205Y108615D01*
X203380Y109038D01*
Y109495D01*
X203205Y109918D01*
X202882Y110241D01*
X202459Y110416D01*
D02*
G37*
G36*
X229402Y109980D02*
X228944D01*
X228522Y109805D01*
X228198Y109481D01*
X228023Y109059D01*
Y108601D01*
X228198Y108179D01*
X228522Y107855D01*
X228944Y107680D01*
X229402D01*
X229825Y107855D01*
X230148Y108179D01*
X230323Y108601D01*
Y109059D01*
X230148Y109481D01*
X229825Y109805D01*
X229402Y109980D01*
D02*
G37*
G36*
X193637Y114459D02*
X193179D01*
X192757Y114284D01*
X192433Y113961D01*
X192258Y113538D01*
Y113081D01*
X192433Y112658D01*
X192757Y112334D01*
X193179Y112159D01*
X193637D01*
X193715Y112192D01*
X193998Y111768D01*
X193783Y111553D01*
X193608Y111130D01*
Y110673D01*
X193783Y110250D01*
X194075Y109958D01*
X194087Y109734D01*
X194053Y109407D01*
X194007Y109388D01*
X193683Y109065D01*
X193508Y108642D01*
Y108185D01*
X193683Y107762D01*
X194007Y107438D01*
X194429Y107263D01*
X194887D01*
X195310Y107438D01*
X195633Y107762D01*
X195808Y108185D01*
Y108642D01*
X195633Y109065D01*
X195341Y109357D01*
X195329Y109580D01*
X195363Y109907D01*
X195410Y109926D01*
X195733Y110250D01*
X195908Y110673D01*
Y111130D01*
X195733Y111553D01*
X195410Y111876D01*
X194987Y112051D01*
X194529D01*
X194451Y112019D01*
X194168Y112443D01*
X194383Y112658D01*
X194558Y113081D01*
Y113538D01*
X194383Y113961D01*
X194060Y114284D01*
X193637Y114459D01*
D02*
G37*
G36*
X261869Y107270D02*
X261411D01*
X260989Y107095D01*
X260665Y106771D01*
X260564Y106529D01*
X260364Y106328D01*
X259990Y106267D01*
X259789Y106350D01*
X259331D01*
X258909Y106175D01*
X258585Y105851D01*
X258410Y105429D01*
Y104971D01*
X258585Y104549D01*
X258909Y104225D01*
X259205Y104102D01*
X259550Y103629D01*
Y103171D01*
X259725Y102749D01*
X260049Y102425D01*
X260471Y102250D01*
X260929D01*
X261351Y102425D01*
X261675Y102749D01*
X261850Y103171D01*
Y103629D01*
X261675Y104051D01*
X261351Y104375D01*
X261186Y104444D01*
X261206Y104748D01*
X261411Y104970D01*
X261869D01*
X262291Y105145D01*
X262615Y105469D01*
X262790Y105891D01*
Y106349D01*
X262615Y106771D01*
X262291Y107095D01*
X261869Y107270D01*
D02*
G37*
G36*
X107339Y108097D02*
X106882D01*
X106459Y107922D01*
X106136Y107599D01*
X105961Y107176D01*
Y106719D01*
X106136Y106296D01*
X106459Y105972D01*
X106882Y105797D01*
X107339D01*
X107762Y105972D01*
X108086Y106296D01*
X108261Y106719D01*
Y107176D01*
X108086Y107599D01*
X107762Y107922D01*
X107339Y108097D01*
D02*
G37*
G36*
X77906Y107279D02*
X77448D01*
X77026Y107104D01*
X76702Y106780D01*
X76527Y106357D01*
Y105900D01*
X76702Y105477D01*
X77026Y105154D01*
X77448Y104979D01*
X77906D01*
X78329Y105154D01*
X78652Y105477D01*
X78827Y105900D01*
Y106357D01*
X78652Y106780D01*
X78329Y107104D01*
X77906Y107279D01*
D02*
G37*
G36*
X138107Y107221D02*
X137649D01*
X137227Y107046D01*
X136903Y106723D01*
X136728Y106300D01*
Y105843D01*
X136903Y105420D01*
X137227Y105096D01*
X137649Y104921D01*
X138107D01*
X138530Y105096D01*
X138853Y105420D01*
X139028Y105843D01*
Y106300D01*
X138853Y106723D01*
X138530Y107046D01*
X138107Y107221D01*
D02*
G37*
G36*
X179861Y106979D02*
X179403D01*
X178981Y106804D01*
X178657Y106481D01*
X178482Y106058D01*
Y105601D01*
X178657Y105178D01*
X178981Y104854D01*
X179403Y104679D01*
X179861D01*
X180284Y104854D01*
X180607Y105178D01*
X180782Y105601D01*
Y106058D01*
X180607Y106481D01*
X180284Y106804D01*
X179861Y106979D01*
D02*
G37*
G36*
X205661Y106965D02*
X205203D01*
X204781Y106790D01*
X204457Y106467D01*
X204282Y106044D01*
Y105587D01*
X204457Y105164D01*
X204781Y104840D01*
X205203Y104665D01*
X205661D01*
X206084Y104840D01*
X206407Y105164D01*
X206582Y105587D01*
Y106044D01*
X206407Y106467D01*
X206084Y106790D01*
X205661Y106965D01*
D02*
G37*
G36*
X146600Y114152D02*
X146142D01*
X145720Y113977D01*
X145396Y113654D01*
X145221Y113231D01*
Y112774D01*
X145396Y112351D01*
X145720Y112027D01*
X145920Y111944D01*
X145919Y111404D01*
X145687Y111307D01*
X145363Y110984D01*
X145188Y110561D01*
Y110103D01*
X145363Y109681D01*
X145687Y109357D01*
X145826Y109300D01*
Y108758D01*
X145742Y108723D01*
X145418Y108400D01*
X145243Y107977D01*
Y107520D01*
X145418Y107097D01*
X145742Y106773D01*
X145932Y106304D01*
X145757Y105881D01*
Y105424D01*
X145932Y105001D01*
X146256Y104677D01*
X146678Y104502D01*
X147136D01*
X147559Y104677D01*
X147882Y105001D01*
X148057Y105424D01*
Y105881D01*
X147882Y106304D01*
X147559Y106627D01*
X147368Y107097D01*
X147543Y107520D01*
Y107977D01*
X147368Y108400D01*
X147045Y108723D01*
X146905Y108781D01*
Y109322D01*
X146990Y109357D01*
X147313Y109681D01*
X147488Y110103D01*
Y110561D01*
X147313Y110984D01*
X146990Y111307D01*
X146789Y111390D01*
X146790Y111931D01*
X147023Y112027D01*
X147346Y112351D01*
X147521Y112774D01*
Y113231D01*
X147346Y113654D01*
X147023Y113977D01*
X146600Y114152D01*
D02*
G37*
G36*
X67529Y106550D02*
X67071D01*
X66649Y106375D01*
X66325Y106051D01*
X66150Y105629D01*
Y105171D01*
X66325Y104749D01*
X66649Y104425D01*
X67071Y104250D01*
X67529D01*
X67951Y104425D01*
X68275Y104749D01*
X68450Y105171D01*
Y105629D01*
X68275Y106051D01*
X67951Y106375D01*
X67529Y106550D01*
D02*
G37*
G36*
X64540Y106150D02*
X64082D01*
X63660Y105975D01*
X63336Y105651D01*
X63161Y105229D01*
Y104771D01*
X63336Y104349D01*
X63660Y104025D01*
X64082Y103850D01*
X64540D01*
X64963Y104025D01*
X65286Y104349D01*
X65461Y104771D01*
Y105229D01*
X65286Y105651D01*
X64963Y105975D01*
X64540Y106150D01*
D02*
G37*
G36*
X288536Y103906D02*
X288078D01*
X287656Y103731D01*
X287525Y103600D01*
X287198Y103463D01*
X286872Y103600D01*
X286741Y103731D01*
X286318Y103906D01*
X285861D01*
X285438Y103731D01*
X285114Y103407D01*
X284939Y102985D01*
Y102527D01*
X285114Y102104D01*
X285151Y102068D01*
X285407Y101741D01*
X285151Y101414D01*
X285114Y101378D01*
X284939Y100955D01*
Y100497D01*
X285114Y100075D01*
X285438Y99751D01*
X285861Y99576D01*
X286318D01*
X286741Y99751D01*
X286866Y99876D01*
X287210Y100010D01*
X287516Y99873D01*
X287656Y99734D01*
X288078Y99559D01*
X288536D01*
X288959Y99734D01*
X289282Y100057D01*
X289457Y100480D01*
Y100937D01*
X289282Y101360D01*
X289236Y101406D01*
X288995Y101732D01*
X289236Y102059D01*
X289282Y102104D01*
X289457Y102527D01*
Y102985D01*
X289282Y103407D01*
X288959Y103731D01*
X288536Y103906D01*
D02*
G37*
G36*
X244126Y105361D02*
X243669D01*
X243246Y105186D01*
X242923Y104862D01*
X242748Y104439D01*
Y103982D01*
X242923Y103559D01*
X243246Y103236D01*
X243669Y103061D01*
X244126D01*
X244549Y103236D01*
X244873Y103559D01*
X245048Y103982D01*
Y104439D01*
X244873Y104862D01*
X244549Y105186D01*
X244126Y105361D01*
D02*
G37*
G36*
X131809Y105280D02*
X131351D01*
X130929Y105105D01*
X130605Y104781D01*
X130430Y104359D01*
Y103901D01*
X130605Y103479D01*
X130929Y103155D01*
X131351Y102980D01*
X131809D01*
X132231Y103155D01*
X132555Y103479D01*
X132730Y103901D01*
Y104359D01*
X132555Y104781D01*
X132231Y105105D01*
X131809Y105280D01*
D02*
G37*
G36*
X195062Y105247D02*
X194604D01*
X194182Y105072D01*
X193858Y104749D01*
X193683Y104326D01*
Y103869D01*
X193858Y103446D01*
X194182Y103122D01*
X194604Y102947D01*
X195062D01*
X195485Y103122D01*
X195808Y103446D01*
X195983Y103869D01*
Y104326D01*
X195808Y104749D01*
X195485Y105072D01*
X195062Y105247D01*
D02*
G37*
G36*
X205605Y104121D02*
X205147D01*
X204725Y103946D01*
X204401Y103623D01*
X204226Y103200D01*
Y102743D01*
X204401Y102320D01*
X204725Y101996D01*
X205147Y101821D01*
X205605D01*
X206028Y101996D01*
X206351Y102320D01*
X206526Y102743D01*
Y103200D01*
X206351Y103623D01*
X206028Y103946D01*
X205605Y104121D01*
D02*
G37*
G36*
X240728Y104070D02*
X240271D01*
X239848Y103895D01*
X239525Y103571D01*
X239350Y103149D01*
Y102691D01*
X239525Y102269D01*
X239848Y101945D01*
X240271Y101770D01*
X240728D01*
X241151Y101945D01*
X241475Y102269D01*
X241650Y102691D01*
Y103149D01*
X241475Y103571D01*
X241151Y103895D01*
X240728Y104070D01*
D02*
G37*
G36*
X157208Y104059D02*
X156751D01*
X156328Y103883D01*
X156004Y103560D01*
X155829Y103137D01*
Y102680D01*
X156004Y102257D01*
X156328Y101934D01*
X156751Y101759D01*
X157208D01*
X157631Y101934D01*
X157954Y102257D01*
X158129Y102680D01*
Y103137D01*
X157954Y103560D01*
X157631Y103883D01*
X157208Y104059D01*
D02*
G37*
G36*
X163797Y103303D02*
X163339D01*
X162917Y103128D01*
X162593Y102804D01*
X162418Y102382D01*
Y101924D01*
X162593Y101502D01*
X162917Y101178D01*
X163339Y101003D01*
X163797D01*
X164220Y101178D01*
X164543Y101502D01*
X164718Y101924D01*
Y102382D01*
X164543Y102804D01*
X164220Y103128D01*
X163797Y103303D01*
D02*
G37*
G36*
X190583Y108287D02*
X190125D01*
X189703Y108112D01*
X189379Y107789D01*
X189204Y107366D01*
Y106909D01*
X189379Y106486D01*
X189703Y106162D01*
X189865Y106095D01*
Y105554D01*
X189707Y105488D01*
X189383Y105165D01*
X189208Y104742D01*
Y104285D01*
X189383Y103862D01*
X189707Y103538D01*
X189938Y103443D01*
X189938Y102901D01*
X189907Y102888D01*
X189583Y102565D01*
X189408Y102142D01*
Y101685D01*
X189583Y101262D01*
X189907Y100938D01*
X190329Y100763D01*
X190787D01*
X191210Y100938D01*
X191533Y101262D01*
X191708Y101685D01*
Y102142D01*
X191533Y102565D01*
X191210Y102888D01*
X190978Y102984D01*
X190978Y103525D01*
X191010Y103538D01*
X191333Y103862D01*
X191508Y104285D01*
Y104742D01*
X191333Y105165D01*
X191010Y105488D01*
X190847Y105555D01*
Y106097D01*
X191006Y106162D01*
X191329Y106486D01*
X191504Y106909D01*
Y107366D01*
X191329Y107789D01*
X191006Y108112D01*
X190583Y108287D01*
D02*
G37*
G36*
X279911Y104876D02*
X279453D01*
X279030Y104701D01*
X278707Y104377D01*
X278532Y103955D01*
Y103497D01*
X278692Y103110D01*
X278563Y102849D01*
X278414Y102661D01*
X278013D01*
X277590Y102486D01*
X277267Y102162D01*
X277092Y101739D01*
Y101282D01*
X277267Y100859D01*
X277590Y100536D01*
X278013Y100361D01*
X278470D01*
X278893Y100536D01*
X279217Y100859D01*
X279392Y101282D01*
Y101739D01*
X279231Y102127D01*
X279360Y102388D01*
X279510Y102576D01*
X279911D01*
X280333Y102751D01*
X280657Y103074D01*
X280832Y103497D01*
Y103955D01*
X280657Y104377D01*
X280333Y104701D01*
X279911Y104876D01*
D02*
G37*
G36*
X12158Y102528D02*
X11700D01*
X11278Y102353D01*
X10954Y102029D01*
X10779Y101607D01*
Y101149D01*
X10954Y100726D01*
X11278Y100403D01*
X11700Y100228D01*
X12158D01*
X12581Y100403D01*
X12904Y100726D01*
X13079Y101149D01*
Y101607D01*
X12904Y102029D01*
X12581Y102353D01*
X12158Y102528D01*
D02*
G37*
G36*
X64989Y102192D02*
X64531D01*
X64108Y102017D01*
X63785Y101694D01*
X63610Y101271D01*
Y100814D01*
X63785Y100391D01*
X64108Y100067D01*
X64531Y99892D01*
X64989D01*
X65411Y100067D01*
X65735Y100391D01*
X65910Y100814D01*
Y101271D01*
X65735Y101694D01*
X65411Y102017D01*
X64989Y102192D01*
D02*
G37*
G36*
X48531Y100342D02*
X48074D01*
X47651Y100167D01*
X47366Y99881D01*
X47080Y100167D01*
X46657Y100342D01*
X46200D01*
X45777Y100167D01*
X45454Y99843D01*
X45279Y99421D01*
Y98963D01*
X45454Y98541D01*
X45543Y98452D01*
X45700Y98080D01*
X45543Y97799D01*
X45414Y97670D01*
X45239Y97247D01*
Y96790D01*
X45414Y96367D01*
X45737Y96043D01*
X46160Y95868D01*
X46617D01*
X47040Y96043D01*
X47326Y96329D01*
X47611Y96043D01*
X48034Y95868D01*
X48491D01*
X48914Y96043D01*
X49238Y96367D01*
X49413Y96790D01*
Y97247D01*
X49238Y97670D01*
X49149Y97759D01*
X48991Y98130D01*
X49149Y98412D01*
X49278Y98541D01*
X49453Y98963D01*
Y99421D01*
X49278Y99843D01*
X48954Y100167D01*
X48531Y100342D01*
D02*
G37*
G36*
X147315Y102148D02*
X146857D01*
X146435Y101973D01*
X146111Y101650D01*
X145936Y101227D01*
Y100770D01*
X146111Y100347D01*
X146435Y100023D01*
X146857Y99848D01*
X147315D01*
X147738Y100023D01*
X148061Y100347D01*
X148236Y100770D01*
Y101227D01*
X148061Y101650D01*
X147738Y101973D01*
X147315Y102148D01*
D02*
G37*
G36*
X179807Y102079D02*
X179349D01*
X178927Y101904D01*
X178603Y101581D01*
X178428Y101158D01*
Y100700D01*
X178603Y100278D01*
X178927Y99954D01*
X179349Y99779D01*
X179807D01*
X180230Y99954D01*
X180553Y100278D01*
X180728Y100700D01*
Y101158D01*
X180553Y101581D01*
X180230Y101904D01*
X179807Y102079D01*
D02*
G37*
G36*
X258322Y102045D02*
X257864D01*
X257441Y101870D01*
X257118Y101547D01*
X256943Y101124D01*
Y100666D01*
X257118Y100244D01*
X257441Y99920D01*
X257864Y99745D01*
X258322D01*
X258744Y99920D01*
X259068Y100244D01*
X259243Y100666D01*
Y101124D01*
X259068Y101547D01*
X258744Y101870D01*
X258322Y102045D01*
D02*
G37*
G36*
X59891Y101442D02*
X59434D01*
X59011Y101267D01*
X58688Y100944D01*
X58513Y100521D01*
Y100064D01*
X58688Y99641D01*
X59011Y99317D01*
X59434Y99142D01*
X59891D01*
X60314Y99317D01*
X60637Y99641D01*
X60813Y100064D01*
Y100521D01*
X60637Y100944D01*
X60314Y101267D01*
X59891Y101442D01*
D02*
G37*
G36*
X205729Y100884D02*
X205271D01*
X204849Y100709D01*
X204525Y100386D01*
X204350Y99963D01*
Y99506D01*
X204525Y99083D01*
X204849Y98759D01*
X205271Y98584D01*
X205729D01*
X206152Y98759D01*
X206475Y99083D01*
X206650Y99506D01*
Y99963D01*
X206475Y100386D01*
X206152Y100709D01*
X205729Y100884D01*
D02*
G37*
G36*
X244613Y100237D02*
X244155D01*
X243732Y100062D01*
X243409Y99739D01*
X243234Y99316D01*
Y98885D01*
X243234Y98858D01*
X243237Y98846D01*
X243285Y98679D01*
X242817Y98496D01*
X242568Y98744D01*
X242146Y98920D01*
X241688D01*
X241266Y98744D01*
X240942Y98421D01*
X240767Y97998D01*
Y97541D01*
X240942Y97118D01*
X241266Y96795D01*
X241688Y96620D01*
X242146D01*
X242568Y96795D01*
X242892Y97118D01*
X243067Y97541D01*
Y97972D01*
X243067Y97998D01*
X243063Y98011D01*
X243016Y98178D01*
X243483Y98361D01*
X243732Y98112D01*
X244155Y97937D01*
X244613D01*
X245035Y98112D01*
X245359Y98436D01*
X245534Y98858D01*
Y99316D01*
X245359Y99739D01*
X245035Y100062D01*
X244613Y100237D01*
D02*
G37*
G36*
X41337Y98839D02*
X40880D01*
X40457Y98664D01*
X40328Y98535D01*
X40047Y98377D01*
X39675Y98535D01*
X39586Y98624D01*
X39164Y98799D01*
X38706D01*
X38283Y98624D01*
X37960Y98300D01*
X37785Y97878D01*
Y97420D01*
X37960Y96997D01*
X38245Y96712D01*
X37960Y96426D01*
X37897Y96274D01*
X37356D01*
X37353Y96281D01*
X37029Y96605D01*
X36607Y96780D01*
X36149D01*
X35726Y96605D01*
X35403Y96281D01*
X35228Y95859D01*
Y95401D01*
X35403Y94978D01*
X35726Y94655D01*
X36149Y94480D01*
X36607D01*
X37029Y94655D01*
X37353Y94978D01*
X37416Y95130D01*
X37957D01*
X37960Y95123D01*
X38283Y94800D01*
X38706Y94625D01*
X39164D01*
X39586Y94800D01*
X39715Y94929D01*
X39997Y95087D01*
X40368Y94929D01*
X40457Y94840D01*
X40880Y94665D01*
X41337D01*
X41760Y94840D01*
X42083Y95163D01*
X42259Y95586D01*
Y96044D01*
X42083Y96466D01*
X41798Y96752D01*
X42083Y97037D01*
X42259Y97460D01*
Y97918D01*
X42083Y98340D01*
X41760Y98664D01*
X41337Y98839D01*
D02*
G37*
G36*
X250029Y100150D02*
X249571D01*
X249149Y99975D01*
X248825Y99651D01*
X248650Y99229D01*
Y98771D01*
X248825Y98349D01*
X249149Y98025D01*
X249571Y97850D01*
X250029D01*
X250451Y98025D01*
X250775Y98349D01*
X250950Y98771D01*
Y99229D01*
X250775Y99651D01*
X250451Y99975D01*
X250029Y100150D01*
D02*
G37*
G36*
X128832Y100817D02*
X128374D01*
X127951Y100642D01*
X127628Y100319D01*
X127453Y99896D01*
Y99439D01*
X127628Y99016D01*
X127951Y98692D01*
X128374Y98517D01*
X128810Y98449D01*
X128810Y97991D01*
X128985Y97569D01*
X129309Y97245D01*
X129731Y97070D01*
X130189D01*
X130611Y97245D01*
X130935Y97569D01*
X131110Y97991D01*
Y98449D01*
X130935Y98871D01*
X130611Y99195D01*
X130189Y99370D01*
X129753Y99439D01*
X129753Y99896D01*
X129578Y100319D01*
X129254Y100642D01*
X128832Y100817D01*
D02*
G37*
G36*
X169553Y100171D02*
X169095D01*
X168673Y99996D01*
X168349Y99673D01*
X168174Y99250D01*
Y98793D01*
X168349Y98370D01*
X168376Y98343D01*
X168656Y98026D01*
X168376Y97690D01*
X168358Y97673D01*
X168183Y97250D01*
Y96793D01*
X168358Y96370D01*
X168682Y96046D01*
X169104Y95871D01*
X169562D01*
X169985Y96046D01*
X170308Y96370D01*
X170483Y96793D01*
Y97250D01*
X170308Y97673D01*
X170282Y97699D01*
X170002Y98017D01*
X170282Y98352D01*
X170299Y98370D01*
X170474Y98793D01*
Y99250D01*
X170299Y99673D01*
X169976Y99996D01*
X169553Y100171D01*
D02*
G37*
G36*
X276202Y98028D02*
X275745D01*
X275322Y97853D01*
X274998Y97530D01*
X274823Y97107D01*
Y96650D01*
X274998Y96227D01*
X275322Y95903D01*
X275745Y95728D01*
X276202D01*
X276625Y95903D01*
X276948Y96227D01*
X277123Y96650D01*
Y97107D01*
X276948Y97530D01*
X276625Y97853D01*
X276202Y98028D01*
D02*
G37*
G36*
X160236Y97890D02*
X159778D01*
X159356Y97715D01*
X159032Y97392D01*
X158857Y96969D01*
Y96512D01*
X159032Y96089D01*
X159356Y95765D01*
X159778Y95590D01*
X160236D01*
X160659Y95765D01*
X160982Y96089D01*
X161157Y96512D01*
Y96969D01*
X160982Y97392D01*
X160659Y97715D01*
X160236Y97890D01*
D02*
G37*
G36*
X12183Y96580D02*
X11726D01*
X11303Y96405D01*
X10980Y96082D01*
X10804Y95659D01*
Y95201D01*
X10826Y95150D01*
X10443Y94768D01*
X10392Y94789D01*
X9934D01*
X9512Y94614D01*
X9188Y94290D01*
X9013Y93868D01*
Y93410D01*
X9188Y92987D01*
X9512Y92664D01*
X9934Y92489D01*
X10322D01*
X10537Y92286D01*
X10691Y92071D01*
X10622Y91905D01*
Y91447D01*
X10797Y91025D01*
X11120Y90701D01*
X11543Y90526D01*
X12000D01*
X12423Y90701D01*
X12747Y91025D01*
X12922Y91447D01*
Y91905D01*
X12747Y92327D01*
X12423Y92651D01*
X12000Y92826D01*
X11612D01*
X11397Y93029D01*
X11244Y93243D01*
X11313Y93410D01*
Y93868D01*
X11292Y93919D01*
X11675Y94301D01*
X11726Y94280D01*
X12183D01*
X12606Y94455D01*
X12929Y94779D01*
X13104Y95201D01*
Y95659D01*
X12929Y96082D01*
X12606Y96405D01*
X12183Y96580D01*
D02*
G37*
G36*
X212239Y96916D02*
X211781D01*
X211359Y96740D01*
X211035Y96417D01*
X210860Y95994D01*
Y95537D01*
X211035Y95114D01*
X211359Y94791D01*
X211781Y94616D01*
X212239D01*
X212661Y94791D01*
X212985Y95114D01*
X213160Y95537D01*
Y95994D01*
X212985Y96417D01*
X212661Y96740D01*
X212239Y96916D01*
D02*
G37*
G36*
X285270Y96104D02*
X284812D01*
X284390Y95929D01*
X284066Y95606D01*
X283891Y95183D01*
Y94726D01*
X284066Y94303D01*
X284390Y93979D01*
X284812Y93804D01*
X285270D01*
X285693Y93979D01*
X286016Y94303D01*
X286191Y94726D01*
Y95183D01*
X286016Y95606D01*
X285693Y95929D01*
X285270Y96104D01*
D02*
G37*
G36*
X246367Y96068D02*
X245910D01*
X245487Y95893D01*
X245164Y95570D01*
X244989Y95147D01*
Y94690D01*
X245164Y94267D01*
X245487Y93943D01*
X245910Y93768D01*
X246367D01*
X246790Y93943D01*
X247113Y94267D01*
X247289Y94690D01*
Y95147D01*
X247113Y95570D01*
X246790Y95893D01*
X246367Y96068D01*
D02*
G37*
G36*
X221229Y95490D02*
X220771D01*
X220349Y95315D01*
X220025Y94991D01*
X219850Y94569D01*
Y94111D01*
X220025Y93689D01*
X220349Y93365D01*
X220771Y93190D01*
X221229D01*
X221651Y93365D01*
X221975Y93689D01*
X222150Y94111D01*
Y94569D01*
X221975Y94991D01*
X221651Y95315D01*
X221229Y95490D01*
D02*
G37*
G36*
X62939Y93537D02*
X62482D01*
X62059Y93362D01*
X61774Y93077D01*
X61488Y93362D01*
X61065Y93537D01*
X60608D01*
X60185Y93362D01*
X59862Y93039D01*
X59687Y92616D01*
Y92159D01*
X59862Y91736D01*
X60145Y91382D01*
X59822Y91059D01*
X59647Y90636D01*
Y90179D01*
X59822Y89756D01*
X60145Y89432D01*
X60568Y89257D01*
X61025D01*
X61448Y89432D01*
X61734Y89718D01*
X62019Y89432D01*
X62442Y89257D01*
X62899D01*
X63322Y89432D01*
X63645Y89756D01*
X63821Y90179D01*
Y90636D01*
X63645Y91059D01*
X63362Y91412D01*
X63686Y91736D01*
X63861Y92159D01*
Y92616D01*
X63686Y93039D01*
X63362Y93362D01*
X62939Y93537D01*
D02*
G37*
G36*
X27670Y95338D02*
X27212D01*
X26790Y95163D01*
X26466Y94840D01*
X26291Y94417D01*
Y93959D01*
X26466Y93537D01*
X26790Y93213D01*
X27212Y93038D01*
X27670D01*
X28092Y93213D01*
X28416Y93537D01*
X28591Y93959D01*
Y94417D01*
X28416Y94840D01*
X28092Y95163D01*
X27670Y95338D01*
D02*
G37*
G36*
X205801Y95150D02*
X205343D01*
X204920Y94975D01*
X204597Y94651D01*
X204422Y94229D01*
Y93771D01*
X204597Y93349D01*
X204920Y93025D01*
X205343Y92850D01*
X205801D01*
X206223Y93025D01*
X206547Y93349D01*
X206722Y93771D01*
Y94229D01*
X206547Y94651D01*
X206223Y94975D01*
X205801Y95150D01*
D02*
G37*
G36*
X290189Y94621D02*
X289732D01*
X289309Y94446D01*
X288986Y94122D01*
X288811Y93699D01*
Y93242D01*
X288986Y92819D01*
X289309Y92496D01*
X289732Y92321D01*
X290189D01*
X290612Y92496D01*
X290936Y92819D01*
X291111Y93242D01*
Y93699D01*
X290936Y94122D01*
X290612Y94446D01*
X290189Y94621D01*
D02*
G37*
G36*
X139973Y94379D02*
X139515D01*
X139093Y94204D01*
X138769Y93881D01*
X138594Y93458D01*
Y93000D01*
X138769Y92578D01*
X139093Y92254D01*
X139515Y92079D01*
X139973D01*
X140395Y92254D01*
X140719Y92578D01*
X140894Y93000D01*
Y93458D01*
X140719Y93881D01*
X140395Y94204D01*
X139973Y94379D01*
D02*
G37*
G36*
X275246Y94352D02*
X274789D01*
X274366Y94177D01*
X274043Y93854D01*
X273868Y93431D01*
Y92974D01*
X274043Y92551D01*
X274366Y92227D01*
X274789Y92052D01*
X275246D01*
X275669Y92227D01*
X275993Y92551D01*
X276168Y92974D01*
Y93431D01*
X275993Y93854D01*
X275669Y94177D01*
X275246Y94352D01*
D02*
G37*
G36*
X77499Y92471D02*
X77042D01*
X76619Y92296D01*
X76334Y92010D01*
X76048Y92296D01*
X75625Y92471D01*
X75168D01*
X74745Y92296D01*
X74422Y91972D01*
X74247Y91550D01*
Y91092D01*
X74422Y90670D01*
X74523Y90568D01*
X74668Y90198D01*
X74520Y89917D01*
X74382Y89779D01*
X74207Y89356D01*
Y88899D01*
X74382Y88476D01*
X74705Y88152D01*
X75128Y87977D01*
X75585D01*
X76008Y88152D01*
X76294Y88438D01*
X76579Y88152D01*
X77002Y87977D01*
X77459D01*
X77882Y88152D01*
X78206Y88476D01*
X78381Y88899D01*
Y89356D01*
X78206Y89779D01*
X78104Y89880D01*
X77960Y90250D01*
X78107Y90531D01*
X78246Y90670D01*
X78421Y91092D01*
Y91550D01*
X78246Y91972D01*
X77922Y92296D01*
X77499Y92471D01*
D02*
G37*
G36*
X183789Y93823D02*
X183331D01*
X182909Y93648D01*
X182585Y93325D01*
X182410Y92902D01*
Y92445D01*
X182585Y92022D01*
X182909Y91698D01*
X183331Y91523D01*
X183789D01*
X184212Y91698D01*
X184535Y92022D01*
X184710Y92445D01*
Y92902D01*
X184535Y93325D01*
X184212Y93648D01*
X183789Y93823D01*
D02*
G37*
G36*
X279269Y93650D02*
X278811D01*
X278389Y93475D01*
X278065Y93151D01*
X277890Y92729D01*
Y92271D01*
X278065Y91849D01*
X278389Y91525D01*
X278811Y91350D01*
X279269D01*
X279691Y91525D01*
X280015Y91849D01*
X280190Y92271D01*
Y92729D01*
X280015Y93151D01*
X279691Y93475D01*
X279269Y93650D01*
D02*
G37*
G36*
X24638Y93269D02*
X24181D01*
X23758Y93093D01*
X23435Y92770D01*
X23259Y92347D01*
Y91890D01*
X23435Y91467D01*
X23758Y91144D01*
X24181Y90969D01*
X24638D01*
X25061Y91144D01*
X25384Y91467D01*
X25559Y91890D01*
Y92347D01*
X25384Y92770D01*
X25061Y93093D01*
X24638Y93269D01*
D02*
G37*
G36*
X272214Y95087D02*
X271757D01*
X271334Y94912D01*
X271010Y94588D01*
X270835Y94166D01*
Y93708D01*
X270682Y93238D01*
X270259Y93063D01*
X269936Y92739D01*
X269761Y92317D01*
Y91859D01*
X269936Y91437D01*
X270259Y91113D01*
X270682Y90938D01*
X271140D01*
X271562Y91113D01*
X271886Y91437D01*
X272061Y91859D01*
Y92317D01*
X272214Y92787D01*
X272637Y92962D01*
X272960Y93286D01*
X273135Y93708D01*
Y94166D01*
X272960Y94588D01*
X272637Y94912D01*
X272214Y95087D01*
D02*
G37*
G36*
X177562Y90247D02*
X177104D01*
X176682Y90072D01*
X176358Y89749D01*
X176183Y89326D01*
Y88869D01*
X176358Y88446D01*
X176682Y88122D01*
X177104Y87947D01*
X177562D01*
X177985Y88122D01*
X178308Y88446D01*
X178483Y88869D01*
Y89326D01*
X178308Y89749D01*
X177985Y90072D01*
X177562Y90247D01*
D02*
G37*
G36*
X38990Y92174D02*
X38532D01*
X38109Y91998D01*
X37786Y91675D01*
X37611Y91252D01*
Y90795D01*
X37786Y90372D01*
X37798Y90360D01*
X38084Y90021D01*
X37798Y89707D01*
X37773Y89682D01*
X37598Y89260D01*
Y88802D01*
X37773Y88380D01*
X38097Y88056D01*
X38519Y87881D01*
X38977D01*
X39399Y88056D01*
X39723Y88380D01*
X39898Y88802D01*
Y89260D01*
X39723Y89682D01*
X39711Y89694D01*
X39425Y90034D01*
X39711Y90347D01*
X39736Y90372D01*
X39911Y90795D01*
Y91252D01*
X39736Y91675D01*
X39412Y91998D01*
X38990Y92174D01*
D02*
G37*
G36*
X92069Y90040D02*
X91611D01*
X91189Y89865D01*
X90865Y89541D01*
X90690Y89119D01*
Y88661D01*
X90865Y88239D01*
X91189Y87915D01*
X91611Y87740D01*
X92069D01*
X92491Y87915D01*
X92815Y88239D01*
X92990Y88661D01*
Y89119D01*
X92815Y89541D01*
X92491Y89865D01*
X92069Y90040D01*
D02*
G37*
G36*
X167887Y91911D02*
X167429D01*
X167007Y91736D01*
X166683Y91413D01*
X166508Y90990D01*
Y90533D01*
X166683Y90110D01*
X166705Y90088D01*
X166985Y89761D01*
X166705Y89435D01*
X166683Y89413D01*
X166508Y88990D01*
Y88533D01*
X166683Y88110D01*
X167007Y87786D01*
X167429Y87611D01*
X167887D01*
X168310Y87786D01*
X168633Y88110D01*
X168808Y88533D01*
Y88990D01*
X168633Y89413D01*
X168611Y89435D01*
X168331Y89761D01*
X168611Y90088D01*
X168633Y90110D01*
X168808Y90533D01*
Y90990D01*
X168633Y91413D01*
X168310Y91736D01*
X167887Y91911D01*
D02*
G37*
G36*
X96110Y89878D02*
X95652D01*
X95230Y89703D01*
X94906Y89379D01*
X94731Y88957D01*
Y88499D01*
X94906Y88077D01*
X95230Y87753D01*
X95652Y87578D01*
X96110D01*
X96532Y87753D01*
X96856Y88077D01*
X97031Y88499D01*
Y88957D01*
X96856Y89379D01*
X96532Y89703D01*
X96110Y89878D01*
D02*
G37*
G36*
X297532Y92258D02*
X297075D01*
X296652Y92083D01*
X296329Y91760D01*
X296153Y91337D01*
Y90880D01*
X296329Y90457D01*
X296652Y90133D01*
X296850Y90051D01*
Y89510D01*
X296679Y89439D01*
X296356Y89116D01*
X296181Y88693D01*
Y88236D01*
X296356Y87813D01*
X296679Y87490D01*
X297102Y87315D01*
X297559D01*
X297982Y87490D01*
X298306Y87813D01*
X298481Y88236D01*
Y88693D01*
X298306Y89116D01*
X297982Y89439D01*
X297784Y89521D01*
Y90063D01*
X297955Y90133D01*
X298278Y90457D01*
X298453Y90880D01*
Y91337D01*
X298278Y91760D01*
X297955Y92083D01*
X297532Y92258D01*
D02*
G37*
G36*
X25835Y89339D02*
X25377D01*
X24955Y89164D01*
X24631Y88840D01*
X24456Y88418D01*
Y87960D01*
X24631Y87538D01*
X24955Y87214D01*
X25377Y87039D01*
X25835D01*
X26258Y87214D01*
X26581Y87538D01*
X26756Y87960D01*
Y88418D01*
X26581Y88840D01*
X26258Y89164D01*
X25835Y89339D01*
D02*
G37*
G36*
X288572Y89338D02*
X288114D01*
X287691Y89163D01*
X287368Y88840D01*
X287193Y88417D01*
Y87960D01*
X287368Y87537D01*
X287691Y87213D01*
X288114Y87038D01*
X288572D01*
X288994Y87213D01*
X289318Y87537D01*
X289493Y87960D01*
Y88417D01*
X289318Y88840D01*
X288994Y89163D01*
X288572Y89338D01*
D02*
G37*
G36*
X20603Y88788D02*
X20145D01*
X19723Y88613D01*
X19399Y88289D01*
X19224Y87866D01*
Y87409D01*
X19399Y86986D01*
X19723Y86663D01*
X20145Y86488D01*
X20603D01*
X21025Y86663D01*
X21349Y86986D01*
X21524Y87409D01*
Y87866D01*
X21349Y88289D01*
X21025Y88613D01*
X20603Y88788D01*
D02*
G37*
G36*
X163629Y92766D02*
X163171D01*
X162749Y92591D01*
X162425Y92268D01*
X162250Y91845D01*
Y91387D01*
X162425Y90965D01*
X162652Y90738D01*
X162743Y90595D01*
X162691Y90124D01*
X162583Y90017D01*
X162408Y89594D01*
Y89136D01*
X162527Y88849D01*
X162618Y88345D01*
X162294Y88022D01*
X162119Y87599D01*
Y87142D01*
X162294Y86719D01*
X162618Y86395D01*
X163040Y86220D01*
X163498D01*
X163921Y86395D01*
X164244Y86719D01*
X164419Y87142D01*
Y87599D01*
X164300Y87887D01*
X164210Y88390D01*
X164533Y88714D01*
X164708Y89136D01*
Y89594D01*
X164533Y90017D01*
X164307Y90243D01*
X164215Y90387D01*
X164268Y90857D01*
X164375Y90965D01*
X164550Y91387D01*
Y91845D01*
X164375Y92268D01*
X164052Y92591D01*
X163629Y92766D01*
D02*
G37*
G36*
X300898Y88237D02*
X300441D01*
X300018Y88061D01*
X299694Y87738D01*
X299519Y87315D01*
Y86858D01*
X299694Y86435D01*
X300018Y86112D01*
X300441Y85937D01*
X300898D01*
X301321Y86112D01*
X301644Y86435D01*
X301819Y86858D01*
Y87315D01*
X301644Y87738D01*
X301321Y88061D01*
X300898Y88237D01*
D02*
G37*
G36*
X147342Y88201D02*
X146885D01*
X146462Y88026D01*
X146139Y87703D01*
X145964Y87280D01*
Y86822D01*
X146139Y86400D01*
X146462Y86076D01*
X146885Y85901D01*
X147342D01*
X147765Y86076D01*
X148089Y86400D01*
X148264Y86822D01*
Y87280D01*
X148089Y87703D01*
X147765Y88026D01*
X147342Y88201D01*
D02*
G37*
G36*
X12264Y88055D02*
X11806D01*
X11384Y87880D01*
X11060Y87556D01*
X10885Y87133D01*
Y86676D01*
X11060Y86253D01*
X11384Y85930D01*
X11806Y85755D01*
X12264D01*
X12687Y85930D01*
X13010Y86253D01*
X13185Y86676D01*
Y87133D01*
X13010Y87556D01*
X12687Y87880D01*
X12264Y88055D01*
D02*
G37*
G36*
X49240Y85366D02*
X48783D01*
X48360Y85191D01*
X48074Y84906D01*
X47789Y85191D01*
X47366Y85366D01*
X46909D01*
X46486Y85191D01*
X46162Y84868D01*
X45987Y84445D01*
Y83988D01*
X46162Y83565D01*
X46204Y83523D01*
X46420Y83155D01*
X46204Y82870D01*
X46122Y82788D01*
X45947Y82365D01*
Y81908D01*
X46122Y81485D01*
X46446Y81161D01*
X46869Y80986D01*
X47326D01*
X47749Y81161D01*
X48034Y81447D01*
X48320Y81161D01*
X48743Y80986D01*
X49200D01*
X49623Y81161D01*
X49946Y81485D01*
X50121Y81908D01*
Y82365D01*
X49946Y82788D01*
X49904Y82830D01*
X49688Y83198D01*
X49904Y83483D01*
X49986Y83565D01*
X50161Y83988D01*
Y84445D01*
X49986Y84868D01*
X49663Y85191D01*
X49240Y85366D01*
D02*
G37*
G36*
X9035Y87194D02*
X8577D01*
X8155Y87019D01*
X7831Y86696D01*
X7656Y86273D01*
Y85815D01*
X7831Y85393D01*
X8155Y85069D01*
X8577Y84894D01*
X9035D01*
X9457Y85069D01*
X9781Y85393D01*
X9956Y85815D01*
Y86273D01*
X9781Y86696D01*
X9457Y87019D01*
X9035Y87194D01*
D02*
G37*
G36*
X38990Y86216D02*
X38532D01*
X38109Y86041D01*
X37786Y85718D01*
X37611Y85295D01*
Y84838D01*
X37786Y84415D01*
X38109Y84092D01*
X38532Y83916D01*
X38990D01*
X39412Y84092D01*
X39736Y84415D01*
X39911Y84838D01*
Y85295D01*
X39736Y85718D01*
X39412Y86041D01*
X38990Y86216D01*
D02*
G37*
G36*
X12409Y84988D02*
X11951D01*
X11528Y84813D01*
X11205Y84489D01*
X11030Y84066D01*
Y83609D01*
X11205Y83186D01*
X11528Y82863D01*
X11951Y82688D01*
X12409D01*
X12831Y82863D01*
X13155Y83186D01*
X13330Y83609D01*
Y84066D01*
X13155Y84489D01*
X12831Y84813D01*
X12409Y84988D01*
D02*
G37*
G36*
X113119Y84347D02*
X112662D01*
X112239Y84172D01*
X111916Y83849D01*
X111741Y83426D01*
Y82969D01*
X111916Y82546D01*
X112239Y82222D01*
X112662Y82047D01*
X113119D01*
X113542Y82222D01*
X113865Y82546D01*
X114041Y82969D01*
Y83426D01*
X113865Y83849D01*
X113542Y84172D01*
X113119Y84347D01*
D02*
G37*
G36*
X99119D02*
X98662D01*
X98239Y84172D01*
X97916Y83849D01*
X97741Y83426D01*
Y82969D01*
X97916Y82546D01*
X98239Y82222D01*
X98662Y82047D01*
X99119D01*
X99542Y82222D01*
X99866Y82546D01*
X100040Y82969D01*
Y83426D01*
X99866Y83849D01*
X99542Y84172D01*
X99119Y84347D01*
D02*
G37*
G36*
X88779Y84107D02*
X88322D01*
X87899Y83932D01*
X87576Y83609D01*
X87401Y83186D01*
Y82728D01*
X87576Y82306D01*
X87899Y81982D01*
X88322Y81807D01*
X88779D01*
X89202Y81982D01*
X89526Y82306D01*
X89701Y82728D01*
Y83186D01*
X89526Y83609D01*
X89202Y83932D01*
X88779Y84107D01*
D02*
G37*
G36*
X198312Y83773D02*
X197854D01*
X197432Y83598D01*
X197108Y83275D01*
X196933Y82852D01*
Y82395D01*
X197108Y81972D01*
X197432Y81648D01*
X197854Y81473D01*
X198312D01*
X198735Y81648D01*
X199058Y81972D01*
X199233Y82395D01*
Y82852D01*
X199058Y83275D01*
X198735Y83598D01*
X198312Y83773D01*
D02*
G37*
G36*
X195362Y85463D02*
X194904D01*
X194482Y85288D01*
X194158Y84965D01*
X193983Y84542D01*
Y84173D01*
X193862Y83982D01*
X193583Y83744D01*
X193254D01*
X192832Y83569D01*
X192508Y83246D01*
X192333Y82823D01*
Y82366D01*
X192508Y81943D01*
X192832Y81619D01*
X193254Y81444D01*
X193712D01*
X194135Y81619D01*
X194458Y81943D01*
X194633Y82366D01*
Y82735D01*
X194754Y82926D01*
X195033Y83163D01*
X195362D01*
X195785Y83338D01*
X196108Y83662D01*
X196283Y84085D01*
Y84542D01*
X196108Y84965D01*
X195785Y85288D01*
X195362Y85463D01*
D02*
G37*
G36*
X25859Y83616D02*
X25401D01*
X24979Y83441D01*
X24655Y83117D01*
X24480Y82695D01*
Y82237D01*
X24655Y81814D01*
X24979Y81491D01*
X25401Y81316D01*
X25859D01*
X26281Y81491D01*
X26605Y81814D01*
X26780Y82237D01*
Y82695D01*
X26605Y83117D01*
X26281Y83441D01*
X25859Y83616D01*
D02*
G37*
G36*
X286252Y85640D02*
X285795D01*
X285372Y85465D01*
X285049Y85142D01*
X284874Y84719D01*
Y84262D01*
X285049Y83839D01*
X285372Y83515D01*
X285795Y83340D01*
X286252D01*
X286675Y83515D01*
X286815Y83655D01*
X287315Y83448D01*
Y83324D01*
X287490Y82901D01*
X287813Y82578D01*
X288236Y82403D01*
X288693D01*
X288814Y82453D01*
X289306Y82219D01*
X289333Y82168D01*
X289489Y81793D01*
X289812Y81469D01*
X290235Y81294D01*
X290692D01*
X291115Y81469D01*
X291439Y81793D01*
X291614Y82215D01*
Y82673D01*
X291439Y83095D01*
X291115Y83419D01*
X290692Y83594D01*
X290235D01*
X290115Y83544D01*
X289622Y83778D01*
X289595Y83829D01*
X289440Y84204D01*
X289116Y84528D01*
X288693Y84703D01*
X288236D01*
X287813Y84528D01*
X287674Y84388D01*
X287174Y84595D01*
Y84719D01*
X286999Y85142D01*
X286675Y85465D01*
X286252Y85640D01*
D02*
G37*
G36*
X300307Y84969D02*
X299850D01*
X299427Y84794D01*
X299104Y84470D01*
X298929Y84048D01*
Y83659D01*
X298927Y83589D01*
X298550Y83197D01*
X298462D01*
X298039Y83022D01*
X297716Y82699D01*
X297540Y82276D01*
Y81818D01*
X297716Y81396D01*
X298039Y81072D01*
X298462Y80897D01*
X298919D01*
X299342Y81072D01*
X299665Y81396D01*
X299840Y81818D01*
Y82207D01*
X299842Y82278D01*
X300219Y82669D01*
X300307D01*
X300730Y82844D01*
X301054Y83167D01*
X301229Y83590D01*
Y84048D01*
X301054Y84470D01*
X300730Y84794D01*
X300307Y84969D01*
D02*
G37*
G36*
X100989Y81087D02*
X100532D01*
X100109Y80912D01*
X99840Y80643D01*
X99640Y80597D01*
X99256Y80618D01*
X99022Y80852D01*
X98599Y81027D01*
X98142D01*
X97719Y80852D01*
X97396Y80529D01*
X97221Y80106D01*
Y79649D01*
X97396Y79226D01*
X97719Y78902D01*
X98142Y78727D01*
X98599D01*
X99022Y78902D01*
X99292Y79172D01*
X99491Y79218D01*
X99875Y79197D01*
X100109Y78962D01*
X100532Y78787D01*
X100989D01*
X101412Y78962D01*
X101735Y79286D01*
X101911Y79709D01*
Y80166D01*
X101735Y80589D01*
X101412Y80912D01*
X100989Y81087D01*
D02*
G37*
G36*
X195940Y81736D02*
X195482D01*
X195060Y81561D01*
X194736Y81238D01*
X194561Y80815D01*
X194377Y80698D01*
X194061Y80574D01*
X193712Y80718D01*
X193254D01*
X192832Y80543D01*
X192508Y80220D01*
X192333Y79797D01*
Y79339D01*
X192508Y78917D01*
X192832Y78593D01*
X193254Y78418D01*
X193712D01*
X194135Y78593D01*
X194458Y78917D01*
X194633Y79339D01*
X194818Y79457D01*
X195133Y79581D01*
X195482Y79436D01*
X195940D01*
X196363Y79611D01*
X196686Y79935D01*
X196861Y80358D01*
Y80815D01*
X196686Y81238D01*
X196363Y81561D01*
X195940Y81736D01*
D02*
G37*
G36*
X40780Y82607D02*
X40322D01*
X39900Y82432D01*
X39576Y82108D01*
X39401Y81685D01*
Y81228D01*
X39576Y80805D01*
X39900Y80482D01*
X40322Y80307D01*
X40780D01*
X41203Y80482D01*
X41526Y80805D01*
X41701Y81228D01*
Y81685D01*
X41526Y82108D01*
X41203Y82432D01*
X40780Y82607D01*
D02*
G37*
G36*
X178896Y82471D02*
X178438D01*
X178016Y82296D01*
X177692Y81973D01*
X177517Y81550D01*
Y81093D01*
X177692Y80670D01*
X178016Y80346D01*
X178438Y80171D01*
X178896D01*
X179319Y80346D01*
X179642Y80670D01*
X179817Y81093D01*
Y81550D01*
X179642Y81973D01*
X179319Y82296D01*
X178896Y82471D01*
D02*
G37*
G36*
X137140Y80552D02*
X136682D01*
X136260Y80377D01*
X135936Y80054D01*
X135374Y80003D01*
X135140Y80100D01*
X134683D01*
X134260Y79925D01*
X133937Y79602D01*
X133762Y79179D01*
Y78721D01*
X133937Y78299D01*
X134260Y77975D01*
X134683Y77800D01*
X135140D01*
X135563Y77975D01*
X135886Y78299D01*
X136448Y78349D01*
X136682Y78252D01*
X137140D01*
X137562Y78427D01*
X137886Y78751D01*
X138061Y79173D01*
Y79631D01*
X137886Y80054D01*
X137562Y80377D01*
X137140Y80552D01*
D02*
G37*
G36*
X12118Y80520D02*
X11661D01*
X11238Y80345D01*
X10915Y80022D01*
X10740Y79599D01*
Y79141D01*
X10915Y78719D01*
X11238Y78395D01*
X11661Y78220D01*
X12118D01*
X12541Y78395D01*
X12865Y78719D01*
X13040Y79141D01*
Y79599D01*
X12865Y80022D01*
X12541Y80345D01*
X12118Y80520D01*
D02*
G37*
G36*
X172954Y82467D02*
X172496D01*
X172074Y82292D01*
X171750Y81969D01*
X171575Y81546D01*
Y81089D01*
X171750Y80666D01*
X171756Y80660D01*
X172035Y80301D01*
X171756Y80007D01*
X171718Y79969D01*
X171543Y79546D01*
Y79088D01*
X171718Y78666D01*
X172042Y78342D01*
X172464Y78167D01*
X172922D01*
X173345Y78342D01*
X173668Y78666D01*
X173843Y79088D01*
Y79546D01*
X173668Y79969D01*
X173662Y79975D01*
X173383Y80333D01*
X173662Y80628D01*
X173700Y80666D01*
X173875Y81089D01*
Y81546D01*
X173700Y81969D01*
X173377Y82292D01*
X172954Y82467D01*
D02*
G37*
G36*
X140329Y79923D02*
X139872D01*
X139449Y79748D01*
X139125Y79425D01*
X138950Y79002D01*
Y78545D01*
X139125Y78122D01*
X139449Y77799D01*
X139872Y77623D01*
X140329D01*
X140752Y77799D01*
X141075Y78122D01*
X141250Y78545D01*
Y79002D01*
X141075Y79425D01*
X140752Y79748D01*
X140329Y79923D01*
D02*
G37*
G36*
X118930Y79772D02*
X118472D01*
X118049Y79597D01*
X117726Y79273D01*
X117551Y78851D01*
Y78393D01*
X117726Y77971D01*
X118049Y77647D01*
X118472Y77472D01*
X118930D01*
X119352Y77647D01*
X119676Y77971D01*
X119851Y78393D01*
Y78851D01*
X119676Y79273D01*
X119352Y79597D01*
X118930Y79772D01*
D02*
G37*
G36*
X149359Y79689D02*
X148901D01*
X148479Y79514D01*
X148155Y79191D01*
X147980Y78768D01*
Y78311D01*
X148155Y77888D01*
X148479Y77564D01*
X148901Y77389D01*
X149359D01*
X149782Y77564D01*
X150105Y77888D01*
X150280Y78311D01*
Y78768D01*
X150105Y79191D01*
X149782Y79514D01*
X149359Y79689D01*
D02*
G37*
G36*
X274441Y78217D02*
X273984D01*
X273561Y78042D01*
X273238Y77718D01*
X273098Y77381D01*
X273063Y77375D01*
X272633D01*
X272598Y77381D01*
X272458Y77718D01*
X272135Y78042D01*
X271712Y78217D01*
X271255D01*
X270832Y78042D01*
X270508Y77718D01*
X270333Y77296D01*
Y76838D01*
X270508Y76415D01*
X270832Y76092D01*
X271255Y75917D01*
X271712D01*
X272135Y76092D01*
X272458Y76415D01*
X272598Y76753D01*
X272633Y76759D01*
X273063D01*
X273098Y76753D01*
X273238Y76415D01*
X273561Y76092D01*
X273984Y75917D01*
X274441D01*
X274864Y76092D01*
X275187Y76415D01*
X275363Y76838D01*
Y77296D01*
X275187Y77718D01*
X274864Y78042D01*
X274441Y78217D01*
D02*
G37*
G36*
X36567Y79654D02*
X36110D01*
X35687Y79479D01*
X35364Y79155D01*
X35189Y78733D01*
Y78275D01*
X35364Y77852D01*
X35687Y77529D01*
X36110Y77354D01*
X36567D01*
X36990Y77529D01*
X37314Y77852D01*
X37489Y78275D01*
Y78733D01*
X37314Y79155D01*
X36990Y79479D01*
X36567Y79654D01*
D02*
G37*
G36*
X107237Y78183D02*
X106779D01*
X106356Y78008D01*
X106033Y77685D01*
X105899Y77361D01*
X105553Y77225D01*
X105358Y77201D01*
X105217Y77342D01*
X104794Y77517D01*
X104337D01*
X103914Y77342D01*
X103590Y77019D01*
X103415Y76596D01*
Y76139D01*
X103590Y75716D01*
X103914Y75392D01*
X104337Y75217D01*
X104794D01*
X105217Y75392D01*
X105540Y75716D01*
X105675Y76040D01*
X106020Y76176D01*
X106215Y76199D01*
X106356Y76058D01*
X106779Y75883D01*
X107237D01*
X107659Y76058D01*
X107983Y76382D01*
X108158Y76805D01*
Y77262D01*
X107983Y77685D01*
X107659Y78008D01*
X107237Y78183D01*
D02*
G37*
G36*
X4693Y79214D02*
X4235D01*
X3813Y79039D01*
X3489Y78716D01*
X3314Y78293D01*
Y77836D01*
X3489Y77413D01*
X3813Y77089D01*
X4235Y76914D01*
X4693D01*
X5116Y77089D01*
X5323Y77297D01*
X5699Y77337D01*
X5922Y77272D01*
X6165Y77029D01*
X6588Y76854D01*
X7045D01*
X7468Y77029D01*
X7791Y77352D01*
X7967Y77775D01*
Y78233D01*
X7791Y78655D01*
X7468Y78979D01*
X7045Y79154D01*
X6588D01*
X6165Y78979D01*
X5957Y78771D01*
X5582Y78731D01*
X5359Y78796D01*
X5116Y79039D01*
X4693Y79214D01*
D02*
G37*
G36*
X169017Y82467D02*
X168559D01*
X168137Y82292D01*
X167813Y81969D01*
X167638Y81546D01*
Y81089D01*
X167813Y80666D01*
X167819Y80660D01*
X168098Y80301D01*
X167819Y80007D01*
X167781Y79969D01*
X167606Y79546D01*
Y79088D01*
X167781Y78666D01*
X167814Y78633D01*
X168094Y78328D01*
X167814Y77980D01*
X167803Y77969D01*
X167628Y77546D01*
Y77088D01*
X167803Y76666D01*
X168127Y76342D01*
X168549Y76167D01*
X169007D01*
X169430Y76342D01*
X169753Y76666D01*
X169928Y77088D01*
Y77546D01*
X169753Y77969D01*
X169720Y78002D01*
X169441Y78306D01*
X169720Y78655D01*
X169731Y78666D01*
X169906Y79088D01*
Y79546D01*
X169731Y79969D01*
X169725Y79975D01*
X169447Y80333D01*
X169725Y80628D01*
X169763Y80666D01*
X169938Y81089D01*
Y81546D01*
X169763Y81969D01*
X169440Y82292D01*
X169017Y82467D01*
D02*
G37*
G36*
X165080D02*
X164622D01*
X164200Y82292D01*
X163876Y81969D01*
X163701Y81546D01*
Y81089D01*
X163876Y80666D01*
X163882Y80660D01*
X164161Y80301D01*
X163882Y80007D01*
X163844Y79969D01*
X163669Y79546D01*
Y79088D01*
X163844Y78666D01*
X163877Y78633D01*
X164156Y78328D01*
X163877Y77980D01*
X163866Y77969D01*
X163691Y77546D01*
Y77088D01*
X163866Y76666D01*
X164190Y76342D01*
X164612Y76167D01*
X165070D01*
X165493Y76342D01*
X165816Y76666D01*
X165991Y77088D01*
Y77546D01*
X165816Y77969D01*
X165783Y78002D01*
X165504Y78306D01*
X165783Y78655D01*
X165794Y78666D01*
X165969Y79088D01*
Y79546D01*
X165794Y79969D01*
X165788Y79975D01*
X165509Y80333D01*
X165788Y80628D01*
X165826Y80666D01*
X166001Y81089D01*
Y81546D01*
X165826Y81969D01*
X165503Y82292D01*
X165080Y82467D01*
D02*
G37*
G36*
X70552Y76499D02*
X70094D01*
X69671Y76324D01*
X69399Y76051D01*
X69174Y76276D01*
X68751Y76451D01*
X68294D01*
X67871Y76276D01*
X67547Y75953D01*
X67372Y75530D01*
Y75073D01*
X67547Y74650D01*
X67871Y74326D01*
X68294Y74151D01*
X68751D01*
X69174Y74326D01*
X69447Y74599D01*
X69671Y74374D01*
X70094Y74199D01*
X70552D01*
X70974Y74374D01*
X71298Y74698D01*
X71473Y75121D01*
Y75578D01*
X71298Y76001D01*
X70974Y76324D01*
X70552Y76499D01*
D02*
G37*
G36*
X137050Y76476D02*
X136593D01*
X136170Y76300D01*
X135846Y75977D01*
X135368Y76129D01*
X134979Y76290D01*
X134521D01*
X134099Y76115D01*
X133775Y75791D01*
X133600Y75369D01*
Y74911D01*
X133775Y74489D01*
X134099Y74165D01*
X134521Y73990D01*
X134979D01*
X135401Y74165D01*
X135725Y74489D01*
X136203Y74337D01*
X136593Y74176D01*
X137050D01*
X137473Y74351D01*
X137498Y74375D01*
X137878Y74606D01*
X138151Y74375D01*
X138228Y74299D01*
X138651Y74124D01*
X139108D01*
X139531Y74299D01*
X139854Y74622D01*
X140029Y75045D01*
Y75502D01*
X139854Y75925D01*
X139531Y76249D01*
X139108Y76424D01*
X138651D01*
X138228Y76249D01*
X138203Y76223D01*
X137823Y75993D01*
X137550Y76223D01*
X137473Y76300D01*
X137050Y76476D01*
D02*
G37*
G36*
X219812Y79383D02*
X219354D01*
X218932Y79208D01*
X218608Y78884D01*
X218433Y78462D01*
Y78408D01*
X218103Y78004D01*
X217971Y78004D01*
X217645D01*
X217222Y77829D01*
X216899Y77505D01*
X216724Y77083D01*
Y76625D01*
X216899Y76202D01*
X217222Y75879D01*
X217645Y75704D01*
X218103D01*
X218525Y75879D01*
X218849Y76202D01*
X219024Y76625D01*
Y76679D01*
X219354Y77083D01*
X219486Y77083D01*
X219812D01*
X220234Y77258D01*
X220558Y77581D01*
X220733Y78004D01*
Y78462D01*
X220558Y78884D01*
X220234Y79208D01*
X219812Y79383D01*
D02*
G37*
G36*
X277670Y77607D02*
X277212D01*
X276789Y77432D01*
X276466Y77108D01*
X276291Y76685D01*
Y76228D01*
X276466Y75805D01*
X276789Y75482D01*
X277212Y75307D01*
X277670D01*
X278092Y75482D01*
X278416Y75805D01*
X278591Y76228D01*
Y76685D01*
X278416Y77108D01*
X278092Y77432D01*
X277670Y77607D01*
D02*
G37*
G36*
X257804Y77551D02*
X257346D01*
X256924Y77376D01*
X256600Y77053D01*
X256425Y76630D01*
Y76173D01*
X256600Y75750D01*
X256924Y75426D01*
X257346Y75251D01*
X257804D01*
X258226Y75426D01*
X258550Y75750D01*
X258725Y76173D01*
Y76630D01*
X258550Y77053D01*
X258226Y77376D01*
X257804Y77551D01*
D02*
G37*
G36*
X261016Y77331D02*
X260559D01*
X260136Y77156D01*
X259812Y76832D01*
X259637Y76410D01*
Y75952D01*
X259812Y75530D01*
X260136Y75206D01*
X260559Y75031D01*
X261016D01*
X261439Y75206D01*
X261762Y75530D01*
X261937Y75952D01*
Y76410D01*
X261762Y76832D01*
X261439Y77156D01*
X261016Y77331D01*
D02*
G37*
G36*
X38142Y77174D02*
X37685D01*
X37262Y76999D01*
X36939Y76675D01*
X36763Y76252D01*
Y75795D01*
X36939Y75372D01*
X37262Y75049D01*
X37685Y74874D01*
X38142D01*
X38565Y75049D01*
X38888Y75372D01*
X39063Y75795D01*
Y76252D01*
X38888Y76675D01*
X38565Y76999D01*
X38142Y77174D01*
D02*
G37*
G36*
X41233Y79516D02*
X40775D01*
X40353Y79341D01*
X40029Y79017D01*
X39854Y78595D01*
Y78137D01*
X40029Y77715D01*
X40262Y77482D01*
X40315Y77185D01*
X40262Y76888D01*
X40029Y76655D01*
X39854Y76232D01*
Y75775D01*
X40029Y75352D01*
X40353Y75029D01*
X40775Y74854D01*
X41233D01*
X41655Y75029D01*
X41979Y75352D01*
X42154Y75775D01*
Y76232D01*
X41979Y76655D01*
X41747Y76888D01*
X41693Y77185D01*
X41747Y77482D01*
X41979Y77715D01*
X42154Y78137D01*
Y78595D01*
X41979Y79017D01*
X41655Y79341D01*
X41233Y79516D01*
D02*
G37*
G36*
X81485Y76926D02*
X81028D01*
X80605Y76751D01*
X80282Y76428D01*
X80107Y76005D01*
Y75547D01*
X80282Y75125D01*
X80605Y74801D01*
X81028Y74626D01*
X81485D01*
X81908Y74801D01*
X82232Y75125D01*
X82407Y75547D01*
Y76005D01*
X82232Y76428D01*
X81908Y76751D01*
X81485Y76926D01*
D02*
G37*
G36*
X289441Y79072D02*
X288984D01*
X288561Y78897D01*
X288238Y78574D01*
X288063Y78151D01*
Y77694D01*
X288238Y77271D01*
X288561Y76947D01*
X288777Y76858D01*
X288962Y76416D01*
X288954Y76284D01*
X288811Y75937D01*
Y75480D01*
X288986Y75057D01*
X289309Y74734D01*
X289732Y74559D01*
X290189D01*
X290612Y74734D01*
X290936Y75057D01*
X291111Y75480D01*
Y75937D01*
X290936Y76360D01*
X290612Y76684D01*
X290397Y76773D01*
X290211Y77215D01*
X290219Y77346D01*
X290363Y77694D01*
Y78151D01*
X290188Y78574D01*
X289864Y78897D01*
X289441Y79072D01*
D02*
G37*
G36*
X176918Y78099D02*
X176460D01*
X176038Y77924D01*
X175714Y77601D01*
X175539Y77178D01*
Y76721D01*
X175714Y76298D01*
X176038Y75974D01*
X176460Y75799D01*
X176918D01*
X177172Y75905D01*
X177381Y75790D01*
X177602Y75603D01*
X177613Y75587D01*
Y75206D01*
X177788Y74783D01*
X178112Y74459D01*
X178534Y74284D01*
X178992D01*
X179415Y74459D01*
X179738Y74783D01*
X179913Y75206D01*
Y75663D01*
X179738Y76086D01*
X179415Y76409D01*
X178992Y76584D01*
X178534D01*
X178280Y76479D01*
X178071Y76594D01*
X177850Y76780D01*
X177839Y76796D01*
Y77178D01*
X177664Y77601D01*
X177341Y77924D01*
X176918Y78099D01*
D02*
G37*
G36*
X161180Y82472D02*
X160722D01*
X160300Y82297D01*
X159976Y81974D01*
X159801Y81551D01*
Y81094D01*
X159976Y80671D01*
X159980Y80667D01*
X160258Y80304D01*
X159980Y80014D01*
X159939Y79974D01*
X159764Y79551D01*
Y79094D01*
X159939Y78671D01*
X159946Y78664D01*
X160220Y78302D01*
X159946Y78011D01*
X159904Y77969D01*
X159729Y77546D01*
Y77088D01*
X159904Y76666D01*
X160108Y76463D01*
X160075Y76297D01*
X159751Y75974D01*
X159576Y75551D01*
Y75094D01*
X159751Y74671D01*
X160075Y74347D01*
X160497Y74172D01*
X160955D01*
X161378Y74347D01*
X161701Y74671D01*
X161876Y75094D01*
Y75551D01*
X161701Y75974D01*
X161498Y76177D01*
X161531Y76342D01*
X161854Y76666D01*
X162029Y77088D01*
Y77546D01*
X161854Y77969D01*
X161847Y77976D01*
X161573Y78338D01*
X161847Y78629D01*
X161889Y78671D01*
X162064Y79094D01*
Y79551D01*
X161889Y79974D01*
X161886Y79977D01*
X161608Y80341D01*
X161886Y80630D01*
X161926Y80671D01*
X162101Y81094D01*
Y81551D01*
X161926Y81974D01*
X161603Y82297D01*
X161180Y82472D01*
D02*
G37*
G36*
X153289Y78533D02*
X152831D01*
X152409Y78358D01*
X152085Y78035D01*
X151910Y77612D01*
Y77154D01*
X152085Y76732D01*
X152218Y76600D01*
X152351Y76270D01*
X152217Y75947D01*
X152082Y75813D01*
X151907Y75390D01*
Y74933D01*
X152082Y74510D01*
X152406Y74186D01*
X152828Y74011D01*
X153286D01*
X153709Y74186D01*
X154032Y74510D01*
X154207Y74933D01*
Y75390D01*
X154032Y75813D01*
X153900Y75945D01*
X153766Y76274D01*
X153901Y76597D01*
X154035Y76732D01*
X154210Y77154D01*
Y77612D01*
X154035Y78035D01*
X153712Y78358D01*
X153289Y78533D01*
D02*
G37*
G36*
X145388Y78584D02*
X144931D01*
X144508Y78409D01*
X144185Y78086D01*
X144010Y77663D01*
Y77206D01*
X144185Y76783D01*
X144362Y76606D01*
X144459Y76296D01*
X144364Y75978D01*
X144189Y75803D01*
X144014Y75381D01*
Y74923D01*
X144189Y74501D01*
X144512Y74177D01*
X144935Y74002D01*
X145393D01*
X145815Y74177D01*
X146139Y74501D01*
X146314Y74923D01*
Y75381D01*
X146139Y75803D01*
X145961Y75980D01*
X145864Y76290D01*
X145960Y76608D01*
X146135Y76783D01*
X146310Y77206D01*
Y77663D01*
X146135Y78086D01*
X145811Y78409D01*
X145388Y78584D01*
D02*
G37*
G36*
X157225Y82263D02*
X156767D01*
X156345Y82088D01*
X156021Y81765D01*
X155846Y81342D01*
Y80885D01*
X156021Y80462D01*
X156056Y80427D01*
X156208Y79975D01*
X156047Y79783D01*
X155892Y79629D01*
X155717Y79206D01*
Y78749D01*
X155892Y78326D01*
X155966Y78252D01*
X156196Y77970D01*
X155966Y77599D01*
X155936Y77569D01*
X155761Y77146D01*
Y76688D01*
X155936Y76266D01*
X156260Y75942D01*
X155997Y75569D01*
X155822Y75146D01*
Y74689D01*
X155997Y74266D01*
X156321Y73942D01*
X156743Y73767D01*
X157201D01*
X157624Y73942D01*
X157947Y74266D01*
X158122Y74689D01*
Y75146D01*
X157947Y75569D01*
X157624Y75892D01*
X157886Y76266D01*
X158061Y76688D01*
Y77146D01*
X157886Y77569D01*
X157812Y77643D01*
X157582Y77924D01*
X157812Y78296D01*
X157842Y78326D01*
X158017Y78749D01*
Y79206D01*
X157842Y79629D01*
X157807Y79663D01*
X157655Y80115D01*
X157817Y80307D01*
X157971Y80462D01*
X158146Y80885D01*
Y81342D01*
X157971Y81765D01*
X157648Y82088D01*
X157225Y82263D01*
D02*
G37*
G36*
X64141Y75849D02*
X63684D01*
X63261Y75674D01*
X62938Y75351D01*
X62763Y74928D01*
Y74471D01*
X62938Y74048D01*
X63261Y73725D01*
X63684Y73549D01*
X64141D01*
X64564Y73725D01*
X64888Y74048D01*
X65063Y74471D01*
Y74928D01*
X64888Y75351D01*
X64564Y75674D01*
X64141Y75849D01*
D02*
G37*
G36*
X60898Y75520D02*
X60440D01*
X60018Y75345D01*
X59694Y75021D01*
X59519Y74599D01*
Y74141D01*
X59694Y73719D01*
X60018Y73395D01*
X60440Y73220D01*
X60898D01*
X61321Y73395D01*
X61644Y73719D01*
X61819Y74141D01*
Y74599D01*
X61644Y75021D01*
X61321Y75345D01*
X60898Y75520D01*
D02*
G37*
G36*
X265034Y75278D02*
X264576D01*
X264154Y75103D01*
X263830Y74779D01*
X263655Y74356D01*
Y73899D01*
X263830Y73476D01*
X264154Y73153D01*
X264576Y72978D01*
X265034D01*
X265457Y73153D01*
X265780Y73476D01*
X265955Y73899D01*
Y74356D01*
X265780Y74779D01*
X265457Y75103D01*
X265034Y75278D01*
D02*
G37*
G36*
X36528Y74851D02*
X36070D01*
X35648Y74676D01*
X35324Y74352D01*
X35149Y73930D01*
Y73472D01*
X35324Y73049D01*
X35648Y72726D01*
X36070Y72551D01*
X36528D01*
X36951Y72726D01*
X37274Y73049D01*
X37449Y73472D01*
Y73930D01*
X37274Y74352D01*
X36951Y74676D01*
X36528Y74851D01*
D02*
G37*
G36*
X250311Y74607D02*
X249853D01*
X249431Y74432D01*
X249107Y74109D01*
X248932Y73686D01*
Y73229D01*
X249107Y72806D01*
X249431Y72482D01*
X249853Y72307D01*
X250311D01*
X250733Y72482D01*
X251057Y72806D01*
X251232Y73229D01*
Y73686D01*
X251057Y74109D01*
X250733Y74432D01*
X250311Y74607D01*
D02*
G37*
G36*
X130988Y74275D02*
X130531D01*
X130108Y74100D01*
X129785Y73777D01*
X129609Y73354D01*
Y72897D01*
X129785Y72474D01*
X130108Y72150D01*
X130531Y71975D01*
X130988D01*
X131411Y72150D01*
X131734Y72474D01*
X131909Y72897D01*
Y73354D01*
X131734Y73777D01*
X131411Y74100D01*
X130988Y74275D01*
D02*
G37*
G36*
X53546Y74105D02*
X53089D01*
X52666Y73930D01*
X52342Y73607D01*
X52167Y73184D01*
Y72727D01*
X52342Y72304D01*
X52666Y71980D01*
X53089Y71805D01*
X53546D01*
X53969Y71980D01*
X54292Y72304D01*
X54467Y72727D01*
Y73184D01*
X54292Y73607D01*
X53969Y73930D01*
X53546Y74105D01*
D02*
G37*
G36*
X164953Y73825D02*
X164496D01*
X164073Y73650D01*
X163750Y73327D01*
X163574Y72904D01*
Y72447D01*
X163591Y72406D01*
X163539Y71922D01*
X163333Y71822D01*
X163115Y71731D01*
X163035Y71652D01*
X162718Y71451D01*
X162382Y71652D01*
X162312Y71722D01*
X161889Y71897D01*
X161431D01*
X161009Y71722D01*
X160802Y71516D01*
X160600Y71413D01*
X160180Y71485D01*
X160046Y71619D01*
X159623Y71794D01*
X159165D01*
X158743Y71619D01*
X158419Y71296D01*
X158244Y70873D01*
Y70416D01*
X158419Y69993D01*
X158743Y69670D01*
X159165Y69494D01*
X159623D01*
X160046Y69670D01*
X160252Y69876D01*
X160454Y69978D01*
X160874Y69907D01*
X161009Y69772D01*
X161431Y69597D01*
X161889D01*
X162312Y69772D01*
X162391Y69852D01*
X162708Y70052D01*
X163044Y69852D01*
X163115Y69781D01*
X163537Y69606D01*
X163995D01*
X164418Y69781D01*
X164741Y70105D01*
X164916Y70527D01*
Y70985D01*
X164900Y71025D01*
X164952Y71510D01*
X165157Y71610D01*
X165376Y71700D01*
X165699Y72024D01*
X165874Y72447D01*
Y72904D01*
X165699Y73327D01*
X165376Y73650D01*
X164953Y73825D01*
D02*
G37*
G36*
X244402Y73709D02*
X243945D01*
X243522Y73534D01*
X243198Y73211D01*
X243023Y72788D01*
Y72330D01*
X243198Y71908D01*
X243522Y71584D01*
X243945Y71409D01*
X244402D01*
X244825Y71584D01*
X245148Y71908D01*
X245323Y72330D01*
Y72788D01*
X245148Y73211D01*
X244825Y73534D01*
X244402Y73709D01*
D02*
G37*
G36*
X6252Y73512D02*
X5795D01*
X5372Y73337D01*
X5049Y73014D01*
X4874Y72591D01*
Y72133D01*
X5049Y71711D01*
X5372Y71387D01*
X5795Y71212D01*
X6252D01*
X6675Y71387D01*
X6999Y71711D01*
X7174Y72133D01*
Y72591D01*
X6999Y73014D01*
X6675Y73337D01*
X6252Y73512D01*
D02*
G37*
G36*
X85743Y72296D02*
X85285D01*
X84863Y72121D01*
X84539Y71797D01*
X84364Y71375D01*
Y71283D01*
X83864Y70950D01*
X83749Y70997D01*
X83292D01*
X82869Y70822D01*
X82546Y70499D01*
X82371Y70076D01*
Y69619D01*
X82546Y69196D01*
X82869Y68872D01*
X83292Y68697D01*
X83749D01*
X84172Y68872D01*
X84496Y69196D01*
X84671Y69619D01*
Y69710D01*
X85171Y70043D01*
X85285Y69996D01*
X85743D01*
X86166Y70171D01*
X86489Y70495D01*
X86664Y70917D01*
Y71375D01*
X86489Y71797D01*
X86166Y72121D01*
X85743Y72296D01*
D02*
G37*
G36*
X25859Y74969D02*
X25401D01*
X24979Y74794D01*
X24655Y74470D01*
X24480Y74048D01*
Y73590D01*
X24655Y73168D01*
X24979Y72844D01*
X25401Y72669D01*
X25859D01*
X25978Y72719D01*
X26361Y72336D01*
X26336Y72276D01*
Y71819D01*
X26511Y71396D01*
X26835Y71072D01*
X27258Y70897D01*
X27715D01*
X28138Y71072D01*
X28461Y71396D01*
X28636Y71819D01*
Y72276D01*
X28461Y72699D01*
X28138Y73022D01*
X27715Y73197D01*
X27258D01*
X27138Y73148D01*
X26755Y73530D01*
X26780Y73590D01*
Y74048D01*
X26605Y74470D01*
X26281Y74794D01*
X25859Y74969D01*
D02*
G37*
G36*
X110592Y72135D02*
X110134D01*
X109712Y71960D01*
X109388Y71636D01*
X109213Y71214D01*
Y71143D01*
X108713Y70809D01*
X108615Y70850D01*
X108157D01*
X107734Y70675D01*
X107411Y70351D01*
X107236Y69928D01*
Y69471D01*
X107411Y69048D01*
X107734Y68725D01*
X108157Y68550D01*
X108615D01*
X109037Y68725D01*
X109361Y69048D01*
X109536Y69471D01*
Y69542D01*
X110036Y69876D01*
X110134Y69835D01*
X110592D01*
X111014Y70010D01*
X111088Y70083D01*
X111588Y69876D01*
Y69811D01*
X111763Y69388D01*
X112086Y69064D01*
X112509Y68889D01*
X112966D01*
X113389Y69064D01*
X113712Y69388D01*
X113888Y69811D01*
Y70268D01*
X113712Y70691D01*
X113389Y71014D01*
X112966Y71189D01*
X112509D01*
X112086Y71014D01*
X112013Y70941D01*
X111513Y71148D01*
Y71214D01*
X111338Y71636D01*
X111014Y71960D01*
X110592Y72135D01*
D02*
G37*
G36*
X12377Y76975D02*
X11919D01*
X11497Y76800D01*
X11173Y76477D01*
X10998Y76054D01*
Y75596D01*
X11100Y75351D01*
X10873Y74909D01*
X10807Y74851D01*
X10756D01*
X10333Y74676D01*
X10009Y74352D01*
X9834Y73930D01*
Y73472D01*
X10009Y73049D01*
X10333Y72726D01*
X10756Y72551D01*
X11134Y72158D01*
Y71700D01*
X11309Y71278D01*
X11632Y70954D01*
X12055Y70779D01*
X12512D01*
X12935Y70954D01*
X13258Y71278D01*
X13433Y71700D01*
Y72158D01*
X13258Y72581D01*
X12935Y72904D01*
X12512Y73079D01*
X12134Y73472D01*
Y73930D01*
X12032Y74175D01*
X12260Y74617D01*
X12325Y74675D01*
X12377D01*
X12800Y74850D01*
X13123Y75174D01*
X13298Y75596D01*
Y76054D01*
X13123Y76477D01*
X12800Y76800D01*
X12377Y76975D01*
D02*
G37*
G36*
X289599Y71739D02*
X289141D01*
X288719Y71564D01*
X288395Y71240D01*
X288220Y70817D01*
Y70782D01*
X287720Y70683D01*
X287668Y70809D01*
X287344Y71132D01*
X286922Y71307D01*
X286464D01*
X286041Y71132D01*
X285718Y70809D01*
X285543Y70386D01*
Y69929D01*
X285718Y69506D01*
X286041Y69183D01*
X286464Y69007D01*
X286922D01*
X287344Y69183D01*
X287668Y69506D01*
X287843Y69929D01*
Y69964D01*
X288343Y70063D01*
X288395Y69937D01*
X288719Y69614D01*
X289141Y69439D01*
X289599D01*
X290021Y69614D01*
X290345Y69937D01*
X290520Y70360D01*
Y70817D01*
X290345Y71240D01*
X290021Y71564D01*
X289599Y71739D01*
D02*
G37*
G36*
X192480Y74963D02*
X192022D01*
X191600Y74788D01*
X191276Y74465D01*
X191101Y74042D01*
Y73585D01*
X191276Y73162D01*
X191416Y73022D01*
X191372Y72801D01*
X191048Y72478D01*
X190873Y72055D01*
Y71598D01*
X191048Y71175D01*
X191372Y70851D01*
X191794Y70676D01*
X192252D01*
X192675Y70851D01*
X192998Y71175D01*
X193173Y71598D01*
Y72055D01*
X192998Y72478D01*
X192859Y72617D01*
X192903Y72838D01*
X193226Y73162D01*
X193401Y73585D01*
Y74042D01*
X193226Y74465D01*
X192903Y74788D01*
X192480Y74963D01*
D02*
G37*
G36*
X20977Y81780D02*
X20519D01*
X20097Y81605D01*
X19773Y81281D01*
X19598Y80859D01*
Y80401D01*
X19773Y79979D01*
X20097Y79655D01*
X20295Y79573D01*
X20444Y79029D01*
X20441Y79012D01*
X20326Y78897D01*
X20151Y78475D01*
Y78017D01*
X20326Y77594D01*
X20448Y77473D01*
X20593Y77144D01*
X20448Y76819D01*
X20324Y76696D01*
X20149Y76273D01*
Y75816D01*
X20324Y75393D01*
X20493Y75225D01*
X20551Y74832D01*
X20460Y74606D01*
X20246Y74392D01*
X20071Y73969D01*
Y73511D01*
X20246Y73089D01*
X20175Y72529D01*
X19852Y72205D01*
X19677Y71783D01*
Y71325D01*
X19852Y70903D01*
X20175Y70579D01*
X20598Y70404D01*
X21056D01*
X21478Y70579D01*
X21802Y70903D01*
X21977Y71325D01*
Y71783D01*
X21802Y72205D01*
X21872Y72765D01*
X22195Y73089D01*
X22370Y73511D01*
Y73969D01*
X22195Y74392D01*
X22027Y74560D01*
X21968Y74953D01*
X22060Y75178D01*
X22274Y75393D01*
X22449Y75816D01*
Y76273D01*
X22274Y76696D01*
X22152Y76818D01*
X22007Y77146D01*
X22152Y77471D01*
X22276Y77594D01*
X22451Y78017D01*
Y78475D01*
X22276Y78897D01*
X21952Y79221D01*
X21754Y79303D01*
X21605Y79847D01*
X21608Y79864D01*
X21723Y79979D01*
X21898Y80401D01*
Y80859D01*
X21723Y81281D01*
X21399Y81605D01*
X20977Y81780D01*
D02*
G37*
G36*
X147909Y72567D02*
X147452D01*
X147029Y72392D01*
X146706Y72069D01*
X146530Y71646D01*
Y71188D01*
X146706Y70766D01*
X147029Y70442D01*
X147452Y70267D01*
X147909D01*
X148332Y70442D01*
X148655Y70766D01*
X148830Y71188D01*
Y71646D01*
X148655Y72069D01*
X148332Y72392D01*
X147909Y72567D01*
D02*
G37*
G36*
X271784Y72496D02*
X271326D01*
X270904Y72320D01*
X270580Y71997D01*
X270405Y71574D01*
Y71117D01*
X270580Y70694D01*
X270904Y70371D01*
X271326Y70196D01*
X271784D01*
X272206Y70371D01*
X272530Y70694D01*
X272705Y71117D01*
Y71574D01*
X272530Y71997D01*
X272206Y72320D01*
X271784Y72496D01*
D02*
G37*
G36*
X137302Y72487D02*
X136844D01*
X136422Y72312D01*
X136098Y71989D01*
X135923Y71566D01*
Y71109D01*
X136098Y70686D01*
X136422Y70363D01*
X136844Y70187D01*
X137302D01*
X137724Y70363D01*
X138048Y70686D01*
X138223Y71109D01*
Y71566D01*
X138048Y71989D01*
X137724Y72312D01*
X137302Y72487D01*
D02*
G37*
G36*
X168776Y72479D02*
X168318D01*
X167896Y72304D01*
X167572Y71981D01*
X167397Y71558D01*
Y71257D01*
X167012Y70910D01*
X166974Y70891D01*
X166517D01*
X166094Y70716D01*
X165771Y70393D01*
X165595Y69970D01*
Y69512D01*
X165771Y69090D01*
X166094Y68766D01*
X166517Y68591D01*
X166974D01*
X167397Y68766D01*
X167720Y69090D01*
X167895Y69512D01*
Y69813D01*
X168281Y70161D01*
X168318Y70179D01*
X168776D01*
X169150Y70334D01*
X169643Y70451D01*
X169796Y70298D01*
X169967Y70127D01*
X170389Y69952D01*
X170847D01*
X171270Y70127D01*
X171641Y70342D01*
X171965Y70018D01*
X172387Y69843D01*
X172845D01*
X173268Y70018D01*
X173284Y70035D01*
X173622Y70315D01*
X173937Y70035D01*
X173965Y70007D01*
X174387Y69832D01*
X174845D01*
X175268Y70007D01*
X175591Y70331D01*
X175766Y70754D01*
Y71211D01*
X175591Y71634D01*
X175268Y71957D01*
X174845Y72132D01*
X174387D01*
X173965Y71957D01*
X173948Y71941D01*
X173611Y71661D01*
X173295Y71941D01*
X173268Y71968D01*
X172845Y72143D01*
X172387D01*
X171965Y71968D01*
X171593Y71754D01*
X171270Y72077D01*
X170847Y72252D01*
X170389D01*
X169967Y72077D01*
X169522Y71981D01*
X169369Y72133D01*
X169199Y72304D01*
X168776Y72479D01*
D02*
G37*
G36*
X140347Y72369D02*
X139889D01*
X139467Y72193D01*
X139143Y71870D01*
X138968Y71447D01*
Y70990D01*
X139143Y70567D01*
X139467Y70244D01*
X139889Y70069D01*
X140347D01*
X140770Y70244D01*
X141093Y70567D01*
X141629Y70556D01*
X141725Y70324D01*
X142049Y70001D01*
X142472Y69826D01*
X142929D01*
X143352Y70001D01*
X143675Y70324D01*
X143850Y70747D01*
Y71204D01*
X143675Y71627D01*
X143352Y71951D01*
X142929Y72126D01*
X142472D01*
X142049Y71951D01*
X141725Y71627D01*
X141189Y71639D01*
X141093Y71870D01*
X140770Y72193D01*
X140347Y72369D01*
D02*
G37*
G36*
X178894Y72119D02*
X178436D01*
X178014Y71944D01*
X177690Y71621D01*
X177515Y71198D01*
Y70740D01*
X177690Y70318D01*
X178014Y69994D01*
X178436Y69819D01*
X178894D01*
X179317Y69994D01*
X179640Y70318D01*
X179815Y70740D01*
Y71198D01*
X179640Y71621D01*
X179317Y71944D01*
X178894Y72119D01*
D02*
G37*
G36*
X152379Y72094D02*
X151921D01*
X151499Y71919D01*
X151175Y71596D01*
X151000Y71173D01*
Y70715D01*
X151175Y70293D01*
X151499Y69969D01*
X151921Y69794D01*
X152379D01*
X152802Y69969D01*
X153125Y70293D01*
X153300Y70715D01*
Y71173D01*
X153125Y71596D01*
X152802Y71919D01*
X152379Y72094D01*
D02*
G37*
G36*
X40819Y71662D02*
X40362D01*
X39939Y71487D01*
X39616Y71163D01*
X39441Y70741D01*
Y70283D01*
X39616Y69860D01*
X39939Y69537D01*
X40362Y69362D01*
X40819D01*
X41242Y69537D01*
X41565Y69860D01*
X41741Y70283D01*
Y70741D01*
X41565Y71163D01*
X41242Y71487D01*
X40819Y71662D01*
D02*
G37*
G36*
X102119Y71268D02*
X101661D01*
X101238Y71093D01*
X100915Y70770D01*
X100740Y70347D01*
Y69889D01*
X100915Y69467D01*
X101238Y69143D01*
X101661Y68968D01*
X102119D01*
X102541Y69143D01*
X102865Y69467D01*
X103040Y69889D01*
Y70347D01*
X102865Y70770D01*
X102541Y71093D01*
X102119Y71268D01*
D02*
G37*
G36*
X242276Y71189D02*
X241818D01*
X241396Y71014D01*
X241072Y70691D01*
X240897Y70268D01*
Y69811D01*
X241072Y69388D01*
X241396Y69064D01*
X241818Y68889D01*
X242276D01*
X242699Y69064D01*
X243022Y69388D01*
X243197Y69811D01*
Y70268D01*
X243022Y70691D01*
X242699Y71014D01*
X242276Y71189D01*
D02*
G37*
G36*
X139594Y68594D02*
X139137D01*
X138714Y68419D01*
X138391Y68096D01*
X138346Y67988D01*
X137805D01*
X137801Y67996D01*
X137478Y68319D01*
X137055Y68494D01*
X136598D01*
X136175Y68319D01*
X135852Y67996D01*
X135677Y67573D01*
Y67115D01*
X135852Y66693D01*
X136175Y66369D01*
X136598Y66194D01*
X137055D01*
X137478Y66369D01*
X137801Y66693D01*
X137846Y66801D01*
X138387D01*
X138391Y66793D01*
X138714Y66469D01*
X139137Y66294D01*
X139594D01*
X140017Y66469D01*
X140340Y66793D01*
X140516Y67216D01*
Y67673D01*
X140340Y68096D01*
X140017Y68419D01*
X139594Y68594D01*
D02*
G37*
G36*
X279256Y70121D02*
X278799D01*
X278376Y69946D01*
X278052Y69623D01*
X277877Y69200D01*
Y68742D01*
X278052Y68320D01*
X278376Y67996D01*
X278799Y67821D01*
X279256D01*
X279679Y67996D01*
X280002Y68320D01*
X280177Y68742D01*
Y69200D01*
X280002Y69623D01*
X279679Y69946D01*
X279256Y70121D01*
D02*
G37*
G36*
X174672Y68263D02*
X174214D01*
X173792Y68088D01*
X173770Y68066D01*
X173443Y67786D01*
X173117Y68066D01*
X173095Y68088D01*
X172672Y68263D01*
X172214D01*
X171792Y68088D01*
X171468Y67765D01*
X171293Y67342D01*
Y66885D01*
X171468Y66462D01*
X171792Y66138D01*
X172214Y65963D01*
X172672D01*
X173095Y66138D01*
X173117Y66160D01*
X173443Y66440D01*
X173770Y66160D01*
X173792Y66138D01*
X174214Y65963D01*
X174672D01*
X175095Y66138D01*
X175418Y66462D01*
X175593Y66885D01*
Y67342D01*
X175418Y67765D01*
X175095Y68088D01*
X174672Y68263D01*
D02*
G37*
G36*
X288645Y68756D02*
X288187D01*
X287764Y68581D01*
X287441Y68257D01*
X287266Y67835D01*
Y67738D01*
X286766Y67531D01*
X286675Y67622D01*
X286252Y67797D01*
X285795D01*
X285372Y67622D01*
X285049Y67298D01*
X284874Y66876D01*
Y66418D01*
X285049Y65996D01*
X285372Y65672D01*
X285795Y65497D01*
X286252D01*
X286675Y65672D01*
X286999Y65996D01*
X287174Y66418D01*
Y66515D01*
X287674Y66722D01*
X287764Y66631D01*
X288187Y66456D01*
X288645D01*
X289067Y66631D01*
X289391Y66954D01*
X289566Y67377D01*
Y67835D01*
X289391Y68257D01*
X289067Y68581D01*
X288645Y68756D01*
D02*
G37*
G36*
X262509Y69770D02*
X262051D01*
X261629Y69595D01*
X261305Y69271D01*
X261130Y68849D01*
Y68391D01*
X261305Y67969D01*
X261629Y67645D01*
X262051Y67470D01*
X262509D01*
X262931Y67645D01*
X263255Y67969D01*
X263430Y68391D01*
Y68849D01*
X263255Y69271D01*
X262931Y69595D01*
X262509Y69770D01*
D02*
G37*
G36*
X125111Y69300D02*
X124653D01*
X124231Y69125D01*
X123907Y68801D01*
X123732Y68378D01*
Y67921D01*
X123907Y67498D01*
X124231Y67175D01*
X124653Y67000D01*
X125111D01*
X125533Y67175D01*
X125857Y67498D01*
X126032Y67921D01*
Y68378D01*
X125857Y68801D01*
X125533Y69125D01*
X125111Y69300D01*
D02*
G37*
G36*
X8300Y69260D02*
X7842D01*
X7419Y69085D01*
X7096Y68762D01*
X6921Y68339D01*
Y67882D01*
X7096Y67459D01*
X7419Y67135D01*
X7842Y66960D01*
X8300D01*
X8722Y67135D01*
X9046Y67459D01*
X9221Y67882D01*
Y68339D01*
X9046Y68762D01*
X8722Y69085D01*
X8300Y69260D01*
D02*
G37*
G36*
X257611Y69066D02*
X257153D01*
X256731Y68891D01*
X256407Y68567D01*
X256232Y68145D01*
Y67687D01*
X256407Y67264D01*
X256731Y66941D01*
X257153Y66766D01*
X257611D01*
X258033Y66941D01*
X258357Y67264D01*
X258532Y67687D01*
Y68145D01*
X258357Y68567D01*
X258033Y68891D01*
X257611Y69066D01*
D02*
G37*
G36*
X297040Y68709D02*
X296582D01*
X296160Y68534D01*
X295836Y68211D01*
X295661Y67788D01*
Y67330D01*
X295836Y66908D01*
X296160Y66584D01*
X296582Y66409D01*
X297040D01*
X297462Y66584D01*
X297786Y66908D01*
X297961Y67330D01*
Y67788D01*
X297786Y68211D01*
X297462Y68534D01*
X297040Y68709D01*
D02*
G37*
G36*
X192024Y66697D02*
X191567D01*
X191144Y66522D01*
X190871Y66249D01*
X190586Y66222D01*
X190301Y66249D01*
X190028Y66522D01*
X189605Y66697D01*
X189147D01*
X188725Y66522D01*
X188401Y66199D01*
X188226Y65776D01*
Y65572D01*
X187726Y65472D01*
X187715Y65499D01*
X187392Y65822D01*
X186969Y65997D01*
X186512D01*
X186089Y65822D01*
X185765Y65499D01*
X185714Y65374D01*
X185173D01*
X185121Y65499D01*
X184798Y65822D01*
X184375Y65997D01*
X183917D01*
X183495Y65822D01*
X183171Y65499D01*
X182996Y65076D01*
Y64619D01*
X183171Y64196D01*
X183495Y63872D01*
X183917Y63697D01*
X184375D01*
X184798Y63872D01*
X185121Y64196D01*
X185173Y64320D01*
X185714D01*
X185765Y64196D01*
X186089Y63872D01*
X186512Y63697D01*
X186969D01*
X187392Y63872D01*
X187715Y64196D01*
X187890Y64619D01*
Y64823D01*
X188390Y64922D01*
X188401Y64896D01*
X188725Y64572D01*
X189147Y64397D01*
X189605D01*
X190028Y64572D01*
X190301Y64845D01*
X190586Y64873D01*
X190871Y64845D01*
X191144Y64572D01*
X191567Y64397D01*
X192024D01*
X192447Y64572D01*
X192771Y64896D01*
X192946Y65319D01*
Y65776D01*
X192771Y66199D01*
X192447Y66522D01*
X192024Y66697D01*
D02*
G37*
G36*
X253372Y68260D02*
X252914D01*
X252492Y68085D01*
X252168Y67762D01*
X251993Y67339D01*
Y66882D01*
X252168Y66459D01*
X252492Y66135D01*
X252914Y65960D01*
X253372D01*
X253795Y66135D01*
X254118Y66459D01*
X254293Y66882D01*
Y67339D01*
X254118Y67762D01*
X253795Y68085D01*
X253372Y68260D01*
D02*
G37*
G36*
X86364Y66307D02*
X85906D01*
X85483Y66132D01*
X85416Y66064D01*
X85094Y65850D01*
X84762Y66064D01*
X84700Y66126D01*
X84277Y66301D01*
X83820D01*
X83397Y66126D01*
X83073Y65803D01*
X82898Y65380D01*
Y64923D01*
X83073Y64500D01*
X83323Y64251D01*
X83073Y64002D01*
X82898Y63579D01*
Y63121D01*
X83073Y62699D01*
X83397Y62375D01*
X83820Y62200D01*
X84277D01*
X84700Y62375D01*
X84755Y62431D01*
X85102Y62643D01*
X85408Y62431D01*
X85483Y62355D01*
X85906Y62180D01*
X86364D01*
X86786Y62355D01*
X87110Y62679D01*
X87285Y63101D01*
Y63559D01*
X87110Y63982D01*
X86848Y64243D01*
X87110Y64505D01*
X87285Y64928D01*
Y65385D01*
X87110Y65808D01*
X86786Y66132D01*
X86364Y66307D01*
D02*
G37*
G36*
X21292Y67843D02*
X20834D01*
X20412Y67668D01*
X20088Y67344D01*
X19913Y66922D01*
Y66464D01*
X20088Y66041D01*
X20412Y65718D01*
X20834Y65543D01*
X21292D01*
X21714Y65718D01*
X22038Y66041D01*
X22213Y66464D01*
Y66922D01*
X22038Y67344D01*
X21714Y67668D01*
X21292Y67843D01*
D02*
G37*
G36*
X178877Y65009D02*
X178419D01*
X177997Y64834D01*
X177673Y64511D01*
X177150Y64556D01*
X177129Y64577D01*
X176706Y64752D01*
X176249D01*
X175826Y64577D01*
X175502Y64254D01*
X175327Y63831D01*
Y63374D01*
X175502Y62951D01*
X175826Y62628D01*
X176249Y62452D01*
X176706D01*
X177129Y62628D01*
X177452Y62951D01*
X177975Y62906D01*
X177997Y62884D01*
X178419Y62709D01*
X178877D01*
X179299Y62884D01*
X179623Y63208D01*
X179798Y63630D01*
Y64088D01*
X179623Y64511D01*
X179299Y64834D01*
X178877Y65009D01*
D02*
G37*
G36*
X203221Y66268D02*
X202763D01*
X202341Y66093D01*
X202017Y65769D01*
X201842Y65347D01*
Y64889D01*
X202017Y64467D01*
X202341Y64143D01*
X202763Y63968D01*
X203221D01*
X203644Y64143D01*
X203967Y64467D01*
X204142Y64889D01*
Y65347D01*
X203967Y65769D01*
X203644Y66093D01*
X203221Y66268D01*
D02*
G37*
G36*
X110549Y66050D02*
X110091D01*
X109669Y65875D01*
X109345Y65551D01*
X109170Y65129D01*
Y64671D01*
X109345Y64249D01*
X109669Y63925D01*
X110091Y63750D01*
X110549D01*
X110971Y63925D01*
X111295Y64249D01*
X111470Y64671D01*
Y65129D01*
X111295Y65551D01*
X110971Y65875D01*
X110549Y66050D01*
D02*
G37*
G36*
X120619Y63647D02*
X120162D01*
X119739Y63472D01*
X119683Y63416D01*
X119356Y63190D01*
X119030Y63416D01*
X118974Y63472D01*
X118551Y63647D01*
X118093D01*
X117671Y63472D01*
X117347Y63149D01*
X117172Y62726D01*
Y62269D01*
X117347Y61846D01*
X117671Y61522D01*
X118093Y61347D01*
X118551D01*
X118974Y61522D01*
X119030Y61579D01*
X119356Y61805D01*
X119683Y61579D01*
X119739Y61522D01*
X120162Y61347D01*
X120619D01*
X121042Y61522D01*
X121365Y61846D01*
X121541Y62269D01*
Y62726D01*
X121365Y63149D01*
X121042Y63472D01*
X120619Y63647D01*
D02*
G37*
G36*
X104792Y65028D02*
X104334D01*
X103911Y64852D01*
X103588Y64529D01*
X103413Y64106D01*
Y63649D01*
X103588Y63226D01*
X103911Y62903D01*
X104334Y62728D01*
X104792D01*
X105214Y62903D01*
X105538Y63226D01*
X105713Y63649D01*
Y64106D01*
X105538Y64529D01*
X105214Y64852D01*
X104792Y65028D01*
D02*
G37*
G36*
X166493Y64500D02*
X166035D01*
X165613Y64325D01*
X165289Y64002D01*
X165114Y63579D01*
Y63122D01*
X165289Y62699D01*
X165613Y62375D01*
X166035Y62200D01*
X166493D01*
X166916Y62375D01*
X167239Y62699D01*
X167414Y63122D01*
Y63579D01*
X167239Y64002D01*
X166916Y64325D01*
X166493Y64500D01*
D02*
G37*
G36*
X265283Y64378D02*
X264826D01*
X264403Y64203D01*
X264080Y63880D01*
X263905Y63457D01*
Y63000D01*
X264080Y62577D01*
X264403Y62253D01*
X264826Y62078D01*
X265283D01*
X265706Y62253D01*
X266030Y62577D01*
X266205Y63000D01*
Y63457D01*
X266030Y63880D01*
X265706Y64203D01*
X265283Y64378D01*
D02*
G37*
G36*
X135222Y64323D02*
X134764D01*
X134342Y64148D01*
X134018Y63825D01*
X133843Y63402D01*
Y62945D01*
X134018Y62522D01*
X134342Y62199D01*
X134764Y62023D01*
X135222D01*
X135644Y62199D01*
X135692Y62246D01*
X136031Y62476D01*
X136346Y62246D01*
X136406Y62186D01*
X136828Y62011D01*
X137286D01*
X137709Y62186D01*
X137769Y62247D01*
X138103Y62462D01*
X138422Y62247D01*
X138490Y62179D01*
X138912Y62004D01*
X139370D01*
X139793Y62179D01*
X139814Y62201D01*
X140141Y62481D01*
X140468Y62201D01*
X140490Y62179D01*
X140912Y62004D01*
X141370D01*
X141793Y62179D01*
X141821Y62208D01*
X142148Y62477D01*
X142474Y62208D01*
X142503Y62179D01*
X142925Y62004D01*
X143383D01*
X143806Y62179D01*
X144129Y62503D01*
X144304Y62925D01*
Y63383D01*
X144129Y63806D01*
X143806Y64129D01*
X143383Y64304D01*
X142925D01*
X142503Y64129D01*
X142474Y64101D01*
X142148Y63832D01*
X141821Y64101D01*
X141793Y64129D01*
X141370Y64304D01*
X140912D01*
X140490Y64129D01*
X140468Y64107D01*
X140141Y63827D01*
X139814Y64107D01*
X139793Y64129D01*
X139370Y64304D01*
X138912D01*
X138490Y64129D01*
X138429Y64069D01*
X138095Y63854D01*
X137776Y64069D01*
X137709Y64136D01*
X137286Y64311D01*
X136828D01*
X136406Y64136D01*
X136358Y64088D01*
X136019Y63859D01*
X135705Y64088D01*
X135644Y64148D01*
X135222Y64323D01*
D02*
G37*
G36*
X35974Y64126D02*
X35517D01*
X35094Y63951D01*
X34771Y63628D01*
X34596Y63205D01*
Y62748D01*
X34771Y62325D01*
X35094Y62001D01*
X35517Y61826D01*
X35974D01*
X36397Y62001D01*
X36720Y62325D01*
X36896Y62748D01*
Y63205D01*
X36720Y63628D01*
X36397Y63951D01*
X35974Y64126D01*
D02*
G37*
G36*
X289599Y63934D02*
X289141D01*
X288719Y63759D01*
X288395Y63435D01*
X288220Y63013D01*
Y62555D01*
X288395Y62132D01*
X288719Y61809D01*
X289141Y61634D01*
X289599D01*
X290021Y61809D01*
X290345Y62132D01*
X290520Y62555D01*
Y63013D01*
X290345Y63435D01*
X290021Y63759D01*
X289599Y63934D01*
D02*
G37*
G36*
X20583Y63814D02*
X20126D01*
X19703Y63639D01*
X19379Y63315D01*
X19204Y62892D01*
Y62435D01*
X19379Y62012D01*
X19703Y61689D01*
X20126Y61514D01*
X20583D01*
X21006Y61689D01*
X21329Y62012D01*
X21504Y62435D01*
Y62892D01*
X21329Y63315D01*
X21006Y63639D01*
X20583Y63814D01*
D02*
G37*
G36*
X86164Y61479D02*
X85706D01*
X85283Y61304D01*
X84700Y61233D01*
X84601Y61274D01*
X84601Y61274D01*
X84524Y61306D01*
X84277Y61408D01*
X83820D01*
X83397Y61233D01*
X83073Y60910D01*
X82898Y60487D01*
Y60029D01*
X83073Y59607D01*
X83397Y59283D01*
X83820Y59108D01*
X84277D01*
X84700Y59283D01*
X85283Y59354D01*
X85383Y59313D01*
X85706Y59179D01*
X86164D01*
X86586Y59354D01*
X86910Y59677D01*
X87085Y60100D01*
Y60558D01*
X86910Y60980D01*
X86586Y61304D01*
X86164Y61479D01*
D02*
G37*
G36*
X194520Y63162D02*
X194063D01*
X193640Y62986D01*
X193316Y62663D01*
X193141Y62240D01*
Y61783D01*
X193316Y61360D01*
X193640Y61037D01*
X194063Y60862D01*
X194520D01*
X194943Y61037D01*
X195266Y61360D01*
X195441Y61783D01*
Y62240D01*
X195266Y62663D01*
X194943Y62986D01*
X194520Y63162D01*
D02*
G37*
G36*
X27670Y63143D02*
X27212D01*
X26790Y62968D01*
X26466Y62644D01*
X26291Y62221D01*
Y61764D01*
X26466Y61341D01*
X26790Y61018D01*
X27212Y60843D01*
X27670D01*
X28092Y61018D01*
X28416Y61341D01*
X28591Y61764D01*
Y62221D01*
X28416Y62644D01*
X28092Y62968D01*
X27670Y63143D01*
D02*
G37*
G36*
X178050Y60169D02*
X177593D01*
X177170Y59994D01*
X176847Y59670D01*
X176367Y59818D01*
X176116Y59922D01*
X175659D01*
X175236Y59747D01*
X174912Y59424D01*
X174737Y59001D01*
Y58544D01*
X174912Y58121D01*
X175236Y57797D01*
X175659Y57622D01*
X176116D01*
X176539Y57797D01*
X176862Y58121D01*
X177342Y57973D01*
X177593Y57869D01*
X178050D01*
X178473Y58044D01*
X178797Y58367D01*
X178972Y58790D01*
Y59247D01*
X178797Y59670D01*
X178473Y59994D01*
X178050Y60169D01*
D02*
G37*
G36*
X258066Y61937D02*
X257608D01*
X257186Y61762D01*
X256862Y61439D01*
X256687Y61016D01*
Y60559D01*
X256862Y60136D01*
X257186Y59812D01*
X257608Y59637D01*
X258066D01*
X258488Y59812D01*
X258812Y60136D01*
X258987Y60559D01*
Y61016D01*
X258812Y61439D01*
X258488Y61762D01*
X258066Y61937D01*
D02*
G37*
G36*
X8772D02*
X8315D01*
X7892Y61762D01*
X7568Y61439D01*
X7393Y61016D01*
Y60559D01*
X7568Y60136D01*
X7892Y59812D01*
X8315Y59637D01*
X8772D01*
X9195Y59812D01*
X9518Y60136D01*
X9693Y60559D01*
Y61016D01*
X9518Y61439D01*
X9195Y61762D01*
X8772Y61937D01*
D02*
G37*
G36*
X12040Y61347D02*
X11582D01*
X11160Y61172D01*
X10836Y60848D01*
X10661Y60426D01*
Y59968D01*
X10836Y59545D01*
X11160Y59222D01*
X11582Y59047D01*
X12040D01*
X12462Y59222D01*
X12786Y59545D01*
X12961Y59968D01*
Y60426D01*
X12786Y60848D01*
X12462Y61172D01*
X12040Y61347D01*
D02*
G37*
G36*
X200623Y61308D02*
X200165D01*
X199742Y61132D01*
X199419Y60809D01*
X199244Y60386D01*
Y59929D01*
X199419Y59506D01*
X199742Y59183D01*
X200165Y59008D01*
X200623D01*
X201045Y59183D01*
X201369Y59506D01*
X201544Y59929D01*
Y60386D01*
X201369Y60809D01*
X201045Y61132D01*
X200623Y61308D01*
D02*
G37*
G36*
X140180Y61114D02*
X139722D01*
X139300Y60939D01*
X138976Y60616D01*
X138801Y60193D01*
Y59736D01*
X138976Y59313D01*
X139300Y58989D01*
X139722Y58814D01*
X140180D01*
X140603Y58989D01*
X140926Y59313D01*
X141101Y59736D01*
Y60193D01*
X140926Y60616D01*
X140603Y60939D01*
X140180Y61114D01*
D02*
G37*
G36*
X286764Y63665D02*
X286307D01*
X285884Y63490D01*
X285560Y63167D01*
X285385Y62744D01*
Y62287D01*
X285560Y61864D01*
X285884Y61541D01*
X286186Y61415D01*
X286087Y60915D01*
X286072D01*
X285650Y60740D01*
X285326Y60417D01*
X285151Y59994D01*
Y59537D01*
X285326Y59114D01*
X285650Y58790D01*
X286072Y58615D01*
X286530D01*
X286952Y58790D01*
X287276Y59114D01*
X287451Y59537D01*
Y59994D01*
X287276Y60417D01*
X286952Y60740D01*
X286650Y60865D01*
X286750Y61365D01*
X286764D01*
X287187Y61541D01*
X287510Y61864D01*
X287685Y62287D01*
Y62744D01*
X287510Y63167D01*
X287187Y63490D01*
X286764Y63665D01*
D02*
G37*
G36*
X169029Y60837D02*
X168571D01*
X168149Y60662D01*
X167825Y60339D01*
X167650Y59916D01*
Y59459D01*
X167825Y59036D01*
X168149Y58712D01*
X168571Y58537D01*
X169029D01*
X169452Y58712D01*
X169775Y59036D01*
X169950Y59459D01*
Y59916D01*
X169775Y60339D01*
X169452Y60662D01*
X169029Y60837D01*
D02*
G37*
G36*
X147445Y68594D02*
X146987D01*
X146565Y68419D01*
X146241Y68096D01*
X146066Y67673D01*
Y67216D01*
X146241Y66793D01*
X146271Y66763D01*
X146550Y66452D01*
X146271Y66110D01*
X146256Y66096D01*
X146081Y65673D01*
Y65215D01*
X146256Y64793D01*
X146532Y64421D01*
X146255Y64141D01*
X146209Y64096D01*
X146034Y63673D01*
Y63216D01*
X146209Y62793D01*
X146231Y62771D01*
X146511Y62444D01*
X146231Y62118D01*
X146209Y62096D01*
X146034Y61673D01*
Y61216D01*
X146209Y60793D01*
X146270Y60732D01*
X146522Y60453D01*
X146270Y60079D01*
X146256Y60065D01*
X146081Y59642D01*
Y59185D01*
X146256Y58762D01*
X146580Y58438D01*
X147002Y58263D01*
X147460D01*
X147883Y58438D01*
X148206Y58762D01*
X148381Y59185D01*
Y59642D01*
X148206Y60065D01*
X148145Y60126D01*
X147894Y60405D01*
X148145Y60779D01*
X148159Y60793D01*
X148334Y61216D01*
Y61673D01*
X148159Y62096D01*
X148137Y62118D01*
X147857Y62444D01*
X148137Y62771D01*
X148159Y62793D01*
X148334Y63216D01*
Y63673D01*
X148159Y64096D01*
X147884Y64468D01*
X148161Y64747D01*
X148206Y64793D01*
X148381Y65215D01*
Y65673D01*
X148206Y66096D01*
X148177Y66125D01*
X147897Y66437D01*
X148177Y66778D01*
X148191Y66793D01*
X148366Y67216D01*
Y67673D01*
X148191Y68096D01*
X147868Y68419D01*
X147445Y68594D01*
D02*
G37*
G36*
X289756Y60495D02*
X289299D01*
X288876Y60320D01*
X288553Y59996D01*
X288378Y59574D01*
Y59116D01*
X288553Y58693D01*
X288876Y58370D01*
X289299Y58195D01*
X289756D01*
X290179Y58370D01*
X290503Y58693D01*
X290678Y59116D01*
Y59574D01*
X290503Y59996D01*
X290179Y60320D01*
X289756Y60495D01*
D02*
G37*
G36*
X53955Y69365D02*
X53498D01*
X53075Y69190D01*
X52751Y68866D01*
X52576Y68443D01*
Y67986D01*
X52751Y67563D01*
X53075Y67240D01*
X53498Y67065D01*
X53813Y66626D01*
X53813Y66603D01*
Y66169D01*
X53988Y65746D01*
X53760Y65267D01*
X53758Y65266D01*
X53434Y64943D01*
X53259Y64520D01*
Y64063D01*
X53434Y63640D01*
X53758Y63316D01*
X53822Y63290D01*
X54156Y63036D01*
X54072Y62686D01*
X54028Y62578D01*
Y62121D01*
X54203Y61698D01*
X54526Y61374D01*
X54949Y61199D01*
X55359D01*
X55449Y61160D01*
X55818Y60829D01*
Y60546D01*
X55964Y60193D01*
X55961Y60044D01*
X55785Y59624D01*
X55530Y59518D01*
X55206Y59195D01*
X55031Y58772D01*
Y58315D01*
X55206Y57892D01*
X55530Y57568D01*
X55952Y57393D01*
X56410D01*
X56832Y57568D01*
X57156Y57892D01*
X57322Y58292D01*
X57459Y58351D01*
X57831Y58456D01*
X58022Y58265D01*
X58445Y58090D01*
X58903D01*
X59325Y58265D01*
X59649Y58588D01*
X59824Y59011D01*
Y59468D01*
X59649Y59891D01*
X59325Y60215D01*
X58903Y60390D01*
X58580D01*
X58395Y60452D01*
X58118Y60795D01*
Y61003D01*
X57943Y61426D01*
X57620Y61749D01*
X57197Y61924D01*
X56788D01*
X56697Y61963D01*
X56328Y62295D01*
Y62578D01*
X56152Y63001D01*
X55829Y63324D01*
X55765Y63351D01*
X55431Y63604D01*
X55515Y63954D01*
X55559Y64063D01*
Y64520D01*
X55384Y64943D01*
X55613Y65422D01*
X55615Y65422D01*
X55938Y65746D01*
X56113Y66169D01*
Y66626D01*
X55938Y67049D01*
X55615Y67372D01*
X55192Y67547D01*
X54876Y67986D01*
X54876Y68009D01*
Y68443D01*
X54701Y68866D01*
X54378Y69190D01*
X53955Y69365D01*
D02*
G37*
G36*
X135203Y60348D02*
X134745D01*
X134322Y60173D01*
X133999Y59850D01*
X133824Y59427D01*
Y58969D01*
X133999Y58547D01*
X134322Y58223D01*
X134745Y58048D01*
X135203D01*
X135625Y58223D01*
X135949Y58547D01*
X136124Y58969D01*
Y59427D01*
X135949Y59850D01*
X135625Y60173D01*
X135203Y60348D01*
D02*
G37*
G36*
X86489Y57961D02*
X86031D01*
X85608Y57786D01*
X85523Y57701D01*
X85238Y57490D01*
X84870Y57701D01*
X84825Y57747D01*
X84402Y57922D01*
X83944D01*
X83522Y57747D01*
X83198Y57423D01*
X83023Y57000D01*
Y56543D01*
X83198Y56120D01*
X83522Y55797D01*
X83944Y55622D01*
X84402D01*
X84825Y55797D01*
X84910Y55882D01*
X85195Y56093D01*
X85563Y55882D01*
X85608Y55836D01*
X86031Y55661D01*
X86489D01*
X86911Y55836D01*
X87235Y56160D01*
X87410Y56582D01*
Y57040D01*
X87235Y57462D01*
X86911Y57786D01*
X86489Y57961D01*
D02*
G37*
G36*
X185780Y59612D02*
X185322D01*
X184900Y59437D01*
X184576Y59113D01*
X184401Y58690D01*
Y58233D01*
X184576Y57810D01*
X184900Y57487D01*
X185322Y57312D01*
X185780D01*
X186203Y57487D01*
X186526Y57810D01*
X186701Y58233D01*
Y58690D01*
X186526Y59113D01*
X186203Y59437D01*
X185780Y59612D01*
D02*
G37*
G36*
X28142Y58867D02*
X27685D01*
X27262Y58691D01*
X26939Y58368D01*
X26763Y57945D01*
Y57488D01*
X26939Y57065D01*
X27262Y56742D01*
X27685Y56567D01*
X28142D01*
X28565Y56742D01*
X28888Y57065D01*
X29063Y57488D01*
Y57945D01*
X28888Y58368D01*
X28565Y58691D01*
X28142Y58867D01*
D02*
G37*
G36*
X178738Y56862D02*
X178281D01*
X177858Y56687D01*
X177708Y56537D01*
X177184Y56354D01*
X176762Y56529D01*
X176304D01*
X175882Y56354D01*
X175558Y56030D01*
X175383Y55608D01*
Y55150D01*
X175558Y54728D01*
X175882Y54404D01*
X176304Y54229D01*
X176762D01*
X177184Y54404D01*
X177334Y54554D01*
X177858Y54737D01*
X178281Y54562D01*
X178738D01*
X179161Y54737D01*
X179484Y55060D01*
X179659Y55483D01*
Y55940D01*
X179484Y56363D01*
X179161Y56687D01*
X178738Y56862D01*
D02*
G37*
G36*
X24198Y60026D02*
X23741D01*
X23318Y59851D01*
X22994Y59527D01*
X22819Y59104D01*
Y58647D01*
X22651Y58395D01*
X22459Y58209D01*
X22113Y58065D01*
X21789Y57742D01*
X21614Y57319D01*
Y56862D01*
X21789Y56439D01*
X22113Y56116D01*
X22535Y55941D01*
X22993D01*
X23415Y56116D01*
X23739Y56439D01*
X23914Y56862D01*
Y57319D01*
X24082Y57572D01*
X24274Y57757D01*
X24621Y57901D01*
X24944Y58224D01*
X25119Y58647D01*
Y59104D01*
X24944Y59527D01*
X24621Y59851D01*
X24198Y60026D01*
D02*
G37*
G36*
X257237Y57449D02*
X256779D01*
X256356Y57274D01*
X256033Y56951D01*
X255858Y56528D01*
Y56071D01*
X256033Y55648D01*
X256356Y55324D01*
X256779Y55149D01*
X257237D01*
X257659Y55324D01*
X257983Y55648D01*
X258158Y56071D01*
Y56528D01*
X257983Y56951D01*
X257659Y57274D01*
X257237Y57449D01*
D02*
G37*
G36*
X265449Y57050D02*
X264991D01*
X264569Y56875D01*
X264245Y56551D01*
X264070Y56129D01*
Y55671D01*
X264245Y55249D01*
X264569Y54925D01*
X264991Y54750D01*
X265449D01*
X265871Y54925D01*
X266195Y55249D01*
X266370Y55671D01*
Y56129D01*
X266195Y56551D01*
X265871Y56875D01*
X265449Y57050D01*
D02*
G37*
G36*
X285741Y56963D02*
X285283D01*
X284860Y56788D01*
X284537Y56464D01*
X284362Y56042D01*
Y55584D01*
X284537Y55162D01*
X284860Y54838D01*
X285283Y54663D01*
X285741D01*
X286163Y54838D01*
X286487Y55162D01*
X286662Y55584D01*
Y56042D01*
X286487Y56464D01*
X286163Y56788D01*
X285741Y56963D01*
D02*
G37*
G36*
X246587Y56827D02*
X246129D01*
X245707Y56652D01*
X245383Y56328D01*
X245208Y55906D01*
Y55448D01*
X245383Y55025D01*
X245707Y54702D01*
X246129Y54527D01*
X246587D01*
X247010Y54702D01*
X247333Y55025D01*
X247508Y55448D01*
Y55906D01*
X247333Y56328D01*
X247010Y56652D01*
X246587Y56827D01*
D02*
G37*
G36*
X190694Y54912D02*
X190236D01*
X189814Y54737D01*
X189648Y54571D01*
X189390Y54443D01*
X189009Y54558D01*
X188888Y54679D01*
X188465Y54854D01*
X188008D01*
X187585Y54679D01*
X187494Y54588D01*
X187215Y54381D01*
X186841Y54588D01*
X186795Y54633D01*
X186372Y54808D01*
X185915D01*
X185492Y54633D01*
X185169Y54310D01*
X184994Y53887D01*
Y53430D01*
X185169Y53007D01*
X185492Y52684D01*
X185915Y52508D01*
X186372D01*
X186795Y52684D01*
X186886Y52775D01*
X187165Y52981D01*
X187539Y52775D01*
X187585Y52729D01*
X188008Y52554D01*
X188465D01*
X188888Y52729D01*
X189053Y52894D01*
X189312Y53022D01*
X189693Y52908D01*
X189814Y52787D01*
X190236Y52612D01*
X190694D01*
X191116Y52787D01*
X191252Y52923D01*
X191634Y53020D01*
X191886Y52903D01*
X192065Y52724D01*
X192488Y52549D01*
X192945D01*
X193368Y52724D01*
X193692Y53048D01*
X193867Y53470D01*
Y53928D01*
X193692Y54350D01*
X193368Y54674D01*
X192945Y54849D01*
X192488D01*
X192065Y54674D01*
X191929Y54538D01*
X191547Y54441D01*
X191296Y54558D01*
X191116Y54737D01*
X190694Y54912D01*
D02*
G37*
G36*
X145151Y56647D02*
X144693D01*
X144271Y56472D01*
X143947Y56149D01*
X143772Y55726D01*
Y55269D01*
X143947Y54846D01*
X144271Y54522D01*
X144693Y54347D01*
X145151D01*
X145574Y54522D01*
X145897Y54846D01*
X146072Y55269D01*
Y55726D01*
X145897Y56149D01*
X145574Y56472D01*
X145151Y56647D01*
D02*
G37*
G36*
X122519Y56497D02*
X122062D01*
X121639Y56322D01*
X121316Y55999D01*
X121141Y55576D01*
Y55119D01*
X121316Y54696D01*
X121639Y54372D01*
X122062Y54197D01*
X122519D01*
X122942Y54372D01*
X123266Y54696D01*
X123441Y55119D01*
Y55576D01*
X123266Y55999D01*
X122942Y56322D01*
X122519Y56497D01*
D02*
G37*
G36*
X139992Y56227D02*
X139535D01*
X139112Y56052D01*
X138789Y55728D01*
X138614Y55306D01*
Y54848D01*
X138789Y54425D01*
X139112Y54102D01*
X139535Y53927D01*
X139992D01*
X140415Y54102D01*
X140739Y54425D01*
X140914Y54848D01*
Y55306D01*
X140739Y55728D01*
X140415Y56052D01*
X139992Y56227D01*
D02*
G37*
G36*
X58024Y57225D02*
X57566D01*
X57144Y57050D01*
X56820Y56727D01*
X56645Y56304D01*
Y55847D01*
X56820Y55424D01*
X56956Y55288D01*
X57122Y55046D01*
X56958Y54636D01*
X56899Y54577D01*
X56724Y54154D01*
Y53697D01*
X56899Y53274D01*
X57222Y52950D01*
X57645Y52775D01*
X58102D01*
X58525Y52950D01*
X58849Y53274D01*
X59024Y53697D01*
Y54154D01*
X58849Y54577D01*
X58712Y54713D01*
X58547Y54954D01*
X58711Y55364D01*
X58770Y55424D01*
X58945Y55847D01*
Y56304D01*
X58770Y56727D01*
X58447Y57050D01*
X58024Y57225D01*
D02*
G37*
G36*
X57395Y52062D02*
X56937D01*
X56515Y51887D01*
X56229Y51601D01*
X55943Y51887D01*
X55521Y52062D01*
X55063D01*
X54641Y51887D01*
X54317Y51563D01*
X54142Y51141D01*
Y50683D01*
X54317Y50261D01*
X54432Y50145D01*
X54563Y49779D01*
X54426Y49499D01*
X54277Y49350D01*
X54102Y48928D01*
Y48470D01*
X54277Y48048D01*
X54601Y47724D01*
X55023Y47549D01*
X55481D01*
X55903Y47724D01*
X56189Y48009D01*
X56475Y47724D01*
X56897Y47549D01*
X57355D01*
X57777Y47724D01*
X58101Y48048D01*
X58276Y48470D01*
Y48928D01*
X58101Y49350D01*
X57986Y49466D01*
X57855Y49832D01*
X57992Y50112D01*
X58141Y50261D01*
X58316Y50683D01*
Y51141D01*
X58141Y51563D01*
X57817Y51887D01*
X57395Y52062D01*
D02*
G37*
G36*
X167322Y53827D02*
X166865D01*
X166442Y53652D01*
X166118Y53329D01*
X165943Y52906D01*
Y52448D01*
X166118Y52026D01*
X166442Y51702D01*
X166865Y51527D01*
X167322D01*
X167745Y51702D01*
X168068Y52026D01*
X168243Y52448D01*
Y52906D01*
X168068Y53329D01*
X167745Y53652D01*
X167322Y53827D01*
D02*
G37*
G36*
X275741Y53709D02*
X275283D01*
X274860Y53534D01*
X274537Y53211D01*
X274362Y52788D01*
Y52330D01*
X274537Y51908D01*
X274860Y51584D01*
X275283Y51409D01*
X275741D01*
X276163Y51584D01*
X276487Y51908D01*
X276662Y52330D01*
Y52788D01*
X276487Y53211D01*
X276163Y53534D01*
X275741Y53709D01*
D02*
G37*
G36*
X287000Y53689D02*
X286543D01*
X286120Y53514D01*
X285797Y53191D01*
X285622Y52768D01*
Y52311D01*
X285797Y51888D01*
X286120Y51564D01*
X286543Y51389D01*
X287000D01*
X287423Y51564D01*
X287747Y51888D01*
X287922Y52311D01*
Y52768D01*
X287747Y53191D01*
X287423Y53514D01*
X287000Y53689D01*
D02*
G37*
G36*
X158956Y53094D02*
X158498D01*
X158076Y52919D01*
X157752Y52596D01*
X157577Y52173D01*
Y51715D01*
X157752Y51293D01*
X157877Y51168D01*
X157786Y50589D01*
X157767Y50581D01*
X157126Y50647D01*
X157073Y50700D01*
X156650Y50875D01*
X156192D01*
X155770Y50700D01*
X155686Y50616D01*
X155430Y50386D01*
X155033Y50616D01*
X155019Y50630D01*
X154596Y50805D01*
X154138D01*
X153716Y50630D01*
X153392Y50307D01*
X153217Y49884D01*
Y49426D01*
X153271Y49296D01*
X152889Y48913D01*
X152743Y48973D01*
X152285D01*
X151863Y48798D01*
X151539Y48475D01*
X151364Y48052D01*
Y47594D01*
X151539Y47172D01*
X151863Y46848D01*
X152285Y46673D01*
X152743D01*
X153166Y46848D01*
X153489Y47172D01*
X153664Y47594D01*
Y48052D01*
X153610Y48183D01*
X153993Y48566D01*
X154138Y48505D01*
X154596D01*
X155019Y48680D01*
X155103Y48764D01*
X155358Y48994D01*
X155756Y48764D01*
X155770Y48750D01*
X156192Y48575D01*
X156650D01*
X157073Y48750D01*
X157714Y48684D01*
X157767Y48631D01*
X158189Y48456D01*
X158647D01*
X159070Y48631D01*
X159393Y48955D01*
X159568Y49378D01*
Y49835D01*
X159393Y50258D01*
X159268Y50383D01*
X159359Y50961D01*
X159379Y50969D01*
X159702Y51293D01*
X159877Y51715D01*
Y52173D01*
X159702Y52596D01*
X159379Y52919D01*
X158956Y53094D01*
D02*
G37*
G36*
X135119Y52947D02*
X134662D01*
X134239Y52772D01*
X133916Y52449D01*
X133741Y52026D01*
Y51569D01*
X133916Y51146D01*
X134239Y50822D01*
X134662Y50647D01*
X135119D01*
X135542Y50822D01*
X135572Y50852D01*
X136098Y50888D01*
X136422Y50564D01*
X136844Y50389D01*
X137302D01*
X137725Y50564D01*
X138048Y50888D01*
X138223Y51311D01*
Y51768D01*
X138048Y52191D01*
X137725Y52514D01*
X137302Y52689D01*
X136844D01*
X136422Y52514D01*
X136392Y52484D01*
X135865Y52449D01*
X135542Y52772D01*
X135119Y52947D01*
D02*
G37*
G36*
X171099Y55047D02*
X170642D01*
X170219Y54872D01*
X169896Y54548D01*
X169720Y54125D01*
Y53668D01*
X169896Y53245D01*
X170114Y53026D01*
X170156Y52671D01*
X170096Y52431D01*
X169852Y52187D01*
X169677Y51764D01*
Y51307D01*
X169852Y50884D01*
X170175Y50560D01*
X170598Y50385D01*
X171055D01*
X171478Y50560D01*
X171802Y50884D01*
X171977Y51307D01*
Y51764D01*
X171802Y52187D01*
X171583Y52406D01*
X171541Y52761D01*
X171601Y53001D01*
X171845Y53245D01*
X172020Y53668D01*
Y54125D01*
X171845Y54548D01*
X171522Y54872D01*
X171099Y55047D01*
D02*
G37*
G36*
X174704Y52464D02*
X174246D01*
X173824Y52289D01*
X173500Y51965D01*
X173325Y51543D01*
Y51085D01*
X173500Y50662D01*
X173824Y50339D01*
X174246Y50164D01*
X174704D01*
X175127Y50339D01*
X175528Y50569D01*
X175852Y50245D01*
X176274Y50071D01*
X176732D01*
X177155Y50245D01*
X177160Y50251D01*
X177614Y50440D01*
X177813Y50251D01*
X177945Y50120D01*
X178367Y49945D01*
X178825D01*
X179247Y50120D01*
X179571Y50444D01*
X179746Y50866D01*
Y51324D01*
X179571Y51746D01*
X179247Y52070D01*
X178825Y52245D01*
X178367D01*
X177945Y52070D01*
X177939Y52064D01*
X177485Y51875D01*
X177286Y52064D01*
X177155Y52195D01*
X176732Y52371D01*
X176274D01*
X175852Y52195D01*
X175450Y51965D01*
X175127Y52289D01*
X174704Y52464D01*
D02*
G37*
G36*
X127824Y53897D02*
X127367D01*
X126944Y53722D01*
X126620Y53399D01*
X126445Y52976D01*
Y52518D01*
X126620Y52096D01*
X126339Y51772D01*
X126016Y51449D01*
X125841Y51026D01*
Y50568D01*
X126016Y50146D01*
X126339Y49822D01*
X126762Y49647D01*
X127219D01*
X127642Y49822D01*
X127965Y50146D01*
X128141Y50568D01*
Y51026D01*
X127965Y51449D01*
X128247Y51772D01*
X128570Y52096D01*
X128745Y52518D01*
Y52976D01*
X128570Y53399D01*
X128247Y53722D01*
X127824Y53897D01*
D02*
G37*
G36*
X68438Y49351D02*
X67980D01*
X67558Y49176D01*
X67243Y48862D01*
X66929Y49176D01*
X66507Y49351D01*
X66049D01*
X65626Y49176D01*
X65303Y48853D01*
X65128Y48430D01*
Y47973D01*
X65303Y47550D01*
X65626Y47226D01*
X66049Y47051D01*
X66507D01*
X66929Y47226D01*
X67243Y47541D01*
X67558Y47226D01*
X67980Y47051D01*
X68438D01*
X68860Y47226D01*
X69184Y47550D01*
X69359Y47973D01*
Y48430D01*
X69184Y48853D01*
X68860Y49176D01*
X68438Y49351D01*
D02*
G37*
G36*
X162965Y51126D02*
X162508D01*
X162085Y50951D01*
X161761Y50627D01*
X161586Y50205D01*
Y49747D01*
X161761Y49324D01*
X162085Y49001D01*
X162508Y48826D01*
X162965D01*
X163388Y49001D01*
X163711Y49324D01*
X163886Y49747D01*
Y50205D01*
X163711Y50627D01*
X163388Y50951D01*
X162965Y51126D01*
D02*
G37*
G36*
X214520Y49339D02*
X214063D01*
X213640Y49164D01*
X213316Y48840D01*
X213187Y48527D01*
X212679D01*
X212550Y48840D01*
X212226Y49164D01*
X211804Y49339D01*
X211346D01*
X210923Y49164D01*
X210600Y48840D01*
X210470Y48527D01*
X209963D01*
X209833Y48840D01*
X209510Y49164D01*
X209087Y49339D01*
X208629D01*
X208207Y49164D01*
X207883Y48840D01*
X207708Y48418D01*
Y47960D01*
X207883Y47538D01*
X208207Y47214D01*
X208629Y47039D01*
X209087D01*
X209510Y47214D01*
X209833Y47538D01*
X209963Y47851D01*
X210470D01*
X210600Y47538D01*
X210923Y47214D01*
X211346Y47039D01*
X211804D01*
X212226Y47214D01*
X212550Y47538D01*
X212679Y47851D01*
X213187D01*
X213316Y47538D01*
X213640Y47214D01*
X214063Y47039D01*
X214520D01*
X214943Y47214D01*
X215266Y47538D01*
X215441Y47960D01*
Y48418D01*
X215266Y48840D01*
X214943Y49164D01*
X214520Y49339D01*
D02*
G37*
G36*
X190694D02*
X190236D01*
X189814Y49164D01*
X189490Y48840D01*
X189367Y48544D01*
X188901Y48486D01*
X188847Y48495D01*
X188731Y48775D01*
X188407Y49098D01*
X187985Y49273D01*
X187527D01*
X187104Y49098D01*
X186781Y48775D01*
X186767Y48740D01*
X186225D01*
X186211Y48775D01*
X185888Y49098D01*
X185465Y49273D01*
X185008D01*
X184585Y49098D01*
X184261Y48775D01*
X184086Y48352D01*
Y47895D01*
X184261Y47472D01*
X184585Y47148D01*
X185008Y46973D01*
X185465D01*
X185888Y47148D01*
X186211Y47472D01*
X186225Y47507D01*
X186767D01*
X186781Y47472D01*
X187104Y47148D01*
X187527Y46973D01*
X187985D01*
X188407Y47148D01*
X188731Y47472D01*
X188854Y47768D01*
X189320Y47827D01*
X189374Y47818D01*
X189490Y47538D01*
X189814Y47214D01*
X190236Y47039D01*
X190694D01*
X191116Y47214D01*
X191440Y47538D01*
X191615Y47960D01*
Y48418D01*
X191440Y48840D01*
X191116Y49164D01*
X190694Y49339D01*
D02*
G37*
G36*
X176732Y48872D02*
X176274D01*
X175852Y48697D01*
X175658Y48504D01*
X175423Y48396D01*
X175030Y48478D01*
X174887Y48622D01*
X174464Y48797D01*
X174006D01*
X173584Y48622D01*
X173260Y48299D01*
X173085Y47876D01*
Y47418D01*
X173260Y46996D01*
X173584Y46672D01*
X174006Y46497D01*
X174464D01*
X174887Y46672D01*
X175080Y46866D01*
X175316Y46974D01*
X175708Y46891D01*
X175852Y46747D01*
X176274Y46572D01*
X176732D01*
X177155Y46747D01*
X177478Y47071D01*
X177653Y47494D01*
Y47951D01*
X177478Y48374D01*
X177155Y48697D01*
X176732Y48872D01*
D02*
G37*
G36*
X137683Y48720D02*
X137225D01*
X136803Y48545D01*
X136665Y48408D01*
X136354Y48271D01*
X136014Y48406D01*
X135888Y48532D01*
X135465Y48707D01*
X135008D01*
X134585Y48532D01*
X134261Y48209D01*
X134086Y47786D01*
Y47328D01*
X134261Y46906D01*
X134585Y46582D01*
X135008Y46407D01*
X135465D01*
X135888Y46582D01*
X136025Y46720D01*
X136336Y46856D01*
X136676Y46722D01*
X136803Y46595D01*
X137225Y46420D01*
X137683D01*
X138106Y46595D01*
X138429Y46919D01*
X138604Y47342D01*
Y47799D01*
X138429Y48222D01*
X138106Y48545D01*
X137683Y48720D01*
D02*
G37*
G36*
X166685Y50441D02*
X166228D01*
X165805Y50266D01*
X165482Y49943D01*
X165307Y49520D01*
Y49063D01*
X165482Y48640D01*
X165805Y48316D01*
X166228Y48141D01*
X166685D01*
X167108Y48316D01*
X167432Y48640D01*
X167607Y49063D01*
Y49520D01*
X167432Y49943D01*
X167108Y50266D01*
X166685Y50441D01*
D02*
G37*
G36*
X23378Y50363D02*
X22921D01*
X22498Y50187D01*
X22175Y49864D01*
X22000Y49441D01*
Y48984D01*
X22175Y48561D01*
X22498Y48238D01*
X22921Y48063D01*
X23378D01*
X23801Y48238D01*
X24125Y48561D01*
X24300Y48984D01*
Y49441D01*
X24125Y49864D01*
X23801Y50187D01*
X23378Y50363D01*
D02*
G37*
G36*
X130422Y48400D02*
X129964D01*
X129542Y48224D01*
X129540Y48223D01*
X129215Y47904D01*
X128886Y48222D01*
X128464Y48397D01*
X128006D01*
X127584Y48222D01*
X127260Y47899D01*
X127085Y47476D01*
Y47019D01*
X127260Y46596D01*
X127584Y46272D01*
X128006Y46097D01*
X128464D01*
X128886Y46272D01*
X128889Y46274D01*
X129213Y46593D01*
X129542Y46275D01*
X129964Y46100D01*
X130422D01*
X130844Y46275D01*
X131168Y46598D01*
X131343Y47021D01*
Y47478D01*
X131168Y47901D01*
X130844Y48224D01*
X130422Y48400D01*
D02*
G37*
G36*
X28142Y50109D02*
X27685D01*
X27262Y49934D01*
X26939Y49611D01*
X26763Y49188D01*
Y48731D01*
X26939Y48308D01*
X27262Y47985D01*
X27685Y47809D01*
X28142D01*
X28565Y47985D01*
X28888Y48308D01*
X29063Y48731D01*
Y49188D01*
X28888Y49611D01*
X28565Y49934D01*
X28142Y50109D01*
D02*
G37*
G36*
X199108Y49339D02*
X198651D01*
X198228Y49164D01*
X197904Y48840D01*
X197729Y48418D01*
Y48105D01*
X197417Y47818D01*
X197274Y47753D01*
X197158Y47801D01*
X196700D01*
X196278Y47626D01*
X195954Y47302D01*
X195779Y46880D01*
Y46422D01*
X195954Y46000D01*
X196278Y45676D01*
X196700Y45501D01*
X197158D01*
X197581Y45676D01*
X197904Y46000D01*
X198079Y46422D01*
Y46734D01*
X198392Y47022D01*
X198534Y47087D01*
X198651Y47039D01*
X199108D01*
X199531Y47214D01*
X199854Y47538D01*
X200029Y47960D01*
Y48418D01*
X199854Y48840D01*
X199531Y49164D01*
X199108Y49339D01*
D02*
G37*
G36*
X77869Y49915D02*
X77412D01*
X76989Y49740D01*
X76666Y49416D01*
X76490Y48994D01*
Y48536D01*
X76666Y48113D01*
X76989Y47790D01*
X77412Y47615D01*
X77869D01*
X78292Y47790D01*
X78615Y48113D01*
X78790Y48536D01*
Y48994D01*
X78615Y49416D01*
X78292Y49740D01*
X77869Y49915D01*
D02*
G37*
G36*
X72122Y49527D02*
X71664D01*
X71242Y49352D01*
X70918Y49029D01*
X70743Y48606D01*
Y48149D01*
X70918Y47726D01*
X71242Y47402D01*
X71664Y47227D01*
X72122D01*
X72545Y47402D01*
X72868Y47726D01*
X73043Y48149D01*
Y48606D01*
X72868Y49029D01*
X72545Y49352D01*
X72122Y49527D01*
D02*
G37*
G36*
X171184Y49014D02*
X170727D01*
X170304Y48839D01*
X169981Y48516D01*
X169805Y48093D01*
Y47636D01*
X169981Y47213D01*
X170304Y46889D01*
X170727Y46714D01*
X171184D01*
X171607Y46889D01*
X171930Y47213D01*
X172105Y47636D01*
Y48093D01*
X171930Y48516D01*
X171607Y48839D01*
X171184Y49014D01*
D02*
G37*
G36*
X244209Y48832D02*
X243752D01*
X243329Y48657D01*
X243005Y48334D01*
X242830Y47911D01*
Y47453D01*
X243005Y47031D01*
X243329Y46707D01*
X243752Y46532D01*
X244209D01*
X244632Y46707D01*
X244955Y47031D01*
X245130Y47453D01*
Y47911D01*
X244955Y48334D01*
X244632Y48657D01*
X244209Y48832D01*
D02*
G37*
G36*
X38339Y48788D02*
X37881D01*
X37459Y48613D01*
X37135Y48289D01*
X36960Y47867D01*
Y47409D01*
X37135Y46986D01*
X37459Y46663D01*
X37881Y46488D01*
X38339D01*
X38762Y46663D01*
X39085Y46986D01*
X39260Y47409D01*
Y47867D01*
X39085Y48289D01*
X38762Y48613D01*
X38339Y48788D01*
D02*
G37*
G36*
X283103Y48709D02*
X282645D01*
X282223Y48534D01*
X281899Y48210D01*
X281724Y47788D01*
Y47330D01*
X281899Y46908D01*
X282223Y46584D01*
X282645Y46409D01*
X283103D01*
X283525Y46584D01*
X283849Y46908D01*
X284024Y47330D01*
Y47788D01*
X283849Y48210D01*
X283525Y48534D01*
X283103Y48709D01*
D02*
G37*
G36*
X147719Y48708D02*
X147261D01*
X146838Y48532D01*
X146515Y48209D01*
X146340Y47786D01*
Y47329D01*
X146515Y46906D01*
X146838Y46583D01*
X147261Y46407D01*
X147719D01*
X148141Y46583D01*
X148465Y46906D01*
X148640Y47329D01*
Y47786D01*
X148465Y48209D01*
X148141Y48532D01*
X147719Y48708D01*
D02*
G37*
G36*
X25504Y48394D02*
X25047D01*
X24624Y48219D01*
X24301Y47896D01*
X24126Y47473D01*
Y47015D01*
X24301Y46593D01*
X24624Y46269D01*
X25047Y46094D01*
X25504D01*
X25927Y46269D01*
X26250Y46593D01*
X26426Y47015D01*
Y47473D01*
X26250Y47896D01*
X25927Y48219D01*
X25504Y48394D01*
D02*
G37*
G36*
X34244Y47331D02*
X33787D01*
X33364Y47156D01*
X33041Y46832D01*
X32866Y46410D01*
Y45952D01*
X33041Y45530D01*
X33364Y45206D01*
X33787Y45031D01*
X34244D01*
X34667Y45206D01*
X34991Y45530D01*
X35166Y45952D01*
Y46410D01*
X34991Y46832D01*
X34667Y47156D01*
X34244Y47331D01*
D02*
G37*
G36*
X19623Y48266D02*
X18959D01*
X18346Y48012D01*
X17876Y47543D01*
X17622Y46929D01*
Y46265D01*
X17876Y45652D01*
X18346Y45182D01*
X18959Y44928D01*
X19623D01*
X20237Y45182D01*
X20706Y45652D01*
X20960Y46265D01*
Y46929D01*
X20706Y47543D01*
X20237Y48012D01*
X19623Y48266D01*
D02*
G37*
G36*
X30780Y47213D02*
X30322D01*
X29900Y47038D01*
X29576Y46714D01*
X29401Y46292D01*
Y45834D01*
X29576Y45412D01*
X29900Y45088D01*
X30322Y44913D01*
X30780D01*
X31203Y45088D01*
X31526Y45412D01*
X31701Y45834D01*
Y46292D01*
X31526Y46714D01*
X31203Y47038D01*
X30780Y47213D01*
D02*
G37*
G36*
X157247Y47150D02*
X156790D01*
X156367Y46975D01*
X156043Y46652D01*
X155868Y46229D01*
Y45771D01*
X156043Y45349D01*
X156367Y45025D01*
X156790Y44850D01*
X157247D01*
X157670Y45025D01*
X157993Y45349D01*
X158168Y45771D01*
Y46229D01*
X157993Y46652D01*
X157670Y46975D01*
X157247Y47150D01*
D02*
G37*
G36*
X241961Y46977D02*
X241504D01*
X241081Y46802D01*
X240757Y46478D01*
X240582Y46055D01*
Y45598D01*
X240757Y45175D01*
X241081Y44852D01*
X241504Y44677D01*
X241961D01*
X242384Y44852D01*
X242707Y45175D01*
X242882Y45598D01*
Y46055D01*
X242707Y46478D01*
X242384Y46802D01*
X241961Y46977D01*
D02*
G37*
G36*
X178738Y45093D02*
X178281D01*
X177858Y44918D01*
X177798Y44858D01*
X177472Y44637D01*
X177145Y44858D01*
X177085Y44918D01*
X176663Y45093D01*
X176205D01*
X175783Y44918D01*
X175781Y44916D01*
X175455Y44599D01*
X175128Y44916D01*
X175127Y44918D01*
X174704Y45093D01*
X174246D01*
X173824Y44918D01*
X173500Y44594D01*
X173325Y44172D01*
Y43714D01*
X173500Y43292D01*
X173824Y42968D01*
X174246Y42793D01*
X174704D01*
X175127Y42968D01*
X175128Y42969D01*
X175455Y43287D01*
X175781Y42969D01*
X175783Y42968D01*
X176205Y42793D01*
X176663D01*
X177085Y42968D01*
X177145Y43028D01*
X177472Y43249D01*
X177798Y43028D01*
X177858Y42968D01*
X178281Y42793D01*
X178738D01*
X179161Y42968D01*
X179484Y43292D01*
X179659Y43714D01*
Y44172D01*
X179484Y44594D01*
X179161Y44918D01*
X178738Y45093D01*
D02*
G37*
G36*
X139616Y44747D02*
X139158D01*
X138736Y44572D01*
X138616Y44452D01*
X138392Y44258D01*
X137962Y44452D01*
X137942Y44472D01*
X137519Y44647D01*
X137062D01*
X136639Y44472D01*
X136316Y44149D01*
X135823Y44267D01*
X135442Y44425D01*
X134984D01*
X134561Y44250D01*
X134238Y43926D01*
X134063Y43504D01*
Y43046D01*
X134238Y42624D01*
X134561Y42300D01*
X134984Y42125D01*
X135442D01*
X135864Y42300D01*
X136188Y42624D01*
X136680Y42505D01*
X137062Y42347D01*
X137519D01*
X137942Y42522D01*
X138062Y42643D01*
X138286Y42837D01*
X138716Y42643D01*
X138736Y42622D01*
X139158Y42447D01*
X139616D01*
X140039Y42622D01*
X140362Y42946D01*
X140537Y43369D01*
Y43826D01*
X140362Y44249D01*
X140039Y44572D01*
X139616Y44747D01*
D02*
G37*
G36*
X164797Y46486D02*
X164339D01*
X163917Y46311D01*
X163593Y45987D01*
X163418Y45565D01*
Y45107D01*
X163593Y44684D01*
X163917Y44361D01*
X164339Y44186D01*
X164797D01*
X165219Y44361D01*
X165543Y44684D01*
X165718Y45107D01*
Y45565D01*
X165543Y45987D01*
X165219Y46311D01*
X164797Y46486D01*
D02*
G37*
G36*
X187924Y44597D02*
X187466D01*
X187043Y44422D01*
X186882Y44260D01*
X186564Y44152D01*
X186246Y44260D01*
X186084Y44422D01*
X185662Y44597D01*
X185204D01*
X184782Y44422D01*
X184458Y44098D01*
X184283Y43676D01*
Y43218D01*
X184458Y42795D01*
X184782Y42472D01*
X185204Y42297D01*
X185662D01*
X186084Y42472D01*
X186246Y42633D01*
X186564Y42742D01*
X186882Y42633D01*
X187043Y42472D01*
X187466Y42297D01*
X187924D01*
X188346Y42472D01*
X188670Y42795D01*
X188845Y43218D01*
Y43676D01*
X188670Y44098D01*
X188346Y44422D01*
X187924Y44597D01*
D02*
G37*
G36*
X75263Y48059D02*
X74805D01*
X74383Y47884D01*
X74059Y47561D01*
X73884Y47138D01*
Y46680D01*
X74059Y46258D01*
X74383Y45934D01*
X74805Y45759D01*
X75263D01*
X75300Y45775D01*
X75583Y45351D01*
X75471Y45238D01*
X75296Y44815D01*
Y44358D01*
X75471Y43935D01*
X75794Y43612D01*
X76217Y43437D01*
X76674D01*
X77097Y43612D01*
X77421Y43935D01*
X77596Y44358D01*
Y44815D01*
X77421Y45238D01*
X77097Y45562D01*
X76674Y45737D01*
X76217D01*
X76179Y45721D01*
X75896Y46145D01*
X76009Y46258D01*
X76184Y46680D01*
Y47138D01*
X76009Y47561D01*
X75685Y47884D01*
X75263Y48059D01*
D02*
G37*
G36*
X97074Y45447D02*
X96617D01*
X96194Y45272D01*
X95871Y44948D01*
X95695Y44525D01*
Y44068D01*
X95871Y43645D01*
X96194Y43322D01*
X96617Y43147D01*
X97074D01*
X97497Y43322D01*
X97820Y43645D01*
X97995Y44068D01*
Y44525D01*
X97820Y44948D01*
X97497Y45272D01*
X97074Y45447D01*
D02*
G37*
G36*
X104259Y45444D02*
X103802D01*
X103379Y45269D01*
X103056Y44946D01*
X102881Y44523D01*
Y44065D01*
X103056Y43643D01*
X103379Y43319D01*
X103802Y43144D01*
X104259D01*
X104682Y43319D01*
X105006Y43643D01*
X105181Y44065D01*
Y44523D01*
X105006Y44946D01*
X104682Y45269D01*
X104259Y45444D01*
D02*
G37*
G36*
X253280Y45146D02*
X252822D01*
X252400Y44971D01*
X252076Y44647D01*
X251901Y44225D01*
Y43767D01*
X252076Y43345D01*
X252400Y43021D01*
X252822Y42846D01*
X253280D01*
X253703Y43021D01*
X254026Y43345D01*
X254201Y43767D01*
Y44225D01*
X254026Y44647D01*
X253703Y44971D01*
X253280Y45146D01*
D02*
G37*
G36*
X192158Y45016D02*
X191700D01*
X191278Y44841D01*
X190954Y44517D01*
X190779Y44094D01*
Y43637D01*
X190954Y43214D01*
X191278Y42891D01*
X191700Y42716D01*
X192158D01*
X192580Y42891D01*
X192904Y43214D01*
X193079Y43637D01*
Y44094D01*
X192904Y44517D01*
X192580Y44841D01*
X192158Y45016D01*
D02*
G37*
G36*
X144801Y46815D02*
X144343D01*
X143921Y46640D01*
X143597Y46317D01*
X143422Y45894D01*
Y45436D01*
X143597Y45014D01*
X143921Y44690D01*
X144039Y44159D01*
X143864Y43736D01*
Y43279D01*
X144039Y42856D01*
X144363Y42533D01*
X144785Y42358D01*
X145243D01*
X145666Y42533D01*
X145989Y42856D01*
X146164Y43279D01*
Y43736D01*
X145989Y44159D01*
X145666Y44482D01*
X145547Y45014D01*
X145722Y45436D01*
Y45894D01*
X145547Y46317D01*
X145223Y46640D01*
X144801Y46815D01*
D02*
G37*
G36*
X125961Y44425D02*
X125504D01*
X125081Y44250D01*
X124758Y43926D01*
X124583Y43504D01*
Y43046D01*
X124758Y42624D01*
X125081Y42300D01*
X125504Y42125D01*
X125961D01*
X126384Y42300D01*
X126708Y42624D01*
X126883Y43046D01*
Y43504D01*
X126708Y43926D01*
X126384Y44250D01*
X125961Y44425D01*
D02*
G37*
G36*
X287276Y43552D02*
X286819D01*
X286396Y43376D01*
X286072Y43053D01*
X285897Y42630D01*
Y42173D01*
X286072Y41750D01*
X286396Y41427D01*
X286819Y41252D01*
X287276D01*
X287699Y41427D01*
X288022Y41750D01*
X288197Y42173D01*
Y42630D01*
X288022Y43053D01*
X287699Y43376D01*
X287276Y43552D01*
D02*
G37*
G36*
X225465Y43377D02*
X225008D01*
X224585Y43202D01*
X224261Y42878D01*
X224086Y42456D01*
Y41998D01*
X224261Y41575D01*
X224585Y41252D01*
X225008Y41077D01*
X225465D01*
X225888Y41252D01*
X226211Y41575D01*
X226386Y41998D01*
Y42456D01*
X226211Y42878D01*
X225888Y43202D01*
X225465Y43377D01*
D02*
G37*
G36*
X213890D02*
X213433D01*
X213010Y43202D01*
X212686Y42878D01*
X212511Y42456D01*
Y41998D01*
X212686Y41575D01*
X213010Y41252D01*
X213433Y41077D01*
X213890D01*
X214313Y41252D01*
X214636Y41575D01*
X214811Y41998D01*
Y42456D01*
X214636Y42878D01*
X214313Y43202D01*
X213890Y43377D01*
D02*
G37*
G36*
X238260Y43237D02*
X237803D01*
X237380Y43062D01*
X237057Y42738D01*
X236881Y42315D01*
Y41858D01*
X237057Y41435D01*
X237380Y41112D01*
X237803Y40937D01*
X238260D01*
X238683Y41112D01*
X239006Y41435D01*
X239181Y41858D01*
Y42315D01*
X239006Y42738D01*
X238683Y43062D01*
X238260Y43237D01*
D02*
G37*
G36*
X76400Y41341D02*
X75943D01*
X75520Y41166D01*
X75401Y41046D01*
X75074Y40898D01*
X74747Y41046D01*
X74628Y41166D01*
X74205Y41341D01*
X73748D01*
X73325Y41166D01*
X73001Y40842D01*
X72826Y40419D01*
Y39962D01*
X73001Y39539D01*
X73256Y39285D01*
X73295Y38994D01*
X73256Y38703D01*
X73001Y38449D01*
X72826Y38026D01*
Y37569D01*
X73001Y37146D01*
X73325Y36822D01*
X73748Y36647D01*
X74205D01*
X74628Y36822D01*
X74831Y37025D01*
X74978Y37141D01*
X75455Y37055D01*
X75520Y36990D01*
X75943Y36814D01*
X76400D01*
X76823Y36990D01*
X77146Y37313D01*
X77321Y37736D01*
Y38193D01*
X77146Y38616D01*
X77010Y38752D01*
X76879Y39078D01*
X77010Y39403D01*
X77146Y39539D01*
X77321Y39962D01*
Y40419D01*
X77146Y40842D01*
X76823Y41166D01*
X76400Y41341D01*
D02*
G37*
G36*
X122820Y43007D02*
X122363D01*
X121940Y42832D01*
X121616Y42509D01*
X121441Y42086D01*
Y41629D01*
X121616Y41206D01*
X121940Y40883D01*
X122363Y40707D01*
X122820D01*
X123243Y40883D01*
X123566Y41206D01*
X123741Y41629D01*
Y42086D01*
X123566Y42509D01*
X123243Y42832D01*
X122820Y43007D01*
D02*
G37*
G36*
X233740Y42914D02*
X233283D01*
X232860Y42739D01*
X232537Y42416D01*
X232361Y41993D01*
Y41535D01*
X232537Y41113D01*
X232860Y40789D01*
X233283Y40614D01*
X233740D01*
X234163Y40789D01*
X234486Y41113D01*
X234661Y41535D01*
Y41993D01*
X234486Y42416D01*
X234163Y42739D01*
X233740Y42914D01*
D02*
G37*
G36*
X249992Y42174D02*
X249535D01*
X249112Y41998D01*
X248789Y41675D01*
X248614Y41252D01*
Y40795D01*
X248789Y40372D01*
X249112Y40049D01*
X249535Y39874D01*
X249992D01*
X250415Y40049D01*
X250739Y40372D01*
X250914Y40795D01*
Y41252D01*
X250739Y41675D01*
X250415Y41998D01*
X249992Y42174D01*
D02*
G37*
G36*
X164720Y41196D02*
X164263D01*
X163840Y41021D01*
X163516Y40698D01*
X163341Y40275D01*
Y39818D01*
X163516Y39395D01*
X163840Y39071D01*
X164263Y38896D01*
X164720D01*
X165143Y39071D01*
X165466Y39395D01*
X165641Y39818D01*
Y40275D01*
X165466Y40698D01*
X165143Y41021D01*
X164720Y41196D01*
D02*
G37*
G36*
X157111Y41117D02*
X156654D01*
X156231Y40942D01*
X155908Y40619D01*
X155733Y40196D01*
Y39739D01*
X155908Y39316D01*
X156231Y38992D01*
X156654Y38817D01*
X157111D01*
X157534Y38992D01*
X157858Y39316D01*
X158033Y39739D01*
Y40196D01*
X157858Y40619D01*
X157534Y40942D01*
X157111Y41117D01*
D02*
G37*
G36*
X137557Y41033D02*
X137099D01*
X136677Y40858D01*
X136353Y40535D01*
X136178Y40112D01*
Y39655D01*
X136353Y39232D01*
X136677Y38908D01*
X137099Y38733D01*
X137557D01*
X137980Y38908D01*
X138303Y39232D01*
X138478Y39655D01*
Y40112D01*
X138303Y40535D01*
X137980Y40858D01*
X137557Y41033D01*
D02*
G37*
G36*
X262528Y41016D02*
X262071D01*
X261648Y40841D01*
X261325Y40517D01*
X261150Y40095D01*
Y39637D01*
X261325Y39215D01*
X261648Y38891D01*
X262071Y38716D01*
X262528D01*
X262951Y38891D01*
X263274Y39215D01*
X263450Y39637D01*
Y40095D01*
X263274Y40517D01*
X262951Y40841D01*
X262528Y41016D01*
D02*
G37*
G36*
X176997Y41111D02*
X176539D01*
X176116Y40936D01*
X175793Y40612D01*
X175618Y40189D01*
Y39732D01*
X175793Y39309D01*
X176116Y38986D01*
X176539Y38811D01*
X176997D01*
X177239Y38911D01*
X177462Y38972D01*
X177955Y38814D01*
X178049Y38721D01*
X178472Y38546D01*
X178929D01*
X179352Y38721D01*
X179675Y39044D01*
X179850Y39467D01*
Y39924D01*
X179675Y40347D01*
X179352Y40670D01*
X178929Y40846D01*
X178472D01*
X178229Y40745D01*
X178006Y40684D01*
X177513Y40842D01*
X177419Y40936D01*
X176997Y41111D01*
D02*
G37*
G36*
X172641Y42582D02*
X172184D01*
X171761Y42407D01*
X171438Y42083D01*
X171263Y41661D01*
Y41203D01*
X171438Y40780D01*
X171692Y40526D01*
X171671Y40422D01*
X171348Y40098D01*
X171173Y39676D01*
Y39218D01*
X171348Y38796D01*
X171671Y38472D01*
X172094Y38297D01*
X172552D01*
X172974Y38472D01*
X173298Y38796D01*
X173473Y39218D01*
Y39676D01*
X173298Y40098D01*
X173043Y40353D01*
X173064Y40457D01*
X173388Y40780D01*
X173563Y41203D01*
Y41661D01*
X173388Y42083D01*
X173064Y42407D01*
X172641Y42582D01*
D02*
G37*
G36*
X188969Y40520D02*
X188511D01*
X188089Y40345D01*
X187765Y40021D01*
X187590Y39599D01*
Y39141D01*
X187765Y38719D01*
X188089Y38395D01*
X188511Y38220D01*
X188969D01*
X189392Y38395D01*
X189715Y38719D01*
X189890Y39141D01*
Y39599D01*
X189715Y40021D01*
X189392Y40345D01*
X188969Y40520D01*
D02*
G37*
G36*
X160634Y40043D02*
X160176D01*
X159754Y39868D01*
X159430Y39544D01*
X159255Y39121D01*
Y38664D01*
X159430Y38241D01*
X159754Y37918D01*
X160176Y37743D01*
X160634D01*
X161056Y37918D01*
X161380Y38241D01*
X161555Y38664D01*
Y39121D01*
X161380Y39544D01*
X161056Y39868D01*
X160634Y40043D01*
D02*
G37*
G36*
X122158Y39758D02*
X121700D01*
X121278Y39583D01*
X120954Y39260D01*
X120779Y38837D01*
Y38380D01*
X120954Y37957D01*
X121278Y37633D01*
X121700Y37458D01*
X122158D01*
X122581Y37633D01*
X122904Y37957D01*
X123079Y38380D01*
Y38837D01*
X122904Y39260D01*
X122581Y39583D01*
X122158Y39758D01*
D02*
G37*
G36*
X168741Y47497D02*
X168284D01*
X167861Y47322D01*
X167538Y46999D01*
X167363Y46576D01*
Y46119D01*
X167538Y45696D01*
X167861Y45372D01*
X168174Y45243D01*
X168074Y44743D01*
X168056D01*
X167633Y44568D01*
X167310Y44244D01*
X167135Y43822D01*
Y43364D01*
X167310Y42942D01*
X167633Y42618D01*
X167651Y42531D01*
X167414Y42294D01*
X167239Y41871D01*
Y41413D01*
X167414Y40991D01*
X167737Y40667D01*
X167600Y40246D01*
X167425Y39823D01*
Y39365D01*
X167600Y38943D01*
X167923Y38619D01*
X167754Y38333D01*
X167716Y38296D01*
X167541Y37873D01*
Y37416D01*
X167716Y36993D01*
X168040Y36669D01*
X168463Y36494D01*
X168920D01*
X169343Y36669D01*
X169666Y36993D01*
X169841Y37416D01*
Y37873D01*
X169666Y38296D01*
X169343Y38619D01*
X169512Y38905D01*
X169550Y38943D01*
X169725Y39365D01*
Y39823D01*
X169550Y40246D01*
X169226Y40569D01*
X169363Y40991D01*
X169539Y41413D01*
Y41871D01*
X169363Y42294D01*
X169040Y42617D01*
X169023Y42704D01*
X169260Y42942D01*
X169435Y43364D01*
Y43822D01*
X169260Y44244D01*
X168936Y44568D01*
X168624Y44697D01*
X168723Y45197D01*
X168741D01*
X169164Y45372D01*
X169488Y45696D01*
X169663Y46119D01*
Y46576D01*
X169488Y46999D01*
X169164Y47322D01*
X168741Y47497D01*
D02*
G37*
G36*
X153032Y38702D02*
X152574D01*
X152152Y38527D01*
X151828Y38204D01*
X151653Y37781D01*
Y37324D01*
X151828Y36901D01*
X152152Y36577D01*
X152574Y36402D01*
X153032D01*
X153455Y36577D01*
X153778Y36901D01*
X153953Y37324D01*
Y37781D01*
X153778Y38204D01*
X153455Y38527D01*
X153032Y38702D01*
D02*
G37*
G36*
X141169Y38659D02*
X140712D01*
X140289Y38484D01*
X139966Y38161D01*
X139791Y37738D01*
Y37280D01*
X139966Y36858D01*
X140289Y36534D01*
X140712Y36359D01*
X141169D01*
X141592Y36534D01*
X141916Y36858D01*
X142091Y37280D01*
Y37738D01*
X141916Y38161D01*
X141592Y38484D01*
X141169Y38659D01*
D02*
G37*
G36*
X78947Y36414D02*
X78490D01*
X78067Y36239D01*
X77744Y35916D01*
X77373Y35842D01*
X77316Y35899D01*
X76894Y36074D01*
X76436D01*
X76014Y35899D01*
X75690Y35576D01*
X75515Y35153D01*
Y34695D01*
X75690Y34273D01*
X76014Y33949D01*
X76436Y33774D01*
X76894D01*
X77316Y33949D01*
X77640Y34273D01*
X78010Y34346D01*
X78067Y34290D01*
X78490Y34114D01*
X78947D01*
X79370Y34290D01*
X79693Y34613D01*
X79868Y35036D01*
Y35493D01*
X79693Y35916D01*
X79370Y36239D01*
X78947Y36414D01*
D02*
G37*
G36*
X86370Y36662D02*
X85913D01*
X85490Y36487D01*
X85167Y36163D01*
X84992Y35741D01*
Y35283D01*
X85167Y34860D01*
X85490Y34537D01*
X85913Y34362D01*
X86370D01*
X86793Y34537D01*
X87117Y34860D01*
X87292Y35283D01*
Y35741D01*
X87117Y36163D01*
X86793Y36487D01*
X86370Y36662D01*
D02*
G37*
G36*
X90091Y36414D02*
X89634D01*
X89211Y36239D01*
X88887Y35916D01*
X88712Y35493D01*
Y35036D01*
X88887Y34613D01*
X89211Y34290D01*
X89634Y34114D01*
X90091D01*
X90514Y34290D01*
X90837Y34613D01*
X91012Y35036D01*
Y35493D01*
X90837Y35916D01*
X90514Y36239D01*
X90091Y36414D01*
D02*
G37*
G36*
X125426Y39103D02*
X124968D01*
X124545Y38928D01*
X124222Y38604D01*
X124047Y38181D01*
Y37724D01*
X124222Y37301D01*
X124545Y36978D01*
X124820Y36391D01*
Y35934D01*
X124995Y35511D01*
X125318Y35188D01*
X125383Y34620D01*
X125339Y34512D01*
Y34054D01*
X125514Y33631D01*
X125837Y33308D01*
X126260Y33133D01*
X126717D01*
X127140Y33308D01*
X127463Y33631D01*
X127639Y34054D01*
Y34512D01*
X127463Y34934D01*
X127140Y35258D01*
X127075Y35826D01*
X127120Y35934D01*
Y36391D01*
X126945Y36814D01*
X126621Y37137D01*
X126347Y37724D01*
Y38181D01*
X126172Y38604D01*
X125848Y38928D01*
X125426Y39103D01*
D02*
G37*
G36*
X201725Y33197D02*
X201267D01*
X200845Y33022D01*
X200521Y32699D01*
X200346Y32276D01*
Y31819D01*
X200521Y31396D01*
X200845Y31072D01*
X201267Y30897D01*
X201725D01*
X202148Y31072D01*
X202471Y31396D01*
X202646Y31819D01*
Y32276D01*
X202471Y32699D01*
X202148Y33022D01*
X201725Y33197D01*
D02*
G37*
G36*
X148443Y32823D02*
X147985D01*
X147563Y32648D01*
X147239Y32325D01*
X147064Y31902D01*
Y31444D01*
X147239Y31022D01*
X147563Y30698D01*
X147985Y30523D01*
X148443D01*
X148865Y30698D01*
X149189Y31022D01*
X149364Y31444D01*
Y31902D01*
X149189Y32325D01*
X148865Y32648D01*
X148443Y32823D01*
D02*
G37*
G36*
X167010Y31051D02*
X166552D01*
X166130Y30876D01*
X165806Y30553D01*
X165631Y30130D01*
Y30068D01*
X165631Y30068D01*
X165131Y29775D01*
X164946Y29851D01*
X164489D01*
X164066Y29676D01*
X163743Y29353D01*
X163686Y29217D01*
X163484Y29176D01*
X163062Y29351D01*
X162604D01*
X162181Y29176D01*
X161858Y28853D01*
X161683Y28430D01*
Y27973D01*
X161858Y27550D01*
X162181Y27226D01*
X162604Y27051D01*
X163062D01*
X163484Y27226D01*
X163808Y27550D01*
X163864Y27687D01*
X164066Y27727D01*
X164489Y27551D01*
X164946D01*
X165369Y27727D01*
X165693Y28050D01*
X165788Y28280D01*
X166249Y28473D01*
X166368Y28473D01*
X166513Y28333D01*
Y27933D01*
X166688Y27511D01*
X167011Y27187D01*
X167434Y27012D01*
X167892D01*
X168314Y27187D01*
X168638Y27511D01*
X168813Y27933D01*
Y28391D01*
X168638Y28813D01*
X168314Y29137D01*
X167892Y29312D01*
X167824Y29413D01*
X167931Y29673D01*
Y30130D01*
X167756Y30553D01*
X167432Y30876D01*
X167010Y31051D01*
D02*
G37*
G36*
X135335Y32865D02*
X134877D01*
X134455Y32690D01*
X134131Y32367D01*
X133956Y31944D01*
Y31487D01*
X134097Y31148D01*
X134106Y30956D01*
X133997Y30492D01*
X133799Y30294D01*
X133624Y29871D01*
Y29413D01*
X133799Y28991D01*
X134122Y28667D01*
X134545Y28492D01*
X135002D01*
X135425Y28667D01*
X135749Y28991D01*
X135924Y29413D01*
Y29871D01*
X135783Y30210D01*
X135774Y30402D01*
X135883Y30866D01*
X136081Y31064D01*
X136256Y31487D01*
Y31944D01*
X136081Y32367D01*
X135758Y32690D01*
X135335Y32865D01*
D02*
G37*
G36*
X160043Y32658D02*
X159585D01*
X159163Y32483D01*
X158839Y32160D01*
X158664Y31737D01*
Y31280D01*
X158839Y30857D01*
X159163Y30533D01*
X158955Y30149D01*
X158780Y29726D01*
Y29269D01*
X158955Y28846D01*
X159279Y28523D01*
X159701Y28347D01*
X160159D01*
X160581Y28523D01*
X160905Y28846D01*
X161080Y29269D01*
Y29726D01*
X160905Y30149D01*
X160581Y30472D01*
X160789Y30857D01*
X160964Y31280D01*
Y31737D01*
X160789Y32160D01*
X160466Y32483D01*
X160043Y32658D01*
D02*
G37*
G36*
X151331Y32705D02*
X150874D01*
X150451Y32530D01*
X150127Y32206D01*
X149952Y31783D01*
Y31326D01*
X150127Y30903D01*
X150434Y30596D01*
X150452Y30568D01*
X150506Y30015D01*
X150364Y29873D01*
X150189Y29450D01*
Y28993D01*
X150364Y28570D01*
X150687Y28246D01*
X151110Y28071D01*
X151567D01*
X151990Y28246D01*
X152313Y28570D01*
X152489Y28993D01*
Y29450D01*
X152313Y29873D01*
X152007Y30179D01*
X151989Y30208D01*
X151935Y30760D01*
X152077Y30903D01*
X152252Y31326D01*
Y31783D01*
X152077Y32206D01*
X151754Y32530D01*
X151331Y32705D01*
D02*
G37*
G36*
X155659Y29351D02*
X155202D01*
X154779Y29176D01*
X154456Y28853D01*
X154281Y28430D01*
Y27973D01*
X154456Y27550D01*
X154779Y27226D01*
X155202Y27051D01*
X155659D01*
X156082Y27226D01*
X156641Y27078D01*
X156741Y26978D01*
X157164Y26803D01*
X157621D01*
X158044Y26978D01*
X158368Y27302D01*
X158543Y27724D01*
Y28182D01*
X158368Y28605D01*
X158044Y28928D01*
X157621Y29103D01*
X157164D01*
X156741Y28928D01*
X156182Y29076D01*
X156082Y29176D01*
X155659Y29351D01*
D02*
G37*
G36*
X263616Y28301D02*
X263158D01*
X262736Y28126D01*
X262412Y27803D01*
X262237Y27380D01*
Y26922D01*
X262412Y26500D01*
X262736Y26176D01*
X263158Y26001D01*
X263616D01*
X264039Y26176D01*
X264362Y26500D01*
X264537Y26922D01*
Y27380D01*
X264362Y27803D01*
X264039Y28126D01*
X263616Y28301D01*
D02*
G37*
G36*
X129166Y27764D02*
X128708D01*
X128286Y27589D01*
X127962Y27266D01*
X127787Y26843D01*
Y26385D01*
X127962Y25963D01*
X128286Y25639D01*
X128708Y25464D01*
X129166D01*
X129588Y25639D01*
X129912Y25963D01*
X130087Y26385D01*
Y26843D01*
X129912Y27266D01*
X129588Y27589D01*
X129166Y27764D01*
D02*
G37*
G36*
X131646Y26347D02*
X131189D01*
X130766Y26172D01*
X130442Y25848D01*
X130267Y25426D01*
Y24968D01*
X130309Y24868D01*
X130279Y24826D01*
X129905Y24535D01*
X129610Y24657D01*
X129153D01*
X128730Y24482D01*
X128407Y24159D01*
X128232Y23736D01*
Y23279D01*
X128407Y22856D01*
X128730Y22532D01*
X129153Y22357D01*
X129610D01*
X130033Y22532D01*
X130357Y22856D01*
X130532Y23279D01*
Y23736D01*
X130490Y23836D01*
X130520Y23878D01*
X130893Y24169D01*
X131189Y24047D01*
X131646D01*
X132069Y24222D01*
X132392Y24545D01*
X132567Y24968D01*
Y25426D01*
X132392Y25848D01*
X132069Y26172D01*
X131646Y26347D01*
D02*
G37*
G36*
X144678Y24890D02*
X144220D01*
X143797Y24715D01*
X143474Y24392D01*
X143299Y23969D01*
Y23511D01*
X143474Y23089D01*
X143797Y22765D01*
X144220Y22590D01*
X144678D01*
X145100Y22765D01*
X145424Y23089D01*
X145599Y23511D01*
Y23969D01*
X145424Y24392D01*
X145100Y24715D01*
X144678Y24890D01*
D02*
G37*
G36*
X166764Y24851D02*
X166307D01*
X165884Y24676D01*
X165560Y24352D01*
X165385Y23930D01*
Y23472D01*
X165560Y23049D01*
X165884Y22726D01*
X166307Y22551D01*
X166764D01*
X167187Y22726D01*
X167510Y23049D01*
X168050Y23045D01*
X168080Y22971D01*
X168404Y22647D01*
X168826Y22472D01*
X169284D01*
X169706Y22647D01*
X170030Y22971D01*
X170205Y23393D01*
Y23851D01*
X170030Y24273D01*
X169706Y24597D01*
X169284Y24772D01*
X168826D01*
X168404Y24597D01*
X168080Y24273D01*
X167541Y24278D01*
X167510Y24352D01*
X167187Y24676D01*
X166764Y24851D01*
D02*
G37*
G36*
X148393Y24077D02*
X147936D01*
X147513Y23902D01*
X147190Y23579D01*
X147015Y23156D01*
Y22699D01*
X147190Y22276D01*
X147513Y21952D01*
X147936Y21777D01*
X148393D01*
X148816Y21952D01*
X149139Y22276D01*
X149315Y22699D01*
Y23156D01*
X149139Y23579D01*
X148816Y23902D01*
X148393Y24077D01*
D02*
G37*
G36*
X135002Y23377D02*
X134545D01*
X134122Y23202D01*
X133799Y22879D01*
X133624Y22456D01*
Y21999D01*
X133799Y21576D01*
X134122Y21252D01*
X134545Y21077D01*
X135002D01*
X135425Y21252D01*
X135749Y21576D01*
X135924Y21999D01*
Y22456D01*
X135749Y22879D01*
X135425Y23202D01*
X135002Y23377D01*
D02*
G37*
G36*
X60289Y23170D02*
X59831D01*
X59409Y22995D01*
X59085Y22671D01*
X58910Y22249D01*
Y21791D01*
X59085Y21369D01*
X59409Y21045D01*
X59831Y20870D01*
X60289D01*
X60711Y21045D01*
X61035Y21369D01*
X61210Y21791D01*
Y22249D01*
X61035Y22671D01*
X60711Y22995D01*
X60289Y23170D01*
D02*
G37*
G36*
X257638Y22965D02*
X257180D01*
X256758Y22790D01*
X256434Y22466D01*
X256259Y22043D01*
Y21586D01*
X256312Y21459D01*
X256236Y21307D01*
X255956Y21010D01*
X255631D01*
X255209Y20835D01*
X254885Y20511D01*
X254710Y20089D01*
Y19631D01*
X254885Y19209D01*
X255209Y18885D01*
X255631Y18710D01*
X256089D01*
X256511Y18885D01*
X256835Y19209D01*
X257010Y19631D01*
Y20089D01*
X256957Y20216D01*
X257033Y20367D01*
X257313Y20665D01*
X257638D01*
X258061Y20840D01*
X258384Y21163D01*
X258559Y21586D01*
Y22043D01*
X258384Y22466D01*
X258061Y22790D01*
X257638Y22965D01*
D02*
G37*
G36*
X203828Y20590D02*
X203370D01*
X202948Y20415D01*
X202624Y20092D01*
X202449Y19669D01*
Y19211D01*
X202624Y18789D01*
X202948Y18465D01*
X203370Y18290D01*
X203828D01*
X204251Y18465D01*
X204574Y18789D01*
X204749Y19211D01*
Y19669D01*
X204574Y20092D01*
X204251Y20415D01*
X203828Y20590D01*
D02*
G37*
G36*
X154116Y20144D02*
X153658D01*
X153235Y19969D01*
X152912Y19645D01*
X152737Y19222D01*
Y18765D01*
X152912Y18342D01*
X153235Y18019D01*
X153658Y17844D01*
X154116D01*
X154538Y18019D01*
X154862Y18342D01*
X155037Y18765D01*
Y19222D01*
X154862Y19645D01*
X154538Y19969D01*
X154116Y20144D01*
D02*
G37*
G36*
X62059Y18770D02*
X61601D01*
X61179Y18595D01*
X60855Y18271D01*
X60680Y17849D01*
Y17391D01*
X60855Y16969D01*
X61179Y16645D01*
X61601Y16470D01*
X62059D01*
X62481Y16645D01*
X62805Y16969D01*
X62980Y17391D01*
Y17849D01*
X62805Y18271D01*
X62481Y18595D01*
X62059Y18770D01*
D02*
G37*
G36*
X133141Y21142D02*
X132684D01*
X132261Y20967D01*
X131938Y20644D01*
X131763Y20221D01*
Y19763D01*
X131938Y19341D01*
X132261Y19017D01*
X132684Y18842D01*
X132832D01*
X133039Y18342D01*
X132946Y18249D01*
X132771Y17826D01*
Y17368D01*
X132946Y16946D01*
X133269Y16622D01*
X133692Y16447D01*
X134149D01*
X134572Y16622D01*
X134896Y16946D01*
X135071Y17368D01*
Y17826D01*
X134896Y18249D01*
X134572Y18572D01*
X134149Y18747D01*
X134001D01*
X133794Y19247D01*
X133887Y19341D01*
X134063Y19763D01*
Y20221D01*
X133887Y20644D01*
X133564Y20967D01*
X133141Y21142D01*
D02*
G37*
G36*
X128536Y17764D02*
X128078D01*
X127656Y17589D01*
X127332Y17266D01*
X127157Y16843D01*
Y16385D01*
X127332Y15963D01*
X127656Y15639D01*
X128078Y15464D01*
X128536D01*
X128958Y15639D01*
X129282Y15963D01*
X129333Y16087D01*
X129703Y16075D01*
X129851Y16029D01*
X130008Y15649D01*
X130332Y15325D01*
X130755Y15150D01*
X131212D01*
X131635Y15325D01*
X131958Y15649D01*
X132133Y16071D01*
Y16529D01*
X131958Y16951D01*
X131635Y17275D01*
X131212Y17450D01*
X130755D01*
X130332Y17275D01*
X130008Y16951D01*
X129957Y16827D01*
X129587Y16839D01*
X129440Y16885D01*
X129282Y17266D01*
X128958Y17589D01*
X128536Y17764D01*
D02*
G37*
G36*
X78811Y15825D02*
X78354D01*
X77931Y15650D01*
X77608Y15326D01*
X77433Y14904D01*
Y14446D01*
X77608Y14024D01*
X77931Y13700D01*
X78354Y13525D01*
X78811D01*
X79234Y13700D01*
X79558Y14024D01*
X79733Y14446D01*
Y14904D01*
X79558Y15326D01*
X79234Y15650D01*
X78811Y15825D01*
D02*
G37*
G36*
X81823Y13847D02*
X81366D01*
X80943Y13672D01*
X80620Y13348D01*
X80445Y12926D01*
Y12468D01*
X80620Y12045D01*
X80943Y11722D01*
X81366Y11547D01*
X81823D01*
X82246Y11722D01*
X82569Y12045D01*
X82744Y12468D01*
Y12926D01*
X82569Y13348D01*
X82246Y13672D01*
X81823Y13847D01*
D02*
G37*
G36*
X258339Y11898D02*
X257881D01*
X257459Y11723D01*
X257135Y11400D01*
X257018Y11116D01*
X256507Y11064D01*
X256497Y11066D01*
X256408Y11281D01*
X256084Y11605D01*
X255662Y11780D01*
X255204D01*
X254782Y11605D01*
X254458Y11281D01*
X254283Y10859D01*
Y10401D01*
X254458Y9979D01*
X254782Y9655D01*
X255204Y9480D01*
X255662D01*
X256084Y9655D01*
X256408Y9979D01*
X256525Y10262D01*
X257037Y10314D01*
X257046Y10312D01*
X257135Y10097D01*
X257459Y9773D01*
X257881Y9598D01*
X258339D01*
X258762Y9773D01*
X259085Y10097D01*
X259260Y10519D01*
Y10977D01*
X259085Y11400D01*
X258762Y11723D01*
X258339Y11898D01*
D02*
G37*
G36*
X116213Y12685D02*
X115755D01*
X115333Y12510D01*
X115009Y12186D01*
X114834Y11764D01*
Y11306D01*
X115009Y10884D01*
X115333Y10560D01*
X115755Y10385D01*
X116213D01*
X116636Y10560D01*
X116959Y10884D01*
X117134Y11306D01*
Y11764D01*
X116959Y12186D01*
X116636Y12510D01*
X116213Y12685D01*
D02*
G37*
G36*
X228457Y11725D02*
X228000D01*
X227577Y11550D01*
X227253Y11226D01*
X227078Y10804D01*
Y10346D01*
X227253Y9924D01*
X227577Y9600D01*
X228000Y9425D01*
X228457D01*
X228880Y9600D01*
X229203Y9924D01*
X229378Y10346D01*
Y10804D01*
X229203Y11226D01*
X228880Y11550D01*
X228457Y11725D01*
D02*
G37*
G36*
X261649Y11650D02*
X261191D01*
X260769Y11475D01*
X260445Y11151D01*
X260270Y10729D01*
Y10271D01*
X260445Y9849D01*
X260769Y9525D01*
X261191Y9350D01*
X261649D01*
X262071Y9525D01*
X262395Y9849D01*
X262570Y10271D01*
Y10729D01*
X262395Y11151D01*
X262071Y11475D01*
X261649Y11650D01*
D02*
G37*
G36*
X203309Y10737D02*
X202851D01*
X202429Y10562D01*
X202105Y10238D01*
X201930Y9816D01*
Y9358D01*
X202105Y8935D01*
X202429Y8612D01*
X202851Y8437D01*
X203309D01*
X203731Y8612D01*
X204055Y8935D01*
X204230Y9358D01*
Y9816D01*
X204055Y10238D01*
X203731Y10562D01*
X203309Y10737D01*
D02*
G37*
G36*
X198509Y10725D02*
X198051D01*
X197629Y10550D01*
X197305Y10226D01*
X197130Y9804D01*
Y9346D01*
X197305Y8924D01*
X197629Y8600D01*
X198051Y8425D01*
X198509D01*
X198931Y8600D01*
X199255Y8924D01*
X199430Y9346D01*
Y9804D01*
X199255Y10226D01*
X198931Y10550D01*
X198509Y10725D01*
D02*
G37*
G36*
X194447Y10104D02*
X193989D01*
X193567Y9929D01*
X193243Y9606D01*
X193068Y9183D01*
Y8726D01*
X193243Y8303D01*
X193567Y7979D01*
X193989Y7804D01*
X194447D01*
X194869Y7979D01*
X195193Y8303D01*
X195368Y8726D01*
Y9183D01*
X195193Y9606D01*
X194869Y9929D01*
X194447Y10104D01*
D02*
G37*
G36*
X189553D02*
X189096D01*
X188673Y9929D01*
X188350Y9606D01*
X188175Y9183D01*
Y8726D01*
X188350Y8303D01*
X188673Y7979D01*
X189096Y7804D01*
X189553D01*
X189976Y7979D01*
X190300Y8303D01*
X190475Y8726D01*
Y9183D01*
X190300Y9606D01*
X189976Y9929D01*
X189553Y10104D01*
D02*
G37*
G36*
X185875D02*
X185417D01*
X184994Y9929D01*
X184671Y9606D01*
X184496Y9183D01*
Y8726D01*
X184671Y8303D01*
X184994Y7979D01*
X185417Y7804D01*
X185875D01*
X186297Y7979D01*
X186621Y8303D01*
X186796Y8726D01*
Y9183D01*
X186621Y9606D01*
X186297Y9929D01*
X185875Y10104D01*
D02*
G37*
G36*
X148393Y9644D02*
X147936D01*
X147513Y9469D01*
X147190Y9145D01*
X147015Y8723D01*
Y8265D01*
X147190Y7843D01*
X147513Y7519D01*
X147936Y7344D01*
X148393D01*
X148816Y7519D01*
X149139Y7843D01*
X149315Y8265D01*
Y8723D01*
X149139Y9145D01*
X148816Y9469D01*
X148393Y9644D01*
D02*
G37*
G36*
X80083Y9364D02*
X79625D01*
X79203Y9189D01*
X78879Y8865D01*
X78704Y8443D01*
Y7985D01*
X78879Y7562D01*
X79203Y7239D01*
X79625Y7064D01*
X80083D01*
X80506Y7239D01*
X80829Y7562D01*
X81004Y7985D01*
Y8443D01*
X80829Y8865D01*
X80506Y9189D01*
X80083Y9364D01*
D02*
G37*
G36*
X154441Y8680D02*
X153984D01*
X153561Y8505D01*
X153238Y8181D01*
X153063Y7759D01*
Y7301D01*
X153238Y6878D01*
X153561Y6555D01*
X153984Y6380D01*
X154441D01*
X154864Y6555D01*
X155187Y6878D01*
X155363Y7301D01*
Y7759D01*
X155187Y8181D01*
X154864Y8505D01*
X154441Y8680D01*
D02*
G37*
G36*
X143053D02*
X142595D01*
X142172Y8505D01*
X141849Y8181D01*
X141674Y7759D01*
Y7301D01*
X141849Y6878D01*
X142172Y6555D01*
X142595Y6380D01*
X143053D01*
X143475Y6555D01*
X143799Y6878D01*
X143974Y7301D01*
Y7759D01*
X143799Y8181D01*
X143475Y8505D01*
X143053Y8680D01*
D02*
G37*
G36*
X137630D02*
X137173D01*
X136750Y8505D01*
X136427Y8181D01*
X136252Y7759D01*
Y7301D01*
X136427Y6878D01*
X136750Y6555D01*
X137173Y6380D01*
X137630D01*
X138053Y6555D01*
X138376Y6878D01*
X138552Y7301D01*
Y7759D01*
X138376Y8181D01*
X138053Y8505D01*
X137630Y8680D01*
D02*
G37*
G36*
X127000Y6760D02*
X126543D01*
X126120Y6585D01*
X125797Y6262D01*
X125622Y5839D01*
Y5381D01*
X125797Y4959D01*
X126120Y4635D01*
X126543Y4460D01*
X127000D01*
X127423Y4635D01*
X127747Y4959D01*
X127922Y5381D01*
Y5839D01*
X127747Y6262D01*
X127423Y6585D01*
X127000Y6760D01*
D02*
G37*
%LPD*%
D14*
X86918Y10335D02*
X87486Y9766D01*
X83071Y10335D02*
X86918D01*
D146*
X303150Y116929D02*
D03*
Y40551D02*
D03*
X38858Y28425D02*
D03*
Y129055D02*
D03*
D147*
X303110Y30760D02*
D03*
X300990Y29770D02*
D03*
X286140Y5370D02*
D03*
X285850Y3380D02*
D03*
X283450Y4090D02*
D03*
X281210Y3242D02*
D03*
X184080Y23260D02*
D03*
X262676Y14984D02*
D03*
X248692Y144288D02*
D03*
X246440Y23670D02*
D03*
X250895Y129229D02*
D03*
X231265Y84540D02*
D03*
X178509Y47722D02*
D03*
X93511Y101042D02*
D03*
X93330Y105037D02*
D03*
X100525Y101071D02*
D03*
X69714D02*
D03*
X124324Y100361D02*
D03*
X156975Y99667D02*
D03*
X131722Y96420D02*
D03*
X179532Y93497D02*
D03*
X70070Y11210D02*
D03*
X84140Y6190D02*
D03*
X81980Y4610D02*
D03*
X79470Y3960D02*
D03*
X73880Y3930D02*
D03*
X71610Y4020D02*
D03*
X28310Y23070D02*
D03*
X29930Y21710D02*
D03*
X31630Y20140D02*
D03*
X33460Y18610D02*
D03*
X35370Y17170D02*
D03*
X37230Y16160D02*
D03*
X45900Y11230D02*
D03*
X53330Y17750D02*
D03*
Y22550D02*
D03*
X53380Y26880D02*
D03*
X61540Y11640D02*
D03*
X43510Y17170D02*
D03*
X47020Y15130D02*
D03*
X47560Y19090D02*
D03*
X47950Y21030D02*
D03*
X28740Y134700D02*
D03*
X30250Y136250D02*
D03*
X32230Y137930D02*
D03*
X34710Y139450D02*
D03*
X36810Y140880D02*
D03*
X47020Y146840D02*
D03*
X40970Y143440D02*
D03*
X80480Y153650D02*
D03*
X77960Y153700D02*
D03*
X75610Y153570D02*
D03*
X72870Y153530D02*
D03*
X70270Y153150D02*
D03*
X67790Y153230D02*
D03*
X64430Y152480D02*
D03*
X52140Y138590D02*
D03*
X60740Y138060D02*
D03*
X52130Y142200D02*
D03*
X49580Y147450D02*
D03*
X52910Y145910D02*
D03*
X313600Y112630D02*
D03*
X313770Y115500D02*
D03*
X313860Y118000D02*
D03*
X313770Y120620D02*
D03*
X312225Y123316D02*
D03*
Y125478D02*
D03*
Y128345D02*
D03*
X312240Y130960D02*
D03*
X254283Y140394D02*
D03*
X268350Y143140D02*
D03*
X262520Y147190D02*
D03*
X259270Y148310D02*
D03*
X263520Y139890D02*
D03*
X260100Y143110D02*
D03*
X257290Y145180D02*
D03*
X251970Y144720D02*
D03*
X249990Y150090D02*
D03*
X253750Y146850D02*
D03*
X254960Y150840D02*
D03*
X256310Y153310D02*
D03*
X215150Y146620D02*
D03*
X215530Y153630D02*
D03*
X224780Y146330D02*
D03*
X222680Y148500D02*
D03*
X220100Y150970D02*
D03*
X218890Y153300D02*
D03*
X93815Y92540D02*
D03*
X64213Y17345D02*
D03*
X60160Y5620D02*
D03*
X88061Y101042D02*
D03*
X83981Y106357D02*
D03*
X117125Y133550D02*
D03*
X124283Y109876D02*
D03*
X114853Y119197D02*
D03*
X109392Y108800D02*
D03*
X115184Y103952D02*
D03*
X124590Y33765D02*
D03*
X92191Y60525D02*
D03*
X215500Y76459D02*
D03*
X98150Y28661D02*
D03*
X83296Y28307D02*
D03*
X35778Y58906D02*
D03*
X192618Y47316D02*
D03*
X183504Y32087D02*
D03*
X203600Y15040D02*
D03*
X199540Y19300D02*
D03*
X176575Y37795D02*
D03*
X206493Y40697D02*
D03*
X196929D02*
D03*
X203445Y48425D02*
D03*
X241635Y42227D02*
D03*
X232185Y55610D02*
D03*
X227564Y55672D02*
D03*
X229664Y48067D02*
D03*
X217190Y53699D02*
D03*
X213878Y55109D02*
D03*
X258858Y74277D02*
D03*
X58268Y94193D02*
D03*
X153078Y80927D02*
D03*
X149202Y80566D02*
D03*
X156850Y37526D02*
D03*
X296811Y93471D02*
D03*
Y95833D02*
D03*
Y98195D02*
D03*
Y100557D02*
D03*
X294322Y109980D02*
D03*
X287441Y75709D02*
D03*
X266166Y92330D02*
D03*
X93820Y116334D02*
D03*
X227264Y23864D02*
D03*
Y27756D02*
D03*
X85158Y44803D02*
D03*
X98479Y69714D02*
D03*
X104176Y59782D02*
D03*
X103258Y41955D02*
D03*
X107045Y101042D02*
D03*
X106653Y104897D02*
D03*
X100260D02*
D03*
X211221Y132425D02*
D03*
X283561Y105993D02*
D03*
X276786Y67289D02*
D03*
X271752Y97080D02*
D03*
X268799Y102879D02*
D03*
X313468Y108206D02*
D03*
X310925Y107052D02*
D03*
X308169Y106738D02*
D03*
X305419Y106097D02*
D03*
X303051Y104304D02*
D03*
Y101772D02*
D03*
X303445Y52180D02*
D03*
X305230Y50979D02*
D03*
X308465Y50225D02*
D03*
X311698Y49508D02*
D03*
X313681Y47539D02*
D03*
Y45177D02*
D03*
Y42356D02*
D03*
Y39862D02*
D03*
Y37500D02*
D03*
Y35236D02*
D03*
X311950Y33690D02*
D03*
X309850Y33276D02*
D03*
X272922Y5885D02*
D03*
X275787Y7972D02*
D03*
X280709Y6004D02*
D03*
X143996Y3347D02*
D03*
X140256D02*
D03*
X8023Y100295D02*
D03*
X6102Y98130D02*
D03*
X18799Y115354D02*
D03*
X20177Y117815D02*
D03*
X23622Y123031D02*
D03*
X25093Y125098D02*
D03*
X26280Y126969D02*
D03*
X23228Y118701D02*
D03*
X25649Y119488D02*
D03*
X28051Y120079D02*
D03*
X40157Y117520D02*
D03*
X69769Y110491D02*
D03*
X72244Y106693D02*
D03*
X63386Y113189D02*
D03*
X112205Y8299D02*
D03*
X197343Y74508D02*
D03*
X217224Y106595D02*
D03*
X251353Y139147D02*
D03*
X99353Y88728D02*
D03*
X92915Y9927D02*
D03*
X102462Y9139D02*
D03*
X203780Y63240D02*
D03*
X216438Y10714D02*
D03*
X260041Y23706D02*
D03*
X256920Y91240D02*
D03*
X303248Y98352D02*
D03*
Y93858D02*
D03*
X303150Y64232D02*
D03*
Y69941D02*
D03*
X302854Y57342D02*
D03*
X72539Y133563D02*
D03*
X76772Y137992D02*
D03*
X81020Y137639D02*
D03*
X84271Y140889D02*
D03*
X134779Y142421D02*
D03*
X52756Y115111D02*
D03*
X76611Y16105D02*
D03*
X295445Y53411D02*
D03*
X27540Y103182D02*
D03*
X289111Y31096D02*
D03*
X288855Y34741D02*
D03*
X129007Y86916D02*
D03*
X293840Y123360D02*
D03*
X184358Y68513D02*
D03*
X231417Y108830D02*
D03*
X222953Y99764D02*
D03*
X215122Y68320D02*
D03*
X222281Y134763D02*
D03*
X225799Y117335D02*
D03*
X255815Y111730D02*
D03*
X237047Y103785D02*
D03*
X194080Y58462D02*
D03*
X223692Y143210D02*
D03*
X231338Y135390D02*
D03*
X233618D02*
D03*
X201235Y82758D02*
D03*
X212010Y122795D02*
D03*
X243082Y84347D02*
D03*
X216100Y100100D02*
D03*
X216120Y108680D02*
D03*
X223010Y96709D02*
D03*
X238340Y84580D02*
D03*
X264610Y136910D02*
D03*
X52960Y7920D02*
D03*
X55910Y6724D02*
D03*
X159340Y3209D02*
D03*
X294960Y107900D02*
D03*
X293780Y45125D02*
D03*
X294762Y47623D02*
D03*
X144720Y154220D02*
D03*
X120600Y153426D02*
D03*
X124400Y153140D02*
D03*
X51220Y132360D02*
D03*
X192007Y32441D02*
D03*
X254485Y33078D02*
D03*
X244322Y67920D02*
D03*
X206890Y23543D02*
D03*
X215827Y61260D02*
D03*
X256580Y106400D02*
D03*
X181169Y3221D02*
D03*
X234055Y10575D02*
D03*
X76660Y3930D02*
D03*
X40123Y47563D02*
D03*
X35717Y55363D02*
D03*
X93051Y139636D02*
D03*
X107780Y139640D02*
D03*
X103902Y139616D02*
D03*
X88958Y138970D02*
D03*
X255692Y102680D02*
D03*
X247320Y98900D02*
D03*
X263260Y113820D02*
D03*
X42920Y68960D02*
D03*
X46320Y62380D02*
D03*
X45298Y64787D02*
D03*
X179814Y129664D02*
D03*
X28420Y79880D02*
D03*
X156680Y65980D02*
D03*
X116329Y55411D02*
D03*
X288252Y98019D02*
D03*
X299422Y89120D02*
D03*
X285669Y88188D02*
D03*
X271686Y81676D02*
D03*
X112302Y95360D02*
D03*
X61203Y142485D02*
D03*
X72610Y34134D02*
D03*
X251962Y75640D02*
D03*
X251969Y71220D02*
D03*
X237189Y56301D02*
D03*
X241599Y60711D02*
D03*
X225900Y84420D02*
D03*
X256422Y125100D02*
D03*
X25376Y103123D02*
D03*
X23629Y107600D02*
D03*
X256151Y46045D02*
D03*
X278940Y62872D02*
D03*
X261470Y45500D02*
D03*
X263315Y61362D02*
D03*
X79854Y16290D02*
D03*
X120299Y36944D02*
D03*
X26378Y68595D02*
D03*
X48676Y52025D02*
D03*
X228800Y19240D02*
D03*
X171580Y15060D02*
D03*
X202403Y96578D02*
D03*
X59800Y71860D02*
D03*
X53320Y135240D02*
D03*
X73640Y116040D02*
D03*
X44575Y92047D02*
D03*
X23940Y80380D02*
D03*
X218300Y84460D02*
D03*
X106696Y65041D02*
D03*
X127620Y21620D02*
D03*
X178898Y19370D02*
D03*
X176575Y15197D02*
D03*
X210079Y151255D02*
D03*
X221480Y3221D02*
D03*
X193996D02*
D03*
X187582D02*
D03*
X232479D02*
D03*
X224331Y3307D02*
D03*
X200410Y3221D02*
D03*
X155514D02*
D03*
X242205D02*
D03*
X246024D02*
D03*
X238622D02*
D03*
X206824D02*
D03*
X213238D02*
D03*
X123444D02*
D03*
X54318Y149280D02*
D03*
X250000Y154252D02*
D03*
X264978Y119882D02*
D03*
X68600Y3980D02*
D03*
X27483Y84016D02*
D03*
X67323Y55696D02*
D03*
X69797D02*
D03*
X72271D02*
D03*
X74744D02*
D03*
X126542Y85281D02*
D03*
X69882Y87953D02*
D03*
X83937Y87283D02*
D03*
Y84724D02*
D03*
X117244Y41260D02*
D03*
X119252Y42717D02*
D03*
X108268Y51191D02*
D03*
X100103Y48441D02*
D03*
X116702Y51372D02*
D03*
X100028Y55347D02*
D03*
X77524Y28799D02*
D03*
X28622Y38937D02*
D03*
X27711Y89803D02*
D03*
X20748Y89882D02*
D03*
X11220Y62835D02*
D03*
X3836Y87500D02*
D03*
X4185Y89799D02*
D03*
X12284Y66220D02*
D03*
X4582Y92104D02*
D03*
X34016Y48543D02*
D03*
X12126Y56480D02*
D03*
X12244Y50630D02*
D03*
X28622Y46929D02*
D03*
X46407Y74872D02*
D03*
X136853Y16222D02*
D03*
X81521Y49865D02*
D03*
X72756Y128445D02*
D03*
X91260Y48659D02*
D03*
X102312Y36998D02*
D03*
X49646Y139291D02*
D03*
X132970Y108527D02*
D03*
X132291Y112197D02*
D03*
X48555Y49697D02*
D03*
X11535Y104252D02*
D03*
X21260Y96890D02*
D03*
X279173Y50157D02*
D03*
X231572Y39838D02*
D03*
X24646Y64646D02*
D03*
X279432Y133256D02*
D03*
X302462D02*
D03*
X295882D02*
D03*
X262756Y133768D02*
D03*
X276142Y133256D02*
D03*
X299172D02*
D03*
X292592D02*
D03*
X289302D02*
D03*
X286012D02*
D03*
X148543Y28819D02*
D03*
X290197Y65984D02*
D03*
X168814Y32098D02*
D03*
X260787Y37764D02*
D03*
X252220Y36340D02*
D03*
X184370Y39685D02*
D03*
X232362Y32283D02*
D03*
X194843Y27874D02*
D03*
X192441Y63622D02*
D03*
X309042Y133256D02*
D03*
X232874Y61496D02*
D03*
X262676Y17181D02*
D03*
Y12787D02*
D03*
X264522Y9213D02*
D03*
X269573D02*
D03*
X267047D02*
D03*
X295410Y25540D02*
D03*
X293920Y23900D02*
D03*
X291248Y20490D02*
D03*
X292510Y22180D02*
D03*
X286956Y20490D02*
D03*
X288972D02*
D03*
X312333Y133256D02*
D03*
X305752D02*
D03*
X282722D02*
D03*
X272017Y36157D02*
D03*
X280476Y22284D02*
D03*
X290042Y23937D02*
D03*
X287444Y22362D02*
D03*
X289885Y26987D02*
D03*
X239084Y73494D02*
D03*
X260827Y136299D02*
D03*
X282756Y128071D02*
D03*
X271487Y113559D02*
D03*
X266962Y74128D02*
D03*
X269120Y53100D02*
D03*
X279488Y57559D02*
D03*
X296827Y76874D02*
D03*
X164567Y42636D02*
D03*
X140941Y31535D02*
D03*
X144791Y31063D02*
D03*
X168569Y51314D02*
D03*
X226079Y15220D02*
D03*
X256378Y3228D02*
D03*
X249134Y3347D02*
D03*
X271396Y25957D02*
D03*
X209561Y19440D02*
D03*
X288586Y37165D02*
D03*
X271875Y23527D02*
D03*
X274070Y22495D02*
D03*
X277090Y22284D02*
D03*
X284058Y22362D02*
D03*
X290003Y29225D02*
D03*
X152977Y39999D02*
D03*
X288937Y54843D02*
D03*
X297165Y70709D02*
D03*
X296457Y59765D02*
D03*
X82165Y35512D02*
D03*
X92561Y44074D02*
D03*
X276125Y5568D02*
D03*
X278893Y20490D02*
D03*
X282924D02*
D03*
X280909D02*
D03*
X125731Y16717D02*
D03*
X217222Y118386D02*
D03*
X212012Y128046D02*
D03*
X285906Y92677D02*
D03*
X290099Y86053D02*
D03*
X226962Y143669D02*
D03*
X225622Y150106D02*
D03*
X223734Y153431D02*
D03*
X76732Y62953D02*
D03*
X74370Y62992D02*
D03*
X67220Y58726D02*
D03*
X69472D02*
D03*
X67299Y62154D02*
D03*
X71723Y58726D02*
D03*
X70104Y62122D02*
D03*
X70097Y65001D02*
D03*
X56339Y80197D02*
D03*
X124283Y85322D02*
D03*
X149100Y3221D02*
D03*
X129858D02*
D03*
X136272D02*
D03*
X296457Y65118D02*
D03*
X37863Y60859D02*
D03*
X111018Y41200D02*
D03*
X26378Y53386D02*
D03*
X5290Y95300D02*
D03*
X284940Y20490D02*
D03*
X270512Y6984D02*
D03*
X182683Y86913D02*
D03*
X167669Y86724D02*
D03*
X116405Y78831D02*
D03*
X129492Y80037D02*
D03*
X295485Y105478D02*
D03*
X96296Y130576D02*
D03*
X99120Y138207D02*
D03*
X99354Y129979D02*
D03*
X26299Y131181D02*
D03*
X26929Y133543D02*
D03*
X38543Y142244D02*
D03*
X43228Y145158D02*
D03*
X58019Y150737D02*
D03*
X61370Y150773D02*
D03*
X78690Y130897D02*
D03*
X117401Y3227D02*
D03*
X135066Y39726D02*
D03*
X109371Y62407D02*
D03*
X119961Y55172D02*
D03*
X122249Y70870D02*
D03*
X124499Y55175D02*
D03*
X127671Y70985D02*
D03*
X129003Y54097D02*
D03*
X129242Y62596D02*
D03*
X137309Y37775D02*
D03*
X144798Y41570D02*
D03*
X152320Y49833D02*
D03*
X141864Y67444D02*
D03*
X142030Y59994D02*
D03*
X147173Y55244D02*
D03*
X147231Y57244D02*
D03*
X147414Y49839D02*
D03*
X147415Y53108D02*
D03*
X152731Y65444D02*
D03*
X152734Y55446D02*
D03*
X152831Y61444D02*
D03*
Y57444D02*
D03*
Y59444D02*
D03*
Y63444D02*
D03*
X154731Y65444D02*
D03*
X154831Y55444D02*
D03*
X102340Y76367D02*
D03*
X119049Y115172D02*
D03*
X124091Y120497D02*
D03*
X125891Y117497D02*
D03*
X128691Y114797D02*
D03*
X129492Y74799D02*
D03*
X110450Y139450D02*
D03*
X117891Y126597D02*
D03*
X120391Y123997D02*
D03*
X121049Y138807D02*
D03*
X124510Y133597D02*
D03*
X125929Y126817D02*
D03*
X126950Y138757D02*
D03*
X130491Y139226D02*
D03*
X131712Y123235D02*
D03*
X132404Y134164D02*
D03*
X134873Y131124D02*
D03*
X138060Y112440D02*
D03*
X141210Y106166D02*
D03*
X145159Y79484D02*
D03*
X145823Y88513D02*
D03*
X149103Y74597D02*
D03*
X149131Y76544D02*
D03*
X140984Y121663D02*
D03*
X146408Y132002D02*
D03*
X146487Y116067D02*
D03*
X164319Y35478D02*
D03*
X156812Y71123D02*
D03*
X158831Y55444D02*
D03*
X160731Y57644D02*
D03*
Y59644D02*
D03*
Y61644D02*
D03*
Y63644D02*
D03*
X160931Y55444D02*
D03*
X164684Y75323D02*
D03*
X166231Y57144D02*
D03*
Y59144D02*
D03*
X166258Y61241D02*
D03*
X166332Y55144D02*
D03*
X166399Y66307D02*
D03*
X168885Y75312D02*
D03*
X172238Y75161D02*
D03*
X172349Y63413D02*
D03*
X174449D02*
D03*
X176443Y67116D02*
D03*
X176665Y70995D02*
D03*
X163095Y96602D02*
D03*
X163422Y106903D02*
D03*
X163621Y104103D02*
D03*
X169311Y94823D02*
D03*
X172259Y77322D02*
D03*
X156826Y118691D02*
D03*
X160151Y140829D02*
D03*
X163035Y128035D02*
D03*
X163627Y113838D02*
D03*
X164897Y134488D02*
D03*
X168258Y117199D02*
D03*
X168833Y130885D02*
D03*
X178648Y79098D02*
D03*
X183560Y105889D02*
D03*
Y109038D02*
D03*
Y112440D02*
D03*
X194703Y106197D02*
D03*
X177414Y141257D02*
D03*
X180583Y134413D02*
D03*
X189763Y121838D02*
D03*
X198349Y134497D02*
D03*
X199700Y147507D02*
D03*
X259961Y3228D02*
D03*
X272133Y3221D02*
D03*
X266768D02*
D03*
X205658Y96743D02*
D03*
X223738Y105987D02*
D03*
X270829Y20490D02*
D03*
X272845D02*
D03*
X274861D02*
D03*
X277499Y3221D02*
D03*
X286330Y7550D02*
D03*
X283770Y8260D02*
D03*
X286670Y9640D02*
D03*
X280770Y8902D02*
D03*
X276877Y20490D02*
D03*
X278526Y7509D02*
D03*
X208575Y106070D02*
D03*
X208529Y115362D02*
D03*
X202334Y118615D02*
D03*
X205583Y134463D02*
D03*
X208529Y131197D02*
D03*
X232802Y143366D02*
D03*
X249871Y147446D02*
D03*
X249981Y152196D02*
D03*
X297070Y27070D02*
D03*
X299020Y28520D02*
D03*
X62402Y5079D02*
D03*
X65551Y4474D02*
D03*
X26221Y24606D02*
D03*
X38858Y14685D02*
D03*
X3676Y72497D02*
D03*
X11614Y81575D02*
D03*
X41320Y13393D02*
D03*
X43620Y12138D02*
D03*
X48031Y10276D02*
D03*
X50630Y8858D02*
D03*
X54631Y88127D02*
D03*
X78790Y125997D02*
D03*
X88177Y122288D02*
D03*
X98396Y120397D02*
D03*
X4176Y68097D02*
D03*
X4882Y64685D02*
D03*
X5315Y61929D02*
D03*
D148*
X87486Y9766D02*
D03*
D150*
X236921Y115367D02*
D03*
Y119697D02*
D03*
Y124028D02*
D03*
X241251Y115367D02*
D03*
Y119697D02*
D03*
Y124028D02*
D03*
X245582Y115367D02*
D03*
Y119697D02*
D03*
Y124028D02*
D03*
M02*
