G04*
G04 #@! TF.GenerationSoftware,Altium Limited,Altium Designer,22.2.1 (43)*
G04*
G04 Layer_Color=16711935*
%FSLAX25Y25*%
%MOIN*%
G70*
G04*
G04 #@! TF.SameCoordinates,78EA78F8-FF88-446E-916A-2EA80F8DE5DB*
G04*
G04*
G04 #@! TF.FilePolarity,Positive*
G04*
G01*
G75*
%ADD22C,0.00400*%
D22*
X117210Y155714D02*
X139190Y155713D01*
X113901Y151727D02*
X117210Y155714D01*
X86450Y151727D02*
X113901D01*
X82468Y155710D02*
X86450Y151727D01*
X78737Y155710D02*
X82468Y155710D01*
X76219Y155710D02*
X78737Y155710D01*
X71195Y155381D02*
X76219Y155710D01*
X66202Y154724D02*
X71195Y155381D01*
X61264Y153742D02*
X66202Y154724D01*
X56400Y152440D02*
X61264Y153742D01*
X51631Y150822D02*
X56400Y152440D01*
X46979Y148897D02*
X51631Y150822D01*
X42462Y146671D02*
X46979Y148897D01*
X38100Y144155D02*
X42462Y146671D01*
X33913Y141360D02*
X38100Y144155D01*
X29916Y138296D02*
X33913Y141360D01*
X26129Y134979D02*
X29916Y138296D01*
X24406Y133258D02*
X26129Y134979D01*
X24406Y133258D02*
X25093Y128822D01*
X8156Y102742D02*
X25093Y128822D01*
X5244Y101604D02*
X8156Y102742D01*
X4715Y99916D02*
X5244Y101604D01*
X3734Y96128D02*
X4715Y99916D01*
X2948Y92296D02*
X3734Y96128D01*
X2357Y88429D02*
X2948Y92296D01*
X1964Y84536D02*
X2357Y88429D01*
X1768Y80629D02*
X1964Y84536D01*
X1768Y80629D02*
X1772Y76717D01*
X1974Y72810D01*
X2374Y68918D01*
X2972Y65052D01*
X3765Y61221D01*
X4752Y57435D01*
X5289Y55731D01*
X7314Y54904D01*
X24153Y27894D01*
X23383Y25262D02*
X24153Y27894D01*
X23383Y25262D02*
X25163Y23418D01*
X28982Y19960D01*
X33022Y16765D01*
X37268Y13847D01*
X41699Y11220D01*
X46296Y8895D01*
X51038Y6882D01*
X55903Y5191D01*
X60871Y3829D01*
X65919Y2802D01*
X71025Y2114D01*
X76165Y1770D01*
X78740Y1770D01*
X78794Y1778D01*
X82279Y1773D01*
X86673Y6537D01*
X113122Y6537D01*
X116140Y1767D01*
X307019Y1768D01*
X308792Y1768D01*
X309304D01*
X310309Y1968D01*
X311256Y2361D01*
X312107Y2930D01*
X312832Y3654D01*
X313401Y4506D01*
X313793Y5453D01*
X313993Y6458D01*
X313993Y6970D01*
Y33276D01*
X315767Y35049D01*
X315804Y35119D01*
X315811Y35177D01*
X315812Y48323D01*
X315812Y48709D01*
X315662Y49465D02*
X315812Y48709D01*
X315367Y50177D02*
X315662Y49465D01*
X314938Y50818D02*
X315367Y50177D01*
X314393Y51363D02*
X314938Y50818D01*
X313752Y51792D02*
X314393Y51363D01*
X313040Y52087D02*
X313752Y51792D01*
X312284Y52237D02*
X313040Y52087D01*
X311898Y52237D02*
X312284Y52237D01*
X311847Y52230D02*
X311898Y52237D01*
X307647Y52231D02*
X311847Y52230D01*
X307127Y52299D02*
X307647Y52231D01*
X306171Y52717D02*
X307127Y52299D01*
X305436Y53457D02*
X306171Y52717D01*
X305025Y54417D02*
X305436Y53457D01*
X304961Y54937D02*
X305025Y54417D01*
X304961Y54937D02*
Y55135D01*
X304962Y101798D01*
X304966Y102072D01*
X305054Y102610D01*
X305245Y103121D01*
X305532Y103586D01*
X305904Y103985D01*
X306347Y104304D01*
X306844Y104530D01*
X307375Y104655D01*
X307658Y104678D01*
X311928Y104678D01*
X312314Y104678D01*
X313070Y104828D01*
X313782Y105123D01*
X314423Y105552D01*
X314968Y106097D01*
X315397Y106738D01*
X315692Y107450D01*
X315842Y108206D01*
X315842Y108609D02*
X315842Y108206D01*
X315842Y108609D02*
Y121737D01*
X315834Y121796D02*
X315842Y121737D01*
X315783Y121879D02*
X315834Y121796D01*
X314023Y123639D02*
X315783Y121879D01*
X314023Y150505D02*
X314023Y123639D01*
X314023Y150505D02*
Y151014D01*
X313826Y152012D02*
X314023Y151014D01*
X313439Y152954D02*
X313826Y152012D01*
X312877Y153802D02*
X313439Y152954D01*
X312160Y154526D02*
X312877Y153802D01*
X311318Y155097D02*
X312160Y154526D01*
X310381Y155493D02*
X311318Y155097D01*
X309384Y155701D02*
X310381Y155493D01*
X308875Y155706D02*
X309384Y155701D01*
X308822Y155713D02*
X308875Y155706D01*
X139190Y155713D02*
X308822Y155713D01*
M02*
