G04*
G04 #@! TF.GenerationSoftware,Altium Limited,Altium Designer,22.2.1 (43)*
G04*
G04 Layer_Color=32896*
%FSLAX25Y25*%
%MOIN*%
G70*
G04*
G04 #@! TF.SameCoordinates,78EA78F8-FF88-446E-916A-2EA80F8DE5DB*
G04*
G04*
G04 #@! TF.FilePolarity,Positive*
G04*
G01*
G75*
%ADD11C,0.00394*%
%ADD15C,0.00787*%
%ADD16C,0.00984*%
%ADD19C,0.00591*%
%ADD20C,0.00394*%
%ADD21C,0.00602*%
%ADD23C,0.01181*%
%ADD134C,0.00500*%
G36*
X261151Y23949D02*
X261293D01*
Y23807D01*
X261718D01*
Y23665D01*
X261859D01*
Y23524D01*
Y23382D01*
Y23241D01*
X262001D01*
Y23099D01*
X261859D01*
Y22957D01*
Y22816D01*
Y22674D01*
X261718D01*
Y22532D01*
X261576D01*
Y22391D01*
X261435D01*
Y22249D01*
X261293D01*
Y22391D01*
X261151D01*
Y22249D01*
X260726D01*
Y22391D01*
X260585D01*
Y22532D01*
X260301D01*
Y22674D01*
Y22816D01*
X260160D01*
Y22957D01*
Y23099D01*
Y23241D01*
X260301D01*
Y23382D01*
X260160D01*
Y23524D01*
X260301D01*
Y23665D01*
X260443D01*
Y23807D01*
X260585D01*
Y23949D01*
X260726D01*
Y24091D01*
X260868D01*
Y23949D01*
X261010D01*
Y24091D01*
X261151D01*
Y23949D01*
D02*
G37*
G36*
X267577Y19916D02*
X267719D01*
Y19774D01*
X267861D01*
Y19916D01*
X268002D01*
Y19774D01*
X268427D01*
Y19633D01*
X268569D01*
Y19491D01*
X268711D01*
Y19633D01*
X268852D01*
Y19491D01*
X269277D01*
Y19349D01*
X269419D01*
Y19208D01*
X269561D01*
Y19066D01*
X269702D01*
Y18924D01*
X269844D01*
Y19066D01*
X269986D01*
Y18924D01*
X270127D01*
Y18783D01*
X270269D01*
Y18641D01*
X270410D01*
Y18499D01*
X270552D01*
Y18358D01*
X270694D01*
Y18216D01*
X270835D01*
Y18074D01*
X270977D01*
Y17933D01*
X271119D01*
Y17791D01*
X271260D01*
Y17649D01*
X271402D01*
Y17508D01*
X271544D01*
Y17366D01*
Y17224D01*
X271685D01*
Y17083D01*
Y16941D01*
X271827D01*
Y16799D01*
X271969D01*
Y16658D01*
X272110D01*
Y16516D01*
X271969D01*
Y16375D01*
X272110D01*
Y16233D01*
X272252D01*
Y16091D01*
Y15949D01*
Y15808D01*
X272394D01*
Y15666D01*
X272252D01*
Y15525D01*
X272394D01*
Y15383D01*
Y15241D01*
Y15100D01*
X272535D01*
Y14958D01*
Y14816D01*
Y14675D01*
Y14533D01*
Y14391D01*
Y14250D01*
Y14108D01*
Y13966D01*
Y13825D01*
X272677D01*
Y13683D01*
X272535D01*
Y13541D01*
Y13400D01*
Y13258D01*
X272677D01*
Y13116D01*
X272535D01*
Y12975D01*
Y12833D01*
Y12691D01*
X272677D01*
Y12550D01*
X272535D01*
Y12408D01*
Y12267D01*
Y12125D01*
X272677D01*
Y11983D01*
X272535D01*
Y11841D01*
Y11700D01*
Y11558D01*
X272677D01*
Y11417D01*
X272535D01*
Y11275D01*
Y11133D01*
Y10992D01*
X272677D01*
Y10850D01*
X272535D01*
Y10708D01*
Y10567D01*
Y10425D01*
X272677D01*
Y10283D01*
X272535D01*
Y10142D01*
Y10000D01*
Y9858D01*
X272677D01*
Y9717D01*
X272535D01*
Y9575D01*
Y9433D01*
Y9292D01*
X272677D01*
Y9150D01*
X272535D01*
Y9008D01*
Y8867D01*
Y8725D01*
Y8584D01*
X272394D01*
Y8442D01*
Y8300D01*
X271969D01*
Y8158D01*
X271827D01*
Y8300D01*
X271402D01*
Y8442D01*
X271260D01*
Y8584D01*
Y8725D01*
Y8867D01*
X271119D01*
Y9008D01*
X271260D01*
Y9150D01*
X271119D01*
Y9292D01*
X271260D01*
Y9433D01*
X271119D01*
Y9575D01*
X271260D01*
Y9717D01*
X271119D01*
Y9858D01*
X271260D01*
Y10000D01*
X271119D01*
Y10142D01*
X271260D01*
Y10283D01*
X271119D01*
Y10425D01*
X271260D01*
Y10567D01*
X271119D01*
Y10708D01*
X271260D01*
Y10850D01*
X271119D01*
Y10992D01*
X271260D01*
Y11133D01*
X271119D01*
Y11275D01*
X271260D01*
Y11417D01*
X271119D01*
Y11558D01*
X271260D01*
Y11700D01*
X271119D01*
Y11841D01*
X271260D01*
Y11983D01*
X271119D01*
Y12125D01*
X271260D01*
Y12267D01*
X271119D01*
Y12408D01*
X271260D01*
Y12550D01*
X271119D01*
Y12691D01*
X271260D01*
Y12833D01*
X271119D01*
Y12975D01*
X271260D01*
Y13116D01*
X271119D01*
Y13258D01*
X271260D01*
Y13400D01*
X271119D01*
Y13541D01*
X271260D01*
Y13683D01*
X271119D01*
Y13825D01*
X271260D01*
Y13966D01*
X271119D01*
Y14108D01*
X271260D01*
Y14250D01*
X271119D01*
Y14391D01*
X271260D01*
Y14533D01*
X271119D01*
Y14675D01*
X271260D01*
Y14816D01*
X271119D01*
Y14958D01*
X271260D01*
Y15100D01*
X271119D01*
Y15241D01*
Y15383D01*
Y15525D01*
X270977D01*
Y15666D01*
X270835D01*
Y15808D01*
X270977D01*
Y15949D01*
X270835D01*
Y16091D01*
X270694D01*
Y16233D01*
X270552D01*
Y16375D01*
X270694D01*
Y16516D01*
X270552D01*
Y16658D01*
X270410D01*
Y16799D01*
X270269D01*
Y16941D01*
X270127D01*
Y17083D01*
X269986D01*
Y17224D01*
X269844D01*
Y17366D01*
X269702D01*
Y17508D01*
X269561D01*
Y17649D01*
X269419D01*
Y17791D01*
X269277D01*
Y17933D01*
X269135D01*
Y18074D01*
X268994D01*
Y17933D01*
X268852D01*
Y18074D01*
X268711D01*
Y18216D01*
X268569D01*
Y18358D01*
X268144D01*
Y18499D01*
X267719D01*
Y18641D01*
X267577D01*
Y18499D01*
X267436D01*
Y18641D01*
X267294D01*
Y18499D01*
X267152D01*
Y18641D01*
X266727D01*
Y18783D01*
X266586D01*
Y18641D01*
X266161D01*
Y18783D01*
X266019D01*
Y18641D01*
X266161D01*
Y18499D01*
X266019D01*
Y18641D01*
X265878D01*
Y18499D01*
X265736D01*
Y18641D01*
X265594D01*
Y18499D01*
X265169D01*
Y18358D01*
X265028D01*
Y18216D01*
X264886D01*
Y18358D01*
X264744D01*
Y18216D01*
X264319D01*
Y18358D01*
X264178D01*
Y18499D01*
X264036D01*
Y18641D01*
X263894D01*
Y18783D01*
Y18924D01*
Y19066D01*
X264036D01*
Y19208D01*
Y19349D01*
Y19491D01*
X264461D01*
Y19633D01*
X264886D01*
Y19774D01*
X265311D01*
Y19916D01*
X265453D01*
Y19774D01*
X265594D01*
Y19916D01*
X265736D01*
Y20057D01*
X265878D01*
Y19916D01*
X266019D01*
Y20057D01*
X266161D01*
Y19916D01*
X266302D01*
Y20057D01*
X266444D01*
Y19916D01*
X266586D01*
Y20057D01*
X266727D01*
Y19916D01*
X266869D01*
Y20057D01*
X267011D01*
Y19916D01*
X267152D01*
Y20057D01*
X267294D01*
Y19916D01*
X267436D01*
Y20057D01*
X267577D01*
Y19916D01*
D02*
G37*
G36*
X261061D02*
X261203D01*
Y19774D01*
X261486D01*
Y19633D01*
Y19491D01*
X261628D01*
Y19349D01*
X261486D01*
Y19208D01*
X261628D01*
Y19066D01*
X261486D01*
Y18924D01*
X261628D01*
Y18783D01*
X261486D01*
Y18641D01*
X261628D01*
Y18499D01*
X261486D01*
Y18358D01*
X261628D01*
Y18216D01*
X261486D01*
Y18074D01*
X261628D01*
Y17933D01*
X261486D01*
Y17791D01*
X261628D01*
Y17649D01*
X261486D01*
Y17508D01*
X261628D01*
Y17366D01*
X261486D01*
Y17224D01*
X261628D01*
Y17083D01*
X261486D01*
Y16941D01*
X261628D01*
Y16799D01*
X261486D01*
Y16658D01*
X261628D01*
Y16516D01*
X261486D01*
Y16375D01*
X261628D01*
Y16233D01*
X261486D01*
Y16091D01*
X261628D01*
Y15949D01*
X261486D01*
Y15808D01*
X261628D01*
Y15666D01*
X261486D01*
Y15525D01*
X261628D01*
Y15383D01*
X261486D01*
Y15241D01*
X261628D01*
Y15100D01*
X261486D01*
Y14958D01*
X261628D01*
Y14816D01*
X261486D01*
Y14675D01*
X261628D01*
Y14533D01*
X261486D01*
Y14391D01*
X261628D01*
Y14250D01*
X261486D01*
Y14108D01*
X261628D01*
Y13966D01*
X261486D01*
Y13825D01*
X261628D01*
Y13683D01*
X261486D01*
Y13541D01*
X261628D01*
Y13400D01*
X261486D01*
Y13258D01*
X261628D01*
Y13116D01*
X261486D01*
Y12975D01*
X261628D01*
Y12833D01*
X261486D01*
Y12691D01*
X261628D01*
Y12550D01*
X261486D01*
Y12408D01*
X261628D01*
Y12267D01*
X261486D01*
Y12125D01*
X261628D01*
Y11983D01*
X261486D01*
Y11841D01*
X261628D01*
Y11700D01*
X261486D01*
Y11558D01*
X261628D01*
Y11417D01*
X261486D01*
Y11275D01*
X261628D01*
Y11133D01*
X261486D01*
Y10992D01*
X261628D01*
Y10850D01*
X261486D01*
Y10708D01*
X261628D01*
Y10567D01*
X261486D01*
Y10425D01*
X261628D01*
Y10283D01*
X261486D01*
Y10142D01*
X261628D01*
Y10000D01*
X261486D01*
Y9858D01*
X261628D01*
Y9717D01*
X261486D01*
Y9575D01*
X261628D01*
Y9433D01*
X261486D01*
Y9292D01*
X261628D01*
Y9150D01*
X261486D01*
Y9008D01*
X261628D01*
Y8867D01*
X261486D01*
Y8725D01*
X261628D01*
Y8584D01*
X261486D01*
Y8442D01*
X261345D01*
Y8300D01*
X260636D01*
Y8442D01*
X260495D01*
Y8584D01*
X260353D01*
Y8725D01*
X260211D01*
Y8867D01*
Y9008D01*
Y9150D01*
X260353D01*
Y9292D01*
X260211D01*
Y9433D01*
Y9575D01*
Y9717D01*
X260353D01*
Y9858D01*
X260211D01*
Y10000D01*
Y10142D01*
Y10283D01*
X260353D01*
Y10425D01*
X260211D01*
Y10567D01*
Y10708D01*
Y10850D01*
X260353D01*
Y10992D01*
X260211D01*
Y11133D01*
X260353D01*
Y11275D01*
X260211D01*
Y11417D01*
X260353D01*
Y11558D01*
X260211D01*
Y11700D01*
Y11841D01*
Y11983D01*
X260353D01*
Y12125D01*
X260211D01*
Y12267D01*
Y12408D01*
Y12550D01*
X260353D01*
Y12691D01*
X260211D01*
Y12833D01*
Y12975D01*
Y13116D01*
X260353D01*
Y13258D01*
X260211D01*
Y13400D01*
X260353D01*
Y13541D01*
X260211D01*
Y13683D01*
X260353D01*
Y13825D01*
X260211D01*
Y13966D01*
Y14108D01*
Y14250D01*
X260353D01*
Y14391D01*
X260211D01*
Y14533D01*
Y14675D01*
Y14816D01*
X260353D01*
Y14958D01*
X260211D01*
Y15100D01*
Y15241D01*
Y15383D01*
X260353D01*
Y15525D01*
X260211D01*
Y15666D01*
X260353D01*
Y15808D01*
X260211D01*
Y15949D01*
X260353D01*
Y16091D01*
X260211D01*
Y16233D01*
Y16375D01*
Y16516D01*
X260353D01*
Y16658D01*
X260211D01*
Y16799D01*
Y16941D01*
Y17083D01*
X260353D01*
Y17224D01*
X260211D01*
Y17366D01*
Y17508D01*
Y17649D01*
X260353D01*
Y17791D01*
X260211D01*
Y17933D01*
X260353D01*
Y18074D01*
X260211D01*
Y18216D01*
X260353D01*
Y18358D01*
X260211D01*
Y18499D01*
Y18641D01*
Y18783D01*
X260353D01*
Y18924D01*
X260211D01*
Y19066D01*
Y19208D01*
Y19349D01*
X260353D01*
Y19491D01*
X260211D01*
Y19633D01*
X260353D01*
Y19774D01*
X260495D01*
Y19916D01*
X260636D01*
Y20057D01*
X260778D01*
Y19916D01*
X260920D01*
Y20057D01*
X261061D01*
Y19916D01*
D02*
G37*
G36*
X239105Y19774D02*
X239530D01*
Y19633D01*
X239671D01*
Y19774D01*
X239813D01*
Y19633D01*
X239955D01*
Y19491D01*
X240380D01*
Y19349D01*
X240521D01*
Y19491D01*
X240663D01*
Y19349D01*
X240805D01*
Y19208D01*
X241230D01*
Y19066D01*
Y18924D01*
X241513D01*
Y18783D01*
X241654D01*
Y18641D01*
X241796D01*
Y18499D01*
X241938D01*
Y18358D01*
X242221D01*
Y18216D01*
Y18074D01*
X242505D01*
Y17933D01*
Y17791D01*
X242646D01*
Y17649D01*
X242788D01*
Y17508D01*
X242929D01*
Y17366D01*
X243071D01*
Y17224D01*
X243213D01*
Y17083D01*
Y16941D01*
Y16799D01*
X243354D01*
Y16658D01*
X243496D01*
Y16516D01*
Y16375D01*
Y16233D01*
X243638D01*
Y16091D01*
X243779D01*
Y15949D01*
X243638D01*
Y15808D01*
X243779D01*
Y15666D01*
Y15525D01*
Y15383D01*
X243921D01*
Y15241D01*
Y15100D01*
Y14958D01*
X244063D01*
Y14816D01*
X243921D01*
Y14675D01*
X244063D01*
Y14533D01*
X243921D01*
Y14391D01*
X244063D01*
Y14250D01*
X243921D01*
Y14108D01*
X244063D01*
Y13966D01*
X243921D01*
Y13825D01*
X244063D01*
Y13683D01*
X243921D01*
Y13541D01*
X244063D01*
Y13400D01*
X243921D01*
Y13258D01*
Y13116D01*
Y12975D01*
Y12833D01*
Y12691D01*
X243779D01*
Y12550D01*
Y12408D01*
Y12267D01*
X243638D01*
Y12125D01*
X243779D01*
Y11983D01*
X243638D01*
Y11841D01*
X243496D01*
Y11700D01*
X243354D01*
Y11558D01*
X243496D01*
Y11417D01*
X243354D01*
Y11275D01*
X243213D01*
Y11133D01*
X243071D01*
Y10992D01*
Y10850D01*
X242929D01*
Y10708D01*
Y10567D01*
X242788D01*
Y10425D01*
X242646D01*
Y10283D01*
X242505D01*
Y10142D01*
X242363D01*
Y10000D01*
X242221D01*
Y9858D01*
X242079D01*
Y9717D01*
X241938D01*
Y9575D01*
X241796D01*
Y9433D01*
X241654D01*
Y9292D01*
X241513D01*
Y9433D01*
X241371D01*
Y9292D01*
X241513D01*
Y9150D01*
X241088D01*
Y9008D01*
X240946D01*
Y8867D01*
X240521D01*
Y8725D01*
X240380D01*
Y8584D01*
X239671D01*
Y8442D01*
X239530D01*
Y8300D01*
X239388D01*
Y8442D01*
X239246D01*
Y8300D01*
X239105D01*
Y8442D01*
X238963D01*
Y8300D01*
X237405D01*
Y8442D01*
X237263D01*
Y8300D01*
X237122D01*
Y8442D01*
X236697D01*
Y8584D01*
X235988D01*
Y8725D01*
X235847D01*
Y8867D01*
X235422D01*
Y9008D01*
X235280D01*
Y9150D01*
X234997D01*
Y9292D01*
Y9433D01*
X234572D01*
Y9575D01*
X234430D01*
Y9717D01*
X234289D01*
Y9858D01*
Y10000D01*
Y10142D01*
Y10283D01*
Y10425D01*
X234430D01*
Y10567D01*
X234572D01*
Y10708D01*
X234714D01*
Y10850D01*
X234855D01*
Y10708D01*
X234997D01*
Y10850D01*
X235138D01*
Y10708D01*
X235280D01*
Y10567D01*
X235422D01*
Y10425D01*
X235847D01*
Y10283D01*
X235988D01*
Y10142D01*
X236130D01*
Y10000D01*
X236272D01*
Y9858D01*
X236413D01*
Y10000D01*
X236555D01*
Y9858D01*
X236980D01*
Y9717D01*
X237122D01*
Y9575D01*
X237263D01*
Y9717D01*
X237405D01*
Y9575D01*
X238963D01*
Y9717D01*
X239105D01*
Y9575D01*
X239246D01*
Y9717D01*
X239671D01*
Y9858D01*
X240096D01*
Y10000D01*
X240238D01*
Y10142D01*
X240663D01*
Y10283D01*
X240805D01*
Y10425D01*
X240946D01*
Y10567D01*
X241088D01*
Y10708D01*
X241230D01*
Y10850D01*
X241371D01*
Y10992D01*
X241654D01*
Y11133D01*
Y11275D01*
X241796D01*
Y11417D01*
X241938D01*
Y11558D01*
X242079D01*
Y11700D01*
X242221D01*
Y11841D01*
X242363D01*
Y11983D01*
X242221D01*
Y12125D01*
X242363D01*
Y12267D01*
X242505D01*
Y12408D01*
Y12550D01*
Y12691D01*
X242646D01*
Y12833D01*
Y12975D01*
Y13116D01*
X242788D01*
Y13258D01*
Y13400D01*
X242505D01*
Y13541D01*
X242363D01*
Y13400D01*
X242221D01*
Y13541D01*
X242079D01*
Y13400D01*
X241938D01*
Y13541D01*
X241796D01*
Y13400D01*
X241654D01*
Y13541D01*
X241513D01*
Y13400D01*
X241371D01*
Y13541D01*
X241230D01*
Y13400D01*
X241088D01*
Y13541D01*
X240946D01*
Y13400D01*
X240805D01*
Y13541D01*
X240663D01*
Y13400D01*
X240521D01*
Y13541D01*
X240380D01*
Y13400D01*
X240238D01*
Y13541D01*
X240096D01*
Y13400D01*
X239955D01*
Y13541D01*
X239813D01*
Y13400D01*
X239671D01*
Y13541D01*
X239530D01*
Y13400D01*
X239388D01*
Y13541D01*
X239246D01*
Y13400D01*
X239105D01*
Y13541D01*
X238963D01*
Y13400D01*
X238822D01*
Y13541D01*
X238680D01*
Y13400D01*
X238538D01*
Y13541D01*
X238397D01*
Y13400D01*
X238255D01*
Y13541D01*
X238113D01*
Y13400D01*
X237971D01*
Y13541D01*
X237830D01*
Y13400D01*
X237688D01*
Y13541D01*
X237547D01*
Y13400D01*
X237405D01*
Y13541D01*
X237263D01*
Y13400D01*
X237122D01*
Y13541D01*
X236980D01*
Y13400D01*
X236838D01*
Y13541D01*
X236697D01*
Y13400D01*
X236555D01*
Y13541D01*
X236413D01*
Y13400D01*
X236272D01*
Y13541D01*
X236130D01*
Y13400D01*
X235988D01*
Y13541D01*
X235847D01*
Y13400D01*
X235705D01*
Y13541D01*
X235563D01*
Y13400D01*
X235422D01*
Y13541D01*
X235280D01*
Y13400D01*
X235138D01*
Y13541D01*
X234997D01*
Y13400D01*
X234855D01*
Y13541D01*
X234714D01*
Y13400D01*
X234572D01*
Y13541D01*
X234430D01*
Y13400D01*
X234289D01*
Y13541D01*
X234147D01*
Y13400D01*
X234005D01*
Y13541D01*
X233863D01*
Y13400D01*
X233722D01*
Y13541D01*
X233580D01*
Y13400D01*
X233439D01*
Y13541D01*
X233297D01*
Y13400D01*
X233155D01*
Y13541D01*
X233014D01*
Y13400D01*
X232872D01*
Y13541D01*
X232730D01*
Y13683D01*
X232589D01*
Y13825D01*
X232447D01*
Y13966D01*
X232305D01*
Y14108D01*
X232447D01*
Y14250D01*
X232305D01*
Y14391D01*
X232447D01*
Y14533D01*
X232305D01*
Y14675D01*
X232447D01*
Y14816D01*
X232305D01*
Y14958D01*
X232447D01*
Y15100D01*
Y15241D01*
Y15383D01*
X232589D01*
Y15525D01*
Y15666D01*
Y15808D01*
X232730D01*
Y15949D01*
Y16091D01*
Y16233D01*
X232872D01*
Y16375D01*
Y16516D01*
Y16658D01*
X233014D01*
Y16799D01*
X233155D01*
Y16941D01*
X233297D01*
Y17083D01*
X233155D01*
Y17224D01*
X233297D01*
Y17366D01*
X233439D01*
Y17508D01*
X233580D01*
Y17649D01*
X233722D01*
Y17791D01*
X233863D01*
Y17933D01*
X234005D01*
Y18074D01*
X234147D01*
Y18216D01*
X234289D01*
Y18358D01*
X234430D01*
Y18499D01*
X234572D01*
Y18641D01*
X234714D01*
Y18783D01*
X234855D01*
Y18924D01*
X235280D01*
Y19066D01*
X235422D01*
Y19208D01*
X235563D01*
Y19349D01*
X235705D01*
Y19491D01*
X235847D01*
Y19349D01*
X235988D01*
Y19491D01*
X236413D01*
Y19633D01*
X236555D01*
Y19774D01*
X236697D01*
Y19633D01*
X236838D01*
Y19774D01*
X237263D01*
Y19916D01*
X237405D01*
Y19774D01*
X237547D01*
Y19916D01*
X237688D01*
Y19774D01*
X237830D01*
Y19916D01*
X237971D01*
Y19774D01*
X238113D01*
Y19916D01*
X238255D01*
Y19774D01*
X238397D01*
Y19916D01*
X238538D01*
Y19774D01*
X238680D01*
Y19916D01*
X238822D01*
Y19774D01*
X238963D01*
Y19916D01*
X239105D01*
Y19774D01*
D02*
G37*
G36*
X246613Y25015D02*
X246754D01*
Y24874D01*
X246896D01*
Y24732D01*
X247037D01*
Y24590D01*
X247179D01*
Y24449D01*
X247037D01*
Y24307D01*
X247179D01*
Y24166D01*
X247037D01*
Y24024D01*
X247179D01*
Y23882D01*
X247037D01*
Y23741D01*
X247179D01*
Y23599D01*
X247037D01*
Y23457D01*
X247179D01*
Y23315D01*
X247037D01*
Y23174D01*
X247179D01*
Y23032D01*
X247037D01*
Y22891D01*
X247179D01*
Y22749D01*
X247037D01*
Y22607D01*
X247179D01*
Y22466D01*
X247037D01*
Y22324D01*
X247179D01*
Y22182D01*
X247037D01*
Y22041D01*
X247179D01*
Y21899D01*
X247037D01*
Y21757D01*
X247179D01*
Y21616D01*
X247037D01*
Y21474D01*
X247179D01*
Y21332D01*
X247037D01*
Y21191D01*
X247179D01*
Y21049D01*
X247037D01*
Y20907D01*
X247179D01*
Y20766D01*
X247037D01*
Y20624D01*
X247179D01*
Y20482D01*
X247037D01*
Y20341D01*
X247179D01*
Y20199D01*
X247037D01*
Y20057D01*
X247179D01*
Y19916D01*
X247037D01*
Y19774D01*
X247179D01*
Y19633D01*
X247037D01*
Y19491D01*
X247179D01*
Y19349D01*
X247037D01*
Y19208D01*
X247179D01*
Y19066D01*
X247037D01*
Y18924D01*
X247179D01*
Y18783D01*
X247037D01*
Y18641D01*
X247179D01*
Y18499D01*
X247037D01*
Y18358D01*
X247179D01*
Y18216D01*
X247037D01*
Y18074D01*
X247179D01*
Y17933D01*
X247321D01*
Y18074D01*
X247462D01*
Y18216D01*
Y18358D01*
X247746D01*
Y18499D01*
X247887D01*
Y18641D01*
X248029D01*
Y18783D01*
X248171D01*
Y18924D01*
X248312D01*
Y19066D01*
X248454D01*
Y19208D01*
X248596D01*
Y19066D01*
X248737D01*
Y19208D01*
X248879D01*
Y19349D01*
X249021D01*
Y19491D01*
X249446D01*
Y19633D01*
X249870D01*
Y19774D01*
X250295D01*
Y19916D01*
X250437D01*
Y19774D01*
X250579D01*
Y19916D01*
X250720D01*
Y19774D01*
X250862D01*
Y19916D01*
X251004D01*
Y20057D01*
X251145D01*
Y19916D01*
X251287D01*
Y20057D01*
X251429D01*
Y19916D01*
X251570D01*
Y20057D01*
X251712D01*
Y19916D01*
X251854D01*
Y20057D01*
X251995D01*
Y19916D01*
X252137D01*
Y20057D01*
X252279D01*
Y19916D01*
X252704D01*
Y19774D01*
X252845D01*
Y19916D01*
X252987D01*
Y19774D01*
X253412D01*
Y19633D01*
X253554D01*
Y19774D01*
X253695D01*
Y19633D01*
X253837D01*
Y19491D01*
X254262D01*
Y19349D01*
X254403D01*
Y19208D01*
X254828D01*
Y19066D01*
X254970D01*
Y18924D01*
X255112D01*
Y18783D01*
X255253D01*
Y18641D01*
X255395D01*
Y18499D01*
X255537D01*
Y18358D01*
X255678D01*
Y18216D01*
X255820D01*
Y18074D01*
X255962D01*
Y17933D01*
X256103D01*
Y17791D01*
X256245D01*
Y17649D01*
X256387D01*
Y17508D01*
X256528D01*
Y17366D01*
Y17224D01*
X256812D01*
Y17083D01*
X256670D01*
Y16941D01*
X256812D01*
Y16799D01*
X256953D01*
Y16658D01*
X257095D01*
Y16516D01*
X256953D01*
Y16375D01*
X257095D01*
Y16233D01*
Y16091D01*
X257237D01*
Y15949D01*
Y15808D01*
X257378D01*
Y15666D01*
X257237D01*
Y15525D01*
X257378D01*
Y15383D01*
Y15241D01*
Y15100D01*
X257520D01*
Y14958D01*
X257378D01*
Y14816D01*
X257520D01*
Y14675D01*
Y14533D01*
Y14391D01*
Y14250D01*
Y14108D01*
Y13966D01*
Y13825D01*
Y13683D01*
Y13541D01*
Y13400D01*
Y13258D01*
X257378D01*
Y13116D01*
Y12975D01*
Y12833D01*
X257237D01*
Y12691D01*
X257378D01*
Y12550D01*
X257237D01*
Y12408D01*
Y12267D01*
Y12125D01*
X257095D01*
Y11983D01*
Y11841D01*
Y11700D01*
X256953D01*
Y11558D01*
Y11417D01*
X256812D01*
Y11275D01*
Y11133D01*
X256670D01*
Y10992D01*
X256528D01*
Y10850D01*
X256387D01*
Y10708D01*
X256528D01*
Y10567D01*
X256245D01*
Y10425D01*
Y10283D01*
X256103D01*
Y10142D01*
X255962D01*
Y10000D01*
X255820D01*
Y9858D01*
X255678D01*
Y9717D01*
X255537D01*
Y9575D01*
X255395D01*
Y9433D01*
X254970D01*
Y9292D01*
X254828D01*
Y9150D01*
X254687D01*
Y9008D01*
X254545D01*
Y8867D01*
X254120D01*
Y8725D01*
X253978D01*
Y8867D01*
X253837D01*
Y8725D01*
X253978D01*
Y8584D01*
X253270D01*
Y8442D01*
X253129D01*
Y8300D01*
X252987D01*
Y8442D01*
X252845D01*
Y8300D01*
X250437D01*
Y8442D01*
X250295D01*
Y8300D01*
X250154D01*
Y8442D01*
X250012D01*
Y8584D01*
X249587D01*
Y8725D01*
X249446D01*
Y8867D01*
X249304D01*
Y8725D01*
X249446D01*
Y8584D01*
X249304D01*
Y8725D01*
X249162D01*
Y8867D01*
X248737D01*
Y9008D01*
X248596D01*
Y9150D01*
X248454D01*
Y9292D01*
X248312D01*
Y9433D01*
X247887D01*
Y9575D01*
Y9717D01*
X247604D01*
Y9858D01*
X247462D01*
Y10000D01*
X247321D01*
Y10142D01*
Y10283D01*
X247037D01*
Y10425D01*
X247179D01*
Y10567D01*
X246896D01*
Y10708D01*
Y10850D01*
X246754D01*
Y10992D01*
X246613D01*
Y11133D01*
X246471D01*
Y11275D01*
Y11417D01*
Y11558D01*
X246329D01*
Y11700D01*
X246187D01*
Y11841D01*
X246329D01*
Y11983D01*
X246187D01*
Y12125D01*
X246046D01*
Y12267D01*
Y12408D01*
Y12550D01*
X245904D01*
Y12691D01*
X246046D01*
Y12833D01*
X245904D01*
Y12975D01*
Y13116D01*
Y13258D01*
X245762D01*
Y13400D01*
X245904D01*
Y13541D01*
X245762D01*
Y13683D01*
Y13825D01*
Y13966D01*
Y14108D01*
Y14250D01*
Y14391D01*
Y14533D01*
Y14675D01*
Y14816D01*
Y14958D01*
Y15100D01*
Y15241D01*
Y15383D01*
Y15525D01*
Y15666D01*
Y15808D01*
Y15949D01*
Y16091D01*
Y16233D01*
Y16375D01*
Y16516D01*
Y16658D01*
Y16799D01*
Y16941D01*
Y17083D01*
Y17224D01*
Y17366D01*
Y17508D01*
Y17649D01*
Y17791D01*
Y17933D01*
Y18074D01*
Y18216D01*
Y18358D01*
Y18499D01*
Y18641D01*
Y18783D01*
Y18924D01*
Y19066D01*
Y19208D01*
Y19349D01*
Y19491D01*
Y19633D01*
Y19774D01*
Y19916D01*
Y20057D01*
Y20199D01*
Y20341D01*
Y20482D01*
Y20624D01*
Y20766D01*
Y20907D01*
Y21049D01*
Y21191D01*
Y21332D01*
Y21474D01*
Y21616D01*
Y21757D01*
Y21899D01*
Y22041D01*
Y22182D01*
Y22324D01*
Y22466D01*
Y22607D01*
Y22749D01*
Y22891D01*
Y23032D01*
Y23174D01*
Y23315D01*
Y23457D01*
Y23599D01*
Y23741D01*
Y23882D01*
Y24024D01*
Y24166D01*
Y24307D01*
Y24449D01*
Y24590D01*
X245904D01*
Y24732D01*
Y24874D01*
X246329D01*
Y25015D01*
X246471D01*
Y25157D01*
X246613D01*
Y25015D01*
D02*
G37*
G36*
X277777Y8584D02*
X277635D01*
Y8725D01*
X277777D01*
Y8584D01*
D02*
G37*
G36*
X274943Y25015D02*
X275085D01*
Y24874D01*
X275368D01*
Y24732D01*
Y24590D01*
X275510D01*
Y24449D01*
Y24307D01*
Y24166D01*
Y24024D01*
Y23882D01*
Y23741D01*
Y23599D01*
Y23457D01*
Y23315D01*
Y23174D01*
Y23032D01*
Y22891D01*
Y22749D01*
Y22607D01*
Y22466D01*
Y22324D01*
Y22182D01*
Y22041D01*
Y21899D01*
Y21757D01*
Y21616D01*
Y21474D01*
Y21332D01*
Y21191D01*
Y21049D01*
Y20907D01*
Y20766D01*
Y20624D01*
Y20482D01*
Y20341D01*
Y20199D01*
Y20057D01*
Y19916D01*
Y19774D01*
Y19633D01*
Y19491D01*
Y19349D01*
Y19208D01*
Y19066D01*
Y18924D01*
Y18783D01*
Y18641D01*
Y18499D01*
Y18358D01*
Y18216D01*
Y18074D01*
Y17933D01*
X275652D01*
Y18074D01*
X275793D01*
Y18216D01*
X275935D01*
Y18358D01*
X276077D01*
Y18499D01*
X276218D01*
Y18641D01*
X276360D01*
Y18783D01*
X276502D01*
Y18924D01*
X276926D01*
Y19066D01*
X277068D01*
Y19208D01*
X277210D01*
Y19349D01*
X277351D01*
Y19491D01*
X277777D01*
Y19633D01*
X277918D01*
Y19491D01*
X278060D01*
Y19633D01*
X278201D01*
Y19774D01*
X278626D01*
Y19916D01*
X278768D01*
Y19774D01*
X278910D01*
Y19916D01*
X279051D01*
Y19774D01*
X279193D01*
Y19916D01*
X279335D01*
Y20057D01*
X279476D01*
Y19916D01*
X279618D01*
Y20057D01*
X279760D01*
Y19916D01*
X279901D01*
Y20057D01*
X280043D01*
Y19916D01*
X280185D01*
Y20057D01*
X280326D01*
Y19916D01*
X280468D01*
Y20057D01*
X280610D01*
Y19916D01*
X280751D01*
Y20057D01*
X280893D01*
Y19916D01*
X281034D01*
Y20057D01*
X281176D01*
Y19916D01*
X281318D01*
Y19774D01*
X281459D01*
Y19916D01*
X281601D01*
Y19774D01*
X282026D01*
Y19633D01*
X282168D01*
Y19491D01*
X282309D01*
Y19633D01*
X282451D01*
Y19491D01*
X282593D01*
Y19349D01*
X282734D01*
Y19491D01*
X282876D01*
Y19349D01*
X283018D01*
Y19208D01*
X283159D01*
Y19066D01*
X283301D01*
Y18924D01*
X283726D01*
Y18783D01*
X283868D01*
Y18641D01*
X284009D01*
Y18499D01*
X284151D01*
Y18358D01*
X284293D01*
Y18216D01*
X284434D01*
Y18074D01*
X284576D01*
Y17933D01*
X284717D01*
Y17791D01*
X284859D01*
Y17649D01*
X284717D01*
Y17508D01*
X284859D01*
Y17366D01*
X285001D01*
Y17224D01*
X285142D01*
Y17083D01*
X285284D01*
Y16941D01*
X285426D01*
Y16799D01*
X285284D01*
Y16658D01*
X285426D01*
Y16516D01*
X285567D01*
Y16375D01*
Y16233D01*
Y16091D01*
X285709D01*
Y15949D01*
Y15808D01*
Y15666D01*
X285851D01*
Y15525D01*
Y15383D01*
Y15241D01*
X285992D01*
Y15100D01*
X285851D01*
Y14958D01*
X285992D01*
Y14816D01*
X285851D01*
Y14675D01*
X285992D01*
Y14533D01*
X285851D01*
Y14391D01*
X285992D01*
Y14250D01*
X285851D01*
Y14108D01*
X285992D01*
Y13966D01*
X285851D01*
Y13825D01*
X285992D01*
Y13683D01*
X285851D01*
Y13541D01*
X285992D01*
Y13400D01*
X285851D01*
Y13258D01*
X285992D01*
Y13116D01*
X285851D01*
Y12975D01*
Y12833D01*
Y12691D01*
X285709D01*
Y12550D01*
Y12408D01*
Y12267D01*
X285567D01*
Y12125D01*
X285709D01*
Y11983D01*
X285567D01*
Y11841D01*
X285426D01*
Y11700D01*
Y11558D01*
Y11417D01*
X285284D01*
Y11275D01*
X285142D01*
Y11133D01*
X285001D01*
Y10992D01*
X285142D01*
Y10850D01*
X285001D01*
Y10708D01*
X284859D01*
Y10567D01*
X284717D01*
Y10425D01*
X284576D01*
Y10283D01*
X284434D01*
Y10142D01*
X284293D01*
Y10000D01*
X284151D01*
Y9858D01*
X284009D01*
Y9717D01*
X283868D01*
Y9575D01*
X283726D01*
Y9433D01*
X283584D01*
Y9292D01*
X283443D01*
Y9150D01*
X283018D01*
Y9008D01*
X282876D01*
Y8867D01*
X282451D01*
Y8725D01*
X282309D01*
Y8584D01*
X281885D01*
Y8442D01*
X281459D01*
Y8300D01*
X278768D01*
Y8442D01*
X278626D01*
Y8300D01*
X278485D01*
Y8442D01*
X278343D01*
Y8584D01*
X277918D01*
Y8725D01*
X277777D01*
Y8867D01*
X277351D01*
Y9008D01*
X276926D01*
Y9150D01*
X276785D01*
Y9292D01*
X276643D01*
Y9433D01*
X276502D01*
Y9575D01*
X276360D01*
Y9717D01*
X276077D01*
Y9858D01*
Y10000D01*
X275935D01*
Y10142D01*
X275793D01*
Y10283D01*
X275652D01*
Y10425D01*
X275510D01*
Y10567D01*
X275368D01*
Y10708D01*
X275227D01*
Y10850D01*
X275085D01*
Y10992D01*
Y11133D01*
X274943D01*
Y11275D01*
Y11417D01*
X274802D01*
Y11558D01*
Y11700D01*
X274660D01*
Y11841D01*
Y11983D01*
X274518D01*
Y12125D01*
Y12267D01*
Y12408D01*
X274377D01*
Y12550D01*
Y12691D01*
Y12833D01*
X274235D01*
Y12975D01*
X274377D01*
Y13116D01*
X274235D01*
Y13258D01*
X274377D01*
Y13400D01*
X274235D01*
Y13541D01*
Y13683D01*
Y13825D01*
X274377D01*
Y13966D01*
X274235D01*
Y14108D01*
Y14250D01*
Y14391D01*
X274377D01*
Y14533D01*
X274235D01*
Y14675D01*
Y14816D01*
Y14958D01*
X274377D01*
Y15100D01*
X274235D01*
Y15241D01*
Y15383D01*
Y15525D01*
X274377D01*
Y15666D01*
X274235D01*
Y15808D01*
Y15949D01*
Y16091D01*
X274377D01*
Y16233D01*
X274235D01*
Y16375D01*
Y16516D01*
Y16658D01*
X274377D01*
Y16799D01*
X274235D01*
Y16941D01*
Y17083D01*
Y17224D01*
X274377D01*
Y17366D01*
X274235D01*
Y17508D01*
Y17649D01*
Y17791D01*
X274377D01*
Y17933D01*
X274235D01*
Y18074D01*
Y18216D01*
Y18358D01*
X274377D01*
Y18499D01*
X274235D01*
Y18641D01*
Y18783D01*
Y18924D01*
X274377D01*
Y19066D01*
X274235D01*
Y19208D01*
Y19349D01*
Y19491D01*
X274377D01*
Y19633D01*
X274235D01*
Y19774D01*
Y19916D01*
Y20057D01*
X274377D01*
Y20199D01*
X274235D01*
Y20341D01*
Y20482D01*
Y20624D01*
X274377D01*
Y20766D01*
X274235D01*
Y20907D01*
Y21049D01*
Y21191D01*
X274377D01*
Y21332D01*
X274235D01*
Y21474D01*
Y21616D01*
Y21757D01*
X274377D01*
Y21899D01*
X274235D01*
Y22041D01*
Y22182D01*
Y22324D01*
X274377D01*
Y22466D01*
X274235D01*
Y22607D01*
Y22749D01*
Y22891D01*
X274377D01*
Y23032D01*
X274235D01*
Y23174D01*
Y23315D01*
Y23457D01*
X274377D01*
Y23599D01*
X274235D01*
Y23741D01*
Y23882D01*
Y24024D01*
X274377D01*
Y24166D01*
X274235D01*
Y24307D01*
Y24449D01*
Y24590D01*
X274377D01*
Y24732D01*
Y24874D01*
X274660D01*
Y25015D01*
X274802D01*
Y25157D01*
X274943D01*
Y25015D01*
D02*
G37*
G36*
X298989Y92995D02*
X302374D01*
Y92484D01*
X298989D01*
Y91219D01*
X298534D01*
Y94260D01*
X298989D01*
Y92995D01*
D02*
G37*
G36*
X300698Y90836D02*
X300870Y90813D01*
X301037Y90780D01*
X301109Y90758D01*
X301181Y90736D01*
X301242Y90719D01*
X301298Y90697D01*
X301348Y90680D01*
X301392Y90664D01*
X301425Y90653D01*
X301448Y90641D01*
X301464Y90630D01*
X301470D01*
X301631Y90536D01*
X301769Y90436D01*
X301891Y90325D01*
X301991Y90220D01*
X302075Y90125D01*
X302108Y90086D01*
X302130Y90053D01*
X302152Y90020D01*
X302169Y89998D01*
X302175Y89986D01*
X302180Y89981D01*
X302224Y89898D01*
X302263Y89814D01*
X302330Y89648D01*
X302374Y89487D01*
X302408Y89337D01*
X302419Y89265D01*
X302424Y89204D01*
X302435Y89148D01*
Y89099D01*
X302441Y89065D01*
Y89010D01*
X302430Y88827D01*
X302402Y88655D01*
X302369Y88494D01*
X302347Y88421D01*
X302324Y88355D01*
X302302Y88294D01*
X302280Y88238D01*
X302263Y88194D01*
X302247Y88155D01*
X302230Y88122D01*
X302219Y88094D01*
X302208Y88083D01*
Y88077D01*
X302108Y87922D01*
X301997Y87789D01*
X301880Y87678D01*
X301769Y87583D01*
X301664Y87506D01*
X301625Y87478D01*
X301586Y87456D01*
X301553Y87433D01*
X301531Y87422D01*
X301514Y87411D01*
X301509D01*
X301420Y87367D01*
X301331Y87334D01*
X301153Y87273D01*
X300976Y87228D01*
X300815Y87200D01*
X300743Y87195D01*
X300676Y87184D01*
X300615Y87178D01*
X300565D01*
X300521Y87173D01*
X300493D01*
X300471D01*
X300465D01*
X300254Y87184D01*
X300060Y87206D01*
X299971Y87223D01*
X299882Y87245D01*
X299805Y87267D01*
X299733Y87284D01*
X299666Y87306D01*
X299605Y87328D01*
X299555Y87345D01*
X299511Y87367D01*
X299477Y87378D01*
X299455Y87389D01*
X299438Y87400D01*
X299433D01*
X299272Y87489D01*
X299128Y87594D01*
X299006Y87705D01*
X298906Y87805D01*
X298828Y87900D01*
X298795Y87944D01*
X298767Y87977D01*
X298750Y88011D01*
X298734Y88033D01*
X298728Y88044D01*
X298723Y88050D01*
X298678Y88133D01*
X298639Y88216D01*
X298573Y88377D01*
X298528Y88543D01*
X298500Y88688D01*
X298489Y88754D01*
X298478Y88821D01*
X298473Y88871D01*
Y88921D01*
X298467Y88960D01*
Y89010D01*
X298473Y89160D01*
X298489Y89298D01*
X298517Y89432D01*
X298550Y89559D01*
X298595Y89676D01*
X298639Y89787D01*
X298689Y89887D01*
X298739Y89975D01*
X298789Y90059D01*
X298839Y90131D01*
X298883Y90192D01*
X298928Y90242D01*
X298961Y90281D01*
X298989Y90314D01*
X299006Y90331D01*
X299011Y90336D01*
X299116Y90425D01*
X299227Y90503D01*
X299350Y90575D01*
X299472Y90630D01*
X299599Y90680D01*
X299722Y90725D01*
X299844Y90758D01*
X299960Y90780D01*
X300071Y90802D01*
X300177Y90819D01*
X300271Y90830D01*
X300349Y90841D01*
X300415D01*
X300465Y90847D01*
X300499D01*
X300504D01*
X300510D01*
X300698Y90836D01*
D02*
G37*
G36*
X302374Y84431D02*
X298534D01*
Y84942D01*
X302374D01*
Y84431D01*
D02*
G37*
G36*
Y83049D02*
X299361D01*
X302374Y81040D01*
Y80513D01*
X298534D01*
Y81001D01*
X301553D01*
X298534Y83016D01*
Y83537D01*
X302374D01*
Y83049D01*
D02*
G37*
G36*
X298989Y78681D02*
X302374D01*
Y78171D01*
X298989D01*
Y76905D01*
X298534D01*
Y79947D01*
X298989D01*
Y78681D01*
D02*
G37*
G36*
X303440Y73753D02*
X303101D01*
Y76877D01*
X303440D01*
Y73753D01*
D02*
G37*
G36*
X300626Y73531D02*
X300820Y73509D01*
X300992Y73481D01*
X301076Y73459D01*
X301148Y73442D01*
X301214Y73425D01*
X301275Y73403D01*
X301331Y73386D01*
X301375Y73375D01*
X301409Y73359D01*
X301436Y73353D01*
X301453Y73342D01*
X301459D01*
X301625Y73259D01*
X301775Y73164D01*
X301903Y73065D01*
X301953Y73015D01*
X302003Y72970D01*
X302047Y72926D01*
X302086Y72881D01*
X302119Y72843D01*
X302141Y72809D01*
X302164Y72787D01*
X302180Y72765D01*
X302186Y72754D01*
X302191Y72748D01*
X302236Y72671D01*
X302274Y72593D01*
X302336Y72426D01*
X302380Y72260D01*
X302408Y72099D01*
X302419Y72021D01*
X302430Y71955D01*
X302435Y71894D01*
Y71843D01*
X302441Y71799D01*
Y71738D01*
X302435Y71627D01*
X302424Y71522D01*
X302413Y71422D01*
X302391Y71327D01*
X302363Y71239D01*
X302336Y71155D01*
X302308Y71078D01*
X302274Y71005D01*
X302247Y70944D01*
X302219Y70883D01*
X302191Y70839D01*
X302164Y70795D01*
X302141Y70767D01*
X302130Y70739D01*
X302119Y70728D01*
X302114Y70722D01*
X302047Y70645D01*
X301980Y70578D01*
X301903Y70517D01*
X301825Y70456D01*
X301670Y70356D01*
X301514Y70278D01*
X301442Y70245D01*
X301375Y70217D01*
X301314Y70195D01*
X301264Y70179D01*
X301220Y70162D01*
X301187Y70151D01*
X301165Y70145D01*
X301159D01*
X301031Y70656D01*
X301120Y70678D01*
X301203Y70706D01*
X301281Y70733D01*
X301353Y70761D01*
X301420Y70795D01*
X301475Y70828D01*
X301531Y70867D01*
X301581Y70900D01*
X301625Y70928D01*
X301658Y70961D01*
X301692Y70989D01*
X301719Y71011D01*
X301736Y71033D01*
X301753Y71050D01*
X301758Y71055D01*
X301764Y71061D01*
X301808Y71117D01*
X301842Y71178D01*
X301903Y71300D01*
X301947Y71416D01*
X301975Y71533D01*
X301997Y71633D01*
X302003Y71671D01*
Y71710D01*
X302008Y71744D01*
Y71782D01*
X302003Y71910D01*
X301980Y72032D01*
X301953Y72143D01*
X301919Y72243D01*
X301886Y72321D01*
X301869Y72354D01*
X301858Y72382D01*
X301847Y72404D01*
X301836Y72421D01*
X301831Y72432D01*
Y72437D01*
X301753Y72543D01*
X301670Y72632D01*
X301575Y72709D01*
X301486Y72770D01*
X301409Y72820D01*
X301342Y72854D01*
X301314Y72865D01*
X301298Y72876D01*
X301287Y72881D01*
X301281D01*
X301137Y72926D01*
X300992Y72959D01*
X300848Y72987D01*
X300715Y73004D01*
X300654Y73009D01*
X300598Y73015D01*
X300548D01*
X300510Y73020D01*
X300476D01*
X300448D01*
X300432D01*
X300426D01*
X300282Y73015D01*
X300149Y73004D01*
X300027Y72981D01*
X299916Y72959D01*
X299821Y72942D01*
X299782Y72931D01*
X299749Y72920D01*
X299722Y72915D01*
X299705Y72909D01*
X299694Y72904D01*
X299688D01*
X299560Y72848D01*
X299444Y72787D01*
X299350Y72720D01*
X299266Y72648D01*
X299200Y72587D01*
X299155Y72537D01*
X299128Y72498D01*
X299116Y72493D01*
Y72487D01*
X299044Y72371D01*
X298989Y72243D01*
X298950Y72121D01*
X298928Y72004D01*
X298911Y71899D01*
X298906Y71855D01*
Y71816D01*
X298900Y71788D01*
Y71744D01*
X298906Y71605D01*
X298928Y71477D01*
X298961Y71372D01*
X298994Y71277D01*
X299033Y71205D01*
X299061Y71150D01*
X299083Y71117D01*
X299094Y71105D01*
X299178Y71017D01*
X299272Y70933D01*
X299372Y70867D01*
X299472Y70811D01*
X299560Y70767D01*
X299605Y70750D01*
X299638Y70739D01*
X299666Y70728D01*
X299688Y70717D01*
X299699Y70711D01*
X299705D01*
X299588Y70212D01*
X299488Y70245D01*
X299400Y70278D01*
X299316Y70323D01*
X299233Y70362D01*
X299161Y70406D01*
X299094Y70456D01*
X299028Y70500D01*
X298972Y70545D01*
X298928Y70589D01*
X298883Y70628D01*
X298845Y70667D01*
X298817Y70695D01*
X298789Y70722D01*
X298772Y70745D01*
X298767Y70756D01*
X298761Y70761D01*
X298711Y70839D01*
X298661Y70917D01*
X298623Y70994D01*
X298589Y71078D01*
X298539Y71244D01*
X298506Y71394D01*
X298489Y71466D01*
X298484Y71527D01*
X298478Y71588D01*
X298473Y71638D01*
X298467Y71677D01*
Y71732D01*
X298478Y71916D01*
X298506Y72093D01*
X298539Y72249D01*
X298562Y72321D01*
X298584Y72387D01*
X298606Y72448D01*
X298628Y72504D01*
X298645Y72548D01*
X298661Y72593D01*
X298678Y72620D01*
X298689Y72643D01*
X298695Y72659D01*
X298700Y72665D01*
X298795Y72815D01*
X298906Y72942D01*
X299017Y73053D01*
X299128Y73148D01*
X299227Y73220D01*
X299272Y73248D01*
X299311Y73270D01*
X299339Y73292D01*
X299361Y73303D01*
X299377Y73309D01*
X299383Y73314D01*
X299555Y73392D01*
X299733Y73448D01*
X299910Y73486D01*
X300071Y73514D01*
X300143Y73525D01*
X300215Y73531D01*
X300271Y73536D01*
X300326D01*
X300365Y73542D01*
X300399D01*
X300421D01*
X300426D01*
X300626Y73531D01*
D02*
G37*
G36*
X302374Y69402D02*
X301209Y68985D01*
Y67376D01*
X302374Y66926D01*
Y66349D01*
X298534Y67920D01*
Y68475D01*
X302374Y69940D01*
Y69402D01*
D02*
G37*
G36*
Y65467D02*
X299105D01*
X302374Y64357D01*
Y63902D01*
X299161Y62780D01*
X302374D01*
Y62292D01*
X298534D01*
Y62975D01*
X301209Y63896D01*
X301353Y63946D01*
X301475Y63985D01*
X301581Y64024D01*
X301670Y64051D01*
X301736Y64073D01*
X301786Y64090D01*
X301814Y64096D01*
X301825Y64101D01*
X301747Y64123D01*
X301658Y64151D01*
X301564Y64184D01*
X301470Y64212D01*
X301386Y64240D01*
X301320Y64262D01*
X301292Y64273D01*
X301275Y64279D01*
X301264Y64284D01*
X301259D01*
X298534Y65195D01*
Y65955D01*
X302374D01*
Y65467D01*
D02*
G37*
G36*
X254518Y7647D02*
X254598Y7639D01*
X254707Y7618D01*
X254824Y7588D01*
X254955Y7537D01*
X255086Y7472D01*
X255217Y7377D01*
X255232Y7362D01*
X255268Y7326D01*
X255334Y7260D01*
X255407Y7166D01*
X255487Y7049D01*
X255567Y6903D01*
X255655Y6736D01*
X255728Y6539D01*
Y6532D01*
X255735Y6510D01*
X255742Y6480D01*
X255757Y6437D01*
X255771Y6378D01*
X255786Y6313D01*
X255801Y6240D01*
X255815Y6145D01*
X255837Y6050D01*
X255852Y5941D01*
X255866Y5824D01*
X255881Y5693D01*
X255895Y5555D01*
X255903Y5409D01*
X255910Y5256D01*
Y5095D01*
Y5088D01*
Y5074D01*
Y5052D01*
Y5015D01*
X255903Y4971D01*
Y4920D01*
X255888Y4804D01*
X255866Y4673D01*
X255830Y4534D01*
X255786Y4388D01*
X255720Y4250D01*
Y4242D01*
X255713Y4235D01*
X255684Y4191D01*
X255640Y4126D01*
X255582Y4046D01*
X255509Y3958D01*
X255414Y3863D01*
X255312Y3776D01*
X255195Y3696D01*
X255188D01*
X255181Y3688D01*
X255137Y3667D01*
X255072Y3637D01*
X254977Y3601D01*
X254875Y3564D01*
X254744Y3535D01*
X254605Y3513D01*
X254459Y3506D01*
X254394D01*
X254313Y3513D01*
X254219Y3528D01*
X254109Y3550D01*
X253985Y3586D01*
X253861Y3630D01*
X253737Y3688D01*
X253730D01*
X253723Y3696D01*
X253686Y3725D01*
X253628Y3768D01*
X253555Y3827D01*
X253475Y3900D01*
X253388Y3987D01*
X253300Y4082D01*
X253227Y4199D01*
Y4206D01*
X253220Y4213D01*
X253198Y4257D01*
X253162Y4323D01*
X253125Y4410D01*
X253096Y4512D01*
X253060Y4636D01*
X253038Y4767D01*
X253030Y4913D01*
Y4920D01*
Y4928D01*
Y4950D01*
Y4979D01*
X253038Y5052D01*
X253052Y5146D01*
X253074Y5248D01*
X253111Y5365D01*
X253154Y5489D01*
X253220Y5613D01*
Y5620D01*
X253227Y5627D01*
X253256Y5664D01*
X253300Y5722D01*
X253351Y5795D01*
X253424Y5875D01*
X253512Y5963D01*
X253614Y6050D01*
X253730Y6123D01*
X253745Y6131D01*
X253788Y6152D01*
X253854Y6189D01*
X253942Y6225D01*
X254044Y6254D01*
X254160Y6291D01*
X254299Y6313D01*
X254437Y6320D01*
X254488D01*
X254547Y6313D01*
X254627Y6306D01*
X254714Y6291D01*
X254809Y6269D01*
X254919Y6240D01*
X255020Y6196D01*
X255035Y6189D01*
X255064Y6174D01*
X255115Y6145D01*
X255181Y6109D01*
X255254Y6058D01*
X255334Y5999D01*
X255414Y5934D01*
X255494Y5853D01*
X255502Y5846D01*
X255523Y5817D01*
X255553Y5773D01*
X255589Y5715D01*
X255626Y5649D01*
X255647Y5569D01*
X255669Y5489D01*
Y5496D01*
X255662Y5555D01*
Y5613D01*
X255655Y5686D01*
X255647Y5766D01*
X255633Y5934D01*
X255604Y6116D01*
X255567Y6298D01*
X255516Y6480D01*
Y6488D01*
X255509Y6502D01*
X255502Y6524D01*
X255487Y6561D01*
X255451Y6641D01*
X255400Y6743D01*
X255341Y6859D01*
X255261Y6976D01*
X255174Y7085D01*
X255079Y7188D01*
X255064Y7195D01*
X255028Y7224D01*
X254970Y7260D01*
X254897Y7311D01*
X254802Y7355D01*
X254693Y7392D01*
X254576Y7421D01*
X254445Y7428D01*
X254386D01*
X254321Y7421D01*
X254240Y7406D01*
X254146Y7377D01*
X254044Y7348D01*
X253934Y7297D01*
X253832Y7231D01*
X253818Y7224D01*
X253788Y7195D01*
X253737Y7151D01*
X253679Y7093D01*
X253621Y7013D01*
X253555Y6918D01*
X253497Y6808D01*
X253446Y6685D01*
X253242Y6743D01*
Y6750D01*
X253249Y6765D01*
X253256Y6787D01*
X253264Y6816D01*
X253300Y6896D01*
X253351Y6998D01*
X253410Y7107D01*
X253490Y7217D01*
X253584Y7326D01*
X253701Y7421D01*
X253716Y7428D01*
X253759Y7457D01*
X253825Y7494D01*
X253912Y7537D01*
X254022Y7581D01*
X254153Y7618D01*
X254292Y7647D01*
X254445Y7654D01*
X254488D01*
X254518Y7647D01*
D02*
G37*
G36*
X268901Y3564D02*
X268675D01*
Y4826D01*
X267829Y5708D01*
X266152Y3564D01*
X265919D01*
X267683Y5839D01*
X265999Y7625D01*
X266240D01*
X268675Y5066D01*
Y7625D01*
X268901D01*
Y3564D01*
D02*
G37*
G36*
X262595D02*
X262391D01*
X260656Y7625D01*
X260874D01*
X262493Y3820D01*
X264119Y7625D01*
X264330D01*
X262595Y3564D01*
D02*
G37*
G36*
X256741D02*
X256515D01*
Y4024D01*
X256741D01*
Y3564D01*
D02*
G37*
G36*
X258979Y6940D02*
X259118Y6910D01*
X259249Y6874D01*
X259351Y6830D01*
X259446Y6787D01*
X259511Y6750D01*
X259555Y6721D01*
X259562Y6714D01*
X259570D01*
X259686Y6626D01*
X259781Y6524D01*
X259868Y6422D01*
X259941Y6320D01*
X260000Y6233D01*
X260036Y6167D01*
X260051Y6138D01*
X260065Y6116D01*
X260072Y6109D01*
Y6101D01*
X260131Y5956D01*
X260175Y5802D01*
X260204Y5657D01*
X260226Y5518D01*
X260240Y5401D01*
Y5350D01*
X260247Y5307D01*
Y5278D01*
Y5248D01*
Y5234D01*
Y5227D01*
X260240Y5044D01*
X260218Y4877D01*
X260189Y4724D01*
X260160Y4592D01*
X260131Y4483D01*
X260116Y4439D01*
X260102Y4403D01*
X260087Y4374D01*
X260080Y4352D01*
X260072Y4344D01*
Y4337D01*
X260000Y4199D01*
X259919Y4082D01*
X259832Y3973D01*
X259752Y3885D01*
X259679Y3820D01*
X259620Y3768D01*
X259584Y3732D01*
X259570Y3725D01*
X259446Y3652D01*
X259314Y3601D01*
X259190Y3557D01*
X259081Y3535D01*
X258979Y3521D01*
X258899Y3513D01*
X258870Y3506D01*
X258833D01*
X258680Y3513D01*
X258542Y3543D01*
X258418Y3579D01*
X258308Y3616D01*
X258221Y3659D01*
X258155Y3688D01*
X258112Y3717D01*
X258097Y3725D01*
X257980Y3820D01*
X257878Y3914D01*
X257791Y4016D01*
X257725Y4118D01*
X257667Y4206D01*
X257623Y4272D01*
X257609Y4301D01*
X257601Y4323D01*
X257594Y4330D01*
Y4337D01*
X257536Y4483D01*
X257492Y4636D01*
X257455Y4789D01*
X257434Y4928D01*
X257419Y5044D01*
Y5095D01*
X257412Y5139D01*
Y5175D01*
Y5205D01*
Y5219D01*
Y5227D01*
X257419Y5401D01*
X257441Y5569D01*
X257470Y5715D01*
X257499Y5846D01*
X257536Y5956D01*
X257550Y5999D01*
X257565Y6036D01*
X257579Y6065D01*
X257587Y6087D01*
X257594Y6094D01*
Y6101D01*
X257667Y6240D01*
X257747Y6364D01*
X257827Y6466D01*
X257907Y6553D01*
X257980Y6619D01*
X258046Y6670D01*
X258082Y6706D01*
X258090Y6714D01*
X258097D01*
X258221Y6794D01*
X258345Y6852D01*
X258469Y6889D01*
X258585Y6918D01*
X258687Y6932D01*
X258760Y6947D01*
X258833D01*
X258979Y6940D01*
D02*
G37*
G36*
X272290Y4133D02*
Y3965D01*
X270264D01*
Y2857D01*
X270031D01*
Y3965D01*
X269542D01*
Y4184D01*
X270031D01*
Y6852D01*
X270198D01*
X272290Y4133D01*
D02*
G37*
%LPC*%
G36*
X238397Y18783D02*
X238255D01*
Y18641D01*
X237830D01*
Y18783D01*
X237688D01*
Y18641D01*
X237547D01*
Y18499D01*
X237405D01*
Y18641D01*
X237263D01*
Y18499D01*
X236838D01*
Y18358D01*
X236413D01*
Y18216D01*
X236272D01*
Y18074D01*
X236130D01*
Y18216D01*
X235988D01*
Y18074D01*
X235847D01*
Y17933D01*
X235705D01*
Y17791D01*
X235563D01*
Y17649D01*
X235280D01*
Y17508D01*
X235138D01*
Y17366D01*
X234997D01*
Y17224D01*
Y17083D01*
X234714D01*
Y16941D01*
Y16799D01*
X234572D01*
Y16658D01*
X234430D01*
Y16516D01*
X234289D01*
Y16375D01*
Y16233D01*
Y16091D01*
X234147D01*
Y15949D01*
X234005D01*
Y15808D01*
Y15666D01*
Y15525D01*
X233863D01*
Y15383D01*
X233722D01*
Y15241D01*
X233863D01*
Y15100D01*
X233722D01*
Y14958D01*
X233863D01*
Y14816D01*
X234005D01*
Y14675D01*
X234147D01*
Y14816D01*
X234289D01*
Y14675D01*
X234430D01*
Y14816D01*
X234572D01*
Y14675D01*
X234714D01*
Y14816D01*
X234855D01*
Y14675D01*
X234997D01*
Y14816D01*
X235138D01*
Y14675D01*
X235280D01*
Y14816D01*
X235422D01*
Y14675D01*
X235563D01*
Y14816D01*
X235705D01*
Y14675D01*
X235847D01*
Y14816D01*
X235988D01*
Y14675D01*
X236130D01*
Y14816D01*
X236272D01*
Y14675D01*
X236413D01*
Y14816D01*
X236555D01*
Y14675D01*
X236697D01*
Y14816D01*
X236838D01*
Y14675D01*
X236980D01*
Y14816D01*
X237122D01*
Y14675D01*
X237263D01*
Y14816D01*
X237405D01*
Y14675D01*
X237547D01*
Y14816D01*
X237688D01*
Y14675D01*
X237830D01*
Y14816D01*
X237971D01*
Y14675D01*
X238113D01*
Y14816D01*
X238255D01*
Y14675D01*
X238397D01*
Y14816D01*
X238538D01*
Y14675D01*
X238680D01*
Y14816D01*
X238822D01*
Y14675D01*
X238963D01*
Y14816D01*
X239105D01*
Y14675D01*
X239246D01*
Y14816D01*
X239388D01*
Y14675D01*
X239530D01*
Y14816D01*
X239671D01*
Y14675D01*
X239813D01*
Y14816D01*
X239955D01*
Y14675D01*
X240096D01*
Y14816D01*
X240238D01*
Y14675D01*
X240380D01*
Y14816D01*
X240521D01*
Y14675D01*
X240663D01*
Y14816D01*
X240805D01*
Y14675D01*
X240946D01*
Y14816D01*
X241088D01*
Y14675D01*
X241230D01*
Y14816D01*
X241371D01*
Y14675D01*
X241513D01*
Y14816D01*
X241654D01*
Y14675D01*
X241796D01*
Y14816D01*
X241938D01*
Y14675D01*
X242079D01*
Y14816D01*
X242221D01*
Y14675D01*
X242363D01*
Y14816D01*
X242505D01*
Y14675D01*
X242646D01*
Y14816D01*
X242788D01*
Y14958D01*
Y15100D01*
Y15241D01*
X242646D01*
Y15383D01*
X242505D01*
Y15525D01*
X242646D01*
Y15666D01*
X242505D01*
Y15808D01*
X242363D01*
Y15949D01*
Y16091D01*
Y16233D01*
X242221D01*
Y16375D01*
X242079D01*
Y16516D01*
X241938D01*
Y16658D01*
X242079D01*
Y16799D01*
X241938D01*
Y16941D01*
X241796D01*
Y17083D01*
X241654D01*
Y17224D01*
X241513D01*
Y17366D01*
X241371D01*
Y17508D01*
X241230D01*
Y17649D01*
X241088D01*
Y17791D01*
X240946D01*
Y17933D01*
X240521D01*
Y18074D01*
X240380D01*
Y18216D01*
X239955D01*
Y18358D01*
X239813D01*
Y18499D01*
X239105D01*
Y18641D01*
X238963D01*
Y18499D01*
X238822D01*
Y18641D01*
X238397D01*
Y18783D01*
D02*
G37*
G36*
X233863Y14816D02*
X233722D01*
Y14675D01*
X233863D01*
Y14816D01*
D02*
G37*
G36*
X251995Y18783D02*
X251854D01*
Y18641D01*
X251995D01*
Y18499D01*
X251854D01*
Y18641D01*
X251429D01*
Y18499D01*
X251287D01*
Y18641D01*
X250862D01*
Y18499D01*
X250154D01*
Y18358D01*
X250012D01*
Y18216D01*
X249587D01*
Y18074D01*
X249446D01*
Y17933D01*
X249021D01*
Y17791D01*
X248879D01*
Y17649D01*
X248737D01*
Y17508D01*
X248596D01*
Y17366D01*
X248454D01*
Y17224D01*
X248312D01*
Y17083D01*
X248171D01*
Y16941D01*
X248029D01*
Y16799D01*
X247887D01*
Y16658D01*
Y16516D01*
X247746D01*
Y16375D01*
Y16233D01*
X247604D01*
Y16091D01*
X247462D01*
Y15949D01*
Y15808D01*
Y15666D01*
X247321D01*
Y15525D01*
Y15383D01*
Y15241D01*
X247179D01*
Y15100D01*
Y14958D01*
Y14816D01*
X247037D01*
Y14675D01*
X247179D01*
Y14533D01*
X247037D01*
Y14391D01*
X247179D01*
Y14250D01*
X247037D01*
Y14108D01*
X247179D01*
Y13966D01*
X247037D01*
Y13825D01*
X247179D01*
Y13683D01*
X247037D01*
Y13541D01*
X247179D01*
Y13400D01*
X247037D01*
Y13258D01*
X247179D01*
Y13116D01*
Y12975D01*
Y12833D01*
X247321D01*
Y12691D01*
X247462D01*
Y12550D01*
X247321D01*
Y12408D01*
X247462D01*
Y12267D01*
X247604D01*
Y12125D01*
X247746D01*
Y11983D01*
X247604D01*
Y11841D01*
X247746D01*
Y11700D01*
X247887D01*
Y11558D01*
X248029D01*
Y11417D01*
Y11275D01*
X248171D01*
Y11133D01*
Y10992D01*
X248454D01*
Y10850D01*
Y10708D01*
X248737D01*
Y10567D01*
Y10425D01*
X249162D01*
Y10283D01*
X249304D01*
Y10142D01*
X249729D01*
Y10000D01*
X249870D01*
Y9858D01*
X250295D01*
Y9717D01*
X250437D01*
Y9858D01*
X250579D01*
Y9717D01*
X250720D01*
Y9575D01*
X250862D01*
Y9717D01*
X251004D01*
Y9575D01*
X252562D01*
Y9717D01*
X252704D01*
Y9858D01*
X252845D01*
Y9717D01*
X252987D01*
Y9858D01*
X253412D01*
Y10000D01*
X253554D01*
Y10142D01*
X253695D01*
Y10000D01*
X253837D01*
Y10142D01*
X253978D01*
Y10283D01*
X254120D01*
Y10425D01*
X254545D01*
Y10567D01*
Y10708D01*
X254828D01*
Y10850D01*
Y10992D01*
X255112D01*
Y11133D01*
Y11275D01*
X255253D01*
Y11417D01*
Y11558D01*
X255395D01*
Y11700D01*
X255537D01*
Y11841D01*
X255678D01*
Y11983D01*
Y12125D01*
Y12267D01*
X255820D01*
Y12408D01*
X255962D01*
Y12550D01*
X255820D01*
Y12691D01*
X255962D01*
Y12833D01*
X256103D01*
Y12975D01*
X255962D01*
Y13116D01*
X256103D01*
Y13258D01*
X256245D01*
Y13400D01*
X256103D01*
Y13541D01*
X256245D01*
Y13683D01*
X256103D01*
Y13825D01*
X256245D01*
Y13966D01*
X256103D01*
Y14108D01*
X256245D01*
Y14250D01*
X256103D01*
Y14391D01*
X256245D01*
Y14533D01*
X256103D01*
Y14675D01*
X256245D01*
Y14816D01*
X256103D01*
Y14958D01*
Y15100D01*
Y15241D01*
X255962D01*
Y15383D01*
Y15525D01*
Y15666D01*
X255820D01*
Y15808D01*
X255962D01*
Y15949D01*
X255820D01*
Y16091D01*
X255678D01*
Y16233D01*
X255537D01*
Y16375D01*
Y16516D01*
X255395D01*
Y16658D01*
Y16799D01*
X255253D01*
Y16941D01*
X255112D01*
Y17083D01*
X254970D01*
Y17224D01*
X254828D01*
Y17366D01*
X254687D01*
Y17508D01*
X254545D01*
Y17649D01*
X254403D01*
Y17791D01*
X254262D01*
Y17933D01*
X253837D01*
Y18074D01*
X253695D01*
Y18216D01*
X253270D01*
Y18358D01*
X253129D01*
Y18499D01*
X252420D01*
Y18641D01*
X252279D01*
Y18499D01*
X252137D01*
Y18641D01*
X251995D01*
Y18783D01*
D02*
G37*
G36*
X247179Y17933D02*
X247037D01*
Y17791D01*
X247179D01*
Y17933D01*
D02*
G37*
G36*
X280326Y18783D02*
X280185D01*
Y18641D01*
X279760D01*
Y18499D01*
X279618D01*
Y18641D01*
X279193D01*
Y18499D01*
X278485D01*
Y18358D01*
X278343D01*
Y18216D01*
X277918D01*
Y18074D01*
X277777D01*
Y17933D01*
X277351D01*
Y17791D01*
X277210D01*
Y17649D01*
X277068D01*
Y17508D01*
X276926D01*
Y17366D01*
X276785D01*
Y17224D01*
X276643D01*
Y17083D01*
X276502D01*
Y16941D01*
X276360D01*
Y16799D01*
Y16658D01*
Y16516D01*
X276218D01*
Y16375D01*
X276077D01*
Y16233D01*
X275935D01*
Y16091D01*
X276077D01*
Y15949D01*
X275935D01*
Y15808D01*
X275793D01*
Y15666D01*
Y15525D01*
Y15383D01*
X275652D01*
Y15241D01*
Y15100D01*
Y14958D01*
X275510D01*
Y14816D01*
X275652D01*
Y14675D01*
X275510D01*
Y14533D01*
Y14391D01*
Y14250D01*
Y14108D01*
Y13966D01*
Y13825D01*
Y13683D01*
Y13541D01*
Y13400D01*
X275652D01*
Y13258D01*
Y13116D01*
Y12975D01*
X275793D01*
Y12833D01*
X275652D01*
Y12691D01*
X275793D01*
Y12550D01*
X275935D01*
Y12408D01*
Y12267D01*
Y12125D01*
X276077D01*
Y11983D01*
Y11841D01*
X276218D01*
Y11700D01*
Y11558D01*
X276360D01*
Y11417D01*
X276502D01*
Y11275D01*
X276643D01*
Y11133D01*
X276785D01*
Y10992D01*
X276926D01*
Y10850D01*
X277068D01*
Y10708D01*
X277210D01*
Y10567D01*
X277351D01*
Y10425D01*
X277493D01*
Y10283D01*
X277635D01*
Y10142D01*
X278060D01*
Y10000D01*
X278201D01*
Y9858D01*
X278626D01*
Y9717D01*
X278768D01*
Y9858D01*
X278910D01*
Y9717D01*
X279051D01*
Y9575D01*
X279193D01*
Y9717D01*
X279335D01*
Y9575D01*
X280893D01*
Y9717D01*
X281034D01*
Y9575D01*
X281176D01*
Y9717D01*
X281318D01*
Y9858D01*
X282026D01*
Y10000D01*
X282168D01*
Y10142D01*
X282593D01*
Y10283D01*
Y10425D01*
X282876D01*
Y10567D01*
X283018D01*
Y10708D01*
X283159D01*
Y10850D01*
X283301D01*
Y10992D01*
X283443D01*
Y11133D01*
X283584D01*
Y11275D01*
X283726D01*
Y11417D01*
Y11558D01*
X284009D01*
Y11700D01*
X283868D01*
Y11841D01*
X284009D01*
Y11983D01*
X284151D01*
Y12125D01*
X284293D01*
Y12267D01*
X284151D01*
Y12408D01*
X284293D01*
Y12550D01*
X284434D01*
Y12691D01*
Y12833D01*
Y12975D01*
X284576D01*
Y13116D01*
X284434D01*
Y13258D01*
X284576D01*
Y13400D01*
Y13541D01*
Y13683D01*
Y13825D01*
Y13966D01*
X284717D01*
Y14108D01*
X284576D01*
Y14250D01*
X284717D01*
Y14391D01*
X284576D01*
Y14533D01*
Y14675D01*
Y14816D01*
X284434D01*
Y14958D01*
X284576D01*
Y15100D01*
X284434D01*
Y15241D01*
X284576D01*
Y15383D01*
X284434D01*
Y15525D01*
Y15666D01*
Y15808D01*
X284293D01*
Y15949D01*
X284151D01*
Y16091D01*
Y16233D01*
X284009D01*
Y16375D01*
Y16516D01*
X283868D01*
Y16658D01*
X283726D01*
Y16799D01*
X283584D01*
Y16941D01*
Y17083D01*
X283301D01*
Y17224D01*
X283443D01*
Y17366D01*
X283018D01*
Y17508D01*
X283159D01*
Y17649D01*
X282734D01*
Y17791D01*
X282593D01*
Y17933D01*
X282451D01*
Y18074D01*
X282309D01*
Y18216D01*
X281885D01*
Y18358D01*
X281743D01*
Y18499D01*
X281601D01*
Y18358D01*
X281743D01*
Y18216D01*
X281601D01*
Y18358D01*
X281459D01*
Y18499D01*
X281034D01*
Y18641D01*
X280893D01*
Y18499D01*
X280751D01*
Y18641D01*
X280326D01*
Y18783D01*
D02*
G37*
G36*
X300582Y90325D02*
X300543D01*
X300521D01*
X300515D01*
X300360Y90320D01*
X300215Y90308D01*
X300077Y90292D01*
X299955Y90264D01*
X299844Y90236D01*
X299744Y90203D01*
X299649Y90164D01*
X299572Y90131D01*
X299500Y90092D01*
X299438Y90059D01*
X299389Y90025D01*
X299350Y89998D01*
X299316Y89970D01*
X299294Y89953D01*
X299283Y89942D01*
X299277Y89937D01*
X299211Y89864D01*
X299155Y89787D01*
X299105Y89709D01*
X299061Y89626D01*
X299028Y89548D01*
X298994Y89470D01*
X298950Y89326D01*
X298939Y89259D01*
X298928Y89198D01*
X298917Y89148D01*
X298911Y89099D01*
X298906Y89060D01*
Y89010D01*
X298911Y88871D01*
X298933Y88738D01*
X298967Y88621D01*
X299000Y88521D01*
X299039Y88438D01*
X299056Y88405D01*
X299067Y88377D01*
X299083Y88349D01*
X299089Y88333D01*
X299100Y88327D01*
Y88322D01*
X299178Y88216D01*
X299266Y88122D01*
X299355Y88038D01*
X299444Y87972D01*
X299522Y87922D01*
X299588Y87883D01*
X299610Y87872D01*
X299627Y87861D01*
X299638Y87855D01*
X299644D01*
X299777Y87800D01*
X299921Y87761D01*
X300055Y87733D01*
X300182Y87717D01*
X300243Y87705D01*
X300293Y87700D01*
X300343D01*
X300382Y87694D01*
X300415D01*
X300437D01*
X300454D01*
X300460D01*
X300593Y87700D01*
X300721Y87711D01*
X300843Y87728D01*
X300954Y87750D01*
X301054Y87783D01*
X301148Y87811D01*
X301237Y87844D01*
X301314Y87878D01*
X301381Y87916D01*
X301442Y87950D01*
X301492Y87977D01*
X301531Y88005D01*
X301564Y88033D01*
X301592Y88050D01*
X301603Y88061D01*
X301608Y88066D01*
X301681Y88138D01*
X301742Y88216D01*
X301792Y88294D01*
X301842Y88371D01*
X301880Y88449D01*
X301908Y88532D01*
X301936Y88604D01*
X301958Y88682D01*
X301975Y88749D01*
X301986Y88815D01*
X301997Y88871D01*
X302003Y88921D01*
Y88960D01*
X302008Y88987D01*
Y89015D01*
X302003Y89121D01*
X301991Y89221D01*
X301969Y89309D01*
X301947Y89398D01*
X301914Y89481D01*
X301880Y89559D01*
X301847Y89631D01*
X301808Y89698D01*
X301769Y89753D01*
X301736Y89803D01*
X301703Y89848D01*
X301670Y89887D01*
X301647Y89914D01*
X301625Y89937D01*
X301614Y89948D01*
X301608Y89953D01*
X301531Y90020D01*
X301448Y90075D01*
X301359Y90125D01*
X301270Y90170D01*
X301176Y90203D01*
X301087Y90236D01*
X300909Y90281D01*
X300832Y90292D01*
X300754Y90303D01*
X300687Y90314D01*
X300632Y90320D01*
X300582Y90325D01*
D02*
G37*
G36*
X300793Y68835D02*
X299672Y68419D01*
X299533Y68369D01*
X299400Y68330D01*
X299277Y68291D01*
X299166Y68264D01*
X299072Y68242D01*
X299033Y68230D01*
X298994Y68225D01*
X298972Y68214D01*
X298950D01*
X298939Y68208D01*
X298933D01*
X299061Y68169D01*
X299194Y68125D01*
X299327Y68081D01*
X299455Y68036D01*
X299511Y68014D01*
X299566Y67997D01*
X299616Y67981D01*
X299655Y67964D01*
X299688Y67953D01*
X299716Y67942D01*
X299733Y67936D01*
X299738D01*
X300793Y67537D01*
Y68835D01*
D02*
G37*
G36*
X254452Y6094D02*
X254401D01*
X254335Y6087D01*
X254255Y6072D01*
X254168Y6058D01*
X254065Y6028D01*
X253963Y5985D01*
X253861Y5934D01*
X253847Y5926D01*
X253818Y5904D01*
X253767Y5868D01*
X253708Y5817D01*
X253635Y5759D01*
X253562Y5678D01*
X253497Y5598D01*
X253431Y5496D01*
X253424Y5482D01*
X253402Y5452D01*
X253380Y5394D01*
X253344Y5321D01*
X253315Y5234D01*
X253293Y5132D01*
X253271Y5022D01*
X253264Y4906D01*
Y4891D01*
Y4855D01*
X253271Y4789D01*
X253286Y4709D01*
X253300Y4622D01*
X253329Y4519D01*
X253373Y4410D01*
X253424Y4308D01*
X253431Y4293D01*
X253453Y4264D01*
X253490Y4213D01*
X253541Y4155D01*
X253599Y4082D01*
X253672Y4016D01*
X253759Y3943D01*
X253854Y3878D01*
X253869Y3871D01*
X253898Y3856D01*
X253956Y3827D01*
X254029Y3805D01*
X254117Y3776D01*
X254211Y3747D01*
X254328Y3732D01*
X254445Y3725D01*
X254503D01*
X254561Y3732D01*
X254642Y3747D01*
X254736Y3761D01*
X254838Y3790D01*
X254940Y3834D01*
X255050Y3885D01*
X255064Y3892D01*
X255093Y3914D01*
X255145Y3951D01*
X255203Y4002D01*
X255276Y4060D01*
X255349Y4133D01*
X255421Y4220D01*
X255487Y4315D01*
X255494Y4330D01*
X255509Y4366D01*
X255538Y4417D01*
X255567Y4490D01*
X255596Y4578D01*
X255626Y4680D01*
X255640Y4796D01*
X255647Y4913D01*
Y4920D01*
Y4928D01*
Y4964D01*
X255640Y5030D01*
X255626Y5110D01*
X255611Y5197D01*
X255582Y5300D01*
X255538Y5401D01*
X255487Y5504D01*
X255480Y5518D01*
X255458Y5547D01*
X255421Y5598D01*
X255370Y5657D01*
X255312Y5730D01*
X255232Y5802D01*
X255145Y5868D01*
X255050Y5934D01*
X255035Y5941D01*
X254999Y5956D01*
X254948Y5985D01*
X254868Y6014D01*
X254780Y6043D01*
X254678Y6072D01*
X254569Y6087D01*
X254452Y6094D01*
D02*
G37*
G36*
X258892Y6721D02*
X258833D01*
X258702Y6714D01*
X258585Y6692D01*
X258483Y6663D01*
X258388Y6626D01*
X258316Y6590D01*
X258257Y6561D01*
X258228Y6539D01*
X258214Y6532D01*
X258119Y6459D01*
X258031Y6371D01*
X257958Y6284D01*
X257900Y6203D01*
X257856Y6123D01*
X257820Y6065D01*
X257798Y6021D01*
X257791Y6014D01*
Y6007D01*
X257740Y5875D01*
X257703Y5744D01*
X257674Y5613D01*
X257660Y5489D01*
X257645Y5387D01*
X257638Y5300D01*
Y5270D01*
Y5248D01*
Y5234D01*
Y5227D01*
X257645Y5066D01*
X257660Y4913D01*
X257689Y4775D01*
X257711Y4658D01*
X257740Y4563D01*
X257769Y4490D01*
X257776Y4468D01*
X257783Y4447D01*
X257791Y4439D01*
Y4432D01*
X257849Y4315D01*
X257922Y4206D01*
X257995Y4118D01*
X258061Y4046D01*
X258119Y3987D01*
X258170Y3943D01*
X258199Y3914D01*
X258214Y3907D01*
X258316Y3849D01*
X258418Y3805D01*
X258527Y3768D01*
X258622Y3747D01*
X258709Y3732D01*
X258775Y3725D01*
X258833D01*
X258957Y3732D01*
X259074Y3754D01*
X259176Y3783D01*
X259271Y3820D01*
X259344Y3849D01*
X259395Y3878D01*
X259431Y3900D01*
X259446Y3907D01*
X259540Y3987D01*
X259628Y4067D01*
X259701Y4155D01*
X259759Y4242D01*
X259803Y4315D01*
X259839Y4374D01*
X259861Y4417D01*
X259868Y4432D01*
X259919Y4563D01*
X259956Y4702D01*
X259985Y4833D01*
X260000Y4957D01*
X260014Y5066D01*
Y5110D01*
X260021Y5154D01*
Y5183D01*
Y5205D01*
Y5219D01*
Y5227D01*
X260014Y5387D01*
X260000Y5533D01*
X259970Y5671D01*
X259941Y5781D01*
X259919Y5875D01*
X259890Y5948D01*
X259876Y5992D01*
X259868Y5999D01*
Y6007D01*
X259803Y6131D01*
X259737Y6233D01*
X259664Y6320D01*
X259599Y6400D01*
X259540Y6459D01*
X259489Y6495D01*
X259460Y6524D01*
X259446Y6532D01*
X259344Y6597D01*
X259234Y6641D01*
X259132Y6677D01*
X259037Y6699D01*
X258957Y6714D01*
X258892Y6721D01*
D02*
G37*
G36*
X270264Y6532D02*
Y4184D01*
X272021D01*
X270264Y6532D01*
D02*
G37*
%LPD*%
D11*
X233937Y102664D02*
X238717D01*
Y101164D02*
Y102664D01*
X237217Y99664D02*
X238717Y101164D01*
X237217Y99664D02*
X238717Y98164D01*
Y97664D02*
Y98164D01*
X230261Y96868D02*
X232560Y96898D01*
X225117Y96864D02*
Y102664D01*
X228917D01*
X238717Y96864D02*
Y97664D01*
X241670Y17970D02*
Y22750D01*
X240170Y17970D02*
X241670D01*
X238670Y19470D02*
X240170Y17970D01*
X237170D02*
X238670Y19470D01*
X236670Y17970D02*
X237170D01*
X235874Y26426D02*
X235904Y24127D01*
X235870Y31570D02*
X241670D01*
Y27770D02*
Y31570D01*
X235870Y17970D02*
X236670D01*
X203460Y29360D02*
X208240D01*
X203460D02*
Y30860D01*
X204960Y32360D01*
X203460Y33860D02*
X204960Y32360D01*
X203460Y33860D02*
Y34360D01*
X209617Y35126D02*
X211916Y35156D01*
X217060Y29360D02*
Y35160D01*
X213260Y29360D02*
X217060D01*
X203460Y34360D02*
Y35160D01*
X223940Y115820D02*
Y116620D01*
X210340Y121620D02*
X214140D01*
X210340Y115820D02*
Y121620D01*
X215484Y115824D02*
X217783Y115854D01*
X223940Y116620D02*
Y117120D01*
X222440Y118620D02*
X223940Y117120D01*
X222440Y118620D02*
X223940Y120120D01*
Y121620D01*
X219160D02*
X223940D01*
X68248Y92004D02*
Y94288D01*
Y92004D02*
X71792D01*
X68248Y97792D02*
Y100075D01*
X71792D01*
X64375Y13421D02*
X65162D01*
X75399D02*
X76187D01*
Y17871D01*
X64375Y25233D02*
X65162D01*
X64375Y21060D02*
Y25233D01*
Y13421D02*
Y17792D01*
X76187Y20823D02*
Y25233D01*
X75399D02*
X76187D01*
X95628Y81264D02*
X95667Y72288D01*
X95667Y66461D02*
X116139D01*
X116139Y72485D02*
Y81067D01*
X95667Y86933D02*
X116139D01*
X275825Y132431D02*
X286849D01*
X275825Y121013D02*
X286849D01*
X275825Y128647D02*
X275826Y124867D01*
X50947Y84803D02*
Y103429D01*
X44047Y93929D02*
X50047D01*
X44047Y96929D02*
X47047Y93929D01*
X44047Y96929D02*
X50047D01*
X47047Y93929D02*
X50047Y96929D01*
X47047Y91417D02*
Y93929D01*
Y96929D02*
Y99646D01*
X43147Y84803D02*
Y103465D01*
Y84803D02*
X50947D01*
X288940Y111204D02*
Y120652D01*
X277128Y111204D02*
X288940D01*
X277128D02*
Y120652D01*
X288940D01*
X247548Y110935D02*
X251092D01*
X247548Y108652D02*
Y110935D01*
Y102864D02*
X251092D01*
X247548D02*
Y105148D01*
D15*
X23957Y59764D02*
G03*
X23957Y59764I-394J0D01*
G01*
X124802Y10317D02*
X126790Y12305D01*
X124802Y10317D02*
X126751Y8368D01*
X119661Y8355D02*
X119667Y12258D01*
X124224Y8356D02*
X124229Y12259D01*
X126751Y8368D02*
X126790Y12305D01*
X236466Y155438D02*
X243655D01*
X236466Y148351D02*
X243655D01*
D16*
X250986Y151894D02*
G03*
X250986Y151894I-492J0D01*
G01*
D19*
X262818Y102879D02*
G03*
X262818Y102879I-295J0D01*
G01*
D20*
X263704Y112131D02*
X269216D01*
X263704Y103469D02*
X269216D01*
X65162Y25233D02*
X65279Y25232D01*
X65258Y24807D02*
X65279Y25232D01*
X64375Y23700D02*
X65258Y24807D01*
X64375Y24190D02*
X64769Y25233D01*
X64375Y24190D02*
X65162Y25233D01*
X91527Y10898D02*
X92052Y11422D01*
X93102D01*
X93626Y10898D01*
Y8799D01*
X93102Y8274D01*
X92052D01*
X91527Y8799D01*
Y9848D01*
X92577D01*
X103686Y11902D02*
X101587D01*
X102637D01*
Y8754D01*
X113666Y8554D02*
Y11702D01*
X112092D01*
X111567Y11178D01*
Y10128D01*
X112092Y9603D01*
X113666D01*
X112617D02*
X111567Y8554D01*
D21*
X13937Y90827D02*
X22205D01*
X13937Y96181D02*
X22205D01*
X278189Y49764D02*
X286457D01*
X278189Y44409D02*
X286457D01*
X57685Y64549D02*
X65953D01*
X57685Y69904D02*
X65953D01*
X73228Y62244D02*
X81496D01*
X73228Y56890D02*
X81496D01*
X61205Y49385D02*
Y57652D01*
X66559Y49385D02*
Y57652D01*
X88189Y61142D02*
X96457D01*
X88189Y66496D02*
X96457D01*
X50709Y105315D02*
X58976D01*
X50709Y110669D02*
X58976D01*
X50157Y106457D02*
Y114724D01*
X44803Y106457D02*
Y114724D01*
X78937Y42323D02*
X87205D01*
X78937Y36968D02*
X87205D01*
X45006Y47823D02*
X53274D01*
X45006Y53177D02*
X53274D01*
X162928Y101043D02*
Y109311D01*
X157573Y101043D02*
Y109311D01*
X175877Y98300D02*
X184145D01*
X175877Y92946D02*
X184145D01*
X269173Y64534D02*
Y72802D01*
X263819Y64534D02*
Y72802D01*
X261968Y125709D02*
Y133976D01*
X256614Y125709D02*
Y133976D01*
X166834Y60993D02*
Y69261D01*
X172188Y60993D02*
Y69261D01*
X206597Y43313D02*
Y51581D01*
D23*
X288184Y133871D02*
G03*
X288184Y133871I-479J0D01*
G01*
X125463Y10211D02*
X126189Y10295D01*
X126181Y11203D02*
X126189Y10295D01*
X126181Y11203D02*
X126196Y9386D01*
D134*
X119776Y89256D02*
G03*
X119776Y89256I-1078J0D01*
G01*
X28071Y56673D02*
X29331D01*
X28071Y50098D02*
X29331Y50098D01*
X21850Y56673D02*
X23110D01*
X21850Y50098D02*
X23110D01*
M02*
