G04*
G04 #@! TF.GenerationSoftware,Altium Limited,Altium Designer,22.2.1 (43)*
G04*
G04 Layer_Color=255*
%FSLAX25Y25*%
%MOIN*%
G70*
G04*
G04 #@! TF.SameCoordinates,78EA78F8-FF88-446E-916A-2EA80F8DE5DB*
G04*
G04*
G04 #@! TF.FilePolarity,Positive*
G04*
G01*
G75*
%ADD25C,0.01063*%
%ADD26R,0.02362X0.01969*%
G04:AMPARAMS|DCode=27|XSize=23.62mil|YSize=19.68mil|CornerRadius=3.94mil|HoleSize=0mil|Usage=FLASHONLY|Rotation=90.000|XOffset=0mil|YOffset=0mil|HoleType=Round|Shape=RoundedRectangle|*
%AMROUNDEDRECTD27*
21,1,0.02362,0.01181,0,0,90.0*
21,1,0.01575,0.01968,0,0,90.0*
1,1,0.00787,0.00591,0.00787*
1,1,0.00787,0.00591,-0.00787*
1,1,0.00787,-0.00591,-0.00787*
1,1,0.00787,-0.00591,0.00787*
%
%ADD27ROUNDEDRECTD27*%
%ADD28O,0.03347X0.00787*%
%ADD29O,0.00787X0.03347*%
%ADD30R,0.01969X0.04724*%
%ADD31R,0.05118X0.00984*%
%ADD32R,0.01969X0.02362*%
%ADD33R,0.02559X0.01181*%
G04:AMPARAMS|DCode=34|XSize=23.62mil|YSize=19.68mil|CornerRadius=3.94mil|HoleSize=0mil|Usage=FLASHONLY|Rotation=180.000|XOffset=0mil|YOffset=0mil|HoleType=Round|Shape=RoundedRectangle|*
%AMROUNDEDRECTD34*
21,1,0.02362,0.01181,0,0,180.0*
21,1,0.01575,0.01968,0,0,180.0*
1,1,0.00787,-0.00787,0.00591*
1,1,0.00787,0.00787,0.00591*
1,1,0.00787,0.00787,-0.00591*
1,1,0.00787,-0.00787,-0.00591*
%
%ADD34ROUNDEDRECTD34*%
%ADD35R,0.02756X0.01968*%
%ADD36R,0.03150X0.05512*%
%ADD37R,0.03150X0.04921*%
%ADD38R,0.05512X0.03150*%
%ADD39R,0.04921X0.03150*%
%ADD40R,0.01063X0.01181*%
%ADD41R,0.04724X0.01969*%
%ADD42C,0.00984*%
%ADD43O,0.06299X0.09449*%
%ADD44C,0.03000*%
%ADD45C,0.02362*%
G04:AMPARAMS|DCode=46|XSize=47.24mil|YSize=19.69mil|CornerRadius=9.85mil|HoleSize=0mil|Usage=FLASHONLY|Rotation=0.000|XOffset=0mil|YOffset=0mil|HoleType=Round|Shape=RoundedRectangle|*
%AMROUNDEDRECTD46*
21,1,0.04724,0.00000,0,0,0.0*
21,1,0.02755,0.01969,0,0,0.0*
1,1,0.01969,0.01378,0.00000*
1,1,0.01969,-0.01378,0.00000*
1,1,0.01969,-0.01378,0.00000*
1,1,0.01969,0.01378,0.00000*
%
%ADD46ROUNDEDRECTD46*%
%ADD47C,0.01575*%
%ADD48O,0.00787X0.03150*%
%ADD49R,0.13386X0.13386*%
%ADD50P,0.00108X8X22.5*%
%ADD51O,0.03150X0.00787*%
%ADD52R,0.07874X0.03346*%
%ADD53R,0.02559X0.02756*%
%ADD54R,0.05512X0.04724*%
%ADD55R,0.01968X0.02362*%
%ADD56R,0.13780X0.13780*%
%ADD57R,0.02953X0.03150*%
%ADD58R,0.01968X0.02559*%
%ADD59R,0.01181X0.01063*%
%ADD60R,0.02402X0.02008*%
%ADD61R,0.05512X0.02953*%
G04:AMPARAMS|DCode=62|XSize=11.81mil|YSize=39.37mil|CornerRadius=2.95mil|HoleSize=0mil|Usage=FLASHONLY|Rotation=90.000|XOffset=0mil|YOffset=0mil|HoleType=Round|Shape=RoundedRectangle|*
%AMROUNDEDRECTD62*
21,1,0.01181,0.03347,0,0,90.0*
21,1,0.00591,0.03937,0,0,90.0*
1,1,0.00591,0.01673,0.00295*
1,1,0.00591,0.01673,-0.00295*
1,1,0.00591,-0.01673,-0.00295*
1,1,0.00591,-0.01673,0.00295*
%
%ADD62ROUNDEDRECTD62*%
%ADD63R,0.03937X0.07087*%
%ADD64R,0.04528X0.01181*%
%ADD65R,0.03150X0.01181*%
G04:AMPARAMS|DCode=68|XSize=23.62mil|YSize=19.68mil|CornerRadius=3.94mil|HoleSize=0mil|Usage=FLASHONLY|Rotation=45.000|XOffset=0mil|YOffset=0mil|HoleType=Round|Shape=RoundedRectangle|*
%AMROUNDEDRECTD68*
21,1,0.02362,0.01181,0,0,45.0*
21,1,0.01575,0.01968,0,0,45.0*
1,1,0.00787,0.00974,0.00139*
1,1,0.00787,-0.00139,-0.00974*
1,1,0.00787,-0.00974,-0.00139*
1,1,0.00787,0.00139,0.00974*
%
%ADD68ROUNDEDRECTD68*%
G04:AMPARAMS|DCode=69|XSize=35.43mil|YSize=23.62mil|CornerRadius=4.72mil|HoleSize=0mil|Usage=FLASHONLY|Rotation=270.000|XOffset=0mil|YOffset=0mil|HoleType=Round|Shape=RoundedRectangle|*
%AMROUNDEDRECTD69*
21,1,0.03543,0.01417,0,0,270.0*
21,1,0.02598,0.02362,0,0,270.0*
1,1,0.00945,-0.00709,-0.01299*
1,1,0.00945,-0.00709,0.01299*
1,1,0.00945,0.00709,0.01299*
1,1,0.00945,0.00709,-0.01299*
%
%ADD69ROUNDEDRECTD69*%
%ADD70R,0.02362X0.01968*%
%ADD71R,0.03346X0.07874*%
G04:AMPARAMS|DCode=72|XSize=35.43mil|YSize=23.62mil|CornerRadius=4.72mil|HoleSize=0mil|Usage=FLASHONLY|Rotation=180.000|XOffset=0mil|YOffset=0mil|HoleType=Round|Shape=RoundedRectangle|*
%AMROUNDEDRECTD72*
21,1,0.03543,0.01417,0,0,180.0*
21,1,0.02598,0.02362,0,0,180.0*
1,1,0.00945,-0.01299,0.00709*
1,1,0.00945,0.01299,0.00709*
1,1,0.00945,0.01299,-0.00709*
1,1,0.00945,-0.01299,-0.00709*
%
%ADD72ROUNDEDRECTD72*%
%ADD73R,0.07087X0.03937*%
%ADD74R,0.03150X0.02362*%
G04:AMPARAMS|DCode=132|XSize=15mil|YSize=15mil|CornerRadius=3.75mil|HoleSize=0mil|Usage=FLASHONLY|Rotation=180.000|XOffset=0mil|YOffset=0mil|HoleType=Round|Shape=RoundedRectangle|*
%AMROUNDEDRECTD132*
21,1,0.01500,0.00750,0,0,180.0*
21,1,0.00750,0.01500,0,0,180.0*
1,1,0.00750,-0.00375,0.00375*
1,1,0.00750,0.00375,0.00375*
1,1,0.00750,0.00375,-0.00375*
1,1,0.00750,-0.00375,-0.00375*
%
%ADD132ROUNDEDRECTD132*%
G04:AMPARAMS|DCode=133|XSize=15mil|YSize=15mil|CornerRadius=3.75mil|HoleSize=0mil|Usage=FLASHONLY|Rotation=90.000|XOffset=0mil|YOffset=0mil|HoleType=Round|Shape=RoundedRectangle|*
%AMROUNDEDRECTD133*
21,1,0.01500,0.00750,0,0,90.0*
21,1,0.00750,0.01500,0,0,90.0*
1,1,0.00750,0.00375,0.00375*
1,1,0.00750,0.00375,-0.00375*
1,1,0.00750,-0.00375,-0.00375*
1,1,0.00750,-0.00375,0.00375*
%
%ADD133ROUNDEDRECTD133*%
%ADD146C,0.17717*%
D25*
X146916Y83035D02*
D03*
Y81067D02*
D03*
Y79098D02*
D03*
Y77130D02*
D03*
Y75161D02*
D03*
Y73193D02*
D03*
Y45633D02*
D03*
Y43665D02*
D03*
Y41696D02*
D03*
Y39728D02*
D03*
Y37759D02*
D03*
Y35791D02*
D03*
X148886Y85004D02*
D03*
Y83035D02*
D03*
Y69256D02*
D03*
Y67287D02*
D03*
Y65319D02*
D03*
Y63350D02*
D03*
Y61382D02*
D03*
Y59413D02*
D03*
Y57444D02*
D03*
Y55476D02*
D03*
Y53507D02*
D03*
Y51539D02*
D03*
Y37759D02*
D03*
Y33822D02*
D03*
X150854Y85004D02*
D03*
Y83035D02*
D03*
Y81067D02*
D03*
Y79098D02*
D03*
Y77130D02*
D03*
Y75161D02*
D03*
Y69256D02*
D03*
Y67287D02*
D03*
Y65319D02*
D03*
Y63350D02*
D03*
Y61382D02*
D03*
Y59413D02*
D03*
Y57444D02*
D03*
Y55476D02*
D03*
Y53507D02*
D03*
Y51539D02*
D03*
Y45633D02*
D03*
Y43665D02*
D03*
Y41696D02*
D03*
Y39728D02*
D03*
Y37759D02*
D03*
Y35791D02*
D03*
Y33822D02*
D03*
X152822Y79098D02*
D03*
Y69256D02*
D03*
Y67287D02*
D03*
Y53507D02*
D03*
Y51539D02*
D03*
Y35791D02*
D03*
X154790Y85004D02*
D03*
Y83035D02*
D03*
Y79098D02*
D03*
Y77130D02*
D03*
Y75161D02*
D03*
Y69256D02*
D03*
Y67287D02*
D03*
Y63350D02*
D03*
Y61382D02*
D03*
Y59413D02*
D03*
Y57444D02*
D03*
Y53507D02*
D03*
Y51539D02*
D03*
Y47602D02*
D03*
Y45633D02*
D03*
Y43665D02*
D03*
Y41696D02*
D03*
Y39728D02*
D03*
Y37759D02*
D03*
Y35791D02*
D03*
X156760Y85004D02*
D03*
Y83035D02*
D03*
Y69256D02*
D03*
Y63350D02*
D03*
Y61382D02*
D03*
Y59413D02*
D03*
Y57444D02*
D03*
Y53507D02*
D03*
Y51539D02*
D03*
Y35791D02*
D03*
Y33822D02*
D03*
X158729Y83035D02*
D03*
Y81067D02*
D03*
Y79098D02*
D03*
Y77130D02*
D03*
Y75161D02*
D03*
Y69256D02*
D03*
Y67287D02*
D03*
Y65319D02*
D03*
Y63350D02*
D03*
Y61382D02*
D03*
Y59413D02*
D03*
Y57444D02*
D03*
Y53507D02*
D03*
Y47602D02*
D03*
Y45633D02*
D03*
Y43665D02*
D03*
Y41696D02*
D03*
Y39728D02*
D03*
Y37759D02*
D03*
Y35791D02*
D03*
Y33822D02*
D03*
X160696Y85004D02*
D03*
Y83035D02*
D03*
Y69256D02*
D03*
Y67287D02*
D03*
Y65319D02*
D03*
Y53507D02*
D03*
Y51539D02*
D03*
Y35791D02*
D03*
X162665Y85004D02*
D03*
Y83035D02*
D03*
Y81067D02*
D03*
Y79098D02*
D03*
Y77130D02*
D03*
Y75161D02*
D03*
Y69256D02*
D03*
Y67287D02*
D03*
Y65319D02*
D03*
Y63350D02*
D03*
Y61382D02*
D03*
Y59413D02*
D03*
Y57444D02*
D03*
Y55476D02*
D03*
Y53507D02*
D03*
Y51539D02*
D03*
Y45633D02*
D03*
Y43665D02*
D03*
Y41696D02*
D03*
Y39728D02*
D03*
Y37759D02*
D03*
Y35791D02*
D03*
Y33822D02*
D03*
X164634Y83035D02*
D03*
Y69256D02*
D03*
Y67287D02*
D03*
Y65319D02*
D03*
Y63350D02*
D03*
Y61382D02*
D03*
Y59413D02*
D03*
Y57444D02*
D03*
Y55476D02*
D03*
Y53507D02*
D03*
Y51539D02*
D03*
Y37759D02*
D03*
Y33822D02*
D03*
X166603Y85004D02*
D03*
Y83035D02*
D03*
Y81067D02*
D03*
Y79098D02*
D03*
Y77130D02*
D03*
Y75161D02*
D03*
Y45633D02*
D03*
Y43665D02*
D03*
Y41696D02*
D03*
Y39728D02*
D03*
Y37759D02*
D03*
Y35791D02*
D03*
X168570Y85004D02*
D03*
Y83035D02*
D03*
Y57444D02*
D03*
Y53507D02*
D03*
Y49570D02*
D03*
Y35791D02*
D03*
Y33822D02*
D03*
X170539Y83035D02*
D03*
Y81067D02*
D03*
Y79098D02*
D03*
Y77130D02*
D03*
Y61382D02*
D03*
Y57444D02*
D03*
Y49570D02*
D03*
Y45633D02*
D03*
Y43665D02*
D03*
Y41696D02*
D03*
Y39728D02*
D03*
Y37759D02*
D03*
Y35791D02*
D03*
Y33822D02*
D03*
X172508Y85004D02*
D03*
Y83035D02*
D03*
Y73193D02*
D03*
Y69256D02*
D03*
Y65319D02*
D03*
Y61382D02*
D03*
Y57444D02*
D03*
Y53507D02*
D03*
Y49570D02*
D03*
Y47602D02*
D03*
Y37759D02*
D03*
X174477Y85004D02*
D03*
Y83035D02*
D03*
Y81067D02*
D03*
Y79098D02*
D03*
Y77130D02*
D03*
Y73193D02*
D03*
Y69256D02*
D03*
Y65319D02*
D03*
Y61382D02*
D03*
Y57444D02*
D03*
Y49570D02*
D03*
Y45633D02*
D03*
Y41696D02*
D03*
Y39728D02*
D03*
Y37759D02*
D03*
Y35791D02*
D03*
Y33822D02*
D03*
X176444Y83035D02*
D03*
Y81067D02*
D03*
Y79098D02*
D03*
Y75161D02*
D03*
Y73193D02*
D03*
Y69256D02*
D03*
Y65319D02*
D03*
Y61382D02*
D03*
Y53507D02*
D03*
Y49570D02*
D03*
Y45633D02*
D03*
Y41696D02*
D03*
Y35791D02*
D03*
Y33822D02*
D03*
X178413Y85004D02*
D03*
Y83035D02*
D03*
Y77130D02*
D03*
Y73193D02*
D03*
Y69256D02*
D03*
Y67287D02*
D03*
Y65319D02*
D03*
Y61382D02*
D03*
Y57444D02*
D03*
Y53507D02*
D03*
Y49570D02*
D03*
Y45633D02*
D03*
Y41696D02*
D03*
Y37759D02*
D03*
Y35791D02*
D03*
X180382Y85004D02*
D03*
Y83035D02*
D03*
Y81067D02*
D03*
Y79098D02*
D03*
Y77130D02*
D03*
Y73193D02*
D03*
Y71224D02*
D03*
Y67287D02*
D03*
Y65319D02*
D03*
Y63350D02*
D03*
Y61382D02*
D03*
Y57444D02*
D03*
Y55476D02*
D03*
Y53507D02*
D03*
Y51539D02*
D03*
Y49570D02*
D03*
Y47602D02*
D03*
Y45633D02*
D03*
Y43665D02*
D03*
Y41696D02*
D03*
Y39728D02*
D03*
Y37759D02*
D03*
Y35791D02*
D03*
Y33822D02*
D03*
X182351Y85004D02*
D03*
Y83035D02*
D03*
Y79098D02*
D03*
Y77130D02*
D03*
Y73193D02*
D03*
Y71224D02*
D03*
Y67287D02*
D03*
Y65319D02*
D03*
Y61382D02*
D03*
Y57444D02*
D03*
Y53507D02*
D03*
Y51539D02*
D03*
Y47602D02*
D03*
Y45633D02*
D03*
Y41696D02*
D03*
Y39728D02*
D03*
Y35791D02*
D03*
Y33822D02*
D03*
X131168Y85004D02*
D03*
Y83035D02*
D03*
Y81067D02*
D03*
Y75161D02*
D03*
Y71224D02*
D03*
Y69256D02*
D03*
Y65319D02*
D03*
Y63350D02*
D03*
Y59413D02*
D03*
Y55476D02*
D03*
Y51539D02*
D03*
Y49570D02*
D03*
Y45633D02*
D03*
Y43665D02*
D03*
Y39728D02*
D03*
Y37759D02*
D03*
Y33822D02*
D03*
X133138Y85004D02*
D03*
Y83035D02*
D03*
Y81067D02*
D03*
Y79098D02*
D03*
Y77130D02*
D03*
Y75161D02*
D03*
Y73193D02*
D03*
Y71224D02*
D03*
Y69256D02*
D03*
Y65319D02*
D03*
Y63350D02*
D03*
Y61382D02*
D03*
Y59413D02*
D03*
Y57444D02*
D03*
Y55476D02*
D03*
Y53507D02*
D03*
Y51539D02*
D03*
Y49570D02*
D03*
Y47602D02*
D03*
Y45633D02*
D03*
Y43665D02*
D03*
Y41696D02*
D03*
Y39728D02*
D03*
Y37759D02*
D03*
Y35791D02*
D03*
Y33822D02*
D03*
X135106Y83035D02*
D03*
Y81067D02*
D03*
Y77130D02*
D03*
Y73193D02*
D03*
Y69256D02*
D03*
Y67287D02*
D03*
Y65319D02*
D03*
Y61382D02*
D03*
Y57444D02*
D03*
Y53507D02*
D03*
Y49570D02*
D03*
Y41696D02*
D03*
Y37759D02*
D03*
Y35791D02*
D03*
X137074Y77130D02*
D03*
Y73193D02*
D03*
Y69256D02*
D03*
Y65319D02*
D03*
Y61382D02*
D03*
Y57444D02*
D03*
Y53507D02*
D03*
Y49570D02*
D03*
Y45633D02*
D03*
Y41696D02*
D03*
Y35791D02*
D03*
Y33822D02*
D03*
X139042Y83035D02*
D03*
Y81067D02*
D03*
Y77130D02*
D03*
Y73193D02*
D03*
Y69256D02*
D03*
Y65319D02*
D03*
Y61382D02*
D03*
Y57444D02*
D03*
Y53507D02*
D03*
Y49570D02*
D03*
Y45633D02*
D03*
Y41696D02*
D03*
Y39728D02*
D03*
Y37759D02*
D03*
Y35791D02*
D03*
Y33822D02*
D03*
X141012Y83035D02*
D03*
Y73193D02*
D03*
Y69256D02*
D03*
Y65319D02*
D03*
Y61382D02*
D03*
Y57444D02*
D03*
Y49570D02*
D03*
Y45633D02*
D03*
Y35791D02*
D03*
X142980Y83035D02*
D03*
Y81067D02*
D03*
Y79098D02*
D03*
Y77130D02*
D03*
Y75161D02*
D03*
Y73193D02*
D03*
Y69256D02*
D03*
Y65319D02*
D03*
Y61382D02*
D03*
Y57444D02*
D03*
Y53507D02*
D03*
Y49570D02*
D03*
Y43665D02*
D03*
Y41696D02*
D03*
Y39728D02*
D03*
Y37759D02*
D03*
Y35791D02*
D03*
Y33822D02*
D03*
X144948Y85004D02*
D03*
Y61382D02*
D03*
Y59413D02*
D03*
Y57444D02*
D03*
Y53507D02*
D03*
Y49570D02*
D03*
Y35791D02*
D03*
Y33822D02*
D03*
D26*
X268431Y117819D02*
D03*
X273549Y115850D02*
D03*
X268431Y113881D02*
D03*
D27*
X291311Y15124D02*
D03*
X57051Y109520D02*
D03*
Y105720D02*
D03*
X60988D02*
D03*
Y109520D02*
D03*
X244488Y57953D02*
D03*
X93189Y15118D02*
D03*
X89252D02*
D03*
X297992Y130787D02*
D03*
X294055D02*
D03*
X240551Y57953D02*
D03*
X255630Y65709D02*
D03*
X259567D02*
D03*
X255648Y70157D02*
D03*
X259585D02*
D03*
X91496Y38541D02*
D03*
X87559D02*
D03*
X50787Y47047D02*
D03*
X46850D02*
D03*
X52135Y59945D02*
D03*
X48199D02*
D03*
X96059Y80297D02*
D03*
X92122D02*
D03*
X222087Y62874D02*
D03*
X218150D02*
D03*
X227244Y105827D02*
D03*
X231181D02*
D03*
X250512Y106299D02*
D03*
X246575D02*
D03*
X51575Y65706D02*
D03*
X47638D02*
D03*
X110565Y54797D02*
D03*
X114502D02*
D03*
X114568Y50997D02*
D03*
X110631D02*
D03*
X118835Y49197D02*
D03*
X122772D02*
D03*
Y52097D02*
D03*
X118835D02*
D03*
X118865Y45297D02*
D03*
X122802D02*
D03*
X114502Y58096D02*
D03*
X110565D02*
D03*
X119459Y65697D02*
D03*
X115522D02*
D03*
X123742Y57497D02*
D03*
X119805D02*
D03*
X158193Y17455D02*
D03*
X162130D02*
D03*
X162150Y20241D02*
D03*
X158213D02*
D03*
X280075Y15124D02*
D03*
X276138D02*
D03*
X274628Y38447D02*
D03*
X278565D02*
D03*
X271618Y43487D02*
D03*
X275555D02*
D03*
X276537Y47165D02*
D03*
X272600D02*
D03*
X287374Y15124D02*
D03*
X285535Y38377D02*
D03*
X281598D02*
D03*
X278150Y41575D02*
D03*
X282087D02*
D03*
D28*
X250700Y122060D02*
D03*
X231802Y126784D02*
D03*
X250700Y112611D02*
D03*
Y114186D02*
D03*
Y115760D02*
D03*
Y117335D02*
D03*
Y118910D02*
D03*
Y120485D02*
D03*
Y123634D02*
D03*
Y125209D02*
D03*
Y126784D02*
D03*
X231802Y125209D02*
D03*
Y123634D02*
D03*
Y122060D02*
D03*
Y120485D02*
D03*
Y118910D02*
D03*
Y117335D02*
D03*
Y115760D02*
D03*
Y114186D02*
D03*
Y112611D02*
D03*
D29*
X245188Y129146D02*
D03*
X246763D02*
D03*
X242039Y110248D02*
D03*
X240464D02*
D03*
X234165D02*
D03*
X235739D02*
D03*
X237314D02*
D03*
X238889D02*
D03*
X243614D02*
D03*
X245188D02*
D03*
X246763D02*
D03*
X248338D02*
D03*
Y129146D02*
D03*
X243614D02*
D03*
X242039D02*
D03*
X240464D02*
D03*
X238889D02*
D03*
X237314D02*
D03*
X235739D02*
D03*
X234165D02*
D03*
D30*
X258167Y6479D02*
D03*
X254624D02*
D03*
X226277Y52149D02*
D03*
X233364D02*
D03*
Y6479D02*
D03*
X226277D02*
D03*
X229821Y52149D02*
D03*
Y6479D02*
D03*
X236907D02*
D03*
X240451D02*
D03*
X243994D02*
D03*
X251081D02*
D03*
X258167Y52149D02*
D03*
X261711D02*
D03*
Y6479D02*
D03*
X251081Y52149D02*
D03*
X254624D02*
D03*
X236907D02*
D03*
X240451D02*
D03*
X247537D02*
D03*
X243994D02*
D03*
D31*
X16339Y85770D02*
D03*
X32087Y105456D02*
D03*
X16339Y105456D02*
D03*
X32087Y107424D02*
D03*
X16339Y107424D02*
D03*
Y77896D02*
D03*
Y73959D02*
D03*
Y70022D02*
D03*
Y66085D02*
D03*
X32087Y50337D02*
D03*
X16339Y81833D02*
D03*
Y83802D02*
D03*
Y79865D02*
D03*
Y75928D02*
D03*
Y71991D02*
D03*
Y68054D02*
D03*
X32087Y85770D02*
D03*
Y81833D02*
D03*
Y77896D02*
D03*
Y73959D02*
D03*
Y83802D02*
D03*
Y79865D02*
D03*
Y75928D02*
D03*
Y71991D02*
D03*
Y70022D02*
D03*
Y68054D02*
D03*
Y66085D02*
D03*
Y60180D02*
D03*
Y56243D02*
D03*
X16339Y50337D02*
D03*
Y56243D02*
D03*
Y58211D02*
D03*
Y87739D02*
D03*
X32087Y87739D02*
D03*
X16339Y97582D02*
D03*
Y93644D02*
D03*
Y89707D02*
D03*
Y101519D02*
D03*
Y103487D02*
D03*
Y99550D02*
D03*
Y95613D02*
D03*
Y91676D02*
D03*
X32087Y101518D02*
D03*
Y97581D02*
D03*
Y93644D02*
D03*
Y103487D02*
D03*
Y99550D02*
D03*
Y95613D02*
D03*
Y91676D02*
D03*
Y89707D02*
D03*
Y54274D02*
D03*
Y52306D02*
D03*
X16339Y54274D02*
D03*
Y52306D02*
D03*
X32087Y58211D02*
D03*
Y64117D02*
D03*
Y62148D02*
D03*
X16339Y64117D02*
D03*
Y62148D02*
D03*
Y60180D02*
D03*
D32*
X59011Y118744D02*
D03*
X57042Y113626D02*
D03*
X60980D02*
D03*
D33*
X281929Y101738D02*
D03*
X281931Y56856D02*
D03*
Y61580D02*
D03*
Y59218D02*
D03*
Y68667D02*
D03*
Y66305D02*
D03*
Y75754D02*
D03*
Y73391D02*
D03*
Y78116D02*
D03*
Y80478D02*
D03*
Y85203D02*
D03*
Y82840D02*
D03*
Y92289D02*
D03*
Y89927D02*
D03*
Y71029D02*
D03*
Y63942D02*
D03*
Y87565D02*
D03*
X281929Y97014D02*
D03*
Y99376D02*
D03*
Y94652D02*
D03*
D34*
X7260Y88072D02*
D03*
X214961Y21752D02*
D03*
Y25689D02*
D03*
X45520Y107412D02*
D03*
Y111348D02*
D03*
X49420Y107412D02*
D03*
Y111348D02*
D03*
X41760Y107412D02*
D03*
Y111348D02*
D03*
X43425Y58780D02*
D03*
Y62717D02*
D03*
X103268Y28661D02*
D03*
Y24724D02*
D03*
X7260Y92009D02*
D03*
X171758Y109591D02*
D03*
X38345Y51842D02*
D03*
Y55779D02*
D03*
X67794Y20404D02*
D03*
Y16467D02*
D03*
X92992Y20827D02*
D03*
Y24764D02*
D03*
X104644Y70276D02*
D03*
Y66339D02*
D03*
X43622Y83976D02*
D03*
Y80039D02*
D03*
X267290Y66498D02*
D03*
Y70435D02*
D03*
X269567Y75157D02*
D03*
Y79094D02*
D03*
X274921Y81181D02*
D03*
Y85118D02*
D03*
X94685Y32824D02*
D03*
Y36761D02*
D03*
X264961Y80748D02*
D03*
Y76811D02*
D03*
X80748Y42559D02*
D03*
Y38622D02*
D03*
X84213Y38543D02*
D03*
Y42480D02*
D03*
X85719Y53688D02*
D03*
Y49751D02*
D03*
X84222Y81995D02*
D03*
Y78058D02*
D03*
X171758Y121572D02*
D03*
Y117635D02*
D03*
Y113528D02*
D03*
X223031Y119407D02*
D03*
Y115471D02*
D03*
X171803Y125329D02*
D03*
Y129266D02*
D03*
X254331Y104803D02*
D03*
Y108740D02*
D03*
X236811Y140274D02*
D03*
Y136337D02*
D03*
X103391Y83372D02*
D03*
Y79435D02*
D03*
X106591D02*
D03*
Y83372D02*
D03*
X283565Y11157D02*
D03*
X272574D02*
D03*
D35*
X4835Y84040D02*
D03*
X9165D02*
D03*
D36*
X56721Y15766D02*
D03*
Y28010D02*
D03*
X291339Y34429D02*
D03*
Y46673D02*
D03*
Y110807D02*
D03*
Y123051D02*
D03*
X56721Y131673D02*
D03*
Y143917D02*
D03*
D37*
X56721Y21888D02*
D03*
X291339Y40551D02*
D03*
Y116929D02*
D03*
X56721Y137795D02*
D03*
D38*
X176161Y5118D02*
D03*
X163917D02*
D03*
X140740Y152961D02*
D03*
X128496D02*
D03*
D39*
X170039Y5118D02*
D03*
X134618Y152961D02*
D03*
D40*
X251662Y136020D02*
D03*
X249418D02*
D03*
X227413Y99225D02*
D03*
X225169D02*
D03*
X241595Y134768D02*
D03*
X243839D02*
D03*
X241595Y141455D02*
D03*
X243839D02*
D03*
X225169Y96863D02*
D03*
X227413D02*
D03*
D41*
X266829Y39944D02*
D03*
Y18684D02*
D03*
X221159D02*
D03*
X266829Y11597D02*
D03*
X221159D02*
D03*
Y47031D02*
D03*
Y43487D02*
D03*
Y36401D02*
D03*
Y32857D02*
D03*
Y25771D02*
D03*
Y15141D02*
D03*
X266829Y47031D02*
D03*
Y43487D02*
D03*
Y36401D02*
D03*
Y32857D02*
D03*
Y29314D02*
D03*
Y25771D02*
D03*
D42*
X121709Y116622D02*
D03*
Y120559D02*
D03*
Y126465D02*
D03*
Y130402D02*
D03*
X68559Y116622D02*
D03*
Y120559D02*
D03*
Y130402D02*
D03*
X70528Y112685D02*
D03*
Y134339D02*
D03*
X74465Y136307D02*
D03*
Y110717D02*
D03*
X82339Y136307D02*
D03*
Y110717D02*
D03*
Y112685D02*
D03*
Y114654D02*
D03*
Y116622D02*
D03*
Y118591D02*
D03*
Y120559D02*
D03*
Y122528D02*
D03*
Y124496D02*
D03*
Y126465D02*
D03*
Y128433D02*
D03*
Y130402D02*
D03*
Y132370D02*
D03*
Y134339D02*
D03*
X84307Y110717D02*
D03*
Y112685D02*
D03*
Y114654D02*
D03*
Y116622D02*
D03*
Y118591D02*
D03*
Y120559D02*
D03*
Y122528D02*
D03*
Y124496D02*
D03*
Y126465D02*
D03*
Y128433D02*
D03*
Y130402D02*
D03*
Y132370D02*
D03*
Y134339D02*
D03*
X86276Y136307D02*
D03*
Y110717D02*
D03*
Y112685D02*
D03*
Y114654D02*
D03*
Y116622D02*
D03*
Y118591D02*
D03*
Y120559D02*
D03*
Y122528D02*
D03*
Y124496D02*
D03*
Y126465D02*
D03*
Y128433D02*
D03*
Y130402D02*
D03*
Y132370D02*
D03*
Y134339D02*
D03*
X88244Y136307D02*
D03*
Y110717D02*
D03*
Y112685D02*
D03*
Y114654D02*
D03*
Y132370D02*
D03*
Y134339D02*
D03*
X90213Y136307D02*
D03*
Y110717D02*
D03*
Y112685D02*
D03*
Y114654D02*
D03*
Y118591D02*
D03*
Y120559D02*
D03*
Y122528D02*
D03*
Y124496D02*
D03*
Y126465D02*
D03*
Y128433D02*
D03*
Y132370D02*
D03*
Y134339D02*
D03*
X92181Y136307D02*
D03*
Y110717D02*
D03*
Y112685D02*
D03*
Y114654D02*
D03*
Y118591D02*
D03*
Y128433D02*
D03*
Y134339D02*
D03*
X94150Y136307D02*
D03*
Y110717D02*
D03*
Y112685D02*
D03*
Y114654D02*
D03*
Y118591D02*
D03*
Y128433D02*
D03*
Y132370D02*
D03*
Y134339D02*
D03*
X96118Y136307D02*
D03*
Y110717D02*
D03*
Y112685D02*
D03*
Y114654D02*
D03*
Y118591D02*
D03*
Y128433D02*
D03*
Y132370D02*
D03*
Y134339D02*
D03*
X98087Y136307D02*
D03*
Y110717D02*
D03*
Y112685D02*
D03*
Y114654D02*
D03*
Y118591D02*
D03*
Y128433D02*
D03*
Y132370D02*
D03*
Y134339D02*
D03*
X100055Y136307D02*
D03*
Y110717D02*
D03*
Y112685D02*
D03*
Y114654D02*
D03*
Y118591D02*
D03*
Y120559D02*
D03*
Y122528D02*
D03*
Y124496D02*
D03*
Y126465D02*
D03*
Y128433D02*
D03*
Y132370D02*
D03*
Y134339D02*
D03*
X102024Y110717D02*
D03*
Y112685D02*
D03*
Y114654D02*
D03*
Y132370D02*
D03*
Y134339D02*
D03*
X103992Y136307D02*
D03*
Y110717D02*
D03*
Y112685D02*
D03*
Y114654D02*
D03*
Y116622D02*
D03*
Y118591D02*
D03*
Y120559D02*
D03*
Y122528D02*
D03*
Y126465D02*
D03*
Y130402D02*
D03*
Y132370D02*
D03*
Y134339D02*
D03*
X105961Y110717D02*
D03*
Y112685D02*
D03*
Y114654D02*
D03*
Y116622D02*
D03*
Y118591D02*
D03*
Y120559D02*
D03*
Y122528D02*
D03*
Y124496D02*
D03*
Y126465D02*
D03*
Y128433D02*
D03*
Y130402D02*
D03*
Y132370D02*
D03*
Y134339D02*
D03*
X107929Y136307D02*
D03*
Y110717D02*
D03*
Y112685D02*
D03*
Y114654D02*
D03*
Y116622D02*
D03*
Y118591D02*
D03*
Y120559D02*
D03*
Y122528D02*
D03*
Y126465D02*
D03*
Y128433D02*
D03*
Y130402D02*
D03*
Y132370D02*
D03*
X115803Y136307D02*
D03*
Y110717D02*
D03*
X119740Y112685D02*
D03*
Y134339D02*
D03*
D43*
X220507Y71144D02*
D03*
X230743D02*
D03*
D44*
X96860Y41524D02*
D03*
D45*
X240451Y15141D02*
D03*
X247537D02*
D03*
X254624D02*
D03*
D46*
X266829D02*
D03*
D47*
X161556Y142235D02*
D03*
Y135936D02*
D03*
Y129637D02*
D03*
X158407Y120188D02*
D03*
X161556Y113889D02*
D03*
Y107589D02*
D03*
X158407D02*
D03*
X161556Y104440D02*
D03*
Y98141D02*
D03*
X136360Y142235D02*
D03*
Y135936D02*
D03*
X139509Y120188D02*
D03*
X136360Y129637D02*
D03*
X139509Y113889D02*
D03*
Y107589D02*
D03*
Y104440D02*
D03*
X136360Y113889D02*
D03*
Y110739D02*
D03*
X155257Y98141D02*
D03*
X136360D02*
D03*
Y94991D02*
D03*
X155257Y142235D02*
D03*
Y139085D02*
D03*
Y135936D02*
D03*
Y132786D02*
D03*
Y129637D02*
D03*
Y126487D02*
D03*
Y123337D02*
D03*
Y120188D02*
D03*
Y117038D02*
D03*
Y107589D02*
D03*
Y104440D02*
D03*
Y101290D02*
D03*
Y94991D02*
D03*
X158407Y142235D02*
D03*
Y139085D02*
D03*
Y135936D02*
D03*
Y132786D02*
D03*
Y129637D02*
D03*
Y126487D02*
D03*
Y123337D02*
D03*
Y117038D02*
D03*
Y113889D02*
D03*
Y110739D02*
D03*
Y104440D02*
D03*
Y101290D02*
D03*
Y98141D02*
D03*
Y94991D02*
D03*
X161556Y139085D02*
D03*
Y132786D02*
D03*
Y126487D02*
D03*
Y123337D02*
D03*
Y120188D02*
D03*
Y117038D02*
D03*
Y110739D02*
D03*
Y101290D02*
D03*
Y94991D02*
D03*
X136360Y139085D02*
D03*
Y132786D02*
D03*
Y126487D02*
D03*
Y123337D02*
D03*
Y120188D02*
D03*
Y117038D02*
D03*
Y107589D02*
D03*
Y104440D02*
D03*
Y101290D02*
D03*
X139509Y142235D02*
D03*
Y139085D02*
D03*
Y135936D02*
D03*
Y132786D02*
D03*
Y129637D02*
D03*
Y126487D02*
D03*
Y123337D02*
D03*
Y117038D02*
D03*
Y110739D02*
D03*
Y101290D02*
D03*
Y98141D02*
D03*
Y94991D02*
D03*
X142659Y142235D02*
D03*
Y139085D02*
D03*
Y135936D02*
D03*
Y132786D02*
D03*
Y129637D02*
D03*
Y126487D02*
D03*
Y123337D02*
D03*
Y117038D02*
D03*
Y113889D02*
D03*
Y110739D02*
D03*
Y107589D02*
D03*
Y104440D02*
D03*
Y94991D02*
D03*
Y101290D02*
D03*
Y98141D02*
D03*
X155257Y110739D02*
D03*
Y113889D02*
D03*
X142659Y120188D02*
D03*
X188159D02*
D03*
X200757Y113889D02*
D03*
Y110739D02*
D03*
X188159Y98141D02*
D03*
Y101290D02*
D03*
Y94991D02*
D03*
Y104440D02*
D03*
Y107589D02*
D03*
Y110739D02*
D03*
Y113889D02*
D03*
Y117038D02*
D03*
Y123337D02*
D03*
Y126487D02*
D03*
Y129637D02*
D03*
Y132786D02*
D03*
Y135936D02*
D03*
Y139085D02*
D03*
Y142235D02*
D03*
X185009Y94991D02*
D03*
Y98141D02*
D03*
Y101290D02*
D03*
Y110739D02*
D03*
Y117038D02*
D03*
Y123337D02*
D03*
Y126487D02*
D03*
Y129637D02*
D03*
Y132786D02*
D03*
Y135936D02*
D03*
Y139085D02*
D03*
Y142235D02*
D03*
X181860Y101290D02*
D03*
Y104440D02*
D03*
Y107589D02*
D03*
Y117038D02*
D03*
Y120188D02*
D03*
Y123337D02*
D03*
Y126487D02*
D03*
Y132786D02*
D03*
Y139085D02*
D03*
X207056Y94991D02*
D03*
Y101290D02*
D03*
Y110739D02*
D03*
Y117038D02*
D03*
Y120188D02*
D03*
Y123337D02*
D03*
Y126487D02*
D03*
Y132786D02*
D03*
Y139085D02*
D03*
X203907Y94991D02*
D03*
Y98141D02*
D03*
Y101290D02*
D03*
Y104440D02*
D03*
Y110739D02*
D03*
Y113889D02*
D03*
Y117038D02*
D03*
Y123337D02*
D03*
Y126487D02*
D03*
Y129637D02*
D03*
Y132786D02*
D03*
Y135936D02*
D03*
Y139085D02*
D03*
Y142235D02*
D03*
X200757Y94991D02*
D03*
Y101290D02*
D03*
Y104440D02*
D03*
Y107589D02*
D03*
Y117038D02*
D03*
Y120188D02*
D03*
Y123337D02*
D03*
Y126487D02*
D03*
Y129637D02*
D03*
Y132786D02*
D03*
Y135936D02*
D03*
Y139085D02*
D03*
Y142235D02*
D03*
X181860Y94991D02*
D03*
Y98141D02*
D03*
Y110739D02*
D03*
X200757Y98141D02*
D03*
X185009Y104440D02*
D03*
Y107589D02*
D03*
X203907D02*
D03*
X181860Y113889D02*
D03*
Y129637D02*
D03*
Y135936D02*
D03*
Y142235D02*
D03*
X185009Y113889D02*
D03*
Y120188D02*
D03*
X203907D02*
D03*
X207056Y98141D02*
D03*
Y104440D02*
D03*
Y113889D02*
D03*
Y107589D02*
D03*
Y129637D02*
D03*
Y135936D02*
D03*
Y142235D02*
D03*
D48*
X75034Y71405D02*
D03*
X71885Y51719D02*
D03*
X70310D02*
D03*
X78184D02*
D03*
X76609D02*
D03*
X75034D02*
D03*
X73459D02*
D03*
X68735D02*
D03*
X67160D02*
D03*
X65585D02*
D03*
X64010D02*
D03*
X70309Y71405D02*
D03*
X71884D02*
D03*
X76609D02*
D03*
X78184D02*
D03*
X73459D02*
D03*
X64010D02*
D03*
X65585D02*
D03*
X67160D02*
D03*
X68735D02*
D03*
D49*
X71097Y61562D02*
D03*
D50*
D03*
D51*
X61254Y60774D02*
D03*
Y62349D02*
D03*
Y63924D02*
D03*
Y65499D02*
D03*
Y67074D02*
D03*
Y68649D02*
D03*
Y54475D02*
D03*
Y56050D02*
D03*
Y57625D02*
D03*
Y59200D02*
D03*
X80940Y62349D02*
D03*
Y60774D02*
D03*
Y68649D02*
D03*
Y67074D02*
D03*
Y65499D02*
D03*
Y63924D02*
D03*
Y59200D02*
D03*
Y57625D02*
D03*
Y56050D02*
D03*
Y54475D02*
D03*
D52*
X63050Y79519D02*
D03*
Y86015D02*
D03*
X77850Y85390D02*
D03*
Y78894D02*
D03*
X68540Y37112D02*
D03*
Y43608D02*
D03*
D53*
X8463Y80458D02*
D03*
X5117D02*
D03*
Y75536D02*
D03*
X8463D02*
D03*
D54*
X275987Y26769D02*
D03*
X284649Y33069D02*
D03*
Y26769D02*
D03*
X275987Y33069D02*
D03*
X95372Y49347D02*
D03*
X104034Y55647D02*
D03*
Y49347D02*
D03*
X95372Y55647D02*
D03*
D55*
X219882Y115864D02*
D03*
Y119801D02*
D03*
D56*
X241251Y119697D02*
D03*
D57*
X219980Y111927D02*
D03*
X225295D02*
D03*
D58*
X215945Y115372D02*
D03*
Y111632D02*
D03*
D59*
X244007Y146017D02*
D03*
Y143772D02*
D03*
X224101Y140519D02*
D03*
Y138275D02*
D03*
X244007Y136686D02*
D03*
Y138930D02*
D03*
X234101Y140519D02*
D03*
Y138275D02*
D03*
D60*
X231169Y137697D02*
D03*
X227232D02*
D03*
X231169Y140453D02*
D03*
X227232D02*
D03*
D61*
X231741Y95213D02*
D03*
Y100961D02*
D03*
D62*
X88032Y20630D02*
D03*
Y23189D02*
D03*
Y25748D02*
D03*
Y28307D02*
D03*
X73465Y20629D02*
D03*
Y23189D02*
D03*
Y25748D02*
D03*
Y28307D02*
D03*
D63*
X107480Y19291D02*
D03*
X97638D02*
D03*
D64*
X291772Y53116D02*
D03*
Y105478D02*
D03*
D65*
X293250Y60400D02*
D03*
Y58038D02*
D03*
Y69849D02*
D03*
Y67486D02*
D03*
Y65124D02*
D03*
Y76935D02*
D03*
Y74573D02*
D03*
Y72211D02*
D03*
Y86384D02*
D03*
Y84022D02*
D03*
Y81660D02*
D03*
Y91108D02*
D03*
Y88746D02*
D03*
Y93471D02*
D03*
Y55675D02*
D03*
Y62762D02*
D03*
Y79297D02*
D03*
X293252Y100557D02*
D03*
Y98195D02*
D03*
Y95833D02*
D03*
Y102919D02*
D03*
D68*
X57927Y74907D02*
D03*
X55143Y77691D02*
D03*
D69*
X43819Y76575D02*
D03*
X49724D02*
D03*
X85793Y90137D02*
D03*
X79888D02*
D03*
X65846Y91939D02*
D03*
X71751D02*
D03*
X101079Y62276D02*
D03*
X106985D02*
D03*
D70*
X250551Y103228D02*
D03*
X246614D02*
D03*
D71*
X61219Y43317D02*
D03*
X54723D02*
D03*
D72*
X43228Y49843D02*
D03*
Y55748D02*
D03*
X265709Y83465D02*
D03*
Y89370D02*
D03*
X273011Y60570D02*
D03*
Y54664D02*
D03*
X70311Y84910D02*
D03*
Y79005D02*
D03*
D73*
X113203Y46018D02*
D03*
Y36176D02*
D03*
D74*
X110363Y77078D02*
D03*
Y83771D02*
D03*
D132*
X185216Y26226D02*
D03*
X250807Y141799D02*
D03*
X263538Y123560D02*
D03*
X261544D02*
D03*
X248814Y141799D02*
D03*
X217818Y123270D02*
D03*
X217958Y127074D02*
D03*
X62524Y122660D02*
D03*
X187210Y26226D02*
D03*
X64518Y122660D02*
D03*
X187210Y28430D02*
D03*
X36769Y83041D02*
D03*
X38763D02*
D03*
X9852Y69882D02*
D03*
X11845D02*
D03*
X52161Y55904D02*
D03*
X50167D02*
D03*
X260875Y116260D02*
D03*
X262869D02*
D03*
X253609Y118740D02*
D03*
X255603D02*
D03*
X255119Y120965D02*
D03*
X257112D02*
D03*
X36584Y99550D02*
D03*
X38578D02*
D03*
X219811Y123270D02*
D03*
X219951Y127074D02*
D03*
X185216Y30596D02*
D03*
X187210D02*
D03*
X185216Y28430D02*
D03*
D133*
X256399Y139014D02*
D03*
Y141008D02*
D03*
X94540Y68444D02*
D03*
Y70438D02*
D03*
X8543Y65175D02*
D03*
Y63181D02*
D03*
X83031Y48022D02*
D03*
Y46029D02*
D03*
X43819Y71072D02*
D03*
Y73066D02*
D03*
X47520Y54064D02*
D03*
Y56058D02*
D03*
X254055Y75993D02*
D03*
Y77987D02*
D03*
X268110Y58173D02*
D03*
Y60167D02*
D03*
D146*
X303150Y116929D02*
D03*
Y40551D02*
D03*
X38858Y28425D02*
D03*
Y129055D02*
D03*
M02*
