G04*
G04 #@! TF.GenerationSoftware,Altium Limited,Altium Designer,22.8.2 (66)*
G04*
G04 Layer_Color=16711935*
%FSLAX25Y25*%
%MOIN*%
G70*
G04*
G04 #@! TF.SameCoordinates,6BB00AFB-5455-402A-A2EE-A29BA1A7275C*
G04*
G04*
G04 #@! TF.FilePolarity,Negative*
G04*
G01*
G75*
G04:AMPARAMS|DCode=38|XSize=39.37mil|YSize=27.56mil|CornerRadius=6.69mil|HoleSize=0mil|Usage=FLASHONLY|Rotation=180.000|XOffset=0mil|YOffset=0mil|HoleType=Round|Shape=RoundedRectangle|*
%AMROUNDEDRECTD38*
21,1,0.03937,0.01417,0,0,180.0*
21,1,0.02598,0.02756,0,0,180.0*
1,1,0.01339,-0.01299,0.00709*
1,1,0.01339,0.01299,0.00709*
1,1,0.01339,0.01299,-0.00709*
1,1,0.01339,-0.01299,-0.00709*
%
%ADD38ROUNDEDRECTD38*%
G04:AMPARAMS|DCode=41|XSize=47.37mil|YSize=27.69mil|CornerRadius=6.46mil|HoleSize=0mil|Usage=FLASHONLY|Rotation=270.000|XOffset=0mil|YOffset=0mil|HoleType=Round|Shape=RoundedRectangle|*
%AMROUNDEDRECTD41*
21,1,0.04737,0.01476,0,0,270.0*
21,1,0.03445,0.02769,0,0,270.0*
1,1,0.01292,-0.00738,-0.01722*
1,1,0.01292,-0.00738,0.01722*
1,1,0.01292,0.00738,0.01722*
1,1,0.01292,0.00738,-0.01722*
%
%ADD41ROUNDEDRECTD41*%
%ADD42R,0.04724X0.14961*%
G04:AMPARAMS|DCode=43|XSize=27.56mil|YSize=23.62mil|CornerRadius=5.91mil|HoleSize=0mil|Usage=FLASHONLY|Rotation=90.000|XOffset=0mil|YOffset=0mil|HoleType=Round|Shape=RoundedRectangle|*
%AMROUNDEDRECTD43*
21,1,0.02756,0.01181,0,0,90.0*
21,1,0.01575,0.02362,0,0,90.0*
1,1,0.01181,0.00591,0.00787*
1,1,0.01181,0.00591,-0.00787*
1,1,0.01181,-0.00591,-0.00787*
1,1,0.01181,-0.00591,0.00787*
%
%ADD43ROUNDEDRECTD43*%
G04:AMPARAMS|DCode=46|XSize=27.56mil|YSize=23.62mil|CornerRadius=5.91mil|HoleSize=0mil|Usage=FLASHONLY|Rotation=0.000|XOffset=0mil|YOffset=0mil|HoleType=Round|Shape=RoundedRectangle|*
%AMROUNDEDRECTD46*
21,1,0.02756,0.01181,0,0,0.0*
21,1,0.01575,0.02362,0,0,0.0*
1,1,0.01181,0.00787,-0.00591*
1,1,0.01181,-0.00787,-0.00591*
1,1,0.01181,-0.00787,0.00591*
1,1,0.01181,0.00787,0.00591*
%
%ADD46ROUNDEDRECTD46*%
G04:AMPARAMS|DCode=48|XSize=39.37mil|YSize=27.56mil|CornerRadius=6.69mil|HoleSize=0mil|Usage=FLASHONLY|Rotation=270.000|XOffset=0mil|YOffset=0mil|HoleType=Round|Shape=RoundedRectangle|*
%AMROUNDEDRECTD48*
21,1,0.03937,0.01417,0,0,270.0*
21,1,0.02598,0.02756,0,0,270.0*
1,1,0.01339,-0.00709,-0.01299*
1,1,0.01339,-0.00709,0.01299*
1,1,0.01339,0.00709,0.01299*
1,1,0.01339,0.00709,-0.01299*
%
%ADD48ROUNDEDRECTD48*%
%ADD50C,0.06706*%
%ADD51C,0.10743*%
%ADD52O,0.04331X0.08662*%
%ADD53O,0.05131X0.07493*%
%ADD54C,0.02953*%
%ADD55O,0.04737X0.09068*%
%ADD56C,0.15761*%
%ADD57C,0.03438*%
G04:AMPARAMS|DCode=109|XSize=45.28mil|YSize=92.52mil|CornerRadius=12.3mil|HoleSize=0mil|Usage=FLASHONLY|Rotation=90.000|XOffset=0mil|YOffset=0mil|HoleType=Round|Shape=RoundedRectangle|*
%AMROUNDEDRECTD109*
21,1,0.04528,0.06791,0,0,90.0*
21,1,0.02067,0.09252,0,0,90.0*
1,1,0.02461,0.03396,0.01034*
1,1,0.02461,0.03396,-0.01034*
1,1,0.02461,-0.03396,-0.01034*
1,1,0.02461,-0.03396,0.01034*
%
%ADD109ROUNDEDRECTD109*%
G04:AMPARAMS|DCode=110|XSize=43.31mil|YSize=45.28mil|CornerRadius=11.81mil|HoleSize=0mil|Usage=FLASHONLY|Rotation=90.000|XOffset=0mil|YOffset=0mil|HoleType=Round|Shape=RoundedRectangle|*
%AMROUNDEDRECTD110*
21,1,0.04331,0.02165,0,0,90.0*
21,1,0.01968,0.04528,0,0,90.0*
1,1,0.02362,0.01083,0.00984*
1,1,0.02362,0.01083,-0.00984*
1,1,0.02362,-0.01083,-0.00984*
1,1,0.02362,-0.01083,0.00984*
%
%ADD110ROUNDEDRECTD110*%
%ADD111R,0.09855X0.06706*%
G04:AMPARAMS|DCode=112|XSize=67.06mil|YSize=98.55mil|CornerRadius=18.76mil|HoleSize=0mil|Usage=FLASHONLY|Rotation=90.000|XOffset=0mil|YOffset=0mil|HoleType=Round|Shape=RoundedRectangle|*
%AMROUNDEDRECTD112*
21,1,0.06706,0.06102,0,0,90.0*
21,1,0.02953,0.09855,0,0,90.0*
1,1,0.03753,0.03051,0.01476*
1,1,0.03753,0.03051,-0.01476*
1,1,0.03753,-0.03051,-0.01476*
1,1,0.03753,-0.03051,0.01476*
%
%ADD112ROUNDEDRECTD112*%
%ADD113R,0.06706X0.09855*%
G04:AMPARAMS|DCode=114|XSize=39.5mil|YSize=31.62mil|CornerRadius=0mil|HoleSize=0mil|Usage=FLASHONLY|Rotation=45.000|XOffset=0mil|YOffset=0mil|HoleType=Round|Shape=Rectangle|*
%AMROTATEDRECTD114*
4,1,4,-0.00278,-0.02514,-0.02514,-0.00278,0.00278,0.02514,0.02514,0.00278,-0.00278,-0.02514,0.0*
%
%ADD114ROTATEDRECTD114*%

%ADD115C,0.08674*%
%ADD116R,0.06312X0.03950*%
%ADD117R,0.05721X0.03950*%
G04:AMPARAMS|DCode=118|XSize=27.56mil|YSize=23.62mil|CornerRadius=5.91mil|HoleSize=0mil|Usage=FLASHONLY|Rotation=315.000|XOffset=0mil|YOffset=0mil|HoleType=Round|Shape=RoundedRectangle|*
%AMROUNDEDRECTD118*
21,1,0.02756,0.01181,0,0,315.0*
21,1,0.01575,0.02362,0,0,315.0*
1,1,0.01181,0.00139,-0.00974*
1,1,0.01181,-0.00974,0.00139*
1,1,0.01181,-0.00139,0.00974*
1,1,0.01181,0.00974,-0.00139*
%
%ADD118ROUNDEDRECTD118*%
%ADD119R,0.02756X0.05118*%
%ADD120R,0.01981X0.05524*%
G04:AMPARAMS|DCode=121|XSize=75.59mil|YSize=57.09mil|CornerRadius=12.6mil|HoleSize=0mil|Usage=FLASHONLY|Rotation=270.000|XOffset=0mil|YOffset=0mil|HoleType=Round|Shape=RoundedRectangle|*
%AMROUNDEDRECTD121*
21,1,0.07559,0.03189,0,0,270.0*
21,1,0.05039,0.05709,0,0,270.0*
1,1,0.02520,-0.01595,-0.02520*
1,1,0.02520,-0.01595,0.02520*
1,1,0.02520,0.01595,0.02520*
1,1,0.02520,0.01595,-0.02520*
%
%ADD121ROUNDEDRECTD121*%
%ADD122R,0.04724X0.04724*%
%ADD123R,0.08268X0.12205*%
%ADD124R,0.03543X0.10236*%
%ADD125R,0.03543X0.12394*%
%ADD126R,0.10236X0.03543*%
G04:AMPARAMS|DCode=127|XSize=102.36mil|YSize=35.43mil|CornerRadius=17.72mil|HoleSize=0mil|Usage=FLASHONLY|Rotation=0.000|XOffset=0mil|YOffset=0mil|HoleType=Round|Shape=RoundedRectangle|*
%AMROUNDEDRECTD127*
21,1,0.10236,0.00000,0,0,0.0*
21,1,0.06693,0.03543,0,0,0.0*
1,1,0.03543,0.03347,0.00000*
1,1,0.03543,-0.03347,0.00000*
1,1,0.03543,-0.03347,0.00000*
1,1,0.03543,0.03347,0.00000*
%
%ADD127ROUNDEDRECTD127*%
G04:AMPARAMS|DCode=128|XSize=102.36mil|YSize=35.43mil|CornerRadius=17.72mil|HoleSize=0mil|Usage=FLASHONLY|Rotation=270.000|XOffset=0mil|YOffset=0mil|HoleType=Round|Shape=RoundedRectangle|*
%AMROUNDEDRECTD128*
21,1,0.10236,0.00000,0,0,270.0*
21,1,0.06693,0.03543,0,0,270.0*
1,1,0.03543,0.00000,-0.03347*
1,1,0.03543,0.00000,0.03347*
1,1,0.03543,0.00000,0.03347*
1,1,0.03543,0.00000,-0.03347*
%
%ADD128ROUNDEDRECTD128*%
%ADD129R,0.12394X0.03543*%
%ADD130R,0.05918X0.01784*%
%ADD131R,0.05721X0.10800*%
%ADD132R,0.07087X0.03937*%
G36*
X269746Y17476D02*
X269754Y17477D01*
X269758Y17476D01*
X269764Y17476D01*
X269777Y17474D01*
X269791Y17473D01*
X269798Y17472D01*
X269806Y17471D01*
X269810Y17470D01*
X269816Y17469D01*
X269829Y17466D01*
X269842Y17463D01*
X269850Y17461D01*
X269857Y17459D01*
X269861Y17457D01*
X269867Y17456D01*
X269879Y17451D01*
X269892Y17446D01*
X269899Y17443D01*
X269906Y17440D01*
X269910Y17438D01*
X269915Y17436D01*
X269927Y17429D01*
X269939Y17423D01*
X269945Y17419D01*
X269952Y17415D01*
X269956Y17412D01*
X269961Y17410D01*
X269971Y17401D01*
X269982Y17394D01*
X269988Y17389D01*
X269994Y17384D01*
X269998Y17381D01*
X270002Y17378D01*
X270012Y17368D01*
X270022Y17359D01*
X270027Y17354D01*
X270032Y17348D01*
X270276Y17086D01*
X270288Y17071D01*
X270301Y17056D01*
X270736Y16486D01*
X270746Y16470D01*
X270758Y16454D01*
X271136Y15845D01*
X271145Y15828D01*
X271154Y15811D01*
X271473Y15169D01*
X271480Y15151D01*
X271488Y15133D01*
X271744Y14463D01*
X271749Y14445D01*
X271756Y14427D01*
X271946Y13735D01*
X271950Y13716D01*
X271954Y13698D01*
X272077Y12991D01*
X272079Y12972D01*
X272082Y12953D01*
X272137Y12238D01*
X272137Y12219D01*
X272138Y12200D01*
X272124Y11483D01*
X272123Y11463D01*
X272122Y11444D01*
X272040Y10732D01*
X272036Y10713D01*
X272033Y10694D01*
X271883Y9992D01*
X271878Y9974D01*
X271874Y9955D01*
X271657Y9272D01*
X271650Y9254D01*
X271644Y9235D01*
X271363Y8575D01*
X271354Y8558D01*
X271346Y8541D01*
X271004Y7911D01*
X270993Y7895D01*
X270984Y7878D01*
X270582Y7284D01*
X270571Y7268D01*
X270559Y7253D01*
X270103Y6700D01*
X270090Y6685D01*
X270077Y6671D01*
X269824Y6418D01*
X269824Y6418D01*
X269564Y6158D01*
X269549Y6145D01*
X269535Y6131D01*
X268967Y5665D01*
X268951Y5654D01*
X268935Y5642D01*
X268324Y5233D01*
X268307Y5223D01*
X268290Y5213D01*
X267642Y4867D01*
X267624Y4859D01*
X267607Y4850D01*
X266928Y4569D01*
X266909Y4562D01*
X266891Y4555D01*
X266187Y4342D01*
X266168Y4338D01*
X266149Y4332D01*
X265428Y4189D01*
X265409Y4186D01*
X265389Y4183D01*
X264658Y4111D01*
X264638Y4111D01*
X264619Y4109D01*
X263884Y4109D01*
X263864Y4111D01*
X263844Y4111D01*
X263113Y4183D01*
X263094Y4187D01*
X263074Y4189D01*
X262353Y4333D01*
X262334Y4338D01*
X262315Y4342D01*
X261612Y4556D01*
X261594Y4563D01*
X261575Y4569D01*
X260896Y4850D01*
X260878Y4859D01*
X260860Y4867D01*
X260212Y5214D01*
X260196Y5224D01*
X260179Y5234D01*
X259568Y5642D01*
X259552Y5654D01*
X259536Y5666D01*
X258968Y6132D01*
X258954Y6145D01*
X258939Y6159D01*
X258679Y6418D01*
X258426Y6672D01*
X258413Y6686D01*
X258400Y6700D01*
X257944Y7254D01*
X257932Y7269D01*
X257921Y7284D01*
X257519Y7879D01*
X257510Y7895D01*
X257499Y7912D01*
X257157Y8542D01*
X257149Y8559D01*
X257140Y8576D01*
X256859Y9236D01*
X256853Y9254D01*
X256846Y9272D01*
X256630Y9956D01*
X256625Y9974D01*
X256620Y9993D01*
X256470Y10695D01*
X256467Y10714D01*
X256464Y10732D01*
X256382Y11445D01*
X256381Y11464D01*
X256379Y11483D01*
X256365Y12200D01*
X256366Y12219D01*
X256366Y12239D01*
X256422Y12954D01*
X256424Y12973D01*
X256426Y12992D01*
X256550Y13698D01*
X256554Y13717D01*
X256558Y13736D01*
X256748Y14427D01*
X256754Y14445D01*
X256760Y14464D01*
X257016Y15134D01*
X257024Y15151D01*
X257031Y15169D01*
X257349Y15812D01*
X257359Y15828D01*
X257368Y15845D01*
X257747Y16454D01*
X257758Y16470D01*
X257768Y16486D01*
X258203Y17056D01*
X258216Y17071D01*
X258228Y17086D01*
X258472Y17348D01*
X258477Y17354D01*
X258482Y17359D01*
X258496Y17372D01*
X258510Y17385D01*
X258516Y17389D01*
X258522Y17394D01*
X258537Y17404D01*
X258552Y17415D01*
X258559Y17419D01*
X258565Y17423D01*
X258582Y17431D01*
X258598Y17440D01*
X258606Y17443D01*
X258612Y17446D01*
X258630Y17452D01*
X258647Y17459D01*
X258655Y17461D01*
X258662Y17463D01*
X258680Y17467D01*
X258698Y17471D01*
X258706Y17472D01*
X258713Y17473D01*
X258732Y17475D01*
X258751Y17477D01*
X258758Y17476D01*
X258766Y17477D01*
X269738Y17477D01*
X269746Y17476D01*
D02*
G37*
G36*
X264638Y96249D02*
X264657Y96248D01*
X265389Y96176D01*
X265409Y96173D01*
X265428Y96171D01*
X266149Y96027D01*
X266168Y96022D01*
X266187Y96018D01*
X266891Y95805D01*
X266909Y95798D01*
X266928Y95791D01*
X267607Y95510D01*
X267625Y95501D01*
X267642Y95493D01*
X268291Y95147D01*
X268308Y95136D01*
X268325Y95126D01*
X268936Y94718D01*
X268951Y94706D01*
X268968Y94695D01*
X269536Y94228D01*
X269550Y94215D01*
X269565Y94202D01*
X269825Y93942D01*
X269825Y93942D01*
X270079Y93687D01*
X270092Y93673D01*
X270105Y93659D01*
X270563Y93103D01*
X270574Y93088D01*
X270586Y93072D01*
X270989Y92475D01*
X270998Y92458D01*
X271009Y92442D01*
X271352Y91809D01*
X271360Y91792D01*
X271369Y91774D01*
X271649Y91111D01*
X271656Y91093D01*
X271663Y91075D01*
X271879Y90388D01*
X271883Y90370D01*
X271888Y90351D01*
X272037Y89647D01*
X272040Y89627D01*
X272043Y89609D01*
X272124Y88893D01*
X272125Y88874D01*
X272126Y88855D01*
X272138Y88135D01*
X272137Y88116D01*
X272137Y88096D01*
X272079Y87379D01*
X272076Y87359D01*
X272074Y87340D01*
X271948Y86631D01*
X271943Y86613D01*
X271939Y86594D01*
X271745Y85900D01*
X271739Y85882D01*
X271733Y85864D01*
X271474Y85192D01*
X271465Y85175D01*
X271458Y85157D01*
X271135Y84513D01*
X271125Y84497D01*
X271116Y84480D01*
X270733Y83870D01*
X270722Y83855D01*
X270711Y83839D01*
X270271Y83269D01*
X270258Y83254D01*
X270246Y83239D01*
X270000Y82977D01*
X269995Y82972D01*
X269991Y82968D01*
X269976Y82955D01*
X269961Y82941D01*
X269956Y82937D01*
X269951Y82933D01*
X269935Y82922D01*
X269919Y82910D01*
X269913Y82907D01*
X269908Y82904D01*
X269890Y82895D01*
X269872Y82886D01*
X269866Y82883D01*
X269861Y82881D01*
X269842Y82874D01*
X269823Y82867D01*
X269817Y82866D01*
X269811Y82864D01*
X269792Y82860D01*
X269772Y82855D01*
X269766Y82855D01*
X269759Y82854D01*
X269740Y82852D01*
X269720Y82850D01*
X269714Y82850D01*
X269707Y82850D01*
X258797Y82850D01*
X258790Y82850D01*
X258784Y82850D01*
X258778Y82851D01*
X258773Y82851D01*
X258758Y82853D01*
X258745Y82854D01*
X258738Y82855D01*
X258732Y82855D01*
X258726Y82857D01*
X258721Y82857D01*
X258707Y82861D01*
X258693Y82864D01*
X258687Y82866D01*
X258681Y82867D01*
X258676Y82869D01*
X258670Y82871D01*
X258657Y82876D01*
X258643Y82881D01*
X258638Y82883D01*
X258632Y82886D01*
X258627Y82888D01*
X258622Y82890D01*
X258609Y82898D01*
X258596Y82904D01*
X258591Y82907D01*
X258585Y82910D01*
X258581Y82914D01*
X258576Y82916D01*
X258564Y82925D01*
X258553Y82933D01*
X258548Y82937D01*
X258543Y82941D01*
X258539Y82945D01*
X258534Y82948D01*
X258524Y82958D01*
X258513Y82968D01*
X258509Y82972D01*
X258505Y82977D01*
X258258Y83239D01*
X258246Y83254D01*
X258233Y83268D01*
X257793Y83838D01*
X257783Y83854D01*
X257771Y83870D01*
X257388Y84479D01*
X257379Y84496D01*
X257369Y84513D01*
X257046Y85156D01*
X257038Y85174D01*
X257030Y85192D01*
X256771Y85863D01*
X256765Y85881D01*
X256759Y85900D01*
X256565Y86593D01*
X256561Y86612D01*
X256556Y86630D01*
X256430Y87339D01*
X256428Y87358D01*
X256425Y87377D01*
X256367Y88095D01*
X256367Y88114D01*
X256366Y88133D01*
X256377Y88853D01*
X256379Y88872D01*
X256379Y88892D01*
X256460Y89607D01*
X256463Y89626D01*
X256466Y89645D01*
X256615Y90350D01*
X256620Y90368D01*
X256625Y90387D01*
X256840Y91074D01*
X256847Y91092D01*
X256854Y91110D01*
X257134Y91773D01*
X257143Y91790D01*
X257151Y91807D01*
X257494Y92440D01*
X257504Y92457D01*
X257514Y92473D01*
X257916Y93070D01*
X257928Y93085D01*
X257939Y93101D01*
X258397Y93657D01*
X258410Y93671D01*
X258423Y93685D01*
X258677Y93940D01*
X258677Y93940D01*
X258937Y94200D01*
X258952Y94213D01*
X258966Y94226D01*
X259534Y94693D01*
X259550Y94704D01*
X259566Y94716D01*
X260177Y95125D01*
X260194Y95135D01*
X260211Y95145D01*
X260859Y95492D01*
X260877Y95500D01*
X260894Y95509D01*
X261574Y95790D01*
X261592Y95797D01*
X261611Y95804D01*
X262314Y96017D01*
X262333Y96022D01*
X262352Y96027D01*
X263073Y96170D01*
X263093Y96173D01*
X263112Y96176D01*
X263844Y96248D01*
X263863Y96249D01*
X263883Y96250D01*
X264618Y96250D01*
X264638Y96249D01*
D02*
G37*
D38*
X6095Y80882D02*
D03*
Y74976D02*
D03*
D41*
X89370Y-6040D02*
D03*
X93110D02*
D03*
X96850D02*
D03*
X89370Y-15489D02*
D03*
X93110D02*
D03*
X96850D02*
D03*
D42*
X102874Y-12733D02*
D03*
X114685D02*
D03*
D43*
X177547Y41768D02*
D03*
X181484D02*
D03*
X130721Y-2086D02*
D03*
X126784D02*
D03*
X187959Y41723D02*
D03*
X191896D02*
D03*
X130721Y1307D02*
D03*
X126784D02*
D03*
X179579Y64195D02*
D03*
X175642D02*
D03*
X-16610Y3712D02*
D03*
X-12673D02*
D03*
X-12673Y6991D02*
D03*
X-16610D02*
D03*
X-12627Y10304D02*
D03*
X-16564D02*
D03*
X181539Y84944D02*
D03*
X177602D02*
D03*
X188980Y84979D02*
D03*
X185043D02*
D03*
X126632Y-8871D02*
D03*
X130569D02*
D03*
X141180Y-9060D02*
D03*
X137243D02*
D03*
X141180Y1307D02*
D03*
X137243D02*
D03*
X141180Y-5604D02*
D03*
X137243D02*
D03*
X141180Y-2149D02*
D03*
X137243D02*
D03*
X126784Y-5478D02*
D03*
X130721D02*
D03*
X85546Y-10220D02*
D03*
X81609D02*
D03*
Y-13498D02*
D03*
X85546D02*
D03*
X98324Y-20283D02*
D03*
X94387D02*
D03*
X85546Y-16859D02*
D03*
X81609D02*
D03*
X114291Y-24239D02*
D03*
X110354D02*
D03*
X22489Y94020D02*
D03*
X26426D02*
D03*
X22489Y98970D02*
D03*
X26426D02*
D03*
X22489Y104069D02*
D03*
X26426D02*
D03*
X22489Y109270D02*
D03*
X26426D02*
D03*
D46*
X220339Y30219D02*
D03*
Y34156D02*
D03*
X216361Y30219D02*
D03*
Y34156D02*
D03*
X174113Y42330D02*
D03*
Y46267D02*
D03*
X185071Y42330D02*
D03*
Y46267D02*
D03*
X85546Y-19944D02*
D03*
Y-23881D02*
D03*
X89495Y-23813D02*
D03*
Y-19876D02*
D03*
X10217Y83200D02*
D03*
Y87137D02*
D03*
D48*
X86660Y-1557D02*
D03*
X80754D02*
D03*
X24710Y114869D02*
D03*
X18804D02*
D03*
D50*
X180394Y-6397D02*
D03*
Y-20177D02*
D03*
Y106658D02*
D03*
Y120438D02*
D03*
D51*
X264252Y11991D02*
D03*
Y88369D02*
D03*
D52*
X39956Y-2777D02*
D03*
D53*
Y-19234D02*
D03*
X74012D02*
D03*
D54*
X45606Y-4746D02*
D03*
X68362D02*
D03*
D55*
X74012Y-2777D02*
D03*
D56*
X0Y0D02*
D03*
X0Y100495D02*
D03*
D57*
X-19844Y82636D02*
D03*
Y18070D02*
D03*
D109*
X199516Y79212D02*
D03*
Y90826D02*
D03*
X203569Y47586D02*
D03*
Y35972D02*
D03*
X191733Y58424D02*
D03*
Y70038D02*
D03*
D110*
X193512Y85019D02*
D03*
X197565Y41779D02*
D03*
D111*
X232573Y26791D02*
D03*
Y36122D02*
D03*
Y50295D02*
D03*
Y73799D02*
D03*
D112*
Y64468D02*
D03*
D113*
X245774Y11996D02*
D03*
Y88398D02*
D03*
D114*
X8660Y7222D02*
D03*
X3928Y11955D02*
D03*
D115*
X28644Y5015D02*
D03*
D116*
X214112Y54029D02*
D03*
X201868D02*
D03*
X214112Y74431D02*
D03*
X201868D02*
D03*
D117*
X207990Y54029D02*
D03*
Y74431D02*
D03*
D118*
X182355Y78091D02*
D03*
X185139Y80875D02*
D03*
X177553Y80812D02*
D03*
X174769Y78029D02*
D03*
D119*
X44386Y-553D02*
D03*
X47535D02*
D03*
X66433D02*
D03*
X69582D02*
D03*
D120*
X50094D02*
D03*
X52063D02*
D03*
X54031D02*
D03*
X56000D02*
D03*
X57968D02*
D03*
X59937D02*
D03*
X61905D02*
D03*
X63874D02*
D03*
D121*
X157412Y-11657D02*
D03*
X145994D02*
D03*
X132087Y-20286D02*
D03*
X143504D02*
D03*
D122*
X52561Y109077D02*
D03*
Y101203D02*
D03*
Y93329D02*
D03*
Y85455D02*
D03*
Y77581D02*
D03*
Y69707D02*
D03*
Y61833D02*
D03*
Y53959D02*
D03*
Y46084D02*
D03*
Y38210D02*
D03*
Y30336D02*
D03*
Y22463D02*
D03*
X60435Y109077D02*
D03*
Y101203D02*
D03*
Y93329D02*
D03*
Y85455D02*
D03*
Y77581D02*
D03*
Y69707D02*
D03*
Y61833D02*
D03*
Y53959D02*
D03*
Y46084D02*
D03*
Y30336D02*
D03*
Y22463D02*
D03*
Y38210D02*
D03*
D123*
X71459Y103565D02*
D03*
Y84667D02*
D03*
Y65770D02*
D03*
Y46872D02*
D03*
Y27974D02*
D03*
X84057Y103565D02*
D03*
Y84667D02*
D03*
Y65770D02*
D03*
Y46872D02*
D03*
Y27974D02*
D03*
X97443Y103565D02*
D03*
Y84667D02*
D03*
Y46872D02*
D03*
Y27974D02*
D03*
X110041Y103565D02*
D03*
Y84667D02*
D03*
Y46872D02*
D03*
Y27974D02*
D03*
X123427Y103565D02*
D03*
Y84667D02*
D03*
Y65770D02*
D03*
Y46872D02*
D03*
Y27974D02*
D03*
X136026Y103565D02*
D03*
Y84667D02*
D03*
Y65770D02*
D03*
Y46872D02*
D03*
Y27974D02*
D03*
D124*
X66144Y9667D02*
D03*
X71262D02*
D03*
X76380D02*
D03*
X81498D02*
D03*
X107089D02*
D03*
X112207D02*
D03*
X117325D02*
D03*
X127561D02*
D03*
X132679D02*
D03*
X137797D02*
D03*
X142915D02*
D03*
X148034D02*
D03*
X153152Y121872D02*
D03*
X137797D02*
D03*
X132679D02*
D03*
X127561D02*
D03*
X122443D02*
D03*
X117325D02*
D03*
X112207D02*
D03*
X96852D02*
D03*
X91734D02*
D03*
X86616D02*
D03*
X81498D02*
D03*
X76380D02*
D03*
X71262D02*
D03*
X66144D02*
D03*
X61026D02*
D03*
X55908D02*
D03*
D125*
X86616Y8570D02*
D03*
X91734D02*
D03*
X96852D02*
D03*
X101971D02*
D03*
X122443D02*
D03*
D126*
X165750Y16163D02*
D03*
Y21281D02*
D03*
Y26399D02*
D03*
Y31518D02*
D03*
Y36636D02*
D03*
Y46872D02*
D03*
Y53959D02*
D03*
Y59077D02*
D03*
Y69313D02*
D03*
Y74431D02*
D03*
Y79549D02*
D03*
X41734Y115376D02*
D03*
Y110258D02*
D03*
Y105140D02*
D03*
Y100022D02*
D03*
Y94903D02*
D03*
Y89785D02*
D03*
Y84667D02*
D03*
Y79549D02*
D03*
Y74431D02*
D03*
Y69313D02*
D03*
Y64195D02*
D03*
Y59077D02*
D03*
Y53959D02*
D03*
Y26399D02*
D03*
Y21281D02*
D03*
Y16163D02*
D03*
D127*
X165750Y41754D02*
D03*
Y64195D02*
D03*
D128*
X148034Y121872D02*
D03*
D129*
X40734Y46872D02*
D03*
Y41754D02*
D03*
Y36636D02*
D03*
Y31518D02*
D03*
D130*
X-22797Y49369D02*
D03*
Y45432D02*
D03*
Y41495D02*
D03*
Y37558D02*
D03*
Y33621D02*
D03*
X-7049Y21810D02*
D03*
X-22797Y53306D02*
D03*
Y57243D02*
D03*
Y55274D02*
D03*
Y51337D02*
D03*
Y47400D02*
D03*
Y43463D02*
D03*
Y39526D02*
D03*
Y35589D02*
D03*
Y31652D02*
D03*
X-7049Y57243D02*
D03*
Y53306D02*
D03*
Y49369D02*
D03*
Y45432D02*
D03*
Y55274D02*
D03*
Y51337D02*
D03*
Y47400D02*
D03*
Y43463D02*
D03*
Y41495D02*
D03*
Y39526D02*
D03*
Y37558D02*
D03*
Y35589D02*
D03*
Y33621D02*
D03*
Y31652D02*
D03*
Y29684D02*
D03*
Y27715D02*
D03*
Y25747D02*
D03*
Y23778D02*
D03*
X-22797Y21810D02*
D03*
Y23778D02*
D03*
Y25747D02*
D03*
Y27715D02*
D03*
Y29684D02*
D03*
Y59211D02*
D03*
X-7049Y59211D02*
D03*
X-22797Y69054D02*
D03*
Y65117D02*
D03*
Y61180D02*
D03*
Y76928D02*
D03*
Y78896D02*
D03*
Y74959D02*
D03*
Y71022D02*
D03*
Y67085D02*
D03*
Y63148D02*
D03*
X-7049Y76928D02*
D03*
Y72991D02*
D03*
Y69054D02*
D03*
Y65117D02*
D03*
Y78896D02*
D03*
Y74959D02*
D03*
Y71022D02*
D03*
Y67085D02*
D03*
Y63148D02*
D03*
Y61180D02*
D03*
X-22797Y72991D02*
D03*
D131*
X10260Y62390D02*
D03*
X18134D02*
D03*
D132*
X23860Y-15461D02*
D03*
Y-4044D02*
D03*
M02*
