G04*
G04 #@! TF.GenerationSoftware,Altium Limited,Altium Designer,22.8.2 (66)*
G04*
G04 Layer_Physical_Order=2*
G04 Layer_Color=36540*
%FSLAX25Y25*%
%MOIN*%
G70*
G04*
G04 #@! TF.SameCoordinates,6BB00AFB-5455-402A-A2EE-A29BA1A7275C*
G04*
G04*
G04 #@! TF.FilePolarity,Positive*
G04*
G01*
G75*
%ADD71C,0.05906*%
%ADD72C,0.09943*%
%ADD73O,0.03937X0.08268*%
%ADD74O,0.04331X0.06693*%
%ADD76C,0.14961*%
%ADD77C,0.02000*%
%ADD78C,0.02800*%
G36*
X187545Y128506D02*
Y97924D01*
X187607Y97612D01*
X187783Y97347D01*
X188048Y97171D01*
X188360Y97109D01*
X224649D01*
X227735Y93634D01*
Y93342D01*
X227750Y93263D01*
Y93183D01*
X227985Y92002D01*
X228016Y91928D01*
X228032Y91849D01*
X228492Y90737D01*
X228537Y90670D01*
X228568Y90596D01*
X229236Y89595D01*
X229293Y89539D01*
X229338Y89472D01*
X230189Y88621D01*
X230256Y88576D01*
X230313Y88519D01*
X231313Y87850D01*
X231388Y87820D01*
X231454Y87775D01*
X232567Y87314D01*
X232645Y87299D01*
X232720Y87268D01*
X233900Y87033D01*
X233981D01*
X234059Y87018D01*
X235263D01*
X235342Y87033D01*
X235422D01*
X236603Y87268D01*
X236677Y87299D01*
X236756Y87314D01*
X237868Y87775D01*
X237935Y87820D01*
X238009Y87850D01*
X239010Y88519D01*
X239067Y88576D01*
X239133Y88621D01*
X239984Y89472D01*
X240029Y89539D01*
X240086Y89595D01*
X240755Y90596D01*
X240785Y90670D01*
X240830Y90737D01*
X241291Y91849D01*
X241306Y91928D01*
X241337Y92002D01*
X241572Y93183D01*
Y93263D01*
X241588Y93342D01*
Y93656D01*
X244373Y97109D01*
X275174D01*
X276189Y96093D01*
Y83674D01*
X270077D01*
X269953Y83513D01*
X269707Y83251D01*
X258797Y83251D01*
X258797Y83251D01*
X258550Y83513D01*
X258426Y83674D01*
X248657D01*
X248345Y83612D01*
X248081Y83435D01*
X247904Y83170D01*
X247842Y82858D01*
Y17504D01*
X247904Y17192D01*
X248081Y16927D01*
X248345Y16750D01*
X248657Y16688D01*
X258427D01*
X258522Y16813D01*
X258766Y17076D01*
X269738Y17076D01*
X269738Y17076D01*
X269982Y16813D01*
X270077Y16688D01*
X276189D01*
X276189Y4450D01*
X274991Y3252D01*
X228568D01*
X225483Y6726D01*
Y7018D01*
X225467Y7097D01*
Y7177D01*
X225232Y8358D01*
X225202Y8432D01*
X225186Y8511D01*
X224725Y9623D01*
X224681Y9690D01*
X224650Y9764D01*
X223981Y10765D01*
X223924Y10822D01*
X223880Y10888D01*
X223029Y11740D01*
X222962Y11784D01*
X222905Y11841D01*
X221904Y12510D01*
X221830Y12541D01*
X221763Y12585D01*
X220651Y13046D01*
X220572Y13061D01*
X220498Y13092D01*
X219317Y13327D01*
X219237D01*
X219158Y13343D01*
X217954D01*
X217876Y13327D01*
X217795D01*
X216615Y13092D01*
X216541Y13061D01*
X216462Y13046D01*
X215350Y12585D01*
X215283Y12541D01*
X215209Y12510D01*
X214208Y11841D01*
X214151Y11784D01*
X214084Y11740D01*
X213233Y10888D01*
X213188Y10822D01*
X213132Y10765D01*
X212463Y9764D01*
X212432Y9690D01*
X212387Y9623D01*
X211927Y8511D01*
X211911Y8432D01*
X211880Y8358D01*
X211646Y7177D01*
Y7097D01*
X211630Y7018D01*
Y6704D01*
X208844Y3252D01*
X188360D01*
X188048Y3190D01*
X187783Y3013D01*
X187607Y2748D01*
X187545Y2436D01*
X187545Y-28146D01*
X38858D01*
X38715Y-28174D01*
X38570Y-28198D01*
X38441Y-28247D01*
X36196Y-28264D01*
X31422Y-28006D01*
X29776Y-27814D01*
X29805Y-27314D01*
X30393D01*
X30981Y-27071D01*
X31126Y-26926D01*
X31551Y-26725D01*
X31779Y-26926D01*
X32020Y-27166D01*
X32608Y-27410D01*
X33244D01*
X33832Y-27166D01*
X34201Y-26798D01*
X34293Y-26717D01*
X34809Y-26752D01*
X34999Y-26943D01*
X35587Y-27186D01*
X36224D01*
X36812Y-26943D01*
X37262Y-26493D01*
X37506Y-25904D01*
Y-25268D01*
X37262Y-24680D01*
X36812Y-24230D01*
X36224Y-23986D01*
X35587D01*
X34999Y-24230D01*
X34631Y-24598D01*
X34538Y-24679D01*
X34023Y-24644D01*
X33832Y-24453D01*
X33244Y-24210D01*
X32608D01*
X32020Y-24453D01*
X31875Y-24598D01*
X31450Y-24799D01*
X31222Y-24598D01*
X30981Y-24358D01*
X30393Y-24114D01*
X29756D01*
X29254Y-24322D01*
X28784Y-24494D01*
X28334Y-24044D01*
X27746Y-23800D01*
X27110D01*
X26522Y-24044D01*
X26270Y-24295D01*
X25832Y-23857D01*
X25244Y-23614D01*
X24608D01*
X24020Y-23857D01*
X23728Y-24149D01*
X23542Y-24112D01*
X23092Y-23662D01*
X22504Y-23418D01*
X21868D01*
X21280Y-23662D01*
X20830Y-24112D01*
X20586Y-24700D01*
Y-25337D01*
X20778Y-25800D01*
X20554Y-26156D01*
X20459Y-26237D01*
X17322Y-25469D01*
X12757Y-24048D01*
X8288Y-22347D01*
X3934Y-20372D01*
X-290Y-18132D01*
X-4368Y-15635D01*
X-8283Y-12890D01*
X-12020Y-9908D01*
X-15566Y-6700D01*
X-18906Y-3279D01*
X-22029Y342D01*
X-24921Y4149D01*
X-26110Y5934D01*
X-26110Y25339D01*
Y77039D01*
X-26110Y93684D01*
X-24930Y95390D01*
X-22066Y99064D01*
X-18996Y102568D01*
X-15732Y105890D01*
X-12282Y109021D01*
X-8660Y111949D01*
X-4876Y114665D01*
X-942Y117161D01*
X3127Y119428D01*
X7320Y121458D01*
X11621Y123246D01*
X16018Y124784D01*
X20495Y126069D01*
X25039Y127096D01*
X29634Y127861D01*
X34265Y128362D01*
X36591Y128480D01*
X36644Y128494D01*
X36700Y128493D01*
X36769Y128506D01*
X187545Y128506D01*
D02*
G37*
%LPC*%
G36*
X180914Y124391D02*
X180894D01*
Y120938D01*
X184347D01*
Y120959D01*
X184077Y121964D01*
X183557Y122865D01*
X182821Y123601D01*
X181920Y124122D01*
X180914Y124391D01*
D02*
G37*
G36*
X179894D02*
X179873D01*
X178868Y124122D01*
X177966Y123601D01*
X177231Y122865D01*
X176710Y121964D01*
X176441Y120959D01*
Y120938D01*
X179894D01*
Y124391D01*
D02*
G37*
G36*
X184347Y119938D02*
X180894D01*
Y116485D01*
X180914D01*
X181920Y116755D01*
X182821Y117275D01*
X183557Y118011D01*
X184077Y118912D01*
X184347Y119918D01*
Y119938D01*
D02*
G37*
G36*
X179894D02*
X176441D01*
Y119918D01*
X176710Y118912D01*
X177231Y118011D01*
X177966Y117275D01*
X178868Y116755D01*
X179873Y116485D01*
X179894D01*
Y119938D01*
D02*
G37*
G36*
X14822Y116748D02*
X14186D01*
X13598Y116504D01*
X13147Y116054D01*
X12904Y115466D01*
Y114829D01*
X13147Y114241D01*
X13598Y113791D01*
X14186Y113548D01*
X14822D01*
X15410Y113791D01*
X15860Y114241D01*
X16104Y114829D01*
Y115466D01*
X15860Y116054D01*
X15410Y116504D01*
X14822Y116748D01*
D02*
G37*
G36*
X70202Y115568D02*
X69566D01*
X68978Y115324D01*
X68528Y114874D01*
X68284Y114286D01*
Y113649D01*
X68320Y113562D01*
X68099Y113333D01*
X67917Y113229D01*
X67387Y113449D01*
X66751D01*
X66163Y113205D01*
X65712Y112755D01*
X65469Y112167D01*
Y111530D01*
X65712Y110942D01*
X66163Y110492D01*
X66751Y110249D01*
X67387D01*
X67975Y110492D01*
X68425Y110942D01*
X68669Y111530D01*
Y112167D01*
X68633Y112254D01*
X68854Y112483D01*
X69036Y112587D01*
X69566Y112368D01*
X70202D01*
X70790Y112611D01*
X71240Y113061D01*
X71484Y113649D01*
Y114286D01*
X71240Y114874D01*
X70790Y115324D01*
X70202Y115568D01*
D02*
G37*
G36*
X132751Y116420D02*
X132115D01*
X131527Y116176D01*
X131077Y115726D01*
X130833Y115138D01*
Y114502D01*
X131077Y113914D01*
X131527Y113464D01*
X132115Y113220D01*
X132751D01*
X133339Y113464D01*
X133790Y113914D01*
X134033Y114502D01*
Y115138D01*
X133790Y115726D01*
X133339Y116176D01*
X132751Y116420D01*
D02*
G37*
G36*
X117572Y115794D02*
X116936D01*
X116347Y115551D01*
X115897Y115101D01*
X115654Y114513D01*
Y113876D01*
X115897Y113288D01*
X116347Y112838D01*
X116936Y112594D01*
X117572D01*
X118160Y112838D01*
X118610Y113288D01*
X118854Y113876D01*
Y114513D01*
X118610Y115101D01*
X118160Y115551D01*
X117572Y115794D01*
D02*
G37*
G36*
X104537D02*
X103901D01*
X103313Y115551D01*
X102863Y115101D01*
X102619Y114513D01*
Y113876D01*
X102863Y113288D01*
X103313Y112838D01*
X103901Y112594D01*
X104537D01*
X105125Y112838D01*
X105576Y113288D01*
X105819Y113876D01*
Y114513D01*
X105576Y115101D01*
X105125Y115551D01*
X104537Y115794D01*
D02*
G37*
G36*
X91204D02*
X90567D01*
X89979Y115551D01*
X89529Y115101D01*
X89286Y114513D01*
Y113876D01*
X89529Y113288D01*
X89979Y112838D01*
X90567Y112594D01*
X91204D01*
X91792Y112838D01*
X92242Y113288D01*
X92486Y113876D01*
Y114513D01*
X92242Y115101D01*
X91792Y115551D01*
X91204Y115794D01*
D02*
G37*
G36*
X28915Y115770D02*
X28279D01*
X27691Y115526D01*
X27241Y115076D01*
X26997Y114488D01*
Y113851D01*
X27241Y113263D01*
X27691Y112813D01*
X28279Y112570D01*
X28915D01*
X29504Y112813D01*
X29954Y113263D01*
X30197Y113851D01*
Y114488D01*
X29954Y115076D01*
X29504Y115526D01*
X28915Y115770D01*
D02*
G37*
G36*
X56872Y115174D02*
X56235D01*
X55647Y114930D01*
X55197Y114480D01*
X54953Y113892D01*
Y113256D01*
X55197Y112668D01*
X55647Y112217D01*
X56235Y111974D01*
X56872D01*
X57460Y112217D01*
X57910Y112668D01*
X58153Y113256D01*
Y113892D01*
X57910Y114480D01*
X57460Y114930D01*
X56872Y115174D01*
D02*
G37*
G36*
X60754Y114977D02*
X60118D01*
X59530Y114733D01*
X59079Y114283D01*
X58836Y113695D01*
Y113058D01*
X59079Y112470D01*
X59530Y112020D01*
X60118Y111777D01*
X60754D01*
X61342Y112020D01*
X61792Y112470D01*
X62036Y113058D01*
Y113695D01*
X61792Y114283D01*
X61342Y114733D01*
X60754Y114977D01*
D02*
G37*
G36*
X30375Y110842D02*
X29739D01*
X29151Y110598D01*
X28701Y110148D01*
X28457Y109560D01*
Y108924D01*
X28701Y108336D01*
X29151Y107886D01*
X29739Y107642D01*
X30375D01*
X30964Y107886D01*
X31414Y108336D01*
X31657Y108924D01*
Y109560D01*
X31414Y110148D01*
X30964Y110598D01*
X30375Y110842D01*
D02*
G37*
G36*
X19251Y107934D02*
X18615D01*
X18027Y107690D01*
X17577Y107240D01*
X17333Y106652D01*
Y106583D01*
X16833Y106376D01*
X16783Y106426D01*
X16195Y106670D01*
X15559D01*
X14971Y106426D01*
X14521Y105976D01*
X14277Y105388D01*
Y104751D01*
X14521Y104163D01*
X14971Y103713D01*
X15559Y103470D01*
X16195D01*
X16783Y103713D01*
X17234Y104163D01*
X17477Y104751D01*
Y104820D01*
X17977Y105027D01*
X18027Y104977D01*
X18615Y104734D01*
X19251D01*
X19839Y104977D01*
X20290Y105427D01*
X20533Y106015D01*
Y106652D01*
X20290Y107240D01*
X19839Y107690D01*
X19251Y107934D01*
D02*
G37*
G36*
X77975Y108051D02*
X77339D01*
X76751Y107808D01*
X76301Y107357D01*
X76057Y106769D01*
Y106133D01*
X76301Y105545D01*
X76751Y105095D01*
X77339Y104851D01*
X77975D01*
X78563Y105095D01*
X79014Y105545D01*
X79257Y106133D01*
Y106769D01*
X79014Y107357D01*
X78563Y107808D01*
X77975Y108051D01*
D02*
G37*
G36*
X30362Y106720D02*
X29725D01*
X29137Y106476D01*
X28687Y106026D01*
X28443Y105438D01*
Y104801D01*
X28687Y104213D01*
X29137Y103763D01*
X29725Y103520D01*
X30362D01*
X30950Y103763D01*
X31400Y104213D01*
X31643Y104801D01*
Y105438D01*
X31400Y106026D01*
X30950Y106476D01*
X30362Y106720D01*
D02*
G37*
G36*
X180861Y110211D02*
X179926D01*
X179022Y109969D01*
X178212Y109501D01*
X177551Y108840D01*
X177083Y108030D01*
X176841Y107126D01*
Y106190D01*
X177083Y105287D01*
X177551Y104477D01*
X178212Y103815D01*
X179022Y103347D01*
X179926Y103105D01*
X180861D01*
X181765Y103347D01*
X182575Y103815D01*
X183237Y104477D01*
X183705Y105287D01*
X183947Y106190D01*
Y107126D01*
X183705Y108030D01*
X183237Y108840D01*
X182575Y109501D01*
X181765Y109969D01*
X180861Y110211D01*
D02*
G37*
G36*
X90975Y105227D02*
X90339D01*
X89751Y104983D01*
X89301Y104533D01*
X89057Y103945D01*
Y103309D01*
X89301Y102721D01*
X89751Y102271D01*
X90339Y102027D01*
X90975D01*
X91563Y102271D01*
X92014Y102721D01*
X92257Y103309D01*
Y103945D01*
X92014Y104533D01*
X91563Y104983D01*
X90975Y105227D01*
D02*
G37*
G36*
X104276Y104927D02*
X103639D01*
X103051Y104683D01*
X102601Y104233D01*
X102357Y103645D01*
Y103009D01*
X102601Y102421D01*
X103051Y101971D01*
X103639Y101727D01*
X104276D01*
X104864Y101971D01*
X105314Y102421D01*
X105557Y103009D01*
Y103645D01*
X105314Y104233D01*
X104864Y104683D01*
X104276Y104927D01*
D02*
G37*
G36*
X116876Y104827D02*
X116239D01*
X115651Y104583D01*
X115201Y104133D01*
X114957Y103545D01*
Y102909D01*
X115201Y102321D01*
X115651Y101871D01*
X116239Y101627D01*
X116876D01*
X117464Y101871D01*
X117914Y102321D01*
X118157Y102909D01*
Y103545D01*
X117914Y104133D01*
X117464Y104583D01*
X116876Y104827D01*
D02*
G37*
G36*
X29432Y100468D02*
X28796D01*
X28208Y100224D01*
X27757Y99774D01*
X27514Y99186D01*
Y98549D01*
X27757Y97961D01*
X28208Y97511D01*
X28796Y97268D01*
X29432D01*
X30020Y97511D01*
X30470Y97961D01*
X30714Y98549D01*
Y99186D01*
X30470Y99774D01*
X30020Y100224D01*
X29432Y100468D01*
D02*
G37*
G36*
X30375Y95920D02*
X29739D01*
X29151Y95676D01*
X28701Y95226D01*
X28457Y94638D01*
Y94001D01*
X28701Y93413D01*
X29151Y92963D01*
X29739Y92720D01*
X30375D01*
X30964Y92963D01*
X31414Y93413D01*
X31657Y94001D01*
Y94638D01*
X31414Y95226D01*
X30964Y95676D01*
X30375Y95920D01*
D02*
G37*
G36*
Y92120D02*
X29739D01*
X29151Y91876D01*
X28701Y91426D01*
X28457Y90838D01*
Y90201D01*
X28701Y89613D01*
X29151Y89163D01*
X29739Y88920D01*
X30375D01*
X30964Y89163D01*
X31414Y89613D01*
X31657Y90201D01*
Y90838D01*
X31414Y91426D01*
X30964Y91876D01*
X30375Y92120D01*
D02*
G37*
G36*
X-12080Y84985D02*
X-12717D01*
X-13305Y84742D01*
X-13755Y84292D01*
X-13999Y83704D01*
Y83067D01*
X-13942Y82929D01*
X-14296Y82477D01*
X-14570Y82519D01*
X-14804Y82851D01*
Y83488D01*
X-15047Y84076D01*
X-15497Y84526D01*
X-16085Y84770D01*
X-16722D01*
X-17310Y84526D01*
X-17760Y84076D01*
X-17806Y83965D01*
X-17835Y83948D01*
X-18380Y83886D01*
X-18757Y84263D01*
X-19463Y84555D01*
X-20226D01*
X-20931Y84263D01*
X-21471Y83723D01*
X-21763Y83018D01*
Y82255D01*
X-21471Y81550D01*
X-20931Y81010D01*
X-20226Y80718D01*
X-19463D01*
X-18757Y81010D01*
X-18218Y81550D01*
X-18082Y81878D01*
X-17492Y81995D01*
X-17310Y81813D01*
X-16872Y81632D01*
X-16532Y81147D01*
Y80511D01*
X-16288Y79923D01*
X-15996Y79631D01*
X-15961Y79197D01*
X-16040Y79021D01*
X-16166Y78896D01*
X-16514Y78720D01*
X-16819Y78896D01*
X-17050Y79127D01*
X-17638Y79370D01*
X-18275D01*
X-18863Y79127D01*
X-19313Y78677D01*
X-19557Y78089D01*
Y77452D01*
X-19313Y76864D01*
X-18863Y76414D01*
X-18275Y76170D01*
X-17638D01*
X-17050Y76414D01*
X-16839Y76626D01*
X-16490Y76801D01*
X-16185Y76626D01*
X-15954Y76394D01*
X-15366Y76151D01*
X-14730D01*
X-14142Y76394D01*
X-13723Y76813D01*
X-13305Y76394D01*
X-12717Y76151D01*
X-12080D01*
X-11492Y76394D01*
X-11042Y76844D01*
X-10799Y77433D01*
Y78069D01*
X-11042Y78657D01*
X-11231Y78846D01*
X-11310Y79331D01*
X-11200Y79468D01*
X-10864Y79803D01*
X-10621Y80392D01*
Y81028D01*
X-10864Y81616D01*
X-11314Y82066D01*
X-11338Y82184D01*
X-11042Y82479D01*
X-10799Y83067D01*
Y83704D01*
X-11042Y84292D01*
X-11492Y84742D01*
X-12080Y84985D01*
D02*
G37*
G36*
X13488Y84485D02*
X12851D01*
X12263Y84241D01*
X11813Y83791D01*
X11569Y83203D01*
Y82567D01*
X11813Y81978D01*
X12263Y81529D01*
X12851Y81285D01*
X13488D01*
X14076Y81529D01*
X14526Y81978D01*
X14769Y82567D01*
Y83203D01*
X14526Y83791D01*
X14076Y84241D01*
X13488Y84485D01*
D02*
G37*
G36*
X150000Y80860D02*
X149363D01*
X148775Y80616D01*
X148325Y80166D01*
X148082Y79578D01*
Y78942D01*
X148325Y78354D01*
X148578Y78101D01*
X148719Y77774D01*
X148578Y77448D01*
X148325Y77195D01*
X148082Y76607D01*
Y75971D01*
X148325Y75382D01*
X148775Y74932D01*
X149363Y74689D01*
X150000D01*
X150588Y74932D01*
X151038Y75382D01*
X151281Y75971D01*
Y76607D01*
X151038Y77195D01*
X150785Y77448D01*
X150644Y77774D01*
X150785Y78101D01*
X151038Y78354D01*
X151281Y78942D01*
Y79578D01*
X151038Y80166D01*
X150588Y80616D01*
X150000Y80860D01*
D02*
G37*
G36*
X14472Y76934D02*
X13835D01*
X13247Y76690D01*
X12797Y76240D01*
X12554Y75652D01*
Y75015D01*
X12797Y74427D01*
X13247Y73977D01*
X13835Y73734D01*
X14472D01*
X15060Y73977D01*
X15510Y74427D01*
X15754Y75015D01*
Y75652D01*
X15510Y76240D01*
X15060Y76690D01*
X14472Y76934D01*
D02*
G37*
G36*
X33883Y77941D02*
X33246D01*
X32658Y77697D01*
X32208Y77247D01*
X31965Y76659D01*
Y76023D01*
X32208Y75435D01*
X32480Y75163D01*
X32181Y74863D01*
X31937Y74275D01*
Y73639D01*
X32181Y73051D01*
X32631Y72601D01*
X33219Y72357D01*
X33856D01*
X34444Y72601D01*
X34894Y73051D01*
X35137Y73639D01*
Y74275D01*
X34894Y74863D01*
X34622Y75135D01*
X34921Y75435D01*
X35165Y76023D01*
Y76659D01*
X34921Y77247D01*
X34471Y77697D01*
X33883Y77941D01*
D02*
G37*
G36*
X-17719Y74722D02*
X-18355D01*
X-18943Y74479D01*
X-19393Y74029D01*
X-19637Y73441D01*
Y72804D01*
X-19393Y72216D01*
X-18943Y71766D01*
X-18355Y71522D01*
X-17719D01*
X-17131Y71766D01*
X-16680Y72216D01*
X-16437Y72804D01*
Y73441D01*
X-16680Y74029D01*
X-17131Y74479D01*
X-17719Y74722D01*
D02*
G37*
G36*
X3645Y74445D02*
X3009D01*
X2420Y74202D01*
X1970Y73752D01*
X1727Y73164D01*
Y72527D01*
X1970Y71939D01*
X2420Y71489D01*
X3009Y71245D01*
X3645D01*
X4233Y71489D01*
X4683Y71939D01*
X4927Y72527D01*
Y73164D01*
X4683Y73752D01*
X4233Y74202D01*
X3645Y74445D01*
D02*
G37*
G36*
X14472Y71045D02*
X13835D01*
X13247Y70801D01*
X12797Y70351D01*
X12554Y69763D01*
Y69127D01*
X12797Y68539D01*
X13247Y68089D01*
X13835Y67845D01*
X14472D01*
X15060Y68089D01*
X15510Y68539D01*
X15754Y69127D01*
Y69763D01*
X15510Y70351D01*
X15060Y70801D01*
X14472Y71045D01*
D02*
G37*
G36*
X-14425Y69806D02*
X-15062D01*
X-15650Y69562D01*
X-16100Y69112D01*
X-16343Y68524D01*
Y67888D01*
X-16614Y67426D01*
X-17139Y67264D01*
X-17186Y67312D01*
X-17774Y67555D01*
X-18411D01*
X-18999Y67312D01*
X-19449Y66861D01*
X-19693Y66273D01*
Y65637D01*
X-19449Y65049D01*
X-19035Y64635D01*
X-19483Y64186D01*
X-19726Y63598D01*
Y62962D01*
X-19483Y62374D01*
X-19033Y61923D01*
X-18445Y61680D01*
X-17808D01*
X-17243Y61914D01*
X-17196Y61801D01*
X-16746Y61351D01*
X-16158Y61107D01*
X-15521D01*
X-15096Y61284D01*
X-14933Y61351D01*
X-14368Y61209D01*
X-14248Y61089D01*
X-13769Y60891D01*
X-13973Y60399D01*
Y59763D01*
X-13729Y59174D01*
X-13279Y58724D01*
X-13265Y58719D01*
Y58177D01*
X-13271Y58175D01*
X-13722Y57725D01*
X-13965Y57137D01*
Y56500D01*
X-13722Y55912D01*
X-13271Y55462D01*
X-12778Y55258D01*
X-12709Y55109D01*
X-12673Y54958D01*
X-12664Y54718D01*
X-13021Y54362D01*
X-13264Y53774D01*
Y53137D01*
X-13021Y52549D01*
X-12571Y52099D01*
X-11983Y51856D01*
X-11346D01*
X-10758Y52099D01*
X-10308Y52549D01*
X-10064Y53137D01*
Y53774D01*
X-10308Y54362D01*
X-10758Y54812D01*
X-11251Y55016D01*
X-11321Y55165D01*
X-11356Y55316D01*
X-11365Y55556D01*
X-11009Y55912D01*
X-10765Y56500D01*
Y57137D01*
X-11009Y57725D01*
X-11459Y58175D01*
X-11473Y58181D01*
Y58722D01*
X-11467Y58724D01*
X-11016Y59174D01*
X-10773Y59763D01*
Y60399D01*
X-11016Y60987D01*
X-11467Y61437D01*
X-11946Y61636D01*
X-11742Y62128D01*
Y62764D01*
X-11971Y63316D01*
X-11897Y63347D01*
X-11447Y63797D01*
X-11203Y64385D01*
Y65022D01*
X-11447Y65610D01*
X-11897Y66060D01*
X-12485Y66304D01*
X-13121D01*
X-13398Y66189D01*
X-13992Y66416D01*
X-14008Y66436D01*
X-14073Y66630D01*
X-13979Y66791D01*
X-13837Y66849D01*
X-13387Y67300D01*
X-13144Y67888D01*
Y68524D01*
X-13387Y69112D01*
X-13837Y69562D01*
X-14425Y69806D01*
D02*
G37*
G36*
X-1136Y70298D02*
X-1773D01*
X-2361Y70055D01*
X-2811Y69604D01*
X-3054Y69016D01*
Y68380D01*
X-2811Y67792D01*
X-2361Y67342D01*
X-1773Y67098D01*
X-1136D01*
X-548Y67342D01*
X-98Y67792D01*
X146Y68380D01*
Y69016D01*
X-98Y69604D01*
X-548Y70055D01*
X-1136Y70298D01*
D02*
G37*
G36*
X441Y60811D02*
X-195D01*
X-783Y60568D01*
X-1233Y60118D01*
X-1477Y59530D01*
Y58893D01*
X-1233Y58305D01*
X-783Y57855D01*
X-195Y57611D01*
X441D01*
X1029Y57855D01*
X1480Y58305D01*
X1723Y58893D01*
Y59530D01*
X1480Y60118D01*
X1029Y60568D01*
X441Y60811D01*
D02*
G37*
G36*
X-17913Y60680D02*
X-18549D01*
X-19137Y60436D01*
X-19587Y59986D01*
X-19831Y59398D01*
Y58762D01*
X-19587Y58174D01*
X-19137Y57723D01*
X-18549Y57480D01*
X-17913D01*
X-17324Y57723D01*
X-16874Y58174D01*
X-16631Y58762D01*
Y59398D01*
X-16874Y59986D01*
X-17324Y60436D01*
X-17913Y60680D01*
D02*
G37*
G36*
X28253Y59644D02*
X27617D01*
X27029Y59401D01*
X26579Y58951D01*
X26335Y58362D01*
Y57726D01*
X26579Y57138D01*
X26720Y56997D01*
X26921Y56568D01*
X26720Y56344D01*
X26478Y56102D01*
X26235Y55514D01*
Y54877D01*
X26478Y54289D01*
X26928Y53839D01*
X27516Y53596D01*
X28153D01*
X28741Y53839D01*
X29191Y54289D01*
X29435Y54877D01*
Y55514D01*
X29191Y56102D01*
X29050Y56243D01*
X28849Y56672D01*
X29050Y56896D01*
X29292Y57138D01*
X29535Y57726D01*
Y58362D01*
X29292Y58951D01*
X28842Y59401D01*
X28253Y59644D01*
D02*
G37*
G36*
X6211Y56503D02*
X5574D01*
X4986Y56259D01*
X4536Y55809D01*
X4292Y55221D01*
Y54584D01*
X4536Y53996D01*
X4986Y53546D01*
X5574Y53303D01*
X6211D01*
X6798Y53546D01*
X7249Y53996D01*
X7492Y54584D01*
Y55221D01*
X7249Y55809D01*
X6798Y56259D01*
X6211Y56503D01*
D02*
G37*
G36*
X-17561Y56414D02*
X-18197D01*
X-18785Y56170D01*
X-19236Y55720D01*
X-19479Y55132D01*
Y54495D01*
X-19236Y53907D01*
X-18785Y53457D01*
X-18197Y53214D01*
X-17561D01*
X-16973Y53457D01*
X-16523Y53907D01*
X-16279Y54495D01*
Y55132D01*
X-16523Y55720D01*
X-16973Y56170D01*
X-17561Y56414D01*
D02*
G37*
G36*
X-17297Y52600D02*
X-17934D01*
X-18522Y52356D01*
X-18972Y51906D01*
X-19216Y51318D01*
Y50681D01*
X-18972Y50093D01*
X-18522Y49643D01*
X-17934Y49400D01*
X-17297D01*
X-16709Y49643D01*
X-16259Y50093D01*
X-16016Y50681D01*
Y51318D01*
X-16259Y51906D01*
X-16709Y52356D01*
X-17297Y52600D01*
D02*
G37*
G36*
X11082Y56686D02*
X10445D01*
X9857Y56442D01*
X9407Y55992D01*
X9164Y55404D01*
Y54768D01*
X9407Y54179D01*
X9857Y53729D01*
X10445Y53486D01*
X11082D01*
X11670Y53729D01*
X11831Y53891D01*
X12234Y53641D01*
X12262Y53614D01*
Y52987D01*
X12506Y52399D01*
X12956Y51949D01*
X13544Y51706D01*
X14180D01*
X14428Y51808D01*
X14711Y51384D01*
X14405Y51079D01*
X14162Y50490D01*
Y49854D01*
X14405Y49266D01*
X14856Y48816D01*
X15444Y48572D01*
X16080D01*
X16668Y48816D01*
X17118Y49266D01*
X17362Y49854D01*
Y50490D01*
X17118Y51079D01*
X16668Y51529D01*
X16080Y51772D01*
X15444D01*
X15196Y51670D01*
X14913Y52093D01*
X15218Y52399D01*
X15462Y52987D01*
Y53624D01*
X15218Y54212D01*
X14768Y54662D01*
X14180Y54906D01*
X13544D01*
X12956Y54662D01*
X12794Y54501D01*
X12392Y54750D01*
X12364Y54777D01*
Y55404D01*
X12120Y55992D01*
X11670Y56442D01*
X11082Y56686D01*
D02*
G37*
G36*
X-15607Y48039D02*
X-16244D01*
X-16832Y47795D01*
X-17282Y47345D01*
X-17526Y46757D01*
Y46120D01*
X-17282Y45532D01*
X-17208Y45458D01*
X-17491Y45035D01*
X-17561Y45063D01*
X-18197D01*
X-18785Y44820D01*
X-19236Y44370D01*
X-19479Y43782D01*
Y43145D01*
X-19236Y42557D01*
X-18785Y42107D01*
X-18197Y41863D01*
X-17561D01*
X-16973Y42107D01*
X-16523Y42557D01*
X-16279Y43145D01*
Y43782D01*
X-16523Y44370D01*
X-16596Y44443D01*
X-16313Y44867D01*
X-16244Y44839D01*
X-15607D01*
X-15019Y45082D01*
X-14569Y45532D01*
X-14325Y46120D01*
Y46757D01*
X-14569Y47345D01*
X-15019Y47795D01*
X-15607Y48039D01*
D02*
G37*
G36*
X485Y44309D02*
X-151D01*
X-739Y44066D01*
X-1189Y43616D01*
X-1433Y43028D01*
Y42391D01*
X-1189Y41803D01*
X-739Y41353D01*
X-151Y41109D01*
X485D01*
X1073Y41353D01*
X1524Y41803D01*
X1767Y42391D01*
Y43028D01*
X1524Y43616D01*
X1073Y44066D01*
X485Y44309D01*
D02*
G37*
G36*
X49706Y43697D02*
X49070D01*
X48482Y43454D01*
X48032Y43004D01*
X47788Y42415D01*
Y41779D01*
X48032Y41191D01*
X48482Y40741D01*
X49070Y40497D01*
X49706D01*
X50294Y40741D01*
X50744Y41191D01*
X50988Y41779D01*
Y42415D01*
X50744Y43004D01*
X50294Y43454D01*
X49706Y43697D01*
D02*
G37*
G36*
X32085Y41143D02*
X31449D01*
X30860Y40899D01*
X30410Y40449D01*
X30167Y39861D01*
Y39225D01*
X30410Y38636D01*
X30860Y38186D01*
X31449Y37943D01*
X32085D01*
X32673Y38186D01*
X33123Y38636D01*
X33367Y39225D01*
Y39861D01*
X33123Y40449D01*
X32673Y40899D01*
X32085Y41143D01*
D02*
G37*
G36*
X-11130Y37565D02*
X-11767D01*
X-12355Y37321D01*
X-12805Y36871D01*
X-13048Y36283D01*
Y35647D01*
X-12805Y35059D01*
X-12355Y34609D01*
X-11767Y34365D01*
X-11130D01*
X-10542Y34609D01*
X-10092Y35059D01*
X-9848Y35647D01*
Y36283D01*
X-10092Y36871D01*
X-10542Y37321D01*
X-11130Y37565D01*
D02*
G37*
G36*
X-17327D02*
X-17964D01*
X-18552Y37321D01*
X-19002Y36871D01*
X-19246Y36283D01*
Y35647D01*
X-19002Y35059D01*
X-18552Y34609D01*
X-17964Y34365D01*
X-17327D01*
X-16739Y34609D01*
X-16289Y35059D01*
X-16046Y35647D01*
Y36283D01*
X-16289Y36871D01*
X-16739Y37321D01*
X-17327Y37565D01*
D02*
G37*
G36*
X212858Y34986D02*
X212222D01*
X211633Y34742D01*
X211183Y34292D01*
X210940Y33704D01*
X210798Y33609D01*
X210476Y33743D01*
X209839D01*
X209251Y33500D01*
X208801Y33049D01*
X208558Y32461D01*
Y31825D01*
X208801Y31237D01*
X209251Y30787D01*
X209839Y30543D01*
X210476D01*
X211064Y30787D01*
X211514Y31237D01*
X211757Y31825D01*
X211899Y31919D01*
X212222Y31786D01*
X212858D01*
X213446Y32029D01*
X213896Y32480D01*
X214140Y33068D01*
Y33704D01*
X213896Y34292D01*
X213446Y34742D01*
X212858Y34986D01*
D02*
G37*
G36*
X49706Y36247D02*
X49070D01*
X48482Y36003D01*
X48032Y35553D01*
X47788Y34965D01*
Y34329D01*
X48032Y33740D01*
X48482Y33290D01*
X49070Y33047D01*
X49706D01*
X50294Y33290D01*
X50744Y33740D01*
X50988Y34329D01*
Y34965D01*
X50744Y35553D01*
X50294Y36003D01*
X49706Y36247D01*
D02*
G37*
G36*
X-2461Y35382D02*
X-3097D01*
X-3686Y35139D01*
X-4136Y34689D01*
X-4379Y34100D01*
Y33464D01*
X-4136Y32876D01*
X-3686Y32426D01*
X-3097Y32182D01*
X-2461D01*
X-1873Y32426D01*
X-1423Y32876D01*
X-1179Y33464D01*
Y34100D01*
X-1423Y34689D01*
X-1873Y35139D01*
X-2461Y35382D01*
D02*
G37*
G36*
X-11059Y32939D02*
X-11696D01*
X-12284Y32696D01*
X-12734Y32246D01*
X-12978Y31657D01*
Y31021D01*
X-12734Y30433D01*
X-12284Y29983D01*
X-11696Y29739D01*
X-11059D01*
X-10471Y29983D01*
X-10021Y30433D01*
X-9778Y31021D01*
Y31657D01*
X-10021Y32246D01*
X-10471Y32696D01*
X-11059Y32939D01*
D02*
G37*
G36*
X16017Y31418D02*
X15381D01*
X14793Y31175D01*
X14343Y30724D01*
X14099Y30136D01*
Y29500D01*
X14343Y28912D01*
X14793Y28462D01*
X15381Y28218D01*
X16017D01*
X16605Y28462D01*
X17055Y28912D01*
X17299Y29500D01*
Y30136D01*
X17055Y30724D01*
X16605Y31175D01*
X16017Y31418D01*
D02*
G37*
G36*
X-15364Y33532D02*
X-16001D01*
X-16589Y33288D01*
X-17039Y32838D01*
X-17282Y32250D01*
Y31613D01*
X-17039Y31025D01*
X-17365Y30644D01*
X-17538Y30573D01*
X-17988Y30122D01*
X-18232Y29534D01*
Y28898D01*
X-17988Y28310D01*
X-17538Y27860D01*
X-16950Y27616D01*
X-16313D01*
X-15725Y27860D01*
X-15275Y28310D01*
X-15032Y28898D01*
Y29534D01*
X-15275Y30122D01*
X-14949Y30503D01*
X-14776Y30575D01*
X-14326Y31025D01*
X-14082Y31613D01*
Y32250D01*
X-14326Y32838D01*
X-14776Y33288D01*
X-15364Y33532D01*
D02*
G37*
G36*
X176984Y20249D02*
X176347D01*
X175759Y20006D01*
X175374Y19621D01*
X174988Y20006D01*
X174400Y20249D01*
X173764D01*
X173176Y20006D01*
X172726Y19556D01*
X172482Y18968D01*
Y18331D01*
X172726Y17743D01*
X173176Y17293D01*
X173764Y17050D01*
X174400D01*
X174988Y17293D01*
X175374Y17678D01*
X175759Y17293D01*
X176347Y17050D01*
X176984D01*
X177572Y17293D01*
X178022Y17743D01*
X178265Y18331D01*
Y18968D01*
X178022Y19556D01*
X177572Y20006D01*
X176984Y20249D01*
D02*
G37*
G36*
X-19463Y19988D02*
X-20226D01*
X-20931Y19696D01*
X-21471Y19157D01*
X-21763Y18451D01*
Y17688D01*
X-21471Y16983D01*
X-20931Y16443D01*
X-20226Y16151D01*
X-19463D01*
X-18757Y16443D01*
X-18218Y16983D01*
X-17925Y17688D01*
Y18451D01*
X-18218Y19157D01*
X-18757Y19696D01*
X-19463Y19988D01*
D02*
G37*
G36*
X117643Y19292D02*
X117007D01*
X116419Y19048D01*
X115969Y18598D01*
X115725Y18010D01*
Y17374D01*
X115969Y16785D01*
X116419Y16335D01*
X117007Y16092D01*
X117643D01*
X118231Y16335D01*
X118681Y16785D01*
X118925Y17374D01*
Y18010D01*
X118681Y18598D01*
X118231Y19048D01*
X117643Y19292D01*
D02*
G37*
G36*
X103223Y18499D02*
X102587D01*
X101999Y18256D01*
X101549Y17806D01*
X101305Y17218D01*
Y16581D01*
X101549Y15993D01*
X101999Y15543D01*
X102587Y15299D01*
X103223D01*
X103811Y15543D01*
X104261Y15993D01*
X104505Y16581D01*
Y17218D01*
X104261Y17806D01*
X103811Y18256D01*
X103223Y18499D01*
D02*
G37*
G36*
X122476Y18170D02*
X121839D01*
X121251Y17926D01*
X120801Y17476D01*
X120557Y16888D01*
Y16251D01*
X120801Y15663D01*
X121251Y15213D01*
X121839Y14970D01*
X122476D01*
X123064Y15213D01*
X123514Y15663D01*
X123757Y16251D01*
Y16888D01*
X123514Y17476D01*
X123064Y17926D01*
X122476Y18170D01*
D02*
G37*
G36*
X-2217Y17213D02*
X-2854D01*
X-3442Y16970D01*
X-3892Y16520D01*
X-4135Y15932D01*
Y15295D01*
X-3892Y14707D01*
X-3442Y14257D01*
X-2854Y14013D01*
X-2217D01*
X-1629Y14257D01*
X-1179Y14707D01*
X-935Y15295D01*
Y15932D01*
X-1179Y16520D01*
X-1629Y16970D01*
X-2217Y17213D01*
D02*
G37*
G36*
X-11264Y19374D02*
X-11901D01*
X-12489Y19130D01*
X-12939Y18680D01*
X-13182Y18092D01*
Y17456D01*
X-12939Y16868D01*
X-12489Y16417D01*
X-11901Y16174D01*
X-11264D01*
X-10920Y15775D01*
X-10927Y15759D01*
Y15123D01*
X-10684Y14534D01*
X-10233Y14084D01*
X-9645Y13841D01*
X-9009D01*
X-8421Y14084D01*
X-7971Y14534D01*
X-7727Y15123D01*
Y15759D01*
X-7971Y16347D01*
X-8421Y16797D01*
X-9009Y17041D01*
X-9645D01*
X-9989Y17439D01*
X-9982Y17456D01*
Y18092D01*
X-10226Y18680D01*
X-10676Y19130D01*
X-11264Y19374D01*
D02*
G37*
G36*
X-20307Y12438D02*
X-20944D01*
X-21532Y12195D01*
X-21982Y11745D01*
X-22226Y11157D01*
Y10520D01*
X-21982Y9932D01*
X-21532Y9482D01*
X-20944Y9239D01*
X-20307D01*
X-19719Y9482D01*
X-19269Y9932D01*
X-19026Y10520D01*
Y11157D01*
X-19269Y11745D01*
X-19719Y12195D01*
X-20307Y12438D01*
D02*
G37*
G36*
X-7709Y9729D02*
X-8345D01*
X-8933Y9485D01*
X-9384Y9035D01*
X-9627Y8447D01*
Y7811D01*
X-9384Y7222D01*
X-8933Y6772D01*
X-8345Y6529D01*
X-7709D01*
X-7121Y6772D01*
X-6671Y7222D01*
X-6427Y7811D01*
Y8447D01*
X-6671Y9035D01*
X-7121Y9485D01*
X-7709Y9729D01*
D02*
G37*
G36*
X50114Y8367D02*
X49477D01*
X48889Y8124D01*
X48439Y7674D01*
X48196Y7086D01*
Y6449D01*
X48439Y5861D01*
X48889Y5411D01*
X49477Y5167D01*
X50114D01*
X50702Y5411D01*
X51152Y5861D01*
X51396Y6449D01*
Y7086D01*
X51152Y7674D01*
X50702Y8124D01*
X50114Y8367D01*
D02*
G37*
G36*
X11776Y7041D02*
X11139D01*
X10551Y6797D01*
X10101Y6347D01*
X9857Y5759D01*
Y5123D01*
X10101Y4535D01*
X10551Y4084D01*
X11139Y3841D01*
X11776D01*
X12364Y4084D01*
X12814Y4535D01*
X13057Y5123D01*
Y5759D01*
X12814Y6347D01*
X12364Y6797D01*
X11776Y7041D01*
D02*
G37*
G36*
X80329Y4202D02*
X79692D01*
X79104Y3959D01*
X78654Y3508D01*
X78614Y3411D01*
X78073D01*
X78032Y3508D01*
X77582Y3959D01*
X76994Y4202D01*
X76358D01*
X75770Y3959D01*
X75320Y3508D01*
X75076Y2920D01*
Y2284D01*
X75084Y2266D01*
X74701Y1883D01*
X74682Y1891D01*
X74012Y1979D01*
X73341Y1891D01*
X72874Y1697D01*
X71368Y3212D01*
X71141Y3308D01*
X70912Y3404D01*
X43077Y3584D01*
X43076Y3583D01*
X43075Y3584D01*
X42847Y3490D01*
X42617Y3396D01*
X42616Y3395D01*
X42615Y3395D01*
X40961Y1752D01*
X40626Y1891D01*
X39956Y1979D01*
X39285Y1891D01*
X38661Y1632D01*
X38124Y1220D01*
X37712Y683D01*
X37453Y59D01*
X37365Y-612D01*
Y-4943D01*
X37453Y-5613D01*
X37712Y-6238D01*
X38124Y-6775D01*
X38661Y-7186D01*
X39285Y-7445D01*
X39621Y-7490D01*
Y-15308D01*
X39234Y-15359D01*
X38561Y-15638D01*
X37984Y-16081D01*
X37540Y-16659D01*
X37262Y-17332D01*
X37167Y-18053D01*
Y-20415D01*
X37262Y-21137D01*
X37540Y-21810D01*
X37984Y-22388D01*
X38561Y-22831D01*
X39234Y-23110D01*
X39956Y-23205D01*
X40678Y-23110D01*
X41262Y-22868D01*
X43000Y-24605D01*
X43459Y-24795D01*
X70999Y-24795D01*
X71458Y-24605D01*
X73052Y-23011D01*
X73290Y-23110D01*
X74012Y-23205D01*
X74734Y-23110D01*
X75407Y-22831D01*
X75984Y-22388D01*
X76428Y-21810D01*
X76605Y-21381D01*
X77147D01*
X77308Y-21770D01*
X77758Y-22220D01*
X78346Y-22464D01*
X78506D01*
X78968Y-22598D01*
Y-23234D01*
X79211Y-23822D01*
X79662Y-24272D01*
X80250Y-24516D01*
X80886D01*
X81474Y-24272D01*
X81924Y-23822D01*
X82168Y-23234D01*
Y-22598D01*
X81924Y-22009D01*
X81474Y-21559D01*
X80886Y-21316D01*
X80726D01*
X80264Y-21182D01*
Y-20545D01*
X80020Y-19957D01*
X79570Y-19507D01*
X79569Y-19501D01*
X79971Y-19099D01*
X80215Y-18511D01*
Y-17875D01*
X79971Y-17287D01*
X79521Y-16837D01*
X79465Y-16813D01*
X79276Y-16283D01*
X79473Y-15807D01*
Y-15171D01*
X79229Y-14583D01*
X78928Y-14282D01*
X79180Y-14031D01*
X79423Y-13443D01*
Y-12806D01*
X79180Y-12218D01*
X79028Y-12066D01*
X78796Y-11689D01*
X79028Y-11413D01*
X79229Y-11212D01*
X79473Y-10624D01*
Y-9988D01*
X79229Y-9399D01*
X78779Y-8949D01*
X78191Y-8706D01*
X77555D01*
X76966Y-8949D01*
X76516Y-9399D01*
X76322Y-9868D01*
X75822Y-9769D01*
Y-6792D01*
X75844Y-6775D01*
X76256Y-6238D01*
X76514Y-5613D01*
X76603Y-4943D01*
Y-612D01*
X76514Y59D01*
X76325Y516D01*
X76548Y925D01*
X76641Y1002D01*
X76994D01*
X77582Y1246D01*
X78032Y1696D01*
X78073Y1793D01*
X78614D01*
X78654Y1696D01*
X79104Y1246D01*
X79692Y1002D01*
X80329D01*
X80917Y1246D01*
X81367Y1696D01*
X81611Y2284D01*
Y2920D01*
X81367Y3508D01*
X80917Y3959D01*
X80329Y4202D01*
D02*
G37*
G36*
X180861Y-2844D02*
X179926D01*
X179022Y-3086D01*
X178212Y-3554D01*
X177551Y-4216D01*
X177083Y-5026D01*
X176841Y-5929D01*
Y-6865D01*
X177083Y-7769D01*
X177551Y-8579D01*
X178212Y-9240D01*
X179022Y-9708D01*
X179926Y-9950D01*
X180861D01*
X181765Y-9708D01*
X182575Y-9240D01*
X183237Y-8579D01*
X183705Y-7769D01*
X183947Y-6865D01*
Y-5929D01*
X183705Y-5026D01*
X183237Y-4216D01*
X182575Y-3554D01*
X181765Y-3086D01*
X180861Y-2844D01*
D02*
G37*
G36*
X88779Y-8269D02*
X88142D01*
X87554Y-8512D01*
X87104Y-8963D01*
X86861Y-9551D01*
Y-10187D01*
X87104Y-10775D01*
X87554Y-11225D01*
X88142Y-11469D01*
X88779D01*
X89367Y-11225D01*
X89817Y-10775D01*
X90061Y-10187D01*
Y-9551D01*
X89817Y-8963D01*
X89367Y-8512D01*
X88779Y-8269D01*
D02*
G37*
G36*
X6667Y-10218D02*
X6030D01*
X5442Y-10461D01*
X4992Y-10911D01*
X4748Y-11500D01*
Y-12136D01*
X4992Y-12724D01*
X5441Y-13173D01*
X5057Y-13558D01*
X4671Y-13172D01*
X4083Y-12929D01*
X3447D01*
X2859Y-13172D01*
X2409Y-13623D01*
X2165Y-14211D01*
Y-14847D01*
X2409Y-15435D01*
X2836Y-15862D01*
X2409Y-16289D01*
X2165Y-16877D01*
Y-17514D01*
X2409Y-18102D01*
X2859Y-18552D01*
X3447Y-18796D01*
X4083D01*
X4671Y-18552D01*
X5057Y-18167D01*
X5442Y-18552D01*
X6030Y-18796D01*
X6667D01*
X7255Y-18552D01*
X7640Y-18167D01*
X8025Y-18552D01*
X8613Y-18796D01*
X9250D01*
X9838Y-18552D01*
X10288Y-18102D01*
X10532Y-17514D01*
Y-16877D01*
X10288Y-16289D01*
X9838Y-15839D01*
X9977Y-15587D01*
X10016Y-15548D01*
X10259Y-14960D01*
Y-14323D01*
X10016Y-13735D01*
X9566Y-13285D01*
X8978Y-13041D01*
X8341D01*
X7920Y-13216D01*
X7637Y-12792D01*
X7705Y-12724D01*
X7948Y-12136D01*
Y-11500D01*
X7705Y-10911D01*
X7255Y-10461D01*
X6667Y-10218D01*
D02*
G37*
G36*
X122425Y-14587D02*
X121788D01*
X121200Y-14831D01*
X120943Y-15088D01*
X120686Y-14831D01*
X120098Y-14587D01*
X119462D01*
X118874Y-14831D01*
X118424Y-15281D01*
X118180Y-15869D01*
Y-16506D01*
X118424Y-17094D01*
X118761Y-17431D01*
X118424Y-17768D01*
X118180Y-18356D01*
Y-18993D01*
X118424Y-19581D01*
X118761Y-19918D01*
X118424Y-20255D01*
X118180Y-20843D01*
Y-21480D01*
X118424Y-22068D01*
X118874Y-22518D01*
X119462Y-22762D01*
X120098D01*
X120686Y-22518D01*
X121137Y-22068D01*
X121380Y-21480D01*
Y-20843D01*
X121287Y-20619D01*
X121670Y-20237D01*
X121788Y-20286D01*
X122425D01*
X122514Y-20248D01*
X122798Y-20672D01*
X122495Y-20976D01*
X122251Y-21564D01*
Y-22200D01*
X122495Y-22788D01*
X122854Y-23147D01*
X122897Y-23474D01*
X122844Y-23738D01*
X122472Y-24110D01*
X122228Y-24698D01*
Y-25335D01*
X122472Y-25923D01*
X122922Y-26373D01*
X123510Y-26617D01*
X124146D01*
X124735Y-26373D01*
X124954Y-26154D01*
X125280Y-25975D01*
X125607Y-26154D01*
X125826Y-26373D01*
X126414Y-26617D01*
X127051D01*
X127639Y-26373D01*
X128089Y-25923D01*
X128332Y-25335D01*
Y-24698D01*
X128089Y-24110D01*
X127639Y-23660D01*
Y-23147D01*
X128089Y-22697D01*
X128332Y-22109D01*
Y-21472D01*
X128089Y-20884D01*
X127639Y-20434D01*
X127051Y-20190D01*
X126414D01*
X125826Y-20434D01*
X125573Y-20687D01*
X125342Y-20869D01*
X124919Y-20687D01*
X124757Y-20525D01*
X124169Y-20282D01*
X123533D01*
X123443Y-20319D01*
X123160Y-19895D01*
X123463Y-19592D01*
X123707Y-19004D01*
Y-18367D01*
X123463Y-17779D01*
X123120Y-17436D01*
X123463Y-17094D01*
X123707Y-16506D01*
Y-15869D01*
X123463Y-15281D01*
X123013Y-14831D01*
X122425Y-14587D01*
D02*
G37*
G36*
X174825Y-19198D02*
X174188D01*
X173600Y-19441D01*
X173403Y-19639D01*
X173125Y-19875D01*
X172749Y-19639D01*
X172599Y-19489D01*
X172011Y-19245D01*
X171375D01*
X170787Y-19489D01*
X170336Y-19939D01*
X170093Y-20527D01*
Y-21164D01*
X170336Y-21752D01*
X170475Y-21890D01*
X170773Y-22217D01*
X170475Y-22543D01*
X170336Y-22682D01*
X170093Y-23270D01*
Y-23906D01*
X170336Y-24494D01*
X170787Y-24944D01*
X171375Y-25188D01*
X172011D01*
X172599Y-24944D01*
X172773Y-24770D01*
X173100Y-24531D01*
X173426Y-24770D01*
X173600Y-24944D01*
X174188Y-25188D01*
X174825D01*
X175413Y-24944D01*
X175863Y-24494D01*
X176107Y-23906D01*
Y-23270D01*
X175863Y-22682D01*
X175701Y-22519D01*
X175444Y-22193D01*
X175701Y-21866D01*
X175863Y-21704D01*
X176107Y-21116D01*
Y-20480D01*
X175863Y-19891D01*
X175413Y-19441D01*
X174825Y-19198D01*
D02*
G37*
G36*
X180861Y-16624D02*
X179926D01*
X179022Y-16866D01*
X178212Y-17334D01*
X177551Y-17996D01*
X177083Y-18806D01*
X176841Y-19710D01*
Y-20645D01*
X177083Y-21549D01*
X177551Y-22359D01*
X178212Y-23020D01*
X179022Y-23488D01*
X179926Y-23730D01*
X180861D01*
X181765Y-23488D01*
X182575Y-23020D01*
X183237Y-22359D01*
X183705Y-21549D01*
X183947Y-20645D01*
Y-19710D01*
X183705Y-18806D01*
X183237Y-17996D01*
X182575Y-17334D01*
X181765Y-16866D01*
X180861Y-16624D01*
D02*
G37*
%LPD*%
G36*
X70908Y2755D02*
X75173Y-1538D01*
Y-19972D01*
X70999Y-24146D01*
X43459Y-24146D01*
X40271Y-20957D01*
Y150D01*
X43073Y2934D01*
X70908Y2755D01*
D02*
G37*
%LPC*%
G36*
X68362Y-2830D02*
X67629Y-2976D01*
X67007Y-3391D01*
X66592Y-4013D01*
X66446Y-4746D01*
X66592Y-5480D01*
X67007Y-6101D01*
X67629Y-6517D01*
X68362Y-6663D01*
X69095Y-6517D01*
X69717Y-6101D01*
X70132Y-5480D01*
X70278Y-4746D01*
X70132Y-4013D01*
X69717Y-3391D01*
X69095Y-2976D01*
X68362Y-2830D01*
D02*
G37*
G36*
X45606D02*
X44873Y-2976D01*
X44251Y-3391D01*
X43835Y-4013D01*
X43690Y-4746D01*
X43835Y-5480D01*
X44251Y-6101D01*
X44873Y-6517D01*
X45606Y-6663D01*
X46339Y-6517D01*
X46961Y-6101D01*
X47376Y-5480D01*
X47522Y-4746D01*
X47376Y-4013D01*
X46961Y-3391D01*
X46339Y-2976D01*
X45606Y-2830D01*
D02*
G37*
G36*
X50618Y-3296D02*
X49994Y-3420D01*
X49464Y-3773D01*
X49111Y-4303D01*
X48987Y-4927D01*
X49111Y-5551D01*
X49464Y-6080D01*
X49994Y-6434D01*
X50618Y-6558D01*
X51242Y-6434D01*
X51479Y-6276D01*
X52059Y-6244D01*
X52588Y-6598D01*
X53213Y-6722D01*
X53837Y-6598D01*
X54366Y-6244D01*
X54415Y-6172D01*
X54737D01*
X55266Y-6526D01*
X55890Y-6650D01*
X56515Y-6526D01*
X56901Y-6267D01*
X57519Y-6292D01*
X57582Y-6388D01*
X58112Y-6741D01*
X58736Y-6865D01*
X59360Y-6741D01*
X59755Y-6478D01*
X60176Y-6209D01*
X60706Y-6563D01*
X61330Y-6687D01*
X61954Y-6563D01*
X62483Y-6209D01*
X62837Y-5680D01*
X62961Y-5055D01*
X62837Y-4431D01*
X62483Y-3902D01*
X61954Y-3548D01*
X61330Y-3424D01*
X60706Y-3548D01*
X60176Y-3902D01*
X59589Y-3880D01*
X59360Y-3727D01*
X58736Y-3603D01*
X58112Y-3727D01*
X57725Y-3985D01*
X57107Y-3960D01*
X57044Y-3865D01*
X56515Y-3511D01*
X55890Y-3387D01*
X55266Y-3511D01*
X54737Y-3865D01*
X54688Y-3937D01*
X54366D01*
X53837Y-3584D01*
X53213Y-3459D01*
X52588Y-3584D01*
X52059Y-3937D01*
X51630Y-3679D01*
X51242Y-3420D01*
X50618Y-3296D01*
D02*
G37*
G36*
X63637Y-6769D02*
X63012Y-6893D01*
X62483Y-7246D01*
X62130Y-7776D01*
X62005Y-8400D01*
X62130Y-9024D01*
X62483Y-9554D01*
X63012Y-9907D01*
X63637Y-10031D01*
X64261Y-9907D01*
X64790Y-9554D01*
X65144Y-9024D01*
X65268Y-8400D01*
X65144Y-7776D01*
X64790Y-7246D01*
X64261Y-6893D01*
X63637Y-6769D01*
D02*
G37*
G36*
X54915Y-7643D02*
X54291Y-7768D01*
X53762Y-8121D01*
X53408Y-8651D01*
X53284Y-9275D01*
X53408Y-9899D01*
X53762Y-10428D01*
X54291Y-10782D01*
X54915Y-10906D01*
X55539Y-10782D01*
X56069Y-10428D01*
X56422Y-9899D01*
X56546Y-9275D01*
X56422Y-8651D01*
X56069Y-8121D01*
X55539Y-7768D01*
X54915Y-7643D01*
D02*
G37*
%LPD*%
D71*
X180394Y120438D02*
D03*
D72*
X264252Y11991D02*
D03*
Y88369D02*
D03*
D73*
X39956Y-2777D02*
D03*
X74012D02*
D03*
D74*
X39956Y-19234D02*
D03*
X74012D02*
D03*
D76*
X0Y0D02*
D03*
X0Y100495D02*
D03*
D77*
X-6706Y14984D02*
D03*
X217096Y23728D02*
D03*
X220339Y26831D02*
D03*
X216218Y27126D02*
D03*
X213674Y36769D02*
D03*
X210157Y35803D02*
D03*
X217989Y37623D02*
D03*
X224851Y36769D02*
D03*
X221788D02*
D03*
X216361Y50697D02*
D03*
X206396Y51145D02*
D03*
X210157Y50150D02*
D03*
X212240Y77806D02*
D03*
X216520D02*
D03*
X241571Y82297D02*
D03*
X223633Y28071D02*
D03*
X237086Y44733D02*
D03*
X225028Y77924D02*
D03*
X223868Y75115D02*
D03*
X156496Y89751D02*
D03*
X53957Y5193D02*
D03*
X12559Y2598D02*
D03*
X-13025Y20203D02*
D03*
X153517Y30349D02*
D03*
X156126Y27740D02*
D03*
X154882Y36636D02*
D03*
X238858Y4724D02*
D03*
X250121Y5074D02*
D03*
X255276Y5236D02*
D03*
X241412Y6355D02*
D03*
X244484Y73040D02*
D03*
X244297Y78354D02*
D03*
X239685Y84961D02*
D03*
X226476Y81614D02*
D03*
X219048Y86207D02*
D03*
X216361Y89229D02*
D03*
X221735Y77806D02*
D03*
X220897Y81614D02*
D03*
X214803D02*
D03*
X212240Y86207D02*
D03*
X244484Y39963D02*
D03*
Y45476D02*
D03*
X239543Y40157D02*
D03*
X233347Y42166D02*
D03*
X220512Y52205D02*
D03*
X229930Y42166D02*
D03*
X225660Y40157D02*
D03*
X227059Y44233D02*
D03*
X215662Y47264D02*
D03*
X212540Y39496D02*
D03*
X214764Y43386D02*
D03*
X221256Y40890D02*
D03*
X223274Y44349D02*
D03*
X224811Y46545D02*
D03*
X223071Y49904D02*
D03*
X220507Y47846D02*
D03*
X218725Y44733D02*
D03*
X217096Y40157D02*
D03*
X211438Y42166D02*
D03*
X212402Y46330D02*
D03*
X213077Y49942D02*
D03*
X212402Y26222D02*
D03*
X207951Y20038D02*
D03*
X203486Y16417D02*
D03*
X189981Y11280D02*
D03*
X183688Y15456D02*
D03*
X189981Y16417D02*
D03*
X187477Y9604D02*
D03*
Y13927D02*
D03*
X194253Y14973D02*
D03*
X198134Y15456D02*
D03*
X203526Y12527D02*
D03*
X224432Y22740D02*
D03*
X220651Y22108D02*
D03*
X240103Y20910D02*
D03*
X229944Y18787D02*
D03*
X241497Y17894D02*
D03*
X236922Y17165D02*
D03*
X233347Y18787D02*
D03*
Y10095D02*
D03*
X238671Y14200D02*
D03*
X232079Y12527D02*
D03*
X232127Y5254D02*
D03*
X244484Y28937D02*
D03*
X243327Y22740D02*
D03*
X244724Y26222D02*
D03*
X245784Y20486D02*
D03*
X244484Y31694D02*
D03*
Y42719D02*
D03*
Y37206D02*
D03*
Y34450D02*
D03*
X217096Y20432D02*
D03*
X227539Y15799D02*
D03*
X223633Y18787D02*
D03*
X227587Y21634D02*
D03*
X219054Y15681D02*
D03*
X207008Y16417D02*
D03*
X212798Y17036D02*
D03*
X212540Y22108D02*
D03*
X34660Y109166D02*
D03*
X33287Y105337D02*
D03*
X34102Y116769D02*
D03*
X28597Y117546D02*
D03*
X180954Y20038D02*
D03*
Y25238D02*
D03*
X198134D02*
D03*
X184390Y20038D02*
D03*
X191262D02*
D03*
X187826D02*
D03*
X142873Y94329D02*
D03*
X148804Y95753D02*
D03*
X147500Y89342D02*
D03*
X142677Y80250D02*
D03*
X142747Y91780D02*
D03*
X143507Y62730D02*
D03*
X142367Y85700D02*
D03*
X200359Y32660D02*
D03*
X207951Y26222D02*
D03*
X203526Y32660D02*
D03*
X193009Y11280D02*
D03*
X194802Y20038D02*
D03*
X203526Y21797D02*
D03*
X192024Y32660D02*
D03*
X227886Y31159D02*
D03*
X193268Y6208D02*
D03*
X187477Y5590D02*
D03*
X199524Y4853D02*
D03*
X134290Y54910D02*
D03*
Y39060D02*
D03*
X149557Y273D02*
D03*
X146166Y1281D02*
D03*
X146253Y-1060D02*
D03*
X141026Y120010D02*
D03*
X159276Y120975D02*
D03*
X48370Y109166D02*
D03*
X12652Y90520D02*
D03*
X6214Y84954D02*
D03*
X18933Y96011D02*
D03*
X-202Y-16230D02*
D03*
X13750Y32D02*
D03*
X244484Y64771D02*
D03*
Y67527D02*
D03*
X203780Y29488D02*
D03*
X224851Y30786D02*
D03*
X207951Y43488D02*
D03*
X181780Y55433D02*
D03*
X221381Y72371D02*
D03*
X218773D02*
D03*
X244484Y70284D02*
D03*
X210157Y28071D02*
D03*
X187826Y25238D02*
D03*
X16134Y41298D02*
D03*
X-13823Y27223D02*
D03*
X-17079Y13757D02*
D03*
X-2034Y53614D02*
D03*
X681Y55136D02*
D03*
X-5334Y112344D02*
D03*
X-7423Y110744D02*
D03*
X-10046Y108744D02*
D03*
X-12224Y107010D02*
D03*
X-14224Y105099D02*
D03*
X-24787Y19180D02*
D03*
X-24768Y16504D02*
D03*
X-24816Y13947D02*
D03*
X-24794Y11424D02*
D03*
X-2803Y-14962D02*
D03*
X-6283Y-12756D02*
D03*
X-8770Y-10566D02*
D03*
X-11682Y-8081D02*
D03*
X-14361Y-5868D02*
D03*
X17254Y76868D02*
D03*
X-19154Y-767D02*
D03*
X-16610Y-3438D02*
D03*
X-21763Y2443D02*
D03*
X-2217Y18969D02*
D03*
X-594Y38771D02*
D03*
X-17647Y68842D02*
D03*
X-13723Y75509D02*
D03*
X-14683Y42587D02*
D03*
X78073Y-426D02*
D03*
X-12972Y47816D02*
D03*
X24974Y19742D02*
D03*
X-2018Y61372D02*
D03*
X159863Y-26560D02*
D03*
X148669D02*
D03*
X137795D02*
D03*
Y-23682D02*
D03*
X121095Y-26760D02*
D03*
X244484Y56502D02*
D03*
X69022Y92420D02*
D03*
X26267Y80272D02*
D03*
X27005Y90482D02*
D03*
X64201Y93263D02*
D03*
X-1677Y56803D02*
D03*
X-2386Y77316D02*
D03*
X-6003Y85814D02*
D03*
X-3189Y83200D02*
D03*
X-14809Y59141D02*
D03*
X108780Y-26760D02*
D03*
X108299Y126105D02*
D03*
X104657Y125979D02*
D03*
X56463Y109321D02*
D03*
X33565Y87611D02*
D03*
X34691Y94320D02*
D03*
X32248Y45275D02*
D03*
X31767Y28912D02*
D03*
X56165Y41881D02*
D03*
X56307Y73598D02*
D03*
X10645Y49854D02*
D03*
X2925Y49192D02*
D03*
X43074Y7008D02*
D03*
X-16396Y103281D02*
D03*
X-18240Y100783D02*
D03*
X-20930Y98440D02*
D03*
X-22621Y96288D02*
D03*
X-3010Y114054D02*
D03*
X-848Y115814D02*
D03*
X1977Y117022D02*
D03*
X4336Y118432D02*
D03*
X6695Y119430D02*
D03*
X9274Y120597D02*
D03*
X11585Y121668D02*
D03*
X14236Y122641D02*
D03*
X80685Y115571D02*
D03*
X-11201Y68266D02*
D03*
X62795Y7008D02*
D03*
X173524Y121897D02*
D03*
X172295Y112842D02*
D03*
X183508Y115928D02*
D03*
X185280Y111558D02*
D03*
X185476Y101798D02*
D03*
X180053Y99040D02*
D03*
X174605Y108922D02*
D03*
X185476Y95019D02*
D03*
X207205D02*
D03*
X226476Y92752D02*
D03*
X220897Y93944D02*
D03*
X223353Y95640D02*
D03*
X227244Y87267D02*
D03*
X224287Y87951D02*
D03*
X212240Y93342D02*
D03*
X216520Y95350D02*
D03*
X211639Y95808D02*
D03*
X203453Y95019D02*
D03*
X198247Y95570D02*
D03*
X194437D02*
D03*
X188980Y95019D02*
D03*
X183508Y97168D02*
D03*
X178965Y101798D02*
D03*
X161240Y117893D02*
D03*
X164370Y112680D02*
D03*
X169087Y109058D02*
D03*
X172295Y106924D02*
D03*
X164370Y120975D02*
D03*
X172740Y117893D02*
D03*
X169087Y120975D02*
D03*
X169890Y126397D02*
D03*
X162626Y125857D02*
D03*
X158034Y125931D02*
D03*
X166500Y115873D02*
D03*
X169087Y112842D02*
D03*
X156760Y71256D02*
D03*
Y75382D02*
D03*
X158085Y79699D02*
D03*
X160315Y82716D02*
D03*
X163360Y83678D02*
D03*
X162409Y86810D02*
D03*
X156610Y92361D02*
D03*
X154516Y94239D02*
D03*
X152567Y96381D02*
D03*
X244484Y48232D02*
D03*
Y50989D02*
D03*
X189245Y32660D02*
D03*
X226463Y11188D02*
D03*
X205827Y23898D02*
D03*
X194698Y25238D02*
D03*
X223996Y52470D02*
D03*
X172981Y72087D02*
D03*
X224813Y55309D02*
D03*
X212402Y30315D02*
D03*
X191262Y25238D02*
D03*
X238858Y9393D02*
D03*
X228406Y7609D02*
D03*
X235803Y6743D02*
D03*
X209323Y11188D02*
D03*
X204102Y7960D02*
D03*
X208008Y4972D02*
D03*
X200984Y27126D02*
D03*
X201681Y20038D02*
D03*
X206396Y32660D02*
D03*
X198134Y20038D02*
D03*
X197565Y9604D02*
D03*
X194802Y32660D02*
D03*
X197580D02*
D03*
X244484Y53745D02*
D03*
X221735Y55433D02*
D03*
X239199Y79370D02*
D03*
X244484Y62014D02*
D03*
Y59258D02*
D03*
X241992Y79370D02*
D03*
X244484Y75797D02*
D03*
X228706Y79370D02*
D03*
X223885Y72276D02*
D03*
X180408Y75354D02*
D03*
X175353Y32660D02*
D03*
X183688D02*
D03*
X186467D02*
D03*
X207951Y39496D02*
D03*
X184390Y25238D02*
D03*
X219048Y55433D02*
D03*
X200670Y51145D02*
D03*
X197491Y49845D02*
D03*
X194434Y49814D02*
D03*
X191377Y49845D02*
D03*
X188321D02*
D03*
X185264D02*
D03*
X182207D02*
D03*
X179151D02*
D03*
X175914Y55433D02*
D03*
X139401Y114596D02*
D03*
X142747Y106739D02*
D03*
X139673Y111239D02*
D03*
X145851Y102210D02*
D03*
X142993Y103944D02*
D03*
X150662Y98392D02*
D03*
X141874Y109412D02*
D03*
X148331Y100385D02*
D03*
X49443Y66256D02*
D03*
Y73770D02*
D03*
X129457Y107746D02*
D03*
X108898Y999D02*
D03*
X-23860Y5565D02*
D03*
X63954Y115377D02*
D03*
X3319Y28617D02*
D03*
X35157Y67320D02*
D03*
X35357Y64170D02*
D03*
X154753Y-26560D02*
D03*
X168992Y-9845D02*
D03*
Y-13502D02*
D03*
X172094Y-13540D02*
D03*
X94061Y-9640D02*
D03*
X91489Y-11512D02*
D03*
X176094Y49920D02*
D03*
X173037D02*
D03*
X81557Y-19751D02*
D03*
X78051Y-3784D02*
D03*
X96852Y-10791D02*
D03*
X100472Y-26760D02*
D03*
X85052D02*
D03*
X88145D02*
D03*
X97677D02*
D03*
X120778Y219D02*
D03*
X123819D02*
D03*
X120778Y-3168D02*
D03*
X123819D02*
D03*
X9258Y-2450D02*
D03*
X12216D02*
D03*
X9405Y1576D02*
D03*
X15637Y-6549D02*
D03*
X64957Y64836D02*
D03*
X141138Y116514D02*
D03*
X181780Y72087D02*
D03*
X175914D02*
D03*
X90739Y21275D02*
D03*
X77571Y21587D02*
D03*
X160757Y49920D02*
D03*
X163867Y50010D02*
D03*
X166924Y50030D02*
D03*
X169981Y50010D02*
D03*
X156331Y41877D02*
D03*
X180910Y32660D02*
D03*
X178131D02*
D03*
X177518Y25238D02*
D03*
X174082D02*
D03*
X172981Y55433D02*
D03*
X178847D02*
D03*
X129457Y102309D02*
D03*
Y105027D02*
D03*
Y99590D02*
D03*
Y88734D02*
D03*
Y86015D02*
D03*
Y83297D02*
D03*
Y91452D02*
D03*
Y61414D02*
D03*
Y69569D02*
D03*
Y72288D02*
D03*
X120197Y35800D02*
D03*
X129776Y55030D02*
D03*
X129457Y30025D02*
D03*
Y27306D02*
D03*
Y24588D02*
D03*
Y32743D02*
D03*
X116557Y108664D02*
D03*
Y100509D02*
D03*
Y105946D02*
D03*
Y97790D02*
D03*
Y78778D02*
D03*
Y86934D02*
D03*
Y84215D02*
D03*
Y89652D02*
D03*
Y59614D02*
D03*
Y67769D02*
D03*
Y65051D02*
D03*
Y70488D02*
D03*
Y40756D02*
D03*
Y48912D02*
D03*
Y43475D02*
D03*
Y51630D02*
D03*
Y22070D02*
D03*
Y30225D02*
D03*
Y27506D02*
D03*
Y32943D02*
D03*
X103957Y108764D02*
D03*
Y100609D02*
D03*
Y106045D02*
D03*
Y97890D02*
D03*
Y78878D02*
D03*
Y87034D02*
D03*
Y84315D02*
D03*
Y89752D02*
D03*
Y40857D02*
D03*
Y49012D02*
D03*
Y43575D02*
D03*
Y51730D02*
D03*
Y30325D02*
D03*
Y27606D02*
D03*
Y33043D02*
D03*
X90657Y109064D02*
D03*
Y100909D02*
D03*
Y106345D02*
D03*
Y98190D02*
D03*
Y79179D02*
D03*
Y87334D02*
D03*
Y84615D02*
D03*
Y90052D02*
D03*
Y60014D02*
D03*
Y68169D02*
D03*
Y65451D02*
D03*
Y70888D02*
D03*
Y41157D02*
D03*
Y49312D02*
D03*
Y43875D02*
D03*
Y52030D02*
D03*
X90713Y29498D02*
D03*
X90657Y25188D02*
D03*
X77571Y34625D02*
D03*
X77657Y25294D02*
D03*
X77727Y29680D02*
D03*
X77657Y52136D02*
D03*
Y43981D02*
D03*
Y49417D02*
D03*
Y41262D02*
D03*
Y70993D02*
D03*
Y65557D02*
D03*
Y68275D02*
D03*
Y60120D02*
D03*
Y90158D02*
D03*
Y84721D02*
D03*
Y87440D02*
D03*
Y79284D02*
D03*
Y98296D02*
D03*
Y103733D02*
D03*
Y101014D02*
D03*
X48370Y126897D02*
D03*
X44929Y126940D02*
D03*
X41734Y126897D02*
D03*
X38181D02*
D03*
X34142Y126940D02*
D03*
X30703Y126726D02*
D03*
X27404Y126237D02*
D03*
X23844Y125389D02*
D03*
X20463Y124513D02*
D03*
X17082Y123613D02*
D03*
X-24465Y93905D02*
D03*
X-16404Y97207D02*
D03*
X-24768Y8749D02*
D03*
X64957Y40543D02*
D03*
Y43236D02*
D03*
Y29770D02*
D03*
X64804Y33592D02*
D03*
X64757Y36670D02*
D03*
X64957Y67529D02*
D03*
Y48770D02*
D03*
Y51463D02*
D03*
Y58970D02*
D03*
X65057Y83143D02*
D03*
Y85836D02*
D03*
Y88529D02*
D03*
Y70270D02*
D03*
Y72963D02*
D03*
Y80170D02*
D03*
X64677Y109576D02*
D03*
X158960Y36489D02*
D03*
X157320Y38753D02*
D03*
X141026Y125821D02*
D03*
Y122915D02*
D03*
X156773Y45338D02*
D03*
X158908Y47291D02*
D03*
X158792Y60844D02*
D03*
X158085Y64142D02*
D03*
X158749Y67363D02*
D03*
X178847Y72087D02*
D03*
X172575Y32660D02*
D03*
D78*
X145610Y99512D02*
D03*
X143267Y54770D02*
D03*
X142967Y29830D02*
D03*
X142677Y73720D02*
D03*
X139673Y94239D02*
D03*
X133890Y94449D02*
D03*
X110557Y36670D02*
D03*
X84386Y36770D02*
D03*
X90929D02*
D03*
X104014Y36670D02*
D03*
X97471Y36770D02*
D03*
X71300Y36670D02*
D03*
X129527D02*
D03*
X117040D02*
D03*
X123255D02*
D03*
X113357Y54970D02*
D03*
X87186Y55070D02*
D03*
X93729D02*
D03*
X106814Y54970D02*
D03*
X100271Y55070D02*
D03*
X80643Y54970D02*
D03*
X74100D02*
D03*
X67557D02*
D03*
X118927Y55110D02*
D03*
X126453Y56970D02*
D03*
X113758Y76166D02*
D03*
X87587Y76266D02*
D03*
X94130D02*
D03*
X107216Y76166D02*
D03*
X100673Y76266D02*
D03*
X81044Y76166D02*
D03*
X74501D02*
D03*
X67958D02*
D03*
X130687Y76590D02*
D03*
X120241Y76166D02*
D03*
X126456D02*
D03*
X76803Y94468D02*
D03*
X129755Y94370D02*
D03*
X123540D02*
D03*
X71257D02*
D03*
X84343D02*
D03*
X103971Y94470D02*
D03*
X110514Y94370D02*
D03*
X97429Y94470D02*
D03*
X90886D02*
D03*
X117057Y94370D02*
D03*
M02*
