G04*
G04 #@! TF.GenerationSoftware,Altium Limited,Altium Designer,22.8.2 (66)*
G04*
G04 Layer_Color=32896*
%FSLAX25Y25*%
%MOIN*%
G70*
G04*
G04 #@! TF.SameCoordinates,6BB00AFB-5455-402A-A2EE-A29BA1A7275C*
G04*
G04*
G04 #@! TF.FilePolarity,Positive*
G04*
G01*
G75*
%ADD10C,0.00500*%
%ADD12C,0.00787*%
%ADD13C,0.01181*%
%ADD14C,0.00602*%
%ADD15C,0.00394*%
%ADD17R,0.08791X0.03543*%
%ADD65C,0.01000*%
%ADD134C,0.03937*%
%ADD135C,0.00701*%
%ADD136R,0.08791X0.03543*%
G36*
X25895Y-857D02*
X25732D01*
Y148D01*
X25062Y-857D01*
X24886D01*
Y424D01*
X25049D01*
Y-583D01*
X25721Y424D01*
X25895D01*
Y-857D01*
D02*
G37*
G36*
X30845D02*
X30668D01*
X30397Y118D01*
X30390Y143D01*
X30385Y168D01*
X30377Y194D01*
X30372Y216D01*
X30366Y237D01*
X30362Y253D01*
X30360Y265D01*
X30359Y266D01*
Y268D01*
X30357Y263D01*
X30355Y253D01*
X30349Y233D01*
X30342Y209D01*
X30335Y183D01*
X30329Y159D01*
X30323Y139D01*
X30322Y129D01*
X30320Y124D01*
X30318Y120D01*
Y118D01*
X30050Y-857D01*
X29883D01*
X29532Y424D01*
X29704D01*
X29904Y-400D01*
X29918Y-457D01*
X29930Y-509D01*
X29941Y-557D01*
X29950Y-598D01*
X29955Y-616D01*
X29957Y-633D01*
X29961Y-646D01*
X29963Y-657D01*
X29967Y-666D01*
Y-673D01*
X29968Y-677D01*
Y-679D01*
X29981Y-598D01*
X29998Y-518D01*
X30015Y-442D01*
X30022Y-407D01*
X30031Y-372D01*
X30039Y-340D01*
X30046Y-313D01*
X30053Y-289D01*
X30059Y-266D01*
X30063Y-250D01*
X30066Y-237D01*
X30070Y-228D01*
Y-226D01*
X30251Y424D01*
X30457D01*
X30699Y-442D01*
X30701Y-450D01*
X30705Y-461D01*
X30708Y-475D01*
X30712Y-492D01*
X30718Y-511D01*
X30721Y-531D01*
X30732Y-572D01*
X30742Y-612D01*
X30747Y-631D01*
X30751Y-646D01*
X30753Y-660D01*
X30756Y-670D01*
X30758Y-677D01*
Y-679D01*
X30768Y-631D01*
X30777Y-583D01*
X30786Y-538D01*
X30795Y-500D01*
X30799Y-481D01*
X30803Y-464D01*
X30806Y-451D01*
X30808Y-438D01*
X30810Y-429D01*
X30812Y-422D01*
X30814Y-418D01*
Y-416D01*
X31004Y424D01*
X31180D01*
X30845Y-857D01*
D02*
G37*
G36*
X33646D02*
X33476D01*
Y-337D01*
X33149D01*
X33100Y-335D01*
X33054Y-331D01*
X33013Y-326D01*
X32976Y-318D01*
X32941Y-311D01*
X32912Y-301D01*
X32884Y-290D01*
X32860Y-279D01*
X32840Y-270D01*
X32821Y-259D01*
X32806Y-250D01*
X32795Y-240D01*
X32786Y-235D01*
X32780Y-229D01*
X32777Y-226D01*
X32775Y-224D01*
X32756Y-202D01*
X32740Y-179D01*
X32727Y-157D01*
X32714Y-133D01*
X32703Y-109D01*
X32695Y-87D01*
X32682Y-44D01*
X32679Y-24D01*
X32675Y-6D01*
X32673Y11D01*
X32671Y24D01*
X32669Y37D01*
Y44D01*
Y50D01*
Y52D01*
X32671Y87D01*
X32675Y120D01*
X32682Y150D01*
X32688Y176D01*
X32695Y198D01*
X32703Y215D01*
X32706Y224D01*
X32708Y228D01*
X32723Y255D01*
X32741Y279D01*
X32758Y302D01*
X32775Y318D01*
X32790Y331D01*
X32801Y342D01*
X32808Y348D01*
X32812Y350D01*
X32836Y365D01*
X32864Y377D01*
X32890Y389D01*
X32914Y398D01*
X32936Y403D01*
X32952Y407D01*
X32965Y411D01*
X32969D01*
X32997Y414D01*
X33028Y418D01*
X33062Y420D01*
X33093Y422D01*
X33121Y424D01*
X33646D01*
Y-857D01*
D02*
G37*
G36*
X29371D02*
X28414D01*
Y-705D01*
X29201D01*
Y-270D01*
X28492D01*
Y-118D01*
X29201D01*
Y272D01*
X28444D01*
Y424D01*
X29371D01*
Y-857D01*
D02*
G37*
G36*
X28177D02*
X28007D01*
Y-289D01*
X27789D01*
X27769Y-290D01*
X27754D01*
X27741Y-292D01*
X27732Y-294D01*
X27724D01*
X27721Y-296D01*
X27719D01*
X27689Y-305D01*
X27676Y-311D01*
X27665Y-316D01*
X27654Y-322D01*
X27647Y-326D01*
X27643Y-327D01*
X27641Y-329D01*
X27626Y-340D01*
X27611Y-353D01*
X27584Y-381D01*
X27571Y-394D01*
X27562Y-405D01*
X27556Y-412D01*
X27554Y-414D01*
X27536Y-440D01*
X27515Y-468D01*
X27495Y-498D01*
X27474Y-525D01*
X27458Y-551D01*
X27445Y-572D01*
X27439Y-579D01*
X27436Y-585D01*
X27432Y-588D01*
Y-590D01*
X27264Y-857D01*
X27053D01*
X27273Y-509D01*
X27299Y-472D01*
X27323Y-438D01*
X27347Y-411D01*
X27367Y-385D01*
X27386Y-366D01*
X27400Y-351D01*
X27410Y-342D01*
X27413Y-338D01*
X27428Y-327D01*
X27445Y-314D01*
X27478Y-294D01*
X27493Y-287D01*
X27504Y-279D01*
X27512Y-276D01*
X27515Y-274D01*
X27482Y-268D01*
X27450Y-263D01*
X27423Y-253D01*
X27395Y-246D01*
X27371Y-237D01*
X27349Y-226D01*
X27328Y-216D01*
X27310Y-207D01*
X27295Y-196D01*
X27280Y-187D01*
X27269Y-179D01*
X27260Y-172D01*
X27253Y-166D01*
X27247Y-161D01*
X27245Y-159D01*
X27243Y-157D01*
X27229Y-139D01*
X27214Y-120D01*
X27191Y-81D01*
X27177Y-43D01*
X27166Y-6D01*
X27158Y26D01*
X27156Y39D01*
Y52D01*
X27154Y61D01*
Y68D01*
Y72D01*
Y74D01*
X27156Y113D01*
X27162Y148D01*
X27171Y181D01*
X27180Y209D01*
X27191Y233D01*
X27199Y252D01*
X27206Y263D01*
X27208Y265D01*
Y266D01*
X27230Y296D01*
X27253Y322D01*
X27277Y344D01*
X27299Y361D01*
X27319Y374D01*
X27336Y381D01*
X27347Y387D01*
X27349Y389D01*
X27351D01*
X27367Y394D01*
X27388Y400D01*
X27428Y409D01*
X27473Y414D01*
X27513Y420D01*
X27552Y422D01*
X27569D01*
X27584Y424D01*
X28177D01*
Y-857D01*
D02*
G37*
G36*
X26363D02*
X26193D01*
Y424D01*
X26363D01*
Y-857D01*
D02*
G37*
G36*
X31942Y444D02*
X31988Y439D01*
X32033Y429D01*
X32076Y418D01*
X32114Y403D01*
X32151Y389D01*
X32185Y372D01*
X32214Y355D01*
X32242Y339D01*
X32266Y322D01*
X32286Y307D01*
X32303Y292D01*
X32316Y281D01*
X32327Y272D01*
X32333Y266D01*
X32335Y265D01*
X32364Y229D01*
X32390Y192D01*
X32414Y152D01*
X32432Y111D01*
X32449Y68D01*
X32464Y28D01*
X32475Y-13D01*
X32482Y-52D01*
X32490Y-89D01*
X32495Y-124D01*
X32499Y-155D01*
X32503Y-181D01*
Y-203D01*
X32505Y-220D01*
Y-231D01*
Y-233D01*
Y-235D01*
X32501Y-298D01*
X32494Y-355D01*
X32482Y-411D01*
X32475Y-435D01*
X32468Y-459D01*
X32462Y-479D01*
X32455Y-498D01*
X32449Y-514D01*
X32444Y-529D01*
X32440Y-540D01*
X32436Y-548D01*
X32432Y-553D01*
Y-555D01*
X32401Y-609D01*
X32368Y-655D01*
X32331Y-696D01*
X32296Y-729D01*
X32264Y-757D01*
X32251Y-768D01*
X32240Y-775D01*
X32229Y-783D01*
X32222Y-788D01*
X32218Y-790D01*
X32216Y-792D01*
X32188Y-807D01*
X32161Y-819D01*
X32105Y-842D01*
X32051Y-857D01*
X32002Y-868D01*
X31977Y-871D01*
X31957Y-873D01*
X31939Y-877D01*
X31922D01*
X31911Y-879D01*
X31892D01*
X31831Y-875D01*
X31774Y-866D01*
X31720Y-855D01*
X31696Y-847D01*
X31674Y-840D01*
X31654Y-833D01*
X31635Y-825D01*
X31620Y-819D01*
X31607Y-814D01*
X31596Y-808D01*
X31587Y-805D01*
X31583Y-801D01*
X31582D01*
X31530Y-768D01*
X31485Y-731D01*
X31448Y-692D01*
X31417Y-655D01*
X31391Y-620D01*
X31382Y-607D01*
X31374Y-594D01*
X31367Y-583D01*
X31363Y-575D01*
X31359Y-570D01*
Y-568D01*
X31345Y-538D01*
X31334Y-509D01*
X31313Y-450D01*
X31299Y-390D01*
X31289Y-337D01*
X31287Y-313D01*
X31284Y-290D01*
X31282Y-270D01*
Y-253D01*
X31280Y-239D01*
Y-229D01*
Y-222D01*
Y-220D01*
X31284Y-150D01*
X31291Y-85D01*
X31297Y-55D01*
X31304Y-26D01*
X31311Y0D01*
X31317Y24D01*
X31324Y46D01*
X31332Y67D01*
X31337Y83D01*
X31345Y98D01*
X31348Y109D01*
X31352Y117D01*
X31356Y122D01*
Y124D01*
X31385Y178D01*
X31421Y226D01*
X31458Y266D01*
X31491Y300D01*
X31522Y326D01*
X31537Y337D01*
X31548Y346D01*
X31559Y351D01*
X31567Y357D01*
X31570Y359D01*
X31572Y361D01*
X31600Y376D01*
X31628Y389D01*
X31681Y411D01*
X31737Y426D01*
X31785Y435D01*
X31807Y439D01*
X31829Y442D01*
X31846Y444D01*
X31863D01*
X31876Y446D01*
X31892D01*
X31942Y444D01*
D02*
G37*
%LPC*%
G36*
X33476Y272D02*
X33110D01*
X33076Y270D01*
X33049Y268D01*
X33026Y266D01*
X33012Y263D01*
X33000Y261D01*
X32993Y259D01*
X32991D01*
X32967Y250D01*
X32947Y239D01*
X32928Y228D01*
X32912Y215D01*
X32901Y202D01*
X32891Y192D01*
X32886Y185D01*
X32884Y183D01*
X32871Y161D01*
X32860Y139D01*
X32853Y115D01*
X32849Y94D01*
X32845Y76D01*
X32843Y59D01*
Y50D01*
Y48D01*
Y46D01*
X32847Y7D01*
X32854Y-26D01*
X32865Y-55D01*
X32878Y-79D01*
X32891Y-98D01*
X32902Y-113D01*
X32910Y-120D01*
X32914Y-124D01*
X32926Y-135D01*
X32943Y-144D01*
X32978Y-159D01*
X33017Y-170D01*
X33056Y-178D01*
X33091Y-181D01*
X33106Y-183D01*
X33119D01*
X33132Y-185D01*
X33476D01*
Y272D01*
D02*
G37*
G36*
X28007Y281D02*
X27604D01*
X27554Y279D01*
X27512Y272D01*
X27474Y263D01*
X27447Y252D01*
X27423Y240D01*
X27408Y231D01*
X27399Y224D01*
X27395Y222D01*
X27373Y198D01*
X27356Y174D01*
X27345Y148D01*
X27336Y126D01*
X27332Y104D01*
X27330Y87D01*
X27328Y76D01*
Y74D01*
Y72D01*
X27330Y50D01*
X27334Y28D01*
X27340Y9D01*
X27345Y-7D01*
X27352Y-22D01*
X27358Y-33D01*
X27362Y-41D01*
X27363Y-43D01*
X27376Y-61D01*
X27393Y-78D01*
X27410Y-91D01*
X27426Y-102D01*
X27441Y-109D01*
X27452Y-115D01*
X27460Y-118D01*
X27463Y-120D01*
X27489Y-128D01*
X27519Y-133D01*
X27549Y-137D01*
X27578Y-139D01*
X27604Y-141D01*
X27626Y-142D01*
X28007D01*
Y281D01*
D02*
G37*
G36*
X31909Y300D02*
X31892D01*
X31846Y298D01*
X31802Y291D01*
X31763Y279D01*
X31730Y268D01*
X31702Y255D01*
X31691Y250D01*
X31681Y246D01*
X31672Y240D01*
X31667Y239D01*
X31665Y235D01*
X31663D01*
X31628Y209D01*
X31596Y180D01*
X31569Y150D01*
X31546Y120D01*
X31530Y94D01*
X31517Y72D01*
X31513Y65D01*
X31509Y59D01*
X31508Y55D01*
Y54D01*
X31489Y9D01*
X31476Y-39D01*
X31467Y-83D01*
X31461Y-126D01*
X31458Y-146D01*
X31456Y-163D01*
Y-179D01*
X31454Y-192D01*
Y-203D01*
Y-211D01*
Y-216D01*
Y-218D01*
X31456Y-263D01*
X31459Y-305D01*
X31465Y-346D01*
X31472Y-383D01*
X31484Y-416D01*
X31493Y-448D01*
X31504Y-477D01*
X31515Y-503D01*
X31528Y-525D01*
X31539Y-546D01*
X31548Y-562D01*
X31558Y-575D01*
X31567Y-586D01*
X31572Y-596D01*
X31576Y-599D01*
X31578Y-601D01*
X31602Y-625D01*
X31628Y-646D01*
X31654Y-662D01*
X31680Y-679D01*
X31705Y-692D01*
X31733Y-701D01*
X31757Y-710D01*
X31783Y-718D01*
X31805Y-723D01*
X31828Y-727D01*
X31846Y-731D01*
X31863Y-733D01*
X31876D01*
X31885Y-734D01*
X31894D01*
X31929Y-733D01*
X31963Y-729D01*
X31992Y-722D01*
X32022Y-714D01*
X32050Y-703D01*
X32076Y-692D01*
X32100Y-681D01*
X32122Y-668D01*
X32140Y-655D01*
X32157Y-644D01*
X32172Y-633D01*
X32185Y-622D01*
X32194Y-614D01*
X32201Y-607D01*
X32205Y-603D01*
X32207Y-601D01*
X32229Y-575D01*
X32247Y-548D01*
X32264Y-518D01*
X32279Y-488D01*
X32290Y-457D01*
X32301Y-427D01*
X32316Y-368D01*
X32320Y-342D01*
X32323Y-316D01*
X32327Y-294D01*
X32329Y-276D01*
X32331Y-259D01*
Y-246D01*
Y-239D01*
Y-237D01*
X32329Y-185D01*
X32325Y-137D01*
X32320Y-91D01*
X32310Y-50D01*
X32301Y-13D01*
X32290Y20D01*
X32277Y52D01*
X32266Y78D01*
X32253Y102D01*
X32242Y122D01*
X32231Y139D01*
X32222Y152D01*
X32212Y163D01*
X32207Y170D01*
X32203Y174D01*
X32201Y176D01*
X32177Y198D01*
X32151Y216D01*
X32125Y233D01*
X32098Y248D01*
X32072Y259D01*
X32046Y270D01*
X31998Y285D01*
X31976Y289D01*
X31955Y292D01*
X31939Y296D01*
X31922Y298D01*
X31909Y300D01*
D02*
G37*
%LPD*%
D10*
X183586Y-28177D02*
Y-24177D01*
X181193Y-26216D02*
X185693D01*
X184252Y-2677D02*
Y1323D01*
Y124158D02*
Y128158D01*
X181193Y100619D02*
X185693D01*
X183586Y98658D02*
Y102658D01*
X149341Y-7956D02*
X154065D01*
X149341Y-15397D02*
X154065D01*
X155727Y122856D02*
X166734D01*
Y117951D02*
Y122856D01*
X40750D02*
X53333D01*
X40750Y117951D02*
Y122856D01*
X166734Y8683D02*
Y13589D01*
X155727Y8683D02*
X166734D01*
X40626Y7093D02*
X53209D01*
X27600Y-12311D02*
Y-7193D01*
X20120Y-12311D02*
Y-7193D01*
X135433Y-24026D02*
X140157D01*
X135433Y-16585D02*
X140157D01*
D12*
X99067Y-18109D02*
G03*
X99067Y-18109I-394J0D01*
G01*
X3983Y9060D02*
X6795Y9060D01*
Y11816D01*
X9053Y4056D02*
X11817Y6812D01*
X5827Y7282D02*
X8591Y10037D01*
X3983Y9060D02*
X6795Y11816D01*
X100039Y-20942D02*
X117520D01*
X100039Y-4525D02*
X117520D01*
X100039Y-8629D02*
Y-4525D01*
Y-20942D02*
Y-16838D01*
X117520Y-8629D02*
Y-4525D01*
Y-20942D02*
Y-16838D01*
D13*
X5831Y10056D02*
X6403Y9602D01*
X5193Y9408D02*
X5831Y10056D01*
X5193Y9408D02*
X6468Y10704D01*
D14*
X8772Y73795D02*
Y82063D01*
X3418Y73795D02*
Y82063D01*
X17623Y112192D02*
X25891D01*
X17623Y117547D02*
X25891D01*
D15*
X27622Y43088D02*
G03*
X27622Y43088I-13345J0D01*
G01*
X174488Y-29035D02*
X186300D01*
Y2461D01*
X174488D02*
X186300D01*
X174488Y-29035D02*
Y2461D01*
Y97800D02*
Y129296D01*
X186300D01*
Y97800D02*
Y129296D01*
X174488Y97800D02*
X186300D01*
X74563Y-7767D02*
X74582Y-15435D01*
X39386Y-26530D02*
Y-22915D01*
Y-26530D02*
X74582D01*
X39406Y-14972D02*
Y-7610D01*
X74582Y-26530D02*
Y-22935D01*
D17*
X192754Y4929D02*
D03*
D65*
X-4122Y82873D02*
G03*
X-4122Y82873I-500J0D01*
G01*
X271260Y84429D02*
X273661D01*
X273583Y15268D02*
Y16654D01*
X271024Y15268D02*
X273583D01*
X234055Y54134D02*
Y59193D01*
X250925Y13307D02*
X255827D01*
X234059Y13153D02*
X239059D01*
X234059D02*
Y18783D01*
X234016Y40256D02*
Y45886D01*
X273661Y83464D02*
Y84429D01*
X250847Y86221D02*
X255709D01*
X234016Y86417D02*
X239646D01*
X233976Y81417D02*
Y86417D01*
X-22771Y80471D02*
Y85196D01*
X-7023Y80471D02*
Y85196D01*
X-22771D02*
X-7023D01*
X-22797Y15510D02*
X-7049D01*
X-22797D02*
Y20235D01*
X-7049Y15510D02*
Y20235D01*
D134*
X35748Y5787D02*
G03*
X35748Y5787I-394J0D01*
G01*
D135*
X24502Y60909D02*
Y63743D01*
X23175Y62417D02*
X25891D01*
D136*
X192754Y95433D02*
D03*
M02*
