G04*
G04 #@! TF.GenerationSoftware,Altium Limited,Altium Designer,22.8.2 (66)*
G04*
G04 Layer_Color=255*
%FSLAX25Y25*%
%MOIN*%
G70*
G04*
G04 #@! TF.SameCoordinates,6BB00AFB-5455-402A-A2EE-A29BA1A7275C*
G04*
G04*
G04 #@! TF.FilePolarity,Positive*
G04*
G01*
G75*
%ADD18R,0.02362X0.03150*%
%ADD19R,0.03150X0.05512*%
%ADD20R,0.05512X0.03150*%
%ADD21R,0.01181X0.01181*%
%ADD24R,0.03150X0.03150*%
%ADD25R,0.01772X0.02362*%
G04:AMPARAMS|DCode=26|XSize=39.37mil|YSize=19.68mil|CornerRadius=2.46mil|HoleSize=0mil|Usage=FLASHONLY|Rotation=270.000|XOffset=0mil|YOffset=0mil|HoleType=Round|Shape=RoundedRectangle|*
%AMROUNDEDRECTD26*
21,1,0.03937,0.01476,0,0,270.0*
21,1,0.03445,0.01968,0,0,270.0*
1,1,0.00492,-0.00738,-0.01722*
1,1,0.00492,-0.00738,0.01722*
1,1,0.00492,0.00738,0.01722*
1,1,0.00492,0.00738,-0.01722*
%
%ADD26ROUNDEDRECTD26*%
G04:AMPARAMS|DCode=28|XSize=23.62mil|YSize=19.68mil|CornerRadius=3.94mil|HoleSize=0mil|Usage=FLASHONLY|Rotation=90.000|XOffset=0mil|YOffset=0mil|HoleType=Round|Shape=RoundedRectangle|*
%AMROUNDEDRECTD28*
21,1,0.02362,0.01181,0,0,90.0*
21,1,0.01575,0.01968,0,0,90.0*
1,1,0.00787,0.00591,0.00787*
1,1,0.00787,0.00591,-0.00787*
1,1,0.00787,-0.00591,-0.00787*
1,1,0.00787,-0.00591,0.00787*
%
%ADD28ROUNDEDRECTD28*%
%ADD29R,0.01969X0.02362*%
G04:AMPARAMS|DCode=30|XSize=23.62mil|YSize=19.68mil|CornerRadius=3.94mil|HoleSize=0mil|Usage=FLASHONLY|Rotation=0.000|XOffset=0mil|YOffset=0mil|HoleType=Round|Shape=RoundedRectangle|*
%AMROUNDEDRECTD30*
21,1,0.02362,0.01181,0,0,0.0*
21,1,0.01575,0.01968,0,0,0.0*
1,1,0.00787,0.00787,-0.00591*
1,1,0.00787,-0.00787,-0.00591*
1,1,0.00787,-0.00787,0.00591*
1,1,0.00787,0.00787,0.00591*
%
%ADD30ROUNDEDRECTD30*%
%ADD31R,0.02362X0.01969*%
G04:AMPARAMS|DCode=59|XSize=51.18mil|YSize=27.56mil|CornerRadius=5.51mil|HoleSize=0mil|Usage=FLASHONLY|Rotation=0.000|XOffset=0mil|YOffset=0mil|HoleType=Round|Shape=RoundedRectangle|*
%AMROUNDEDRECTD59*
21,1,0.05118,0.01654,0,0,0.0*
21,1,0.04016,0.02756,0,0,0.0*
1,1,0.01102,0.02008,-0.00827*
1,1,0.01102,-0.02008,-0.00827*
1,1,0.01102,-0.02008,0.00827*
1,1,0.01102,0.02008,0.00827*
%
%ADD59ROUNDEDRECTD59*%
G04:AMPARAMS|DCode=60|XSize=35.43mil|YSize=23.62mil|CornerRadius=4.72mil|HoleSize=0mil|Usage=FLASHONLY|Rotation=180.000|XOffset=0mil|YOffset=0mil|HoleType=Round|Shape=RoundedRectangle|*
%AMROUNDEDRECTD60*
21,1,0.03543,0.01417,0,0,180.0*
21,1,0.02598,0.02362,0,0,180.0*
1,1,0.00945,-0.01299,0.00709*
1,1,0.00945,0.01299,0.00709*
1,1,0.00945,0.01299,-0.00709*
1,1,0.00945,-0.01299,-0.00709*
%
%ADD60ROUNDEDRECTD60*%
%ADD61R,0.04331X0.14567*%
G04:AMPARAMS|DCode=62|XSize=15mil|YSize=15mil|CornerRadius=3.75mil|HoleSize=0mil|Usage=FLASHONLY|Rotation=270.000|XOffset=0mil|YOffset=0mil|HoleType=Round|Shape=RoundedRectangle|*
%AMROUNDEDRECTD62*
21,1,0.01500,0.00750,0,0,270.0*
21,1,0.00750,0.01500,0,0,270.0*
1,1,0.00750,-0.00375,-0.00375*
1,1,0.00750,-0.00375,0.00375*
1,1,0.00750,0.00375,0.00375*
1,1,0.00750,0.00375,-0.00375*
%
%ADD62ROUNDEDRECTD62*%
G04:AMPARAMS|DCode=63|XSize=35.43mil|YSize=23.62mil|CornerRadius=4.72mil|HoleSize=0mil|Usage=FLASHONLY|Rotation=270.000|XOffset=0mil|YOffset=0mil|HoleType=Round|Shape=RoundedRectangle|*
%AMROUNDEDRECTD63*
21,1,0.03543,0.01417,0,0,270.0*
21,1,0.02598,0.02362,0,0,270.0*
1,1,0.00945,-0.00709,-0.01299*
1,1,0.00945,-0.00709,0.01299*
1,1,0.00945,0.00709,0.01299*
1,1,0.00945,0.00709,-0.01299*
%
%ADD63ROUNDEDRECTD63*%
G04:AMPARAMS|DCode=64|XSize=15mil|YSize=15mil|CornerRadius=3.75mil|HoleSize=0mil|Usage=FLASHONLY|Rotation=180.000|XOffset=0mil|YOffset=0mil|HoleType=Round|Shape=RoundedRectangle|*
%AMROUNDEDRECTD64*
21,1,0.01500,0.00750,0,0,180.0*
21,1,0.00750,0.01500,0,0,180.0*
1,1,0.00750,-0.00375,0.00375*
1,1,0.00750,0.00375,0.00375*
1,1,0.00750,0.00375,-0.00375*
1,1,0.00750,-0.00375,-0.00375*
%
%ADD64ROUNDEDRECTD64*%
%ADD71C,0.05906*%
%ADD72C,0.09943*%
%ADD73O,0.03937X0.08268*%
%ADD74O,0.04331X0.06693*%
%ADD75C,0.02559*%
%ADD76C,0.14961*%
D18*
X65752Y4319D02*
D03*
X59059D02*
D03*
D19*
X56494Y100652D02*
D03*
X70046D02*
D03*
X41774Y100691D02*
D03*
X50108Y100676D02*
D03*
X63057Y100652D02*
D03*
X35864Y100648D02*
D03*
X49179Y19510D02*
D03*
X86368Y100656D02*
D03*
X235101Y82754D02*
D03*
X86467Y19636D02*
D03*
D20*
X23463Y38321D02*
D03*
X23502Y33317D02*
D03*
X23534Y68369D02*
D03*
X23416Y63349D02*
D03*
X23451Y58333D02*
D03*
X23451Y53337D02*
D03*
X23415Y48341D02*
D03*
X23455Y27854D02*
D03*
X23341Y83707D02*
D03*
X23475Y22625D02*
D03*
X23534Y75766D02*
D03*
X23534Y43321D02*
D03*
D21*
X19370Y-18718D02*
D03*
X30787D02*
D03*
Y-2970D02*
D03*
X19370D02*
D03*
D24*
X69884Y119336D02*
D03*
X75789D02*
D03*
X128939D02*
D03*
X123034D02*
D03*
X113585D02*
D03*
X107679D02*
D03*
X99882D02*
D03*
X93976D02*
D03*
D25*
X7310Y67390D02*
D03*
X10656D02*
D03*
D26*
X137795Y-14387D02*
D03*
X141535D02*
D03*
X145276D02*
D03*
X137795Y-4938D02*
D03*
X141535D02*
D03*
X145276D02*
D03*
X89177Y-15029D02*
D03*
X92917D02*
D03*
X96658D02*
D03*
X89177Y-5580D02*
D03*
X92917D02*
D03*
X96658D02*
D03*
D28*
X73989Y109666D02*
D03*
X77926D02*
D03*
X-17813Y39024D02*
D03*
X-21750D02*
D03*
X-2543Y36292D02*
D03*
X1394D02*
D03*
X53106Y-836D02*
D03*
X49169D02*
D03*
X60980D02*
D03*
X64917D02*
D03*
X52091Y-12886D02*
D03*
X48154D02*
D03*
X51974Y-8773D02*
D03*
X48037D02*
D03*
X90229Y-996D02*
D03*
X94166D02*
D03*
X168260Y-16834D02*
D03*
X172197D02*
D03*
X115354Y731D02*
D03*
X111417D02*
D03*
X152677Y-4764D02*
D03*
X148740D02*
D03*
X94166Y2842D02*
D03*
X90229D02*
D03*
X102829Y957D02*
D03*
X98892D02*
D03*
X129685Y-9436D02*
D03*
X125748D02*
D03*
X114Y66782D02*
D03*
X4051D02*
D03*
X114Y63317D02*
D03*
X4051D02*
D03*
X137627Y273D02*
D03*
X141564D02*
D03*
X-8034Y29639D02*
D03*
X-4097D02*
D03*
X73989Y113377D02*
D03*
X77926D02*
D03*
X121567Y105027D02*
D03*
X95460Y114194D02*
D03*
X99397D02*
D03*
X109340D02*
D03*
X113277D02*
D03*
X133405Y112042D02*
D03*
X129469D02*
D03*
X125504Y105027D02*
D03*
X98103Y17068D02*
D03*
X94166D02*
D03*
D29*
X21758Y120105D02*
D03*
X19789Y114987D02*
D03*
X23727D02*
D03*
X83603Y5184D02*
D03*
X85572Y10302D02*
D03*
X81634D02*
D03*
X86312Y109666D02*
D03*
X82374D02*
D03*
X84343Y114784D02*
D03*
X95460Y105436D02*
D03*
X107986D02*
D03*
X97429Y110554D02*
D03*
X99398Y105436D02*
D03*
X109956Y110554D02*
D03*
X111925Y105436D02*
D03*
D30*
X-14541Y35503D02*
D03*
Y39440D02*
D03*
X-575Y29790D02*
D03*
Y25853D02*
D03*
X-19656Y29268D02*
D03*
Y25331D02*
D03*
X-11378Y38971D02*
D03*
Y42908D02*
D03*
X177057Y111672D02*
D03*
Y115609D02*
D03*
X17175Y20707D02*
D03*
Y16770D02*
D03*
X61246Y-10220D02*
D03*
Y-14156D02*
D03*
X-2535Y41679D02*
D03*
Y45616D02*
D03*
X84981Y-13061D02*
D03*
Y-16998D02*
D03*
X81811D02*
D03*
Y-13061D02*
D03*
X86880Y-1012D02*
D03*
Y2925D02*
D03*
X157658Y-5768D02*
D03*
Y-1832D02*
D03*
X161427Y-5768D02*
D03*
Y-1832D02*
D03*
X133500Y-15174D02*
D03*
Y-11237D02*
D03*
X10784Y70916D02*
D03*
Y74853D02*
D03*
X52604Y120888D02*
D03*
Y124825D02*
D03*
X136870Y116668D02*
D03*
Y112731D02*
D03*
X175969Y-11043D02*
D03*
Y-14980D02*
D03*
D31*
X125593Y113336D02*
D03*
Y109398D02*
D03*
X120475Y111367D02*
D03*
D59*
X-16481Y93709D02*
D03*
Y86229D02*
D03*
D60*
X-23704Y74394D02*
D03*
Y80299D02*
D03*
X141102Y-19111D02*
D03*
Y-25017D02*
D03*
X11653Y-14213D02*
D03*
Y-8307D02*
D03*
X-23731Y84535D02*
D03*
Y90440D02*
D03*
D61*
X151221Y-15922D02*
D03*
X163031D02*
D03*
X102992Y-9387D02*
D03*
X114803D02*
D03*
D62*
X89177Y8458D02*
D03*
Y10452D02*
D03*
X-21526Y54774D02*
D03*
Y52780D02*
D03*
D63*
X38961Y-11057D02*
D03*
X44866D02*
D03*
X92599Y-22119D02*
D03*
X98504D02*
D03*
D64*
X-12891Y51178D02*
D03*
X-14885D02*
D03*
D71*
X180394Y-6397D02*
D03*
Y-20177D02*
D03*
Y106658D02*
D03*
Y120438D02*
D03*
D72*
X264252Y11991D02*
D03*
Y88369D02*
D03*
D73*
X39956Y-2777D02*
D03*
X74012D02*
D03*
D74*
X39956Y-19234D02*
D03*
X74012D02*
D03*
D75*
X45606Y-4746D02*
D03*
X68362D02*
D03*
D76*
X0Y0D02*
D03*
X0Y100495D02*
D03*
M02*
