G04*
G04 #@! TF.GenerationSoftware,Altium Limited,Altium Designer,22.8.2 (66)*
G04*
G04 Layer_Color=8421504*
%FSLAX25Y25*%
%MOIN*%
G70*
G04*
G04 #@! TF.SameCoordinates,6BB00AFB-5455-402A-A2EE-A29BA1A7275C*
G04*
G04*
G04 #@! TF.FilePolarity,Positive*
G04*
G01*
G75*
%ADD18R,0.02362X0.03150*%
%ADD19R,0.03150X0.05512*%
%ADD20R,0.05512X0.03150*%
%ADD21R,0.01181X0.01181*%
G04:AMPARAMS|DCode=22|XSize=47.24mil|YSize=23.62mil|CornerRadius=3.54mil|HoleSize=0mil|Usage=FLASHONLY|Rotation=0.000|XOffset=0mil|YOffset=0mil|HoleType=Round|Shape=RoundedRectangle|*
%AMROUNDEDRECTD22*
21,1,0.04724,0.01654,0,0,0.0*
21,1,0.04016,0.02362,0,0,0.0*
1,1,0.00709,0.02008,-0.00827*
1,1,0.00709,-0.02008,-0.00827*
1,1,0.00709,-0.02008,0.00827*
1,1,0.00709,0.02008,0.00827*
%
%ADD22ROUNDEDRECTD22*%
G04:AMPARAMS|DCode=23|XSize=31.5mil|YSize=19.68mil|CornerRadius=2.76mil|HoleSize=0mil|Usage=FLASHONLY|Rotation=180.000|XOffset=0mil|YOffset=0mil|HoleType=Round|Shape=RoundedRectangle|*
%AMROUNDEDRECTD23*
21,1,0.03150,0.01417,0,0,180.0*
21,1,0.02598,0.01968,0,0,180.0*
1,1,0.00551,-0.01299,0.00709*
1,1,0.00551,0.01299,0.00709*
1,1,0.00551,0.01299,-0.00709*
1,1,0.00551,-0.01299,-0.00709*
%
%ADD23ROUNDEDRECTD23*%
%ADD24R,0.03150X0.03150*%
%ADD25R,0.01772X0.02362*%
G04:AMPARAMS|DCode=26|XSize=39.37mil|YSize=19.68mil|CornerRadius=2.46mil|HoleSize=0mil|Usage=FLASHONLY|Rotation=270.000|XOffset=0mil|YOffset=0mil|HoleType=Round|Shape=RoundedRectangle|*
%AMROUNDEDRECTD26*
21,1,0.03937,0.01476,0,0,270.0*
21,1,0.03445,0.01968,0,0,270.0*
1,1,0.00492,-0.00738,-0.01722*
1,1,0.00492,-0.00738,0.01722*
1,1,0.00492,0.00738,0.01722*
1,1,0.00492,0.00738,-0.01722*
%
%ADD26ROUNDEDRECTD26*%
%ADD27R,0.03937X0.14173*%
G04:AMPARAMS|DCode=28|XSize=23.62mil|YSize=19.68mil|CornerRadius=3.94mil|HoleSize=0mil|Usage=FLASHONLY|Rotation=90.000|XOffset=0mil|YOffset=0mil|HoleType=Round|Shape=RoundedRectangle|*
%AMROUNDEDRECTD28*
21,1,0.02362,0.01181,0,0,90.0*
21,1,0.01575,0.01968,0,0,90.0*
1,1,0.00787,0.00591,0.00787*
1,1,0.00787,0.00591,-0.00787*
1,1,0.00787,-0.00591,-0.00787*
1,1,0.00787,-0.00591,0.00787*
%
%ADD28ROUNDEDRECTD28*%
%ADD29R,0.01969X0.02362*%
G04:AMPARAMS|DCode=30|XSize=23.62mil|YSize=19.68mil|CornerRadius=3.94mil|HoleSize=0mil|Usage=FLASHONLY|Rotation=0.000|XOffset=0mil|YOffset=0mil|HoleType=Round|Shape=RoundedRectangle|*
%AMROUNDEDRECTD30*
21,1,0.02362,0.01181,0,0,0.0*
21,1,0.01575,0.01968,0,0,0.0*
1,1,0.00787,0.00787,-0.00591*
1,1,0.00787,-0.00787,-0.00591*
1,1,0.00787,-0.00787,0.00591*
1,1,0.00787,0.00787,0.00591*
%
%ADD30ROUNDEDRECTD30*%
%ADD31R,0.02362X0.01969*%
G04:AMPARAMS|DCode=32|XSize=31.5mil|YSize=19.68mil|CornerRadius=2.76mil|HoleSize=0mil|Usage=FLASHONLY|Rotation=270.000|XOffset=0mil|YOffset=0mil|HoleType=Round|Shape=RoundedRectangle|*
%AMROUNDEDRECTD32*
21,1,0.03150,0.01417,0,0,270.0*
21,1,0.02598,0.01968,0,0,270.0*
1,1,0.00551,-0.00709,-0.01299*
1,1,0.00551,-0.00709,0.01299*
1,1,0.00551,0.00709,0.01299*
1,1,0.00551,0.00709,-0.01299*
%
%ADD32ROUNDEDRECTD32*%
G36*
X265350Y95777D02*
X266071Y95634D01*
X266774Y95421D01*
X267454Y95140D01*
X268102Y94793D01*
X268713Y94385D01*
X269282Y93918D01*
X269541Y93659D01*
X269796Y93404D01*
X270254Y92848D01*
X270656Y92251D01*
X270999Y91618D01*
X271280Y90955D01*
X271496Y90268D01*
X271645Y89564D01*
X271726Y88848D01*
X271737Y88128D01*
X271679Y87411D01*
X271553Y86702D01*
X271359Y86008D01*
X271099Y85337D01*
X270777Y84693D01*
X270393Y84083D01*
X269953Y83513D01*
X269707Y83251D01*
X258797Y83251D01*
X258797Y83251D01*
X258550Y83513D01*
X258110Y84083D01*
X257727Y84693D01*
X257404Y85336D01*
X257145Y86007D01*
X256951Y86701D01*
X256824Y87410D01*
X256766Y88127D01*
X256778Y88847D01*
X256858Y89562D01*
X257007Y90267D01*
X257223Y90953D01*
X257503Y91616D01*
X257846Y92249D01*
X258249Y92846D01*
X258706Y93402D01*
X258961Y93657D01*
X259221Y93917D01*
X259789Y94383D01*
X260400Y94792D01*
X261048Y95139D01*
X261727Y95420D01*
X262431Y95634D01*
X263152Y95777D01*
X263883Y95849D01*
X264618Y95850D01*
X265350Y95777D01*
D02*
G37*
G36*
X269738Y17076D02*
X269982Y16813D01*
X270417Y16243D01*
X270795Y15633D01*
X271114Y14991D01*
X271369Y14321D01*
X271559Y13629D01*
X271682Y12922D01*
X271737Y12207D01*
X271724Y11490D01*
X271641Y10778D01*
X271491Y10076D01*
X271275Y9392D01*
X270994Y8732D01*
X270652Y8102D01*
X270250Y7508D01*
X269794Y6955D01*
X269540Y6701D01*
X269540Y6701D01*
X269280Y6441D01*
X268712Y5975D01*
X268101Y5567D01*
X267453Y5220D01*
X266774Y4939D01*
X266071Y4726D01*
X265350Y4582D01*
X264619Y4510D01*
X263884Y4510D01*
X263152Y4582D01*
X262432Y4726D01*
X261728Y4939D01*
X261049Y5221D01*
X260401Y5567D01*
X259790Y5976D01*
X259222Y6442D01*
X258963Y6702D01*
Y6702D01*
X258709Y6955D01*
X258253Y7509D01*
X257852Y8103D01*
X257509Y8733D01*
X257228Y9393D01*
X257012Y10077D01*
X256862Y10778D01*
X256780Y11491D01*
X256766Y12208D01*
X256821Y12923D01*
X256944Y13629D01*
X257135Y14321D01*
X257390Y14991D01*
X257709Y15634D01*
X258087Y16243D01*
X258522Y16813D01*
X258766Y17076D01*
X269738Y17076D01*
X269738Y17076D01*
D02*
G37*
G36*
X35708Y-4150D02*
X30787D01*
X30749Y-4153D01*
X30712Y-4165D01*
X30678Y-4183D01*
X30648Y-4208D01*
X30623Y-4237D01*
X30605Y-4272D01*
X30593Y-4309D01*
X30590Y-4347D01*
Y-8087D01*
X27048D01*
Y-1789D01*
X35708D01*
Y-4150D01*
D02*
G37*
G36*
X23109Y-8087D02*
X19568D01*
Y-4347D01*
X19564Y-4309D01*
X19553Y-4272D01*
X19535Y-4237D01*
X19510Y-4208D01*
X19480Y-4183D01*
X19446Y-4165D01*
X19409Y-4153D01*
X19370Y-4150D01*
X14450D01*
Y-1789D01*
X23109D01*
Y-8087D01*
D02*
G37*
G36*
X30590Y-17339D02*
X30593Y-17378D01*
X30605Y-17415D01*
X30623Y-17449D01*
X30648Y-17479D01*
X30678Y-17504D01*
X30712Y-17522D01*
X30749Y-17534D01*
X30787Y-17537D01*
X35708D01*
Y-19898D01*
X27048D01*
Y-13600D01*
X30590D01*
Y-17339D01*
D02*
G37*
G36*
X23109Y-19898D02*
X14450D01*
Y-17537D01*
X19370D01*
X19409Y-17534D01*
X19446Y-17522D01*
X19480Y-17504D01*
X19510Y-17479D01*
X19535Y-17449D01*
X19553Y-17415D01*
X19564Y-17378D01*
X19568Y-17339D01*
Y-13600D01*
X23109D01*
Y-19898D01*
D02*
G37*
D18*
X65752Y4319D02*
D03*
X59059D02*
D03*
D19*
X56494Y100652D02*
D03*
X70046D02*
D03*
X41774Y100691D02*
D03*
X50108Y100676D02*
D03*
X63057Y100652D02*
D03*
X35864Y100648D02*
D03*
X49179Y19510D02*
D03*
X86368Y100656D02*
D03*
X235101Y82754D02*
D03*
X86467Y19636D02*
D03*
D20*
X23463Y38321D02*
D03*
X23502Y33317D02*
D03*
X23534Y68369D02*
D03*
X23416Y63349D02*
D03*
X23451Y58333D02*
D03*
X23451Y53337D02*
D03*
X23415Y48341D02*
D03*
X23455Y27854D02*
D03*
X23341Y83707D02*
D03*
X23475Y22625D02*
D03*
X23534Y75766D02*
D03*
X23534Y43321D02*
D03*
D21*
X19370Y-18718D02*
D03*
X30787D02*
D03*
Y-2970D02*
D03*
X19370D02*
D03*
D22*
X-16481Y93709D02*
D03*
Y86229D02*
D03*
D23*
X-23704Y74394D02*
D03*
Y80299D02*
D03*
X141102Y-19111D02*
D03*
Y-25017D02*
D03*
X11653Y-14213D02*
D03*
Y-8307D02*
D03*
X-23731Y84535D02*
D03*
Y90440D02*
D03*
D24*
X69884Y119336D02*
D03*
X75789D02*
D03*
X128939D02*
D03*
X123034D02*
D03*
X113585D02*
D03*
X107679D02*
D03*
X99882D02*
D03*
X93976D02*
D03*
D25*
X7310Y67390D02*
D03*
X10656D02*
D03*
D26*
X137795Y-14387D02*
D03*
X141535D02*
D03*
X145276D02*
D03*
X137795Y-4938D02*
D03*
X141535D02*
D03*
X145276D02*
D03*
X89177Y-15029D02*
D03*
X92917D02*
D03*
X96658D02*
D03*
X89177Y-5580D02*
D03*
X92917D02*
D03*
X96658D02*
D03*
D27*
X151221Y-15922D02*
D03*
X163031D02*
D03*
X102992Y-9387D02*
D03*
X114803D02*
D03*
D28*
X73989Y109666D02*
D03*
X77926D02*
D03*
X-17813Y39024D02*
D03*
X-21750D02*
D03*
X-2543Y36292D02*
D03*
X1394D02*
D03*
X53106Y-836D02*
D03*
X49169D02*
D03*
X60980D02*
D03*
X64917D02*
D03*
X52091Y-12886D02*
D03*
X48154D02*
D03*
X51974Y-8773D02*
D03*
X48037D02*
D03*
X90229Y-996D02*
D03*
X94166D02*
D03*
X168260Y-16834D02*
D03*
X172197D02*
D03*
X115354Y731D02*
D03*
X111417D02*
D03*
X152677Y-4764D02*
D03*
X148740D02*
D03*
X94166Y2842D02*
D03*
X90229D02*
D03*
X102829Y957D02*
D03*
X98892D02*
D03*
X129685Y-9436D02*
D03*
X125748D02*
D03*
X114Y66782D02*
D03*
X4051D02*
D03*
X114Y63317D02*
D03*
X4051D02*
D03*
X137627Y273D02*
D03*
X141564D02*
D03*
X-8034Y29639D02*
D03*
X-4097D02*
D03*
X73989Y113377D02*
D03*
X77926D02*
D03*
X121567Y105027D02*
D03*
X95460Y114194D02*
D03*
X99397D02*
D03*
X109340D02*
D03*
X113277D02*
D03*
X133405Y112042D02*
D03*
X129469D02*
D03*
X125504Y105027D02*
D03*
X98103Y17068D02*
D03*
X94166D02*
D03*
D29*
X21758Y120105D02*
D03*
X19789Y114987D02*
D03*
X23727D02*
D03*
X83603Y5184D02*
D03*
X85572Y10302D02*
D03*
X81634D02*
D03*
X86312Y109666D02*
D03*
X82374D02*
D03*
X84343Y114784D02*
D03*
X95460Y105436D02*
D03*
X107986D02*
D03*
X97429Y110554D02*
D03*
X99398Y105436D02*
D03*
X109956Y110554D02*
D03*
X111925Y105436D02*
D03*
D30*
X-14541Y35503D02*
D03*
Y39440D02*
D03*
X-575Y29790D02*
D03*
Y25853D02*
D03*
X-19656Y29268D02*
D03*
Y25331D02*
D03*
X-11378Y38971D02*
D03*
Y42908D02*
D03*
X177057Y111672D02*
D03*
Y115609D02*
D03*
X17175Y20707D02*
D03*
Y16770D02*
D03*
X61246Y-10220D02*
D03*
Y-14156D02*
D03*
X-2535Y41679D02*
D03*
Y45616D02*
D03*
X84981Y-13061D02*
D03*
Y-16998D02*
D03*
X81811D02*
D03*
Y-13061D02*
D03*
X86880Y-1012D02*
D03*
Y2925D02*
D03*
X157658Y-5768D02*
D03*
Y-1832D02*
D03*
X161427Y-5768D02*
D03*
Y-1832D02*
D03*
X133500Y-15174D02*
D03*
Y-11237D02*
D03*
X10784Y70916D02*
D03*
Y74853D02*
D03*
X52604Y120888D02*
D03*
Y124825D02*
D03*
X136870Y116668D02*
D03*
Y112731D02*
D03*
X175969Y-11043D02*
D03*
Y-14980D02*
D03*
D31*
X125593Y113336D02*
D03*
Y109398D02*
D03*
X120475Y111367D02*
D03*
D32*
X38961Y-11057D02*
D03*
X44866D02*
D03*
X92599Y-22119D02*
D03*
X98504D02*
D03*
M02*
