G04*
G04 #@! TF.GenerationSoftware,Altium Limited,Altium Designer,22.8.2 (66)*
G04*
G04 Layer_Physical_Order=6*
G04 Layer_Color=16711680*
%FSLAX25Y25*%
%MOIN*%
G70*
G04*
G04 #@! TF.SameCoordinates,6BB00AFB-5455-402A-A2EE-A29BA1A7275C*
G04*
G04*
G04 #@! TF.FilePolarity,Positive*
G04*
G01*
G75*
%ADD11C,0.00400*%
G04:AMPARAMS|DCode=26|XSize=39.37mil|YSize=19.68mil|CornerRadius=2.46mil|HoleSize=0mil|Usage=FLASHONLY|Rotation=270.000|XOffset=0mil|YOffset=0mil|HoleType=Round|Shape=RoundedRectangle|*
%AMROUNDEDRECTD26*
21,1,0.03937,0.01476,0,0,270.0*
21,1,0.03445,0.01968,0,0,270.0*
1,1,0.00492,-0.00738,-0.01722*
1,1,0.00492,-0.00738,0.01722*
1,1,0.00492,0.00738,0.01722*
1,1,0.00492,0.00738,-0.01722*
%
%ADD26ROUNDEDRECTD26*%
G04:AMPARAMS|DCode=28|XSize=23.62mil|YSize=19.68mil|CornerRadius=3.94mil|HoleSize=0mil|Usage=FLASHONLY|Rotation=90.000|XOffset=0mil|YOffset=0mil|HoleType=Round|Shape=RoundedRectangle|*
%AMROUNDEDRECTD28*
21,1,0.02362,0.01181,0,0,90.0*
21,1,0.01575,0.01968,0,0,90.0*
1,1,0.00787,0.00591,0.00787*
1,1,0.00787,0.00591,-0.00787*
1,1,0.00787,-0.00591,-0.00787*
1,1,0.00787,-0.00591,0.00787*
%
%ADD28ROUNDEDRECTD28*%
G04:AMPARAMS|DCode=30|XSize=23.62mil|YSize=19.68mil|CornerRadius=3.94mil|HoleSize=0mil|Usage=FLASHONLY|Rotation=0.000|XOffset=0mil|YOffset=0mil|HoleType=Round|Shape=RoundedRectangle|*
%AMROUNDEDRECTD30*
21,1,0.02362,0.01181,0,0,0.0*
21,1,0.01575,0.01968,0,0,0.0*
1,1,0.00787,0.00787,-0.00591*
1,1,0.00787,-0.00787,-0.00591*
1,1,0.00787,-0.00787,0.00591*
1,1,0.00787,0.00787,0.00591*
%
%ADD30ROUNDEDRECTD30*%
%ADD33C,0.00800*%
%ADD58C,0.00600*%
G04:AMPARAMS|DCode=60|XSize=35.43mil|YSize=23.62mil|CornerRadius=4.72mil|HoleSize=0mil|Usage=FLASHONLY|Rotation=180.000|XOffset=0mil|YOffset=0mil|HoleType=Round|Shape=RoundedRectangle|*
%AMROUNDEDRECTD60*
21,1,0.03543,0.01417,0,0,180.0*
21,1,0.02598,0.02362,0,0,180.0*
1,1,0.00945,-0.01299,0.00709*
1,1,0.00945,0.01299,0.00709*
1,1,0.00945,0.01299,-0.00709*
1,1,0.00945,-0.01299,-0.00709*
%
%ADD60ROUNDEDRECTD60*%
%ADD61R,0.04331X0.14567*%
G04:AMPARAMS|DCode=63|XSize=35.43mil|YSize=23.62mil|CornerRadius=4.72mil|HoleSize=0mil|Usage=FLASHONLY|Rotation=270.000|XOffset=0mil|YOffset=0mil|HoleType=Round|Shape=RoundedRectangle|*
%AMROUNDEDRECTD63*
21,1,0.03543,0.01417,0,0,270.0*
21,1,0.02598,0.02362,0,0,270.0*
1,1,0.00945,-0.00709,-0.01299*
1,1,0.00945,-0.00709,0.01299*
1,1,0.00945,0.00709,0.01299*
1,1,0.00945,0.00709,-0.01299*
%
%ADD63ROUNDEDRECTD63*%
%ADD65C,0.01000*%
%ADD66C,0.02000*%
%ADD67C,0.01500*%
%ADD68C,0.01200*%
%ADD71C,0.05906*%
%ADD72C,0.09943*%
%ADD73O,0.03937X0.08268*%
%ADD74O,0.04331X0.06693*%
%ADD75C,0.02559*%
%ADD76C,0.14961*%
%ADD77C,0.02000*%
%ADD78C,0.02800*%
%ADD79C,0.02638*%
%ADD82C,0.03100*%
G04:AMPARAMS|DCode=83|XSize=41.34mil|YSize=88.58mil|CornerRadius=10.34mil|HoleSize=0mil|Usage=FLASHONLY|Rotation=90.000|XOffset=0mil|YOffset=0mil|HoleType=Round|Shape=RoundedRectangle|*
%AMROUNDEDRECTD83*
21,1,0.04134,0.06791,0,0,90.0*
21,1,0.02067,0.08858,0,0,90.0*
1,1,0.02067,0.03396,0.01034*
1,1,0.02067,0.03396,-0.01034*
1,1,0.02067,-0.03396,-0.01034*
1,1,0.02067,-0.03396,0.01034*
%
%ADD83ROUNDEDRECTD83*%
G04:AMPARAMS|DCode=84|XSize=39.37mil|YSize=41.34mil|CornerRadius=9.84mil|HoleSize=0mil|Usage=FLASHONLY|Rotation=90.000|XOffset=0mil|YOffset=0mil|HoleType=Round|Shape=RoundedRectangle|*
%AMROUNDEDRECTD84*
21,1,0.03937,0.02165,0,0,90.0*
21,1,0.01968,0.04134,0,0,90.0*
1,1,0.01968,0.01083,0.00984*
1,1,0.01968,0.01083,-0.00984*
1,1,0.01968,-0.01083,-0.00984*
1,1,0.01968,-0.01083,0.00984*
%
%ADD84ROUNDEDRECTD84*%
%ADD85R,0.09055X0.05906*%
G04:AMPARAMS|DCode=86|XSize=59.06mil|YSize=90.55mil|CornerRadius=14.76mil|HoleSize=0mil|Usage=FLASHONLY|Rotation=90.000|XOffset=0mil|YOffset=0mil|HoleType=Round|Shape=RoundedRectangle|*
%AMROUNDEDRECTD86*
21,1,0.05906,0.06102,0,0,90.0*
21,1,0.02953,0.09055,0,0,90.0*
1,1,0.02953,0.03051,0.01476*
1,1,0.02953,0.03051,-0.01476*
1,1,0.02953,-0.03051,-0.01476*
1,1,0.02953,-0.03051,0.01476*
%
%ADD86ROUNDEDRECTD86*%
%ADD87R,0.05906X0.09055*%
G04:AMPARAMS|DCode=88|XSize=31.5mil|YSize=23.62mil|CornerRadius=0mil|HoleSize=0mil|Usage=FLASHONLY|Rotation=45.000|XOffset=0mil|YOffset=0mil|HoleType=Round|Shape=Rectangle|*
%AMROTATEDRECTD88*
4,1,4,-0.00278,-0.01949,-0.01949,-0.00278,0.00278,0.01949,0.01949,0.00278,-0.00278,-0.01949,0.0*
%
%ADD88ROTATEDRECTD88*%

%ADD89C,0.07874*%
%ADD90R,0.05512X0.03150*%
%ADD91R,0.04921X0.03150*%
G04:AMPARAMS|DCode=92|XSize=23.62mil|YSize=19.68mil|CornerRadius=3.94mil|HoleSize=0mil|Usage=FLASHONLY|Rotation=315.000|XOffset=0mil|YOffset=0mil|HoleType=Round|Shape=RoundedRectangle|*
%AMROUNDEDRECTD92*
21,1,0.02362,0.01181,0,0,315.0*
21,1,0.01575,0.01968,0,0,315.0*
1,1,0.00787,0.00139,-0.00974*
1,1,0.00787,-0.00974,0.00139*
1,1,0.00787,-0.00139,0.00974*
1,1,0.00787,0.00974,-0.00139*
%
%ADD92ROUNDEDRECTD92*%
%ADD93R,0.02362X0.04724*%
%ADD94R,0.01181X0.04724*%
G04:AMPARAMS|DCode=95|XSize=71.65mil|YSize=53.15mil|CornerRadius=10.63mil|HoleSize=0mil|Usage=FLASHONLY|Rotation=270.000|XOffset=0mil|YOffset=0mil|HoleType=Round|Shape=RoundedRectangle|*
%AMROUNDEDRECTD95*
21,1,0.07165,0.03189,0,0,270.0*
21,1,0.05039,0.05315,0,0,270.0*
1,1,0.02126,-0.01595,-0.02520*
1,1,0.02126,-0.01595,0.02520*
1,1,0.02126,0.01595,0.02520*
1,1,0.02126,0.01595,-0.02520*
%
%ADD95ROUNDEDRECTD95*%
%ADD96R,0.04331X0.04331*%
%ADD97R,0.07874X0.11811*%
%ADD98R,0.03150X0.09843*%
%ADD99R,0.03150X0.12000*%
%ADD100R,0.09843X0.03150*%
G04:AMPARAMS|DCode=101|XSize=98.43mil|YSize=31.5mil|CornerRadius=15.75mil|HoleSize=0mil|Usage=FLASHONLY|Rotation=0.000|XOffset=0mil|YOffset=0mil|HoleType=Round|Shape=RoundedRectangle|*
%AMROUNDEDRECTD101*
21,1,0.09843,0.00000,0,0,0.0*
21,1,0.06693,0.03150,0,0,0.0*
1,1,0.03150,0.03347,0.00000*
1,1,0.03150,-0.03347,0.00000*
1,1,0.03150,-0.03347,0.00000*
1,1,0.03150,0.03347,0.00000*
%
%ADD101ROUNDEDRECTD101*%
G04:AMPARAMS|DCode=102|XSize=98.43mil|YSize=31.5mil|CornerRadius=15.75mil|HoleSize=0mil|Usage=FLASHONLY|Rotation=270.000|XOffset=0mil|YOffset=0mil|HoleType=Round|Shape=RoundedRectangle|*
%AMROUNDEDRECTD102*
21,1,0.09843,0.00000,0,0,270.0*
21,1,0.06693,0.03150,0,0,270.0*
1,1,0.03150,0.00000,-0.03347*
1,1,0.03150,0.00000,0.03347*
1,1,0.03150,0.00000,0.03347*
1,1,0.03150,0.00000,-0.03347*
%
%ADD102ROUNDEDRECTD102*%
%ADD103R,0.12000X0.03150*%
%ADD104R,0.05118X0.00984*%
%ADD105R,0.04921X0.10000*%
%ADD106R,0.06693X0.03543*%
%ADD107C,0.00598*%
%ADD108C,0.03150*%
G36*
X187545Y128506D02*
Y97924D01*
X187607Y97612D01*
X187783Y97347D01*
X188048Y97171D01*
X188360Y97109D01*
X224649D01*
X227735Y93634D01*
Y93342D01*
X227750Y93263D01*
Y93183D01*
X227985Y92002D01*
X228016Y91928D01*
X228032Y91849D01*
X228492Y90737D01*
X228537Y90670D01*
X228568Y90596D01*
X229236Y89595D01*
X229293Y89539D01*
X229338Y89472D01*
X230189Y88621D01*
X230256Y88576D01*
X230313Y88519D01*
X231313Y87850D01*
X231388Y87820D01*
X231454Y87775D01*
X232567Y87314D01*
X232645Y87299D01*
X232720Y87268D01*
X233900Y87033D01*
X233981D01*
X234059Y87018D01*
X235263D01*
X235342Y87033D01*
X235422D01*
X236603Y87268D01*
X236677Y87299D01*
X236756Y87314D01*
X237868Y87775D01*
X237935Y87820D01*
X238009Y87850D01*
X239010Y88519D01*
X239067Y88576D01*
X239133Y88621D01*
X239984Y89472D01*
X240029Y89539D01*
X240086Y89595D01*
X240449Y90139D01*
X240949Y89987D01*
Y86756D01*
X242821D01*
Y91026D01*
X241490Y91024D01*
X241156Y91523D01*
X241291Y91849D01*
X241306Y91928D01*
X241337Y92002D01*
X241572Y93183D01*
Y93263D01*
X241588Y93342D01*
Y93656D01*
X242940Y95332D01*
X243122Y95337D01*
X243599Y94868D01*
Y92927D01*
X247872D01*
Y95368D01*
X244096Y95361D01*
X243697Y95360D01*
X243486Y95513D01*
X243386Y95786D01*
X243522Y96053D01*
X244373Y97109D01*
X275174D01*
X276189Y96093D01*
Y83674D01*
X270077D01*
X269953Y83513D01*
X269707Y83251D01*
X258797Y83251D01*
X258797Y83251D01*
X258550Y83513D01*
X258426Y83674D01*
X248657D01*
X248449Y83632D01*
X247949Y83885D01*
Y83885D01*
X243677Y83877D01*
Y81444D01*
X247842D01*
Y18950D01*
X243598D01*
Y16509D01*
X247870Y16517D01*
X247870Y16517D01*
X248338Y16747D01*
X248370Y16745D01*
X248657Y16688D01*
X258427D01*
X258522Y16813D01*
X258766Y17076D01*
X269738Y17076D01*
X269738Y17076D01*
X269982Y16813D01*
X270077Y16688D01*
X276189D01*
X276189Y4450D01*
X274991Y3252D01*
X228568D01*
X225483Y6726D01*
Y7018D01*
X225467Y7097D01*
Y7177D01*
X225232Y8358D01*
X225202Y8432D01*
X225186Y8511D01*
X224725Y9623D01*
X224681Y9690D01*
X224650Y9764D01*
X223981Y10765D01*
X223924Y10822D01*
X223880Y10888D01*
X223029Y11740D01*
X222962Y11784D01*
X222905Y11841D01*
X221904Y12510D01*
X221830Y12541D01*
X221763Y12585D01*
X220651Y13046D01*
X220572Y13061D01*
X220498Y13092D01*
X219317Y13327D01*
X219237D01*
X219158Y13343D01*
X217954D01*
X217876Y13327D01*
X217795D01*
X216615Y13092D01*
X216541Y13061D01*
X216462Y13046D01*
X215350Y12585D01*
X215283Y12541D01*
X215209Y12510D01*
X214208Y11841D01*
X214151Y11784D01*
X214084Y11740D01*
X213233Y10888D01*
X213188Y10822D01*
X213132Y10765D01*
X212463Y9764D01*
X212432Y9690D01*
X212387Y9623D01*
X211927Y8511D01*
X211911Y8432D01*
X211880Y8358D01*
X211646Y7177D01*
Y7097D01*
X211630Y7018D01*
Y6704D01*
X208844Y3252D01*
X188360D01*
X188048Y3190D01*
X187783Y3013D01*
X187607Y2748D01*
X187545Y2436D01*
X187545Y-28146D01*
X79008D01*
X78801Y-27646D01*
X82310Y-24137D01*
X82500Y-23678D01*
Y-22002D01*
X82310Y-21543D01*
X81609Y-20842D01*
X81434Y-20770D01*
X81277Y-20664D01*
X81186Y-20646D01*
X80871Y-20436D01*
X80661Y-20122D01*
X80643Y-20031D01*
X80538Y-19874D01*
X80466Y-19699D01*
X80308Y-19541D01*
Y-12161D01*
X82475D01*
X82934Y-11971D01*
X83013Y-11780D01*
X83045Y-11755D01*
X83447Y-11018D01*
X83657Y-11013D01*
X83964Y-11115D01*
X84019Y-11395D01*
X84086Y-11495D01*
X84197Y-11859D01*
X84086Y-12223D01*
X84019Y-12323D01*
X83942Y-12710D01*
Y-14285D01*
X84019Y-14673D01*
X84124Y-14830D01*
X84200Y-15178D01*
X84124Y-15527D01*
X84019Y-15684D01*
X83942Y-16072D01*
Y-17646D01*
X84019Y-18034D01*
X84239Y-18363D01*
Y-18506D01*
X84042Y-18637D01*
X83823Y-18966D01*
X83745Y-19354D01*
Y-20535D01*
X83823Y-20922D01*
X84042Y-21251D01*
X84371Y-21471D01*
X84759Y-21548D01*
X86333D01*
X86721Y-21471D01*
X87050Y-21251D01*
X87269Y-20922D01*
X87288Y-20828D01*
X87766D01*
X87771Y-20854D01*
X87991Y-21182D01*
X88320Y-21402D01*
X88708Y-21479D01*
X90282D01*
X90670Y-21402D01*
X90999Y-21182D01*
X91218Y-20854D01*
X91295Y-20466D01*
Y-19285D01*
X91218Y-18897D01*
X90999Y-18569D01*
X90750Y-18402D01*
X90680Y-18058D01*
X90687Y-17842D01*
X90718Y-17821D01*
X90905Y-17542D01*
X90971Y-17212D01*
Y-13767D01*
X90905Y-13437D01*
X90718Y-13157D01*
X90438Y-12970D01*
X90108Y-12904D01*
X88632D01*
X88302Y-12970D01*
X88022Y-13157D01*
X87835Y-13437D01*
X87769Y-13767D01*
Y-15941D01*
X87124D01*
X87072Y-15684D01*
X86967Y-15527D01*
X86891Y-15178D01*
X86967Y-14830D01*
X87072Y-14673D01*
X87150Y-14285D01*
Y-12710D01*
X87072Y-12323D01*
X87006Y-12223D01*
X86894Y-11859D01*
X87006Y-11495D01*
X87050Y-11428D01*
X87104Y-11384D01*
X87444Y-11264D01*
X87611Y-11249D01*
X88142Y-11469D01*
X88779D01*
X89367Y-11225D01*
X89817Y-10775D01*
X90061Y-10187D01*
Y-9551D01*
X89884Y-9125D01*
X90068Y-8715D01*
X90172Y-8613D01*
X90438Y-8560D01*
X90675Y-8401D01*
X91261Y-8987D01*
X91720Y-9177D01*
X92880D01*
X92942Y-9151D01*
X93007Y-9165D01*
X93164Y-9059D01*
X93219Y-9037D01*
X93268Y-9027D01*
X93310Y-8999D01*
X93340Y-8987D01*
X93344Y-8976D01*
X93690Y-8745D01*
X94061Y-8671D01*
X94177Y-8694D01*
X94242Y-8681D01*
X94304Y-8707D01*
X94478Y-8634D01*
X94664Y-8597D01*
X95166Y-8574D01*
X95367Y-8775D01*
X95590Y-8867D01*
X95826Y-8965D01*
X96115D01*
X98052Y-8968D01*
X98313Y-9230D01*
Y-12632D01*
X98168Y-12757D01*
X97813Y-12949D01*
X97589Y-12904D01*
X96112D01*
X95782Y-12970D01*
X95502Y-13157D01*
X95315Y-13437D01*
X95250Y-13767D01*
Y-16688D01*
X94722Y-17215D01*
X94523Y-17513D01*
X94453Y-17864D01*
Y-18482D01*
X93797D01*
X93409Y-18560D01*
X93080Y-18779D01*
X92861Y-19108D01*
X92783Y-19496D01*
Y-21070D01*
X92861Y-21458D01*
X93080Y-21787D01*
X93292Y-21928D01*
X93162Y-22428D01*
X90883D01*
X90670Y-22286D01*
X90282Y-22209D01*
X88708D01*
X88320Y-22286D01*
X87991Y-22506D01*
X87771Y-22834D01*
X87752Y-22929D01*
X87275D01*
X87269Y-22903D01*
X87050Y-22574D01*
X86721Y-22354D01*
X86333Y-22277D01*
X84759D01*
X84371Y-22354D01*
X84042Y-22574D01*
X83823Y-22903D01*
X83745Y-23291D01*
Y-24472D01*
X83823Y-24859D01*
X84042Y-25188D01*
X84371Y-25408D01*
X84759Y-25485D01*
X86333D01*
X86721Y-25408D01*
X87050Y-25188D01*
X87269Y-24859D01*
X87288Y-24765D01*
X87766D01*
X87771Y-24791D01*
X87991Y-25120D01*
X88320Y-25339D01*
X88708Y-25416D01*
X90282D01*
X90670Y-25339D01*
X90999Y-25120D01*
X91218Y-24791D01*
X91295Y-24403D01*
Y-24264D01*
X106457D01*
X106808Y-24194D01*
X107106Y-23995D01*
X108025Y-23076D01*
X111853D01*
X112688Y-23911D01*
Y-25027D01*
X112765Y-25414D01*
X112984Y-25743D01*
X113313Y-25963D01*
X113701Y-26040D01*
X114882D01*
X115270Y-25963D01*
X115598Y-25743D01*
X115818Y-25414D01*
X115895Y-25027D01*
Y-23730D01*
X117787Y-21838D01*
X118377Y-21955D01*
X118424Y-22068D01*
X118874Y-22518D01*
X119462Y-22762D01*
X120098D01*
X120686Y-22518D01*
X121137Y-22068D01*
X121380Y-21480D01*
Y-20843D01*
X121287Y-20619D01*
X121670Y-20237D01*
X121788Y-20286D01*
X122425D01*
X122514Y-20248D01*
X122798Y-20672D01*
X122495Y-20976D01*
X122251Y-21564D01*
Y-22200D01*
X122495Y-22788D01*
X122854Y-23147D01*
X122897Y-23474D01*
X122844Y-23738D01*
X122472Y-24110D01*
X122228Y-24698D01*
Y-25335D01*
X122472Y-25923D01*
X122922Y-26373D01*
X123510Y-26617D01*
X124146D01*
X124735Y-26373D01*
X124954Y-26154D01*
X125280Y-25975D01*
X125607Y-26154D01*
X125826Y-26373D01*
X126414Y-26617D01*
X127051D01*
X127639Y-26373D01*
X128089Y-25923D01*
X128332Y-25335D01*
Y-24885D01*
X128719Y-24547D01*
X128794Y-24518D01*
X135256D01*
X135715Y-24328D01*
X135905Y-23868D01*
Y-20742D01*
X138983Y-17664D01*
X140411D01*
X140473Y-17639D01*
X140538Y-17652D01*
X140696Y-17547D01*
X140871Y-17474D01*
X140896Y-17413D01*
X140951Y-17376D01*
X141179Y-17035D01*
X141514Y-16811D01*
X141973Y-16720D01*
X143383D01*
X143842Y-16530D01*
X144500Y-15872D01*
X147589D01*
X148238Y-15743D01*
X148788Y-15376D01*
X149155Y-14826D01*
X149284Y-14177D01*
Y-9138D01*
X149155Y-8489D01*
X148788Y-7938D01*
X148238Y-7571D01*
X147589Y-7442D01*
X144400D01*
X143751Y-7571D01*
X143201Y-7938D01*
X142833Y-8489D01*
X142784Y-8508D01*
X142558Y-8602D01*
X142330Y-8693D01*
X142329Y-8697D01*
X142325Y-8698D01*
X142231Y-8925D01*
X142134Y-9150D01*
X142136Y-9154D01*
X142134Y-9158D01*
Y-9783D01*
X142095Y-9982D01*
X142019Y-10096D01*
X141905Y-10172D01*
X141707Y-10211D01*
X140590D01*
X140564Y-10222D01*
X140505Y-10201D01*
X140346Y-10275D01*
X140282Y-10288D01*
X139429D01*
X139429Y1805D01*
X140243Y2619D01*
X144026D01*
X144485Y2809D01*
X146096Y4420D01*
X146287Y4880D01*
X146287Y14622D01*
X146096Y15081D01*
X145154Y16023D01*
X144695Y16213D01*
X136216Y16213D01*
X135757Y16023D01*
X135218Y15484D01*
X135030Y15521D01*
X134528Y16023D01*
X134069Y16213D01*
X125856Y16213D01*
X125397Y16023D01*
X124612Y15238D01*
X124583Y15170D01*
X123601D01*
X123514Y15663D01*
X123757Y16251D01*
Y16888D01*
X123514Y17476D01*
X123064Y17926D01*
X122476Y18170D01*
X121839D01*
X121251Y17926D01*
X120801Y17476D01*
X120557Y16888D01*
Y16251D01*
X120801Y15663D01*
X120587Y15170D01*
X120268D01*
Y1970D01*
X124618D01*
Y3282D01*
X125080Y3473D01*
X125744Y2809D01*
X126204Y2619D01*
X127722Y2619D01*
X128051Y2289D01*
X128051Y-10288D01*
X119198D01*
X118169Y-9259D01*
Y-6577D01*
X118094Y-6396D01*
X118052Y-6204D01*
X117450Y-5346D01*
Y-4850D01*
X117103D01*
X116614Y-4151D01*
X116564Y-4120D01*
X116541Y-4065D01*
X116360Y-3990D01*
X116195Y-3884D01*
X116137Y-3897D01*
X116082Y-3875D01*
X112894D01*
X112435Y-4065D01*
X111282Y-5218D01*
X111092Y-5677D01*
X111092Y-20887D01*
X110739Y-21240D01*
X107645D01*
X107294Y-21310D01*
X106996Y-21509D01*
X106304Y-22202D01*
X106118Y-22167D01*
X105951Y-21627D01*
X106253Y-21325D01*
X106443Y-20865D01*
X106443Y-4333D01*
X106253Y-3874D01*
X105100Y-2720D01*
X104641Y-2530D01*
X96422D01*
X95963Y-2720D01*
X95755Y-2928D01*
X95293Y-2737D01*
Y-2351D01*
X95103Y-1892D01*
X91753Y1458D01*
X91725Y1470D01*
X91825Y1970D01*
X93909D01*
Y15170D01*
X89560D01*
Y2462D01*
X89147Y2038D01*
X89060Y2014D01*
X88875Y2035D01*
X88791Y2148D01*
Y15170D01*
X84441D01*
Y1970D01*
X84441D01*
X84471Y1470D01*
X84443Y1458D01*
X82728Y-257D01*
X82538Y-716D01*
Y-2371D01*
X81854Y-3055D01*
X81829Y-3116D01*
X81774Y-3153D01*
X81768Y-3161D01*
X81760Y-3167D01*
X81723Y-3222D01*
X81662Y-3247D01*
X80265Y-4644D01*
X78661Y-4644D01*
X78599Y-4670D01*
X78534Y-4657D01*
X78051Y-4753D01*
X78006Y-4744D01*
X77941Y-4757D01*
X77879Y-4731D01*
X77704Y-4804D01*
X77518Y-4841D01*
X77482Y-4896D01*
X77420Y-4922D01*
X77063Y-5279D01*
X76589Y-5046D01*
X76603Y-4943D01*
Y-612D01*
X76514Y59D01*
X76325Y516D01*
X76548Y925D01*
X76641Y1002D01*
X76994D01*
X77582Y1246D01*
X78032Y1696D01*
X78073Y1793D01*
X78614D01*
X78654Y1696D01*
X79104Y1246D01*
X79692Y1002D01*
X80329D01*
X80917Y1246D01*
X81367Y1696D01*
X81611Y2284D01*
Y2920D01*
X81367Y3508D01*
X81229Y3646D01*
X81437Y4146D01*
X83673D01*
Y15189D01*
X80657D01*
Y16151D01*
X80587Y16502D01*
X80388Y16800D01*
X78248Y18940D01*
X77950Y19139D01*
X77599Y19209D01*
X63229D01*
X63200Y19697D01*
X63200Y19709D01*
Y25228D01*
X57670D01*
Y19709D01*
X57670Y19697D01*
X57641Y19209D01*
X55355D01*
X55326Y19697D01*
X55326Y19709D01*
Y25228D01*
X49796D01*
Y19697D01*
X54584D01*
X54633Y19197D01*
X54341Y19139D01*
X54043Y18940D01*
X46819Y11716D01*
X38494D01*
X36684Y13526D01*
X36875Y13988D01*
X47256D01*
Y18338D01*
X36213D01*
Y14650D01*
X35751Y14459D01*
X33948Y16262D01*
X33650Y16461D01*
X33299Y16531D01*
X9972D01*
X3776Y22727D01*
X3726Y22760D01*
X3703Y22794D01*
X286Y26211D01*
X-12Y26410D01*
X-363Y26480D01*
X-3890D01*
Y26839D01*
X-10208D01*
Y22686D01*
X-3890D01*
Y23045D01*
X-1406D01*
X-322Y21961D01*
X-261Y21486D01*
X-637Y20924D01*
X-769Y20261D01*
X-637Y19597D01*
X-261Y19035D01*
X-261Y19035D01*
X-261Y19035D01*
X301Y18659D01*
X965Y18527D01*
X1628Y18659D01*
X2190Y19035D01*
X2667Y18978D01*
X3751Y17894D01*
X8280Y13364D01*
X8578Y13166D01*
X8929Y13096D01*
X32256D01*
X36802Y8550D01*
X37100Y8351D01*
X37451Y8281D01*
X47862D01*
X48213Y8351D01*
X48511Y8550D01*
X55735Y15774D01*
X76189D01*
X76246Y15688D01*
X75979Y15189D01*
X74205D01*
Y5580D01*
X73744Y5379D01*
X73437Y5628D01*
Y15189D01*
X69087D01*
Y5269D01*
X68319D01*
X67859Y5079D01*
X67742Y4795D01*
X64546D01*
X64428Y5079D01*
X63969Y5269D01*
X62908D01*
X62789Y5220D01*
X62660D01*
X62568Y5128D01*
X62449Y5079D01*
X61938Y4937D01*
X59133Y7742D01*
X58835Y7941D01*
X58484Y8010D01*
X50815D01*
X50702Y8124D01*
X50114Y8367D01*
X49477D01*
X48889Y8124D01*
X48439Y7674D01*
X48196Y7086D01*
Y6449D01*
X48439Y5861D01*
X48531Y5769D01*
X48324Y5269D01*
X38315Y5269D01*
X32315Y11269D01*
X31855Y11460D01*
X16851D01*
X16392Y11269D01*
X15178Y10055D01*
X14988Y9596D01*
X14988Y-2450D01*
X15178Y-2909D01*
X16390Y-4121D01*
X16394Y-4143D01*
X16262Y-4701D01*
X16262Y-4701D01*
X16090Y-4772D01*
X16087Y-4773D01*
X16061Y-4835D01*
X16009Y-4870D01*
X16006Y-4871D01*
X15969Y-5057D01*
X15897Y-5233D01*
X15922Y-5294D01*
X15910Y-5359D01*
X15911Y-5360D01*
X16015Y-5517D01*
X16088Y-5692D01*
X16091Y-5693D01*
X16149Y-5717D01*
X16186Y-5772D01*
X16322Y-5863D01*
X16532Y-6178D01*
X16606Y-6549D01*
X16532Y-6920D01*
X16322Y-7234D01*
X16008Y-7444D01*
X15637Y-7518D01*
X15266Y-7444D01*
X14952Y-7234D01*
X14742Y-6920D01*
X14668Y-6549D01*
X14742Y-6178D01*
X14952Y-5863D01*
X15086Y-5774D01*
X15123Y-5718D01*
X15182Y-5694D01*
X15184Y-5693D01*
X15257Y-5518D01*
X15362Y-5361D01*
X15349Y-5295D01*
X15374Y-5233D01*
X15373Y-5232D01*
X15302Y-5059D01*
X15265Y-4873D01*
X15209Y-4836D01*
X15183Y-4774D01*
X15009Y-4702D01*
X14851Y-4597D01*
X14786Y-4610D01*
X14724Y-4585D01*
X8659Y-4591D01*
X8423Y-4689D01*
X8201Y-4781D01*
X234Y-12756D01*
X-587Y-12559D01*
X-2323Y-11840D01*
X-3926Y-10858D01*
X-5354Y-9637D01*
X-5600Y-9349D01*
X-5619Y-9350D01*
X-5966Y-8992D01*
X-11920Y-2724D01*
X-11800Y1968D01*
X-11694Y1989D01*
X-11366Y2208D01*
X-11146Y2537D01*
X-11069Y2925D01*
Y4500D01*
X-11146Y4887D01*
X-11366Y5216D01*
X-11694Y5436D01*
X-12082Y5513D01*
X-13263D01*
X-13651Y5436D01*
X-13980Y5216D01*
X-14199Y4887D01*
X-14276Y4500D01*
Y2925D01*
X-14199Y2537D01*
X-13980Y2208D01*
X-13651Y1989D01*
X-13635Y1986D01*
X-13747Y-2356D01*
X-13765Y-2825D01*
X-13765Y-2825D01*
X-13767Y-2828D01*
X-13768Y-2834D01*
X-13770Y-2847D01*
X-13770Y-2848D01*
X-13766D01*
X-13759Y-3087D01*
X-13726Y-3252D01*
X-13726Y-3252D01*
X-13716Y-3309D01*
X-13698Y-3416D01*
X-13691Y-3427D01*
X-13689Y-3438D01*
X-13596Y-3578D01*
X-13506Y-3719D01*
X-7294Y-10258D01*
X-6991Y-10578D01*
X-6993Y-10657D01*
X-6993Y-10657D01*
X-6992Y-10661D01*
X-6669Y-10948D01*
X-6667Y-10949D01*
X-6618Y-10991D01*
X-5016Y-12359D01*
X-3166Y-13493D01*
X-1161Y-14323D01*
X-772Y-14417D01*
Y-14615D01*
X-700Y-14790D01*
X-663Y-14975D01*
X-608Y-15012D01*
X-582Y-15074D01*
X-407Y-15146D01*
X-250Y-15252D01*
X169Y-15335D01*
X484Y-15545D01*
X694Y-15859D01*
X768Y-16230D01*
X694Y-16601D01*
X484Y-16916D01*
X169Y-17126D01*
X-28Y-17165D01*
X-186Y-17270D01*
X-361Y-17343D01*
X-386Y-17404D01*
X-439Y-17440D01*
X-442Y-17441D01*
X-444Y-17452D01*
X-797Y-17664D01*
X-1013Y-17689D01*
X-4368Y-15635D01*
X-8283Y-12890D01*
X-12020Y-9908D01*
X-15566Y-6700D01*
X-18906Y-3279D01*
X-22029Y342D01*
X-24921Y4149D01*
X-26110Y5934D01*
X-26110Y22250D01*
X-25956Y22686D01*
X-25610Y22686D01*
X-20265D01*
X-17355Y19776D01*
Y17467D01*
X-17285Y17116D01*
X-17086Y16818D01*
X-15060Y14792D01*
X-14762Y14593D01*
X-14411Y14523D01*
X-10672D01*
X-10233Y14084D01*
X-9645Y13841D01*
X-9009D01*
X-8421Y14084D01*
X-7971Y14534D01*
X-7727Y15123D01*
Y15759D01*
X-7971Y16347D01*
X-8421Y16797D01*
X-9009Y17041D01*
X-9645D01*
X-9989Y17439D01*
X-9982Y17456D01*
Y18092D01*
X-10226Y18680D01*
X-10537Y18991D01*
X-10281Y19378D01*
X-10242Y19403D01*
X-9910Y19337D01*
X-7557D01*
X-4135Y15916D01*
Y15295D01*
X-3892Y14707D01*
X-3442Y14257D01*
X-2854Y14013D01*
X-2217D01*
X-1629Y14257D01*
X-1179Y14707D01*
X-935Y15295D01*
Y15932D01*
X-1179Y16520D01*
X-1629Y16970D01*
X-2217Y17213D01*
X-2838D01*
X-6528Y20903D01*
X-6826Y21102D01*
X-7177Y21172D01*
X-9530D01*
X-10848Y22490D01*
Y24149D01*
X-10918Y24500D01*
X-11117Y24798D01*
X-12100Y25781D01*
X-12398Y25980D01*
X-12749Y26050D01*
X-14904D01*
X-16041Y27188D01*
X-15924Y27777D01*
X-15725Y27860D01*
X-15275Y28310D01*
X-15032Y28898D01*
Y29534D01*
X-15275Y30122D01*
X-14949Y30503D01*
X-14776Y30575D01*
X-14326Y31025D01*
X-14082Y31613D01*
Y32250D01*
X-14326Y32838D01*
X-14776Y33288D01*
X-15364Y33532D01*
X-15717D01*
X-16440Y34254D01*
X-16455Y34273D01*
X-16468Y34880D01*
X-16289Y35059D01*
X-16046Y35647D01*
Y36283D01*
X-16289Y36871D01*
X-16739Y37321D01*
X-17327Y37565D01*
X-17964D01*
X-18552Y37321D01*
X-19002Y36871D01*
X-19075Y36695D01*
X-22454D01*
X-22521Y36681D01*
X-25956Y36681D01*
X-26110Y37118D01*
Y37998D01*
X-25956Y38434D01*
X-25610Y38434D01*
X-19638D01*
Y40689D01*
X-19410Y40735D01*
X-19112Y40934D01*
X-18182Y41863D01*
X-17561D01*
X-16973Y42107D01*
X-16523Y42557D01*
X-16279Y43145D01*
Y43782D01*
X-16523Y44370D01*
X-16596Y44443D01*
X-16313Y44867D01*
X-16244Y44839D01*
X-15607D01*
X-15418Y44917D01*
X-11663Y41162D01*
Y40810D01*
X-11594Y40458D01*
X-11395Y40161D01*
X-10304Y39070D01*
X-10208Y39006D01*
Y38434D01*
X-3890D01*
Y39892D01*
X5194D01*
X6739Y38346D01*
X7037Y38147D01*
X7388Y38078D01*
X30840D01*
X31032Y38116D01*
X31449Y37943D01*
X32085D01*
X32673Y38186D01*
X33123Y38636D01*
X33367Y39225D01*
Y39861D01*
X33123Y40449D01*
X32673Y40899D01*
X32085Y41143D01*
X31449D01*
X30860Y40899D01*
X30410Y40449D01*
X30188Y39913D01*
X7768D01*
X6223Y41458D01*
X5925Y41657D01*
X5574Y41727D01*
X2033D01*
X1699Y42227D01*
X1767Y42391D01*
Y43028D01*
X1524Y43616D01*
X1073Y44066D01*
X485Y44309D01*
X-151D01*
X-739Y44066D01*
X-1189Y43616D01*
X-1433Y43028D01*
Y42391D01*
X-1365Y42227D01*
X-1699Y41727D01*
X-3708D01*
X-3766Y41766D01*
X-3785Y41770D01*
X-3890Y41875D01*
Y42587D01*
X-10208D01*
X-10208Y42587D01*
Y42587D01*
X-10652Y42746D01*
X-14325Y46420D01*
Y46757D01*
X-14569Y47345D01*
X-15019Y47795D01*
X-15607Y48039D01*
X-16244D01*
X-16832Y47795D01*
X-17282Y47345D01*
X-17526Y46757D01*
Y46120D01*
X-17282Y45532D01*
X-17208Y45458D01*
X-17491Y45035D01*
X-17561Y45063D01*
X-18197D01*
X-18785Y44820D01*
X-19138Y44467D01*
X-19593Y44592D01*
X-19638Y44620D01*
Y46308D01*
Y50114D01*
X-18981D01*
X-18972Y50093D01*
X-18522Y49643D01*
X-17934Y49400D01*
X-17297D01*
X-16709Y49643D01*
X-16259Y50093D01*
X-16016Y50681D01*
Y51318D01*
X-16259Y51906D01*
X-16709Y52356D01*
X-17297Y52600D01*
X-17934D01*
X-18074Y52542D01*
X-18170Y52561D01*
X-22797D01*
X-23265Y52468D01*
X-23323Y52429D01*
X-25956Y52429D01*
X-26110Y52866D01*
Y53746D01*
X-25956Y54182D01*
X-25610Y54182D01*
X-19638D01*
X-19244Y53927D01*
X-19236Y53907D01*
X-18785Y53457D01*
X-18197Y53214D01*
X-17561D01*
X-16973Y53457D01*
X-16523Y53907D01*
X-16279Y54495D01*
Y55132D01*
X-16384Y55385D01*
X-16050Y55885D01*
X-13694D01*
X-13271Y55462D01*
X-12778Y55258D01*
X-12709Y55109D01*
X-12673Y54958D01*
X-12664Y54718D01*
X-13021Y54362D01*
X-13264Y53774D01*
Y53137D01*
X-13021Y52549D01*
X-12571Y52099D01*
X-11983Y51856D01*
X-11346D01*
X-10758Y52099D01*
X-10689Y52168D01*
X-10208Y52214D01*
X-10208Y52214D01*
X-10208Y52214D01*
X-3890D01*
Y56366D01*
X-10208D01*
Y54969D01*
X-10708Y54762D01*
X-10758Y54812D01*
X-11251Y55016D01*
X-11321Y55165D01*
X-11356Y55316D01*
X-11365Y55556D01*
X-11009Y55912D01*
X-10765Y56500D01*
Y57137D01*
X-11009Y57725D01*
X-11459Y58175D01*
X-11473Y58181D01*
Y58722D01*
X-11467Y58724D01*
X-11016Y59174D01*
X-10773Y59763D01*
Y60399D01*
X-11016Y60987D01*
X-11467Y61437D01*
X-11946Y61636D01*
X-11742Y62128D01*
Y62764D01*
X-11971Y63316D01*
X-11897Y63347D01*
X-11447Y63797D01*
X-11203Y64385D01*
Y65022D01*
X-11447Y65610D01*
X-11897Y66060D01*
X-12450Y66289D01*
X-12450Y68973D01*
X-12640Y69433D01*
X-12646Y69439D01*
X-12455Y69901D01*
X-3168D01*
X-2895Y69401D01*
X-3054Y69016D01*
Y68380D01*
X-2811Y67792D01*
X-2361Y67342D01*
X-1773Y67098D01*
X-1136D01*
X-548Y67342D01*
X-98Y67792D01*
X146Y68380D01*
Y69003D01*
X184Y69039D01*
X579Y69277D01*
X1107Y68749D01*
X1636Y68395D01*
X2260Y68271D01*
X6987D01*
X7612Y68395D01*
X8141Y68749D01*
X10306Y70913D01*
X12652D01*
X12859Y70414D01*
X12797Y70351D01*
X12554Y69763D01*
Y69127D01*
X12797Y68539D01*
X12960Y68376D01*
X12978Y68287D01*
X13276Y67841D01*
X15074Y66043D01*
Y56790D01*
X21195D01*
Y66092D01*
X21657Y66283D01*
X26341Y61599D01*
Y58588D01*
X26327Y58568D01*
X26203Y57944D01*
Y55196D01*
X26235Y55038D01*
Y54877D01*
X26296Y54729D01*
X26327Y54571D01*
X26417Y54438D01*
X26478Y54289D01*
X26592Y54176D01*
X26681Y54042D01*
X26815Y53953D01*
X26928Y53839D01*
X27077Y53778D01*
X27210Y53689D01*
X27368Y53657D01*
X27516Y53596D01*
X27677D01*
X27835Y53564D01*
X27992Y53596D01*
X28153D01*
X28301Y53657D01*
X28459Y53689D01*
X28593Y53778D01*
X28741Y53839D01*
X28855Y53953D01*
X28988Y54042D01*
X29077Y54176D01*
X29191Y54289D01*
X29252Y54438D01*
X29342Y54571D01*
X29373Y54729D01*
X29435Y54877D01*
Y55038D01*
X29466Y55196D01*
Y57437D01*
X29480Y57457D01*
X29531Y57716D01*
X29535Y57726D01*
Y57737D01*
X29604Y58081D01*
Y62275D01*
X29480Y62899D01*
X29126Y63428D01*
X18856Y73698D01*
X18326Y74052D01*
X17702Y74176D01*
X15912D01*
X15613Y74676D01*
X15754Y75015D01*
Y75652D01*
X15510Y76240D01*
X15060Y76690D01*
X14472Y76934D01*
X13835D01*
X13247Y76690D01*
X12797Y76240D01*
X12554Y75652D01*
Y75015D01*
X12694Y74676D01*
X12395Y74176D01*
X9630D01*
X9005Y74052D01*
X8947Y74013D01*
X8586Y74213D01*
X8488Y74307D01*
Y75685D01*
X8404Y76103D01*
X8167Y76458D01*
X7813Y76695D01*
X7394Y76778D01*
X4796D01*
X4377Y76695D01*
X4022Y76458D01*
X3785Y76103D01*
X3702Y75685D01*
Y74891D01*
X3279Y74467D01*
X3169Y74445D01*
X3009D01*
X2860Y74384D01*
X2702Y74353D01*
X2569Y74263D01*
X2420Y74202D01*
X2307Y74088D01*
X2173Y73999D01*
X2084Y73865D01*
X1970Y73752D01*
X1909Y73603D01*
X1820Y73470D01*
X1788Y73312D01*
X1727Y73164D01*
Y73047D01*
X1654Y72827D01*
X1227Y72636D01*
X1140Y72654D01*
X-280D01*
X-904Y72530D01*
X-1433Y72176D01*
X-1455Y72144D01*
X-3890D01*
Y74083D01*
X-10208D01*
Y72144D01*
X-16169D01*
X-16503Y72644D01*
X-16437Y72804D01*
Y73441D01*
X-16680Y74029D01*
X-17131Y74479D01*
X-17719Y74722D01*
X-18355D01*
X-18943Y74479D01*
X-19302Y74120D01*
X-22789D01*
X-22789Y74120D01*
X-22977Y74083D01*
X-25956Y74083D01*
X-26110Y74519D01*
Y75062D01*
X-25709Y75402D01*
X-19638D01*
X-19539Y75443D01*
X-19433Y75435D01*
X-19419Y75448D01*
X-19400Y75447D01*
X-18970Y75617D01*
X-18909Y75676D01*
X-18839Y75690D01*
X-18616Y75839D01*
X-18415Y75879D01*
X-14966D01*
X-14905Y75904D01*
X-14840Y75891D01*
X-14682Y75997D01*
X-14507Y76069D01*
X-14482Y76131D01*
X-14426Y76168D01*
X-14409Y76194D01*
X-14094Y76404D01*
X-13723Y76478D01*
X-13352Y76404D01*
X-13038Y76194D01*
X-12828Y75880D01*
X-12823Y75852D01*
X-12717Y75695D01*
X-12645Y75520D01*
X-12583Y75494D01*
X-12546Y75439D01*
X-12361Y75402D01*
X-12186Y75330D01*
X-10208D01*
X-10033Y75402D01*
X-7056D01*
X-6994Y75428D01*
X-6929Y75415D01*
X-6893Y75422D01*
X-4938D01*
X-4479Y75612D01*
X-4255Y75836D01*
X-3890D01*
Y76200D01*
X-3692Y76399D01*
X-3502Y76858D01*
X-3502Y79050D01*
X-3692Y79509D01*
X-3890Y79707D01*
Y79988D01*
X-4172D01*
X-9351Y85167D01*
X-9810Y85358D01*
X-18591Y85358D01*
X-18738Y85297D01*
X-18897Y85281D01*
X-18959Y85205D01*
X-19050Y85167D01*
X-19111Y85020D01*
X-19213Y84897D01*
X-19291Y84636D01*
X-19463Y84555D01*
X-20226D01*
X-20397Y84636D01*
X-20476Y84897D01*
X-20577Y85020D01*
X-20639Y85167D01*
X-20729Y85205D01*
X-20792Y85281D01*
X-20950Y85297D01*
X-21098Y85358D01*
X-21834D01*
X-22293Y85167D01*
X-25648Y81813D01*
X-26110Y82004D01*
X-26110Y93684D01*
X-24930Y95390D01*
X-22066Y99064D01*
X-18996Y102568D01*
X-15732Y105890D01*
X-12282Y109021D01*
X-8660Y111949D01*
X-4876Y114665D01*
X-942Y117161D01*
X3127Y119428D01*
X7320Y121458D01*
X11621Y123246D01*
X16018Y124784D01*
X20495Y126069D01*
X25039Y127096D01*
X29634Y127861D01*
X34265Y128362D01*
X36591Y128480D01*
X36644Y128494D01*
X36700Y128493D01*
X36769Y128506D01*
X187545Y128506D01*
D02*
G37*
G36*
X-4151Y79050D02*
X-4151Y76858D01*
X-4938Y76071D01*
X-6957D01*
X-7056Y76051D01*
X-10208D01*
Y75979D01*
X-12186D01*
X-12216Y76133D01*
X-12570Y76662D01*
X-13099Y77016D01*
X-13723Y77140D01*
X-14348Y77016D01*
X-14877Y76662D01*
X-14966Y76528D01*
X-18479D01*
X-18869Y76451D01*
X-19200Y76230D01*
X-19208Y76221D01*
X-19638Y76051D01*
X-19638Y76051D01*
Y76051D01*
X-19638Y76051D01*
X-25751D01*
X-26110Y76411D01*
Y80432D01*
X-21834Y84708D01*
X-21098D01*
X-20946Y84208D01*
X-21228Y84020D01*
X-21652Y83385D01*
X-21801Y82636D01*
X-21652Y81888D01*
X-21228Y81253D01*
X-20593Y80829D01*
X-19844Y80680D01*
X-19096Y80829D01*
X-18461Y81253D01*
X-18037Y81888D01*
X-17888Y82636D01*
X-18037Y83385D01*
X-18461Y84020D01*
X-18743Y84208D01*
X-18591Y84708D01*
X-9810Y84708D01*
X-4151Y79050D01*
D02*
G37*
G36*
X-13099Y68973D02*
X-13099Y66276D01*
X-13428Y66211D01*
X-13957Y65857D01*
X-14310Y65328D01*
X-14435Y64704D01*
X-14403Y64547D01*
X-14925Y64025D01*
X-14931D01*
X-15215Y64215D01*
X-15839Y64339D01*
X-16464Y64215D01*
X-16715Y64047D01*
X-16973Y64433D01*
X-17502Y64787D01*
X-18126Y64911D01*
X-18751Y64787D01*
X-19280Y64433D01*
X-19634Y63904D01*
X-19723Y63453D01*
X-20053Y63123D01*
Y62655D01*
X-20407Y62301D01*
X-22797D01*
X-22945Y62272D01*
X-25320D01*
Y67962D01*
X-22945D01*
X-22797Y67932D01*
X-18964D01*
X-18801Y67688D01*
X-18271Y67335D01*
X-17647Y67210D01*
X-17023Y67335D01*
X-16494Y67688D01*
X-16140Y68217D01*
X-16016Y68842D01*
X-16057Y69046D01*
X-15202Y69901D01*
X-14027D01*
X-13099Y68973D01*
D02*
G37*
G36*
X-22605Y28574D02*
X-20023D01*
X-15933Y24484D01*
X-15635Y24285D01*
X-15284Y24215D01*
X-13129D01*
X-12683Y23769D01*
Y22110D01*
X-12614Y21759D01*
X-12415Y21461D01*
X-10559Y19606D01*
X-10843Y19199D01*
X-11264Y19374D01*
X-11901D01*
X-12489Y19130D01*
X-12939Y18680D01*
X-13159Y18149D01*
X-13953D01*
X-14099Y18295D01*
Y20745D01*
X-14169Y21096D01*
X-14368Y21394D01*
X-19197Y26223D01*
X-19495Y26422D01*
X-19638Y26450D01*
Y26839D01*
X-25610D01*
X-25956Y26839D01*
X-26110Y27275D01*
Y28155D01*
X-25956Y28592D01*
X-25610Y28592D01*
X-22694D01*
X-22605Y28574D01*
D02*
G37*
G36*
X61409Y2871D02*
X61217Y2409D01*
X52981D01*
Y4500D01*
X52911Y4851D01*
X52712Y5149D01*
X52148Y5713D01*
X52339Y6175D01*
X58104D01*
X61409Y2871D01*
D02*
G37*
G36*
X38046Y4620D02*
X50646Y4620D01*
X51145Y4120D01*
Y2409D01*
X48903D01*
Y-3515D01*
X49051D01*
X49303Y-4015D01*
X49111Y-4303D01*
X48987Y-4927D01*
X49111Y-5551D01*
X49464Y-6080D01*
X49994Y-6434D01*
X50618Y-6558D01*
X51242Y-6434D01*
X51479Y-6276D01*
X52045Y-6245D01*
X52200Y-6339D01*
X52588Y-6598D01*
X53213Y-6722D01*
X53837Y-6598D01*
X54366Y-6244D01*
X54415Y-6172D01*
X54737D01*
X55266Y-6526D01*
X55866Y-6645D01*
X57004Y-7783D01*
X57301Y-7982D01*
X57653Y-8052D01*
X59630D01*
X59981Y-7982D01*
X60279Y-7783D01*
X61386Y-6676D01*
X61891Y-6575D01*
X61979Y-6572D01*
X62542Y-6772D01*
X62595Y-6851D01*
X62483Y-7247D01*
X62130Y-7776D01*
X62005Y-8400D01*
X62130Y-9024D01*
X62483Y-9554D01*
X63012Y-9907D01*
X63637Y-10031D01*
X64261Y-9907D01*
X64790Y-9554D01*
X65144Y-9024D01*
X65268Y-8400D01*
X65144Y-7776D01*
X64790Y-7246D01*
X64459Y-7025D01*
Y-6502D01*
X64459Y-6502D01*
X64389Y-6151D01*
X64191Y-5854D01*
X64160Y-5823D01*
Y-4283D01*
X64160Y-4283D01*
X64107Y-4015D01*
X64315Y-3608D01*
X64336Y-3579D01*
X64413Y-3515D01*
X65064D01*
Y2409D01*
X64388D01*
X64232Y2642D01*
X62717Y4158D01*
X62908Y4620D01*
X63969D01*
Y4146D01*
X68319D01*
Y4620D01*
X69087D01*
Y4146D01*
X70801D01*
X72656Y2291D01*
Y1585D01*
X72180Y1220D01*
X71863Y807D01*
X71363Y955D01*
Y2409D01*
X67801D01*
Y-2942D01*
X67629Y-2976D01*
X67007Y-3391D01*
X66592Y-4013D01*
X66446Y-4746D01*
X66592Y-5480D01*
X67007Y-6101D01*
X67629Y-6517D01*
X68362Y-6663D01*
X69095Y-6517D01*
X69717Y-6101D01*
X70132Y-5480D01*
X70278Y-4746D01*
X70132Y-4013D01*
X70095Y-3956D01*
X70330Y-3515D01*
X71363D01*
X71421Y-3991D01*
Y-4943D01*
X71509Y-5613D01*
X71768Y-6238D01*
X72180Y-6775D01*
X72470Y-6997D01*
X72500Y-7576D01*
X68199Y-11877D01*
X41466D01*
X36360Y-8544D01*
X35293Y-6116D01*
X19303Y-6116D01*
X15637Y-2450D01*
X15637Y9596D01*
X16851Y10810D01*
X31855D01*
X38046Y4620D01*
D02*
G37*
G36*
X94643Y-2351D02*
X94643Y-7717D01*
X94304Y-8057D01*
X94061Y-8009D01*
X93437Y-8133D01*
X92908Y-8487D01*
X92880Y-8528D01*
X91720D01*
X91134Y-7941D01*
Y-4163D01*
X90799Y-3828D01*
X90718Y-3708D01*
X90438Y-3521D01*
X90108Y-3455D01*
X88632D01*
X88302Y-3521D01*
X88031Y-3702D01*
X86460D01*
X85133Y-5029D01*
Y-8192D01*
X84895Y-8431D01*
X84568Y-8496D01*
X84239Y-8716D01*
X84019Y-9044D01*
X83954Y-9371D01*
X83188Y-10138D01*
X82475Y-11444D01*
Y-11512D01*
X79659D01*
Y-19810D01*
X80006Y-20158D01*
X80050Y-20375D01*
X80403Y-20904D01*
X80933Y-21258D01*
X81150Y-21301D01*
X81850Y-22002D01*
Y-23678D01*
X78101Y-27427D01*
X39074D01*
X38192Y-26545D01*
X38252Y-26428D01*
X38244Y-26404D01*
X38253Y-26380D01*
Y-25510D01*
X38063Y-25051D01*
X36890Y-23878D01*
X36431Y-23688D01*
X33752Y-23688D01*
X32914Y-22850D01*
Y-14528D01*
X32914Y-14528D01*
X32914Y-14528D01*
X32823Y-14308D01*
X32790Y-14228D01*
Y-13928D01*
X31747Y-12885D01*
X31354D01*
X31210Y-12825D01*
X17027D01*
X16883Y-12885D01*
X16482D01*
X15112Y-14052D01*
Y-14492D01*
X14938Y-14915D01*
Y-17663D01*
X13293Y-19308D01*
X1927D01*
X1240Y-18944D01*
X98Y-17802D01*
X423Y-17738D01*
X952Y-17384D01*
X1306Y-16855D01*
X1430Y-16230D01*
X1306Y-15606D01*
X952Y-15077D01*
X423Y-14723D01*
X-123Y-14615D01*
Y-14032D01*
X8660Y-5240D01*
X14725Y-5234D01*
X14483Y-5395D01*
X14130Y-5924D01*
X14006Y-6549D01*
X14130Y-7173D01*
X14483Y-7702D01*
X15013Y-8056D01*
X15637Y-8180D01*
X16261Y-8056D01*
X16791Y-7702D01*
X17144Y-7173D01*
X17268Y-6549D01*
X17144Y-5924D01*
X16791Y-5395D01*
X16546Y-5232D01*
X17500Y-5231D01*
X18844Y-6575D01*
X19303Y-6765D01*
X32715Y-6765D01*
X34709Y-8139D01*
X35473D01*
X35766Y-8805D01*
X35900Y-8934D01*
X36005Y-9088D01*
X41111Y-12421D01*
X41294Y-12455D01*
X41466Y-12527D01*
X68199D01*
X68658Y-12336D01*
X72855Y-8139D01*
X75121D01*
X77879Y-5381D01*
X78051Y-5415D01*
X78661Y-5294D01*
X80534Y-5294D01*
X82121Y-3707D01*
X82236Y-3630D01*
X82314Y-3514D01*
X83188Y-2640D01*
Y-716D01*
X84903Y999D01*
X91294Y999D01*
X94643Y-2351D01*
D02*
G37*
G36*
X145637Y14622D02*
X145637Y4880D01*
X144026Y3268D01*
X139974D01*
X138779Y2074D01*
X138780Y-10937D01*
X140453D01*
X140534Y-10849D01*
X140590Y-10861D01*
X141771D01*
X142158Y-10784D01*
X142487Y-10564D01*
X142707Y-10235D01*
X142784Y-9847D01*
Y-9158D01*
X144281Y-9176D01*
X145819Y-10937D01*
Y-13634D01*
X143383Y-16070D01*
X141910D01*
X141261Y-16199D01*
X140710Y-16567D01*
X140411Y-17015D01*
X138714D01*
X135256Y-20473D01*
Y-23868D01*
X128753D01*
X128753Y-21528D01*
X124640Y-15156D01*
X122222Y-14064D01*
X118985D01*
X117974Y-15076D01*
X117974Y-20733D01*
X114824Y-23883D01*
X113579Y-23883D01*
X111741Y-22046D01*
X111741Y-5677D01*
X112894Y-4524D01*
X116082D01*
X117520Y-6577D01*
Y-9528D01*
X118929Y-10937D01*
X128701D01*
X128701Y2558D01*
X127990Y3268D01*
X126204Y3268D01*
X125071Y4401D01*
X125071Y14779D01*
X125856Y15564D01*
X134069Y15564D01*
X134571Y15062D01*
X134571Y-10937D01*
X135307D01*
X135307Y3268D01*
X135307Y14655D01*
X136216Y15564D01*
X144695Y15564D01*
X145637Y14622D01*
D02*
G37*
G36*
X105794Y-4333D02*
X105794Y-20865D01*
X104921Y-21738D01*
X97786Y-21738D01*
X97417Y-21370D01*
Y-19294D01*
X97934Y-18777D01*
X98963Y-17748D01*
X98963Y-8962D01*
X98321Y-8319D01*
X96116Y-8316D01*
X95826D01*
X95473Y-7962D01*
Y-4129D01*
X96422Y-3180D01*
X104641D01*
X105794Y-4333D01*
D02*
G37*
G36*
X14938Y-19235D02*
Y-22056D01*
X15128Y-22515D01*
X15921Y-23308D01*
X16879Y-24267D01*
X16946Y-24295D01*
X16988Y-24354D01*
X18295Y-25193D01*
X18095Y-25659D01*
X17322Y-25469D01*
X12757Y-24048D01*
X8288Y-22347D01*
X4122Y-20458D01*
X4230Y-19958D01*
X13293D01*
X13752Y-19767D01*
X14476Y-19044D01*
X14938Y-19235D01*
D02*
G37*
G36*
X32265Y-14528D02*
Y-23119D01*
X33483Y-24338D01*
X36431Y-24338D01*
X37604Y-25510D01*
Y-26380D01*
X36139Y-27645D01*
X36139Y-27645D01*
X34023Y-27674D01*
X29800Y-27391D01*
X25613Y-26770D01*
X21489Y-25817D01*
X19472Y-25176D01*
X17338Y-23808D01*
X16380Y-22849D01*
X15587Y-22056D01*
Y-14915D01*
X17027Y-13474D01*
X31210D01*
X32265Y-14528D01*
D02*
G37*
%LPC*%
G36*
X180914Y124391D02*
X180894D01*
Y120938D01*
X184347D01*
Y120959D01*
X184077Y121964D01*
X183557Y122865D01*
X182821Y123601D01*
X181920Y124122D01*
X180914Y124391D01*
D02*
G37*
G36*
X179894D02*
X179873D01*
X178868Y124122D01*
X177966Y123601D01*
X177231Y122865D01*
X176710Y121964D01*
X176441Y120959D01*
Y120938D01*
X179894D01*
Y124391D01*
D02*
G37*
G36*
X184347Y119938D02*
X180894D01*
Y116485D01*
X180914D01*
X181920Y116755D01*
X182821Y117275D01*
X183557Y118011D01*
X184077Y118912D01*
X184347Y119918D01*
Y119938D01*
D02*
G37*
G36*
X179894D02*
X176441D01*
Y119918D01*
X176710Y118912D01*
X177231Y118011D01*
X177966Y117275D01*
X178868Y116755D01*
X179873Y116485D01*
X179894D01*
Y119938D01*
D02*
G37*
G36*
X139972Y127393D02*
X135623D01*
Y116351D01*
X139972D01*
Y127393D01*
D02*
G37*
G36*
X129736D02*
X125386D01*
Y116351D01*
X129736D01*
Y127393D01*
D02*
G37*
G36*
X124618D02*
X120268D01*
Y116351D01*
X124618D01*
Y127393D01*
D02*
G37*
G36*
X119500D02*
X115150D01*
Y116351D01*
X119500D01*
Y127393D01*
D02*
G37*
G36*
X114382D02*
X110032D01*
Y116351D01*
X114382D01*
Y127393D01*
D02*
G37*
G36*
X99027D02*
X94678D01*
Y116351D01*
X99027D01*
Y127393D01*
D02*
G37*
G36*
X93909D02*
X89560D01*
Y116351D01*
X93909D01*
Y127393D01*
D02*
G37*
G36*
X88791D02*
X84441D01*
Y116351D01*
X88791D01*
Y127393D01*
D02*
G37*
G36*
X63200D02*
X58851D01*
Y116351D01*
X63200D01*
Y127393D01*
D02*
G37*
G36*
X58082D02*
X53733D01*
Y116351D01*
X58082D01*
Y127393D01*
D02*
G37*
G36*
X19513Y117262D02*
X18096D01*
X17677Y117179D01*
X17323Y116942D01*
X17086Y116587D01*
X17002Y116169D01*
Y116065D01*
X15849D01*
X15410Y116504D01*
X14822Y116748D01*
X14186D01*
X13598Y116504D01*
X13147Y116054D01*
X12904Y115466D01*
Y114829D01*
X13147Y114241D01*
X13598Y113791D01*
X14186Y113548D01*
X14822D01*
X15410Y113791D01*
X15849Y114230D01*
X17002D01*
Y113570D01*
X17086Y113152D01*
X17323Y112797D01*
X17677Y112560D01*
X18096Y112477D01*
X19513D01*
X19931Y112560D01*
X20286Y112797D01*
X20523Y113152D01*
X20606Y113570D01*
Y116169D01*
X20523Y116587D01*
X20286Y116942D01*
X19931Y117179D01*
X19513Y117262D01*
D02*
G37*
G36*
X134854Y127393D02*
X130504D01*
Y116351D01*
X130994D01*
X131201Y115851D01*
X131077Y115726D01*
X130833Y115138D01*
Y114502D01*
X131077Y113914D01*
X131527Y113464D01*
X132115Y113220D01*
X132751D01*
X133339Y113464D01*
X133790Y113914D01*
X134033Y114502D01*
Y115138D01*
X133790Y115726D01*
X133665Y115851D01*
X133872Y116351D01*
X134854D01*
Y127393D01*
D02*
G37*
G36*
X47256Y117551D02*
X36213D01*
Y113201D01*
X47256D01*
Y117551D01*
D02*
G37*
G36*
X78555Y127393D02*
X74205D01*
Y116351D01*
X74859D01*
X75066Y115851D01*
X72079Y112864D01*
X71603Y112905D01*
X71351Y113329D01*
X71484Y113649D01*
Y114286D01*
X71240Y114874D01*
X70790Y115324D01*
X70202Y115568D01*
X70114D01*
X69890Y116047D01*
X70007Y116216D01*
X70118Y116337D01*
X70186Y116351D01*
X73437D01*
Y127393D01*
X69087D01*
Y118227D01*
X68854Y118072D01*
X65179Y114396D01*
X61679D01*
X61342Y114733D01*
X60754Y114977D01*
X60118D01*
X59530Y114733D01*
X59079Y114283D01*
X58836Y113695D01*
Y113058D01*
X59079Y112470D01*
X59208Y112342D01*
X59001Y111842D01*
X58142D01*
X58141Y111842D01*
X58141Y111842D01*
X57760Y111842D01*
X57524Y112282D01*
X57910Y112668D01*
X58153Y113256D01*
Y113892D01*
X57910Y114480D01*
X57460Y114930D01*
X56872Y115174D01*
X56235D01*
X55647Y114930D01*
X55197Y114480D01*
X54953Y113892D01*
Y113256D01*
X55197Y112668D01*
X55647Y112217D01*
X56235Y111974D01*
X56872D01*
X57082Y112061D01*
X57297Y112150D01*
X57670Y111774D01*
X57670Y111380D01*
Y106311D01*
X63200D01*
Y111842D01*
X62456D01*
X62189Y112342D01*
X62199Y112357D01*
X65342D01*
X65469Y112167D01*
Y111530D01*
X65712Y110942D01*
X66163Y110492D01*
X66751Y110249D01*
X67387D01*
X67975Y110492D01*
X68425Y110942D01*
X68431Y110955D01*
X72385D01*
X72737Y111025D01*
X73034Y111224D01*
X77029Y115218D01*
X77228Y115516D01*
X77298Y115867D01*
Y116351D01*
X78555D01*
Y127393D01*
D02*
G37*
G36*
X117572Y115794D02*
X116936D01*
X116347Y115551D01*
X115897Y115101D01*
X115654Y114513D01*
Y113876D01*
X115897Y113288D01*
X116347Y112838D01*
X116936Y112594D01*
X117572D01*
X118160Y112838D01*
X118610Y113288D01*
X118854Y113876D01*
Y114513D01*
X118610Y115101D01*
X118160Y115551D01*
X117572Y115794D01*
D02*
G37*
G36*
X104537D02*
X103901D01*
X103313Y115551D01*
X102863Y115101D01*
X102619Y114513D01*
Y113876D01*
X102863Y113288D01*
X103313Y112838D01*
X103901Y112594D01*
X104537D01*
X105125Y112838D01*
X105576Y113288D01*
X105819Y113876D01*
Y114513D01*
X105576Y115101D01*
X105125Y115551D01*
X104537Y115794D01*
D02*
G37*
G36*
X91204D02*
X90567D01*
X89979Y115551D01*
X89529Y115101D01*
X89286Y114513D01*
Y113876D01*
X89529Y113288D01*
X89979Y112838D01*
X90567Y112594D01*
X91204D01*
X91792Y112838D01*
X92242Y113288D01*
X92486Y113876D01*
Y114513D01*
X92242Y115101D01*
X91792Y115551D01*
X91204Y115794D01*
D02*
G37*
G36*
X25419Y117262D02*
X24001D01*
X23583Y117179D01*
X23228Y116942D01*
X22991Y116587D01*
X22908Y116169D01*
Y113570D01*
X22991Y113152D01*
X23228Y112797D01*
X23583Y112560D01*
X24001Y112477D01*
X25419D01*
X25837Y112560D01*
X26192Y112797D01*
X26429Y113152D01*
X26449Y113252D01*
X27252D01*
X27691Y112813D01*
X28279Y112570D01*
X28915D01*
X29504Y112813D01*
X29954Y113263D01*
X30197Y113851D01*
Y114488D01*
X29954Y115076D01*
X29504Y115526D01*
X28915Y115770D01*
X28279D01*
X27691Y115526D01*
X27252Y115087D01*
X26512D01*
Y116169D01*
X26429Y116587D01*
X26192Y116942D01*
X25837Y117179D01*
X25419Y117262D01*
D02*
G37*
G36*
X36762Y112460D02*
X32422D01*
X32071Y112391D01*
X31773Y112192D01*
X30409Y110828D01*
X30375Y110842D01*
X29739D01*
X29151Y110598D01*
X28726Y110173D01*
X28006D01*
X27952Y110445D01*
X27733Y110773D01*
X27404Y110993D01*
X27016Y111070D01*
X25835D01*
X25447Y110993D01*
X25119Y110773D01*
X24899Y110445D01*
X24822Y110057D01*
Y108482D01*
X24899Y108095D01*
X25119Y107766D01*
X25447Y107546D01*
X25835Y107469D01*
X27016D01*
X27404Y107546D01*
X27733Y107766D01*
X27952Y108095D01*
X28001Y108338D01*
X28700D01*
X28701Y108336D01*
X29151Y107886D01*
X29739Y107642D01*
X30375D01*
X30692Y107773D01*
X30975Y107349D01*
X30346Y106720D01*
X29725D01*
X29137Y106476D01*
X28687Y106026D01*
X28443Y105438D01*
X27962Y105293D01*
X27913Y105304D01*
X27733Y105573D01*
X27404Y105793D01*
X27016Y105870D01*
X25835D01*
X25447Y105793D01*
X25119Y105573D01*
X24899Y105245D01*
X24822Y104857D01*
Y103282D01*
X24899Y102894D01*
X25119Y102566D01*
X25447Y102346D01*
X25835Y102269D01*
X27016D01*
X27404Y102346D01*
X27733Y102566D01*
X27952Y102894D01*
X28019Y103232D01*
X28694D01*
X29046Y103302D01*
X29343Y103501D01*
X29469Y103626D01*
X29725Y103520D01*
X30362D01*
X30950Y103763D01*
X31400Y104213D01*
X31643Y104801D01*
Y105422D01*
X32565Y106344D01*
X36209D01*
X36213Y106326D01*
Y102965D01*
X47256D01*
Y107315D01*
X38123D01*
X37939Y107585D01*
X38177Y108083D01*
X47256D01*
Y112433D01*
X40548D01*
X40460Y112450D01*
X36814D01*
X36762Y112460D01*
D02*
G37*
G36*
X23079Y111070D02*
X21898D01*
X21510Y110993D01*
X21182Y110773D01*
X20962Y110445D01*
X20885Y110057D01*
Y109408D01*
X20857Y109270D01*
Y107176D01*
X20357Y107076D01*
X20290Y107240D01*
X19839Y107690D01*
X19251Y107934D01*
X18615D01*
X18027Y107690D01*
X17577Y107240D01*
X17333Y106652D01*
Y106583D01*
X16833Y106376D01*
X16783Y106426D01*
X16195Y106670D01*
X15559D01*
X14971Y106426D01*
X14521Y105976D01*
X14277Y105388D01*
Y104751D01*
X14501Y104212D01*
Y84523D01*
X14301Y84391D01*
X14001Y84272D01*
X13927Y84303D01*
X13794Y84392D01*
X13636Y84423D01*
X13488Y84485D01*
X13327D01*
X13169Y84516D01*
X11706D01*
X11392Y84726D01*
X11004Y84804D01*
X10356D01*
X10217Y84831D01*
X10137Y84815D01*
X8988D01*
X8364Y84691D01*
X7835Y84338D01*
X6180Y82684D01*
X4796D01*
X4377Y82600D01*
X4022Y82363D01*
X3785Y82009D01*
X3702Y81590D01*
Y80173D01*
X3785Y79754D01*
X4022Y79400D01*
X4377Y79163D01*
X4796Y79079D01*
X7394D01*
X7813Y79163D01*
X8167Y79400D01*
X8404Y79754D01*
X8488Y80173D01*
Y80376D01*
X9368Y81257D01*
X9383Y81253D01*
X13169D01*
X13327Y81285D01*
X13488D01*
X13636Y81346D01*
X13794Y81378D01*
X13927Y81467D01*
X14076Y81529D01*
X14102Y81555D01*
X14307Y81568D01*
X14424Y81555D01*
X14668Y81465D01*
X14708Y81433D01*
X14904Y81141D01*
X30628Y65417D01*
Y50834D01*
X30732Y50307D01*
X31031Y49860D01*
X34134Y46757D01*
Y44697D01*
X47334D01*
Y49047D01*
X40043D01*
X39910Y49073D01*
X35711D01*
X33380Y51404D01*
Y65987D01*
X33380Y65987D01*
X33276Y66514D01*
X32977Y66961D01*
X32977Y66961D01*
X17254Y82684D01*
Y104212D01*
X17477Y104751D01*
Y104820D01*
X17977Y105027D01*
X18027Y104977D01*
X18615Y104734D01*
X19251D01*
X19839Y104977D01*
X20290Y105427D01*
X20357Y105591D01*
X20857Y105492D01*
Y104069D01*
Y98970D01*
Y94020D01*
Y89298D01*
X20982Y88674D01*
X21335Y88145D01*
X31933Y77547D01*
Y75122D01*
X32038Y74594D01*
X32030Y74581D01*
X31999Y74424D01*
X31937Y74275D01*
Y74115D01*
X31906Y73957D01*
X31937Y73799D01*
Y73639D01*
X31999Y73490D01*
X32030Y73333D01*
X32120Y73199D01*
X32181Y73051D01*
X32295Y72937D01*
X32384Y72803D01*
X32546Y72642D01*
X33075Y72288D01*
X33699Y72164D01*
X36641D01*
X36948Y72225D01*
X41160D01*
X41317Y72256D01*
X47256D01*
Y76606D01*
X36213D01*
Y75427D01*
X35196D01*
Y78222D01*
X35072Y78847D01*
X34718Y79376D01*
X24120Y89974D01*
Y94020D01*
Y98970D01*
Y104069D01*
Y109270D01*
X24092Y109408D01*
Y110057D01*
X24015Y110445D01*
X23796Y110773D01*
X23467Y110993D01*
X23079Y111070D01*
D02*
G37*
G36*
X55326Y111842D02*
X49796D01*
Y106311D01*
X55326D01*
Y111842D01*
D02*
G37*
G36*
X77975Y108051D02*
X77339D01*
X76751Y107808D01*
X76301Y107357D01*
X76057Y106769D01*
Y106133D01*
X76301Y105545D01*
X76751Y105095D01*
X77339Y104851D01*
X77975D01*
X78563Y105095D01*
X79014Y105545D01*
X79257Y106133D01*
Y106769D01*
X79014Y107357D01*
X78563Y107808D01*
X77975Y108051D01*
D02*
G37*
G36*
X180861Y110211D02*
X179926D01*
X179022Y109969D01*
X178212Y109501D01*
X177551Y108840D01*
X177083Y108030D01*
X176841Y107126D01*
Y106190D01*
X177083Y105287D01*
X177551Y104477D01*
X178212Y103815D01*
X179022Y103347D01*
X179926Y103105D01*
X180861D01*
X181765Y103347D01*
X182575Y103815D01*
X183237Y104477D01*
X183705Y105287D01*
X183947Y106190D01*
Y107126D01*
X183705Y108030D01*
X183237Y108840D01*
X182575Y109501D01*
X181765Y109969D01*
X180861Y110211D01*
D02*
G37*
G36*
X90975Y105227D02*
X90339D01*
X89751Y104983D01*
X89301Y104533D01*
X89057Y103945D01*
Y103309D01*
X89301Y102721D01*
X89751Y102271D01*
X90339Y102027D01*
X90975D01*
X91563Y102271D01*
X92014Y102721D01*
X92257Y103309D01*
Y103945D01*
X92014Y104533D01*
X91563Y104983D01*
X90975Y105227D01*
D02*
G37*
G36*
X104276Y104927D02*
X103639D01*
X103051Y104683D01*
X102601Y104233D01*
X102357Y103645D01*
Y103009D01*
X102601Y102421D01*
X103051Y101971D01*
X103639Y101727D01*
X104276D01*
X104864Y101971D01*
X105314Y102421D01*
X105557Y103009D01*
Y103645D01*
X105314Y104233D01*
X104864Y104683D01*
X104276Y104927D01*
D02*
G37*
G36*
X116876Y104827D02*
X116239D01*
X115651Y104583D01*
X115201Y104133D01*
X114957Y103545D01*
Y102909D01*
X115201Y102321D01*
X115651Y101871D01*
X116239Y101627D01*
X116876D01*
X117464Y101871D01*
X117914Y102321D01*
X118157Y102909D01*
Y103545D01*
X117914Y104133D01*
X117464Y104583D01*
X116876Y104827D01*
D02*
G37*
G36*
X36762Y102236D02*
X31782D01*
X31431Y102166D01*
X31133Y101968D01*
X29574Y100409D01*
X29432Y100468D01*
X28796D01*
X28401Y100304D01*
X28194Y100231D01*
X27740Y100463D01*
X27733Y100473D01*
X27404Y100693D01*
X27016Y100770D01*
X25835D01*
X25447Y100693D01*
X25119Y100473D01*
X24899Y100145D01*
X24822Y99757D01*
Y98182D01*
X24899Y97795D01*
X25119Y97466D01*
X25447Y97246D01*
X25835Y97169D01*
X27016D01*
X27404Y97246D01*
X27733Y97466D01*
X28206Y97513D01*
X28208Y97511D01*
X28796Y97268D01*
X29432D01*
X30020Y97511D01*
X30470Y97961D01*
X30714Y98549D01*
Y98953D01*
X32162Y100401D01*
X36213D01*
Y97847D01*
X47256D01*
Y102196D01*
X40548D01*
X40460Y102214D01*
X36874D01*
X36762Y102236D01*
D02*
G37*
G36*
X63200Y103968D02*
X57670D01*
Y98437D01*
X63200D01*
Y103968D01*
D02*
G37*
G36*
X55326D02*
X49796D01*
Y98437D01*
X55326D01*
Y103968D01*
D02*
G37*
G36*
X36943Y97266D02*
X32518D01*
X32167Y97197D01*
X31870Y96998D01*
X30670Y95798D01*
X30375Y95920D01*
X29739D01*
X29151Y95676D01*
X28701Y95226D01*
X28554Y94871D01*
X28017D01*
X27952Y95195D01*
X27733Y95523D01*
X27404Y95743D01*
X27016Y95820D01*
X25835D01*
X25447Y95743D01*
X25119Y95523D01*
X24899Y95195D01*
X24822Y94807D01*
Y93232D01*
X24899Y92844D01*
X25119Y92516D01*
X25447Y92296D01*
X25835Y92219D01*
X27016D01*
X27404Y92296D01*
X27733Y92516D01*
X27952Y92844D01*
X27990Y93036D01*
X29078D01*
X29151Y92963D01*
X29739Y92720D01*
X30375D01*
X30964Y92963D01*
X31414Y93413D01*
X31657Y94001D01*
Y94190D01*
X32898Y95431D01*
X36213D01*
Y92855D01*
X36213Y92729D01*
X35908Y92355D01*
X31109D01*
X30757Y92285D01*
X30460Y92086D01*
X30459Y92085D01*
X30375Y92120D01*
X29739D01*
X29151Y91876D01*
X28701Y91426D01*
X28457Y90838D01*
Y90201D01*
X28701Y89613D01*
X29151Y89163D01*
X29739Y88920D01*
X30375D01*
X30964Y89163D01*
X31414Y89613D01*
X31657Y90201D01*
Y90520D01*
X36213D01*
Y87611D01*
X47256D01*
Y91960D01*
X37577D01*
X37304Y92229D01*
X37438Y92729D01*
X47256D01*
Y97078D01*
X37471D01*
X37294Y97197D01*
X36943Y97266D01*
D02*
G37*
G36*
X63200Y96094D02*
X57670D01*
Y90563D01*
X63200D01*
Y96094D01*
D02*
G37*
G36*
X55326D02*
X49796D01*
Y90563D01*
X55326D01*
Y96094D01*
D02*
G37*
G36*
X250548Y90299D02*
X248676Y90295D01*
Y86029D01*
X250548D01*
Y90299D01*
D02*
G37*
G36*
X63200Y88220D02*
X57670D01*
Y82689D01*
X63200D01*
Y88220D01*
D02*
G37*
G36*
X55326D02*
X49796D01*
Y82689D01*
X55326D01*
Y88220D01*
D02*
G37*
G36*
X47256Y86842D02*
X36213D01*
Y82492D01*
X47256D01*
Y86842D01*
D02*
G37*
G36*
X147520Y127543D02*
X146536Y127256D01*
X145673Y126703D01*
X145000Y125931D01*
X144571Y125001D01*
X144420Y123987D01*
X144490Y123480D01*
X144490Y115806D01*
X145678Y111825D01*
X171665Y85839D01*
X175410Y83115D01*
Y81060D01*
X175361Y80812D01*
X175528Y79974D01*
X176003Y79262D01*
X176714Y78787D01*
X177553Y78620D01*
X177602D01*
X178441Y78787D01*
X179152Y79262D01*
X179628Y79974D01*
X179795Y80812D01*
Y81518D01*
X182947D01*
Y80875D01*
X183114Y80036D01*
X183589Y79325D01*
X184300Y78850D01*
X185139Y78683D01*
X185978Y78850D01*
X186689Y79325D01*
X187164Y80036D01*
X187331Y80875D01*
Y81518D01*
X194860D01*
X195678Y81737D01*
X196411Y82160D01*
X197010Y82758D01*
X197433Y83492D01*
X197652Y84309D01*
Y85156D01*
X197433Y85974D01*
X197010Y86707D01*
X196411Y87305D01*
X195678Y87729D01*
X194860Y87948D01*
X181042D01*
X176363Y91017D01*
X151574Y115806D01*
X151574Y123480D01*
X151574Y123480D01*
X151574Y123480D01*
X151643Y123987D01*
X151493Y125001D01*
X151064Y125931D01*
X150390Y126703D01*
X149527Y127256D01*
X148544Y127543D01*
X147520Y127543D01*
D02*
G37*
G36*
X171271Y81724D02*
X160229D01*
Y77374D01*
X171271D01*
Y81724D01*
D02*
G37*
G36*
X47256D02*
X36213D01*
Y77374D01*
X47256D01*
Y81724D01*
D02*
G37*
G36*
X235198Y78624D02*
X230932D01*
Y76752D01*
X235202D01*
X235198Y78624D01*
D02*
G37*
G36*
X63200Y80346D02*
X57670D01*
Y74815D01*
X63200D01*
Y80346D01*
D02*
G37*
G36*
X55326D02*
X49796D01*
Y74815D01*
X55326D01*
Y80346D01*
D02*
G37*
G36*
X150000Y80860D02*
X149363D01*
X148775Y80616D01*
X148325Y80166D01*
X148082Y79578D01*
Y78942D01*
X148325Y78354D01*
X148578Y78101D01*
X148719Y77774D01*
X148578Y77448D01*
X148325Y77195D01*
X148082Y76607D01*
Y75971D01*
X148325Y75382D01*
X148775Y74932D01*
X149363Y74689D01*
X150000D01*
X150588Y74932D01*
X151038Y75382D01*
X151281Y75971D01*
Y76607D01*
X151038Y77195D01*
X150785Y77448D01*
X150644Y77774D01*
X150785Y78101D01*
X151038Y78354D01*
X151281Y78942D01*
Y79578D01*
X151038Y80166D01*
X150588Y80616D01*
X150000Y80860D01*
D02*
G37*
G36*
X171271Y76606D02*
X160229D01*
Y72256D01*
X171271D01*
Y76606D01*
D02*
G37*
G36*
X191173Y73952D02*
X188736D01*
X188739Y72080D01*
X191173D01*
Y73952D01*
D02*
G37*
G36*
X195350Y73952D02*
X192917D01*
Y72080D01*
X195354D01*
X195350Y73952D01*
D02*
G37*
G36*
X239535Y75973D02*
X237102D01*
Y71701D01*
X239543D01*
X239535Y75973D01*
D02*
G37*
G36*
X228052Y75896D02*
X225619D01*
Y71624D01*
X228060D01*
X228052Y75896D01*
D02*
G37*
G36*
X234471Y70897D02*
X230204D01*
Y69025D01*
X234474D01*
X234471Y70897D01*
D02*
G37*
G36*
X187304Y71192D02*
X185433D01*
Y68884D01*
X187304Y68887D01*
Y71192D01*
D02*
G37*
G36*
X198034D02*
X196162D01*
X196162Y68849D01*
X198034Y68852D01*
Y71192D01*
D02*
G37*
G36*
X235624Y68470D02*
X229522D01*
X228919Y68350D01*
X228871Y68353D01*
X228819Y68335D01*
X228764Y68333D01*
X228712Y68309D01*
X228555Y68278D01*
X228361Y68147D01*
X228212Y68062D01*
X228152Y68009D01*
X228081Y67972D01*
X227999Y67906D01*
X227736Y67730D01*
X227684Y67651D01*
X227616Y67597D01*
X227565Y67536D01*
X227501Y67488D01*
X227098Y67045D01*
X227058Y66977D01*
X227002Y66920D01*
X226886Y66745D01*
X179868D01*
X179411Y66654D01*
X176056D01*
X175347Y66795D01*
X169321D01*
X169223Y66775D01*
X169097Y66792D01*
X162404D01*
X161732Y66703D01*
X161105Y66444D01*
X160567Y66031D01*
X160154Y65493D01*
X159895Y64867D01*
X159807Y64195D01*
X159895Y63523D01*
X160154Y62896D01*
X160567Y62358D01*
X161105Y61946D01*
X161574Y61752D01*
X161475Y61251D01*
X160229D01*
Y56902D01*
X171271D01*
Y61095D01*
X171271Y61251D01*
X171629Y61595D01*
X175347D01*
X175408Y61607D01*
X179555D01*
X179868Y61545D01*
X227133D01*
X227250Y61423D01*
X227342Y61359D01*
X227421Y61281D01*
X227929Y60946D01*
X228032Y60904D01*
X228127Y60844D01*
X228481Y60709D01*
X228555Y60659D01*
X228672Y60636D01*
X228695Y60628D01*
X228805Y60609D01*
X228910Y60571D01*
X229211Y60527D01*
X229219Y60527D01*
X229522Y60467D01*
X235624D01*
X236590Y60659D01*
X237409Y61207D01*
X237957Y62026D01*
X238149Y62992D01*
Y65945D01*
X237957Y66911D01*
X237409Y67730D01*
X236590Y68278D01*
X235624Y68470D01*
D02*
G37*
G36*
X63200Y72472D02*
X57670D01*
Y66941D01*
X63200D01*
Y72472D01*
D02*
G37*
G36*
X55326D02*
X49796D01*
Y66941D01*
X55326D01*
Y72472D01*
D02*
G37*
G36*
X-3890Y68177D02*
X-10208D01*
Y65993D01*
Y62056D01*
X-3890D01*
Y65993D01*
Y68177D01*
D02*
G37*
G36*
X441Y60811D02*
X-195D01*
X-783Y60568D01*
X-1120Y60231D01*
X-3890D01*
Y60303D01*
X-10208D01*
Y58119D01*
X-3890D01*
Y58192D01*
X-1120D01*
X-783Y57855D01*
X-195Y57611D01*
X441D01*
X1029Y57855D01*
X1480Y58305D01*
X1723Y58893D01*
Y59530D01*
X1480Y60118D01*
X1029Y60568D01*
X441Y60811D01*
D02*
G37*
G36*
X63200Y64598D02*
X57670D01*
Y59067D01*
X63200D01*
Y64598D01*
D02*
G37*
G36*
X55326D02*
X49796D01*
Y59067D01*
X55326D01*
Y64598D01*
D02*
G37*
G36*
X198034Y59734D02*
X196162Y59731D01*
Y57509D01*
X198034D01*
Y59734D01*
D02*
G37*
G36*
X187304Y59696D02*
X185433Y59692D01*
Y57509D01*
X187304D01*
X187304Y59696D01*
D02*
G37*
G36*
X47256Y61251D02*
X36213D01*
Y56902D01*
X47256D01*
Y61251D01*
D02*
G37*
G36*
X190550Y56381D02*
X188113D01*
X188116Y54510D01*
X190550D01*
Y56381D01*
D02*
G37*
G36*
X194728Y56381D02*
X192294D01*
Y54510D01*
X194731D01*
X194728Y56381D01*
D02*
G37*
G36*
X6211Y56503D02*
X5574D01*
X4986Y56259D01*
X4536Y55809D01*
X4292Y55221D01*
Y54584D01*
X4536Y53996D01*
X4986Y53546D01*
X5574Y53303D01*
X6211D01*
X6798Y53546D01*
X7249Y53996D01*
X7492Y54584D01*
Y55221D01*
X7249Y55809D01*
X6798Y56259D01*
X6211Y56503D01*
D02*
G37*
G36*
X235198Y55120D02*
X230932D01*
Y53248D01*
X235202D01*
X235198Y55120D01*
D02*
G37*
G36*
X171271Y56133D02*
X160229D01*
Y51784D01*
X171271D01*
Y56133D01*
D02*
G37*
G36*
X47256D02*
X36213D01*
Y51784D01*
X47256D01*
Y56133D01*
D02*
G37*
G36*
X63200Y56724D02*
X57670D01*
Y51193D01*
X63200D01*
Y56724D01*
D02*
G37*
G36*
X55326D02*
X49796D01*
Y51193D01*
X55326D01*
Y56724D01*
D02*
G37*
G36*
X11082Y56686D02*
X10445D01*
X9857Y56442D01*
X9407Y55992D01*
X9164Y55404D01*
Y54768D01*
X9407Y54179D01*
X9857Y53729D01*
X10445Y53486D01*
X11082D01*
X11670Y53729D01*
X11831Y53891D01*
X12234Y53641D01*
X12262Y53614D01*
Y52987D01*
X12506Y52399D01*
X12956Y51949D01*
X13544Y51706D01*
X14180D01*
X14428Y51808D01*
X14711Y51384D01*
X14405Y51079D01*
X14162Y50490D01*
Y49854D01*
X14405Y49266D01*
X14856Y48816D01*
X15444Y48572D01*
X16080D01*
X16668Y48816D01*
X17118Y49266D01*
X17362Y49854D01*
Y50490D01*
X17118Y51079D01*
X16668Y51529D01*
X16080Y51772D01*
X15444D01*
X15196Y51670D01*
X14913Y52093D01*
X15218Y52399D01*
X15462Y52987D01*
Y53624D01*
X15218Y54212D01*
X14768Y54662D01*
X14180Y54906D01*
X13544D01*
X12956Y54662D01*
X12794Y54501D01*
X12392Y54750D01*
X12364Y54777D01*
Y55404D01*
X12120Y55992D01*
X11670Y56442D01*
X11082Y56686D01*
D02*
G37*
G36*
X239535Y52470D02*
X237102D01*
Y48197D01*
X239543D01*
X239535Y52470D01*
D02*
G37*
G36*
X228052Y52392D02*
X225619D01*
Y48120D01*
X228060D01*
X228052Y52392D01*
D02*
G37*
G36*
X234471Y47393D02*
X230204D01*
Y45521D01*
X234474D01*
X234471Y47393D01*
D02*
G37*
G36*
X200149Y45382D02*
X199632Y45294D01*
X162535Y45294D01*
Y45294D01*
X162535Y45294D01*
X162028Y45364D01*
X161014Y45213D01*
X160084Y44784D01*
X159312Y44111D01*
X158759Y43248D01*
X158472Y42265D01*
X158472Y41240D01*
X158759Y40257D01*
X159312Y39394D01*
X160084Y38720D01*
X161014Y38291D01*
X162028Y38140D01*
X162535Y38210D01*
X199632Y38210D01*
X199632Y38210D01*
X199632D01*
X200149Y38122D01*
X201190Y38249D01*
X202152Y38669D01*
X202954Y39345D01*
X203528Y40223D01*
X203828Y41228D01*
X203828Y42277D01*
X203528Y43282D01*
X202954Y44160D01*
X202152Y44836D01*
X201190Y45256D01*
X200149Y45382D01*
D02*
G37*
G36*
X-3890Y50461D02*
X-10208D01*
Y48277D01*
Y44340D01*
X-3890D01*
Y48277D01*
Y50461D01*
D02*
G37*
G36*
X63200Y48850D02*
X57670D01*
Y43319D01*
X63200D01*
Y48850D01*
D02*
G37*
G36*
X55326D02*
X49796D01*
Y43757D01*
X49706Y43697D01*
X49070D01*
X48482Y43454D01*
X48043Y43015D01*
X47334D01*
Y43929D01*
X34134D01*
Y39579D01*
X47334D01*
Y41180D01*
X48043D01*
X48482Y40741D01*
X49070Y40497D01*
X49706D01*
X49796Y40437D01*
Y36307D01*
X49706Y36247D01*
X49086D01*
X48048Y37285D01*
X47750Y37484D01*
X47399Y37553D01*
X47334D01*
Y38811D01*
X34134D01*
Y34461D01*
X47334D01*
Y34461D01*
X47788Y34349D01*
Y34329D01*
X48032Y33740D01*
X48482Y33290D01*
X49070Y33047D01*
X49706Y33047D01*
X49796Y32987D01*
X49796Y32640D01*
Y27571D01*
X55326D01*
Y33102D01*
X50813D01*
X50606Y33602D01*
X50744Y33740D01*
X50988Y34329D01*
Y34965D01*
X50961Y35029D01*
X51239Y35445D01*
X55326D01*
Y40976D01*
X51183D01*
X50862Y41476D01*
X50988Y41779D01*
Y42415D01*
X50821Y42819D01*
X51082Y43319D01*
X55326D01*
Y48850D01*
D02*
G37*
G36*
X63200Y40976D02*
X57670D01*
Y35445D01*
X63200D01*
Y40976D01*
D02*
G37*
G36*
X-11130Y37565D02*
X-11767D01*
X-12355Y37321D01*
X-12805Y36871D01*
X-13048Y36283D01*
Y35647D01*
X-12805Y35059D01*
X-12355Y34609D01*
X-12098Y34502D01*
Y34124D01*
X-12028Y33773D01*
X-11829Y33476D01*
X-11765Y33411D01*
X-11760Y33382D01*
X-11911Y32850D01*
X-12284Y32696D01*
X-12734Y32246D01*
X-12978Y31657D01*
Y31021D01*
X-12734Y30433D01*
X-12284Y29983D01*
X-11696Y29739D01*
X-11602D01*
X-10898Y29035D01*
X-10600Y28836D01*
X-10249Y28766D01*
X-10208D01*
Y28592D01*
X-3890D01*
Y30776D01*
X-9614D01*
X-9778Y31021D01*
Y31657D01*
X-9931Y32029D01*
X-9660Y32513D01*
X-9638Y32529D01*
X-3890D01*
X-3703Y32443D01*
X-3686Y32426D01*
X-3097Y32182D01*
X-2461D01*
X-1873Y32426D01*
X-1423Y32876D01*
X-1179Y33464D01*
Y34100D01*
X-1423Y34689D01*
X-1873Y35139D01*
X-2351Y35337D01*
X-2398Y35408D01*
X-3229Y36238D01*
X-3526Y36437D01*
X-3878Y36507D01*
X-3890D01*
Y36681D01*
X-10013D01*
X-10092Y36871D01*
X-10542Y37321D01*
X-11130Y37565D01*
D02*
G37*
G36*
X237700Y39675D02*
X227445D01*
Y35801D01*
X213323D01*
X212699Y35677D01*
X212170Y35323D01*
X211864Y35017D01*
X211400D01*
X210776Y34893D01*
X210247Y34539D01*
X209004Y33297D01*
X208915Y33163D01*
X208801Y33049D01*
X208740Y32901D01*
X208650Y32767D01*
X208619Y32610D01*
X208558Y32461D01*
Y32301D01*
X208526Y32143D01*
X208558Y31985D01*
Y31825D01*
X208619Y31676D01*
X208650Y31519D01*
X208740Y31385D01*
X208801Y31237D01*
X208915Y31123D01*
X209004Y30990D01*
X209138Y30900D01*
X209251Y30787D01*
X209400Y30725D01*
X209533Y30636D01*
X209691Y30604D01*
X209839Y30543D01*
X210000D01*
X210157Y30512D01*
X210315Y30543D01*
X210476D01*
X210624Y30604D01*
X210782Y30636D01*
X210915Y30725D01*
X211064Y30787D01*
X211177Y30900D01*
X211311Y30990D01*
X212076Y31754D01*
X212540D01*
X212698Y31786D01*
X212858D01*
X213007Y31847D01*
X213164Y31879D01*
X213298Y31968D01*
X213446Y32029D01*
X213560Y32143D01*
X213693Y32232D01*
X213999Y32538D01*
X230620D01*
X230778Y32569D01*
X237700D01*
Y39675D01*
D02*
G37*
G36*
X234942Y31566D02*
X230672D01*
X230675Y29694D01*
X234942D01*
Y31566D01*
D02*
G37*
G36*
X47334Y33692D02*
X34134D01*
Y29343D01*
X47334D01*
Y33692D01*
D02*
G37*
G36*
X16017Y31418D02*
X15381D01*
X14793Y31175D01*
X14343Y30724D01*
X14099Y30136D01*
Y29500D01*
X14343Y28912D01*
X14793Y28462D01*
X15381Y28218D01*
X16017D01*
X16605Y28462D01*
X17055Y28912D01*
X17299Y29500D01*
Y30136D01*
X17055Y30724D01*
X16605Y31175D01*
X16017Y31418D01*
D02*
G37*
G36*
X63200Y33102D02*
X57670D01*
Y27571D01*
X63200D01*
Y33102D01*
D02*
G37*
G36*
X239527Y28967D02*
X237086D01*
X237094Y24694D01*
X239527D01*
Y28967D01*
D02*
G37*
G36*
X228044Y28890D02*
X225603D01*
X225610Y24617D01*
X228044D01*
Y28890D01*
D02*
G37*
G36*
X47256Y28574D02*
X36213D01*
Y24225D01*
X47256D01*
Y28574D01*
D02*
G37*
G36*
X234214Y23839D02*
X229944D01*
X229947Y21967D01*
X234214D01*
Y23839D01*
D02*
G37*
G36*
X176984Y20249D02*
X176347D01*
X175759Y20006D01*
X175374Y19621D01*
X174988Y20006D01*
X174400Y20249D01*
X173764D01*
X173176Y20006D01*
X172726Y19556D01*
X172482Y18968D01*
Y18331D01*
X172726Y17743D01*
X173176Y17293D01*
X173764Y17050D01*
X174400D01*
X174988Y17293D01*
X175374Y17678D01*
X175759Y17293D01*
X176347Y17050D01*
X176984D01*
X177572Y17293D01*
X178022Y17743D01*
X178265Y18331D01*
Y18968D01*
X178022Y19556D01*
X177572Y20006D01*
X176984Y20249D01*
D02*
G37*
G36*
X47256Y23456D02*
X36213D01*
Y19107D01*
X47256D01*
Y23456D01*
D02*
G37*
G36*
X-19463Y19988D02*
X-20226D01*
X-20931Y19696D01*
X-21471Y19157D01*
X-21763Y18451D01*
Y17688D01*
X-21471Y16983D01*
X-20931Y16443D01*
X-20226Y16151D01*
X-19463D01*
X-18757Y16443D01*
X-18218Y16983D01*
X-17925Y17688D01*
Y18451D01*
X-18218Y19157D01*
X-18757Y19696D01*
X-19463Y19988D01*
D02*
G37*
G36*
X242871Y14365D02*
X240999D01*
Y10095D01*
X242871Y10098D01*
Y14365D01*
D02*
G37*
G36*
X250598Y13637D02*
X248726D01*
Y9367D01*
X250598Y9371D01*
Y13637D01*
D02*
G37*
G36*
X4206Y14752D02*
X2048Y12594D01*
X-4479D01*
X-4830Y12525D01*
X-5128Y12326D01*
X-7725Y9729D01*
X-8345D01*
X-8933Y9485D01*
X-9384Y9035D01*
X-9627Y8447D01*
Y7811D01*
X-9384Y7222D01*
X-8933Y6772D01*
X-8345Y6529D01*
X-7709D01*
X-7121Y6772D01*
X-6671Y7222D01*
X-6427Y7811D01*
Y8431D01*
X-4099Y10759D01*
X2048D01*
X3649Y9158D01*
X6725Y12234D01*
X4206Y14752D01*
D02*
G37*
G36*
X247948Y7467D02*
X243675D01*
Y5026D01*
X247948Y5034D01*
Y7467D01*
D02*
G37*
G36*
X117643Y19292D02*
X117007D01*
X116419Y19048D01*
X115969Y18598D01*
X115725Y18010D01*
Y17374D01*
X115969Y16785D01*
X116305Y16449D01*
Y15189D01*
X115150D01*
Y4146D01*
X119500D01*
Y15189D01*
X118344D01*
Y16449D01*
X118681Y16785D01*
X118925Y17374D01*
Y18010D01*
X118681Y18598D01*
X118231Y19048D01*
X117643Y19292D01*
D02*
G37*
G36*
X114382Y15189D02*
X110032D01*
Y4146D01*
X114382D01*
Y15189D01*
D02*
G37*
G36*
X109264D02*
X104914D01*
Y4146D01*
X109264D01*
Y15189D01*
D02*
G37*
G36*
X8939Y10020D02*
X5863Y6944D01*
X8382Y4425D01*
X9357Y5401D01*
X9857Y5194D01*
Y5123D01*
X10101Y4535D01*
X10551Y4084D01*
X11139Y3841D01*
X11776D01*
X12364Y4084D01*
X12814Y4535D01*
X13057Y5123D01*
Y5759D01*
X12814Y6347D01*
X12364Y6797D01*
X11776Y7041D01*
X11705D01*
X11457Y7501D01*
Y7501D01*
X8939Y10020D01*
D02*
G37*
G36*
X103223Y18499D02*
X102587D01*
X101999Y18256D01*
X101549Y17806D01*
X101305Y17218D01*
Y16581D01*
X101549Y15993D01*
X101872Y15670D01*
X101693Y15170D01*
X99796D01*
Y1970D01*
X104145D01*
Y15170D01*
X104117D01*
X103938Y15670D01*
X104261Y15993D01*
X104505Y16581D01*
Y17218D01*
X104261Y17806D01*
X103811Y18256D01*
X103223Y18499D01*
D02*
G37*
G36*
X99027Y15170D02*
X94678D01*
Y1970D01*
X99027D01*
Y15170D01*
D02*
G37*
G36*
X-20307Y12438D02*
X-20944D01*
X-21532Y12195D01*
X-21982Y11745D01*
X-22226Y11157D01*
Y10520D01*
X-21982Y9932D01*
X-21532Y9482D01*
X-20944Y9239D01*
X-20307D01*
X-19719Y9482D01*
X-19548Y9653D01*
X-18167D01*
Y9516D01*
X-18090Y9129D01*
X-18021Y9026D01*
X-17917Y8495D01*
X-18136Y8166D01*
X-18214Y7778D01*
Y6203D01*
X-18136Y5816D01*
X-17917Y5487D01*
X-18069Y4987D01*
X-18136Y4887D01*
X-18213Y4500D01*
Y2925D01*
X-18136Y2537D01*
X-17917Y2208D01*
X-17588Y1989D01*
X-17200Y1912D01*
X-16019D01*
X-15631Y1989D01*
X-15303Y2208D01*
X-15083Y2537D01*
X-15006Y2925D01*
Y4500D01*
X-15083Y4887D01*
X-15303Y5216D01*
X-15150Y5715D01*
X-15083Y5816D01*
X-15006Y6203D01*
Y7778D01*
X-15083Y8166D01*
X-15152Y8269D01*
X-15257Y8800D01*
X-15037Y9129D01*
X-14960Y9516D01*
Y11091D01*
X-15037Y11479D01*
X-15257Y11808D01*
X-15585Y12027D01*
X-15973Y12104D01*
X-17154D01*
X-17542Y12027D01*
X-17871Y11808D01*
X-18083Y11489D01*
X-19163D01*
X-19269Y11745D01*
X-19719Y12195D01*
X-20307Y12438D01*
D02*
G37*
G36*
X180861Y-2844D02*
X179926D01*
X179022Y-3086D01*
X178212Y-3554D01*
X177551Y-4216D01*
X177083Y-5026D01*
X176841Y-5929D01*
Y-6865D01*
X177083Y-7769D01*
X177551Y-8579D01*
X178212Y-9240D01*
X179022Y-9708D01*
X179926Y-9950D01*
X180861D01*
X181765Y-9708D01*
X182575Y-9240D01*
X183237Y-8579D01*
X183705Y-7769D01*
X183947Y-6865D01*
Y-5929D01*
X183705Y-5026D01*
X183237Y-4216D01*
X182575Y-3554D01*
X181765Y-3086D01*
X180861Y-2844D01*
D02*
G37*
G36*
X174825Y-19198D02*
X174188D01*
X173600Y-19441D01*
X173403Y-19639D01*
X173125Y-19875D01*
X172749Y-19639D01*
X172599Y-19489D01*
X172011Y-19245D01*
X171375D01*
X170787Y-19489D01*
X170336Y-19939D01*
X170093Y-20527D01*
Y-21164D01*
X170336Y-21752D01*
X170475Y-21890D01*
X170773Y-22217D01*
X170475Y-22543D01*
X170336Y-22682D01*
X170093Y-23270D01*
Y-23906D01*
X170336Y-24494D01*
X170787Y-24944D01*
X171375Y-25188D01*
X172011D01*
X172599Y-24944D01*
X172773Y-24770D01*
X173100Y-24531D01*
X173426Y-24770D01*
X173600Y-24944D01*
X174188Y-25188D01*
X174825D01*
X175413Y-24944D01*
X175863Y-24494D01*
X176107Y-23906D01*
Y-23270D01*
X175863Y-22682D01*
X175701Y-22519D01*
X175444Y-22193D01*
X175701Y-21866D01*
X175863Y-21704D01*
X176107Y-21116D01*
Y-20480D01*
X175863Y-19891D01*
X175413Y-19441D01*
X174825Y-19198D01*
D02*
G37*
G36*
X180861Y-16624D02*
X179926D01*
X179022Y-16866D01*
X178212Y-17334D01*
X177551Y-17996D01*
X177083Y-18806D01*
X176841Y-19710D01*
Y-20645D01*
X177083Y-21549D01*
X177551Y-22359D01*
X178212Y-23020D01*
X179022Y-23488D01*
X179926Y-23730D01*
X180861D01*
X181765Y-23488D01*
X182575Y-23020D01*
X183237Y-22359D01*
X183705Y-21549D01*
X183947Y-20645D01*
Y-19710D01*
X183705Y-18806D01*
X183237Y-17996D01*
X182575Y-17334D01*
X181765Y-16866D01*
X180861Y-16624D01*
D02*
G37*
%LPD*%
G36*
X229062Y67333D02*
X229101Y67291D01*
X229104Y67233D01*
X229088Y67210D01*
X228878Y66889D01*
X228544Y66202D01*
X228328Y65468D01*
X228237Y64708D01*
X228274Y63944D01*
X228437Y63197D01*
X228722Y62487D01*
X229121Y61835D01*
X229360Y61536D01*
X229059Y61580D01*
X228491Y61797D01*
X227983Y62132D01*
X227560Y62569D01*
X227401Y62828D01*
X227401Y65588D01*
D01*
Y65588D01*
Y65588D01*
X227525Y65860D01*
X227853Y66360D01*
X228256Y66803D01*
X228721Y67178D01*
X228980Y67328D01*
Y67328D01*
X229005Y67342D01*
X229062Y67333D01*
D02*
G37*
%LPC*%
G36*
X46167Y2409D02*
X42605D01*
Y955D01*
X42105Y807D01*
X41788Y1220D01*
X41251Y1632D01*
X40626Y1891D01*
X39956Y1979D01*
X39285Y1891D01*
X38661Y1632D01*
X38124Y1220D01*
X37712Y683D01*
X37453Y59D01*
X37365Y-612D01*
Y-4943D01*
X37453Y-5613D01*
X37712Y-6238D01*
X38124Y-6775D01*
X38661Y-7186D01*
X39285Y-7445D01*
X39956Y-7534D01*
X40626Y-7445D01*
X41251Y-7186D01*
X41788Y-6775D01*
X42200Y-6238D01*
X42458Y-5613D01*
X42547Y-4943D01*
Y-3991D01*
X42605Y-3515D01*
X43638D01*
X43873Y-3956D01*
X43835Y-4013D01*
X43690Y-4746D01*
X43835Y-5480D01*
X44251Y-6101D01*
X44873Y-6517D01*
X45606Y-6663D01*
X46339Y-6517D01*
X46961Y-6101D01*
X47376Y-5480D01*
X47522Y-4746D01*
X47376Y-4013D01*
X46961Y-3391D01*
X46339Y-2976D01*
X46167Y-2942D01*
Y2409D01*
D02*
G37*
G36*
X74012Y-15264D02*
X73290Y-15359D01*
X72617Y-15638D01*
X72040Y-16081D01*
X71596Y-16659D01*
X71318Y-17332D01*
X71223Y-18053D01*
Y-20415D01*
X71318Y-21137D01*
X71596Y-21810D01*
X72040Y-22388D01*
X72617Y-22831D01*
X73290Y-23110D01*
X74012Y-23205D01*
X74734Y-23110D01*
X75407Y-22831D01*
X75984Y-22388D01*
X76428Y-21810D01*
X76706Y-21137D01*
X76801Y-20415D01*
Y-18053D01*
X76706Y-17332D01*
X76428Y-16659D01*
X75984Y-16081D01*
X75407Y-15638D01*
X74734Y-15359D01*
X74012Y-15264D01*
D02*
G37*
G36*
X39956D02*
X39234Y-15359D01*
X38561Y-15638D01*
X37984Y-16081D01*
X37540Y-16659D01*
X37262Y-17332D01*
X37167Y-18053D01*
Y-20415D01*
X37262Y-21137D01*
X37540Y-21810D01*
X37984Y-22388D01*
X38561Y-22831D01*
X39234Y-23110D01*
X39956Y-23205D01*
X40678Y-23110D01*
X41351Y-22831D01*
X41928Y-22388D01*
X42372Y-21810D01*
X42650Y-21137D01*
X42745Y-20415D01*
Y-18053D01*
X42650Y-17332D01*
X42372Y-16659D01*
X41928Y-16081D01*
X41351Y-15638D01*
X40678Y-15359D01*
X39956Y-15264D01*
D02*
G37*
%LPD*%
D11*
X67387Y-7403D02*
Y-6712D01*
X66282Y-5608D02*
X67387Y-6712D01*
X66282Y-5608D02*
Y-4250D01*
X66257Y-4225D02*
X66282Y-4250D01*
D26*
X89370Y-6040D02*
D03*
X93110D02*
D03*
X96850D02*
D03*
X89370Y-15489D02*
D03*
X93110D02*
D03*
X96850D02*
D03*
D28*
X177547Y41768D02*
D03*
X181484D02*
D03*
X130721Y-2086D02*
D03*
X126784D02*
D03*
X187959Y41723D02*
D03*
X191896D02*
D03*
X130721Y1307D02*
D03*
X126784D02*
D03*
X179579Y64195D02*
D03*
X175642D02*
D03*
X-16610Y3712D02*
D03*
X-12673D02*
D03*
X-12673Y6991D02*
D03*
X-16610D02*
D03*
X-12627Y10304D02*
D03*
X-16564D02*
D03*
X181539Y84944D02*
D03*
X177602D02*
D03*
X188980Y84979D02*
D03*
X185043D02*
D03*
X126632Y-8871D02*
D03*
X130569D02*
D03*
X141180Y-9060D02*
D03*
X137243D02*
D03*
X141180Y1307D02*
D03*
X137243D02*
D03*
X141180Y-5604D02*
D03*
X137243D02*
D03*
X141180Y-2149D02*
D03*
X137243D02*
D03*
X126784Y-5478D02*
D03*
X130721D02*
D03*
X85546Y-10220D02*
D03*
X81609D02*
D03*
Y-13498D02*
D03*
X85546D02*
D03*
X98324Y-20283D02*
D03*
X94387D02*
D03*
X85546Y-16859D02*
D03*
X81609D02*
D03*
X114291Y-24239D02*
D03*
X110354D02*
D03*
X22489Y94020D02*
D03*
X26426D02*
D03*
X22489Y98970D02*
D03*
X26426D02*
D03*
X22489Y104069D02*
D03*
X26426D02*
D03*
X22489Y109270D02*
D03*
X26426D02*
D03*
D30*
X220339Y30219D02*
D03*
Y34156D02*
D03*
X216361Y30219D02*
D03*
Y34156D02*
D03*
X174113Y42330D02*
D03*
Y46267D02*
D03*
X185071Y42330D02*
D03*
Y46267D02*
D03*
X85546Y-19944D02*
D03*
Y-23881D02*
D03*
X89495Y-23813D02*
D03*
Y-19876D02*
D03*
X10217Y83200D02*
D03*
Y87137D02*
D03*
D33*
X183462Y60285D02*
X191733D01*
X191848Y60297D02*
X200221D01*
X-22797Y74959D02*
X-19028D01*
X-18479Y75509D01*
X-12849Y74959D02*
X-7049D01*
X-13399Y75509D02*
X-12849Y74959D01*
X-18479Y75509D02*
X-13399D01*
X-6957Y75051D02*
X-4460D01*
X-7049Y74959D02*
X-6957Y75051D01*
X-4460D02*
X-2643Y76868D01*
X-2277D01*
X71263Y118526D02*
Y121871D01*
X70087Y117351D02*
X71263Y118526D01*
X65601Y113377D02*
X69575Y117351D01*
X60436Y113377D02*
X65601D01*
X69575Y117351D02*
X70087D01*
X-7049Y59211D02*
X123D01*
X117325Y9667D02*
Y17692D01*
X191725Y68143D02*
X199997D01*
X183238Y68131D02*
X188168D01*
X191733Y58424D02*
X194439D01*
X189058D02*
X191733D01*
Y60095D02*
X196110D01*
X191733D02*
Y60246D01*
Y58424D02*
Y60095D01*
X187236Y60246D02*
X189058Y58424D01*
X183984Y68367D02*
X199959D01*
X196110Y60095D02*
X199483D01*
X194439Y58424D02*
X196110Y60095D01*
X74751Y2832D02*
X76446D01*
X71262Y6321D02*
X74751Y2832D01*
X76446D02*
X76676Y2602D01*
X71262Y6321D02*
Y9667D01*
X122157Y16570D02*
X122443Y16284D01*
Y8570D02*
Y16284D01*
X165750Y26399D02*
Y31518D01*
Y21281D02*
Y26399D01*
Y16163D02*
Y21281D01*
D58*
X55890Y-4640D02*
G03*
X56000Y-4297I-490J346D01*
G01*
X-6283Y-9991D02*
G03*
X3741Y-14042I9397J8822D01*
G01*
X-6283Y-9991D02*
G03*
X-6287Y-9987I-438J-411D01*
G01*
X-12841Y-2840D02*
G03*
X-12841Y-2848I600J-8D01*
G01*
X2954Y19988D02*
G03*
X1823Y19988I-566J-566D01*
G01*
X399Y19695D02*
G03*
X1530Y19695I566J566D01*
G01*
X399Y20826D02*
G03*
X399Y19695I566J-566D01*
G01*
X689Y21116D02*
G03*
X689Y22248I-566J566D01*
G01*
X-16437Y17467D02*
X-14411Y15441D01*
X-9327D01*
X-11880Y17892D02*
X-11582D01*
X-12540Y17232D02*
X-11880Y17892D01*
X-14334Y17232D02*
X-12540D01*
X-15017Y17915D02*
X-14334Y17232D01*
X-15017Y17915D02*
Y20745D01*
X-16437Y17467D02*
Y20156D01*
X57653Y-7134D02*
X59630D01*
X61330Y-5434D01*
X55890Y-4640D02*
Y-4640D01*
X61330Y-5434D02*
Y-5055D01*
X55890Y-5372D02*
X57653Y-7134D01*
X55890Y-5372D02*
Y-5018D01*
X61072Y-4798D02*
X61330Y-5055D01*
X58736Y-5234D02*
Y-4855D01*
X61072Y-4798D02*
Y-3946D01*
X56000Y-4297D02*
Y-553D01*
X50356Y-4665D02*
Y-815D01*
X50094Y-553D02*
X50356Y-815D01*
Y-4665D02*
X50618Y-4927D01*
X58206Y-4325D02*
Y-4277D01*
Y-4325D02*
X58736Y-4855D01*
X57968Y-4039D02*
X58206Y-4277D01*
X49796Y6767D02*
X50175D01*
X50500Y7093D01*
X58484D01*
X63583Y1993D01*
Y-263D02*
Y1993D01*
Y-263D02*
X63874Y-553D01*
X52063D02*
Y4500D01*
X49796Y6767D02*
X52063Y4500D01*
X8660Y7222D02*
X9676D01*
X11457Y5441D01*
X-4479Y11677D02*
X3649D01*
X3928Y11955D01*
X-8027Y8129D02*
X-4479Y11677D01*
X-22624Y25574D02*
X-19846D01*
X-15017Y20745D01*
X-22797Y25747D02*
X-22624Y25574D01*
X-19954Y23673D02*
X-16437Y20156D01*
X37113Y106414D02*
X38388Y105140D01*
X37113Y106414D02*
Y106910D01*
X28694Y104149D02*
X29664Y105120D01*
X32422Y111543D02*
X36762D01*
X38388Y105140D02*
X41734D01*
X36762Y111543D02*
X36772Y111533D01*
X32185Y107262D02*
X36762D01*
X37113Y106910D01*
X30043Y105120D02*
X32185Y107262D01*
X30121Y109242D02*
X32422Y111543D01*
X36772Y111533D02*
X40460D01*
X26440Y109256D02*
X30043D01*
X30057Y109242D02*
X30121D01*
X26426Y109270D02*
X26440Y109256D01*
X24710Y114869D02*
X25410Y114170D01*
X30043Y109256D02*
X30057Y109242D01*
X25410Y114170D02*
X28597D01*
X26451Y104149D02*
X28694D01*
X40460Y111533D02*
X41734Y110258D01*
X29331Y98868D02*
X31782Y101319D01*
X29114Y98868D02*
X29331D01*
X-11180Y34124D02*
X-10677Y33621D01*
X-11448Y35965D02*
X-11180Y35697D01*
Y34124D02*
Y35697D01*
X-22692Y23673D02*
X-19954D01*
X-22797Y23778D02*
X-22692Y23673D01*
X57968Y-4039D02*
Y-553D01*
X60227Y-3101D02*
X61072Y-3946D01*
X59937Y-553D02*
X60227Y-844D01*
Y-3101D02*
Y-844D01*
X53213Y-4712D02*
X54031Y-3894D01*
X53213Y-5091D02*
Y-4712D01*
X54031Y-3894D02*
Y-553D01*
X-12749Y25132D02*
X-11766Y24149D01*
Y22110D02*
Y24149D01*
Y22110D02*
X-9910Y20255D01*
X-7177D02*
X-2535Y15613D01*
X-9910Y20255D02*
X-7177D01*
X-11110Y30545D02*
Y31071D01*
X-10249Y29684D02*
X-7049D01*
X-11110Y30545D02*
X-10249Y29684D01*
X-11378Y31339D02*
X-11110Y31071D01*
X-18297Y59146D02*
X-18231Y59080D01*
X-22731Y59146D02*
X-18297D01*
X-22797Y59211D02*
X-22731Y59146D01*
X-16996Y57180D02*
X-16619Y56803D01*
X-19081Y57243D02*
X-19018Y57180D01*
X-16996D01*
X-22797Y57243D02*
X-19081D01*
X-16619Y56803D02*
X-12381D01*
X-15642Y46439D02*
X-10746Y41542D01*
Y40810D02*
Y41542D01*
X-4231Y40918D02*
X-4117D01*
X-7049Y41495D02*
X-6857Y41303D01*
X-4616D01*
X-4231Y40918D01*
X-4008Y40810D02*
X5574D01*
X-4117Y40918D02*
X-4008Y40810D01*
X7388Y38995D02*
X30840D01*
X5574Y40810D02*
X7388Y38995D01*
X-2068Y37558D02*
X-855Y38771D01*
X-7049Y37558D02*
X-2068D01*
X-855Y38771D02*
X-594D01*
X30840Y38995D02*
X31388Y39543D01*
X31767D01*
X-15284Y25132D02*
X-12749D01*
X-22605Y29492D02*
X-19643D01*
X-15284Y25132D01*
X-12381Y56803D02*
X-12365Y56818D01*
X-18203Y54814D02*
X-17879D01*
X-18664Y55274D02*
X-18203Y54814D01*
X-22797Y55274D02*
X-18664D01*
X-16877Y10571D02*
X-16587Y10281D01*
X-20358Y10571D02*
X-16877D01*
X-20626Y10838D02*
X-20358Y10571D01*
X-15925Y46439D02*
X-15642D01*
X-12841Y-2848D02*
X-12841Y-3087D01*
X-12841Y-2840D02*
X-12841Y-2832D01*
X-12673Y3712D01*
X-12841Y-3087D02*
X-6287Y-9987D01*
X-16587Y7014D02*
Y10281D01*
X-16610Y6991D02*
X-16587Y7014D01*
Y10281D02*
X-16564Y10304D01*
X-16610Y3712D02*
Y6991D01*
Y3712D02*
X-16610Y3712D01*
X-16610Y6991D02*
X-16610Y6991D01*
X-3047Y34050D02*
X-2779Y33782D01*
X-3047Y34050D02*
Y34759D01*
X-3878Y35589D02*
X-3047Y34759D01*
X-22797Y29684D02*
X-22605Y29492D01*
X-19042Y31627D02*
X-16632Y29216D01*
X4400Y18542D02*
X8929Y14013D01*
X32636D01*
X33299Y15613D02*
X38114Y10799D01*
X3127Y22078D02*
X9592Y15613D01*
X33299D01*
X88285Y-10044D02*
X88460Y-9869D01*
X85721Y-10044D02*
X88285D01*
X85546Y-10220D02*
X85721Y-10044D01*
X85546Y-13498D02*
Y-10220D01*
X72385Y111873D02*
X76380Y115867D01*
X67093Y111873D02*
X72385D01*
X76380Y115867D02*
Y121872D01*
X-10746Y40810D02*
X-9655Y39718D01*
X-7241D01*
X-7049Y39526D01*
X-22797Y31652D02*
X-22772Y31627D01*
X-19042D01*
X36943Y96349D02*
X38388Y94903D01*
X30273Y94104D02*
X32518Y96349D01*
X38388Y94903D02*
X41734D01*
X32518Y96349D02*
X36943D01*
X40935Y100821D02*
X41734Y100022D01*
X36784Y101296D02*
X40460D01*
X31782Y101319D02*
X36762D01*
X40460Y101296D02*
X40935Y100821D01*
X36762Y101319D02*
X36784Y101296D01*
X37113Y91060D02*
X38388Y89785D01*
X36762Y91437D02*
X37113Y91086D01*
X30057Y90520D02*
X30191D01*
X38388Y89785D02*
X41734D01*
X37113Y91060D02*
Y91086D01*
X31109Y91437D02*
X36762D01*
X30191Y90520D02*
X31109Y91437D01*
X94387Y-20283D02*
Y-20035D01*
X95371Y-19052D02*
Y-17864D01*
X96077Y-17158D01*
X94387Y-20035D02*
X95371Y-19052D01*
X2954Y19988D02*
X4400Y18542D01*
X1530Y19695D02*
X1823Y19988D01*
X399Y19695D02*
X399Y19695D01*
X399Y20826D02*
X689Y21116D01*
X-654Y23591D02*
X689Y22248D01*
X-1026Y23963D02*
X-654Y23591D01*
X-6865Y23963D02*
X-1026D01*
X-7049Y25747D02*
X-6865Y25563D01*
X-363D01*
X3055Y22145D01*
X-7049Y23778D02*
X-6865Y23963D01*
X37451Y9199D02*
X47862D01*
X38114Y10799D02*
X47199D01*
X32636Y14013D02*
X37451Y9199D01*
X47862D02*
X55355Y16691D01*
X47199Y10799D02*
X54692Y18291D01*
X77599D01*
X55355Y16691D02*
X76936D01*
X76380Y9667D02*
Y13014D01*
X79739Y14640D02*
Y16151D01*
X76936Y16691D02*
X78139Y15488D01*
X77599Y18291D02*
X79739Y16151D01*
X80091Y14288D02*
X80223D01*
X77788D02*
X78139Y14640D01*
X81498Y9667D02*
Y13014D01*
X76380D02*
X77655Y14288D01*
X79739Y14640D02*
X80091Y14288D01*
X78139Y14640D02*
Y15488D01*
X80223Y14288D02*
X81498Y13014D01*
X77655Y14288D02*
X77788D01*
X88460Y-7934D02*
X89370Y-7025D01*
Y-6040D01*
X88460Y-9869D02*
Y-7934D01*
X41078Y42097D02*
X49388D01*
X40734Y41754D02*
X41078Y42097D01*
X40734Y36636D02*
X47399D01*
X49388Y34647D01*
X-7049Y35589D02*
X-3878D01*
X-10677Y33621D02*
X-7049D01*
X-17104Y33621D02*
X-15682Y32199D01*
Y31932D02*
Y32199D01*
X-22797Y33621D02*
X-17104D01*
X-17833Y35777D02*
X-17646Y35965D01*
X-22454Y35777D02*
X-17833D01*
X-22638Y35592D02*
X-22454Y35777D01*
X28771Y99000D02*
X28826Y99054D01*
X26480Y99000D02*
X28771D01*
X26426Y104124D02*
X26451Y104149D01*
X93793Y-9908D02*
X94061Y-9640D01*
X93110Y-12042D02*
X93793Y-11359D01*
Y-9908D01*
X93110Y-15489D02*
Y-12042D01*
X89370Y-16175D02*
Y-15489D01*
X85546Y-16859D02*
X88686D01*
X89370Y-16175D01*
X85546Y-19944D02*
Y-16859D01*
X85580Y-19910D02*
X89461D01*
X89495Y-19876D01*
X85546Y-19944D02*
X85580Y-19910D01*
Y-23847D02*
X89461D01*
X89495Y-23813D01*
X85546Y-23881D02*
X85580Y-23847D01*
X114291Y-24042D02*
Y-13127D01*
Y-24239D02*
Y-24042D01*
X89495Y-23813D02*
X89961Y-23346D01*
X106457D01*
X112407Y-22158D02*
X114291Y-24042D01*
X106457Y-23346D02*
X107645Y-22158D01*
X112407D01*
X114291Y-13127D02*
X114685Y-12733D01*
X96166Y-17158D02*
X96850Y-16473D01*
X96077Y-17158D02*
X96166D01*
X96850Y-16473D02*
Y-15489D01*
X81583Y-19725D02*
Y-16885D01*
X81609Y-16859D01*
X81557Y-19751D02*
X81583Y-19725D01*
X81609Y-16859D02*
Y-13498D01*
X18479Y115148D02*
X18917Y114710D01*
X14504Y115148D02*
X18479D01*
X30057Y93888D02*
X30273Y94104D01*
X30057Y94320D02*
X30273Y94104D01*
X26426Y93954D02*
X29991D01*
X30057Y93888D01*
D60*
X6095Y80882D02*
D03*
Y74976D02*
D03*
D61*
X102874Y-12733D02*
D03*
X114685D02*
D03*
D63*
X86660Y-1557D02*
D03*
X80754D02*
D03*
X24710Y114869D02*
D03*
X18804D02*
D03*
D65*
X-17361Y61180D02*
X-15514Y59332D01*
X-22797Y61180D02*
X-17361D01*
X-15000Y59332D02*
X-14809Y59141D01*
X-15514Y59332D02*
X-15000D01*
X-18130Y69054D02*
X-17918Y68842D01*
X-17647D01*
X-22797Y69054D02*
X-18130D01*
X-18160Y72999D02*
X-18037Y73122D01*
X-22789Y72999D02*
X-18160D01*
X-22797Y72991D02*
X-22789Y72999D01*
X-7049Y71022D02*
X-280D01*
X-22797D02*
X-7049D01*
X-22797Y71022D02*
X-22797Y71022D01*
D66*
X211400Y33386D02*
X212540D01*
X213323Y34169D01*
X230620D01*
X210157Y32143D02*
X211400Y33386D01*
X230620Y34169D02*
X232573Y36122D01*
X23860Y-4044D02*
Y231D01*
X28644Y5015D01*
X39956Y-2560D02*
Y-1136D01*
Y-2777D02*
Y-2560D01*
X10201Y83184D02*
X10217Y83200D01*
X9380Y82888D02*
Y83051D01*
X8988Y83184D02*
X10201D01*
X6685Y80882D02*
X8988Y83184D01*
X9380Y82888D02*
X9383Y82885D01*
X13169D01*
X39956Y-2560D02*
X40851Y-1665D01*
X44205D01*
X44386Y-1484D02*
Y-553D01*
X44205Y-1665D02*
X44386Y-1484D01*
X27835Y57944D02*
X27935Y58044D01*
X27835Y55196D02*
Y57944D01*
X17702Y72545D02*
X27972Y62275D01*
Y58081D02*
Y62275D01*
X22489Y89298D02*
X33565Y78222D01*
X22489Y89298D02*
Y94020D01*
X33565Y75122D02*
Y78222D01*
X33537Y73957D02*
X33699Y73795D01*
X33537Y73957D02*
X33928Y74347D01*
X36703Y73856D02*
X41160D01*
X33699Y73795D02*
X36641D01*
X41160Y73856D02*
X41734Y74431D01*
X36641Y73795D02*
X36703Y73856D01*
X6095Y80882D02*
X6685D01*
X2260Y69903D02*
X6987D01*
X1140Y71022D02*
X2260Y69903D01*
X6987D02*
X9630Y72545D01*
X17702D01*
X-280Y71022D02*
X1140D01*
X3901Y72782D02*
X6095Y74976D01*
X3390Y72782D02*
X3901D01*
X3327Y72846D02*
X3390Y72782D01*
X69927Y-470D02*
X71022Y-1565D01*
X22489Y93854D02*
Y98970D01*
Y104069D02*
Y109270D01*
Y98970D02*
Y104069D01*
X71022Y-1565D02*
X73170D01*
X74065Y-2460D01*
Y-2677D02*
Y-2460D01*
D67*
X15877Y82114D02*
Y105070D01*
Y82114D02*
X32004Y65987D01*
X-18109Y65955D02*
X-18093D01*
X-18982Y66827D02*
X-18109Y65955D01*
X-15908Y65944D02*
X-15896Y65932D01*
X-18081Y65944D02*
X-15908D01*
X-18093Y65955D02*
X-18081Y65944D01*
X-22539Y66827D02*
X-18982D01*
X-22797Y67085D02*
X-22539Y66827D01*
X-22797Y66533D02*
Y67085D01*
Y65117D02*
Y66533D01*
X32004Y50834D02*
Y65987D01*
Y50834D02*
X35141Y47697D01*
X14249Y68814D02*
X18134Y64929D01*
X14154Y69445D02*
X14249Y69349D01*
X18134Y62390D02*
Y64929D01*
X14249Y68814D02*
Y69349D01*
X-22797Y63406D02*
Y65117D01*
X39910Y47697D02*
X40734Y46872D01*
X35141Y47697D02*
X39910D01*
D68*
X-17832Y51000D02*
X-17616D01*
X-18170Y51337D02*
X-17832Y51000D01*
X-22797Y51337D02*
X-18170D01*
X35357Y64170D02*
X35370Y64182D01*
X41722D01*
X35157Y67320D02*
X35310Y67473D01*
X36548D01*
X38388Y69313D02*
X41734D01*
X36548Y67473D02*
X38388Y69313D01*
X41722Y64182D02*
X41734Y64195D01*
D71*
X180394Y-6397D02*
D03*
Y-20177D02*
D03*
Y106658D02*
D03*
Y120438D02*
D03*
D72*
X264252Y11991D02*
D03*
Y88369D02*
D03*
D73*
X39956Y-2777D02*
D03*
X74012D02*
D03*
D74*
X39956Y-19234D02*
D03*
X74012D02*
D03*
D75*
X45606Y-4746D02*
D03*
X68362D02*
D03*
D76*
X0Y0D02*
D03*
X0Y100495D02*
D03*
D77*
X-11582Y17774D02*
D03*
X-6706Y14984D02*
D03*
X-9327Y15441D02*
D03*
X58736Y-5234D02*
D03*
X61330Y-5055D02*
D03*
X55890Y-5018D02*
D03*
X50618Y-4927D02*
D03*
X63637Y-8400D02*
D03*
X217096Y23728D02*
D03*
X220339Y26831D02*
D03*
X216218Y27126D02*
D03*
X212540Y33386D02*
D03*
X213674Y36769D02*
D03*
X210157Y32143D02*
D03*
Y35803D02*
D03*
X217989Y37623D02*
D03*
X224851Y36769D02*
D03*
X221788D02*
D03*
X216361Y50697D02*
D03*
X206396Y51145D02*
D03*
X210157Y50150D02*
D03*
X212240Y77806D02*
D03*
X216520D02*
D03*
X241571Y82297D02*
D03*
X223633Y28071D02*
D03*
X237086Y44733D02*
D03*
X225028Y77924D02*
D03*
X223868Y75115D02*
D03*
X156496Y89751D02*
D03*
X53957Y5193D02*
D03*
X49796Y6767D02*
D03*
X11457Y5441D02*
D03*
X-8027Y8129D02*
D03*
X12559Y2598D02*
D03*
X-13025Y20203D02*
D03*
X153517Y30349D02*
D03*
X156126Y27740D02*
D03*
X154882Y36636D02*
D03*
X238858Y4724D02*
D03*
X250121Y5074D02*
D03*
X255276Y5236D02*
D03*
X241412Y6355D02*
D03*
X244484Y73040D02*
D03*
X244297Y78354D02*
D03*
X239685Y84961D02*
D03*
X226476Y81614D02*
D03*
X219048Y86207D02*
D03*
X216361Y89229D02*
D03*
X221735Y77806D02*
D03*
X220897Y81614D02*
D03*
X214803D02*
D03*
X212240Y86207D02*
D03*
X244484Y39963D02*
D03*
Y45476D02*
D03*
X239543Y40157D02*
D03*
X233347Y42166D02*
D03*
X220512Y52205D02*
D03*
X229930Y42166D02*
D03*
X225660Y40157D02*
D03*
X227059Y44233D02*
D03*
X215662Y47264D02*
D03*
X212540Y39496D02*
D03*
X214764Y43386D02*
D03*
X221256Y40890D02*
D03*
X223274Y44349D02*
D03*
X224811Y46545D02*
D03*
X223071Y49904D02*
D03*
X220507Y47846D02*
D03*
X218725Y44733D02*
D03*
X217096Y40157D02*
D03*
X211438Y42166D02*
D03*
X212402Y46330D02*
D03*
X213077Y49942D02*
D03*
X212402Y26222D02*
D03*
X207951Y20038D02*
D03*
X203486Y16417D02*
D03*
X189981Y11280D02*
D03*
X183688Y15456D02*
D03*
X189981Y16417D02*
D03*
X187477Y9604D02*
D03*
Y13927D02*
D03*
X194253Y14973D02*
D03*
X198134Y15456D02*
D03*
X203526Y12527D02*
D03*
X224432Y22740D02*
D03*
X220651Y22108D02*
D03*
X240103Y20910D02*
D03*
X229944Y18787D02*
D03*
X241497Y17894D02*
D03*
X236922Y17165D02*
D03*
X233347Y18787D02*
D03*
Y10095D02*
D03*
X238671Y14200D02*
D03*
X232079Y12527D02*
D03*
X232127Y5254D02*
D03*
X244484Y28937D02*
D03*
X243327Y22740D02*
D03*
X244724Y26222D02*
D03*
X245784Y20486D02*
D03*
X244484Y31694D02*
D03*
Y42719D02*
D03*
Y37206D02*
D03*
Y34450D02*
D03*
X217096Y20432D02*
D03*
X227539Y15799D02*
D03*
X223633Y18787D02*
D03*
X227587Y21634D02*
D03*
X219054Y15681D02*
D03*
X207008Y16417D02*
D03*
X212798Y17036D02*
D03*
X212540Y22108D02*
D03*
X30057Y109242D02*
D03*
X30043Y105120D02*
D03*
X34660Y109166D02*
D03*
X33287Y105337D02*
D03*
X28597Y114170D02*
D03*
X34102Y116769D02*
D03*
X18933Y106334D02*
D03*
X28597Y117546D02*
D03*
X15877Y105070D02*
D03*
X180954Y20038D02*
D03*
Y25238D02*
D03*
X198134D02*
D03*
X184390Y20038D02*
D03*
X174082Y18650D02*
D03*
X176665D02*
D03*
X191262Y20038D02*
D03*
X187826D02*
D03*
X149681Y76289D02*
D03*
X142873Y94329D02*
D03*
X148804Y95753D02*
D03*
X149681Y79260D02*
D03*
X147500Y89342D02*
D03*
X142677Y80250D02*
D03*
X142747Y91780D02*
D03*
X143507Y62730D02*
D03*
X142367Y85700D02*
D03*
X200359Y32660D02*
D03*
X207951Y26222D02*
D03*
X203526Y32660D02*
D03*
X193009Y11280D02*
D03*
X194802Y20038D02*
D03*
X203526Y21797D02*
D03*
X192024Y32660D02*
D03*
X227886Y31159D02*
D03*
X193268Y6208D02*
D03*
X187477Y5590D02*
D03*
X199524Y4853D02*
D03*
X134290Y54910D02*
D03*
Y39060D02*
D03*
X149557Y273D02*
D03*
X146166Y1281D02*
D03*
X146253Y-1060D02*
D03*
X141026Y120010D02*
D03*
X159276Y120975D02*
D03*
X29114Y98868D02*
D03*
X48370Y109166D02*
D03*
X12652Y90520D02*
D03*
X6214Y84954D02*
D03*
X18933Y96011D02*
D03*
X22186Y-25019D02*
D03*
X30075Y-25714D02*
D03*
X27428Y-25400D02*
D03*
X24926Y-25214D02*
D03*
X3765Y-17196D02*
D03*
X-202Y-16230D02*
D03*
X-11448Y35965D02*
D03*
X13750Y32D02*
D03*
X-17879Y43463D02*
D03*
X244484Y64771D02*
D03*
Y67527D02*
D03*
X203780Y29488D02*
D03*
X224851Y30786D02*
D03*
X207951Y43488D02*
D03*
X181780Y55433D02*
D03*
X221381Y72371D02*
D03*
X218773D02*
D03*
X244484Y70284D02*
D03*
X210157Y28071D02*
D03*
X187826Y25238D02*
D03*
X16134Y41298D02*
D03*
X-13823Y27223D02*
D03*
X-17079Y13757D02*
D03*
X-2034Y53614D02*
D03*
X681Y55136D02*
D03*
X-1454Y68698D02*
D03*
X-12803Y64704D02*
D03*
X-5334Y112344D02*
D03*
X-7423Y110744D02*
D03*
X-10046Y108744D02*
D03*
X-12224Y107010D02*
D03*
X-14224Y105099D02*
D03*
X-24787Y19180D02*
D03*
X-24768Y16504D02*
D03*
X-24816Y13947D02*
D03*
X-24794Y11424D02*
D03*
X-2803Y-14962D02*
D03*
X-6283Y-12756D02*
D03*
X-8770Y-10566D02*
D03*
X-11682Y-8081D02*
D03*
X-14361Y-5868D02*
D03*
X-18126Y63280D02*
D03*
X-18231Y59080D02*
D03*
X-18093Y65955D02*
D03*
X-15839Y62708D02*
D03*
X17254Y76868D02*
D03*
X-19154Y-767D02*
D03*
X-16610Y-3438D02*
D03*
X-21763Y2443D02*
D03*
X-2217Y18969D02*
D03*
X167Y42709D02*
D03*
X-594Y38771D02*
D03*
X-13342Y62446D02*
D03*
X-12373Y60081D02*
D03*
X-15896Y65932D02*
D03*
X-17647Y68842D02*
D03*
X-14743Y68206D02*
D03*
X-13723Y75509D02*
D03*
X-14683Y42587D02*
D03*
X80010Y2602D02*
D03*
X78073Y-426D02*
D03*
X60436Y113377D02*
D03*
X-17879Y54814D02*
D03*
X-12365Y56818D02*
D03*
X-20626Y10838D02*
D03*
X-15925Y46439D02*
D03*
X-2535Y15613D02*
D03*
X-2779Y33782D02*
D03*
X-12972Y47816D02*
D03*
X-16632Y29216D02*
D03*
X27835Y55196D02*
D03*
X27935Y58044D02*
D03*
X-18037Y73122D02*
D03*
X24974Y19742D02*
D03*
X8659Y-14641D02*
D03*
X67069Y111849D02*
D03*
X69884Y113968D02*
D03*
X123Y59211D02*
D03*
X-2018Y61372D02*
D03*
X56553Y113574D02*
D03*
X77657Y106451D02*
D03*
X117325Y17692D02*
D03*
X159863Y-26560D02*
D03*
X148669D02*
D03*
X137795D02*
D03*
Y-23682D02*
D03*
X121095Y-26760D02*
D03*
X126732Y-25017D02*
D03*
X244484Y56502D02*
D03*
X69022Y92420D02*
D03*
X26267Y80272D02*
D03*
X27005Y90482D02*
D03*
X64201Y93263D02*
D03*
X-1677Y56803D02*
D03*
X-17616Y51000D02*
D03*
X-2386Y77316D02*
D03*
X-6003Y85814D02*
D03*
X-3189Y83200D02*
D03*
X-14809Y59141D02*
D03*
X108780Y-26760D02*
D03*
X108299Y126105D02*
D03*
X104657Y125979D02*
D03*
X56463Y109321D02*
D03*
X33565Y87611D02*
D03*
X34691Y94320D02*
D03*
X32248Y45275D02*
D03*
X31767Y28912D02*
D03*
X56165Y41881D02*
D03*
X56307Y73598D02*
D03*
X10645Y49854D02*
D03*
X2925Y49192D02*
D03*
X43074Y7008D02*
D03*
X-16396Y103281D02*
D03*
X-18240Y100783D02*
D03*
X-20930Y98440D02*
D03*
X-22621Y96288D02*
D03*
X-3010Y114054D02*
D03*
X-848Y115814D02*
D03*
X1977Y117022D02*
D03*
X4336Y118432D02*
D03*
X6695Y119430D02*
D03*
X9274Y120597D02*
D03*
X11585Y121668D02*
D03*
X14236Y122641D02*
D03*
X80685Y115571D02*
D03*
X-12399Y83385D02*
D03*
Y77751D02*
D03*
X-12220Y80710D02*
D03*
X-16404Y83170D02*
D03*
X-15048Y77751D02*
D03*
X-11201Y68266D02*
D03*
X31767Y39543D02*
D03*
X62795Y7008D02*
D03*
X-11664Y53456D02*
D03*
X173524Y121897D02*
D03*
X172295Y112842D02*
D03*
X183508Y115928D02*
D03*
X185280Y111558D02*
D03*
X185476Y101798D02*
D03*
X180053Y99040D02*
D03*
X174605Y108922D02*
D03*
X185476Y95019D02*
D03*
X207205D02*
D03*
X226476Y92752D02*
D03*
X220897Y93944D02*
D03*
X223353Y95640D02*
D03*
X227244Y87267D02*
D03*
X224287Y87951D02*
D03*
X212240Y93342D02*
D03*
X216520Y95350D02*
D03*
X211639Y95808D02*
D03*
X203453Y95019D02*
D03*
X198247Y95570D02*
D03*
X194437D02*
D03*
X188980Y95019D02*
D03*
X183508Y97168D02*
D03*
X178965Y101798D02*
D03*
X161240Y117893D02*
D03*
X164370Y112680D02*
D03*
X169087Y109058D02*
D03*
X172295Y106924D02*
D03*
X164370Y120975D02*
D03*
X172740Y117893D02*
D03*
X169087Y120975D02*
D03*
X169890Y126397D02*
D03*
X162626Y125857D02*
D03*
X158034Y125931D02*
D03*
X166500Y115873D02*
D03*
X169087Y112842D02*
D03*
X156760Y71256D02*
D03*
Y75382D02*
D03*
X158085Y79699D02*
D03*
X160315Y82716D02*
D03*
X163360Y83678D02*
D03*
X162409Y86810D02*
D03*
X156610Y92361D02*
D03*
X154516Y94239D02*
D03*
X152567Y96381D02*
D03*
X244484Y48232D02*
D03*
Y50989D02*
D03*
X189245Y32660D02*
D03*
X226463Y11188D02*
D03*
X205827Y23898D02*
D03*
X194698Y25238D02*
D03*
X223996Y52470D02*
D03*
X172981Y72087D02*
D03*
X224813Y55309D02*
D03*
X212402Y30315D02*
D03*
X191262Y25238D02*
D03*
X238858Y9393D02*
D03*
X228406Y7609D02*
D03*
X235803Y6743D02*
D03*
X209323Y11188D02*
D03*
X204102Y7960D02*
D03*
X208008Y4972D02*
D03*
X200984Y27126D02*
D03*
X201681Y20038D02*
D03*
X206396Y32660D02*
D03*
X198134Y20038D02*
D03*
X197565Y9604D02*
D03*
X194802Y32660D02*
D03*
X197580D02*
D03*
X244484Y53745D02*
D03*
X221735Y55433D02*
D03*
X239199Y79370D02*
D03*
X244484Y62014D02*
D03*
Y59258D02*
D03*
X241992Y79370D02*
D03*
X244484Y75797D02*
D03*
X228706Y79370D02*
D03*
X223885Y72276D02*
D03*
X180408Y75354D02*
D03*
X175353Y32660D02*
D03*
X183688D02*
D03*
X186467D02*
D03*
X207951Y39496D02*
D03*
X184390Y25238D02*
D03*
X219048Y55433D02*
D03*
X200670Y51145D02*
D03*
X197491Y49845D02*
D03*
X194434Y49814D02*
D03*
X191377Y49845D02*
D03*
X188321D02*
D03*
X185264D02*
D03*
X182207D02*
D03*
X179151D02*
D03*
X175914Y55433D02*
D03*
X139401Y114596D02*
D03*
X142747Y106739D02*
D03*
X139673Y111239D02*
D03*
X145851Y102210D02*
D03*
X142993Y103944D02*
D03*
X150662Y98392D02*
D03*
X141874Y109412D02*
D03*
X148331Y100385D02*
D03*
X76676Y2602D02*
D03*
X49443Y66256D02*
D03*
Y73770D02*
D03*
X49388Y42097D02*
D03*
Y34647D02*
D03*
X90886Y114194D02*
D03*
X104219D02*
D03*
X117254D02*
D03*
X132433Y114820D02*
D03*
X103957Y103327D02*
D03*
X129457Y107746D02*
D03*
X108898Y999D02*
D03*
X-23860Y5565D02*
D03*
X63954Y115377D02*
D03*
X3327Y72846D02*
D03*
X14154Y69445D02*
D03*
Y75334D02*
D03*
X-14932Y80829D02*
D03*
X-17957Y77771D02*
D03*
X5892Y54903D02*
D03*
X15762Y50172D02*
D03*
X10764Y55086D02*
D03*
X53213Y-5091D02*
D03*
X-15682Y31932D02*
D03*
X-11378Y31339D02*
D03*
X-17646Y35965D02*
D03*
X15699Y29818D02*
D03*
X3319Y28617D02*
D03*
X13862Y53306D02*
D03*
X13169Y82885D02*
D03*
X35157Y67320D02*
D03*
X35357Y64170D02*
D03*
X122107Y-18686D02*
D03*
X154753Y-26560D02*
D03*
X168992Y-9845D02*
D03*
Y-13502D02*
D03*
X172094Y-13540D02*
D03*
X54915Y-9275D02*
D03*
X88460Y-9869D02*
D03*
X94061Y-9640D02*
D03*
X91489Y-11512D02*
D03*
X6348Y-11818D02*
D03*
X176094Y49920D02*
D03*
X173037D02*
D03*
X174507Y-20798D02*
D03*
Y-23588D02*
D03*
X171693Y-20845D02*
D03*
Y-23588D02*
D03*
X80568Y-22916D02*
D03*
X78664Y-20864D02*
D03*
X77873Y-10306D02*
D03*
X78614Y-18193D02*
D03*
X77873Y-15489D02*
D03*
X77823Y-13125D02*
D03*
X81557Y-19751D02*
D03*
X78051Y-3784D02*
D03*
X96852Y-10791D02*
D03*
X100472Y-26760D02*
D03*
X85052D02*
D03*
X88145D02*
D03*
X97677D02*
D03*
X123828Y-25017D02*
D03*
X123851Y-21882D02*
D03*
X126732Y-21790D02*
D03*
X119780Y-16187D02*
D03*
Y-18675D02*
D03*
X122107Y-16187D02*
D03*
X120778Y219D02*
D03*
X123819D02*
D03*
X120778Y-3168D02*
D03*
X123819D02*
D03*
X119780Y-21162D02*
D03*
X32926Y-25810D02*
D03*
X35906Y-25586D02*
D03*
X9258Y-2450D02*
D03*
X12216D02*
D03*
X9405Y1576D02*
D03*
X15637Y-6549D02*
D03*
X3765Y-14529D02*
D03*
X6348D02*
D03*
X8932Y-17196D02*
D03*
X6348D02*
D03*
X64957Y64836D02*
D03*
X141138Y116514D02*
D03*
X14504Y115148D02*
D03*
X30057Y94320D02*
D03*
X181780Y72087D02*
D03*
X175914D02*
D03*
X90739Y21275D02*
D03*
X77571Y21587D02*
D03*
X160757Y49920D02*
D03*
X163867Y50010D02*
D03*
X166924Y50030D02*
D03*
X169981Y50010D02*
D03*
X156331Y41877D02*
D03*
X180910Y32660D02*
D03*
X178131D02*
D03*
X177518Y25238D02*
D03*
X174082D02*
D03*
X172981Y55433D02*
D03*
X178847D02*
D03*
X129457Y102309D02*
D03*
Y105027D02*
D03*
Y99590D02*
D03*
Y88734D02*
D03*
Y86015D02*
D03*
Y83297D02*
D03*
Y91452D02*
D03*
Y61414D02*
D03*
Y69569D02*
D03*
Y72288D02*
D03*
X120197Y35800D02*
D03*
X129776Y55030D02*
D03*
X129457Y30025D02*
D03*
Y27306D02*
D03*
Y24588D02*
D03*
Y32743D02*
D03*
X116557Y108664D02*
D03*
Y100509D02*
D03*
Y103227D02*
D03*
Y105946D02*
D03*
Y97790D02*
D03*
Y78778D02*
D03*
Y86934D02*
D03*
Y84215D02*
D03*
Y89652D02*
D03*
Y59614D02*
D03*
Y67769D02*
D03*
Y65051D02*
D03*
Y70488D02*
D03*
Y40756D02*
D03*
Y48912D02*
D03*
Y43475D02*
D03*
Y51630D02*
D03*
Y22070D02*
D03*
Y30225D02*
D03*
Y27506D02*
D03*
Y32943D02*
D03*
X103957Y108764D02*
D03*
Y100609D02*
D03*
Y106045D02*
D03*
Y97890D02*
D03*
Y78878D02*
D03*
Y87034D02*
D03*
Y84315D02*
D03*
Y89752D02*
D03*
Y40857D02*
D03*
Y49012D02*
D03*
Y43575D02*
D03*
Y51730D02*
D03*
Y30325D02*
D03*
Y27606D02*
D03*
Y33043D02*
D03*
X90657Y109064D02*
D03*
Y100909D02*
D03*
Y103627D02*
D03*
Y106345D02*
D03*
Y98190D02*
D03*
Y79179D02*
D03*
Y87334D02*
D03*
Y84615D02*
D03*
Y90052D02*
D03*
Y60014D02*
D03*
Y68169D02*
D03*
Y65451D02*
D03*
Y70888D02*
D03*
Y41157D02*
D03*
Y49312D02*
D03*
Y43875D02*
D03*
Y52030D02*
D03*
X90713Y29498D02*
D03*
X90657Y25188D02*
D03*
X77571Y34625D02*
D03*
X77657Y25294D02*
D03*
X77727Y29680D02*
D03*
X77657Y52136D02*
D03*
Y43981D02*
D03*
Y49417D02*
D03*
Y41262D02*
D03*
Y70993D02*
D03*
Y65557D02*
D03*
Y68275D02*
D03*
Y60120D02*
D03*
Y90158D02*
D03*
Y84721D02*
D03*
Y87440D02*
D03*
Y79284D02*
D03*
Y98296D02*
D03*
Y103733D02*
D03*
Y101014D02*
D03*
X122157Y16570D02*
D03*
X33537Y73957D02*
D03*
X33565Y76341D02*
D03*
X48370Y126897D02*
D03*
X44929Y126940D02*
D03*
X41734Y126897D02*
D03*
X38181D02*
D03*
X34142Y126940D02*
D03*
X30703Y126726D02*
D03*
X27404Y126237D02*
D03*
X23844Y125389D02*
D03*
X20463Y124513D02*
D03*
X17082Y123613D02*
D03*
X-24465Y93905D02*
D03*
X-16404Y97207D02*
D03*
X-24768Y8749D02*
D03*
X64957Y40543D02*
D03*
Y43236D02*
D03*
Y29770D02*
D03*
X64804Y33592D02*
D03*
X64757Y36670D02*
D03*
X64957Y67529D02*
D03*
Y48770D02*
D03*
Y51463D02*
D03*
Y58970D02*
D03*
X65057Y83143D02*
D03*
Y85836D02*
D03*
Y88529D02*
D03*
Y70270D02*
D03*
Y72963D02*
D03*
Y80170D02*
D03*
X64677Y109576D02*
D03*
X158960Y36489D02*
D03*
X157320Y38753D02*
D03*
X141026Y125821D02*
D03*
Y122915D02*
D03*
X156773Y45338D02*
D03*
X158908Y47291D02*
D03*
X158792Y60844D02*
D03*
X158085Y64142D02*
D03*
X158749Y67363D02*
D03*
X102905Y16899D02*
D03*
X178847Y72087D02*
D03*
X172575Y32660D02*
D03*
X30057Y90520D02*
D03*
D78*
X145610Y99512D02*
D03*
X143267Y54770D02*
D03*
X142967Y29830D02*
D03*
X142677Y73720D02*
D03*
X139673Y94239D02*
D03*
X133890Y94449D02*
D03*
X110557Y36670D02*
D03*
X84386Y36770D02*
D03*
X90929D02*
D03*
X104014Y36670D02*
D03*
X97471Y36770D02*
D03*
X71300Y36670D02*
D03*
X129527D02*
D03*
X117040D02*
D03*
X123255D02*
D03*
X113357Y54970D02*
D03*
X87186Y55070D02*
D03*
X93729D02*
D03*
X106814Y54970D02*
D03*
X100271Y55070D02*
D03*
X80643Y54970D02*
D03*
X74100D02*
D03*
X67557D02*
D03*
X118927Y55110D02*
D03*
X126453Y56970D02*
D03*
X113758Y76166D02*
D03*
X87587Y76266D02*
D03*
X94130D02*
D03*
X107216Y76166D02*
D03*
X100673Y76266D02*
D03*
X81044Y76166D02*
D03*
X74501D02*
D03*
X67958D02*
D03*
X130687Y76590D02*
D03*
X120241Y76166D02*
D03*
X126456D02*
D03*
X76803Y94468D02*
D03*
X129755Y94370D02*
D03*
X123540D02*
D03*
X71257D02*
D03*
X84343D02*
D03*
X103971Y94470D02*
D03*
X110514Y94370D02*
D03*
X97429Y94470D02*
D03*
X90886D02*
D03*
X117057Y94370D02*
D03*
D79*
X-19844Y82636D02*
D03*
Y18070D02*
D03*
D82*
X185139Y84884D02*
G03*
X185043Y84979I-95J0D01*
G01*
X148034Y118659D02*
G03*
X150962Y111588I10000J0D01*
G01*
X169321Y64195D02*
X175347D01*
X188980Y85019D02*
X193512D01*
X188980Y84979D02*
Y85019D01*
X185043Y84944D02*
Y84979D01*
X181539Y84944D02*
X185043D01*
X185139Y80875D02*
Y84884D01*
X150962Y111588D02*
X177532Y85019D01*
X177602Y80812D02*
Y84944D01*
X177553Y80812D02*
X177602D01*
X188943Y85017D02*
X188980Y84979D01*
X179868Y64145D02*
X232573D01*
X181519Y84964D02*
X181539Y84944D01*
X148034Y118659D02*
Y121872D01*
D83*
X199516Y79212D02*
D03*
Y90826D02*
D03*
X203569Y47586D02*
D03*
Y35972D02*
D03*
X191733Y58424D02*
D03*
Y70038D02*
D03*
D84*
X193512Y85019D02*
D03*
X197565Y41779D02*
D03*
D85*
X232573Y26791D02*
D03*
Y36122D02*
D03*
Y50295D02*
D03*
Y73799D02*
D03*
D86*
Y64468D02*
D03*
D87*
X245774Y11996D02*
D03*
Y88398D02*
D03*
D88*
X8660Y7222D02*
D03*
X3928Y11955D02*
D03*
D89*
X28644Y5015D02*
D03*
D90*
X214112Y54029D02*
D03*
X201868D02*
D03*
X214112Y74431D02*
D03*
X201868D02*
D03*
D91*
X207990Y54029D02*
D03*
Y74431D02*
D03*
D92*
X182355Y78091D02*
D03*
X185139Y80875D02*
D03*
X177553Y80812D02*
D03*
X174769Y78029D02*
D03*
D93*
X44386Y-553D02*
D03*
X47535D02*
D03*
X66433D02*
D03*
X69582D02*
D03*
D94*
X50094D02*
D03*
X52063D02*
D03*
X54031D02*
D03*
X56000D02*
D03*
X57968D02*
D03*
X59937D02*
D03*
X61905D02*
D03*
X63874D02*
D03*
D95*
X157412Y-11657D02*
D03*
X145994D02*
D03*
X132087Y-20286D02*
D03*
X143504D02*
D03*
D96*
X52561Y109077D02*
D03*
Y101203D02*
D03*
Y93329D02*
D03*
Y85455D02*
D03*
Y77581D02*
D03*
Y69707D02*
D03*
Y61833D02*
D03*
Y53959D02*
D03*
Y46084D02*
D03*
Y38210D02*
D03*
Y30336D02*
D03*
Y22463D02*
D03*
X60435Y109077D02*
D03*
Y101203D02*
D03*
Y93329D02*
D03*
Y85455D02*
D03*
Y77581D02*
D03*
Y69707D02*
D03*
Y61833D02*
D03*
Y53959D02*
D03*
Y46084D02*
D03*
Y30336D02*
D03*
Y22463D02*
D03*
Y38210D02*
D03*
D97*
X71459Y103565D02*
D03*
Y84667D02*
D03*
Y65770D02*
D03*
Y46872D02*
D03*
Y27974D02*
D03*
X84057Y103565D02*
D03*
Y84667D02*
D03*
Y65770D02*
D03*
Y46872D02*
D03*
Y27974D02*
D03*
X97443Y103565D02*
D03*
Y84667D02*
D03*
Y46872D02*
D03*
Y27974D02*
D03*
X110041Y103565D02*
D03*
Y84667D02*
D03*
Y46872D02*
D03*
Y27974D02*
D03*
X123427Y103565D02*
D03*
Y84667D02*
D03*
Y65770D02*
D03*
Y46872D02*
D03*
Y27974D02*
D03*
X136026Y103565D02*
D03*
Y84667D02*
D03*
Y65770D02*
D03*
Y46872D02*
D03*
Y27974D02*
D03*
D98*
X66144Y9667D02*
D03*
X71262D02*
D03*
X76380D02*
D03*
X81498D02*
D03*
X107089D02*
D03*
X112207D02*
D03*
X117325D02*
D03*
X127561D02*
D03*
X132679D02*
D03*
X137797D02*
D03*
X142915D02*
D03*
X148034D02*
D03*
X153152Y121872D02*
D03*
X137797D02*
D03*
X132679D02*
D03*
X127561D02*
D03*
X122443D02*
D03*
X117325D02*
D03*
X112207D02*
D03*
X96852D02*
D03*
X91734D02*
D03*
X86616D02*
D03*
X81498D02*
D03*
X76380D02*
D03*
X71262D02*
D03*
X66144D02*
D03*
X61026D02*
D03*
X55908D02*
D03*
D99*
X86616Y8570D02*
D03*
X91734D02*
D03*
X96852D02*
D03*
X101971D02*
D03*
X122443D02*
D03*
D100*
X165750Y16163D02*
D03*
Y21281D02*
D03*
Y26399D02*
D03*
Y31518D02*
D03*
Y36636D02*
D03*
Y46872D02*
D03*
Y53959D02*
D03*
Y59077D02*
D03*
Y69313D02*
D03*
Y74431D02*
D03*
Y79549D02*
D03*
X41734Y115376D02*
D03*
Y110258D02*
D03*
Y105140D02*
D03*
Y100022D02*
D03*
Y94903D02*
D03*
Y89785D02*
D03*
Y84667D02*
D03*
Y79549D02*
D03*
Y74431D02*
D03*
Y69313D02*
D03*
Y64195D02*
D03*
Y59077D02*
D03*
Y53959D02*
D03*
Y26399D02*
D03*
Y21281D02*
D03*
Y16163D02*
D03*
D101*
X165750Y41754D02*
D03*
Y64195D02*
D03*
D102*
X148034Y121872D02*
D03*
D103*
X40734Y46872D02*
D03*
Y41754D02*
D03*
Y36636D02*
D03*
Y31518D02*
D03*
D104*
X-22797Y49369D02*
D03*
Y45432D02*
D03*
Y41495D02*
D03*
Y37558D02*
D03*
Y33621D02*
D03*
X-7049Y21810D02*
D03*
X-22797Y53306D02*
D03*
Y57243D02*
D03*
Y55274D02*
D03*
Y51337D02*
D03*
Y47400D02*
D03*
Y43463D02*
D03*
Y39526D02*
D03*
Y35589D02*
D03*
Y31652D02*
D03*
X-7049Y57243D02*
D03*
Y53306D02*
D03*
Y49369D02*
D03*
Y45432D02*
D03*
Y55274D02*
D03*
Y51337D02*
D03*
Y47400D02*
D03*
Y43463D02*
D03*
Y41495D02*
D03*
Y39526D02*
D03*
Y37558D02*
D03*
Y35589D02*
D03*
Y33621D02*
D03*
Y31652D02*
D03*
Y29684D02*
D03*
Y27715D02*
D03*
Y25747D02*
D03*
Y23778D02*
D03*
X-22797Y21810D02*
D03*
Y23778D02*
D03*
Y25747D02*
D03*
Y27715D02*
D03*
Y29684D02*
D03*
Y59211D02*
D03*
X-7049Y59211D02*
D03*
X-22797Y69054D02*
D03*
Y65117D02*
D03*
Y61180D02*
D03*
Y76928D02*
D03*
Y78896D02*
D03*
Y74959D02*
D03*
Y71022D02*
D03*
Y67085D02*
D03*
Y63148D02*
D03*
X-7049Y76928D02*
D03*
Y72991D02*
D03*
Y69054D02*
D03*
Y65117D02*
D03*
Y78896D02*
D03*
Y74959D02*
D03*
Y71022D02*
D03*
Y67085D02*
D03*
Y63148D02*
D03*
Y61180D02*
D03*
X-22797Y72991D02*
D03*
D105*
X10260Y62390D02*
D03*
X18134D02*
D03*
D106*
X23860Y-15461D02*
D03*
Y-4044D02*
D03*
D107*
X63542Y-8306D02*
X63637Y-8400D01*
X63243Y-6203D02*
X63542Y-6502D01*
X63243Y-6203D02*
Y-4283D01*
X63542Y-8306D02*
Y-6502D01*
X62384Y-3424D02*
X63243Y-4283D01*
X62384Y-3424D02*
Y-2804D01*
X61905Y-2325D02*
Y-553D01*
Y-2325D02*
X62384Y-2804D01*
X-22770Y41467D02*
X-22655Y41582D01*
X-19760D02*
X-17879Y43463D01*
X-22655Y41582D02*
X-19760D01*
D108*
X197510Y41723D02*
X197565Y41779D01*
X191896Y41723D02*
X197510D01*
X181780Y41727D02*
X187909D01*
X165750Y41754D02*
X177364D01*
M02*
