G04*
G04 #@! TF.GenerationSoftware,Altium Limited,Altium Designer,22.8.2 (66)*
G04*
G04 Layer_Physical_Order=5*
G04 Layer_Color=16737945*
%FSLAX25Y25*%
%MOIN*%
G70*
G04*
G04 #@! TF.SameCoordinates,6BB00AFB-5455-402A-A2EE-A29BA1A7275C*
G04*
G04*
G04 #@! TF.FilePolarity,Positive*
G04*
G01*
G75*
%ADD65C,0.01000*%
%ADD66C,0.02000*%
%ADD67C,0.01500*%
%ADD71C,0.05906*%
%ADD72C,0.09943*%
%ADD73O,0.03937X0.08268*%
%ADD74O,0.04331X0.06693*%
%ADD76C,0.14961*%
%ADD77C,0.02000*%
%ADD78C,0.02800*%
G36*
X187545Y128506D02*
Y97924D01*
X187607Y97612D01*
X187783Y97347D01*
X188048Y97171D01*
X188360Y97109D01*
X224649D01*
X227735Y93634D01*
Y93342D01*
X227750Y93263D01*
Y93183D01*
X227985Y92002D01*
X228016Y91928D01*
X228032Y91849D01*
X228492Y90737D01*
X228537Y90670D01*
X228568Y90596D01*
X229236Y89595D01*
X229293Y89539D01*
X229338Y89472D01*
X230189Y88621D01*
X230256Y88576D01*
X230313Y88519D01*
X231313Y87850D01*
X231388Y87820D01*
X231454Y87775D01*
X232567Y87314D01*
X232645Y87299D01*
X232720Y87268D01*
X233900Y87033D01*
X233981D01*
X234059Y87018D01*
X235263D01*
X235342Y87033D01*
X235422D01*
X236603Y87268D01*
X236677Y87299D01*
X236756Y87314D01*
X237868Y87775D01*
X237935Y87820D01*
X238009Y87850D01*
X239010Y88519D01*
X239067Y88576D01*
X239133Y88621D01*
X239984Y89472D01*
X240029Y89539D01*
X240086Y89595D01*
X240755Y90596D01*
X240785Y90670D01*
X240830Y90737D01*
X241291Y91849D01*
X241306Y91928D01*
X241337Y92002D01*
X241572Y93183D01*
Y93263D01*
X241588Y93342D01*
Y93656D01*
X244373Y97109D01*
X275174D01*
X276189Y96093D01*
Y83674D01*
X270077D01*
X269953Y83513D01*
X269707Y83251D01*
X258797Y83251D01*
X258797Y83251D01*
X258550Y83513D01*
X258426Y83674D01*
X248657D01*
X248345Y83612D01*
X248081Y83435D01*
X247904Y83170D01*
X247842Y82858D01*
Y17504D01*
X247904Y17192D01*
X248081Y16927D01*
X248345Y16750D01*
X248657Y16688D01*
X258427D01*
X258522Y16813D01*
X258766Y17076D01*
X269738Y17076D01*
X269738Y17076D01*
X269982Y16813D01*
X270077Y16688D01*
X276189D01*
X276189Y4450D01*
X274991Y3252D01*
X228568D01*
X225483Y6726D01*
Y7018D01*
X225467Y7097D01*
Y7177D01*
X225232Y8358D01*
X225202Y8432D01*
X225186Y8511D01*
X224725Y9623D01*
X224681Y9690D01*
X224650Y9764D01*
X223981Y10765D01*
X223924Y10822D01*
X223880Y10888D01*
X223029Y11740D01*
X222962Y11784D01*
X222905Y11841D01*
X221904Y12510D01*
X221830Y12541D01*
X221763Y12585D01*
X220651Y13046D01*
X220572Y13061D01*
X220498Y13092D01*
X219317Y13327D01*
X219237D01*
X219158Y13343D01*
X217954D01*
X217876Y13327D01*
X217795D01*
X216615Y13092D01*
X216541Y13061D01*
X216462Y13046D01*
X215350Y12585D01*
X215283Y12541D01*
X215209Y12510D01*
X214208Y11841D01*
X214151Y11784D01*
X214084Y11740D01*
X213233Y10888D01*
X213188Y10822D01*
X213132Y10765D01*
X212463Y9764D01*
X212432Y9690D01*
X212387Y9623D01*
X211927Y8511D01*
X211911Y8432D01*
X211880Y8358D01*
X211646Y7177D01*
Y7097D01*
X211630Y7018D01*
Y6704D01*
X208844Y3252D01*
X188360D01*
X188048Y3190D01*
X187783Y3013D01*
X187607Y2748D01*
X187545Y2436D01*
X187545Y-28146D01*
X38858D01*
X38715Y-28174D01*
X38570Y-28198D01*
X38441Y-28247D01*
X36196Y-28264D01*
X31422Y-28006D01*
X29776Y-27814D01*
X29805Y-27314D01*
X30393D01*
X30981Y-27071D01*
X31126Y-26926D01*
X31551Y-26725D01*
X31779Y-26926D01*
X32020Y-27166D01*
X32608Y-27410D01*
X33244D01*
X33832Y-27166D01*
X34201Y-26798D01*
X34293Y-26717D01*
X34809Y-26752D01*
X34999Y-26943D01*
X35587Y-27186D01*
X36224D01*
X36812Y-26943D01*
X37262Y-26493D01*
X37506Y-25904D01*
Y-25268D01*
X37262Y-24680D01*
X36812Y-24230D01*
X36224Y-23986D01*
X35587D01*
X34999Y-24230D01*
X34631Y-24598D01*
X34538Y-24679D01*
X34023Y-24644D01*
X33832Y-24453D01*
X33244Y-24210D01*
X32608D01*
X32020Y-24453D01*
X31875Y-24598D01*
X31450Y-24799D01*
X31222Y-24598D01*
X30981Y-24358D01*
X30393Y-24114D01*
X29756D01*
X29254Y-24322D01*
X28784Y-24494D01*
X28334Y-24044D01*
X27746Y-23800D01*
X27110D01*
X26522Y-24044D01*
X26270Y-24295D01*
X25832Y-23857D01*
X25244Y-23614D01*
X24608D01*
X24020Y-23857D01*
X23728Y-24149D01*
X23542Y-24112D01*
X23092Y-23662D01*
X22504Y-23418D01*
X21868D01*
X21280Y-23662D01*
X20830Y-24112D01*
X20586Y-24700D01*
Y-25337D01*
X20778Y-25800D01*
X20554Y-26156D01*
X20459Y-26237D01*
X17322Y-25469D01*
X12757Y-24048D01*
X8288Y-22347D01*
X3934Y-20372D01*
X-290Y-18132D01*
X-4368Y-15635D01*
X-8283Y-12890D01*
X-12020Y-9908D01*
X-15566Y-6700D01*
X-18906Y-3279D01*
X-22029Y342D01*
X-24921Y4149D01*
X-26110Y5934D01*
X-26110Y25339D01*
Y77039D01*
X-26110Y93684D01*
X-24930Y95390D01*
X-22066Y99064D01*
X-18996Y102568D01*
X-15732Y105890D01*
X-12282Y109021D01*
X-8660Y111949D01*
X-4876Y114665D01*
X-942Y117161D01*
X3127Y119428D01*
X7320Y121458D01*
X11621Y123246D01*
X16018Y124784D01*
X20495Y126069D01*
X25039Y127096D01*
X29634Y127861D01*
X34265Y128362D01*
X36591Y128480D01*
X36644Y128494D01*
X36700Y128493D01*
X36769Y128506D01*
X187545Y128506D01*
D02*
G37*
%LPC*%
G36*
X180914Y124391D02*
X180894D01*
Y120938D01*
X184347D01*
Y120959D01*
X184077Y121964D01*
X183557Y122865D01*
X182821Y123601D01*
X181920Y124122D01*
X180914Y124391D01*
D02*
G37*
G36*
X179894D02*
X179873D01*
X178868Y124122D01*
X177966Y123601D01*
X177231Y122865D01*
X176710Y121964D01*
X176441Y120959D01*
Y120938D01*
X179894D01*
Y124391D01*
D02*
G37*
G36*
X184347Y119938D02*
X180894D01*
Y116485D01*
X180914D01*
X181920Y116755D01*
X182821Y117275D01*
X183557Y118011D01*
X184077Y118912D01*
X184347Y119918D01*
Y119938D01*
D02*
G37*
G36*
X179894D02*
X176441D01*
Y119918D01*
X176710Y118912D01*
X177231Y118011D01*
X177966Y117275D01*
X178868Y116755D01*
X179873Y116485D01*
X179894D01*
Y119938D01*
D02*
G37*
G36*
X14822Y116748D02*
X14186D01*
X13598Y116504D01*
X13147Y116054D01*
X12904Y115466D01*
Y114829D01*
X13147Y114241D01*
X13598Y113791D01*
X14186Y113548D01*
X14822D01*
X15410Y113791D01*
X15860Y114241D01*
X16104Y114829D01*
Y115466D01*
X15860Y116054D01*
X15410Y116504D01*
X14822Y116748D01*
D02*
G37*
G36*
X132751Y116420D02*
X132115D01*
X131527Y116176D01*
X131077Y115726D01*
X130833Y115138D01*
Y114502D01*
X131077Y113914D01*
X131527Y113464D01*
X132115Y113220D01*
X132751D01*
X133339Y113464D01*
X133790Y113914D01*
X134033Y114502D01*
Y115138D01*
X133790Y115726D01*
X133339Y116176D01*
X132751Y116420D01*
D02*
G37*
G36*
X28915Y115770D02*
X28279D01*
X27691Y115526D01*
X27241Y115076D01*
X26997Y114488D01*
Y113851D01*
X27241Y113263D01*
X27691Y112813D01*
X28279Y112570D01*
X28915D01*
X29504Y112813D01*
X29954Y113263D01*
X30197Y113851D01*
Y114488D01*
X29954Y115076D01*
X29504Y115526D01*
X28915Y115770D01*
D02*
G37*
G36*
X30375Y110842D02*
X29739D01*
X29151Y110598D01*
X28701Y110148D01*
X28457Y109560D01*
Y108924D01*
X28701Y108336D01*
X29151Y107886D01*
X29739Y107642D01*
X30375D01*
X30964Y107886D01*
X31414Y108336D01*
X31657Y108924D01*
Y109560D01*
X31414Y110148D01*
X30964Y110598D01*
X30375Y110842D01*
D02*
G37*
G36*
X19251Y107934D02*
X18615D01*
X18027Y107690D01*
X17577Y107240D01*
X17333Y106652D01*
Y106583D01*
X16833Y106376D01*
X16783Y106426D01*
X16195Y106670D01*
X15559D01*
X14971Y106426D01*
X14521Y105976D01*
X14277Y105388D01*
Y104751D01*
X14521Y104163D01*
X14971Y103713D01*
X15559Y103470D01*
X16195D01*
X16783Y103713D01*
X17234Y104163D01*
X17477Y104751D01*
Y104820D01*
X17977Y105027D01*
X18027Y104977D01*
X18615Y104734D01*
X19251D01*
X19839Y104977D01*
X20290Y105427D01*
X20533Y106015D01*
Y106652D01*
X20290Y107240D01*
X19839Y107690D01*
X19251Y107934D01*
D02*
G37*
G36*
X180861Y110211D02*
X179926D01*
X179022Y109969D01*
X178212Y109501D01*
X177551Y108840D01*
X177083Y108030D01*
X176841Y107126D01*
Y106190D01*
X177083Y105287D01*
X177551Y104477D01*
X178212Y103815D01*
X179022Y103347D01*
X179926Y103105D01*
X180861D01*
X181765Y103347D01*
X182575Y103815D01*
X183237Y104477D01*
X183705Y105287D01*
X183947Y106190D01*
Y107126D01*
X183705Y108030D01*
X183237Y108840D01*
X182575Y109501D01*
X181765Y109969D01*
X180861Y110211D01*
D02*
G37*
G36*
X122559Y119951D02*
X49947D01*
X49323Y119827D01*
X48794Y119474D01*
X32419Y103099D01*
X30653D01*
X30553Y103599D01*
X30950Y103763D01*
X31400Y104213D01*
X31643Y104801D01*
Y105438D01*
X31400Y106026D01*
X30950Y106476D01*
X30362Y106720D01*
X29725D01*
X29137Y106476D01*
X28687Y106026D01*
X28443Y105438D01*
Y104801D01*
X28687Y104213D01*
X29137Y103763D01*
X29534Y103599D01*
X29434Y103099D01*
X18933D01*
X18309Y102975D01*
X17780Y102621D01*
X2173Y87015D01*
X1820Y86486D01*
X1695Y85861D01*
Y83739D01*
X1690Y83716D01*
X1639Y83584D01*
X1196Y83328D01*
X1153Y83337D01*
X1098Y83300D01*
X1031D01*
X-10610Y78478D01*
X-11042Y78657D01*
X-11231Y78846D01*
X-11310Y79331D01*
X-11200Y79468D01*
X-10864Y79803D01*
X-10621Y80392D01*
Y81028D01*
X-10864Y81616D01*
X-11314Y82066D01*
X-11338Y82184D01*
X-11042Y82479D01*
X-10799Y83067D01*
Y83704D01*
X-11042Y84292D01*
X-11492Y84742D01*
X-12080Y84985D01*
X-12717D01*
X-13305Y84742D01*
X-13755Y84292D01*
X-13999Y83704D01*
Y83067D01*
X-13942Y82929D01*
X-14296Y82477D01*
X-14570Y82519D01*
X-14804Y82851D01*
Y83488D01*
X-15047Y84076D01*
X-15497Y84526D01*
X-16085Y84770D01*
X-16722D01*
X-17310Y84526D01*
X-17760Y84076D01*
X-17806Y83965D01*
X-17835Y83948D01*
X-18380Y83886D01*
X-18757Y84263D01*
X-19463Y84555D01*
X-20226D01*
X-20931Y84263D01*
X-21471Y83723D01*
X-21763Y83018D01*
Y82255D01*
X-21471Y81550D01*
X-20931Y81010D01*
X-20226Y80718D01*
X-19463D01*
X-18757Y81010D01*
X-18218Y81550D01*
X-18082Y81878D01*
X-17492Y81995D01*
X-17310Y81813D01*
X-16872Y81632D01*
X-16532Y81147D01*
Y80511D01*
X-16288Y79923D01*
X-15996Y79631D01*
X-15961Y79197D01*
X-16040Y79021D01*
X-16166Y78896D01*
X-16514Y78720D01*
X-16819Y78896D01*
X-17050Y79127D01*
X-17638Y79370D01*
X-18275D01*
X-18863Y79127D01*
X-19313Y78677D01*
X-19557Y78089D01*
Y77452D01*
X-19313Y76864D01*
X-18863Y76414D01*
X-18275Y76170D01*
X-17638D01*
X-17050Y76414D01*
X-16839Y76626D01*
X-16759Y76666D01*
X-16594Y76541D01*
X-16668Y75969D01*
X-17428Y75654D01*
X-17505Y75577D01*
X-17607Y75542D01*
X-17673Y75408D01*
X-17779Y75303D01*
Y75194D01*
X-17827Y75096D01*
X-17852Y74722D01*
X-18355D01*
X-18943Y74479D01*
X-19393Y74029D01*
X-19637Y73441D01*
X-20036Y73359D01*
X-20183Y73298D01*
X-20342Y73283D01*
X-20404Y73207D01*
X-20495Y73169D01*
X-21389Y72275D01*
X-21579Y71816D01*
X-21579Y67477D01*
X-21389Y67017D01*
X-19577Y65206D01*
X-19710Y64772D01*
X-19792Y64685D01*
X-20202Y64515D01*
X-22796Y61921D01*
X-22986Y61462D01*
Y39230D01*
X-22796Y38770D01*
X-20095Y36069D01*
X-20008Y36033D01*
X-19950Y35960D01*
X-19787Y35942D01*
X-19636Y35879D01*
X-19222Y35589D01*
X-19002Y35059D01*
X-18552Y34609D01*
X-17964Y34365D01*
X-17731Y33975D01*
X-17669Y33824D01*
X-17651Y33661D01*
X-17577Y33602D01*
X-17541Y33516D01*
X-16951Y32925D01*
X-17039Y32838D01*
X-17282Y32250D01*
Y31613D01*
X-17039Y31025D01*
X-17365Y30644D01*
X-17538Y30573D01*
X-17988Y30122D01*
X-18232Y29534D01*
Y28898D01*
X-17988Y28310D01*
X-17538Y27860D01*
X-16950Y27616D01*
X-16313D01*
X-15725Y27860D01*
X-15275Y28310D01*
X-15032Y28898D01*
Y29534D01*
X-15192Y29923D01*
X-14892Y30393D01*
X-14479Y30454D01*
X-13318Y29292D01*
X-13318Y29292D01*
X-3745Y19719D01*
X-3570Y19647D01*
X-3413Y19542D01*
X-3347Y19555D01*
X-3286Y19529D01*
X-3111Y19602D01*
X-2925Y19639D01*
X-2588Y19864D01*
X-2217Y19938D01*
X-1846Y19864D01*
X-1532Y19654D01*
X-1322Y19339D01*
X-1248Y18969D01*
X-1322Y18598D01*
X-1547Y18261D01*
X-1584Y18075D01*
X-1656Y17900D01*
X-1631Y17838D01*
X-1644Y17773D01*
X-1539Y17616D01*
X-1468Y17444D01*
X-1474Y17429D01*
X-1754Y17022D01*
X-2217Y17213D01*
X-2854D01*
X-3442Y16970D01*
X-3892Y16520D01*
X-4135Y15932D01*
Y15295D01*
X-3892Y14707D01*
X-3442Y14257D01*
X-2854Y14013D01*
X-2217D01*
X-1629Y14257D01*
X-1179Y14707D01*
X-935Y15295D01*
Y15932D01*
X-1127Y16394D01*
X-703Y16678D01*
X9416Y6558D01*
X9875Y6368D01*
X9903Y5868D01*
X9857Y5759D01*
Y5123D01*
X10101Y4535D01*
X10551Y4084D01*
X11139Y3841D01*
X11776D01*
X12364Y4084D01*
X12814Y4535D01*
X13057Y5123D01*
Y5759D01*
X13012Y5868D01*
X13346Y6368D01*
X41445D01*
X41620Y6441D01*
X41806Y6478D01*
X41843Y6533D01*
X41904Y6558D01*
X41976Y6733D01*
X42082Y6891D01*
X42179Y7378D01*
X42389Y7693D01*
X42703Y7903D01*
X43074Y7977D01*
X43445Y7903D01*
X43760Y7693D01*
X43970Y7378D01*
X44067Y6891D01*
X44172Y6733D01*
X44244Y6558D01*
X44306Y6533D01*
X44343Y6478D01*
X44528Y6441D01*
X44704Y6368D01*
X48214D01*
X48232Y6361D01*
X48439Y5861D01*
X48889Y5411D01*
X49477Y5167D01*
X50114D01*
X50702Y5411D01*
X51152Y5861D01*
X51359Y6361D01*
X51377Y6368D01*
X61166D01*
X61341Y6441D01*
X61527Y6478D01*
X61564Y6533D01*
X61625Y6558D01*
X61698Y6733D01*
X61803Y6891D01*
X61900Y7378D01*
X62110Y7693D01*
X62424Y7903D01*
X62795Y7977D01*
X63166Y7903D01*
X63481Y7693D01*
X63691Y7378D01*
X63788Y6891D01*
X63893Y6733D01*
X63965Y6558D01*
X64027Y6533D01*
X64064Y6478D01*
X64250Y6441D01*
X64425Y6368D01*
X76986D01*
X79152Y4201D01*
X79104Y3959D01*
X78654Y3508D01*
X78614Y3411D01*
X78073D01*
X78032Y3508D01*
X77582Y3959D01*
X76994Y4202D01*
X76358D01*
X75770Y3959D01*
X75320Y3508D01*
X75076Y2920D01*
Y2284D01*
X75084Y2266D01*
X74701Y1883D01*
X74682Y1891D01*
X74012Y1979D01*
X73341Y1891D01*
X72874Y1697D01*
X71368Y3212D01*
X71141Y3308D01*
X70912Y3404D01*
X43077Y3584D01*
X43076Y3583D01*
X43075Y3584D01*
X42847Y3490D01*
X42617Y3396D01*
X42616Y3395D01*
X42615Y3395D01*
X40961Y1752D01*
X40626Y1891D01*
X39956Y1979D01*
X39285Y1891D01*
X38661Y1632D01*
X38124Y1220D01*
X37712Y683D01*
X37453Y59D01*
X37365Y-612D01*
Y-4943D01*
X37453Y-5613D01*
X37712Y-6238D01*
X38124Y-6775D01*
X38661Y-7186D01*
X39285Y-7445D01*
X39621Y-7490D01*
Y-15308D01*
X39234Y-15359D01*
X38561Y-15638D01*
X37984Y-16081D01*
X37540Y-16659D01*
X37262Y-17332D01*
X37167Y-18053D01*
Y-20415D01*
X37262Y-21137D01*
X37540Y-21810D01*
X37984Y-22388D01*
X38561Y-22831D01*
X39234Y-23110D01*
X39956Y-23205D01*
X40678Y-23110D01*
X41262Y-22868D01*
X43000Y-24605D01*
X43459Y-24795D01*
X70999Y-24795D01*
X71458Y-24605D01*
X73052Y-23011D01*
X73290Y-23110D01*
X74012Y-23205D01*
X74734Y-23110D01*
X75407Y-22831D01*
X75532Y-22735D01*
X75981Y-22956D01*
Y-24942D01*
X76171Y-25401D01*
X77832Y-27063D01*
X78291Y-27253D01*
X83451D01*
X83627Y-27180D01*
X83812Y-27143D01*
X83849Y-27088D01*
X83911Y-27063D01*
X83983Y-26888D01*
X84088Y-26730D01*
X84156Y-26389D01*
X84366Y-26075D01*
X84681Y-25865D01*
X85052Y-25791D01*
X85423Y-25865D01*
X85737Y-26075D01*
X85758Y-26106D01*
X85813Y-26143D01*
X85839Y-26204D01*
X86014Y-26277D01*
X86171Y-26382D01*
X86236Y-26369D01*
X86298Y-26395D01*
X86899D01*
X86961Y-26369D01*
X87026Y-26382D01*
X87183Y-26277D01*
X87358Y-26204D01*
X87384Y-26143D01*
X87439Y-26106D01*
X87460Y-26075D01*
X87774Y-25865D01*
X88145Y-25791D01*
X88516Y-25865D01*
X88831Y-26075D01*
X89041Y-26389D01*
X89109Y-26730D01*
X89214Y-26888D01*
X89286Y-27063D01*
X89348Y-27088D01*
X89385Y-27143D01*
X89570Y-27180D01*
X89746Y-27253D01*
X96077D01*
X96252Y-27180D01*
X96438Y-27143D01*
X96475Y-27088D01*
X96536Y-27063D01*
X96609Y-26888D01*
X96714Y-26730D01*
X96782Y-26389D01*
X96992Y-26075D01*
X97306Y-25865D01*
X97677Y-25791D01*
X98048Y-25865D01*
X98392Y-26094D01*
X98529Y-26121D01*
X98647Y-26195D01*
X98966Y-26247D01*
X99020Y-26235D01*
X99071Y-26256D01*
X99079D01*
X99130Y-26235D01*
X99184Y-26247D01*
X99502Y-26195D01*
X99621Y-26121D01*
X99758Y-26094D01*
X100102Y-25865D01*
X100472Y-25791D01*
X100843Y-25865D01*
X101158Y-26075D01*
X101368Y-26389D01*
X101436Y-26730D01*
X101541Y-26888D01*
X101613Y-27063D01*
X101675Y-27088D01*
X101712Y-27143D01*
X101898Y-27180D01*
X102073Y-27253D01*
X107179D01*
X107354Y-27180D01*
X107540Y-27143D01*
X107577Y-27088D01*
X107639Y-27063D01*
X107711Y-26888D01*
X107816Y-26730D01*
X107884Y-26389D01*
X108094Y-26075D01*
X108409Y-25865D01*
X108780Y-25791D01*
X109151Y-25865D01*
X109465Y-26075D01*
X109675Y-26389D01*
X109743Y-26730D01*
X109848Y-26888D01*
X109921Y-27063D01*
X109982Y-27088D01*
X110019Y-27143D01*
X110205Y-27180D01*
X110380Y-27253D01*
X119494D01*
X119669Y-27180D01*
X119855Y-27143D01*
X119892Y-27088D01*
X119954Y-27063D01*
X120026Y-26888D01*
X120131Y-26730D01*
X120199Y-26389D01*
X120409Y-26075D01*
X120724Y-25865D01*
X121095Y-25791D01*
X121466Y-25865D01*
X121780Y-26075D01*
X121990Y-26389D01*
X122058Y-26730D01*
X122163Y-26888D01*
X122236Y-27063D01*
X122297Y-27088D01*
X122334Y-27143D01*
X122520Y-27180D01*
X122696Y-27253D01*
X127344Y-27248D01*
X127580Y-27150D01*
X127803Y-27057D01*
X129160Y-25698D01*
X129255Y-25470D01*
X129350Y-25239D01*
Y-21294D01*
X129160Y-20835D01*
X129154Y-20829D01*
X129345Y-20367D01*
X130481D01*
X130709Y-20272D01*
X130938Y-20178D01*
X137659Y-13516D01*
X137754Y-13288D01*
X137851Y-13060D01*
X137912Y-5936D01*
X137932Y-5917D01*
X138122Y-5458D01*
Y10073D01*
X138122Y18317D01*
X138129Y19208D01*
X138129Y19210D01*
X138130Y19211D01*
X138036Y19440D01*
X137943Y19669D01*
X137942Y19670D01*
X137941Y19671D01*
X131921Y25744D01*
X131773Y25806D01*
X131649Y25908D01*
X131552Y25899D01*
X131462Y25936D01*
X131314Y25876D01*
X131154Y25860D01*
X130693Y25615D01*
X130591Y25492D01*
X130458Y25403D01*
X130439Y25307D01*
X130377Y25232D01*
X130393Y25072D01*
X130361Y24915D01*
X130426Y24588D01*
X130353Y24217D01*
X130142Y23903D01*
X129828Y23693D01*
X129457Y23619D01*
X129086Y23693D01*
X128772Y23903D01*
X128562Y24217D01*
X128488Y24588D01*
X128562Y24959D01*
X128844Y25381D01*
X128881Y25567D01*
X128953Y25741D01*
Y26153D01*
X128881Y26328D01*
X128844Y26514D01*
X128562Y26935D01*
X128488Y27306D01*
X128562Y27677D01*
X128844Y28099D01*
X128875Y28255D01*
X128950Y28394D01*
X128951Y28404D01*
X128941Y28436D01*
X128954Y28466D01*
X128929Y28528D01*
X128941Y28587D01*
X128859Y28709D01*
X128808Y28880D01*
X128778Y28895D01*
X128766Y28926D01*
X125230Y32493D01*
X125229Y32493D01*
X125228Y32495D01*
X125000Y32589D01*
X124772Y32685D01*
X124770Y32684D01*
X124769Y32685D01*
X118109D01*
X118096Y32680D01*
X118082Y32684D01*
X117868Y32585D01*
X117650Y32495D01*
X117644Y32482D01*
X117631Y32476D01*
X117233Y32044D01*
X117152Y31822D01*
X117061Y31604D01*
Y31378D01*
X117134Y31203D01*
X117171Y31018D01*
X117453Y30596D01*
X117526Y30225D01*
X117453Y29854D01*
X117171Y29432D01*
X117134Y29246D01*
X117061Y29071D01*
Y28660D01*
X117134Y28485D01*
X117171Y28299D01*
X117453Y27877D01*
X117526Y27506D01*
X117453Y27136D01*
X117243Y26821D01*
X116928Y26611D01*
X116557Y26537D01*
X116186Y26611D01*
X115872Y26821D01*
X115662Y27136D01*
X115588Y27506D01*
X115662Y27877D01*
X115944Y28299D01*
X115981Y28485D01*
X116053Y28660D01*
Y29071D01*
X115981Y29246D01*
X115944Y29432D01*
X115662Y29854D01*
X115588Y30225D01*
X115662Y30596D01*
X115944Y31018D01*
X115990Y31251D01*
X116045Y31482D01*
X115957Y32025D01*
X115883Y32144D01*
X115856Y32282D01*
X115779Y32396D01*
X115724Y32433D01*
X115699Y32495D01*
X115524Y32567D01*
X115366Y32672D01*
X115301Y32659D01*
X115240Y32685D01*
X105550D01*
X105543Y32682D01*
X105536Y32685D01*
X105314Y32587D01*
X105091Y32495D01*
X105088Y32487D01*
X105081Y32484D01*
X104641Y32025D01*
X104554Y31799D01*
X104461Y31576D01*
Y31478D01*
X104534Y31303D01*
X104571Y31117D01*
X104853Y30696D01*
X104926Y30325D01*
X104853Y29954D01*
X104571Y29532D01*
X104534Y29346D01*
X104461Y29171D01*
Y28760D01*
X104534Y28585D01*
X104571Y28399D01*
X104853Y27977D01*
X104926Y27606D01*
X104853Y27235D01*
X104642Y26921D01*
X104328Y26711D01*
X103957Y26637D01*
X103586Y26711D01*
X103272Y26921D01*
X103062Y27235D01*
X102988Y27606D01*
X103062Y27977D01*
X103344Y28399D01*
X103381Y28585D01*
X103453Y28760D01*
Y29171D01*
X103381Y29346D01*
X103344Y29532D01*
X103062Y29954D01*
X102988Y30325D01*
X103062Y30696D01*
X103344Y31117D01*
X103390Y31351D01*
X103445Y31582D01*
X103357Y32125D01*
X103283Y32244D01*
X103256Y32382D01*
X103246Y32396D01*
X103191Y32433D01*
X103165Y32495D01*
X103116Y32515D01*
X103096Y32548D01*
X102978Y32576D01*
X102833Y32672D01*
X102768Y32660D01*
X102706Y32685D01*
X65181Y32685D01*
X65120Y32659D01*
X65055Y32672D01*
X64804Y32623D01*
X64554Y32672D01*
X64489Y32659D01*
X64427Y32685D01*
X50139D01*
X50040Y33185D01*
X50294Y33290D01*
X50744Y33740D01*
X50988Y34329D01*
Y34965D01*
X50744Y35553D01*
X50294Y36003D01*
X49706Y36247D01*
X49070D01*
X48482Y36003D01*
X48032Y35553D01*
X47788Y34965D01*
Y34329D01*
X48032Y33740D01*
X48482Y33290D01*
X48736Y33185D01*
X48637Y32685D01*
X30051D01*
X15227Y47509D01*
X13077Y49660D01*
X13006Y49689D01*
X12961Y49752D01*
X12784Y49781D01*
X12618Y49850D01*
X12546Y49821D01*
X12471Y49833D01*
X11897Y49700D01*
X11703Y49561D01*
X11504Y49428D01*
X11331Y49169D01*
X11016Y48959D01*
X10645Y48885D01*
X10274Y48959D01*
X9960Y49169D01*
X9750Y49483D01*
X9676Y49854D01*
X9750Y50225D01*
X9960Y50539D01*
X10219Y50713D01*
X10352Y50911D01*
X10491Y51106D01*
X10624Y51679D01*
X10612Y51755D01*
X10641Y51826D01*
X10572Y51992D01*
X10543Y52170D01*
X10480Y52214D01*
X10451Y52286D01*
X8275Y54462D01*
X8243Y54475D01*
X8227Y54505D01*
X8018Y54568D01*
X7816Y54652D01*
X7492Y55001D01*
Y55221D01*
X7249Y55809D01*
X6798Y56259D01*
X6211Y56503D01*
X5990D01*
X5641Y56826D01*
X5558Y57028D01*
X5494Y57238D01*
X5464Y57254D01*
X5451Y57285D01*
X2638Y60098D01*
X2491Y60159D01*
X2368Y60260D01*
X2270Y60251D01*
X2179Y60288D01*
X2032Y60227D01*
X1873Y60211D01*
X1610Y60071D01*
X1480Y60118D01*
X1029Y60568D01*
X441Y60811D01*
X-195D01*
X-783Y60568D01*
X-1050Y60301D01*
X-1548Y60302D01*
X-1908Y60412D01*
X-1959Y60391D01*
X-2000Y60399D01*
X-2389Y60476D01*
X-2703Y60687D01*
X-2913Y61001D01*
X-2987Y61372D01*
X-2913Y61743D01*
X-2703Y62057D01*
X-2389Y62267D01*
X-2018Y62341D01*
X-1988Y62335D01*
X-1831Y62366D01*
X-1673Y62351D01*
X-1597Y62413D01*
X-1500Y62432D01*
X-1412Y62565D01*
X-1288Y62666D01*
X-1042Y63127D01*
X-1026Y63285D01*
X-965Y63433D01*
X-984Y63479D01*
X-899Y63717D01*
X-640Y63979D01*
X6637D01*
X30289Y40327D01*
X30349Y40302D01*
X30167Y39861D01*
Y39225D01*
X30410Y38636D01*
X30860Y38186D01*
X31449Y37943D01*
X32085D01*
X32673Y38186D01*
X32771Y38284D01*
X32822Y38321D01*
X33222Y38527D01*
X33425Y38444D01*
X33618Y38340D01*
X33650Y38350D01*
X33681Y38337D01*
X63517D01*
X63570Y38359D01*
X63625Y38346D01*
X63793Y38451D01*
X63976Y38527D01*
X63998Y38580D01*
X64046Y38610D01*
X64153Y38761D01*
X64176Y38859D01*
X64241Y38935D01*
X64356Y39285D01*
X64353Y39326D01*
X64376Y39360D01*
X64334Y39568D01*
X64318Y39780D01*
X64287Y39807D01*
X64279Y39847D01*
X64062Y40172D01*
X63988Y40543D01*
X64062Y40914D01*
X64244Y41187D01*
X64270Y41317D01*
X64343Y41429D01*
X64406Y41771D01*
X64381Y41890D01*
X64406Y42008D01*
X64343Y42350D01*
X64270Y42462D01*
X64244Y42592D01*
X64062Y42865D01*
X63988Y43236D01*
X64062Y43607D01*
X64272Y43922D01*
X64586Y44132D01*
X64957Y44205D01*
X65328Y44132D01*
X65642Y43922D01*
X65853Y43607D01*
X65926Y43236D01*
X65853Y42865D01*
X65670Y42592D01*
X65644Y42462D01*
X65572Y42350D01*
X65508Y42008D01*
X65533Y41890D01*
X65508Y41771D01*
X65572Y41429D01*
X65644Y41317D01*
X65670Y41187D01*
X65853Y40914D01*
X65926Y40543D01*
X65853Y40172D01*
X65636Y39847D01*
X65628Y39807D01*
X65596Y39780D01*
X65580Y39568D01*
X65539Y39360D01*
X65562Y39326D01*
X65559Y39285D01*
X65673Y38935D01*
X65738Y38859D01*
X65761Y38761D01*
X65868Y38610D01*
X65916Y38580D01*
X65938Y38527D01*
X66121Y38451D01*
X66289Y38346D01*
X66345Y38359D01*
X66397Y38337D01*
X102976Y38337D01*
X103123Y38398D01*
X103282Y38414D01*
X103344Y38490D01*
X103435Y38527D01*
X103496Y38675D01*
X103597Y38798D01*
X103696Y39123D01*
X104218D01*
X104317Y38798D01*
X104418Y38675D01*
X104479Y38527D01*
X104570Y38490D01*
X104632Y38414D01*
X104791Y38398D01*
X104939Y38337D01*
X115426D01*
X115574Y38398D01*
X115732Y38414D01*
X115795Y38490D01*
X115885Y38527D01*
X115946Y38675D01*
X116048Y38798D01*
X116199Y39298D01*
X116184Y39457D01*
X116215Y39613D01*
X116160Y39695D01*
X116151Y39793D01*
X116027Y39894D01*
X115939Y40027D01*
X115872Y40071D01*
X115662Y40386D01*
X115588Y40756D01*
X115662Y41127D01*
X115944Y41549D01*
X115981Y41735D01*
X116053Y41910D01*
Y42321D01*
X115981Y42496D01*
X115944Y42682D01*
X115662Y43104D01*
X115588Y43475D01*
X115662Y43846D01*
X115872Y44160D01*
X116186Y44370D01*
X116557Y44444D01*
X116928Y44370D01*
X117243Y44160D01*
X117453Y43846D01*
X117526Y43475D01*
X117453Y43104D01*
X117171Y42682D01*
X117134Y42496D01*
X117061Y42321D01*
Y41910D01*
X117134Y41735D01*
X117171Y41549D01*
X117453Y41127D01*
X117526Y40756D01*
X117453Y40386D01*
X117243Y40071D01*
X117176Y40027D01*
X117087Y39894D01*
X116964Y39793D01*
X116954Y39695D01*
X116900Y39613D01*
X116931Y39457D01*
X116915Y39298D01*
X117067Y38798D01*
X117168Y38675D01*
X117229Y38527D01*
X117320Y38490D01*
X117382Y38414D01*
X117541Y38398D01*
X117688Y38337D01*
X126759D01*
X127461Y37636D01*
X127492Y37623D01*
X127508Y37593D01*
X127717Y37530D01*
X127920Y37446D01*
X127951Y37459D01*
X127983Y37449D01*
X128149Y37465D01*
X128290Y37540D01*
X128446Y37571D01*
X129000Y37942D01*
X129527Y38047D01*
X130054Y37942D01*
X130501Y37643D01*
X130800Y37196D01*
X130904Y36670D01*
X130800Y36143D01*
X130429Y35588D01*
X130398Y35432D01*
X130323Y35291D01*
X130307Y35125D01*
X130316Y35093D01*
X130304Y35062D01*
X130387Y34859D01*
X130451Y34650D01*
X130481Y34634D01*
X130494Y34603D01*
X142361Y22736D01*
Y-24538D01*
X142551Y-24997D01*
X143346Y-25793D01*
X143805Y-25983D01*
X147625D01*
X147800Y-25910D01*
X147986Y-25873D01*
X148298Y-25665D01*
X148669Y-25591D01*
X149040Y-25665D01*
X149353Y-25873D01*
X149539Y-25910D01*
X149714Y-25983D01*
X153709D01*
X153884Y-25910D01*
X154069Y-25873D01*
X154382Y-25665D01*
X154753Y-25591D01*
X155124Y-25665D01*
X155436Y-25873D01*
X155622Y-25910D01*
X155797Y-25983D01*
X158819D01*
X158994Y-25910D01*
X159180Y-25873D01*
X159492Y-25665D01*
X159863Y-25591D01*
X160234Y-25665D01*
X160547Y-25873D01*
X160732Y-25910D01*
X160907Y-25983D01*
X174924D01*
X175383Y-25793D01*
X176560Y-24617D01*
X176750Y-24157D01*
Y-21972D01*
X177250Y-21838D01*
X177551Y-22359D01*
X178212Y-23020D01*
X179022Y-23488D01*
X179926Y-23730D01*
X180861D01*
X181765Y-23488D01*
X182575Y-23020D01*
X183237Y-22359D01*
X183705Y-21549D01*
X183947Y-20645D01*
Y-19710D01*
X183705Y-18806D01*
X183237Y-17996D01*
X182575Y-17334D01*
X181765Y-16866D01*
X180861Y-16624D01*
X179926D01*
X179022Y-16866D01*
X178212Y-17334D01*
X177551Y-17996D01*
X177250Y-18517D01*
X176750Y-18383D01*
Y-8192D01*
X177250Y-8058D01*
X177551Y-8579D01*
X178212Y-9240D01*
X179022Y-9708D01*
X179926Y-9950D01*
X180861D01*
X181765Y-9708D01*
X182575Y-9240D01*
X183237Y-8579D01*
X183705Y-7769D01*
X183947Y-6865D01*
Y-5929D01*
X183705Y-5026D01*
X183237Y-4216D01*
X182575Y-3554D01*
X181765Y-3086D01*
X180861Y-2844D01*
X179926D01*
X179022Y-3086D01*
X178212Y-3554D01*
X177551Y-4216D01*
X177250Y-4737D01*
X176750Y-4603D01*
Y-883D01*
Y2053D01*
X176560Y2512D01*
X152931Y26140D01*
Y29319D01*
X152858Y29494D01*
X152822Y29679D01*
X152622Y29978D01*
X152548Y30349D01*
X152622Y30720D01*
X152822Y31019D01*
X152858Y31205D01*
X152931Y31380D01*
Y31652D01*
X153393Y31843D01*
X163752Y21484D01*
X164281Y21131D01*
X164906Y21007D01*
X200690D01*
X201314Y21131D01*
X201843Y21484D01*
X211311Y30952D01*
X211386Y31065D01*
X212076Y31754D01*
X212540D01*
X212698Y31786D01*
X212858D01*
X213007Y31847D01*
X213164Y31879D01*
X213298Y31968D01*
X213446Y32029D01*
X213560Y32143D01*
X213693Y32232D01*
X213783Y32366D01*
X213896Y32480D01*
X213958Y32628D01*
X214047Y32761D01*
X214078Y32919D01*
X214140Y33068D01*
Y33228D01*
X214171Y33386D01*
X214140Y33543D01*
Y33704D01*
X214078Y33852D01*
X214047Y34010D01*
X213958Y34144D01*
X213896Y34292D01*
X213783Y34406D01*
X213693Y34539D01*
X213560Y34629D01*
X213446Y34742D01*
X213298Y34804D01*
X213164Y34893D01*
X213007Y34924D01*
X212858Y34986D01*
X212698D01*
X212540Y35017D01*
X211400D01*
X210776Y34893D01*
X210247Y34539D01*
X209004Y33297D01*
X208929Y33184D01*
X200014Y24269D01*
X165581D01*
X153913Y35938D01*
Y88598D01*
X153789Y89222D01*
X153435Y89752D01*
X123713Y119474D01*
X123184Y119827D01*
X122559Y119951D01*
D02*
G37*
G36*
X149590Y127273D02*
X148171Y127137D01*
X146796Y126767D01*
X145501Y126172D01*
X144324Y125371D01*
X143297Y124383D01*
X142449Y123239D01*
X142126Y122604D01*
Y117364D01*
X145172Y107158D01*
X172631Y79699D01*
X176632Y76788D01*
X194425D01*
X194425Y76788D01*
X194425Y76788D01*
X195180Y77117D01*
X196535Y78053D01*
X197686Y79232D01*
X198588Y80610D01*
X199209Y82135D01*
X199526Y83751D01*
X199526Y85398D01*
X199209Y87015D01*
X198588Y88540D01*
X197686Y89918D01*
X196536Y91097D01*
X195180Y92032D01*
X194425Y92361D01*
X186153Y92361D01*
X178572Y95501D01*
X158308Y115766D01*
X156386Y120407D01*
X156385Y123968D01*
X156385Y123968D01*
X155948Y124530D01*
X154898Y125494D01*
X153702Y126268D01*
X152394Y126832D01*
X151011Y127170D01*
X149590Y127273D01*
D02*
G37*
G36*
X11082Y56686D02*
X10445D01*
X9857Y56442D01*
X9407Y55992D01*
X9164Y55404D01*
Y54768D01*
X9407Y54179D01*
X9857Y53729D01*
X10445Y53486D01*
X11082D01*
X11670Y53729D01*
X11831Y53891D01*
X12234Y53641D01*
X12262Y53614D01*
Y52987D01*
X12506Y52399D01*
X12956Y51949D01*
X13544Y51706D01*
X14180D01*
X14428Y51808D01*
X14711Y51384D01*
X14405Y51079D01*
X14162Y50490D01*
Y49854D01*
X14405Y49266D01*
X14856Y48816D01*
X15444Y48572D01*
X16080D01*
X16668Y48816D01*
X17118Y49266D01*
X17362Y49854D01*
Y50490D01*
X17118Y51079D01*
X16668Y51529D01*
X16080Y51772D01*
X15444D01*
X15196Y51670D01*
X14913Y52093D01*
X15218Y52399D01*
X15462Y52987D01*
Y53624D01*
X15218Y54212D01*
X14768Y54662D01*
X14180Y54906D01*
X13544D01*
X12956Y54662D01*
X12794Y54501D01*
X12392Y54750D01*
X12364Y54777D01*
Y55404D01*
X12120Y55992D01*
X11670Y56442D01*
X11082Y56686D01*
D02*
G37*
G36*
X231598Y78096D02*
X231105Y77998D01*
X230640Y77806D01*
X230222Y77526D01*
X229866Y77171D01*
X229587Y76753D01*
X229394Y76288D01*
X229296Y75795D01*
Y75543D01*
X229272Y75053D01*
X229081Y74092D01*
X228706Y73186D01*
X228161Y72371D01*
X227468Y71678D01*
X226653Y71134D01*
X225748Y70758D01*
X224786Y70567D01*
X224296Y70543D01*
X222539D01*
Y70543D01*
X162139Y70543D01*
X161567Y69817D01*
X160700Y68187D01*
X160136Y66428D01*
X159894Y64598D01*
X159980Y62753D01*
X160392Y60953D01*
X161118Y59254D01*
X162133Y57712D01*
X162770Y57043D01*
X222539Y57043D01*
Y57043D01*
X223806D01*
X224296Y57019D01*
X225257Y56828D01*
X226163Y56453D01*
X226978Y55908D01*
X227671Y55215D01*
X228215Y54400D01*
X228590Y53495D01*
X228782Y52533D01*
X228806Y52043D01*
X228806Y51573D01*
X228806Y51573D01*
X228806Y51277D01*
X228921Y50697D01*
X229148Y50150D01*
X229476Y49658D01*
X229895Y49240D01*
X230387Y48911D01*
X230934Y48684D01*
X231514Y48569D01*
X231810Y48569D01*
X238388D01*
X238759Y48569D01*
X239489Y48714D01*
X240175Y48998D01*
X240793Y49411D01*
X241319Y49937D01*
X241732Y50555D01*
X242017Y51242D01*
X242161Y51971D01*
X242161Y52343D01*
X242161Y75254D01*
X242161Y75254D01*
X242161Y75254D01*
X242161Y75255D01*
X242161Y75534D01*
X242125Y75720D01*
X242052Y76083D01*
X241838Y76600D01*
X241527Y77066D01*
X241131Y77462D01*
X240666Y77773D01*
X240148Y77987D01*
X239599Y78096D01*
X239319Y78096D01*
X231598Y78096D01*
D02*
G37*
G36*
X200359Y48335D02*
X199685D01*
X162588Y48334D01*
X162037Y47952D01*
X161071Y47022D01*
X160266Y45948D01*
X159643Y44760D01*
X159219Y43487D01*
X159004Y42163D01*
X159004Y40821D01*
X159219Y39497D01*
X159643Y38224D01*
X160266Y37036D01*
X161071Y35962D01*
X162037Y35031D01*
X162588Y34649D01*
X199685Y34649D01*
X199685Y34649D01*
X199685Y34649D01*
X200359Y34649D01*
X201681Y34912D01*
X202926Y35428D01*
X204047Y36177D01*
X205000Y37130D01*
X205749Y38251D01*
X206264Y39496D01*
X206527Y40818D01*
X206527Y42166D01*
X206264Y43488D01*
X205749Y44733D01*
X205000Y45854D01*
X204047Y46807D01*
X202926Y47556D01*
X201681Y48072D01*
X200359Y48335D01*
D02*
G37*
G36*
X176984Y20249D02*
X176347D01*
X175759Y20006D01*
X175374Y19621D01*
X174988Y20006D01*
X174400Y20249D01*
X173764D01*
X173176Y20006D01*
X172726Y19556D01*
X172482Y18968D01*
Y18331D01*
X172726Y17743D01*
X173176Y17293D01*
X173764Y17050D01*
X174400D01*
X174988Y17293D01*
X175374Y17678D01*
X175759Y17293D01*
X176347Y17050D01*
X176984D01*
X177572Y17293D01*
X178022Y17743D01*
X178265Y18331D01*
Y18968D01*
X178022Y19556D01*
X177572Y20006D01*
X176984Y20249D01*
D02*
G37*
G36*
X-19463Y19988D02*
X-20226D01*
X-20931Y19696D01*
X-21471Y19157D01*
X-21763Y18451D01*
Y17688D01*
X-21471Y16983D01*
X-20931Y16443D01*
X-20226Y16151D01*
X-19463D01*
X-18757Y16443D01*
X-18218Y16983D01*
X-17925Y17688D01*
Y18451D01*
X-18218Y19157D01*
X-18757Y19696D01*
X-19463Y19988D01*
D02*
G37*
G36*
X-11264Y19374D02*
X-11901D01*
X-12489Y19130D01*
X-12939Y18680D01*
X-13182Y18092D01*
Y17456D01*
X-12939Y16868D01*
X-12489Y16417D01*
X-11901Y16174D01*
X-11264D01*
X-10920Y15775D01*
X-10927Y15759D01*
Y15123D01*
X-10684Y14534D01*
X-10233Y14084D01*
X-9645Y13841D01*
X-9009D01*
X-8421Y14084D01*
X-7971Y14534D01*
X-7727Y15123D01*
Y15759D01*
X-7971Y16347D01*
X-8421Y16797D01*
X-9009Y17041D01*
X-9645D01*
X-9989Y17439D01*
X-9982Y17456D01*
Y18092D01*
X-10226Y18680D01*
X-10676Y19130D01*
X-11264Y19374D01*
D02*
G37*
G36*
X-20307Y12438D02*
X-20944D01*
X-21532Y12195D01*
X-21982Y11745D01*
X-22226Y11157D01*
Y10520D01*
X-21982Y9932D01*
X-21532Y9482D01*
X-20944Y9239D01*
X-20307D01*
X-19719Y9482D01*
X-19269Y9932D01*
X-19026Y10520D01*
Y11157D01*
X-19269Y11745D01*
X-19719Y12195D01*
X-20307Y12438D01*
D02*
G37*
G36*
X-7709Y9729D02*
X-8345D01*
X-8933Y9485D01*
X-9384Y9035D01*
X-9627Y8447D01*
Y7811D01*
X-9384Y7222D01*
X-8933Y6772D01*
X-8345Y6529D01*
X-7709D01*
X-7121Y6772D01*
X-6671Y7222D01*
X-6427Y7811D01*
Y8447D01*
X-6671Y9035D01*
X-7121Y9485D01*
X-7709Y9729D01*
D02*
G37*
G36*
X6667Y-10218D02*
X6030D01*
X5442Y-10461D01*
X4992Y-10911D01*
X4748Y-11500D01*
Y-12136D01*
X4992Y-12724D01*
X5441Y-13173D01*
X5057Y-13558D01*
X4671Y-13172D01*
X4083Y-12929D01*
X3447D01*
X2859Y-13172D01*
X2409Y-13623D01*
X2165Y-14211D01*
Y-14847D01*
X2409Y-15435D01*
X2836Y-15862D01*
X2409Y-16289D01*
X2165Y-16877D01*
Y-17514D01*
X2409Y-18102D01*
X2859Y-18552D01*
X3447Y-18796D01*
X4083D01*
X4671Y-18552D01*
X5057Y-18167D01*
X5442Y-18552D01*
X6030Y-18796D01*
X6667D01*
X7255Y-18552D01*
X7640Y-18167D01*
X8025Y-18552D01*
X8613Y-18796D01*
X9250D01*
X9838Y-18552D01*
X10288Y-18102D01*
X10532Y-17514D01*
Y-16877D01*
X10288Y-16289D01*
X9838Y-15839D01*
X9977Y-15587D01*
X10016Y-15548D01*
X10259Y-14960D01*
Y-14323D01*
X10016Y-13735D01*
X9566Y-13285D01*
X8978Y-13041D01*
X8341D01*
X7920Y-13216D01*
X7637Y-12792D01*
X7705Y-12724D01*
X7948Y-12136D01*
Y-11500D01*
X7705Y-10911D01*
X7255Y-10461D01*
X6667Y-10218D01*
D02*
G37*
%LPD*%
G36*
X128224Y84331D02*
X127950Y83921D01*
X127826Y83297D01*
X127950Y82673D01*
X128304Y82143D01*
X128833Y81790D01*
X129457Y81666D01*
X130081Y81790D01*
X130492Y82064D01*
X150650Y61905D01*
Y35262D01*
X150774Y34637D01*
X151128Y34108D01*
X152281Y32955D01*
Y31380D01*
X152010Y30974D01*
X151886Y30349D01*
X152010Y29725D01*
X152281Y29319D01*
Y25872D01*
X176100Y2053D01*
Y-883D01*
Y-24157D01*
X174924Y-25333D01*
X160907D01*
X160487Y-25053D01*
X159863Y-24929D01*
X159239Y-25053D01*
X158819Y-25333D01*
X155797D01*
X155377Y-25053D01*
X154753Y-24929D01*
X154129Y-25053D01*
X153709Y-25333D01*
X149714D01*
X149294Y-25053D01*
X148669Y-24929D01*
X148045Y-25053D01*
X147625Y-25333D01*
X143805D01*
X143010Y-24538D01*
Y23005D01*
X130953Y35062D01*
X130969Y35228D01*
X131411Y35889D01*
X131567Y36670D01*
X131411Y37450D01*
X130969Y38111D01*
X130308Y38554D01*
X129527Y38709D01*
X128747Y38554D01*
X128085Y38111D01*
X127920Y38095D01*
X127028Y38987D01*
X117688D01*
X117537Y39487D01*
X117711Y39603D01*
X118064Y40132D01*
X118189Y40756D01*
X118064Y41381D01*
X117711Y41910D01*
Y42321D01*
X118064Y42851D01*
X118189Y43475D01*
X118064Y44099D01*
X117711Y44629D01*
X117182Y44982D01*
X116557Y45106D01*
X115933Y44982D01*
X115404Y44629D01*
X115050Y44099D01*
X114926Y43475D01*
X115050Y42851D01*
X115404Y42321D01*
Y41910D01*
X115050Y41381D01*
X114926Y40756D01*
X115050Y40132D01*
X115404Y39603D01*
X115578Y39487D01*
X115426Y38987D01*
X104939D01*
X104787Y39487D01*
X105111Y39703D01*
X105464Y40232D01*
X105588Y40857D01*
X105464Y41481D01*
X105111Y42010D01*
Y42421D01*
X105464Y42951D01*
X105588Y43575D01*
X105464Y44199D01*
X105111Y44728D01*
X104581Y45082D01*
X103957Y45206D01*
X103333Y45082D01*
X102804Y44728D01*
X102450Y44199D01*
X102326Y43575D01*
X102450Y42951D01*
X102804Y42421D01*
Y42010D01*
X102450Y41481D01*
X102326Y40857D01*
X102450Y40232D01*
X102804Y39703D01*
X103128Y39487D01*
X102976Y38987D01*
X66397Y38987D01*
X66290Y39137D01*
X66176Y39487D01*
X66464Y39919D01*
X66588Y40543D01*
X66464Y41167D01*
X66210Y41548D01*
X66147Y41890D01*
X66210Y42231D01*
X66464Y42612D01*
X66588Y43236D01*
X66464Y43861D01*
X66111Y44390D01*
X65582Y44743D01*
X64957Y44868D01*
X64333Y44743D01*
X63804Y44390D01*
X63450Y43861D01*
X63326Y43236D01*
X63450Y42612D01*
X63704Y42231D01*
X63768Y41890D01*
X63704Y41548D01*
X63450Y41167D01*
X63326Y40543D01*
X63450Y39919D01*
X63739Y39487D01*
X63624Y39137D01*
X63517Y38987D01*
X33681D01*
X33364Y39373D01*
X33398Y39543D01*
X33274Y40167D01*
X32920Y40696D01*
X32391Y41050D01*
X31767Y41174D01*
X31142Y41050D01*
X30748Y40786D01*
X6906Y64628D01*
X-2052D01*
X-2238Y64706D01*
X-11172D01*
X-11296Y65328D01*
X-11650Y65857D01*
X-12179Y66211D01*
X-12803Y66335D01*
X-13428Y66211D01*
X-13957Y65857D01*
X-14117Y65617D01*
X-14464Y65548D01*
X-14828Y65305D01*
X-14828Y65305D01*
X-15427Y64706D01*
X-17380D01*
X-17502Y64787D01*
X-18126Y64911D01*
X-18325Y64872D01*
X-20930Y67477D01*
X-20930Y71816D01*
X-20036Y72710D01*
X-19557Y72565D01*
X-19544Y72498D01*
X-19190Y71969D01*
X-18661Y71615D01*
X-18037Y71491D01*
X-17413Y71615D01*
X-16883Y71969D01*
X-16530Y72498D01*
X-16406Y73122D01*
X-16530Y73747D01*
X-16883Y74276D01*
X-17215Y74498D01*
X-17179Y75054D01*
X-15803Y75624D01*
X-15311Y75287D01*
X-15231Y74884D01*
X-14877Y74355D01*
X-14348Y74001D01*
X-13723Y73877D01*
X-13099Y74001D01*
X-12570Y74355D01*
X-12216Y74884D01*
X-12092Y75509D01*
X-12216Y76133D01*
X-11832Y76231D01*
X-11775Y76243D01*
X-11774Y76244D01*
X-11245Y76597D01*
X-10892Y77126D01*
X-10776Y77706D01*
X1280Y82700D01*
X1695Y82422D01*
Y72846D01*
X1820Y72221D01*
X2173Y71692D01*
X2702Y71338D01*
X3327Y71214D01*
X3951Y71338D01*
X4480Y71692D01*
X4834Y72221D01*
X4958Y72846D01*
Y83267D01*
X5458Y83534D01*
X5590Y83447D01*
X6214Y83322D01*
X6838Y83447D01*
X7368Y83800D01*
X7721Y84329D01*
X7846Y84954D01*
X7760Y85384D01*
X8851Y85836D01*
X63426D01*
X63550Y85212D01*
X63904Y84683D01*
Y84296D01*
X63550Y83767D01*
X63426Y83143D01*
X63550Y82519D01*
X63904Y81989D01*
X64028Y81906D01*
Y81406D01*
X63904Y81323D01*
X63550Y80794D01*
X63426Y80170D01*
X63550Y79545D01*
X63904Y79016D01*
X64433Y78662D01*
X65057Y78538D01*
X65681Y78662D01*
X66211Y79016D01*
X66564Y79545D01*
X66689Y80170D01*
X66564Y80794D01*
X66211Y81323D01*
X66086Y81406D01*
Y81906D01*
X66211Y81989D01*
X66564Y82519D01*
X66689Y83143D01*
X66564Y83767D01*
X66211Y84296D01*
Y84683D01*
X66564Y85212D01*
X66689Y85836D01*
X75948D01*
X76183Y85395D01*
X76150Y85345D01*
X76026Y84721D01*
X76150Y84097D01*
X76504Y83568D01*
X77033Y83214D01*
X77657Y83090D01*
X78281Y83214D01*
X78811Y83568D01*
X79164Y84097D01*
X79289Y84721D01*
X79164Y85345D01*
X79131Y85395D01*
X79367Y85836D01*
X88947D01*
X89214Y85336D01*
X89150Y85240D01*
X89026Y84615D01*
X89150Y83991D01*
X89504Y83462D01*
X90033Y83108D01*
X90657Y82984D01*
X91281Y83108D01*
X91811Y83462D01*
X92164Y83991D01*
X92289Y84615D01*
X92164Y85240D01*
X92100Y85336D01*
X92367Y85836D01*
X102494D01*
X102546Y85774D01*
X102715Y85336D01*
X102450Y84940D01*
X102326Y84315D01*
X102450Y83691D01*
X102804Y83162D01*
X103333Y82808D01*
X103957Y82684D01*
X104581Y82808D01*
X105111Y83162D01*
X105464Y83691D01*
X105588Y84315D01*
X105464Y84940D01*
X105199Y85336D01*
X105369Y85774D01*
X105421Y85836D01*
X115203D01*
X115356Y85481D01*
X115388Y85345D01*
X115050Y84840D01*
X114926Y84215D01*
X115050Y83591D01*
X115404Y83062D01*
X115933Y82708D01*
X116557Y82584D01*
X117182Y82708D01*
X117711Y83062D01*
X118064Y83591D01*
X118189Y84215D01*
X118064Y84840D01*
X117727Y85345D01*
X117759Y85481D01*
X117911Y85836D01*
X126719D01*
X128224Y84331D01*
D02*
G37*
G36*
X150650Y87922D02*
Y81132D01*
X150150Y80798D01*
X150000Y80860D01*
X149363D01*
X148775Y80616D01*
X148325Y80166D01*
X148082Y79578D01*
Y78942D01*
X148325Y78354D01*
X148578Y78101D01*
X148719Y77774D01*
X148578Y77448D01*
X148325Y77195D01*
X148082Y76607D01*
Y75971D01*
X148325Y75382D01*
X148775Y74932D01*
X149363Y74689D01*
X150000D01*
X150150Y74751D01*
X150650Y74417D01*
Y63477D01*
X150188Y63286D01*
X130951Y82523D01*
X130776Y82595D01*
X130618Y82701D01*
X130553Y82688D01*
X130492Y82713D01*
X130317Y82641D01*
X130131Y82604D01*
X129828Y82402D01*
X129457Y82328D01*
X129086Y82402D01*
X128772Y82612D01*
X128562Y82926D01*
X128488Y83297D01*
X128562Y83668D01*
X128764Y83971D01*
X128801Y84156D01*
X128874Y84331D01*
X128848Y84393D01*
X128861Y84458D01*
X128756Y84616D01*
X128683Y84791D01*
X127178Y86295D01*
X126719Y86486D01*
X117911D01*
X117796Y86438D01*
X117671Y86439D01*
X117575Y86346D01*
X117452Y86295D01*
X117404Y86180D01*
X117315Y86092D01*
X117162Y85737D01*
X117161Y85678D01*
X117127Y85630D01*
X117095Y85495D01*
X117097Y85482D01*
X117090Y85472D01*
X117136Y85239D01*
X117174Y85004D01*
X117184Y84997D01*
X117187Y84984D01*
X117453Y84586D01*
X117526Y84215D01*
X117453Y83845D01*
X117243Y83530D01*
X116928Y83320D01*
X116557Y83246D01*
X116186Y83320D01*
X115872Y83530D01*
X115662Y83845D01*
X115588Y84215D01*
X115662Y84586D01*
X115928Y84984D01*
X115930Y84997D01*
X115940Y85004D01*
X115978Y85239D01*
X116025Y85472D01*
X116018Y85482D01*
X116020Y85495D01*
X115988Y85630D01*
X115953Y85678D01*
X115952Y85737D01*
X115800Y86092D01*
X115710Y86180D01*
X115662Y86295D01*
X115539Y86346D01*
X115444Y86439D01*
X115319Y86438D01*
X115203Y86486D01*
X105421D01*
X105394Y86475D01*
X105366Y86483D01*
X105168Y86381D01*
X105139Y86369D01*
X105106Y86368D01*
X105085Y86347D01*
X104962Y86295D01*
X104950Y86269D01*
X104925Y86255D01*
X104872Y86193D01*
X104839Y86088D01*
X104763Y86008D01*
X104594Y85570D01*
X104595Y85512D01*
X104562Y85463D01*
X104601Y85270D01*
X104606Y85073D01*
X104648Y85033D01*
X104659Y84975D01*
X104853Y84686D01*
X104926Y84315D01*
X104853Y83944D01*
X104642Y83630D01*
X104328Y83420D01*
X103957Y83346D01*
X103586Y83420D01*
X103272Y83630D01*
X103062Y83944D01*
X102988Y84315D01*
X103062Y84686D01*
X103255Y84975D01*
X103266Y85033D01*
X103309Y85073D01*
X103314Y85270D01*
X103352Y85463D01*
X103319Y85512D01*
X103321Y85570D01*
X103152Y86008D01*
X103076Y86088D01*
X103042Y86193D01*
X102990Y86255D01*
X102964Y86269D01*
X102953Y86295D01*
X102829Y86347D01*
X102809Y86368D01*
X102775Y86369D01*
X102746Y86381D01*
X102548Y86483D01*
X102520Y86475D01*
X102494Y86486D01*
X92367D01*
X92276Y86448D01*
X92179Y86458D01*
X92055Y86357D01*
X91908Y86295D01*
X91870Y86205D01*
X91794Y86142D01*
X91527Y85642D01*
X91518Y85545D01*
X91463Y85463D01*
X91494Y85307D01*
X91478Y85148D01*
X91534Y85080D01*
X91626Y84615D01*
X91553Y84245D01*
X91343Y83930D01*
X91028Y83720D01*
X90657Y83646D01*
X90286Y83720D01*
X89972Y83930D01*
X89762Y84245D01*
X89688Y84615D01*
X89780Y85080D01*
X89836Y85148D01*
X89820Y85307D01*
X89851Y85463D01*
X89797Y85545D01*
X89787Y85642D01*
X89520Y86142D01*
X89444Y86205D01*
X89407Y86295D01*
X89259Y86357D01*
X89136Y86458D01*
X89038Y86448D01*
X88947Y86486D01*
X79367D01*
X79276Y86448D01*
X79178Y86458D01*
X79055Y86357D01*
X78908Y86295D01*
X78870Y86205D01*
X78794Y86142D01*
X78558Y85701D01*
X78549Y85604D01*
X78494Y85522D01*
X78525Y85365D01*
X78509Y85207D01*
X78536Y85174D01*
X78626Y84721D01*
X78553Y84350D01*
X78342Y84036D01*
X78028Y83826D01*
X77657Y83752D01*
X77286Y83826D01*
X76972Y84036D01*
X76762Y84350D01*
X76688Y84721D01*
X76778Y85174D01*
X76805Y85207D01*
X76789Y85365D01*
X76820Y85522D01*
X76766Y85604D01*
X76756Y85701D01*
X76520Y86142D01*
X76445Y86205D01*
X76407Y86295D01*
X76259Y86357D01*
X76136Y86458D01*
X76038Y86448D01*
X75948Y86486D01*
X66689D01*
X66514Y86413D01*
X66328Y86376D01*
X66291Y86321D01*
X66229Y86295D01*
X66157Y86120D01*
X66052Y85963D01*
X65953Y85465D01*
X65671Y85044D01*
X65634Y84858D01*
X65561Y84683D01*
Y84296D01*
X65634Y84121D01*
X65671Y83936D01*
X65953Y83514D01*
X66026Y83143D01*
X65953Y82772D01*
X65742Y82458D01*
X65725Y82446D01*
X65689Y82391D01*
X65627Y82365D01*
X65555Y82190D01*
X65449Y82033D01*
X65462Y81968D01*
X65437Y81906D01*
Y81406D01*
X65462Y81345D01*
X65449Y81279D01*
X65555Y81122D01*
X65627Y80947D01*
X65689Y80922D01*
X65725Y80866D01*
X65742Y80855D01*
X65953Y80541D01*
X66026Y80170D01*
X65953Y79799D01*
X65742Y79484D01*
X65428Y79274D01*
X65057Y79200D01*
X64686Y79274D01*
X64372Y79484D01*
X64162Y79799D01*
X64088Y80170D01*
X64162Y80541D01*
X64372Y80855D01*
X64389Y80866D01*
X64426Y80922D01*
X64487Y80947D01*
X64560Y81122D01*
X64665Y81279D01*
X64652Y81345D01*
X64678Y81406D01*
Y81906D01*
X64652Y81968D01*
X64665Y82033D01*
X64560Y82190D01*
X64487Y82365D01*
X64426Y82391D01*
X64389Y82446D01*
X64372Y82458D01*
X64162Y82772D01*
X64088Y83143D01*
X64162Y83514D01*
X64444Y83936D01*
X64481Y84121D01*
X64553Y84296D01*
Y84683D01*
X64481Y84858D01*
X64444Y85044D01*
X64162Y85465D01*
X64063Y85963D01*
X63958Y86120D01*
X63885Y86295D01*
X63824Y86321D01*
X63787Y86376D01*
X63601Y86413D01*
X63426Y86486D01*
X58729D01*
Y94170D01*
X70857Y106298D01*
X71156Y106744D01*
X71260Y107271D01*
Y113110D01*
X71484Y113649D01*
Y114286D01*
X71240Y114874D01*
X70790Y115324D01*
X70202Y115568D01*
X69566D01*
X68978Y115324D01*
X68528Y114874D01*
X68284Y114286D01*
Y113649D01*
X68320Y113562D01*
X68099Y113333D01*
X67917Y113229D01*
X67387Y113449D01*
X66751D01*
X66163Y113205D01*
X65712Y112755D01*
X65469Y112167D01*
Y111530D01*
X65712Y110942D01*
X66163Y110492D01*
X66751Y110249D01*
X67387D01*
X67975Y110492D01*
X68007Y110525D01*
X68507Y110318D01*
Y107841D01*
X56379Y95713D01*
X56081Y95267D01*
X55976Y94740D01*
Y86486D01*
X8851D01*
X8732Y86436D01*
X8603D01*
X7511Y85984D01*
X7377Y85850D01*
X7220Y85745D01*
X7207Y85680D01*
X7160Y85633D01*
Y85443D01*
X7123Y85258D01*
X7183Y84954D01*
X7110Y84583D01*
X6899Y84268D01*
X6585Y84058D01*
X6214Y83985D01*
X5843Y84058D01*
X5819Y84074D01*
X5723Y84094D01*
X5647Y84156D01*
X5488Y84140D01*
X5331Y84171D01*
X4989Y84483D01*
X4958Y84527D01*
Y85185D01*
X19609Y99836D01*
X27242D01*
X27576Y99336D01*
X27514Y99186D01*
Y98549D01*
X27757Y97961D01*
X28208Y97511D01*
X28796Y97268D01*
X29432D01*
X30020Y97511D01*
X30470Y97961D01*
X30714Y98549D01*
Y99186D01*
X30652Y99336D01*
X30986Y99836D01*
X33094D01*
X33719Y99960D01*
X34248Y100314D01*
X50623Y116689D01*
X121884D01*
X150650Y87922D01*
D02*
G37*
G36*
X-1615Y63433D02*
X-1861Y62972D01*
X-2018Y63003D01*
X-2642Y62879D01*
X-3172Y62525D01*
X-3525Y61996D01*
X-3649Y61372D01*
X-3525Y60748D01*
X-3172Y60218D01*
X-2642Y59865D01*
X-2018Y59741D01*
X-1908Y59762D01*
X-1483Y59337D01*
X-1508Y59211D01*
X-1446Y58898D01*
X-1658Y58473D01*
X-1819Y58406D01*
X-2301Y58310D01*
X-2831Y57956D01*
X-3184Y57427D01*
X-3308Y56803D01*
X-3184Y56178D01*
X-2831Y55649D01*
X-2765Y55606D01*
X-2738Y55484D01*
X-2799Y55027D01*
X-3187Y54768D01*
X-3541Y54238D01*
X-3665Y53614D01*
X-3541Y52990D01*
X-3187Y52461D01*
X-2658Y52107D01*
X-2034Y51983D01*
X-1410Y52107D01*
X-880Y52461D01*
X-527Y52990D01*
X-452Y53368D01*
X51Y53626D01*
X71Y53627D01*
X681Y53505D01*
X1306Y53629D01*
X1835Y53983D01*
X2189Y54512D01*
X2313Y55136D01*
X2189Y55761D01*
X1835Y56290D01*
X1306Y56644D01*
X681Y56768D01*
X442Y56720D01*
X190Y56763D01*
X46Y57079D01*
X263Y57603D01*
X266Y57608D01*
X747Y57704D01*
X1277Y58058D01*
X1630Y58587D01*
X1754Y59211D01*
X1719Y59392D01*
X2179Y59639D01*
X4992Y56826D01*
X4928Y56183D01*
X4739Y56056D01*
X4385Y55527D01*
X4261Y54903D01*
X4385Y54278D01*
X4739Y53749D01*
X5268Y53396D01*
X5892Y53271D01*
X6516Y53396D01*
X7046Y53749D01*
X7172Y53939D01*
X7816Y54002D01*
X9992Y51826D01*
X9858Y51253D01*
X9492Y51008D01*
X9138Y50478D01*
X9014Y49854D01*
X9138Y49230D01*
X9492Y48700D01*
X10021Y48347D01*
X10645Y48223D01*
X11270Y48347D01*
X11799Y48700D01*
X12044Y49067D01*
X12618Y49200D01*
X14768Y47050D01*
X29783Y32035D01*
X64427D01*
X64804Y31960D01*
X65181Y32035D01*
X102706Y32035D01*
X102716Y32021D01*
X102804Y31478D01*
X102450Y30949D01*
X102326Y30325D01*
X102450Y29700D01*
X102804Y29171D01*
Y28760D01*
X102450Y28231D01*
X102326Y27606D01*
X102450Y26982D01*
X102804Y26453D01*
X103333Y26099D01*
X103957Y25975D01*
X104581Y26099D01*
X105111Y26453D01*
X105464Y26982D01*
X105588Y27606D01*
X105464Y28231D01*
X105111Y28760D01*
Y29171D01*
X105464Y29700D01*
X105588Y30325D01*
X105464Y30949D01*
X105111Y31478D01*
Y31576D01*
X105550Y32035D01*
X115240D01*
X115316Y31921D01*
X115404Y31378D01*
X115050Y30849D01*
X114926Y30225D01*
X115050Y29601D01*
X115404Y29071D01*
Y28660D01*
X115050Y28131D01*
X114926Y27506D01*
X115050Y26882D01*
X115404Y26353D01*
X115933Y25999D01*
X116557Y25875D01*
X117182Y25999D01*
X117711Y26353D01*
X118064Y26882D01*
X118189Y27506D01*
X118064Y28131D01*
X117711Y28660D01*
Y29071D01*
X118064Y29601D01*
X118189Y30225D01*
X118064Y30849D01*
X117711Y31378D01*
Y31604D01*
X118109Y32035D01*
X124769D01*
X128305Y28469D01*
X128304Y28460D01*
X127950Y27931D01*
X127826Y27306D01*
X127950Y26682D01*
X128304Y26153D01*
Y25741D01*
X127950Y25212D01*
X127826Y24588D01*
X127950Y23964D01*
X128304Y23435D01*
X128833Y23081D01*
X129457Y22957D01*
X130081Y23081D01*
X130611Y23435D01*
X130964Y23964D01*
X131088Y24588D01*
X130998Y25042D01*
X131459Y25287D01*
X137480Y19214D01*
X137472Y18320D01*
X137472Y10073D01*
Y-5458D01*
X137265Y-5665D01*
X137201Y-13055D01*
X130481Y-19717D01*
X128043D01*
X127906Y-19581D01*
X127447Y-19390D01*
X122960D01*
X122785Y-19463D01*
X122599Y-19500D01*
X122477Y-19581D01*
X122107Y-19655D01*
X121812Y-19596D01*
X121791Y-19601D01*
X121771Y-19590D01*
X121550Y-19648D01*
X121325Y-19693D01*
X121312Y-19712D01*
X121291Y-19717D01*
X121133Y-19838D01*
X121092Y-19908D01*
X121021Y-19948D01*
X120947Y-20040D01*
X118750D01*
X118605Y-19749D01*
X118524Y-19679D01*
X118483Y-19581D01*
X118344Y-19523D01*
X118229Y-19424D01*
X118123Y-19431D01*
X118024Y-19390D01*
X89908D01*
X86536Y-16018D01*
Y-10763D01*
X87036Y-10617D01*
X87307Y-11022D01*
X87836Y-11376D01*
X88460Y-11500D01*
X89085Y-11376D01*
X89420Y-11152D01*
X89870Y-11453D01*
X89858Y-11512D01*
X89982Y-12136D01*
X90336Y-12665D01*
X90865Y-13019D01*
X91489Y-13143D01*
X92114Y-13019D01*
X92643Y-12665D01*
X92997Y-12136D01*
X93121Y-11512D01*
X93180Y-11444D01*
X93563Y-11173D01*
X94061Y-11272D01*
X94685Y-11147D01*
X94771Y-11090D01*
X95327Y-11321D01*
X95345Y-11415D01*
X95699Y-11944D01*
X96228Y-12298D01*
X96852Y-12422D01*
X97477Y-12298D01*
X98006Y-11944D01*
X98360Y-11415D01*
X98484Y-10791D01*
X98360Y-10166D01*
X98006Y-9637D01*
X97477Y-9284D01*
X96852Y-9159D01*
X96228Y-9284D01*
X96143Y-9341D01*
X95587Y-9111D01*
X95568Y-9016D01*
X95215Y-8487D01*
X94685Y-8133D01*
X94061Y-8009D01*
X93437Y-8133D01*
X92908Y-8487D01*
X92554Y-9016D01*
X92430Y-9640D01*
X92370Y-9709D01*
X91987Y-9980D01*
X91489Y-9881D01*
X90865Y-10005D01*
X90530Y-10229D01*
X90080Y-9928D01*
X90092Y-9869D01*
X89968Y-9245D01*
X89614Y-8715D01*
X89085Y-8362D01*
X88460Y-8238D01*
X87836Y-8362D01*
X87307Y-8715D01*
X87036Y-9121D01*
X86536Y-8975D01*
Y-2264D01*
X81635Y2637D01*
X81518Y3226D01*
X81164Y3756D01*
X80635Y4109D01*
X80046Y4226D01*
X77254Y7017D01*
X64425D01*
X64302Y7632D01*
X63949Y8161D01*
X63420Y8515D01*
X62795Y8639D01*
X62171Y8515D01*
X61642Y8161D01*
X61288Y7632D01*
X61166Y7017D01*
X51377D01*
X51303Y7392D01*
X50949Y7921D01*
X50420Y8275D01*
X49796Y8399D01*
X49172Y8275D01*
X48642Y7921D01*
X48289Y7392D01*
X48214Y7017D01*
X44704D01*
X44581Y7632D01*
X44228Y8161D01*
X43698Y8515D01*
X43074Y8639D01*
X42450Y8515D01*
X41921Y8161D01*
X41567Y7632D01*
X41445Y7017D01*
X11733D01*
X11457Y7072D01*
X11182Y7017D01*
X9875D01*
X-1007Y17900D01*
X-710Y18344D01*
X-586Y18969D01*
X-710Y19593D01*
X-1064Y20122D01*
X-1593Y20476D01*
X-2217Y20600D01*
X-2841Y20476D01*
X-3286Y20179D01*
X-12858Y29751D01*
X-14271Y31164D01*
X-14175Y31307D01*
X-14051Y31932D01*
X-14175Y32556D01*
X-14529Y33085D01*
X-15058Y33439D01*
X-15682Y33563D01*
X-16307Y33439D01*
X-16450Y33343D01*
X-17082Y33975D01*
X-16923Y34523D01*
X-16492Y34811D01*
X-16138Y35341D01*
X-16014Y35965D01*
X-16138Y36589D01*
X-16492Y37118D01*
X-17021Y37472D01*
X-17646Y37596D01*
X-18270Y37472D01*
X-18799Y37118D01*
X-19087Y36687D01*
X-19636Y36529D01*
X-22337Y39230D01*
Y61462D01*
X-19742Y64056D01*
X-2238D01*
X-1615Y63433D01*
D02*
G37*
G36*
X78654Y1696D02*
X79104Y1246D01*
X79692Y1002D01*
X80329D01*
X80917Y1246D01*
X81367Y1696D01*
X81610Y1744D01*
X85887Y-2533D01*
Y-8383D01*
X85387Y-8590D01*
X83149Y-6353D01*
X82690Y-6163D01*
X78187Y-6163D01*
X77728Y-6353D01*
X76284Y-7797D01*
X75822Y-7606D01*
Y-6792D01*
X75844Y-6775D01*
X76256Y-6238D01*
X76514Y-5613D01*
X76603Y-4943D01*
Y-612D01*
X76514Y59D01*
X76325Y516D01*
X76548Y925D01*
X76641Y1002D01*
X76994D01*
X77582Y1246D01*
X78032Y1696D01*
X78073Y1793D01*
X78614D01*
X78654Y1696D01*
D02*
G37*
G36*
X70908Y2755D02*
X75173Y-1538D01*
Y-19972D01*
X70999Y-24146D01*
X43459Y-24146D01*
X40271Y-20957D01*
Y150D01*
X43073Y2934D01*
X70908Y2755D01*
D02*
G37*
G36*
X82690Y-6812D02*
X85098Y-9220D01*
Y-17660D01*
X87479Y-20040D01*
X118024D01*
X118036Y-20064D01*
D01*
X118169Y-20330D01*
X118250Y-20400D01*
X118291Y-20499D01*
X118293Y-20507D01*
X118273Y-20537D01*
X118200Y-20904D01*
X118149Y-21162D01*
X118273Y-21786D01*
X118627Y-22315D01*
X119156Y-22669D01*
X119780Y-22793D01*
X120404Y-22669D01*
X120934Y-22315D01*
X121287Y-21786D01*
X121412Y-21162D01*
X121323Y-20718D01*
X121306Y-20630D01*
X121527Y-20354D01*
X121685Y-20233D01*
X122107Y-20317D01*
X122731Y-20193D01*
X122960Y-20040D01*
X127447D01*
X128701Y-21294D01*
Y-25239D01*
X127343Y-26598D01*
X122695Y-26603D01*
X122602Y-26136D01*
X122248Y-25607D01*
X121719Y-25253D01*
X121095Y-25129D01*
X120470Y-25253D01*
X119941Y-25607D01*
X119588Y-26136D01*
X119494Y-26603D01*
X110380D01*
X110287Y-26136D01*
X109933Y-25607D01*
X109404Y-25253D01*
X108780Y-25129D01*
X108155Y-25253D01*
X107626Y-25607D01*
X107272Y-26136D01*
X107179Y-26603D01*
X102073D01*
X101980Y-26136D01*
X101626Y-25607D01*
X101097Y-25253D01*
X100472Y-25129D01*
X99848Y-25253D01*
X99397Y-25554D01*
X99079Y-25607D01*
X99071D01*
X98752Y-25554D01*
X98302Y-25253D01*
X97677Y-25129D01*
X97053Y-25253D01*
X96524Y-25607D01*
X96170Y-26136D01*
X96077Y-26603D01*
X89746D01*
X89653Y-26136D01*
X89299Y-25607D01*
X88770Y-25253D01*
X88145Y-25129D01*
X87521Y-25253D01*
X86992Y-25607D01*
X86899Y-25745D01*
X86298D01*
X86205Y-25607D01*
X85676Y-25253D01*
X85052Y-25129D01*
X84427Y-25253D01*
X83898Y-25607D01*
X83545Y-26136D01*
X83451Y-26603D01*
X78291D01*
X76630Y-24942D01*
Y-21321D01*
X76706Y-21137D01*
X76801Y-20415D01*
Y-18053D01*
X76706Y-17332D01*
X76630Y-17147D01*
D01*
Y-16264D01*
X76219Y-15853D01*
Y-8780D01*
X78187Y-6812D01*
X82690Y-6812D01*
D02*
G37*
%LPC*%
G36*
X13169Y84516D02*
X12545Y84392D01*
X12016Y84038D01*
X11662Y83509D01*
X11538Y82885D01*
X11662Y82261D01*
X12016Y81731D01*
X12545Y81378D01*
X13169Y81253D01*
X13794Y81378D01*
X14323Y81731D01*
X14676Y82261D01*
X14801Y82885D01*
X14676Y83509D01*
X14323Y84038D01*
X13794Y84392D01*
X13169Y84516D01*
D02*
G37*
G36*
X26267Y81903D02*
X25643Y81779D01*
X25114Y81425D01*
X24760Y80896D01*
X24636Y80272D01*
X24760Y79647D01*
X25114Y79118D01*
X25643Y78765D01*
X26267Y78640D01*
X26891Y78765D01*
X27421Y79118D01*
X27774Y79647D01*
X27898Y80272D01*
X27774Y80896D01*
X27421Y81425D01*
X26891Y81779D01*
X26267Y81903D01*
D02*
G37*
G36*
X116557Y80410D02*
X115933Y80286D01*
X115404Y79932D01*
X115050Y79403D01*
X114926Y78778D01*
X115014Y78334D01*
X114584Y78020D01*
X114539Y78050D01*
X113758Y78205D01*
X112978Y78050D01*
X112317Y77608D01*
X111874Y76947D01*
X111719Y76166D01*
X111874Y75386D01*
X112317Y74724D01*
X112978Y74282D01*
X113758Y74127D01*
X114539Y74282D01*
X115200Y74724D01*
X115642Y75386D01*
X115798Y76166D01*
X115661Y76854D01*
X115787Y77048D01*
X115816Y77079D01*
X116041Y77250D01*
X116557Y77147D01*
X117182Y77271D01*
X117711Y77625D01*
X118064Y78154D01*
X118189Y78778D01*
X118064Y79403D01*
X117711Y79932D01*
X117182Y80286D01*
X116557Y80410D01*
D02*
G37*
G36*
X77657Y80915D02*
X77033Y80791D01*
X76504Y80438D01*
X76150Y79909D01*
X76026Y79284D01*
X76150Y78660D01*
X76504Y78131D01*
X77033Y77777D01*
X77657Y77653D01*
X78281Y77777D01*
X78811Y78131D01*
X79164Y78660D01*
X79289Y79284D01*
X79164Y79909D01*
X78811Y80438D01*
X78281Y80791D01*
X77657Y80915D01*
D02*
G37*
G36*
X90657Y80810D02*
X90033Y80686D01*
X89504Y80332D01*
X89150Y79803D01*
X89026Y79179D01*
X89150Y78554D01*
X89504Y78025D01*
X90033Y77671D01*
X90657Y77547D01*
X91281Y77671D01*
X91811Y78025D01*
X92164Y78554D01*
X92289Y79179D01*
X92164Y79803D01*
X91811Y80332D01*
X91281Y80686D01*
X90657Y80810D01*
D02*
G37*
G36*
X103957Y80510D02*
X103333Y80386D01*
X102804Y80032D01*
X102450Y79503D01*
X102326Y78878D01*
X102450Y78254D01*
X102804Y77725D01*
X103333Y77371D01*
X103957Y77247D01*
X104581Y77371D01*
X105111Y77725D01*
X105464Y78254D01*
X105588Y78878D01*
X105464Y79503D01*
X105111Y80032D01*
X104581Y80386D01*
X103957Y80510D01*
D02*
G37*
G36*
X130687Y78629D02*
X129907Y78474D01*
X129245Y78031D01*
X128803Y77370D01*
X128765Y77178D01*
X128239Y77097D01*
X127898Y77608D01*
X127236Y78050D01*
X126456Y78205D01*
X125676Y78050D01*
X125014Y77608D01*
X124572Y76947D01*
X124417Y76166D01*
X124572Y75386D01*
X125014Y74724D01*
X125676Y74282D01*
X126456Y74127D01*
X127236Y74282D01*
X127898Y74724D01*
X128340Y75386D01*
X128378Y75578D01*
X128904Y75658D01*
X129245Y75148D01*
X129907Y74706D01*
X130687Y74550D01*
X131468Y74706D01*
X132129Y75148D01*
X132571Y75809D01*
X132726Y76590D01*
X132571Y77370D01*
X132129Y78031D01*
X131468Y78474D01*
X130687Y78629D01*
D02*
G37*
G36*
X17254Y78500D02*
X16629Y78375D01*
X16100Y78022D01*
X15746Y77492D01*
X15622Y76868D01*
X15628Y76838D01*
X15170Y76579D01*
X14778Y76841D01*
X14154Y76965D01*
X13529Y76841D01*
X13000Y76487D01*
X12646Y75958D01*
X12522Y75334D01*
X12646Y74709D01*
X13000Y74180D01*
X13529Y73826D01*
X14154Y73702D01*
X14778Y73826D01*
X15307Y74180D01*
X15661Y74709D01*
X15785Y75334D01*
X15779Y75364D01*
X16237Y75623D01*
X16629Y75361D01*
X17254Y75237D01*
X17878Y75361D01*
X18407Y75715D01*
X18761Y76244D01*
X18885Y76868D01*
X18761Y77492D01*
X18407Y78022D01*
X17878Y78375D01*
X17254Y78500D01*
D02*
G37*
G36*
X-2386Y78947D02*
X-3011Y78823D01*
X-3540Y78469D01*
X-3893Y77940D01*
X-4018Y77316D01*
X-3893Y76691D01*
X-3540Y76162D01*
X-3011Y75809D01*
X-2386Y75684D01*
X-1762Y75809D01*
X-1233Y76162D01*
X-879Y76691D01*
X-755Y77316D01*
X-879Y77940D01*
X-1233Y78469D01*
X-1762Y78823D01*
X-2386Y78947D01*
D02*
G37*
G36*
X100673Y78305D02*
X99892Y78150D01*
X99231Y77708D01*
X98789Y77047D01*
X98634Y76266D01*
X98789Y75486D01*
X99231Y74824D01*
X99892Y74382D01*
X100673Y74227D01*
X101453Y74382D01*
X102115Y74824D01*
X102557Y75486D01*
X102712Y76266D01*
X102557Y77047D01*
X102115Y77708D01*
X101453Y78150D01*
X100673Y78305D01*
D02*
G37*
G36*
X94130D02*
X93349Y78150D01*
X92688Y77708D01*
X92246Y77047D01*
X92091Y76266D01*
X92246Y75486D01*
X92688Y74824D01*
X93349Y74382D01*
X94130Y74227D01*
X94910Y74382D01*
X95572Y74824D01*
X96014Y75486D01*
X96169Y76266D01*
X96014Y77047D01*
X95572Y77708D01*
X94910Y78150D01*
X94130Y78305D01*
D02*
G37*
G36*
X87587D02*
X86807Y78150D01*
X86145Y77708D01*
X85703Y77047D01*
X85548Y76266D01*
X85703Y75486D01*
X86145Y74824D01*
X86807Y74382D01*
X87587Y74227D01*
X88367Y74382D01*
X89029Y74824D01*
X89471Y75486D01*
X89626Y76266D01*
X89471Y77047D01*
X89029Y77708D01*
X88367Y78150D01*
X87587Y78305D01*
D02*
G37*
G36*
X120241Y78205D02*
X119461Y78050D01*
X118799Y77608D01*
X118357Y76947D01*
X118202Y76166D01*
X118357Y75386D01*
X118799Y74724D01*
X119461Y74282D01*
X120241Y74127D01*
X121021Y74282D01*
X121683Y74724D01*
X122125Y75386D01*
X122280Y76166D01*
X122125Y76947D01*
X121683Y77608D01*
X121021Y78050D01*
X120241Y78205D01*
D02*
G37*
G36*
X107216D02*
X106435Y78050D01*
X105774Y77608D01*
X105332Y76947D01*
X105176Y76166D01*
X105332Y75386D01*
X105774Y74724D01*
X106435Y74282D01*
X107216Y74127D01*
X107996Y74282D01*
X108658Y74724D01*
X109099Y75386D01*
X109255Y76166D01*
X109099Y76947D01*
X108658Y77608D01*
X107996Y78050D01*
X107216Y78205D01*
D02*
G37*
G36*
X81044D02*
X80264Y78050D01*
X79602Y77608D01*
X79160Y76947D01*
X79005Y76166D01*
X79160Y75386D01*
X79602Y74724D01*
X80264Y74282D01*
X81044Y74127D01*
X81824Y74282D01*
X82486Y74724D01*
X82928Y75386D01*
X83083Y76166D01*
X82928Y76947D01*
X82486Y77608D01*
X81824Y78050D01*
X81044Y78205D01*
D02*
G37*
G36*
X74501D02*
X73721Y78050D01*
X73059Y77608D01*
X72617Y76947D01*
X72462Y76166D01*
X72617Y75386D01*
X73059Y74724D01*
X73721Y74282D01*
X74501Y74127D01*
X75282Y74282D01*
X75943Y74724D01*
X76385Y75386D01*
X76540Y76166D01*
X76385Y76947D01*
X75943Y77608D01*
X75282Y78050D01*
X74501Y78205D01*
D02*
G37*
G36*
X67958D02*
X67178Y78050D01*
X66517Y77608D01*
X66075Y76947D01*
X65919Y76166D01*
X66075Y75386D01*
X66517Y74724D01*
X67178Y74282D01*
X67958Y74127D01*
X68739Y74282D01*
X69400Y74724D01*
X69842Y75386D01*
X69998Y76166D01*
X69842Y76947D01*
X69400Y77608D01*
X68739Y78050D01*
X67958Y78205D01*
D02*
G37*
G36*
X33565Y77972D02*
X32941Y77848D01*
X32411Y77495D01*
X32058Y76965D01*
X31933Y76341D01*
X32058Y75717D01*
X32411Y75187D01*
X32150Y74761D01*
X32030Y74581D01*
X31906Y73957D01*
X32030Y73333D01*
X32384Y72803D01*
X32913Y72450D01*
X33537Y72326D01*
X34162Y72450D01*
X34691Y72803D01*
X35045Y73333D01*
X35169Y73957D01*
X35045Y74581D01*
X34691Y75111D01*
X34952Y75537D01*
X35072Y75717D01*
X35196Y76341D01*
X35072Y76965D01*
X34718Y77495D01*
X34189Y77848D01*
X33565Y77972D01*
D02*
G37*
G36*
X49443Y75401D02*
X48819Y75277D01*
X48290Y74923D01*
X47936Y74394D01*
X47812Y73770D01*
X47936Y73145D01*
X48290Y72616D01*
X48819Y72262D01*
X49443Y72138D01*
X50068Y72262D01*
X50597Y72616D01*
X50950Y73145D01*
X51075Y73770D01*
X50950Y74394D01*
X50597Y74923D01*
X50068Y75277D01*
X49443Y75401D01*
D02*
G37*
G36*
X56307Y75229D02*
X55683Y75105D01*
X55154Y74751D01*
X54800Y74222D01*
X54676Y73598D01*
X54800Y72973D01*
X55154Y72444D01*
X55683Y72090D01*
X56307Y71966D01*
X56931Y72090D01*
X57461Y72444D01*
X57814Y72973D01*
X57938Y73598D01*
X57814Y74222D01*
X57461Y74751D01*
X56931Y75105D01*
X56307Y75229D01*
D02*
G37*
G36*
X129457Y73919D02*
X128833Y73795D01*
X128304Y73441D01*
X127950Y72912D01*
X127826Y72288D01*
X127950Y71663D01*
X128304Y71134D01*
Y70723D01*
X127950Y70194D01*
X127826Y69569D01*
X127950Y68945D01*
X128304Y68416D01*
X128833Y68062D01*
X129457Y67938D01*
X130081Y68062D01*
X130611Y68416D01*
X130964Y68945D01*
X131088Y69569D01*
X130964Y70194D01*
X130611Y70723D01*
Y71134D01*
X130964Y71663D01*
X131088Y72288D01*
X130964Y72912D01*
X130611Y73441D01*
X130081Y73795D01*
X129457Y73919D01*
D02*
G37*
G36*
X14154Y71076D02*
X13529Y70952D01*
X13000Y70599D01*
X12646Y70069D01*
X12522Y69445D01*
X12646Y68821D01*
X13000Y68291D01*
X13529Y67938D01*
X14154Y67814D01*
X14778Y67938D01*
X15307Y68291D01*
X15661Y68821D01*
X15785Y69445D01*
X15661Y70069D01*
X15307Y70599D01*
X14778Y70952D01*
X14154Y71076D01*
D02*
G37*
G36*
X-17647Y70473D02*
X-18271Y70349D01*
X-18801Y69995D01*
X-19154Y69466D01*
X-19278Y68842D01*
X-19154Y68217D01*
X-18801Y67688D01*
X-18271Y67335D01*
X-17647Y67210D01*
X-17023Y67335D01*
X-16494Y67688D01*
X-16140Y68217D01*
X-16016Y68842D01*
X-16140Y69466D01*
X-16494Y69995D01*
X-17023Y70349D01*
X-17647Y70473D01*
D02*
G37*
G36*
X-11201Y69897D02*
X-11825Y69773D01*
X-12355Y69419D01*
X-12708Y68890D01*
X-12833Y68266D01*
X-12708Y67642D01*
X-12355Y67112D01*
X-11825Y66759D01*
X-11201Y66635D01*
X-10577Y66759D01*
X-10048Y67112D01*
X-9694Y67642D01*
X-9570Y68266D01*
X-9694Y68890D01*
X-10048Y69419D01*
X-10577Y69773D01*
X-11201Y69897D01*
D02*
G37*
G36*
X49443Y67887D02*
X48819Y67763D01*
X48290Y67409D01*
X47936Y66880D01*
X47812Y66256D01*
X47936Y65631D01*
X48290Y65102D01*
X48819Y64748D01*
X49443Y64624D01*
X50068Y64748D01*
X50597Y65102D01*
X50950Y65631D01*
X51075Y66256D01*
X50950Y66880D01*
X50597Y67409D01*
X50068Y67763D01*
X49443Y67887D01*
D02*
G37*
G36*
X77657Y72625D02*
X77033Y72501D01*
X76504Y72147D01*
X76150Y71618D01*
X76026Y70993D01*
X76150Y70369D01*
X76504Y69840D01*
Y69428D01*
X76150Y68899D01*
X76026Y68275D01*
X76150Y67651D01*
X76504Y67121D01*
Y66710D01*
X76150Y66181D01*
X76026Y65557D01*
X76150Y64932D01*
X76504Y64403D01*
X77033Y64049D01*
X77657Y63925D01*
X78281Y64049D01*
X78811Y64403D01*
X79164Y64932D01*
X79289Y65557D01*
X79164Y66181D01*
X78811Y66710D01*
Y67121D01*
X79164Y67651D01*
X79289Y68275D01*
X79164Y68899D01*
X78811Y69428D01*
Y69840D01*
X79164Y70369D01*
X79289Y70993D01*
X79164Y71618D01*
X78811Y72147D01*
X78281Y72501D01*
X77657Y72625D01*
D02*
G37*
G36*
X90657Y72519D02*
X90033Y72395D01*
X89504Y72041D01*
X89150Y71512D01*
X89026Y70888D01*
X89150Y70263D01*
X89504Y69734D01*
Y69323D01*
X89150Y68794D01*
X89026Y68169D01*
X89150Y67545D01*
X89504Y67016D01*
Y66604D01*
X89150Y66075D01*
X89026Y65451D01*
X89150Y64827D01*
X89504Y64297D01*
X90033Y63944D01*
X90657Y63820D01*
X91281Y63944D01*
X91811Y64297D01*
X92164Y64827D01*
X92289Y65451D01*
X92164Y66075D01*
X91811Y66604D01*
Y67016D01*
X92164Y67545D01*
X92289Y68169D01*
X92164Y68794D01*
X91811Y69323D01*
Y69734D01*
X92164Y70263D01*
X92289Y70888D01*
X92164Y71512D01*
X91811Y72041D01*
X91281Y72395D01*
X90657Y72519D01*
D02*
G37*
G36*
X116557Y72119D02*
X115933Y71995D01*
X115404Y71641D01*
X115050Y71112D01*
X114926Y70488D01*
X115050Y69863D01*
X115404Y69334D01*
Y68923D01*
X115050Y68394D01*
X114926Y67769D01*
X115050Y67145D01*
X115404Y66616D01*
Y66204D01*
X115050Y65675D01*
X114926Y65051D01*
X115050Y64427D01*
X115404Y63897D01*
X115933Y63544D01*
X116557Y63420D01*
X117182Y63544D01*
X117711Y63897D01*
X118064Y64427D01*
X118189Y65051D01*
X118064Y65675D01*
X117711Y66204D01*
Y66616D01*
X118064Y67145D01*
X118189Y67769D01*
X118064Y68394D01*
X117711Y68923D01*
Y69334D01*
X118064Y69863D01*
X118189Y70488D01*
X118064Y71112D01*
X117711Y71641D01*
X117182Y71995D01*
X116557Y72119D01*
D02*
G37*
G36*
X65057Y74594D02*
X64433Y74470D01*
X63904Y74116D01*
X63550Y73587D01*
X63426Y72963D01*
X63550Y72339D01*
X63904Y71809D01*
Y71423D01*
X63550Y70894D01*
X63426Y70270D01*
X63550Y69645D01*
X63795Y69279D01*
X63804Y68683D01*
X63450Y68154D01*
X63326Y67529D01*
X63450Y66905D01*
X63804Y66376D01*
Y65990D01*
X63450Y65460D01*
X63326Y64836D01*
X63450Y64212D01*
X63804Y63683D01*
X64333Y63329D01*
X64957Y63205D01*
X65582Y63329D01*
X66111Y63683D01*
X66464Y64212D01*
X66588Y64836D01*
X66464Y65460D01*
X66111Y65990D01*
Y66376D01*
X66464Y66905D01*
X66588Y67529D01*
X66464Y68154D01*
X66219Y68520D01*
X66211Y69116D01*
X66564Y69645D01*
X66689Y70270D01*
X66564Y70894D01*
X66211Y71423D01*
Y71809D01*
X66564Y72339D01*
X66689Y72963D01*
X66564Y73587D01*
X66211Y74116D01*
X65681Y74470D01*
X65057Y74594D01*
D02*
G37*
G36*
X35157Y68951D02*
X34533Y68827D01*
X34004Y68473D01*
X33650Y67944D01*
X33526Y67320D01*
X33650Y66695D01*
X34004Y66166D01*
X34284Y65978D01*
X34300Y65388D01*
X34204Y65323D01*
X33850Y64794D01*
X33726Y64170D01*
X33850Y63545D01*
X34204Y63016D01*
X34733Y62662D01*
X35357Y62538D01*
X35982Y62662D01*
X36511Y63016D01*
X36864Y63545D01*
X36988Y64170D01*
X36864Y64794D01*
X36511Y65323D01*
X36230Y65511D01*
X36214Y66101D01*
X36311Y66166D01*
X36664Y66695D01*
X36788Y67320D01*
X36664Y67944D01*
X36311Y68473D01*
X35781Y68827D01*
X35157Y68951D01*
D02*
G37*
G36*
X143507Y64361D02*
X142883Y64237D01*
X142354Y63883D01*
X142000Y63354D01*
X141876Y62730D01*
X142000Y62105D01*
X142354Y61576D01*
X142883Y61222D01*
X143507Y61098D01*
X144132Y61222D01*
X144661Y61576D01*
X145014Y62105D01*
X145139Y62730D01*
X145014Y63354D01*
X144661Y63883D01*
X144132Y64237D01*
X143507Y64361D01*
D02*
G37*
G36*
X129457Y63045D02*
X128833Y62921D01*
X128304Y62568D01*
X127950Y62038D01*
X127826Y61414D01*
X127950Y60790D01*
X128304Y60260D01*
X128833Y59907D01*
X129457Y59783D01*
X130081Y59907D01*
X130611Y60260D01*
X130964Y60790D01*
X131088Y61414D01*
X130964Y62038D01*
X130611Y62568D01*
X130081Y62921D01*
X129457Y63045D01*
D02*
G37*
G36*
X77657Y61751D02*
X77033Y61627D01*
X76504Y61273D01*
X76150Y60744D01*
X76026Y60120D01*
X76150Y59495D01*
X76504Y58966D01*
X77033Y58613D01*
X77657Y58488D01*
X78281Y58613D01*
X78811Y58966D01*
X79164Y59495D01*
X79289Y60120D01*
X79164Y60744D01*
X78811Y61273D01*
X78281Y61627D01*
X77657Y61751D01*
D02*
G37*
G36*
X90657Y61645D02*
X90033Y61521D01*
X89504Y61168D01*
X89150Y60638D01*
X89026Y60014D01*
X89150Y59390D01*
X89504Y58860D01*
X90033Y58507D01*
X90657Y58383D01*
X91281Y58507D01*
X91811Y58860D01*
X92164Y59390D01*
X92289Y60014D01*
X92164Y60638D01*
X91811Y61168D01*
X91281Y61521D01*
X90657Y61645D01*
D02*
G37*
G36*
X116557Y61245D02*
X115933Y61121D01*
X115404Y60768D01*
X115050Y60238D01*
X114926Y59614D01*
X115050Y58990D01*
X115404Y58460D01*
X115933Y58107D01*
X116557Y57983D01*
X117182Y58107D01*
X117711Y58460D01*
X118064Y58990D01*
X118189Y59614D01*
X118064Y60238D01*
X117711Y60768D01*
X117182Y61121D01*
X116557Y61245D01*
D02*
G37*
G36*
X64957Y60601D02*
X64333Y60477D01*
X63804Y60123D01*
X63450Y59594D01*
X63326Y58970D01*
X63450Y58345D01*
X63804Y57816D01*
X64333Y57462D01*
X64957Y57338D01*
X65582Y57462D01*
X66111Y57816D01*
X66464Y58345D01*
X66588Y58970D01*
X66464Y59594D01*
X66111Y60123D01*
X65582Y60477D01*
X64957Y60601D01*
D02*
G37*
G36*
X27935Y59676D02*
X27311Y59551D01*
X26782Y59198D01*
X26428Y58668D01*
X26304Y58044D01*
X26428Y57420D01*
X26723Y56978D01*
X26782Y56479D01*
Y56416D01*
X26681Y56349D01*
X26327Y55820D01*
X26203Y55196D01*
X26327Y54571D01*
X26681Y54042D01*
X27210Y53689D01*
X27835Y53564D01*
X28459Y53689D01*
X28988Y54042D01*
X29342Y54571D01*
X29466Y55196D01*
X29342Y55820D01*
X29047Y56261D01*
X28988Y56761D01*
Y56823D01*
X29089Y56891D01*
X29442Y57420D01*
X29567Y58044D01*
X29442Y58668D01*
X29089Y59198D01*
X28559Y59551D01*
X27935Y59676D01*
D02*
G37*
G36*
X126453Y59009D02*
X125672Y58854D01*
X125011Y58412D01*
X124569Y57750D01*
X124414Y56970D01*
X124569Y56189D01*
X125011Y55528D01*
X125672Y55086D01*
X126453Y54930D01*
X127233Y55086D01*
X127708Y55403D01*
X128158Y55103D01*
X128144Y55030D01*
X128268Y54406D01*
X128622Y53877D01*
X129151Y53523D01*
X129776Y53399D01*
X130400Y53523D01*
X130929Y53877D01*
X131283Y54406D01*
X131407Y55030D01*
X131283Y55655D01*
X130929Y56184D01*
X130400Y56537D01*
X129776Y56662D01*
X129151Y56537D01*
X128880Y56356D01*
X128430Y56657D01*
X128492Y56970D01*
X128337Y57750D01*
X127895Y58412D01*
X127233Y58854D01*
X126453Y59009D01*
D02*
G37*
G36*
X80643Y57009D02*
X79862Y56853D01*
X79201Y56411D01*
X78759Y55750D01*
X78604Y54970D01*
X78759Y54189D01*
X78992Y53840D01*
X79077Y53713D01*
X78717Y53352D01*
X78576Y53446D01*
X78281Y53643D01*
X77657Y53767D01*
X77033Y53643D01*
X76504Y53289D01*
X76150Y52760D01*
X76026Y52136D01*
X76150Y51512D01*
X76504Y50982D01*
Y50571D01*
X76150Y50042D01*
X76026Y49417D01*
X76150Y48793D01*
X76504Y48264D01*
X77033Y47910D01*
X77657Y47786D01*
X78281Y47910D01*
X78811Y48264D01*
X79164Y48793D01*
X79289Y49417D01*
X79164Y50042D01*
X78811Y50571D01*
Y50982D01*
X79164Y51512D01*
X79289Y52136D01*
X79164Y52760D01*
X79019Y52977D01*
X78934Y53105D01*
X79295Y53465D01*
X79436Y53371D01*
X79862Y53086D01*
X80643Y52930D01*
X81423Y53086D01*
X82085Y53528D01*
X82527Y54189D01*
X82682Y54970D01*
X82527Y55750D01*
X82085Y56411D01*
X81423Y56853D01*
X80643Y57009D01*
D02*
G37*
G36*
X134290Y56541D02*
X133666Y56417D01*
X133136Y56063D01*
X132783Y55534D01*
X132658Y54910D01*
X132783Y54285D01*
X133136Y53756D01*
X133666Y53402D01*
X134290Y53278D01*
X134914Y53402D01*
X135443Y53756D01*
X135797Y54285D01*
X135921Y54910D01*
X135797Y55534D01*
X135443Y56063D01*
X134914Y56417D01*
X134290Y56541D01*
D02*
G37*
G36*
X118927Y57149D02*
X118147Y56994D01*
X117485Y56551D01*
X117043Y55890D01*
X116888Y55110D01*
X117043Y54329D01*
X117485Y53668D01*
X118147Y53226D01*
X118927Y53070D01*
X119708Y53226D01*
X120369Y53668D01*
X120811Y54329D01*
X120966Y55110D01*
X120811Y55890D01*
X120369Y56551D01*
X119708Y56994D01*
X118927Y57149D01*
D02*
G37*
G36*
X100271Y57109D02*
X99491Y56954D01*
X98830Y56511D01*
X98387Y55850D01*
X98232Y55070D01*
X98387Y54289D01*
X98830Y53628D01*
X99491Y53186D01*
X100271Y53030D01*
X101052Y53186D01*
X101713Y53628D01*
X102155Y54289D01*
X102311Y55070D01*
X102155Y55850D01*
X101713Y56511D01*
X101052Y56954D01*
X100271Y57109D01*
D02*
G37*
G36*
X93729D02*
X92948Y56954D01*
X92287Y56511D01*
X91845Y55850D01*
X91689Y55070D01*
X91845Y54289D01*
X92287Y53628D01*
X92948Y53186D01*
X93729Y53030D01*
X94509Y53186D01*
X95170Y53628D01*
X95613Y54289D01*
X95768Y55070D01*
X95613Y55850D01*
X95170Y56511D01*
X94509Y56954D01*
X93729Y57109D01*
D02*
G37*
G36*
X87186D02*
X86405Y56954D01*
X85744Y56511D01*
X85302Y55850D01*
X85147Y55070D01*
X85302Y54289D01*
X85744Y53628D01*
X86405Y53186D01*
X87186Y53030D01*
X87966Y53186D01*
X88628Y53628D01*
X89070Y54289D01*
X89225Y55070D01*
X89070Y55850D01*
X88628Y56511D01*
X87966Y56954D01*
X87186Y57109D01*
D02*
G37*
G36*
X113357Y57009D02*
X112577Y56853D01*
X111915Y56411D01*
X111473Y55750D01*
X111318Y54970D01*
X111473Y54189D01*
X111915Y53528D01*
X112577Y53086D01*
X113357Y52930D01*
X114137Y53086D01*
X114799Y53528D01*
X115241Y54189D01*
X115396Y54970D01*
X115241Y55750D01*
X114799Y56411D01*
X114137Y56853D01*
X113357Y57009D01*
D02*
G37*
G36*
X106814D02*
X106034Y56853D01*
X105372Y56411D01*
X104930Y55750D01*
X104775Y54970D01*
X104930Y54189D01*
X105372Y53528D01*
X106034Y53086D01*
X106814Y52930D01*
X107595Y53086D01*
X108256Y53528D01*
X108698Y54189D01*
X108853Y54970D01*
X108698Y55750D01*
X108256Y56411D01*
X107595Y56853D01*
X106814Y57009D01*
D02*
G37*
G36*
X74100D02*
X73320Y56853D01*
X72658Y56411D01*
X72216Y55750D01*
X72061Y54970D01*
X72216Y54189D01*
X72658Y53528D01*
X73320Y53086D01*
X74100Y52930D01*
X74880Y53086D01*
X75542Y53528D01*
X75984Y54189D01*
X76139Y54970D01*
X75984Y55750D01*
X75542Y56411D01*
X74880Y56853D01*
X74100Y57009D01*
D02*
G37*
G36*
X67557D02*
X66777Y56853D01*
X66115Y56411D01*
X65673Y55750D01*
X65518Y54970D01*
X65673Y54189D01*
X66115Y53528D01*
X66777Y53086D01*
X67557Y52930D01*
X68338Y53086D01*
X68999Y53528D01*
X69441Y54189D01*
X69596Y54970D01*
X69441Y55750D01*
X68999Y56411D01*
X68338Y56853D01*
X67557Y57009D01*
D02*
G37*
G36*
X143267Y56809D02*
X142487Y56653D01*
X141825Y56212D01*
X141383Y55550D01*
X141228Y54770D01*
X141383Y53989D01*
X141825Y53328D01*
X142487Y52886D01*
X143267Y52730D01*
X144048Y52886D01*
X144709Y53328D01*
X145151Y53989D01*
X145306Y54770D01*
X145151Y55550D01*
X144709Y56212D01*
X144048Y56653D01*
X143267Y56809D01*
D02*
G37*
G36*
X90657Y53662D02*
X90033Y53537D01*
X89504Y53184D01*
X89150Y52654D01*
X89026Y52030D01*
X89150Y51406D01*
X89504Y50877D01*
Y50465D01*
X89150Y49936D01*
X89026Y49312D01*
X89150Y48687D01*
X89504Y48158D01*
X90033Y47805D01*
X90657Y47681D01*
X91281Y47805D01*
X91811Y48158D01*
X92164Y48687D01*
X92289Y49312D01*
X92164Y49936D01*
X91811Y50465D01*
Y50877D01*
X92164Y51406D01*
X92289Y52030D01*
X92164Y52654D01*
X91811Y53184D01*
X91281Y53537D01*
X90657Y53662D01*
D02*
G37*
G36*
X103957Y53362D02*
X103333Y53237D01*
X102804Y52884D01*
X102450Y52355D01*
X102326Y51730D01*
X102450Y51106D01*
X102804Y50577D01*
Y50165D01*
X102450Y49636D01*
X102326Y49012D01*
X102450Y48388D01*
X102804Y47858D01*
X103333Y47505D01*
X103957Y47381D01*
X104581Y47505D01*
X105111Y47858D01*
X105464Y48388D01*
X105588Y49012D01*
X105464Y49636D01*
X105111Y50165D01*
Y50577D01*
X105464Y51106D01*
X105588Y51730D01*
X105464Y52355D01*
X105111Y52884D01*
X104581Y53237D01*
X103957Y53362D01*
D02*
G37*
G36*
X116557Y53262D02*
X115933Y53137D01*
X115404Y52784D01*
X115050Y52254D01*
X114926Y51630D01*
X115050Y51006D01*
X115404Y50477D01*
Y50065D01*
X115050Y49536D01*
X114926Y48912D01*
X115050Y48287D01*
X115404Y47758D01*
X115933Y47405D01*
X116557Y47280D01*
X117182Y47405D01*
X117711Y47758D01*
X118064Y48287D01*
X118189Y48912D01*
X118064Y49536D01*
X117711Y50065D01*
Y50477D01*
X118064Y51006D01*
X118189Y51630D01*
X118064Y52254D01*
X117711Y52784D01*
X117182Y53137D01*
X116557Y53262D01*
D02*
G37*
G36*
X64957Y53094D02*
X64333Y52970D01*
X63804Y52616D01*
X63450Y52087D01*
X63326Y51463D01*
X63450Y50839D01*
X63804Y50309D01*
Y49923D01*
X63450Y49394D01*
X63326Y48770D01*
X63450Y48145D01*
X63804Y47616D01*
X64333Y47262D01*
X64957Y47138D01*
X65582Y47262D01*
X66111Y47616D01*
X66464Y48145D01*
X66588Y48770D01*
X66464Y49394D01*
X66111Y49923D01*
Y50309D01*
X66464Y50839D01*
X66588Y51463D01*
X66464Y52087D01*
X66111Y52616D01*
X65582Y52970D01*
X64957Y53094D01*
D02*
G37*
G36*
X32248Y46906D02*
X31624Y46782D01*
X31095Y46428D01*
X30741Y45899D01*
X30617Y45275D01*
X30741Y44650D01*
X31095Y44121D01*
X31624Y43767D01*
X32248Y43643D01*
X32872Y43767D01*
X33402Y44121D01*
X33755Y44650D01*
X33879Y45275D01*
X33755Y45899D01*
X33402Y46428D01*
X32872Y46782D01*
X32248Y46906D01*
D02*
G37*
G36*
X49388Y43729D02*
X48764Y43604D01*
X48235Y43251D01*
X47881Y42722D01*
X47757Y42097D01*
X47881Y41473D01*
X48235Y40944D01*
X48764Y40590D01*
X49388Y40466D01*
X50012Y40590D01*
X50542Y40944D01*
X50895Y41473D01*
X51019Y42097D01*
X50895Y42722D01*
X50542Y43251D01*
X50012Y43604D01*
X49388Y43729D01*
D02*
G37*
G36*
X56165Y43512D02*
X55541Y43388D01*
X55012Y43034D01*
X54658Y42505D01*
X54534Y41881D01*
X54658Y41257D01*
X55012Y40727D01*
X55541Y40374D01*
X56165Y40250D01*
X56790Y40374D01*
X57319Y40727D01*
X57673Y41257D01*
X57797Y41881D01*
X57673Y42505D01*
X57319Y43034D01*
X56790Y43388D01*
X56165Y43512D01*
D02*
G37*
G36*
X77657Y45612D02*
X77033Y45488D01*
X76504Y45134D01*
X76150Y44605D01*
X76026Y43981D01*
X76150Y43356D01*
X76504Y42827D01*
Y42416D01*
X76150Y41886D01*
X76026Y41262D01*
X76150Y40638D01*
X76504Y40109D01*
X77033Y39755D01*
X77657Y39631D01*
X78281Y39755D01*
X78811Y40109D01*
X79164Y40638D01*
X79289Y41262D01*
X79164Y41886D01*
X78811Y42416D01*
Y42827D01*
X79164Y43356D01*
X79289Y43981D01*
X79164Y44605D01*
X78811Y45134D01*
X78281Y45488D01*
X77657Y45612D01*
D02*
G37*
G36*
X90657Y45506D02*
X90033Y45382D01*
X89504Y45028D01*
X89150Y44499D01*
X89026Y43875D01*
X89150Y43251D01*
X89504Y42721D01*
Y42310D01*
X89150Y41781D01*
X89026Y41157D01*
X89150Y40532D01*
X89504Y40003D01*
X90033Y39649D01*
X90657Y39525D01*
X91281Y39649D01*
X91811Y40003D01*
X92164Y40532D01*
X92289Y41157D01*
X92164Y41781D01*
X91811Y42310D01*
Y42721D01*
X92164Y43251D01*
X92289Y43875D01*
X92164Y44499D01*
X91811Y45028D01*
X91281Y45382D01*
X90657Y45506D01*
D02*
G37*
G36*
X134290Y40691D02*
X133666Y40567D01*
X133136Y40213D01*
X132783Y39684D01*
X132658Y39060D01*
X132783Y38435D01*
X133136Y37906D01*
X133666Y37552D01*
X134290Y37428D01*
X134914Y37552D01*
X135443Y37906D01*
X135797Y38435D01*
X135921Y39060D01*
X135797Y39684D01*
X135443Y40213D01*
X134914Y40567D01*
X134290Y40691D01*
D02*
G37*
G36*
X142967Y31869D02*
X142187Y31714D01*
X141525Y31271D01*
X141083Y30610D01*
X140928Y29830D01*
X141083Y29049D01*
X141525Y28388D01*
X142187Y27946D01*
X142967Y27790D01*
X143748Y27946D01*
X144409Y28388D01*
X144851Y29049D01*
X145006Y29830D01*
X144851Y30610D01*
X144409Y31271D01*
X143748Y31714D01*
X142967Y31869D01*
D02*
G37*
G36*
X146166Y2913D02*
X145542Y2788D01*
X145012Y2435D01*
X144659Y1906D01*
X144535Y1281D01*
X144659Y657D01*
X145012Y128D01*
X145088Y77D01*
X144746Y-436D01*
X144622Y-1060D01*
X144746Y-1684D01*
X145099Y-2214D01*
X145628Y-2567D01*
X146253Y-2691D01*
X146877Y-2567D01*
X147406Y-2214D01*
X147760Y-1684D01*
X147884Y-1060D01*
X147869Y-981D01*
X148339Y-786D01*
X148403Y-881D01*
X148932Y-1235D01*
X149557Y-1359D01*
X150181Y-1235D01*
X150710Y-881D01*
X151064Y-352D01*
X151188Y273D01*
X151064Y897D01*
X150710Y1426D01*
X150181Y1780D01*
X149557Y1904D01*
X148932Y1780D01*
X148403Y1426D01*
X148277Y1238D01*
X148123Y1252D01*
X147776Y1388D01*
X147673Y1906D01*
X147320Y2435D01*
X146790Y2788D01*
X146166Y2913D01*
D02*
G37*
G36*
X168992Y-8213D02*
X168368Y-8338D01*
X167839Y-8691D01*
X167485Y-9221D01*
X167361Y-9845D01*
X167485Y-10469D01*
X167839Y-10998D01*
X168368Y-11352D01*
X168702Y-11418D01*
Y-11928D01*
X168368Y-11995D01*
X167839Y-12348D01*
X167485Y-12878D01*
X167361Y-13502D01*
X167485Y-14126D01*
X167839Y-14655D01*
X168368Y-15009D01*
X168992Y-15133D01*
X169616Y-15009D01*
X170146Y-14655D01*
X170230Y-14529D01*
X170831D01*
X170941Y-14693D01*
X171470Y-15047D01*
X172094Y-15171D01*
X172719Y-15047D01*
X173248Y-14693D01*
X173601Y-14164D01*
X173726Y-13540D01*
X173601Y-12915D01*
X173248Y-12386D01*
X172719Y-12032D01*
X172094Y-11908D01*
X171470Y-12032D01*
X170941Y-12386D01*
X170856Y-12512D01*
X170255D01*
X170146Y-12348D01*
X169616Y-11995D01*
X169282Y-11928D01*
Y-11418D01*
X169616Y-11352D01*
X170146Y-10998D01*
X170499Y-10469D01*
X170624Y-9845D01*
X170499Y-9221D01*
X170146Y-8691D01*
X169616Y-8338D01*
X168992Y-8213D01*
D02*
G37*
G36*
X117572Y115794D02*
X116936D01*
X116347Y115551D01*
X115897Y115101D01*
X115654Y114513D01*
Y113876D01*
X115897Y113288D01*
X116347Y112838D01*
X116936Y112594D01*
X117572D01*
X118160Y112838D01*
X118610Y113288D01*
X118854Y113876D01*
Y114513D01*
X118610Y115101D01*
X118160Y115551D01*
X117572Y115794D01*
D02*
G37*
G36*
X104537D02*
X103901D01*
X103313Y115551D01*
X102863Y115101D01*
X102619Y114513D01*
Y113876D01*
X102863Y113288D01*
X103313Y112838D01*
X103901Y112594D01*
X104537D01*
X105125Y112838D01*
X105576Y113288D01*
X105819Y113876D01*
Y114513D01*
X105576Y115101D01*
X105125Y115551D01*
X104537Y115794D01*
D02*
G37*
G36*
X91204D02*
X90567D01*
X89979Y115551D01*
X89529Y115101D01*
X89286Y114513D01*
Y113876D01*
X89529Y113288D01*
X89979Y112838D01*
X90567Y112594D01*
X91204D01*
X91792Y112838D01*
X92242Y113288D01*
X92486Y113876D01*
Y114513D01*
X92242Y115101D01*
X91792Y115551D01*
X91204Y115794D01*
D02*
G37*
G36*
X56872Y115174D02*
X56235D01*
X55647Y114930D01*
X55197Y114480D01*
X54953Y113892D01*
Y113256D01*
X55197Y112668D01*
X55647Y112217D01*
X56235Y111974D01*
X56872D01*
X57460Y112217D01*
X57910Y112668D01*
X58153Y113256D01*
Y113892D01*
X57910Y114480D01*
X57460Y114930D01*
X56872Y115174D01*
D02*
G37*
G36*
X60754Y114977D02*
X60118D01*
X59530Y114733D01*
X59079Y114283D01*
X58836Y113695D01*
Y113058D01*
X59079Y112470D01*
X59530Y112020D01*
X60118Y111777D01*
X60754D01*
X61342Y112020D01*
X61792Y112470D01*
X62036Y113058D01*
Y113695D01*
X61792Y114283D01*
X61342Y114733D01*
X60754Y114977D01*
D02*
G37*
G36*
X77975Y108051D02*
X77339D01*
X76751Y107808D01*
X76301Y107357D01*
X76057Y106769D01*
Y106133D01*
X76301Y105545D01*
X76751Y105095D01*
X77339Y104851D01*
X77975D01*
X78563Y105095D01*
X79014Y105545D01*
X79257Y106133D01*
Y106769D01*
X79014Y107357D01*
X78563Y107808D01*
X77975Y108051D01*
D02*
G37*
G36*
X90975Y105227D02*
X90339D01*
X89751Y104983D01*
X89301Y104533D01*
X89057Y103945D01*
Y103309D01*
X89301Y102721D01*
X89751Y102271D01*
X90339Y102027D01*
X90975D01*
X91563Y102271D01*
X92014Y102721D01*
X92257Y103309D01*
Y103945D01*
X92014Y104533D01*
X91563Y104983D01*
X90975Y105227D01*
D02*
G37*
G36*
X104276Y104927D02*
X103639D01*
X103051Y104683D01*
X102601Y104233D01*
X102357Y103645D01*
Y103009D01*
X102601Y102421D01*
X103051Y101971D01*
X103639Y101727D01*
X104276D01*
X104864Y101971D01*
X105314Y102421D01*
X105557Y103009D01*
Y103645D01*
X105314Y104233D01*
X104864Y104683D01*
X104276Y104927D01*
D02*
G37*
G36*
X116876Y104827D02*
X116239D01*
X115651Y104583D01*
X115201Y104133D01*
X114957Y103545D01*
Y102909D01*
X115201Y102321D01*
X115651Y101871D01*
X116239Y101627D01*
X116876D01*
X117464Y101871D01*
X117914Y102321D01*
X118157Y102909D01*
Y103545D01*
X117914Y104133D01*
X117464Y104583D01*
X116876Y104827D01*
D02*
G37*
G36*
X30375Y95920D02*
X29739D01*
X29151Y95676D01*
X28701Y95226D01*
X28457Y94638D01*
Y94001D01*
X28701Y93413D01*
X29151Y92963D01*
X29739Y92720D01*
X30375D01*
X30964Y92963D01*
X31414Y93413D01*
X31657Y94001D01*
Y94638D01*
X31414Y95226D01*
X30964Y95676D01*
X30375Y95920D01*
D02*
G37*
G36*
Y92120D02*
X29739D01*
X29151Y91876D01*
X28701Y91426D01*
X28457Y90838D01*
Y90201D01*
X28701Y89613D01*
X29151Y89163D01*
X29739Y88920D01*
X30375D01*
X30964Y89163D01*
X31414Y89613D01*
X31657Y90201D01*
Y90838D01*
X31414Y91426D01*
X30964Y91876D01*
X30375Y92120D01*
D02*
G37*
G36*
X-14809Y60772D02*
X-15433Y60648D01*
X-15962Y60295D01*
X-16262Y59846D01*
X-16346Y59820D01*
X-16588Y59804D01*
X-16812Y59836D01*
X-17077Y60233D01*
X-17607Y60587D01*
X-18231Y60711D01*
X-18855Y60587D01*
X-19384Y60233D01*
X-19738Y59704D01*
X-19862Y59080D01*
X-19738Y58456D01*
X-19384Y57926D01*
X-18855Y57573D01*
X-18231Y57449D01*
X-17607Y57573D01*
X-17077Y57926D01*
X-16777Y58375D01*
X-16694Y58401D01*
X-16452Y58417D01*
X-16228Y58385D01*
X-15962Y57987D01*
X-15433Y57634D01*
X-14809Y57510D01*
X-14318Y57607D01*
X-13993Y57335D01*
X-13917Y57216D01*
X-13996Y56818D01*
X-13872Y56194D01*
X-13519Y55665D01*
X-12989Y55311D01*
X-12741Y55262D01*
X-12636Y54731D01*
X-12818Y54609D01*
X-13171Y54080D01*
X-13296Y53456D01*
X-13171Y52831D01*
X-12818Y52302D01*
X-12289Y51948D01*
X-11664Y51824D01*
X-11040Y51948D01*
X-10511Y52302D01*
X-10157Y52831D01*
X-10033Y53456D01*
X-10157Y54080D01*
X-10511Y54609D01*
X-11040Y54963D01*
X-11288Y55012D01*
X-11394Y55543D01*
X-11212Y55665D01*
X-10858Y56194D01*
X-10734Y56818D01*
X-10858Y57443D01*
X-11212Y57972D01*
X-11741Y58326D01*
X-12365Y58450D01*
X-12856Y58352D01*
X-13181Y58625D01*
X-13257Y58743D01*
X-13178Y59141D01*
X-13302Y59765D01*
X-13655Y60295D01*
X-14185Y60648D01*
X-14809Y60772D01*
D02*
G37*
G36*
X-17879Y56445D02*
X-18503Y56321D01*
X-19033Y55967D01*
X-19386Y55438D01*
X-19511Y54814D01*
X-19386Y54189D01*
X-19033Y53660D01*
X-18503Y53307D01*
X-17879Y53182D01*
X-17255Y53307D01*
X-16726Y53660D01*
X-16372Y54189D01*
X-16248Y54814D01*
X-16372Y55438D01*
X-16726Y55967D01*
X-17255Y56321D01*
X-17879Y56445D01*
D02*
G37*
G36*
X-17616Y52631D02*
X-18240Y52507D01*
X-18769Y52153D01*
X-19123Y51624D01*
X-19247Y51000D01*
X-19123Y50375D01*
X-18769Y49846D01*
X-18240Y49492D01*
X-17616Y49368D01*
X-16991Y49492D01*
X-16462Y49846D01*
X-16108Y50375D01*
X-15984Y51000D01*
X-16108Y51624D01*
X-16462Y52153D01*
X-16991Y52507D01*
X-17616Y52631D01*
D02*
G37*
G36*
X-12972Y49448D02*
X-13596Y49323D01*
X-14126Y48970D01*
X-14479Y48440D01*
X-14557Y48050D01*
X-15056Y47798D01*
X-15078Y47797D01*
X-15301Y47946D01*
X-15925Y48070D01*
X-16550Y47946D01*
X-17079Y47592D01*
X-17433Y47063D01*
X-17557Y46439D01*
X-17433Y45814D01*
X-17203Y45470D01*
X-17503Y45020D01*
X-17879Y45095D01*
X-18503Y44971D01*
X-19033Y44617D01*
X-19386Y44088D01*
X-19511Y43463D01*
X-19386Y42839D01*
X-19033Y42310D01*
X-18503Y41956D01*
X-17879Y41832D01*
X-17255Y41956D01*
X-16764Y42284D01*
X-16538Y42251D01*
X-16228Y42154D01*
X-16190Y41963D01*
X-15836Y41433D01*
X-15307Y41080D01*
X-14683Y40956D01*
X-14058Y41080D01*
X-13529Y41433D01*
X-13176Y41963D01*
X-13051Y42587D01*
X-13176Y43211D01*
X-13529Y43740D01*
X-14058Y44094D01*
X-14683Y44218D01*
X-15307Y44094D01*
X-15798Y43766D01*
X-16024Y43799D01*
X-16334Y43896D01*
X-16372Y44088D01*
X-16602Y44432D01*
X-16301Y44882D01*
X-15925Y44807D01*
X-15301Y44931D01*
X-14772Y45285D01*
X-14418Y45814D01*
X-14341Y46205D01*
X-13842Y46457D01*
X-13819Y46458D01*
X-13596Y46309D01*
X-12972Y46185D01*
X-12348Y46309D01*
X-11819Y46663D01*
X-11465Y47192D01*
X-11341Y47816D01*
X-11465Y48440D01*
X-11819Y48970D01*
X-12348Y49323D01*
X-12972Y49448D01*
D02*
G37*
G36*
X2925Y50823D02*
X2301Y50699D01*
X1772Y50345D01*
X1418Y49816D01*
X1294Y49192D01*
X1418Y48568D01*
X1772Y48038D01*
X2301Y47685D01*
X2925Y47561D01*
X3550Y47685D01*
X4079Y48038D01*
X4432Y48568D01*
X4557Y49192D01*
X4432Y49816D01*
X4079Y50345D01*
X3550Y50699D01*
X2925Y50823D01*
D02*
G37*
G36*
X167Y44341D02*
X-457Y44217D01*
X-986Y43863D01*
X-1340Y43334D01*
X-1464Y42709D01*
X-1340Y42085D01*
X-986Y41556D01*
X-457Y41202D01*
X167Y41078D01*
X792Y41202D01*
X1321Y41556D01*
X1674Y42085D01*
X1798Y42709D01*
X1674Y43334D01*
X1321Y43863D01*
X792Y44217D01*
X167Y44341D01*
D02*
G37*
G36*
X16134Y42930D02*
X15510Y42805D01*
X14980Y42452D01*
X14627Y41923D01*
X14502Y41298D01*
X14627Y40674D01*
X14980Y40145D01*
X15510Y39791D01*
X16134Y39667D01*
X16758Y39791D01*
X17287Y40145D01*
X17641Y40674D01*
X17765Y41298D01*
X17641Y41923D01*
X17287Y42452D01*
X16758Y42805D01*
X16134Y42930D01*
D02*
G37*
G36*
X-594Y40402D02*
X-1218Y40278D01*
X-1747Y39924D01*
X-2101Y39395D01*
X-2225Y38771D01*
X-2101Y38147D01*
X-1747Y37617D01*
X-1218Y37264D01*
X-594Y37140D01*
X30Y37264D01*
X560Y37617D01*
X913Y38147D01*
X1037Y38771D01*
X913Y39395D01*
X560Y39924D01*
X30Y40278D01*
X-594Y40402D01*
D02*
G37*
G36*
X-11448Y37596D02*
X-12072Y37472D01*
X-12602Y37118D01*
X-12955Y36589D01*
X-13080Y35965D01*
X-12955Y35341D01*
X-12602Y34811D01*
X-12072Y34458D01*
X-11448Y34334D01*
X-10824Y34458D01*
X-10295Y34811D01*
X-9941Y35341D01*
X-9817Y35965D01*
X-9941Y36589D01*
X-10295Y37118D01*
X-10824Y37472D01*
X-11448Y37596D01*
D02*
G37*
G36*
X-2779Y35414D02*
X-3404Y35289D01*
X-3933Y34936D01*
X-4286Y34407D01*
X-4411Y33782D01*
X-4286Y33158D01*
X-3933Y32629D01*
X-3404Y32275D01*
X-2779Y32151D01*
X-2155Y32275D01*
X-1626Y32629D01*
X-1272Y33158D01*
X-1148Y33782D01*
X-1272Y34407D01*
X-1626Y34936D01*
X-2155Y35289D01*
X-2779Y35414D01*
D02*
G37*
G36*
X-11378Y32971D02*
X-12002Y32846D01*
X-12531Y32493D01*
X-12885Y31964D01*
X-13009Y31339D01*
X-12885Y30715D01*
X-12531Y30186D01*
X-12002Y29832D01*
X-11378Y29708D01*
X-10753Y29832D01*
X-10224Y30186D01*
X-9870Y30715D01*
X-9746Y31339D01*
X-9870Y31964D01*
X-10224Y32493D01*
X-10753Y32846D01*
X-11378Y32971D01*
D02*
G37*
G36*
X15699Y31449D02*
X15075Y31325D01*
X14546Y30972D01*
X14192Y30442D01*
X14068Y29818D01*
X14192Y29194D01*
X14546Y28665D01*
X15075Y28311D01*
X15699Y28187D01*
X16323Y28311D01*
X16852Y28665D01*
X17206Y29194D01*
X17330Y29818D01*
X17206Y30442D01*
X16852Y30972D01*
X16323Y31325D01*
X15699Y31449D01*
D02*
G37*
G36*
X64957Y31401D02*
X64333Y31277D01*
X63804Y30923D01*
X63450Y30394D01*
X63326Y29770D01*
X63450Y29145D01*
X63804Y28616D01*
X64333Y28262D01*
X64957Y28138D01*
X65582Y28262D01*
X66111Y28616D01*
X66464Y29145D01*
X66588Y29770D01*
X66464Y30394D01*
X66111Y30923D01*
X65582Y31277D01*
X64957Y31401D01*
D02*
G37*
G36*
X77727Y31312D02*
X77103Y31187D01*
X76574Y30834D01*
X76220Y30305D01*
X76096Y29680D01*
X76220Y29056D01*
X76574Y28527D01*
X77103Y28173D01*
X77727Y28049D01*
X78352Y28173D01*
X78881Y28527D01*
X79235Y29056D01*
X79359Y29680D01*
X79235Y30305D01*
X78881Y30834D01*
X78352Y31187D01*
X77727Y31312D01*
D02*
G37*
G36*
X90713Y31130D02*
X90088Y31005D01*
X89559Y30652D01*
X89205Y30122D01*
X89081Y29498D01*
X89205Y28874D01*
X89559Y28345D01*
X90088Y27991D01*
X90713Y27867D01*
X91337Y27991D01*
X91866Y28345D01*
X92220Y28874D01*
X92344Y29498D01*
X92220Y30122D01*
X91866Y30652D01*
X91337Y31005D01*
X90713Y31130D01*
D02*
G37*
G36*
X31767Y30543D02*
X31142Y30419D01*
X30613Y30065D01*
X30260Y29536D01*
X30135Y28912D01*
X30260Y28288D01*
X30613Y27758D01*
X31142Y27405D01*
X31767Y27281D01*
X32391Y27405D01*
X32920Y27758D01*
X33274Y28288D01*
X33398Y28912D01*
X33274Y29536D01*
X32920Y30065D01*
X32391Y30419D01*
X31767Y30543D01*
D02*
G37*
G36*
X3319Y30248D02*
X2695Y30124D01*
X2165Y29771D01*
X1812Y29241D01*
X1688Y28617D01*
X1812Y27993D01*
X2165Y27464D01*
X2695Y27110D01*
X3319Y26986D01*
X3943Y27110D01*
X4473Y27464D01*
X4826Y27993D01*
X4950Y28617D01*
X4826Y29241D01*
X4473Y29771D01*
X3943Y30124D01*
X3319Y30248D01*
D02*
G37*
G36*
X90657Y26819D02*
X90033Y26695D01*
X89504Y26342D01*
X89150Y25812D01*
X89026Y25188D01*
X89150Y24564D01*
X89504Y24035D01*
X90033Y23681D01*
X90657Y23557D01*
X91281Y23681D01*
X91811Y24035D01*
X92164Y24564D01*
X92289Y25188D01*
X92164Y25812D01*
X91811Y26342D01*
X91281Y26695D01*
X90657Y26819D01*
D02*
G37*
G36*
X116557Y23701D02*
X115933Y23577D01*
X115404Y23223D01*
X115050Y22694D01*
X114926Y22070D01*
X115050Y21445D01*
X115404Y20916D01*
X115933Y20562D01*
X116557Y20438D01*
X117182Y20562D01*
X117711Y20916D01*
X118064Y21445D01*
X118189Y22070D01*
X118064Y22694D01*
X117711Y23223D01*
X117182Y23577D01*
X116557Y23701D01*
D02*
G37*
G36*
X77657Y26925D02*
X77033Y26801D01*
X76504Y26447D01*
X76150Y25918D01*
X76026Y25294D01*
X76150Y24669D01*
X76504Y24140D01*
X77033Y23787D01*
X77300Y23733D01*
X77448Y23704D01*
Y23194D01*
X77286Y23162D01*
X76947Y23094D01*
X76418Y22741D01*
X76064Y22211D01*
X75940Y21587D01*
X76064Y20963D01*
X76418Y20434D01*
X76947Y20080D01*
X77571Y19956D01*
X78196Y20080D01*
X78725Y20434D01*
X79079Y20963D01*
X79203Y21587D01*
X79079Y22211D01*
X78725Y22741D01*
X78196Y23094D01*
X77929Y23147D01*
X77780Y23177D01*
Y23687D01*
X77942Y23719D01*
X78281Y23787D01*
X78811Y24140D01*
X79164Y24669D01*
X79289Y25294D01*
X79164Y25918D01*
X78811Y26447D01*
X78281Y26801D01*
X77657Y26925D01*
D02*
G37*
G36*
X90739Y22906D02*
X90114Y22782D01*
X89585Y22429D01*
X89232Y21899D01*
X89107Y21275D01*
X89232Y20651D01*
X89585Y20121D01*
X90114Y19768D01*
X90739Y19644D01*
X91363Y19768D01*
X91892Y20121D01*
X92246Y20651D01*
X92370Y21275D01*
X92246Y21899D01*
X91892Y22429D01*
X91363Y22782D01*
X90739Y22906D01*
D02*
G37*
G36*
X24974Y21374D02*
X24349Y21249D01*
X23820Y20896D01*
X23467Y20367D01*
X23342Y19742D01*
X23467Y19118D01*
X23820Y18589D01*
X24349Y18235D01*
X24974Y18111D01*
X25598Y18235D01*
X26127Y18589D01*
X26481Y19118D01*
X26605Y19742D01*
X26481Y20367D01*
X26127Y20896D01*
X25598Y21249D01*
X24974Y21374D01*
D02*
G37*
G36*
X117325Y19323D02*
X116701Y19199D01*
X116560Y19105D01*
D01*
X116171Y18845D01*
X115818Y18316D01*
X115694Y17692D01*
X115818Y17068D01*
X116171Y16538D01*
X116701Y16185D01*
X117325Y16060D01*
X117949Y16185D01*
X118478Y16538D01*
X118832Y17068D01*
X118956Y17692D01*
X118832Y18316D01*
X118478Y18845D01*
X117949Y19199D01*
X117325Y19323D01*
D02*
G37*
G36*
X122157Y18201D02*
X121533Y18077D01*
X121004Y17723D01*
X120650Y17194D01*
X120526Y16570D01*
X120650Y15945D01*
X121004Y15416D01*
X121533Y15062D01*
X122157Y14938D01*
X122782Y15062D01*
X123311Y15416D01*
X123664Y15945D01*
X123788Y16570D01*
X123664Y17194D01*
X123311Y17723D01*
X122782Y18077D01*
X122157Y18201D01*
D02*
G37*
G36*
X123819Y1851D02*
X123195Y1727D01*
X122665Y1373D01*
X122599Y1274D01*
X121998D01*
X121932Y1373D01*
X121403Y1727D01*
X120778Y1851D01*
X120154Y1727D01*
X119625Y1373D01*
X119271Y844D01*
X119147Y219D01*
X119271Y-405D01*
X119625Y-934D01*
X120017Y-1196D01*
X120041Y-1277D01*
Y-1671D01*
X120017Y-1752D01*
X119625Y-2014D01*
X119271Y-2544D01*
X119147Y-3168D01*
X119271Y-3792D01*
X119625Y-4321D01*
X120154Y-4675D01*
X120778Y-4799D01*
X121403Y-4675D01*
X121932Y-4321D01*
X121998Y-4222D01*
X122599D01*
X122665Y-4321D01*
X123195Y-4675D01*
X123819Y-4799D01*
X124443Y-4675D01*
X124972Y-4321D01*
X125326Y-3792D01*
X125450Y-3168D01*
X125326Y-2544D01*
X124972Y-2014D01*
X124580Y-1752D01*
X124556Y-1671D01*
Y-1277D01*
X124580Y-1196D01*
X124972Y-934D01*
X125326Y-405D01*
X125450Y219D01*
X125326Y844D01*
X124972Y1373D01*
X124443Y1727D01*
X123819Y1851D01*
D02*
G37*
G36*
X108898Y2630D02*
X108273Y2506D01*
X107744Y2152D01*
X107390Y1623D01*
X107266Y999D01*
X107390Y375D01*
X107744Y-155D01*
X108273Y-508D01*
X108898Y-632D01*
X109522Y-508D01*
X110051Y-155D01*
X110405Y375D01*
X110529Y999D01*
X110405Y1623D01*
X110051Y2152D01*
X109522Y2506D01*
X108898Y2630D01*
D02*
G37*
G36*
X68362Y-2830D02*
X67629Y-2976D01*
X67007Y-3391D01*
X66592Y-4013D01*
X66446Y-4746D01*
X66592Y-5480D01*
X67007Y-6101D01*
X67629Y-6517D01*
X68362Y-6663D01*
X69095Y-6517D01*
X69717Y-6101D01*
X70132Y-5480D01*
X70278Y-4746D01*
X70132Y-4013D01*
X69717Y-3391D01*
X69095Y-2976D01*
X68362Y-2830D01*
D02*
G37*
G36*
X45606D02*
X44873Y-2976D01*
X44251Y-3391D01*
X43835Y-4013D01*
X43690Y-4746D01*
X43835Y-5480D01*
X44251Y-6101D01*
X44873Y-6517D01*
X45606Y-6663D01*
X46339Y-6517D01*
X46961Y-6101D01*
X47376Y-5480D01*
X47522Y-4746D01*
X47376Y-4013D01*
X46961Y-3391D01*
X46339Y-2976D01*
X45606Y-2830D01*
D02*
G37*
G36*
X50618Y-3296D02*
X49994Y-3420D01*
X49464Y-3773D01*
X49111Y-4303D01*
X48987Y-4927D01*
X49111Y-5551D01*
X49464Y-6080D01*
X49994Y-6434D01*
X50618Y-6558D01*
X51242Y-6434D01*
X51479Y-6276D01*
X52059Y-6244D01*
X52588Y-6598D01*
X53213Y-6722D01*
X53837Y-6598D01*
X54366Y-6244D01*
X54415Y-6172D01*
X54737D01*
X55266Y-6526D01*
X55890Y-6650D01*
X56515Y-6526D01*
X56901Y-6267D01*
X57519Y-6292D01*
X57582Y-6388D01*
X58112Y-6741D01*
X58736Y-6865D01*
X59360Y-6741D01*
X59755Y-6478D01*
X60176Y-6209D01*
X60706Y-6563D01*
X61330Y-6687D01*
X61954Y-6563D01*
X62483Y-6209D01*
X62837Y-5680D01*
X62961Y-5055D01*
X62837Y-4431D01*
X62483Y-3902D01*
X61954Y-3548D01*
X61330Y-3424D01*
X60706Y-3548D01*
X60176Y-3902D01*
X59589Y-3880D01*
X59360Y-3727D01*
X58736Y-3603D01*
X58112Y-3727D01*
X57725Y-3985D01*
X57107Y-3960D01*
X57044Y-3865D01*
X56515Y-3511D01*
X55890Y-3387D01*
X55266Y-3511D01*
X54737Y-3865D01*
X54688Y-3937D01*
X54366D01*
X53837Y-3584D01*
X53213Y-3459D01*
X52588Y-3584D01*
X52059Y-3937D01*
X51630Y-3679D01*
X51242Y-3420D01*
X50618Y-3296D01*
D02*
G37*
G36*
X63637Y-6769D02*
X63012Y-6893D01*
X62483Y-7246D01*
X62130Y-7776D01*
X62005Y-8400D01*
X62130Y-9024D01*
X62483Y-9554D01*
X63012Y-9907D01*
X63637Y-10031D01*
X64261Y-9907D01*
X64790Y-9554D01*
X65144Y-9024D01*
X65268Y-8400D01*
X65144Y-7776D01*
X64790Y-7246D01*
X64261Y-6893D01*
X63637Y-6769D01*
D02*
G37*
G36*
X54915Y-7643D02*
X54291Y-7768D01*
X53762Y-8121D01*
X53408Y-8651D01*
X53284Y-9275D01*
X53408Y-9899D01*
X53762Y-10428D01*
X54291Y-10782D01*
X54915Y-10906D01*
X55539Y-10782D01*
X56069Y-10428D01*
X56422Y-9899D01*
X56546Y-9275D01*
X56422Y-8651D01*
X56069Y-8121D01*
X55539Y-7768D01*
X54915Y-7643D01*
D02*
G37*
G36*
X81557Y-18120D02*
X80933Y-18244D01*
X80403Y-18597D01*
X80050Y-19127D01*
X79926Y-19751D01*
X80050Y-20375D01*
X80403Y-20904D01*
X80933Y-21258D01*
X81557Y-21382D01*
X82181Y-21258D01*
X82710Y-20904D01*
X83064Y-20375D01*
X83188Y-19751D01*
X83064Y-19127D01*
X82710Y-18597D01*
X82181Y-18244D01*
X81557Y-18120D01*
D02*
G37*
%LPD*%
D65*
X-12373Y60081D02*
Y64003D01*
X-15839Y62708D02*
X-14035Y64512D01*
X-12803Y64433D02*
X-12373Y64003D01*
X-14035Y64512D02*
X-12994D01*
X-12803Y64433D02*
Y64704D01*
X-12994Y64512D02*
X-12803Y64704D01*
D66*
X211400Y33386D02*
X212540D01*
X200690Y22638D02*
X210157Y32106D01*
Y32143D01*
X211400Y33386D01*
X152281Y35262D02*
Y88598D01*
X164906Y22638D02*
X200690D01*
X152281Y35262D02*
X164906Y22638D01*
X122559Y118320D02*
X152281Y88598D01*
X49947Y118320D02*
X122559D01*
X33094Y101468D02*
X49947Y118320D01*
X18933Y101468D02*
X33094D01*
X3327Y85861D02*
X18933Y101468D01*
X3327Y72846D02*
Y85861D01*
D67*
X57353Y94740D02*
X69884Y107271D01*
Y113968D01*
X57353Y83568D02*
Y94740D01*
X119780Y-21162D02*
Y-18675D01*
D71*
X180394Y120438D02*
D03*
D72*
X264252Y11991D02*
D03*
Y88369D02*
D03*
D73*
X39956Y-2777D02*
D03*
X74012D02*
D03*
D74*
X39956Y-19234D02*
D03*
X74012D02*
D03*
D76*
X0Y0D02*
D03*
X0Y100495D02*
D03*
D77*
X-6706Y14984D02*
D03*
X217096Y23728D02*
D03*
X220339Y26831D02*
D03*
X216218Y27126D02*
D03*
X212540Y33386D02*
D03*
X213674Y36769D02*
D03*
X210157Y32143D02*
D03*
Y35803D02*
D03*
X217989Y37623D02*
D03*
X224851Y36769D02*
D03*
X221788D02*
D03*
X216361Y50697D02*
D03*
X206396Y51145D02*
D03*
X210157Y50150D02*
D03*
X212240Y77806D02*
D03*
X216520D02*
D03*
X241571Y82297D02*
D03*
X223633Y28071D02*
D03*
X237086Y44733D02*
D03*
X225028Y77924D02*
D03*
X223868Y75115D02*
D03*
X156496Y89751D02*
D03*
X53957Y5193D02*
D03*
X12559Y2598D02*
D03*
X-13025Y20203D02*
D03*
X153517Y30349D02*
D03*
X156126Y27740D02*
D03*
X154882Y36636D02*
D03*
X238858Y4724D02*
D03*
X250121Y5074D02*
D03*
X255276Y5236D02*
D03*
X241412Y6355D02*
D03*
X244484Y73040D02*
D03*
X244297Y78354D02*
D03*
X239685Y84961D02*
D03*
X226476Y81614D02*
D03*
X219048Y86207D02*
D03*
X216361Y89229D02*
D03*
X221735Y77806D02*
D03*
X220897Y81614D02*
D03*
X214803D02*
D03*
X212240Y86207D02*
D03*
X244484Y39963D02*
D03*
Y45476D02*
D03*
X239543Y40157D02*
D03*
X233347Y42166D02*
D03*
X220512Y52205D02*
D03*
X229930Y42166D02*
D03*
X225660Y40157D02*
D03*
X227059Y44233D02*
D03*
X215662Y47264D02*
D03*
X212540Y39496D02*
D03*
X214764Y43386D02*
D03*
X221256Y40890D02*
D03*
X223274Y44349D02*
D03*
X224811Y46545D02*
D03*
X223071Y49904D02*
D03*
X220507Y47846D02*
D03*
X218725Y44733D02*
D03*
X217096Y40157D02*
D03*
X211438Y42166D02*
D03*
X212402Y46330D02*
D03*
X213077Y49942D02*
D03*
X212402Y26222D02*
D03*
X207951Y20038D02*
D03*
X203486Y16417D02*
D03*
X189981Y11280D02*
D03*
X183688Y15456D02*
D03*
X189981Y16417D02*
D03*
X187477Y9604D02*
D03*
Y13927D02*
D03*
X194253Y14973D02*
D03*
X198134Y15456D02*
D03*
X203526Y12527D02*
D03*
X224432Y22740D02*
D03*
X220651Y22108D02*
D03*
X240103Y20910D02*
D03*
X229944Y18787D02*
D03*
X241497Y17894D02*
D03*
X236922Y17165D02*
D03*
X233347Y18787D02*
D03*
Y10095D02*
D03*
X238671Y14200D02*
D03*
X232079Y12527D02*
D03*
X232127Y5254D02*
D03*
X244484Y28937D02*
D03*
X243327Y22740D02*
D03*
X244724Y26222D02*
D03*
X245784Y20486D02*
D03*
X244484Y31694D02*
D03*
Y42719D02*
D03*
Y37206D02*
D03*
Y34450D02*
D03*
X217096Y20432D02*
D03*
X227539Y15799D02*
D03*
X223633Y18787D02*
D03*
X227587Y21634D02*
D03*
X219054Y15681D02*
D03*
X207008Y16417D02*
D03*
X212798Y17036D02*
D03*
X212540Y22108D02*
D03*
X34660Y109166D02*
D03*
X33287Y105337D02*
D03*
X34102Y116769D02*
D03*
X28597Y117546D02*
D03*
X180954Y20038D02*
D03*
Y25238D02*
D03*
X198134D02*
D03*
X184390Y20038D02*
D03*
X191262D02*
D03*
X187826D02*
D03*
X142873Y94329D02*
D03*
X148804Y95753D02*
D03*
X147500Y89342D02*
D03*
X142677Y80250D02*
D03*
X142747Y91780D02*
D03*
X142367Y85700D02*
D03*
X200359Y32660D02*
D03*
X207951Y26222D02*
D03*
X203526Y32660D02*
D03*
X193009Y11280D02*
D03*
X194802Y20038D02*
D03*
X203526Y21797D02*
D03*
X192024Y32660D02*
D03*
X227886Y31159D02*
D03*
X193268Y6208D02*
D03*
X187477Y5590D02*
D03*
X199524Y4853D02*
D03*
X141026Y120010D02*
D03*
X159276Y120975D02*
D03*
X48370Y109166D02*
D03*
X12652Y90520D02*
D03*
X6214Y84954D02*
D03*
X18933Y96011D02*
D03*
X-202Y-16230D02*
D03*
X13750Y32D02*
D03*
X244484Y64771D02*
D03*
Y67527D02*
D03*
X203780Y29488D02*
D03*
X224851Y30786D02*
D03*
X207951Y43488D02*
D03*
X181780Y55433D02*
D03*
X221381Y72371D02*
D03*
X218773D02*
D03*
X244484Y70284D02*
D03*
X210157Y28071D02*
D03*
X187826Y25238D02*
D03*
X-13823Y27223D02*
D03*
X-17079Y13757D02*
D03*
X-1454Y68698D02*
D03*
X-12803Y64704D02*
D03*
X-5334Y112344D02*
D03*
X-7423Y110744D02*
D03*
X-10046Y108744D02*
D03*
X-12224Y107010D02*
D03*
X-14224Y105099D02*
D03*
X-24787Y19180D02*
D03*
X-24768Y16504D02*
D03*
X-24816Y13947D02*
D03*
X-24794Y11424D02*
D03*
X-2803Y-14962D02*
D03*
X-6283Y-12756D02*
D03*
X-8770Y-10566D02*
D03*
X-11682Y-8081D02*
D03*
X-14361Y-5868D02*
D03*
X-18126Y63280D02*
D03*
X-18093Y65955D02*
D03*
X-15839Y62708D02*
D03*
X-19154Y-767D02*
D03*
X-16610Y-3438D02*
D03*
X-21763Y2443D02*
D03*
X-2217Y18969D02*
D03*
X-13342Y62446D02*
D03*
X-12373Y60081D02*
D03*
X-15896Y65932D02*
D03*
X-14743Y68206D02*
D03*
X78073Y-426D02*
D03*
X69884Y113968D02*
D03*
X-2018Y61372D02*
D03*
X159863Y-26560D02*
D03*
X148669D02*
D03*
X137795D02*
D03*
Y-23682D02*
D03*
X121095Y-26760D02*
D03*
X126732Y-25017D02*
D03*
X244484Y56502D02*
D03*
X69022Y92420D02*
D03*
X27005Y90482D02*
D03*
X64201Y93263D02*
D03*
X-6003Y85814D02*
D03*
X-3189Y83200D02*
D03*
X108780Y-26760D02*
D03*
X108299Y126105D02*
D03*
X104657Y125979D02*
D03*
X56463Y109321D02*
D03*
X33565Y87611D02*
D03*
X34691Y94320D02*
D03*
X10645Y49854D02*
D03*
X43074Y7008D02*
D03*
X-16396Y103281D02*
D03*
X-18240Y100783D02*
D03*
X-20930Y98440D02*
D03*
X-22621Y96288D02*
D03*
X-3010Y114054D02*
D03*
X-848Y115814D02*
D03*
X1977Y117022D02*
D03*
X4336Y118432D02*
D03*
X6695Y119430D02*
D03*
X9274Y120597D02*
D03*
X11585Y121668D02*
D03*
X14236Y122641D02*
D03*
X80685Y115571D02*
D03*
X62795Y7008D02*
D03*
X173524Y121897D02*
D03*
X172295Y112842D02*
D03*
X183508Y115928D02*
D03*
X185280Y111558D02*
D03*
X185476Y101798D02*
D03*
X180053Y99040D02*
D03*
X174605Y108922D02*
D03*
X185476Y95019D02*
D03*
X207205D02*
D03*
X226476Y92752D02*
D03*
X220897Y93944D02*
D03*
X223353Y95640D02*
D03*
X227244Y87267D02*
D03*
X224287Y87951D02*
D03*
X212240Y93342D02*
D03*
X216520Y95350D02*
D03*
X211639Y95808D02*
D03*
X203453Y95019D02*
D03*
X198247Y95570D02*
D03*
X194437D02*
D03*
X188980Y95019D02*
D03*
X183508Y97168D02*
D03*
X178965Y101798D02*
D03*
X161240Y117893D02*
D03*
X164370Y112680D02*
D03*
X169087Y109058D02*
D03*
X172295Y106924D02*
D03*
X164370Y120975D02*
D03*
X172740Y117893D02*
D03*
X169087Y120975D02*
D03*
X169890Y126397D02*
D03*
X162626Y125857D02*
D03*
X158034Y125931D02*
D03*
X166500Y115873D02*
D03*
X169087Y112842D02*
D03*
X156760Y71256D02*
D03*
Y75382D02*
D03*
X158085Y79699D02*
D03*
X160315Y82716D02*
D03*
X163360Y83678D02*
D03*
X162409Y86810D02*
D03*
X156610Y92361D02*
D03*
X154516Y94239D02*
D03*
X152567Y96381D02*
D03*
X244484Y48232D02*
D03*
Y50989D02*
D03*
X189245Y32660D02*
D03*
X226463Y11188D02*
D03*
X205827Y23898D02*
D03*
X194698Y25238D02*
D03*
X223996Y52470D02*
D03*
X172981Y72087D02*
D03*
X224813Y55309D02*
D03*
X212402Y30315D02*
D03*
X191262Y25238D02*
D03*
X238858Y9393D02*
D03*
X228406Y7609D02*
D03*
X235803Y6743D02*
D03*
X209323Y11188D02*
D03*
X204102Y7960D02*
D03*
X208008Y4972D02*
D03*
X200984Y27126D02*
D03*
X201681Y20038D02*
D03*
X206396Y32660D02*
D03*
X198134Y20038D02*
D03*
X197565Y9604D02*
D03*
X194802Y32660D02*
D03*
X197580D02*
D03*
X244484Y53745D02*
D03*
X221735Y55433D02*
D03*
X239199Y79370D02*
D03*
X244484Y62014D02*
D03*
Y59258D02*
D03*
X241992Y79370D02*
D03*
X244484Y75797D02*
D03*
X228706Y79370D02*
D03*
X223885Y72276D02*
D03*
X180408Y75354D02*
D03*
X175353Y32660D02*
D03*
X183688D02*
D03*
X186467D02*
D03*
X207951Y39496D02*
D03*
X184390Y25238D02*
D03*
X219048Y55433D02*
D03*
X200670Y51145D02*
D03*
X197491Y49845D02*
D03*
X194434Y49814D02*
D03*
X191377Y49845D02*
D03*
X188321D02*
D03*
X185264D02*
D03*
X182207D02*
D03*
X179151D02*
D03*
X175914Y55433D02*
D03*
X139401Y114596D02*
D03*
X142747Y106739D02*
D03*
X139673Y111239D02*
D03*
X145851Y102210D02*
D03*
X142993Y103944D02*
D03*
X150662Y98392D02*
D03*
X141874Y109412D02*
D03*
X148331Y100385D02*
D03*
X129457Y107746D02*
D03*
X-23860Y5565D02*
D03*
X63954Y115377D02*
D03*
X3327Y72846D02*
D03*
X122107Y-18686D02*
D03*
X154753Y-26560D02*
D03*
X176094Y49920D02*
D03*
X173037D02*
D03*
X174507Y-20798D02*
D03*
Y-23588D02*
D03*
X171693Y-20845D02*
D03*
Y-23588D02*
D03*
X80568Y-22916D02*
D03*
X78664Y-20864D02*
D03*
X77873Y-10306D02*
D03*
X78614Y-18193D02*
D03*
X77873Y-15489D02*
D03*
X77823Y-13125D02*
D03*
X78051Y-3784D02*
D03*
X100472Y-26760D02*
D03*
X85052D02*
D03*
X88145D02*
D03*
X97677D02*
D03*
X123828Y-25017D02*
D03*
X123851Y-21882D02*
D03*
X126732Y-21790D02*
D03*
X119780Y-16187D02*
D03*
Y-18675D02*
D03*
X122107Y-16187D02*
D03*
X119780Y-21162D02*
D03*
X9258Y-2450D02*
D03*
X12216D02*
D03*
X9405Y1576D02*
D03*
X15637Y-6549D02*
D03*
X141138Y116514D02*
D03*
X181780Y72087D02*
D03*
X175914D02*
D03*
X160757Y49920D02*
D03*
X163867Y50010D02*
D03*
X166924Y50030D02*
D03*
X169981Y50010D02*
D03*
X156331Y41877D02*
D03*
X180910Y32660D02*
D03*
X178131D02*
D03*
X177518Y25238D02*
D03*
X174082D02*
D03*
X172981Y55433D02*
D03*
X178847D02*
D03*
X129457Y102309D02*
D03*
Y105027D02*
D03*
Y99590D02*
D03*
Y88734D02*
D03*
Y86015D02*
D03*
Y83297D02*
D03*
Y91452D02*
D03*
X120197Y35800D02*
D03*
X129457Y30025D02*
D03*
Y27306D02*
D03*
Y24588D02*
D03*
Y32743D02*
D03*
X116557Y108664D02*
D03*
Y100509D02*
D03*
Y105946D02*
D03*
Y97790D02*
D03*
Y86934D02*
D03*
Y84215D02*
D03*
Y89652D02*
D03*
Y40756D02*
D03*
Y43475D02*
D03*
Y30225D02*
D03*
Y27506D02*
D03*
Y32943D02*
D03*
X103957Y108764D02*
D03*
Y100609D02*
D03*
Y106045D02*
D03*
Y97890D02*
D03*
Y87034D02*
D03*
Y84315D02*
D03*
Y89752D02*
D03*
Y30325D02*
D03*
Y27606D02*
D03*
Y33043D02*
D03*
X90657Y109064D02*
D03*
Y100909D02*
D03*
Y106345D02*
D03*
Y98190D02*
D03*
Y87334D02*
D03*
Y84615D02*
D03*
Y90052D02*
D03*
X77571Y34625D02*
D03*
X77657Y90158D02*
D03*
Y84721D02*
D03*
Y87440D02*
D03*
Y98296D02*
D03*
Y103733D02*
D03*
Y101014D02*
D03*
X48370Y126897D02*
D03*
X44929Y126940D02*
D03*
X41734Y126897D02*
D03*
X38181D02*
D03*
X34142Y126940D02*
D03*
X30703Y126726D02*
D03*
X27404Y126237D02*
D03*
X23844Y125389D02*
D03*
X20463Y124513D02*
D03*
X17082Y123613D02*
D03*
X-24465Y93905D02*
D03*
X-16404Y97207D02*
D03*
X-24768Y8749D02*
D03*
X64957Y40543D02*
D03*
Y43236D02*
D03*
X64804Y33592D02*
D03*
X64757Y36670D02*
D03*
X65057Y83143D02*
D03*
Y85836D02*
D03*
Y88529D02*
D03*
Y80170D02*
D03*
X64677Y109576D02*
D03*
X158960Y36489D02*
D03*
X157320Y38753D02*
D03*
X141026Y125821D02*
D03*
Y122915D02*
D03*
X156773Y45338D02*
D03*
X158908Y47291D02*
D03*
X158792Y60844D02*
D03*
X158085Y64142D02*
D03*
X158749Y67363D02*
D03*
X102905Y16899D02*
D03*
X178847Y72087D02*
D03*
X172575Y32660D02*
D03*
D78*
X145610Y99512D02*
D03*
X142677Y73720D02*
D03*
X139673Y94239D02*
D03*
X133890Y94449D02*
D03*
X110557Y36670D02*
D03*
X84386Y36770D02*
D03*
X90929D02*
D03*
X104014Y36670D02*
D03*
X97471Y36770D02*
D03*
X71300Y36670D02*
D03*
X129527D02*
D03*
X117040D02*
D03*
X123255D02*
D03*
X76803Y94468D02*
D03*
X129755Y94370D02*
D03*
X123540D02*
D03*
X71257D02*
D03*
X84343D02*
D03*
X103971Y94470D02*
D03*
X110514Y94370D02*
D03*
X97429Y94470D02*
D03*
X90886D02*
D03*
X117057Y94370D02*
D03*
M02*
